<svg xmlns="http://www.w3.org/2000/svg" xmlns:xlink="http://www.w3.org/1999/xlink" width="110.913" height="128.047" viewBox="0 0 110.913 128.047"><clipPath id="a"><path d="m101.52 90.631v-53.201l-46.1-26.599-46.101 26.599v53.201l46.101 26.599z"/></clipPath><linearGradient id="b" x1="55.419" x2="55.419" y1="37.781" y2="111.302" gradientUnits="userSpaceOnUse"><stop offset="0" stop-color="#6b87e2"/><stop offset=".052" stop-color="#6e80d2"/><stop offset=".197" stop-color="#766fa9"/><stop offset=".347" stop-color="#7c6088"/><stop offset=".5" stop-color="#81556e"/><stop offset=".656" stop-color="#844d5c"/><stop offset=".82" stop-color="#864951"/><stop offset="1" stop-color="#87474d"/></linearGradient><linearGradient id="c" x1="55.419" x2="55.419" y1="29.865" y2="67.709" gradientUnits="userSpaceOnUse"><stop offset=".002" stop-color="#0071bc"/><stop offset=".071" stop-color="#005e9c" stop-opacity=".931"/><stop offset=".173" stop-color="#004572" stop-opacity=".829"/><stop offset=".281" stop-color="#00304f" stop-opacity=".721"/><stop offset=".394" stop-color="#001e32" stop-opacity=".608"/><stop offset=".514" stop-color="#00111c" stop-opacity=".487"/><stop offset=".645" stop-color="#00070c" stop-opacity=".356"/><stop offset=".793" stop-color="#000203" stop-opacity=".207"/><stop offset="1" stop-opacity="0"/></linearGradient><linearGradient id="d" x1="59.951" x2="59.951" y1="73.215" y2="113.705" gradientUnits="userSpaceOnUse"><stop offset="0" stop-color="#0ff" stop-opacity="0"/><stop offset=".257" stop-color="#0be9f7" stop-opacity=".257"/><stop offset="1" stop-color="#29abe2"/></linearGradient><linearGradient id="e"><stop offset="0" stop-color="#6b87e2" stop-opacity="0"/><stop offset=".025" stop-color="#6982d6" stop-opacity=".025"/><stop offset=".112" stop-color="#6174b2" stop-opacity=".112"/><stop offset=".205" stop-color="#5b6892" stop-opacity=".205"/><stop offset=".307" stop-color="#565e79" stop-opacity=".307"/><stop offset=".42" stop-color="#525665" stop-opacity=".42"/><stop offset=".55" stop-color="#4f5157" stop-opacity=".55"/><stop offset=".711" stop-color="#4d4e4f" stop-opacity=".711"/><stop offset="1" stop-color="#4d4d4d"/></linearGradient><linearGradient id="f" x1="81.014" x2="81.014" y1="82.683" y2="111.515" gradientUnits="userSpaceOnUse" xlink:href="#e"/><linearGradient id="g" x1="56.728" x2="56.728" y1="77.689" y2="109.51" gradientUnits="userSpaceOnUse" xlink:href="#e"/><linearGradient id="h" x1="55.46" x2="55.46" y1="41.645" y2="23.405" gradientUnits="userSpaceOnUse" xlink:href="#e"/><linearGradient id="i" x1="55.402" x2="55.402" y1="43.601" y2="36.451" gradientUnits="userSpaceOnUse" xlink:href="#e"/><linearGradient id="j" x1="56.188" x2="56.188" y1="56.033" y2="43.058" gradientUnits="userSpaceOnUse" xlink:href="#e"/><linearGradient id="k"><stop offset="0" stop-color="#fff"/><stop offset="1" stop-color="#666"/></linearGradient><linearGradient id="l" x1="21.715" x2="23.826" y1="52.554" y2="64.764" gradientUnits="userSpaceOnUse" xlink:href="#k"/><linearGradient id="m"><stop offset="0" stop-color="#fff"/><stop offset="1" stop-color="#999"/></linearGradient><linearGradient id="n" x1="18.656" x2="15.696" y1="51.876" y2="81.035" gradientUnits="userSpaceOnUse" xlink:href="#m"/><linearGradient id="o" x1="8.652" x2="7.986" y1="56.985" y2="68.985" gradientUnits="userSpaceOnUse" xlink:href="#m"/><linearGradient id="p"><stop offset="0" stop-color="#fff"/><stop offset="1" stop-color="gray"/></linearGradient><linearGradient id="q" x1="10.633" x2="9.003" y1="60.254" y2="65.727" gradientUnits="userSpaceOnUse" xlink:href="#p"/><linearGradient id="r" x1="42.419" x2="41.429" y1="50.642" y2="78.681" gradientUnits="userSpaceOnUse" xlink:href="#m"/><linearGradient id="s" x1="24.076" x2="21.409" y1="49.758" y2="51.591" gradientUnits="userSpaceOnUse" xlink:href="#m"/><linearGradient id="t" x1="11.257" x2="9.591" y1="53.592" y2="56.426" gradientUnits="userSpaceOnUse" xlink:href="#m"/><linearGradient id="u" x1="58.803" x2="49.306" y1="88.694" y2="83.321" gradientUnits="userSpaceOnUse" xlink:href="#m"/><linearGradient id="v" x1="42.556" x2="46.776" y1="55.917" y2="59.535" gradientUnits="userSpaceOnUse" xlink:href="#m"/><linearGradient id="w"><stop offset="0" stop-color="#b3b3b3"/><stop offset="1" stop-color="#666"/></linearGradient><linearGradient id="x" x1="46.487" x2="48.153" y1="61.49" y2="63.657" gradientUnits="userSpaceOnUse" xlink:href="#w"/><linearGradient id="y" x1="52.86" x2="54.518" y1="51.023" y2="54.64" gradientUnits="userSpaceOnUse" xlink:href="#m"/><linearGradient id="z" x1="55.486" x2="56.486" y1="54.578" y2="60.078" gradientUnits="userSpaceOnUse" xlink:href="#w"/><linearGradient id="A" x1="65.419" x2="66.023" y1="49.318" y2="52.939" gradientUnits="userSpaceOnUse" xlink:href="#m"/><linearGradient id="B" x1="70.288" x2="60.787" y1="68.395" y2="63.02" gradientUnits="userSpaceOnUse" xlink:href="#m"/><linearGradient id="C" x1="66.056" x2="56.555" y1="75.875" y2="70.499" gradientUnits="userSpaceOnUse" xlink:href="#m"/><linearGradient id="D" x1="62.194" x2="52.697" y1="82.7" y2="77.327" gradientUnits="userSpaceOnUse" xlink:href="#m"/><linearGradient id="E"><stop offset="0" stop-color="#ccc"/><stop offset="1" stop-color="#999"/></linearGradient><linearGradient id="F" x1="38.874" x2="40.708" y1="84.278" y2="79.111" gradientUnits="userSpaceOnUse" xlink:href="#E"/><linearGradient id="G" x1="30.354" x2="31.692" y1="82.054" y2="77.906" gradientUnits="userSpaceOnUse" xlink:href="#E"/><linearGradient id="H" x1="47.472" x2="48.806" y1="87.129" y2="82.295" gradientUnits="userSpaceOnUse" xlink:href="#E"/><linearGradient id="I" x1="55.328" x2="56.784" y1="90.005" y2="85.492" gradientUnits="userSpaceOnUse" xlink:href="#E"/><linearGradient id="J" x1="29.212" x2="27.045" y1="81.453" y2="89.287" gradientUnits="userSpaceOnUse" xlink:href="#w"/><linearGradient id="K" x1="37.94" x2="35.773" y1="83.869" y2="91.702" gradientUnits="userSpaceOnUse" xlink:href="#w"/><linearGradient id="L" x1="46.933" x2="44.766" y1="86.356" y2="94.189" gradientUnits="userSpaceOnUse" xlink:href="#w"/><linearGradient id="M" x1="55.099" x2="52.932" y1="88.615" y2="96.448" gradientUnits="userSpaceOnUse" xlink:href="#w"/><linearGradient id="N" x1="69.16" x2="76.16" y1="67.263" y2="71.595" gradientUnits="userSpaceOnUse" xlink:href="#k"/><linearGradient id="O" x1="64.915" x2="71.914" y1="74.118" y2="78.451" gradientUnits="userSpaceOnUse" xlink:href="#k"/><linearGradient id="P" x1="63.207" x2="67.523" y1="81.291" y2="84.054" gradientUnits="userSpaceOnUse" xlink:href="#k"/><linearGradient id="Q" x1="61.21" x2="63.909" y1="87.474" y2="89.22" gradientUnits="userSpaceOnUse" xlink:href="#k"/><linearGradient id="R" x1="88.717" x2="95.674" y1="44.02" y2="74.809" gradientUnits="userSpaceOnUse" xlink:href="#m"/><linearGradient id="S" x1="82.872" x2="86.411" y1="40.446" y2="43.502" gradientUnits="userSpaceOnUse" xlink:href="#m"/><linearGradient id="T" x1="101.081" x2="102.401" y1="50.553" y2="54.019" gradientUnits="userSpaceOnUse" xlink:href="#m"/><linearGradient id="U" x1="102.445" x2="104.463" y1="54.152" y2="63.399" gradientUnits="userSpaceOnUse" xlink:href="#w"/><linearGradient id="V" x1="100.331" x2="101.404" y1="56.274" y2="61.162" gradientUnits="userSpaceOnUse" xlink:href="#p"/><linearGradient id="W" x1="82.019" x2="84.128" y1="42.161" y2="54.361" gradientUnits="userSpaceOnUse" xlink:href="#k"/><linearGradient id="X" x1="25.646" x2="30.73" y1="55.848" y2="55.848" gradientUnits="userSpaceOnUse" xlink:href="#m"/><linearGradient id="Y" x1="72.215" x2="76.882" y1="53.747" y2="73.413" gradientUnits="userSpaceOnUse" xlink:href="#w"/><linearGradient id="Z" x1="80.308" x2="81.4" y1="60.077" y2="65.051" gradientUnits="userSpaceOnUse" xlink:href="#p"/><linearGradient id="aa" x1="76.628" x2="77.96" y1="48.78" y2="52.184" gradientUnits="userSpaceOnUse" xlink:href="#m"/><linearGradient id="ab"><stop offset=".002" stop-color="#29abe2"/><stop offset="1" stop-color="#29abe2" stop-opacity="0"/></linearGradient><linearGradient id="ac" x1="22.813" x2="108.839" y1="72.189" y2="53.744" gradientUnits="userSpaceOnUse" xlink:href="#ab"/><linearGradient id="ad" x1="26.247" x2="114.07" y1="90.055" y2="71.224" gradientUnits="userSpaceOnUse" xlink:href="#ab"/><linearGradient id="ae" x1="81.912" x2="83.481" y1="56.985" y2="56.985" gradientUnits="userSpaceOnUse" xlink:href="#m"/><linearGradient id="af" x1="79.912" x2="81.481" y1="57.36" y2="57.36" gradientUnits="userSpaceOnUse" xlink:href="#m"/><linearGradient id="ag" x1="77.912" x2="79.481" y1="57.735" y2="57.735" gradientUnits="userSpaceOnUse" xlink:href="#m"/><linearGradient id="ah" x1="75.912" x2="77.481" y1="58.11" y2="58.11" gradientUnits="userSpaceOnUse" xlink:href="#m"/><linearGradient id="ai" x1="73.912" x2="75.481" y1="58.485" y2="58.485" gradientUnits="userSpaceOnUse" xlink:href="#m"/><linearGradient id="aj" x1="29.633" x2="27.994" y1="64.881" y2="70.386" gradientUnits="userSpaceOnUse" xlink:href="#p"/><g clip-path="url(#a)"><path d="m-13.904 111.133-1.666-.02 2.928-7.617 1.666.02zm2.707 0-1.665-.02 2.929-7.617 1.665.02zm2.709 0-1.665-.02 2.928-7.617 1.665.02zm2.707 0-1.665-.02 2.928-7.617 1.665.02zm2.708 0-1.665-.02 2.929-7.617 1.665.02zm2.709 0-1.666-.02 2.928-7.617 1.666.02zm2.708 0-1.665-.02 2.927-7.617 1.665.02zm2.707 0-1.665-.02 2.929-7.617 1.665.02zm2.708 0-1.665-.02 2.928-7.617 1.667.02zm2.709 0-1.665-.02 2.927-7.617 1.666.02zm2.707 0-1.666-.02 2.929-7.617 1.666.02zm2.708 0-1.665-.02 2.929-7.617 1.666.02zm2.709 0-1.665-.02 2.927-7.617 1.665.02zm2.707 0-1.666-.02 2.93-7.617 1.665.02zm2.708 0-1.665-.02 2.929-7.617 1.666.02zm2.709 0-1.666-.02 2.928-7.617 1.666.02zm2.707 0-1.665-.02 2.929-7.617 1.665.02zm2.708 0-1.665-.02 2.929-7.617 1.665.02zm2.708 0-1.665-.02 2.929-7.617 1.665.02zm2.708 0-1.665-.02 2.928-7.617 1.666.02zm2.708 0-1.666-.02 2.93-7.617 1.665.02zm2.708 0-1.665-.02 2.929-7.617 1.665.02zm2.708 0-1.665-.02 2.928-7.617 1.666.02zm2.708 0-1.666-.02 2.93-7.617 1.665.02zm2.708 0-1.665-.02 2.929-7.617 1.665.02zm2.708 0-1.665-.02 2.929-7.617 1.665.02zm2.708 0-1.665-.02 2.93-7.617 1.665.02zm2.709 0-1.665-.02 2.927-7.617 1.666.02zm2.707 0-1.664-.02 2.928-7.617 1.665.02zm2.708 0-1.665-.02 2.93-7.617 1.665.02zm2.709 0-1.665-.02 2.927-7.617 1.667.02zm2.706 0-1.663-.02 2.928-7.617 1.665.02zm2.709 0-1.665-.02 2.929-7.617 1.666.02zm2.709 0-1.666-.02 2.928-7.617 1.667.02zm2.706 0-1.663-.02 2.928-7.617 1.665.02zm2.709 0-1.665-.02 2.929-7.617 1.665.02zm2.708 0-1.665-.02 2.928-7.617 1.667.02zm2.707 0-1.663-.02 2.927-7.617 1.666.02zm2.709 0-1.666-.02 2.93-7.617 1.665.02zm2.708 0-1.665-.02 2.928-7.617 1.667.02zm2.707 0-1.663-.02 2.927-7.617 1.665.02zm2.708 0-1.665-.02 2.93-7.617 1.665.02zm2.709 0-1.665-.02 2.927-7.617 1.668.02zm2.707 0-1.664-.02 2.928-7.617 1.665.02zm2.708 0-1.665-.02 2.93-7.617 1.665.02zm2.709 0-1.665-.02 2.927-7.617 1.667.02zm2.706 0-1.663-.02 2.928-7.617 1.665.02zm2.709 0-1.665-.02 2.929-7.617 1.666.02zm2.709 0-1.666-.02 2.928-7.617 1.667.02zm2.708 0-1.665-.02 2.927-7.617 1.666.02zm2.707 0-1.666-.02 2.93-7.617 1.665.02zm2.708 0-1.665-.02 2.928-7.617 1.667.02z"/><path d="m-14.919 116.887-1.666-.02 2.928-7.617 1.666.018zm2.707 0-1.665-.02 2.929-7.617 1.665.018zm2.709 0-1.666-.02 2.929-7.617 1.665.018zm2.707 0-1.665-.02 2.928-7.617 1.665.018zm2.708 0-1.665-.02 2.929-7.617 1.665.018zm2.709 0-1.666-.02 2.928-7.617 1.666.018zm2.707 0-1.665-.02 2.928-7.617 1.665.018zm2.708 0-1.666-.02 2.93-7.617 1.665.018zm2.708 0-1.665-.02 2.928-7.617 1.665.018zm2.708 0-1.665-.02 2.928-7.617 1.665.018zm2.707 0-1.665-.02 2.929-7.617 1.666.018zm2.709 0-1.665-.02 2.928-7.617 1.665.018zm2.709 0-1.667-.02 2.929-7.617 1.665.018zm2.706 0-1.665-.02 2.929-7.617 1.665.018zm2.709 0-1.665-.02 2.928-7.617 1.666.018zm2.709 0-1.666-.02 2.927-7.617 1.666.018zm2.706 0-1.665-.02 2.929-7.617 1.665.018zm2.709 0-1.666-.02 2.93-7.617 1.665.018zm2.708 0-1.665-.02 2.927-7.617 1.665.018zm2.708 0-1.666-.02 2.929-7.617 1.665.018zm2.707 0-1.665-.02 2.929-7.617 1.666.018zm2.709 0-1.665-.02 2.927-7.617 1.665.018zm2.708 0-1.666-.02 2.929-7.617 1.665.018zm2.707 0-1.665-.02 2.929-7.617 1.666.018zm2.709 0-1.666-.02 2.929-7.617 1.665.018zm2.707 0-1.665-.02 2.93-7.617 1.665.018zm2.709 0-1.665-.02 2.927-7.617 1.667.018zm2.708 0-1.665-.02 2.928-7.617 1.665.018zm2.707 0-1.665-.02 2.929-7.617 1.666.018zm2.709 0-1.666-.02 2.93-7.617 1.665.018zm2.708 0-1.665-.02 2.928-7.617 1.665.018zm2.707 0-1.665-.02 2.929-7.617 1.665.018zm2.708 0-1.665-.02 2.93-7.617 1.665.018zm2.709 0-1.665-.02 2.927-7.617 1.666.018zm2.707 0-1.664-.02 2.928-7.617 1.665.018zm2.708 0-1.665-.02 2.93-7.617 1.665.018zm2.709 0-1.665-.02 2.927-7.617 1.667.018zm2.706 0-1.663-.02 2.928-7.617 1.665.018zm2.709 0-1.665-.02 2.929-7.617 1.666.018zm2.709 0-1.666-.02 2.928-7.617 1.667.018zm2.706 0-1.663-.02 2.928-7.617 1.665.018zm2.709 0-1.665-.02 2.929-7.617 1.665.018zm2.708 0-1.665-.02 2.928-7.617 1.667.018zm2.707 0-1.663-.02 2.927-7.617 1.666.018zm2.709 0-1.666-.02 2.93-7.617 1.665.018zm2.708 0-1.665-.02 2.927-7.617 1.668.018zm2.707 0-1.663-.02 2.927-7.617 1.665.018zm2.708 0-1.665-.02 2.93-7.617 1.665.018zm2.709 0-1.665-.02 2.927-7.617 1.668.018zm2.708 0-1.665-.02 2.928-7.617 1.665.018zm2.708 0-1.666-.02 2.93-7.617 1.665.018zm2.709 0-1.666-.02 2.927-7.617 1.667.018zm-137.092-17.551-1.666-.02 2.928-7.619 1.666.02zm2.707 0-1.665-.02 2.929-7.619 1.665.02zm2.709 0-1.665-.02 2.928-7.619 1.665.02zm2.707 0-1.665-.02 2.928-7.619 1.665.02zm2.708 0-1.665-.02 2.929-7.619 1.665.02zm2.709 0-1.666-.02 2.928-7.619 1.666.02zm2.708 0-1.665-.02 2.927-7.619 1.665.02zm2.707 0-1.665-.02 2.929-7.619 1.665.02zm2.708 0-1.665-.02 2.928-7.619 1.667.02zm2.709 0-1.665-.02 2.927-7.619 1.666.02zm2.707 0-1.666-.02 2.929-7.619 1.666.02zm2.708 0-1.665-.02 2.929-7.619 1.666.02zm2.709 0-1.665-.02 2.927-7.619 1.665.02zm2.707 0-1.666-.02 2.93-7.619 1.665.02zm2.708 0-1.665-.02 2.929-7.619 1.666.02zm2.709 0-1.666-.02 2.928-7.619 1.666.02zm2.707 0-1.665-.02 2.929-7.619 1.665.02zm2.708 0-1.665-.02 2.929-7.619 1.665.02zm2.708 0-1.665-.02 2.929-7.619 1.665.02zm2.708 0-1.665-.02 2.928-7.619 1.666.02zm2.708 0-1.666-.02 2.93-7.619 1.665.02zm2.708 0-1.665-.02 2.929-7.619 1.665.02zm2.708 0-1.665-.02 2.928-7.619 1.666.02zm2.708 0-1.666-.02 2.93-7.619 1.665.02zm2.708 0-1.665-.02 2.929-7.619 1.665.02zm2.708 0-1.665-.02 2.929-7.619 1.665.02zm2.708 0-1.665-.02 2.93-7.619 1.665.02zm2.709 0-1.665-.02 2.927-7.619 1.666.02zm2.707 0-1.664-.02 2.928-7.619 1.665.02zm2.708 0-1.665-.02 2.93-7.619 1.665.02zm2.709 0-1.665-.02 2.927-7.619 1.667.02zm2.706 0-1.663-.02 2.928-7.619 1.665.02zm2.709 0-1.665-.02 2.929-7.619 1.666.02zm2.709 0-1.666-.02 2.928-7.619 1.667.02zm2.706 0-1.663-.02 2.928-7.619 1.665.02zm2.709 0-1.665-.02 2.929-7.619 1.665.02zm2.708 0-1.665-.02 2.928-7.619 1.667.02zm2.707 0-1.663-.02 2.927-7.619 1.666.02zm2.709 0-1.666-.02 2.93-7.619 1.665.02zm2.708 0-1.665-.02 2.928-7.619 1.667.02zm2.707 0-1.663-.02 2.927-7.619 1.665.02zm2.708 0-1.665-.02 2.93-7.619 1.665.02zm2.709 0-1.665-.02 2.927-7.619 1.668.02zm2.707 0-1.664-.02 2.928-7.619 1.665.02zm2.708 0-1.665-.02 2.93-7.619 1.665.02zm2.709 0-1.665-.02 2.927-7.619 1.667.02zm2.706 0-1.663-.02 2.928-7.619 1.665.02zm2.709 0-1.665-.02 2.929-7.619 1.666.02zm2.709 0-1.666-.02 2.928-7.619 1.667.02zm2.708 0-1.665-.02 2.927-7.619 1.666.02zm2.707 0-1.666-.02 2.93-7.619 1.665.02zm2.708 0-1.665-.02 2.928-7.619 1.667.02z"/><path d="m-14.919 105.088-1.666-.018 2.928-7.619 1.666.02zm2.707 0-1.665-.018 2.929-7.619 1.665.02zm2.709 0-1.666-.018 2.929-7.619 1.665.02zm2.707 0-1.665-.018 2.928-7.619 1.665.02zm2.708 0-1.665-.018 2.929-7.619 1.665.02zm2.709 0-1.666-.018 2.928-7.619 1.666.02zm2.707 0-1.665-.018 2.928-7.619 1.665.02zm2.708 0-1.666-.018 2.93-7.619 1.665.02zm2.708 0-1.665-.018 2.928-7.619 1.665.02zm2.708 0-1.665-.018 2.928-7.619 1.665.02zm2.707 0-1.665-.018 2.929-7.619 1.666.02zm2.709 0-1.665-.018 2.928-7.619 1.665.02zm2.709 0-1.667-.018 2.929-7.619 1.665.02zm2.706 0-1.665-.018 2.929-7.619 1.665.02zm2.709 0-1.665-.018 2.928-7.619 1.666.02zm2.709 0-1.666-.018 2.927-7.619 1.666.02zm2.706 0-1.665-.018 2.929-7.619 1.665.02zm2.709 0-1.666-.018 2.93-7.619 1.665.02zm2.708 0-1.665-.018 2.927-7.619 1.665.02zm2.708 0-1.666-.018 2.929-7.619 1.665.02zm2.707 0-1.665-.018 2.929-7.619 1.666.02zm2.709 0-1.665-.018 2.927-7.619 1.665.02zm2.708 0-1.666-.018 2.929-7.619 1.665.02zm2.707 0-1.665-.018 2.929-7.619 1.666.02zm2.709 0-1.666-.018 2.929-7.619 1.665.02zm2.707 0-1.665-.018 2.93-7.619 1.665.02zm2.709 0-1.665-.018 2.927-7.619 1.667.02zm2.708 0-1.665-.018 2.928-7.619 1.665.02zm2.707 0-1.665-.018 2.929-7.619 1.666.02zm2.709 0-1.666-.018 2.93-7.619 1.665.02zm2.708 0-1.665-.018 2.928-7.619 1.665.02zm2.707 0-1.665-.018 2.929-7.619 1.665.02zm2.708 0-1.665-.018 2.93-7.619 1.665.02zm2.709 0-1.665-.018 2.927-7.619 1.666.02zm2.707 0-1.664-.018 2.928-7.619 1.665.02zm2.708 0-1.665-.018 2.93-7.619 1.665.02zm2.709 0-1.665-.018 2.927-7.619 1.667.02zm2.706 0-1.663-.018 2.928-7.619 1.665.02zm2.709 0-1.665-.018 2.929-7.619 1.666.02zm2.709 0-1.666-.018 2.928-7.619 1.667.02zm2.706 0-1.663-.018 2.928-7.619 1.665.02zm2.709 0-1.665-.018 2.929-7.619 1.665.02zm2.708 0-1.665-.018 2.928-7.619 1.667.02zm2.707 0-1.663-.018 2.927-7.619 1.666.02zm2.709 0-1.666-.018 2.93-7.619 1.665.02zm2.708 0-1.665-.018 2.927-7.619 1.668.02zm2.707 0-1.663-.018 2.927-7.619 1.665.02zm2.708 0-1.665-.018 2.93-7.619 1.665.02zm2.709 0-1.665-.018 2.927-7.619 1.668.02zm2.708 0-1.665-.018 2.928-7.619 1.665.02zm2.708 0-1.666-.018 2.93-7.619 1.665.02zm2.709 0-1.666-.018 2.927-7.619 1.667.02zm-137.092-17.549-1.666-.021 2.928-7.618 1.666.02zm2.707 0-1.665-.021 2.929-7.618 1.665.02zm2.709 0-1.665-.021 2.928-7.618 1.665.02zm2.707 0-1.665-.021 2.928-7.618 1.665.02zm2.708 0-1.665-.021 2.929-7.618 1.665.02zm2.709 0-1.666-.021 2.928-7.618 1.666.02zm2.708 0-1.665-.021 2.927-7.618 1.665.02zm2.707 0-1.665-.021 2.929-7.618 1.665.02zm2.708 0-1.665-.021 2.928-7.618 1.667.02zm2.709 0-1.665-.021 2.927-7.618 1.666.02zm2.707 0-1.666-.021 2.929-7.618 1.666.02zm2.708 0-1.665-.021 2.929-7.618 1.666.02zm2.709 0-1.665-.021 2.927-7.618 1.665.02zm2.707 0-1.666-.021 2.93-7.618 1.665.02zm2.708 0-1.665-.021 2.929-7.618 1.666.02zm2.709 0-1.666-.021 2.928-7.618 1.666.02zm2.707 0-1.665-.021 2.929-7.618 1.665.02zm2.708 0-1.665-.021 2.929-7.618 1.665.02zm2.708 0-1.665-.021 2.929-7.618 1.665.02zm2.708 0-1.665-.021 2.928-7.618 1.666.02zm2.708 0-1.666-.021 2.93-7.618 1.665.02zm2.708 0-1.665-.021 2.929-7.618 1.665.02zm2.708 0-1.665-.021 2.928-7.618 1.666.02zm2.708 0-1.666-.021 2.93-7.618 1.665.02zm2.708 0-1.665-.021 2.929-7.618 1.665.02zm2.708 0-1.665-.021 2.929-7.618 1.665.02zm2.708 0-1.665-.021 2.93-7.618 1.665.02zm2.709 0-1.665-.021 2.927-7.618 1.666.02zm2.707 0-1.664-.021 2.928-7.618 1.665.02zm2.708 0-1.665-.021 2.93-7.618 1.665.02zm2.709 0-1.665-.021 2.927-7.618 1.667.02zm2.706 0-1.663-.021 2.928-7.618 1.665.02zm2.709 0-1.665-.021 2.929-7.618 1.666.02zm2.709 0-1.666-.021 2.928-7.618 1.667.02zm2.706 0-1.663-.021 2.928-7.618 1.665.02zm2.709 0-1.665-.021 2.929-7.618 1.665.02zm2.708 0-1.665-.021 2.928-7.618 1.667.02zm2.707 0-1.663-.021 2.927-7.618 1.666.02zm2.709 0-1.666-.021 2.93-7.618 1.665.02zm2.708 0-1.665-.021 2.928-7.618 1.667.02zm2.707 0-1.663-.021 2.927-7.618 1.665.02zm2.708 0-1.665-.021 2.93-7.618 1.665.02zm2.709 0-1.665-.021 2.927-7.618 1.668.02zm2.707 0-1.664-.021 2.928-7.618 1.665.02zm2.708 0-1.665-.021 2.93-7.618 1.665.02zm2.709 0-1.665-.021 2.927-7.618 1.667.02zm2.706 0-1.663-.021 2.928-7.618 1.665.02zm2.709 0-1.665-.021 2.929-7.618 1.666.02zm2.709 0-1.666-.021 2.928-7.618 1.667.02zm2.708 0-1.665-.021 2.927-7.618 1.666.02zm2.707 0-1.666-.021 2.93-7.618 1.665.02zm2.708 0-1.665-.021 2.928-7.618 1.667.02z"/><path d="m-14.919 93.291-1.666-.018 2.928-7.619 1.666.018zm2.707 0-1.665-.018 2.929-7.619 1.665.018zm2.709 0-1.666-.018 2.929-7.619 1.665.018zm2.707 0-1.665-.018 2.928-7.619 1.665.018zm2.708 0-1.665-.018 2.929-7.619 1.665.018zm2.709 0-1.666-.018 2.928-7.619 1.666.018zm2.707 0-1.665-.018 2.928-7.619 1.665.018zm2.708 0-1.666-.018 2.93-7.619 1.665.018zm2.708 0-1.665-.018 2.928-7.619 1.665.018zm2.708 0-1.665-.018 2.928-7.619 1.665.018zm2.707 0-1.665-.018 2.929-7.619 1.666.018zm2.709 0-1.665-.018 2.928-7.619 1.665.018zm2.709 0-1.667-.018 2.929-7.619 1.665.018zm2.706 0-1.665-.018 2.929-7.619 1.665.018zm2.709 0-1.665-.018 2.928-7.619 1.666.018zm2.709 0-1.666-.018 2.927-7.619 1.666.018zm2.706 0-1.665-.018 2.929-7.619 1.665.018zm2.709 0-1.666-.018 2.93-7.619 1.665.018zm2.708 0-1.665-.018 2.927-7.619 1.665.018zm2.708 0-1.666-.018 2.929-7.619 1.665.018zm2.707 0-1.665-.018 2.929-7.619 1.666.018zm2.709 0-1.665-.018 2.927-7.619 1.665.018zm2.708 0-1.666-.018 2.929-7.619 1.665.018zm2.707 0-1.665-.018 2.929-7.619 1.666.018zm2.709 0-1.666-.018 2.929-7.619 1.665.018zm2.707 0-1.665-.018 2.93-7.619 1.665.018zm2.709 0-1.665-.018 2.927-7.619 1.667.018zm2.708 0-1.665-.018 2.928-7.619 1.665.018zm2.707 0-1.665-.018 2.929-7.619 1.666.018zm2.709 0-1.666-.018 2.93-7.619 1.665.018zm2.708 0-1.665-.018 2.928-7.619 1.665.018zm2.707 0-1.665-.018 2.929-7.619 1.665.018zm2.708 0-1.665-.018 2.93-7.619 1.665.018zm2.709 0-1.665-.018 2.927-7.619 1.666.018zm2.707 0-1.664-.018 2.928-7.619 1.665.018zm2.708 0-1.665-.018 2.93-7.619 1.665.018zm2.709 0-1.665-.018 2.927-7.619 1.667.018zm2.706 0-1.663-.018 2.928-7.619 1.665.018zm2.709 0-1.665-.018 2.929-7.619 1.666.018zm2.709 0-1.666-.018 2.928-7.619 1.667.018zm2.706 0-1.663-.018 2.928-7.619 1.665.018zm2.709 0-1.665-.018 2.929-7.619 1.665.018zm2.708 0-1.665-.018 2.928-7.619 1.667.018zm2.707 0-1.663-.018 2.927-7.619 1.666.018zm2.709 0-1.666-.018 2.93-7.619 1.665.018zm2.708 0-1.665-.018 2.927-7.619 1.668.018zm2.707 0-1.663-.018 2.927-7.619 1.665.018zm2.708 0-1.665-.018 2.93-7.619 1.665.018zm2.709 0-1.665-.018 2.927-7.619 1.668.018zm2.708 0-1.665-.018 2.928-7.619 1.665.018zm2.708 0-1.666-.018 2.93-7.619 1.665.018zm2.709 0-1.666-.018 2.927-7.619 1.667.018zm-137.092-17.551-1.666-.019 2.928-7.617 1.666.019zm2.707 0-1.665-.019 2.929-7.617 1.665.019zm2.709 0-1.665-.019 2.928-7.617 1.665.019zm2.707 0-1.665-.019 2.928-7.617 1.665.019zm2.708 0-1.665-.019 2.929-7.617 1.665.019zm2.709 0-1.666-.019 2.928-7.617 1.666.019zm2.708 0-1.665-.019 2.927-7.617 1.665.019zm2.707 0-1.665-.019 2.929-7.617 1.665.019zm2.708 0-1.665-.019 2.928-7.617 1.667.019zm2.709 0-1.665-.019 2.927-7.617 1.666.019zm2.707 0-1.666-.019 2.929-7.617 1.666.019zm2.708 0-1.665-.019 2.929-7.617 1.666.019zm2.709 0-1.665-.019 2.927-7.617 1.665.019zm2.707 0-1.666-.019 2.93-7.617 1.665.019zm2.708 0-1.665-.019 2.929-7.617 1.666.019zm2.709 0-1.666-.019 2.928-7.617 1.666.019zm2.707 0-1.665-.019 2.929-7.617 1.665.019zm2.708 0-1.665-.019 2.929-7.617 1.665.019zm2.708 0-1.665-.019 2.929-7.617 1.665.019zm2.708 0-1.665-.019 2.928-7.617 1.666.019zm2.708 0-1.666-.019 2.93-7.617 1.665.019zm2.708 0-1.665-.019 2.929-7.617 1.665.019zm2.708 0-1.665-.019 2.928-7.617 1.666.019zm2.708 0-1.666-.019 2.93-7.617 1.665.019zm2.708 0-1.665-.019 2.929-7.617 1.665.019zm2.708 0-1.665-.019 2.929-7.617 1.665.019zm2.708 0-1.665-.019 2.93-7.617 1.665.019zm2.709 0-1.665-.019 2.927-7.617 1.666.019zm2.707 0-1.664-.019 2.928-7.617 1.665.019zm2.708 0-1.665-.019 2.93-7.617 1.665.019zm2.709 0-1.665-.019 2.927-7.617 1.667.019zm2.706 0-1.663-.019 2.928-7.617 1.665.019zm2.709 0-1.665-.019 2.929-7.617 1.666.019zm2.709 0-1.666-.019 2.928-7.617 1.667.019zm2.706 0-1.663-.019 2.928-7.617 1.665.019zm2.709 0-1.665-.019 2.929-7.617 1.665.019zm2.708 0-1.665-.019 2.928-7.617 1.667.019zm2.707 0-1.663-.019 2.927-7.617 1.666.019zm2.709 0-1.666-.019 2.93-7.617 1.665.019zm2.708 0-1.665-.019 2.928-7.617 1.667.019zm2.707 0-1.663-.019 2.927-7.617 1.665.019zm2.708 0-1.665-.019 2.93-7.617 1.665.019zm2.709 0-1.665-.019 2.927-7.617 1.668.019zm2.707 0-1.664-.019 2.928-7.617 1.665.019zm2.708 0-1.665-.019 2.93-7.617 1.665.019zm2.709 0-1.665-.019 2.927-7.617 1.667.019zm2.706 0-1.663-.019 2.928-7.617 1.665.019zm2.709 0-1.665-.019 2.929-7.617 1.666.019zm2.709 0-1.666-.019 2.928-7.617 1.667.019zm2.708 0-1.665-.019 2.927-7.617 1.666.019zm2.707 0-1.666-.019 2.93-7.617 1.665.019zm2.708 0-1.665-.019 2.928-7.617 1.667.019z"/><path d="m-14.919 81.494-1.666-.019 2.928-7.618 1.666.018zm2.707 0-1.665-.019 2.929-7.618 1.665.018zm2.709 0-1.666-.019 2.929-7.618 1.665.018zm2.707 0-1.665-.019 2.928-7.618 1.665.018zm2.708 0-1.665-.019 2.929-7.618 1.665.018zm2.709 0-1.666-.019 2.928-7.618 1.666.018zm2.707 0-1.665-.019 2.928-7.618 1.665.018zm2.708 0-1.666-.019 2.93-7.618 1.665.018zm2.708 0-1.665-.019 2.928-7.618 1.665.018zm2.708 0-1.665-.019 2.928-7.618 1.665.018zm2.707 0-1.665-.019 2.929-7.618 1.666.018zm2.709 0-1.665-.019 2.928-7.618 1.665.018zm2.709 0-1.667-.019 2.929-7.618 1.665.018zm2.706 0-1.665-.019 2.929-7.618 1.665.018zm2.709 0-1.665-.019 2.928-7.618 1.666.018zm2.709 0-1.666-.019 2.927-7.618 1.666.018zm2.706 0-1.665-.019 2.929-7.618 1.665.018zm2.709 0-1.666-.019 2.93-7.618 1.665.018zm2.708 0-1.665-.019 2.927-7.618 1.665.018zm2.708 0-1.666-.019 2.929-7.618 1.665.018zm2.707 0-1.665-.019 2.929-7.618 1.666.018zm2.709 0-1.665-.019 2.927-7.618 1.665.018zm2.708 0-1.666-.019 2.929-7.618 1.665.018zm2.707 0-1.665-.019 2.929-7.618 1.666.018zm2.709 0-1.666-.019 2.929-7.618 1.665.018zm2.707 0-1.665-.019 2.93-7.618 1.665.018zm2.709 0-1.665-.019 2.927-7.618 1.667.018zm2.708 0-1.665-.019 2.928-7.618 1.665.018zm2.707 0-1.665-.019 2.929-7.618 1.666.018zm2.709 0-1.666-.019 2.93-7.618 1.665.018zm2.708 0-1.665-.019 2.928-7.618 1.665.018zm2.707 0-1.665-.019 2.929-7.618 1.665.018zm2.708 0-1.665-.019 2.93-7.618 1.665.018zm2.709 0-1.665-.019 2.927-7.618 1.666.018zm2.707 0-1.664-.019 2.928-7.618 1.665.018zm2.708 0-1.665-.019 2.93-7.618 1.665.018zm2.709 0-1.665-.019 2.927-7.618 1.667.018zm2.706 0-1.663-.019 2.928-7.618 1.665.018zm2.709 0-1.665-.019 2.929-7.618 1.666.018zm2.709 0-1.666-.019 2.928-7.618 1.667.018zm2.706 0-1.663-.019 2.928-7.618 1.665.018zm2.709 0-1.665-.019 2.929-7.618 1.665.018zm2.708 0-1.665-.019 2.928-7.618 1.667.018zm2.707 0-1.663-.019 2.927-7.618 1.666.018zm2.709 0-1.666-.019 2.93-7.618 1.665.018zm2.708 0-1.665-.019 2.927-7.618 1.668.018zm2.707 0-1.663-.019 2.927-7.618 1.665.018zm2.708 0-1.665-.019 2.93-7.618 1.665.018zm2.709 0-1.665-.019 2.927-7.618 1.668.018zm2.708 0-1.665-.019 2.928-7.618 1.665.018zm2.708 0-1.666-.019 2.93-7.618 1.665.018zm2.709 0-1.666-.019 2.927-7.618 1.667.018zm-137.092-17.55-1.666-.021 2.928-7.618 1.666.02zm2.707 0-1.665-.021 2.929-7.618 1.665.02zm2.709 0-1.665-.021 2.928-7.618 1.665.02zm2.707 0-1.665-.021 2.928-7.618 1.665.02zm2.708 0-1.665-.021 2.929-7.618 1.665.02zm2.709 0-1.666-.021 2.928-7.618 1.666.02zm2.708 0-1.665-.021 2.927-7.618 1.665.02zm2.707 0-1.665-.021 2.929-7.618 1.665.02zm2.708 0-1.665-.021 2.928-7.618 1.667.02zm2.709 0-1.665-.021 2.927-7.618 1.666.02zm2.707 0-1.666-.021 2.929-7.618 1.666.02zm2.708 0-1.665-.021 2.929-7.618 1.666.02zm2.709 0-1.665-.021 2.927-7.618 1.665.02zm2.707 0-1.666-.021 2.93-7.618 1.665.02zm2.708 0-1.665-.021 2.929-7.618 1.666.02zm2.709 0-1.666-.021 2.928-7.618 1.666.02zm2.707 0-1.665-.021 2.929-7.618 1.665.02zm2.708 0-1.665-.021 2.929-7.618 1.665.02zm2.708 0-1.665-.021 2.929-7.618 1.665.02zm2.708 0-1.665-.021 2.928-7.618 1.666.02zm2.708 0-1.666-.021 2.93-7.618 1.665.02zm2.708 0-1.665-.021 2.929-7.618 1.665.02zm2.708 0-1.665-.021 2.928-7.618 1.666.02zm2.708 0-1.666-.021 2.93-7.618 1.665.02zm2.708 0-1.665-.021 2.929-7.618 1.665.02zm2.708 0-1.665-.021 2.929-7.618 1.665.02zm2.708 0-1.665-.021 2.93-7.618 1.665.02zm2.709 0-1.665-.021 2.927-7.618 1.666.02zm2.707 0-1.664-.021 2.928-7.618 1.665.02zm2.708 0-1.665-.021 2.93-7.618 1.665.02zm2.709 0-1.665-.021 2.927-7.618 1.667.02zm2.706 0-1.663-.021 2.928-7.618 1.665.02zm2.709 0-1.665-.021 2.929-7.618 1.666.02zm2.709 0-1.666-.021 2.928-7.618 1.667.02zm2.706 0-1.663-.021 2.928-7.618 1.665.02zm2.709 0-1.665-.021 2.929-7.618 1.665.02zm2.708 0-1.665-.021 2.928-7.618 1.667.02zm2.707 0-1.663-.021 2.927-7.618 1.666.02zm2.709 0-1.666-.021 2.93-7.618 1.665.02zm2.708 0-1.665-.021 2.928-7.618 1.667.02zm2.707 0-1.663-.021 2.927-7.618 1.665.02zm2.708 0-1.665-.021 2.93-7.618 1.665.02zm2.709 0-1.665-.021 2.927-7.618 1.668.02zm2.707 0-1.664-.021 2.928-7.618 1.665.02zm2.708 0-1.665-.021 2.93-7.618 1.665.02zm2.709 0-1.665-.021 2.927-7.618 1.667.02zm2.706 0-1.663-.021 2.928-7.618 1.665.02zm2.709 0-1.665-.021 2.929-7.618 1.666.02zm2.709 0-1.666-.021 2.928-7.618 1.667.02zm2.708 0-1.665-.021 2.927-7.618 1.666.02zm2.707 0-1.666-.021 2.93-7.618 1.665.02zm2.708 0-1.665-.021 2.928-7.618 1.667.02z"/><path d="m-14.919 69.695-1.666-.017 2.928-7.618 1.666.018zm2.707 0-1.665-.017 2.929-7.618 1.665.018zm2.709 0-1.666-.017 2.929-7.618 1.665.018zm2.707 0-1.665-.017 2.928-7.618 1.665.018zm2.708 0-1.665-.017 2.929-7.618 1.665.018zm2.709 0-1.666-.017 2.928-7.618 1.666.018zm2.707 0-1.665-.017 2.928-7.618 1.665.018zm2.708 0-1.666-.017 2.93-7.618 1.665.018zm2.708 0-1.665-.017 2.928-7.618 1.665.018zm2.708 0-1.665-.017 2.928-7.618 1.665.018zm2.707 0-1.665-.017 2.929-7.618 1.666.018zm2.709 0-1.665-.017 2.928-7.618 1.665.018zm2.709 0-1.667-.017 2.929-7.618 1.665.018zm2.706 0-1.665-.017 2.929-7.618 1.665.018zm2.709 0-1.665-.017 2.928-7.618 1.666.018zm2.709 0-1.666-.017 2.927-7.618 1.666.018zm2.706 0-1.665-.017 2.929-7.618 1.665.018zm2.709 0-1.666-.017 2.93-7.618 1.665.018zm2.708 0-1.665-.017 2.927-7.618 1.665.018zm2.708 0-1.666-.017 2.929-7.618 1.665.018zm2.707 0-1.665-.017 2.929-7.618 1.666.018zm2.709 0-1.665-.017 2.927-7.618 1.665.018zm2.708 0-1.666-.017 2.929-7.618 1.665.018zm2.707 0-1.665-.017 2.929-7.618 1.666.018zm2.709 0-1.666-.017 2.929-7.618 1.665.018zm2.707 0-1.665-.017 2.93-7.618 1.665.018zm2.709 0-1.665-.017 2.927-7.618 1.667.018zm2.708 0-1.665-.017 2.928-7.618 1.665.018zm2.707 0-1.665-.017 2.929-7.618 1.666.018zm2.709 0-1.666-.017 2.93-7.618 1.665.018zm2.708 0-1.665-.017 2.928-7.618 1.665.018zm2.707 0-1.665-.017 2.929-7.618 1.665.018zm2.708 0-1.665-.017 2.93-7.618 1.665.018zm2.709 0-1.665-.017 2.927-7.618 1.666.018zm2.707 0-1.664-.017 2.928-7.618 1.665.018zm2.708 0-1.665-.017 2.93-7.618 1.665.018zm2.709 0-1.665-.017 2.927-7.618 1.667.018zm2.706 0-1.663-.017 2.928-7.618 1.665.018zm2.709 0-1.665-.017 2.929-7.618 1.666.018zm2.709 0-1.666-.017 2.928-7.618 1.667.018zm2.706 0-1.663-.017 2.928-7.618 1.665.018zm2.709 0-1.665-.017 2.929-7.618 1.665.018zm2.708 0-1.665-.017 2.928-7.618 1.667.018zm2.707 0-1.663-.017 2.927-7.618 1.666.018zm2.709 0-1.666-.017 2.93-7.618 1.665.018zm2.708 0-1.665-.017 2.927-7.618 1.668.018zm2.707 0-1.663-.017 2.927-7.618 1.665.018zm2.708 0-1.665-.017 2.93-7.618 1.665.018zm2.709 0-1.665-.017 2.927-7.618 1.668.018zm2.708 0-1.665-.017 2.928-7.618 1.665.018zm2.708 0-1.666-.017 2.93-7.618 1.665.018zm2.709 0-1.666-.017 2.927-7.618 1.667.018zm-137.092-17.549-1.666-.02 2.928-7.618 1.666.02zm2.707 0-1.665-.02 2.929-7.618 1.665.02zm2.709 0-1.665-.02 2.928-7.618 1.665.02zm2.707 0-1.665-.02 2.928-7.618 1.665.02zm2.708 0-1.665-.02 2.929-7.618 1.665.02zm2.709 0-1.666-.02 2.928-7.618 1.666.02zm2.708 0-1.665-.02 2.927-7.618 1.665.02zm2.707 0-1.665-.02 2.929-7.618 1.665.02zm2.708 0-1.665-.02 2.928-7.618 1.667.02zm2.709 0-1.665-.02 2.927-7.618 1.666.02zm2.707 0-1.666-.02 2.929-7.618 1.666.02zm2.708 0-1.665-.02 2.929-7.618 1.666.02zm2.709 0-1.665-.02 2.927-7.618 1.665.02zm2.707 0-1.666-.02 2.93-7.618 1.665.02zm2.708 0-1.665-.02 2.929-7.618 1.666.02zm2.709 0-1.666-.02 2.928-7.618 1.666.02zm2.707 0-1.665-.02 2.929-7.618 1.665.02zm2.708 0-1.665-.02 2.929-7.618 1.665.02zm2.708 0-1.665-.02 2.929-7.618 1.665.02zm2.708 0-1.665-.02 2.928-7.618 1.666.02zm2.708 0-1.666-.02 2.93-7.618 1.665.02zm2.708 0-1.665-.02 2.929-7.618 1.665.02zm2.708 0-1.665-.02 2.928-7.618 1.666.02zm2.708 0-1.666-.02 2.93-7.618 1.665.02zm2.708 0-1.665-.02 2.929-7.618 1.665.02zm2.708 0-1.665-.02 2.929-7.618 1.665.02zm2.708 0-1.665-.02 2.93-7.618 1.665.02zm2.709 0-1.665-.02 2.927-7.618 1.666.02zm2.707 0-1.664-.02 2.928-7.618 1.665.02zm2.708 0-1.665-.02 2.93-7.618 1.665.02zm2.709 0-1.665-.02 2.927-7.618 1.667.02zm2.706 0-1.663-.02 2.928-7.618 1.665.02zm2.709 0-1.665-.02 2.929-7.618 1.666.02zm2.709 0-1.666-.02 2.928-7.618 1.667.02zm2.706 0-1.663-.02 2.928-7.618 1.665.02zm2.709 0-1.665-.02 2.929-7.618 1.665.02zm2.708 0-1.665-.02 2.928-7.618 1.667.02zm2.707 0-1.663-.02 2.927-7.618 1.666.02zm2.709 0-1.666-.02 2.93-7.618 1.665.02zm2.708 0-1.665-.02 2.928-7.618 1.667.02zm2.707 0-1.663-.02 2.927-7.618 1.665.02zm2.708 0-1.665-.02 2.93-7.618 1.665.02zm2.709 0-1.665-.02 2.927-7.618 1.668.02zm2.707 0-1.664-.02 2.928-7.618 1.665.02zm2.708 0-1.665-.02 2.93-7.618 1.665.02zm2.709 0-1.665-.02 2.927-7.618 1.667.02zm2.706 0-1.663-.02 2.928-7.618 1.665.02zm2.709 0-1.665-.02 2.929-7.618 1.666.02zm2.709 0-1.666-.02 2.928-7.618 1.667.02zm2.708 0-1.665-.02 2.927-7.618 1.666.02zm2.707 0-1.666-.02 2.93-7.618 1.665.02zm2.708 0-1.665-.02 2.928-7.618 1.667.02z"/><path d="m-14.919 57.898-1.666-.018 2.928-7.618 1.666.018zm2.707 0-1.665-.018 2.929-7.618 1.665.018zm2.709 0-1.666-.018 2.929-7.618 1.665.018zm2.707 0-1.665-.018 2.928-7.618 1.665.018zm2.708 0-1.665-.018 2.929-7.618 1.665.018zm2.709 0-1.666-.018 2.928-7.618 1.666.018zm2.707 0-1.665-.018 2.928-7.618 1.665.018zm2.708 0-1.666-.018 2.93-7.618 1.665.018zm2.708 0-1.665-.018 2.928-7.618 1.665.018zm2.708 0-1.665-.018 2.928-7.618 1.665.018zm2.707 0-1.665-.018 2.929-7.618 1.666.018zm2.709 0-1.665-.018 2.928-7.618 1.665.018zm2.709 0-1.667-.018 2.929-7.618 1.665.018zm2.706 0-1.665-.018 2.929-7.618 1.665.018zm2.709 0-1.665-.018 2.928-7.618 1.666.018zm2.709 0-1.666-.018 2.927-7.618 1.666.018zm2.706 0-1.665-.018 2.929-7.618 1.665.018zm2.709 0-1.666-.018 2.93-7.618 1.665.018zm2.708 0-1.665-.018 2.927-7.618 1.665.018zm2.708 0-1.666-.018 2.929-7.618 1.665.018zm2.707 0-1.665-.018 2.929-7.618 1.666.018zm2.709 0-1.665-.018 2.927-7.618 1.665.018zm2.708 0-1.666-.018 2.929-7.618 1.665.018zm2.707 0-1.665-.018 2.929-7.618 1.666.018zm2.709 0-1.666-.018 2.929-7.618 1.665.018zm2.707 0-1.665-.018 2.93-7.618 1.665.018zm2.709 0-1.665-.018 2.927-7.618 1.667.018zm2.708 0-1.665-.018 2.928-7.618 1.665.018zm2.707 0-1.665-.018 2.929-7.618 1.666.018zm2.709 0-1.666-.018 2.93-7.618 1.665.018zm2.708 0-1.665-.018 2.928-7.618 1.665.018zm2.707 0-1.665-.018 2.929-7.618 1.665.018zm2.708 0-1.665-.018 2.93-7.618 1.665.018zm2.709 0-1.665-.018 2.927-7.618 1.666.018zm2.707 0-1.664-.018 2.928-7.618 1.665.018zm2.708 0-1.665-.018 2.93-7.618 1.665.018zm2.709 0-1.665-.018 2.927-7.618 1.667.018zm2.706 0-1.663-.018 2.928-7.618 1.665.018zm2.709 0-1.665-.018 2.929-7.618 1.666.018zm2.709 0-1.666-.018 2.928-7.618 1.667.018zm2.706 0-1.663-.018 2.928-7.618 1.665.018zm2.709 0-1.665-.018 2.929-7.618 1.665.018zm2.708 0-1.665-.018 2.928-7.618 1.667.018zm2.707 0-1.663-.018 2.927-7.618 1.666.018zm2.709 0-1.666-.018 2.93-7.618 1.665.018zm2.708 0-1.665-.018 2.927-7.618 1.668.018zm2.707 0-1.663-.018 2.927-7.618 1.665.018zm2.708 0-1.665-.018 2.93-7.618 1.665.018zm2.709 0-1.665-.018 2.927-7.618 1.668.018zm2.708 0-1.665-.018 2.928-7.618 1.665.018zm2.708 0-1.666-.018 2.93-7.618 1.665.018zm2.709 0-1.666-.018 2.927-7.618 1.667.018zm-137.092-17.549-1.666-.02 2.928-7.618 1.666.019zm2.707 0-1.665-.02 2.929-7.618 1.665.019zm2.709 0-1.665-.02 2.928-7.618 1.665.019zm2.707 0-1.665-.02 2.928-7.618 1.665.019zm2.708 0-1.665-.02 2.929-7.618 1.665.019zm2.709 0-1.666-.02 2.928-7.618 1.666.019zm2.708 0-1.665-.02 2.927-7.618 1.665.019zm2.707 0-1.665-.02 2.929-7.618 1.665.019zm2.708 0-1.665-.02 2.928-7.618 1.667.019zm2.709 0-1.665-.02 2.927-7.618 1.666.019zm2.707 0-1.666-.02 2.929-7.618 1.666.019zm2.708 0-1.665-.02 2.929-7.618 1.666.019zm2.709 0-1.665-.02 2.927-7.618 1.665.019zm2.707 0-1.666-.02 2.93-7.618 1.665.019zm2.708 0-1.665-.02 2.929-7.618 1.666.019zm2.709 0-1.666-.02 2.928-7.618 1.666.019zm2.707 0-1.665-.02 2.929-7.618 1.665.019zm2.708 0-1.665-.02 2.929-7.618 1.665.019zm2.708 0-1.665-.02 2.929-7.618 1.665.019zm2.708 0-1.665-.02 2.928-7.618 1.666.019zm2.708 0-1.666-.02 2.93-7.618 1.665.019zm2.708 0-1.665-.02 2.929-7.618 1.665.019zm2.708 0-1.665-.02 2.928-7.618 1.666.019zm2.708 0-1.666-.02 2.93-7.618 1.665.019zm2.708 0-1.665-.02 2.929-7.618 1.665.019zm2.708 0-1.665-.02 2.929-7.618 1.665.019zm2.708 0-1.665-.02 2.93-7.618 1.665.019zm2.709 0-1.665-.02 2.927-7.618 1.666.019zm2.707 0-1.664-.02 2.928-7.618 1.665.019zm2.708 0-1.665-.02 2.93-7.618 1.665.019zm2.709 0-1.665-.02 2.927-7.618 1.667.019zm2.706 0-1.663-.02 2.928-7.618 1.665.019zm2.709 0-1.665-.02 2.929-7.618 1.666.019zm2.709 0-1.666-.02 2.928-7.618 1.667.019zm2.706 0-1.663-.02 2.928-7.618 1.665.019zm2.709 0-1.665-.02 2.929-7.618 1.665.019zm2.708 0-1.665-.02 2.928-7.618 1.667.019zm2.707 0-1.663-.02 2.927-7.618 1.666.019zm2.709 0-1.666-.02 2.93-7.618 1.665.019zm2.708 0-1.665-.02 2.928-7.618 1.667.019zm2.707 0-1.663-.02 2.927-7.618 1.665.019zm2.708 0-1.665-.02 2.93-7.618 1.665.019zm2.709 0-1.665-.02 2.927-7.618 1.668.019zm2.707 0-1.664-.02 2.928-7.618 1.665.019zm2.708 0-1.665-.02 2.93-7.618 1.665.019zm2.709 0-1.665-.02 2.927-7.618 1.667.019zm2.706 0-1.663-.02 2.928-7.618 1.665.019zm2.709 0-1.665-.02 2.929-7.618 1.666.019zm2.709 0-1.666-.02 2.928-7.618 1.667.019zm2.708 0-1.665-.02 2.927-7.618 1.666.019zm2.707 0-1.666-.02 2.93-7.618 1.665.019zm2.708 0-1.665-.02 2.928-7.618 1.667.019z"/><path d="m-14.919 46.101-1.666-.018 2.928-7.619 1.666.019zm2.707 0-1.665-.018 2.929-7.619 1.665.019zm2.709 0-1.666-.018 2.929-7.619 1.665.019zm2.707 0-1.665-.018 2.928-7.619 1.665.019zm2.708 0-1.665-.018 2.929-7.619 1.665.019zm2.709 0-1.666-.018 2.928-7.619 1.666.019zm2.707 0-1.665-.018 2.928-7.619 1.665.019zm2.708 0-1.666-.018 2.93-7.619 1.665.019zm2.708 0-1.665-.018 2.928-7.619 1.665.019zm2.708 0-1.665-.018 2.928-7.619 1.665.019zm2.707 0-1.665-.018 2.929-7.619 1.666.019zm2.709 0-1.665-.018 2.928-7.619 1.665.019zm2.709 0-1.667-.018 2.929-7.619 1.665.019zm2.706 0-1.665-.018 2.929-7.619 1.665.019zm2.709 0-1.665-.018 2.928-7.619 1.666.019zm2.709 0-1.666-.018 2.927-7.619 1.666.019zm2.706 0-1.665-.018 2.929-7.619 1.665.019zm2.709 0-1.666-.018 2.93-7.619 1.665.019zm2.708 0-1.665-.018 2.927-7.619 1.665.019zm2.708 0-1.666-.018 2.929-7.619 1.665.019zm2.707 0-1.665-.018 2.929-7.619 1.666.019zm2.709 0-1.665-.018 2.927-7.619 1.665.019zm2.708 0-1.666-.018 2.929-7.619 1.665.019zm2.707 0-1.665-.018 2.929-7.619 1.666.019zm2.709 0-1.666-.018 2.929-7.619 1.665.019zm2.707 0-1.665-.018 2.93-7.619 1.665.019zm2.709 0-1.665-.018 2.927-7.619 1.667.019zm2.708 0-1.665-.018 2.928-7.619 1.665.019zm2.707 0-1.665-.018 2.929-7.619 1.666.019zm2.709 0-1.666-.018 2.93-7.619 1.665.019zm2.708 0-1.665-.018 2.928-7.619 1.665.019zm2.707 0-1.665-.018 2.929-7.619 1.665.019zm2.708 0-1.665-.018 2.93-7.619 1.665.019zm2.709 0-1.665-.018 2.927-7.619 1.666.019zm2.707 0-1.664-.018 2.928-7.619 1.665.019zm2.708 0-1.665-.018 2.93-7.619 1.665.019zm2.709 0-1.665-.018 2.927-7.619 1.667.019zm2.706 0-1.663-.018 2.928-7.619 1.665.019zm2.709 0-1.665-.018 2.929-7.619 1.666.019zm2.709 0-1.666-.018 2.928-7.619 1.667.019zm2.706 0-1.663-.018 2.928-7.619 1.665.019zm2.709 0-1.665-.018 2.929-7.619 1.665.019zm2.708 0-1.665-.018 2.928-7.619 1.667.019zm2.707 0-1.663-.018 2.927-7.619 1.666.019zm2.709 0-1.666-.018 2.93-7.619 1.665.019zm2.708 0-1.665-.018 2.927-7.619 1.668.019zm2.707 0-1.663-.018 2.927-7.619 1.665.019zm2.708 0-1.665-.018 2.93-7.619 1.665.019zm2.709 0-1.665-.018 2.927-7.619 1.668.019zm2.708 0-1.665-.018 2.928-7.619 1.665.019zm2.708 0-1.666-.018 2.93-7.619 1.665.019zm2.709 0-1.666-.018 2.927-7.619 1.667.019zm-137.092-17.551-1.666-.019 2.928-7.618 1.666.019zm2.707 0-1.665-.019 2.929-7.618 1.665.019zm2.709 0-1.665-.019 2.928-7.618 1.665.019zm2.707 0-1.665-.019 2.928-7.618 1.665.019zm2.708 0-1.665-.019 2.929-7.618 1.665.019zm2.709 0-1.666-.019 2.928-7.618 1.666.019zm2.708 0-1.665-.019 2.927-7.618 1.665.019zm2.707 0-1.665-.019 2.929-7.618 1.665.019zm2.708 0-1.665-.019 2.928-7.618 1.667.019zm2.709 0-1.665-.019 2.927-7.618 1.666.019zm2.707 0-1.666-.019 2.929-7.618 1.666.019zm2.708 0-1.665-.019 2.929-7.618 1.666.019zm2.709 0-1.665-.019 2.927-7.618 1.665.019zm2.707 0-1.666-.019 2.93-7.618 1.665.019zm2.708 0-1.665-.019 2.929-7.618 1.666.019zm2.709 0-1.666-.019 2.928-7.618 1.666.019zm2.707 0-1.665-.019 2.929-7.618 1.665.019zm2.708 0-1.665-.019 2.929-7.618 1.665.019zm2.708 0-1.665-.019 2.929-7.618 1.665.019zm2.708 0-1.665-.019 2.928-7.618 1.666.019zm2.708 0-1.666-.019 2.93-7.618 1.665.019zm2.708 0-1.665-.019 2.929-7.618 1.665.019zm2.708 0-1.665-.019 2.928-7.618 1.666.019zm2.708 0-1.666-.019 2.93-7.618 1.665.019zm2.708 0-1.665-.019 2.929-7.618 1.665.019zm2.708 0-1.665-.019 2.929-7.618 1.665.019zm2.708 0-1.665-.019 2.93-7.618 1.665.019zm2.709 0-1.665-.019 2.927-7.618 1.666.019zm2.707 0-1.664-.019 2.928-7.618 1.665.019zm2.708 0-1.665-.019 2.93-7.618 1.665.019zm2.709 0-1.665-.019 2.927-7.618 1.667.019zm2.706 0-1.663-.019 2.928-7.618 1.665.019zm2.709 0-1.665-.019 2.929-7.618 1.666.019zm2.709 0-1.666-.019 2.928-7.618 1.667.019zm2.706 0-1.663-.019 2.928-7.618 1.665.019zm2.709 0-1.665-.019 2.929-7.618 1.665.019zm2.708 0-1.665-.019 2.928-7.618 1.667.019zm2.707 0-1.663-.019 2.927-7.618 1.666.019zm2.709 0-1.666-.019 2.93-7.618 1.665.019zm2.708 0-1.665-.019 2.928-7.618 1.667.019zm2.707 0-1.663-.019 2.927-7.618 1.665.019zm2.708 0-1.665-.019 2.93-7.618 1.665.019zm2.709 0-1.665-.019 2.927-7.618 1.668.019zm2.707 0-1.664-.019 2.928-7.618 1.665.019zm2.708 0-1.665-.019 2.93-7.618 1.665.019zm2.709 0-1.665-.019 2.927-7.618 1.667.019zm2.706 0-1.663-.019 2.928-7.618 1.665.019zm2.709 0-1.665-.019 2.929-7.618 1.666.019zm2.709 0-1.666-.019 2.928-7.618 1.667.019zm2.708 0-1.665-.019 2.927-7.618 1.666.019zm2.707 0-1.666-.019 2.93-7.618 1.665.019zm2.708 0-1.665-.019 2.928-7.618 1.667.019z"/><path d="m-14.919 34.304-1.666-.019 2.928-7.618 1.666.019zm2.707 0-1.665-.019 2.929-7.618 1.665.019zm2.709 0-1.666-.019 2.929-7.618 1.665.019zm2.707 0-1.665-.019 2.928-7.618 1.665.019zm2.708 0-1.665-.019 2.929-7.618 1.665.019zm2.709 0-1.666-.019 2.928-7.618 1.666.019zm2.707 0-1.665-.019 2.928-7.618 1.665.019zm2.708 0-1.666-.019 2.93-7.618 1.665.019zm2.708 0-1.665-.019 2.928-7.618 1.665.019zm2.708 0-1.665-.019 2.928-7.618 1.665.019zm2.707 0-1.665-.019 2.929-7.618 1.666.019zm2.709 0-1.665-.019 2.928-7.618 1.665.019zm2.709 0-1.667-.019 2.929-7.618 1.665.019zm2.706 0-1.665-.019 2.929-7.618 1.665.019zm2.709 0-1.665-.019 2.928-7.618 1.666.019zm2.709 0-1.666-.019 2.927-7.618 1.666.019zm2.706 0-1.665-.019 2.929-7.618 1.665.019zm2.709 0-1.666-.019 2.93-7.618 1.665.019zm2.708 0-1.665-.019 2.927-7.618 1.665.019zm2.708 0-1.666-.019 2.929-7.618 1.665.019zm2.707 0-1.665-.019 2.929-7.618 1.666.019zm2.709 0-1.665-.019 2.927-7.618 1.665.019zm2.708 0-1.666-.019 2.929-7.618 1.665.019zm2.707 0-1.665-.019 2.929-7.618 1.666.019zm2.709 0-1.666-.019 2.929-7.618 1.665.019zm2.707 0-1.665-.019 2.93-7.618 1.665.019zm2.709 0-1.665-.019 2.927-7.618 1.667.019zm2.708 0-1.665-.019 2.928-7.618 1.665.019zm2.707 0-1.665-.019 2.929-7.618 1.666.019zm2.709 0-1.666-.019 2.93-7.618 1.665.019zm2.708 0-1.665-.019 2.928-7.618 1.665.019zm2.707 0-1.665-.019 2.929-7.618 1.665.019zm2.708 0-1.665-.019 2.93-7.618 1.665.019zm2.709 0-1.665-.019 2.927-7.618 1.666.019zm2.707 0-1.664-.019 2.928-7.618 1.665.019zm2.708 0-1.665-.019 2.93-7.618 1.665.019zm2.709 0-1.665-.019 2.927-7.618 1.667.019zm2.706 0-1.663-.019 2.928-7.618 1.665.019zm2.709 0-1.665-.019 2.929-7.618 1.666.019zm2.709 0-1.666-.019 2.928-7.618 1.667.019zm2.706 0-1.663-.019 2.928-7.618 1.665.019zm2.709 0-1.665-.019 2.929-7.618 1.665.019zm2.708 0-1.665-.019 2.928-7.618 1.667.019zm2.707 0-1.663-.019 2.927-7.618 1.666.019zm2.709 0-1.666-.019 2.93-7.618 1.665.019zm2.708 0-1.665-.019 2.927-7.618 1.668.019zm2.707 0-1.663-.019 2.927-7.618 1.665.019zm2.708 0-1.665-.019 2.93-7.618 1.665.019zm2.709 0-1.665-.019 2.927-7.618 1.668.019zm2.708 0-1.665-.019 2.928-7.618 1.665.019zm2.708 0-1.666-.019 2.93-7.618 1.665.019zm2.709 0-1.666-.019 2.927-7.618 1.667.019zm-137.092-17.551-1.666-.019 2.928-7.618 1.666.019zm2.707 0-1.665-.019 2.929-7.618 1.665.019zm2.709 0-1.665-.019 2.928-7.618 1.665.019zm2.707 0-1.665-.019 2.928-7.618 1.665.019zm2.708 0-1.665-.019 2.929-7.618 1.665.019zm2.709 0-1.666-.019 2.928-7.618 1.666.019zm2.708 0-1.665-.019 2.927-7.618 1.665.019zm2.707 0-1.665-.019 2.929-7.618 1.665.019zm2.708 0-1.665-.019 2.928-7.618 1.667.019zm2.709 0-1.665-.019 2.927-7.618 1.666.019zm2.707 0-1.666-.019 2.929-7.618 1.666.019zm2.708 0-1.665-.019 2.929-7.618 1.666.019zm2.709 0-1.665-.019 2.927-7.618 1.665.019zm2.707 0-1.666-.019 2.93-7.618 1.665.019zm2.708 0-1.665-.019 2.929-7.618 1.666.019zm2.709 0-1.666-.019 2.928-7.618 1.666.019zm2.707 0-1.665-.019 2.929-7.618 1.665.019zm2.708 0-1.665-.019 2.929-7.618 1.665.019zm2.708 0-1.665-.019 2.929-7.618 1.665.019zm2.708 0-1.665-.019 2.928-7.618 1.666.019zm2.708 0-1.666-.019 2.93-7.618 1.665.019zm2.708 0-1.665-.019 2.929-7.618 1.665.019zm2.708 0-1.665-.019 2.928-7.618 1.666.019zm2.708 0-1.666-.019 2.93-7.618 1.665.019zm2.708 0-1.665-.019 2.929-7.618 1.665.019zm2.708 0-1.665-.019 2.929-7.618 1.665.019zm2.708 0-1.665-.019 2.93-7.618 1.665.019zm2.709 0-1.665-.019 2.927-7.618 1.666.019zm2.707 0-1.664-.019 2.928-7.618 1.665.019zm2.708 0-1.665-.019 2.93-7.618 1.665.019zm2.709 0-1.665-.019 2.927-7.618 1.667.019zm2.706 0-1.663-.019 2.928-7.618 1.665.019zm2.709 0-1.665-.019 2.929-7.618 1.666.019zm2.709 0-1.666-.019 2.928-7.618 1.667.019zm2.706 0-1.663-.019 2.928-7.618 1.665.019zm2.709 0-1.665-.019 2.929-7.618 1.665.019zm2.708 0-1.665-.019 2.928-7.618 1.667.019zm2.707 0-1.663-.019 2.927-7.618 1.666.019zm2.709 0-1.666-.019 2.93-7.618 1.665.019zm2.708 0-1.665-.019 2.928-7.618 1.667.019zm2.707 0-1.663-.019 2.927-7.618 1.665.019zm2.708 0-1.665-.019 2.93-7.618 1.665.019zm2.709 0-1.665-.019 2.927-7.618 1.668.019zm2.707 0-1.664-.019 2.928-7.618 1.665.019zm2.708 0-1.665-.019 2.93-7.618 1.665.019zm2.709 0-1.665-.019 2.927-7.618 1.667.019zm2.706 0-1.663-.019 2.928-7.618 1.665.019zm2.709 0-1.665-.019 2.929-7.618 1.666.019zm2.709 0-1.666-.019 2.928-7.618 1.667.019zm2.708 0-1.665-.019 2.927-7.618 1.666.019zm2.707 0-1.666-.019 2.93-7.618 1.665.019zm2.708 0-1.665-.019 2.928-7.618 1.667.019z"/><path d="m-14.919 22.506-1.666-.019 2.928-7.617 1.666.018zm2.707 0-1.665-.019 2.929-7.617 1.665.018zm2.709 0-1.666-.019 2.929-7.617 1.665.018zm2.707 0-1.665-.019 2.928-7.617 1.665.018zm2.708 0-1.665-.019 2.929-7.617 1.665.018zm2.709 0-1.666-.019 2.928-7.617 1.666.018zm2.707 0-1.665-.019 2.928-7.617 1.665.018zm2.708 0-1.666-.019 2.93-7.617 1.665.018zm2.708 0-1.665-.019 2.928-7.617 1.665.018zm2.708 0-1.665-.019 2.928-7.617 1.665.018zm2.707 0-1.665-.019 2.929-7.617 1.666.018zm2.709 0-1.665-.019 2.928-7.617 1.665.018zm2.709 0-1.667-.019 2.929-7.617 1.665.018zm2.706 0-1.665-.019 2.929-7.617 1.665.018zm2.709 0-1.665-.019 2.928-7.617 1.666.018zm2.709 0-1.666-.019 2.927-7.617 1.666.018zm2.706 0-1.665-.019 2.929-7.617 1.665.018zm2.709 0-1.666-.019 2.93-7.617 1.665.018zm2.708 0-1.665-.019 2.927-7.617 1.665.018zm2.708 0-1.666-.019 2.929-7.617 1.665.018zm2.707 0-1.665-.019 2.929-7.617 1.666.018zm2.709 0-1.665-.019 2.927-7.617 1.665.018zm2.708 0-1.666-.019 2.929-7.617 1.665.018zm2.707 0-1.665-.019 2.929-7.617 1.666.018zm2.709 0-1.666-.019 2.929-7.617 1.665.018zm2.707 0-1.665-.019 2.93-7.617 1.665.018zm2.709 0-1.665-.019 2.927-7.617 1.667.018zm2.708 0-1.665-.019 2.928-7.617 1.665.018zm2.707 0-1.665-.019 2.929-7.617 1.666.018zm2.709 0-1.666-.019 2.93-7.617 1.665.018zm2.708 0-1.665-.019 2.928-7.617 1.665.018zm2.707 0-1.665-.019 2.929-7.617 1.665.018zm2.708 0-1.665-.019 2.93-7.617 1.665.018zm2.709 0-1.665-.019 2.927-7.617 1.666.018zm2.707 0-1.664-.019 2.928-7.617 1.665.018zm2.708 0-1.665-.019 2.93-7.617 1.665.018zm2.709 0-1.665-.019 2.927-7.617 1.667.018zm2.706 0-1.663-.019 2.928-7.617 1.665.018zm2.709 0-1.665-.019 2.929-7.617 1.666.018zm2.709 0-1.666-.019 2.928-7.617 1.667.018zm2.706 0-1.663-.019 2.928-7.617 1.665.018zm2.709 0-1.665-.019 2.929-7.617 1.665.018zm2.708 0-1.665-.019 2.928-7.617 1.667.018zm2.707 0-1.663-.019 2.927-7.617 1.666.018zm2.709 0-1.666-.019 2.93-7.617 1.665.018zm2.708 0-1.665-.019 2.927-7.617 1.668.018zm2.707 0-1.663-.019 2.927-7.617 1.665.018zm2.708 0-1.665-.019 2.93-7.617 1.665.018zm2.709 0-1.665-.019 2.927-7.617 1.668.018zm2.708 0-1.665-.019 2.928-7.617 1.665.018zm2.708 0-1.666-.019 2.93-7.617 1.665.018zm2.709 0-1.666-.019 2.927-7.617 1.667.018z"/></g><path fill="url(#b)" d="m101.52 90.631v-53.201l-46.1-26.599-46.101 26.599v53.201l46.101 26.599z" opacity=".9"/><path fill="url(#c)" d="m101.52 90.631v-53.201l-46.1-26.599-46.101 26.599v53.201l46.101 26.599z"/><path fill="url(#d)" d="m55.969 119.281s17.616-9.847 21.747-12.499c12.381-7.95 9.807-10.064 5.783-12.166-2.207-1.152-8.234-3.836-1.01-6.545 7.227-2.709 10.297-5.465 8.389-7.225-5.543-5.113-13.043-7.912-13.043-7.912l-.506.429s11.098 4.773 9.807 7.87-15.355 4.902-15.742 8.902 4.725 5.332 1.418 7.356c-3.305 2.024-44.343 12.789-44.343 12.789z" opacity=".6"/><path fill="url(#f)" d="m84.821 88.435c7.225-2.709 8.664-6.433 6.756-8.192-5.543-5.113-12.162-7.308-12.162-7.308l-.486.413c2.223.945 7.713 3.516 12.029 7.499 1.908 1.76-1.162 4.516-8.387 7.225-7.227 2.709-1.197 5.393 1.008 6.545 4.023 2.102 6.6 4.216-5.783 12.166-4.039 2.594-7.941 4.558-8.113 4.645l3.553-.333s2.631-1.476 6.68-4.251c10.811-7.409 9.188-10.125 5.164-12.227-2.206-1.153-7.485-3.473-.259-6.182z" opacity=".5"/><path fill="url(#g)" d="m77.327 73.422.154-.131c-.471-.197-.74-.298-.74-.298l-.506.429s11.098 4.773 9.807 7.87-15.355 4.902-15.742 8.902 3.912 4.582.607 6.606c-2.943 1.803-36.839 10.429-44.688 12.48l3.265.607c7.85-2.052 40.385-10.535 43.328-12.338 3.305-2.024-1.807-3.356-1.42-7.356s14.451-5.806 15.742-8.902-9.807-7.869-9.807-7.869z" opacity=".5"/><path fill="url(#h)" d="m103.043 37.264-20.64-3.609h-8.877v-4.97h-10.152l-7.912-7.914-7.916 7.914h-10.152v4.97h-8.877l-20.642 3.609-3.649 4.523h102.468z" opacity=".4"/><path fill="url(#i)" d="m83.769 39.837v-3.365l-9.623-.064v3.165h-6.454v-2.836h-6.566v1.625l-5.57-2.214-5.964 2.522h-5.929v-2.262h-9.625v4.831h-6.452v-4.502h-6.565v1.625h-13.253v5.598h95.268l-.333-4.123z" opacity=".5"/><path fill="url(#j)" d="m90.026 47.672v-3.821l-18.041.158v3.085h-7.177v-4.199h-9.733l.08 5.726h-15.739v-6.112h-7.04v8.228h-12.288l.142-6.289h-12.83v12.237h97.578v-9.013z" opacity=".6"/><circle cx="43.906" cy="24.611" r="2" fill="#fff"/><circle cx="35.155" cy="27.214" r=".365" fill="#fff"/><circle cx="38.529" cy="25.768" r=".183" fill="#fff"/><circle cx="47.65" cy="20.435" r=".183" fill="#fff"/><circle cx="70.396" cy="24.497" r=".183" fill="#fff"/><circle cx="60.209" cy="21.497" r=".183" fill="#fff"/><circle cx="30.65" cy="26.997" r=".183" fill="#fff"/><circle cx="23.713" cy="33.497" r=".183" fill="#fff"/><circle cx="82.459" cy="28.497" r=".183" fill="#fff"/><circle cx="54.653" cy="16.844" r=".183" fill="#fff"/><circle cx="27.754" cy="30.685" r=".365" fill="#fff"/><circle cx="51.845" cy="20.156" r=".365" fill="#fff"/><circle cx="68.417" cy="22.383" r=".365" fill="#fff"/><circle cx="65.046" cy="26.075" r=".365" fill="#fff"/><circle cx="76.716" cy="24.406" r=".365" fill="#fff"/><circle cx="86.458" cy="32.83" r=".365" fill="#fff"/><circle cx="78.05" cy="30.984" r=".365" fill="#fff"/><circle cx="59.153" cy="17.969" r=".365" fill="#fff"/><path d="m109.459 63.181.01-.002v-9.833l-3.171-2.736 1.773-.352-.375-.625-2.328.482-.045-.024-10.988 2.239-.303-1.088.133-.026.031.042 12.945-2.565.305-.06v-.001l.625-.124-.375-.625-.393.081-.063-.292.205-.039-.109-.352-.172.032-.078-.36.359-.07-.205-.961.205-.039-.109-.352-.172.032-.105-.487-13.767 2.574.227 1.707-.012.003-1.268-4.538-.414-1.523-6.006-2.58-7.742 1.678.008.039-.008.002.047.183.301 1.451-.348.075.008.039-.008.002.047.183 1.111 5.37-6.021.436-1.65.076-14-.539-7.634 2.54-10.604-.62-8.609 4.318-1.111-.131.554-2.688-.344-.08.344-1.67-7.5-1.75-6.667 1.167-1.155 6.704-.042-.013.197-1.691-4.5-1.333-6.501 1.832-1.999 12.168.276.07-.205 1.244.263.084-.148.638 9.936 2.441.026-.151.058.015-.225 1.301-.044-.012.086-.479-9.88-2.605-.438 1.795.4.109-.4 1.641 9.735 2.689-.648 3.762.286.089-.286 1.661 7.375 2.292 5.75-1.542.533-2.591 2.049.773-1.067 1.627a5607.45 5607.45 0 0 0 -1.806 2.648l.05.027-.009.015.817.448-.858 1.26.05.027-.009.015 7.75 4.25 8.834 3.751.009-.031.675.14 8.148 1.724 8.5-.333.748-3.75s.023-.071.057-.196l.943.405 4-.667 3.416-4.667-1.416.186.049-.068 1.117-.117-.93-.139.115-.157 1.73.213 3.5-4.75-1.158-.176.105-.146.471.071-.414-.147.053-.07 1.861.634 4.666-5-1.182-.482.039-.043.621.255-.557-.324.211-.227 1.867.988 4.666-3.375-1.055-.986.096-.069.334.306.988-.235 3.096-.61.01.039 6.07 4.145 8.916-1.541-.01-.039.01-.002-.215-.73-.25-.898.465-.08-.01-.039.01-.002-.215-.73-1.893-6.779 10.966-2.283-.01-.039.01-.002-.387-1.625.387-.084zm-97.745 12.106.12-.663.049.013-.115.665z" opacity=".5"/><path fill="url(#l)" stroke="#000" stroke-linecap="round" stroke-linejoin="round" stroke-width=".5" d="m30.159 50.735-6.25 30.375-5.75 1.542 5.5-31z"/><path fill="url(#n)" stroke="#000" stroke-linecap="round" stroke-linejoin="round" stroke-width=".5" d="m23.659 51.652-7.666-1.5-5.209 30.208 7.375 2.292z"/><path fill="url(#o)" stroke="#000" stroke-linecap="round" stroke-linejoin="round" stroke-width=".5" d="m1.993 67.819 10.5 2.666 2.153-12.361-10.654-2.473z"/><path fill="url(#q)" stroke="#000" stroke-linecap="round" stroke-linejoin="round" stroke-width=".5" d="m13.909 61.735-6.25-1.541c-1.104 0-2 1.146-2 2.563 0 1.414.25 2.063 2 2.563l5.375 1.541z"/><path fill="url(#r)" stroke="#000" stroke-linecap="round" stroke-linejoin="round" stroke-width=".5" d="m25.644 56.095 2.5.5 11.182-5.61 21.814 1.277.334 7.167-2.834 8.333-10.038 19.875-26.5-10z"/><path fill="#666" d="m5.826 63.985s-.251 2.645 1.416 3.145 5.549 1.549 5.549 1.549l.243-1.818c0-.001-6.308-1.409-7.208-2.876z" opacity=".5"/><g stroke="#000" stroke-linecap="round" stroke-linejoin="round" stroke-width=".5"><path fill="url(#s)" d="m22.659 48.985-6.666 1.167 7.666 1.5 6.5-.917z"/><path fill="url(#t)" d="m3.992 55.651 6.501-1.832 4.5 1.333-.347 2.972z"/><path fill="url(#u)" d="m51.63 80.937-2.387 6.048 10.08 4.334 2.332-4.667z"/><path fill="url(#v)" d="m46.159 52.902-7 6.083 4.375 3.875 6.375-6.625z"/><path fill="url(#x)" d="m43.534 62.86.292 4.875 8.249-6.667-2.166-4.833z"/><path fill="url(#y)" d="m46.159 52.902 3.75 3.333 11.108-3.916-3.454-3.213z"/><path fill="url(#z)" d="m49.909 56.235 2.166 4.833 9.58-2.416-.701-6.333z"/><path fill="url(#A)" d="m57.563 49.106 14 .541 2.26 3.172-12.806-.5z"/><path fill="url(#B)" d="m58.823 66.985 10.166 5 4.834-6.666-12.168-6.667z"/><path fill="url(#C)" d="m54.827 74.319 9.662 4.5 3.834-5.834-9.5-6z"/><path fill="url(#D)" d="m64.323 80.152-3 5-9.693-4.215 3.197-6.618z"/><path fill="url(#F)" d="m40.655 79.326c-3.329-1.257-5.162 3.284-5.162 3.284l7 2.667s1.647-4.634-1.838-5.951z"/><path fill="url(#G)" d="m26.993 80.277s3.063-4.335 6.363-2.018c3.053 2.143-.363 5.685-.363 5.685z"/><path fill="url(#H)" d="m48.606 82.313c3.387 1.006 2.219 5.964 2.219 5.964l-6.832-1.833s1.425-5.078 4.613-4.131z"/><path fill="url(#I)" d="m56.475 85.55c3.257 1.256 1.849 5.561 1.849 5.561l-5.997-2.166c-.001-.001 1.166-4.543 4.148-3.395z"/><path fill="url(#J)" d="m26.993 80.277-3.334 5.083 7.75 4.25 1.584-5.666z"/><path fill="url(#K)" d="m35.493 82.61-4.084 7 8.834 3.751 2.25-8.084z"/><path fill="url(#L)" d="m43.993 86.444-3.584 6.916 8.666 1.833 1.75-6.916z"/><path fill="url(#M)" d="m52.326 88.944 5.997 2.166-.748 3.75-8.5.333z"/><path fill="url(#N)" d="m73.823 65.319 8.332 7.791-4.666 3.375-8.5-4.5z"/><path fill="url(#O)" d="m68.323 72.985 8.166 3.333-4.666 5-7.334-2.499z"/><path fill="url(#P)" d="m64.323 80.152 6.582 1-3.5 4.75-6.082-.75z"/><path fill="url(#Q)" d="m59.323 91.319 4-.667 3.416-4.667-5.084.667z"/><path fill="url(#R)" d="m83.7 44.318 7.994 31.38 8.916-1.541-8.785-31.464z"/><path fill="url(#S)" d="m83.7 44.318 8.125-1.625-6.006-2.58-7.742 1.677z"/><path fill="url(#T)" d="m95.405 55.485 14.064-2.744-4.146-3.256-10.945 2.25z"/><path fill="url(#U)" d="m95.405 55.485 2.5 9.5 11.564-2.412v-9.832z"/><path fill="url(#V)" d="m97.253 61.981 7.236-1.496c.992-.486 1.295-1.91.672-3.181s-1.131-1.743-2.922-1.425l-6.449 1.113z"/><path fill="url(#W)" d="m78.077 41.79 7.547 29.764 6.07 4.144-7.994-31.38z"/><path fill="url(#X)" d="m25.646 56.14 2.958-1.084 2.125.25-2.583 1.334z"/><path fill="url(#Y)" d="m83.155 51.652 4.834 19.167-6.459 1.541-7.707-7.041-12.168-6.667-.638-6.333 12.806.5z"/><path fill="url(#Z)" d="m74.442 63.962c.75 2.375 6 1.125 6 1.125l5.98-1.138c.992-.485 1.293-1.909.67-3.181-.621-1.271-1.129-1.744-2.92-1.425l-5.193.755c0 .001-5.49.846-4.537 3.864z"/><path fill="#4d4d4d" d="m53.499 86.353-2.674 1.924-1.75 6.916 3.251-6.249zm7.969-1.118-8.34-3.531 8.59 4.781 4.771-.5zm3.021-6.416-8.266-3.834 8.057 5 6.043.917zm4.5-6.834-8.709-4.062 8.063 5 7.625 3.125zm-23.798 11.766-2.602 2.008-2.18 7.601 3.688-7.007zm-8.353-3.333-3.845 3.526-1.584 5.666 4.084-7z"/><path fill="url(#aa)" d="m71.563 49.647 8.063-.582 3.529 2.587-9.332 1.167z"/><path fill="#e6e6e6" d="m39.659 59.36s2.5-1.916 4-1.041-.625 3.666-.625 3.666"/><path fill="none" d="m28.057 81.009s-.775 2.51.839 3.52c1.666 1.043 3.143-1.173 3.143-1.173m4.649-.127s-.658 2.688 1.305 3.423c2.383.894 3.347-1.705 3.347-1.705m3.771 1.97s-.411 2.426 1.558 3.039c2.213.69 2.968-1.865 2.968-1.865m3.687 1.341s-.552 2.344 1.384 2.975c1.792.584 2.514-1.592 2.514-1.592"/></g><path fill="#fff" d="m61.827 59.048 11.594 6.375-.391.531-11.541-5.969zm-2.89 8.328 9.015 5.703-.344.5-9.109-5.437zm-3.997 7.344 8.997 5.531-.364.568-9.039-5.271zm-3.156 6.609 9.496 5.438-.291.552-9.47-5.318z"/><path fill="#666" d="m40.826 65.485s-.001 3.167 2.165 5c.877.741 1.518.307 2.371-.335s7.797-6.499 7.797-6.499l7.262-1.6.984-3.15-9.162 2.168-8.668 6.917zm33.616-1.523s1.047 3.356 4.547 3.523 7.834-1.5 7.834-1.5l.166-2.5s-2.166.667-5.666 1.334c-3.5.666-5.761.287-6.881-.857zm22.811-1.981.57 2.171s7-.833 7.666-1.833-.166-2.167-.166-2.167z" opacity=".5"/><path fill="#b3b3b3" stroke="#000" stroke-linecap="round" stroke-linejoin="round" stroke-width=".5" d="m39.159 58.985 4.375 3.875s2.077 6.994-1.041 4.209c-3.119-2.786-3.334-8.084-3.334-8.084z"/><path fill="url(#ac)" d="m109.469 62.531-11.563 2.412 2.705 9.173-8.916 1.541-6.07-4.145-4.094.807-7.707-7.043-12.169-6.666-9.58 2.416s-9.563 7.316-8.5 6.959c.251-.084-1.499-.5-2.291-2.084-.792-1.582-1.875-4.416-1.875-4.416l-.25-2.542 7-6.083 11.404-3.795 14 .539 8.063-.372-1.549-7.483 7.742-1.678 6.006 2.58 2.455 9.042 11.043-2.25 4.146 3.254z" opacity=".3"/><path fill="url(#ad)" d="m57.532 94.818-8.498.333-8.833-1.832-8.833-3.751-7.75-4.25s3.375-4.957 3.791-5.541c.417-.584 3.292-3.376 5.667-1.709s.875 4.792.875 4.792l2.845-2.484s1.457-1.788 3.905-.933c3.458 1.209 1.583 6.417 1.583 6.417l3-2.167s1.385-2.072 3.459-1.416c2.5.791 2.416 5.791 2.416 5.791l2.834-2.083s.793-1.209 2.585-.417c1.786.792 2.202 2.916 1.702 5.5-.499 2.584-.748 3.75-.748 3.75z" opacity=".3"/><path d="m21.287 57.165.167-.98-4.335-4.183-.171.977zm-.458 2.839.168-.98-4.336-4.182-.17.976zm-.458 2.84.167-.98-4.335-4.183-.171.977z"/><path fill="#b3b3b3" d="m21.118 58.127.168-.98-4.336-4.183-.17.977zm-.457 2.839.167-.979-4.335-4.183-.171.976zm-.459 2.84.168-.979-4.336-4.183-.17.976z"/><ellipse cx="31.409" cy="79.86" rx=".813" ry=".876" transform="matrix(.85250335 .52272177 -.52272177 .85250335 46.375862 -4.64005)"/><ellipse cx="39.909" cy="81.485" rx=".813" ry=".876" transform="matrix(.95384283 .30030628 -.30030628 .95384283 26.315085 -8.224338)"/><ellipse cx="48.034" cy="84.735" rx=".812" ry=".875" transform="matrix(.96636261 .25718339 -.25718339 .96636261 23.409526 -9.503629)"/><ellipse cx="56.036" cy="87.86" rx=".813" ry=".875" transform="matrix(.94875474 .31601336 -.31601336 .94875474 30.641612 -13.207159)"/><path d="m42.112 63.967c.027.503-.152.806-.403.677-.251-.127-.476-.639-.503-1.141s.152-.805.402-.676c.252.128.477.639.504 1.14z"/><path fill="#fff" d="m49.407 55.425 10.416-3.856.672.657-10.513 3.724zm-6.201 6.775 5.822-6.414.51.477-6.01 6.216zm17.201-10.822 12.432.526.502.675-12.227-.511zm13.041.428 8.371-.938.723.609-8.602 1.069zm22.041 2.845 12.636-2.325.576.312-13.104 2.556zm-9.459 5.875c-4.145.777-7.357 1.36-7.844 1.446-1.354.239-1.771 1.342 1.086.792.975-.188 3.783-.705 7.139-1.319-.043-.326-.006-.501-.381-.919zm17.428-3.29-6.25 1.175c.113.259.217.514.281.74.023.084.033.175.049.263 2.602-.474 4.604-.836 5.195-.94 2.03-.362.725-1.238.725-1.238zm-20.385-13.542.707.332 7.334-1.375-.834-.332zm-78.122 11.875 1.167-.209 8.333 1.875-.083.625zm12.458-5.417.917-.167 6.375 1.292-1 .083zm9.167 5.917.625-.209 1.375.334-.458.166zm5.208 21.791s-1.5-.25-2.583.667-1.792 1.667-1.792 1.667l2.861 1.721-2.027-1.888s.665-.919 1.25-1.292c1.5-.958 2.291-.875 2.291-.875zm8.568 1.732s-1.369-.581-2.862.663c-1.092.908-1.575 2.221-1.575 2.221l3.4 1.306-2.567-1.473s.537-1.322 1.074-1.763c1.616-1.328 2.53-.954 2.53-.954zm8.254 3.069s-.912-.705-2.406.539c-1.09.908-1.782 3.092-1.782 3.092l3.856 1.016-3.023-1.183s.592-2.011 1.074-2.51c1.203-1.244 2.281-.954 2.281-.954zm8.298 3.443s-1.204-1.203-2.698.041c-1.09.908-1.533 2.677-1.533 2.677l3.442 1.14-2.609-1.307s.401-1.745.909-2.219c1.285-1.203 2.489-.332 2.489-.332z"/><path d="m93.292 47.003 13.768-2.574.386 1.806-13.896 2.703z"/><path fill="#fff" d="m93.462 47.509 13.875-2.625.109.351-13.875 2.625z"/><path d="m93.821 50.11 13.875-2.875.375.625-13.875 2.75zm-82.156 24.802-9.968-2.753.439-1.795 9.88 2.606z"/><path fill="#fff" d="m11.632 74.348-9.796-2.679.113-.369 9.738 2.683z"/><path d="m12.114 72.297-9.935-2.442.148-.637 9.88 2.553z"/><path fill="url(#ae)" stroke="#000" stroke-linecap="round" stroke-linejoin="round" stroke-width=".5" d="m83.429 56.825c.156.708-.047 1.354-.451 1.442s-.857-.413-1.014-1.122c-.154-.708.047-1.354.451-1.442.406-.089.859.413 1.014 1.122z"/><path fill="url(#af)" stroke="#000" stroke-linecap="round" stroke-linejoin="round" stroke-width=".5" d="m81.429 57.2c.156.708-.047 1.354-.451 1.442s-.857-.413-1.014-1.122c-.154-.708.047-1.354.451-1.442.406-.089.859.413 1.014 1.122z"/><path fill="url(#ag)" stroke="#000" stroke-linecap="round" stroke-linejoin="round" stroke-width=".5" d="m79.429 57.575c.156.708-.047 1.354-.451 1.442s-.857-.413-1.014-1.122c-.154-.708.047-1.354.451-1.442.406-.089.859.413 1.014 1.122z"/><path fill="url(#ah)" stroke="#000" stroke-linecap="round" stroke-linejoin="round" stroke-width=".5" d="m77.429 57.95c.156.708-.047 1.354-.451 1.442s-.857-.413-1.014-1.122c-.154-.708.047-1.354.451-1.442.406-.089.859.413 1.014 1.122z"/><path fill="url(#ai)" stroke="#000" stroke-linecap="round" stroke-linejoin="round" stroke-width=".5" d="m75.429 58.325c.156.708-.047 1.354-.451 1.442s-.857-.413-1.014-1.122c-.154-.708.047-1.354.451-1.442.406-.089.859.413 1.014 1.122z"/><path fill="url(#aj)" stroke="#000" stroke-linecap="round" stroke-linejoin="round" stroke-width=".5" d="m35.326 69.485c.375-2.5-4.542-3.75-4.542-3.75l-6.625-1.625c-1.104 0-2 1.147-2 2.563s.25 2.063 2 2.563l5.75 1.625c0-.001 5.061 1.002 5.417-1.376z"/><path fill="#666" d="m22.576 68.318s-.417 2.833 2.75 3.667 4.667 1.333 7 1 2.833-2.833 2.833-2.833-.833 1.583-5.916.416c-4.795-1.1-6.667-2.25-6.667-2.25z" opacity=".5"/><path fill="#fff" d="m12.902 62.737c-2.546-.626-4.498-1.107-5.077-1.252-2-.5-1.166.834-1.166.834s2.541.607 5.998 1.436zm18.089 4.414c-.98-.23-3.817-.92-7.191-1.744-.268.336-.446.633-.545.889 4.314 1.035 7.908 1.898 8.404 2.022 1.332.334 2.166-.5-.668-1.167zm-5.082-10.499 2.25.333 11.25-5.666 9.082.5-2.5.75-6.5-.25-11 5.666-2.75-.416z"/><path d="m99.119 89.231-43.7 25.2-43.6-25.201v-50.4l43.6-25.2 43.7 25.2zm2.301 1.4v-53.201l-46-26.6-46 26.6v53.101l46 26.6z" opacity=".13"/><path fill="#4d4d4d" d="m55.42 10.832 46.099 26.599v53.201l-46.099 26.6-46.101-26.601v-53.2zm55.5 21.2-55.5-32-55.401 32v63.999l55.401 32 55.5-31.999z"/></svg>