<svg xmlns="http://www.w3.org/2000/svg" xmlns:xlink="http://www.w3.org/1999/xlink" enable-background="new 0 0 110.9 128" viewBox="0 0 110.9 128"><linearGradient id="a" x1="-.006" x2="110.844" y1="64.005" y2="64.005" gradientUnits="userSpaceOnUse"><stop offset="0" stop-color="#0082ff"/><stop offset=".528" stop-color="#2b3990"/><stop offset="1" stop-color="#27aae1"/></linearGradient><linearGradient id="b" x1="33.144" x2="32.811" y1="21.066" y2="68.115" gradientUnits="userSpaceOnUse"><stop offset=".124" stop-color="#08c160"/><stop offset=".198" stop-color="#2ecb78"/><stop offset=".317" stop-color="#65d89c"/><stop offset=".436" stop-color="#94e4ba"/><stop offset=".555" stop-color="#bbeed3"/><stop offset=".671" stop-color="#d8f5e6"/><stop offset=".785" stop-color="#eefbf4"/><stop offset=".896" stop-color="#fbfefc"/><stop offset="1" stop-color="#fff"/></linearGradient><linearGradient id="c" x1="78.442" x2="78.885" y1="25.515" y2="71.526" gradientUnits="userSpaceOnUse"><stop offset=".124" stop-color="#087460"/><stop offset=".198" stop-color="#2e8978"/><stop offset=".317" stop-color="#65a89c"/><stop offset=".436" stop-color="#94c3ba"/><stop offset=".555" stop-color="#bbd8d3"/><stop offset=".671" stop-color="#d8e9e6"/><stop offset=".785" stop-color="#eef5f4"/><stop offset=".896" stop-color="#fbfdfc"/><stop offset="1" stop-color="#fff"/></linearGradient><linearGradient id="d" x1="18.287" x2="19.21" y1="61.65" y2="61.65" gradientUnits="userSpaceOnUse"><stop offset="0" stop-color="#edc7d9"/><stop offset=".38" stop-color="#e9bbd1"/><stop offset=".997" stop-color="#e3abc7"/></linearGradient><linearGradient id="e" x1="21.576" x2="20.779" y1="58.886" y2="59.358" gradientUnits="userSpaceOnUse"><stop offset=".544" stop-color="#e3abc7"/><stop offset=".659" stop-color="#e8b8cf"/><stop offset=".826" stop-color="#ecc3d7"/><stop offset="1" stop-color="#edc7d9"/></linearGradient><radialGradient id="f" cx="19.8" cy="59.093" r="2.461" gradientUnits="userSpaceOnUse"><stop offset="0" stop-color="#edc7d9"/><stop offset=".22" stop-color="#ecc5d7"/><stop offset=".34" stop-color="#e9bdd2"/><stop offset=".435" stop-color="#e4afca"/><stop offset=".456" stop-color="#e3abc7"/></radialGradient><linearGradient id="g" x1="58.025" x2="61.105" y1="58.106" y2="58.106" gradientUnits="userSpaceOnUse"><stop offset="0" stop-color="#e7c366"/><stop offset=".115" stop-color="#e6c160"/><stop offset=".268" stop-color="#e3ba4f"/><stop offset=".443" stop-color="#dfb033"/><stop offset=".633" stop-color="#d9a10c"/><stop offset=".688" stop-color="#d79c00"/></linearGradient><linearGradient id="h" x1="54.541" x2="56.522" y1="60.865" y2="62.008" gradientUnits="userSpaceOnUse"><stop offset="0" stop-color="#bcbeff"/><stop offset=".227" stop-color="#aaadf8"/><stop offset=".68" stop-color="#7c83e5"/><stop offset="1" stop-color="#5761d7"/></linearGradient><linearGradient id="i" x1="54.66" x2="56.426" y1="60.788" y2="61.807" gradientUnits="userSpaceOnUse"><stop offset=".242" stop-color="#5761d7"/><stop offset=".392" stop-color="#7a82e5"/><stop offset=".546" stop-color="#979cf0"/><stop offset=".7" stop-color="#acaff8"/><stop offset=".852" stop-color="#b8bafd"/><stop offset="1" stop-color="#bcbeff"/></linearGradient><linearGradient id="j"><stop offset="0" stop-color="#e9e9fd"/><stop offset=".36" stop-color="#d3d2f9"/><stop offset=".706" stop-color="#c5c4f7"/><stop offset="1" stop-color="#c0bff6"/></linearGradient><linearGradient id="k" x1="54.293" x2="56.789" y1="61.297" y2="61.297" gradientUnits="userSpaceOnUse" xlink:href="#j"/><linearGradient id="l" x1="54.331" x2="56.751" y1="61.297" y2="61.297" gradientUnits="userSpaceOnUse" xlink:href="#j"/><linearGradient id="m"><stop offset="0" stop-color="#2b237c"/><stop offset=".31" stop-color="#251c72"/><stop offset="1" stop-color="#0f054c"/></linearGradient><radialGradient id="n" cx="60.002" cy="44.093" r="3.648" gradientUnits="userSpaceOnUse" xlink:href="#m"/><radialGradient id="o" cx="60.14" cy="44.042" r="1.798" gradientUnits="userSpaceOnUse" xlink:href="#m"/><switch><g><path fill="url(#a)" d="m110.8 32v64l-55.4 32-44.3-25.6-.2-.1-10.9-6.3v-64l55.4-32z"/><path fill="#fff" d="m101.4 37.4v53.2l-46 26.5-46-26.5v-53.2l46-26.5z"/><path fill="#fff" d="m101.4 37.4v53.2l-46 26.5-46-26.5v-53.2l46-26.5z"/><path fill="#fff" d="m55.4 10.9-46 26.6v53.1l46 26.6 46-26.6v-53.2z"/><path fill="url(#b)" d="m55.4 10.7 1.1 54.2-47.1 25.7v-53.4z" opacity=".2"/><path fill="url(#c)" d="m55.4 10.9 1.1 54 44.9 25.7v-53.3z" opacity=".2"/><path d="m55.4 10.9-46 26.6v53.1l46 26.6 46-26.6v-53.2zm44.3 78.6-44.2 25.5-44.1-25.5v-51l44.1-25.5 44.2 25.5z" opacity=".13"/><path fill="#5793ce" fill-opacity=".25" d="m66.3 106.9 21.7-12.5c2.2-1.3 2.3-4.4.1-5.8l-47.7-29.7c-1.1-.7-2.4-.7-3.5 0l-23.1 14c-2.2 1.3-2.1 4.5.1 5.8l49.1 28.3c1 .5 2.2.5 3.3-.1z"/><path fill="#27aae1" d="m17.4 76 16.3 9.4v-12.6l-16.3-9.4z"/><path fill="#958dfc" d="m50.1 76-16.4 9.4v-12.6l16.4-9.4z"/><path fill="#1a55b5" d="m17.4 63.4 16.3 9.4 16.4-9.4-16.4-9.5z"/><path fill="#27aae1" d="m33.7 85.4 16.3 9.4v-19l-16.3-9.4z"/><path fill="#164966" d="m66.3 85.4-16.3 9.4v-19l16.3-9.4z"/><path fill="#006ec5" d="m33.7 66.4 16.3 9.4 16.3-9.4-16.3-9.5z"/><path fill="#27aae1" d="m50 94.8 16.2 9.4v-8.1l-16.2-9.4z"/><path fill="#164966" d="m82.6 94.8-16.4 9.4v-8.1l16.4-9.4z"/><path fill="#1b75bc" d="m50 86.7 16.2 9.4 16.4-9.4-16.4-9.4z"/><path fill="#164966" d="m55.3 96.1c.3.3.9.8 1.5 1.2 1.2.7 1.6.4 1.6 0 0-.7-.9-1.5-1.8-2-.2-.1-.3-.2-.5-.3 0-.2 0-.3 0-.5.2.1.3.2.5.3.7.4 1.5.6 1.5.1 0-.4-.3-.9-1.2-1.4-.5-.3-1.1-.5-1.4-.5-.1-.2-.1-.4-.2-.6.4 0 1.1.2 1.8.7.8.5 1.9 1.3 2 2.3 0 .5-.4.7-1.3.4.8.6 1.6 1.6 1.5 2.1-.2 1.1-1.8.4-2.5 0-.8-.4-1.4-1-1.8-1.4.2-.2.2-.3.3-.4z"/><path fill="#164966" d="m22.3 75.5c0-.1 0-.2 0-.4.2 0 .4-.1.6-.1 1.5-.2 2.2-.4 2.2-1 0-.4-.3-1-1.2-1.5-.5-.3-1-.4-1.2-.4-.1-.2-.2-.3-.3-.6.4 0 1 .1 1.7.5.8.5 1.8 1.3 1.8 2.3 0 .8-.8 1-2 1.1-.2 0-.3 0-.5 0 .9.5 1.8 1 2.6 1.5v.5c-1.1-.4-2.4-1.2-3.7-1.9z"/><path fill="#164966" d="m41.2 84.1c-2.3-1.4.3.2-2-1.2 0-2.4 0-4.8 0-7.1 2.3 1.4-.3-.2 2 1.2z"/><ellipse cx="31.3" cy="67.6" fill="#164782" rx="2.2" ry=".9"/><path fill="#001329" d="m30.4 67.3v.3h-1l.7-.3z"/><path fill="#001329" d="m32.9 67.3v.3l-.6.2h-.3l.6-.5z"/><path fill="#002d71" d="m30.1 60.7v6.6h.3s.6-1.5.5-3l.4-2.3 1.3 5.3h.4s.3-2-.1-3.2l-.2-3.4z"/><path fill="#001d4f" d="m30.1 60.7s.6.3 2.6 0v-.2h-1.5"/><path fill="#001d4f" d="m31.3 62-.5-.9.1 3.2z"/><path fill="#34227a" d="m30.8 56.6s.1.4.2 1.1c0 0-2.1.3-4-1.7l.3-.3c0-.1 1.8 1.5 3.5.9z"/><path fill="#19114c" d="m30.6 56.6-1 1 .9.1z"/><path fill="#ffc2b0" d="m30.2 55s.3-.1.5.6c0 0 .1.1.2.5l.2.6.5-.4-.1-.4h-.1l.1-.2s.2-.1.2-.2c-.1-.3-.2-.1-.3-.1l-.1.1s0-.3.1-.4l-.1-.2c-.1 0-.5.2-1.1.1z"/><ellipse cx="30.9" cy="55.3" fill="#ffc2b0" rx=".9" ry=".9"/><path fill="#18285f" d="m31.2 55s.1 0 0 0c.1.1-.1.3 0 .6l.1-.1s.1-.1.2 0 0 .2-.1.3c-.1 0-.1.1-.1.2v.1h.1v.1s.1-.1.1-.2c0 0 .7-.3.3-1 0 0 0-.5-.4-.6-.5-.2-1-.2-1.3.1-.1.1-.3.4-.2.6.2.1.7.1 1.3-.1z"/><path fill="#3d3d3d" d="m30.2 55.3v.1s-.1 0 0-.1c-.1 0-.1-.1 0 0 0-.1 0 0 0 0z"/><path fill="#ce7bff" d="m32.6 60.5s-.2.1-1.2.2c-.7.1-1.3 0-1.3 0l.3-3.6c0-.5.4-.9 1-.9.5 0 .8.2.9 1.4.1.9.3 2.9.3 2.9z"/><path fill="#9673d0" d="m30.1 60.6c2.1-1.5 1.9-3.3 1.9-3.3-.1-.6-.6-.6-.8-.5-.4.2-.4.7-.4.7.2.9-.2 1.6-.7 2.2z"/><path fill="#4c4c4c" d="m30.7 59.5-2.8-1.4-2.9 1.4 2.9 1.3z" opacity=".82"/><path fill="#4c4c4c" d="m30.7 59.1-2.8-1.3-2.9 1.2 2.9 1.5z" opacity=".82"/><path fill="#e5e5e5" d="m29.1 59.1-1.2-.5-1.2.5 1.2.6z" opacity=".82"/><path fill="#ffeefe" d="m28.3 59.1-.4-.2-.5.2.5.3z" opacity=".82"/><path fill="#bcbcbc" d="m27.9 54.7v5.8l-2.9-1.5z" opacity=".43"/><path fill="#444" d="m30.7 59.1-2.8 1.4v-5.8z" opacity=".82"/><path fill="#a0a0a0" d="m30.7 59.5-2.8 1.3v2.6z" opacity=".43"/><path fill="#e2e2e2" d="m27.9 60.8-2.9-1.3 2.9 3.9z" opacity=".43"/><path fill="#ffc2b0" d="m28.3 60.8c.2.1.8-.1 1-.3s.1-.3.1-.1l-.1-.1-.1-.1s-.1 0-.2 0c0 0-.6 0-.7 0 0 0-.1.1.1.1h.3c-.1 0-.2.1-.3.1-.3.1-.2 0-.2.1-.2.1-.1.3.1.3z"/><path fill="#310381" d="m30.8 57.2s.1-.5.5-.6c.3-.1.7 0 .8.6 0 0-.1 2-2.8 3.3l-.3-.4c-.1 0 1.9-1.2 1.8-2.9z"/><path fill="#ffc2b0" d="m26.8 56.4c-.1-.1-.1-.4.1-.6s.4-.2.4-.2l-.1.2v.1c0 .1 0 .2.1.3 0 .1 0 .2-.1.2 0-.1-.3.1-.4 0z"/><path fill="#515151" fill-opacity=".25" d="m18 65v-.5l.7.2.8-.2 1 .3s-1 .1-1.7.2c0 0-.4 2.4-.3 2.8 0 0 0 .5-.3.8-.1.2.2.2.2.4 0 .1-.8.5-.9.4s.1-.3.2-.4c.1-.2.3-.3.4-.3"/><ellipse cx="20.7" cy="63.7" fill="#164782" rx="3.8" ry="1.2"/><path fill="#f7941d" d="m21 59.6-.3.5c-.2.3-.3.8 0 1.2l.2.4c.2.6 0 1-.4 1.5l1.4 1.4c.9-1 .5-1.6.5-2.5 0-.3.2-.8.1-1.1-.2-.6-.5-1.1-1-1.6z"/><path fill="#9384ff" d="m14.7 66.6c.9.2 1.3.3 1.3-.2l1.1-1.4-.1-.5c-.1-.4.1-.7.4-.9.1-.1.3-.1.5-.1s.3 0 .4.1l.2.1.5.3 1.1.7c.2.1.5.2.8.3h.3c.4 0 .7-.1.8-.4 0-.1.1-.2 0-.4-.1-.5-.4-.9-.9-1.1l-1.4-.5-.8-.3-.2-.1c-.7-.2-1.4.1-1.7.8l-1.3 3.4-.9.1c-.2-.1-.2.1-.1.1z"/><path fill="#7562ff" d="m17.9 68.6-.7.6c-.2.1-.1.2.1.2.9-.3 1.3-.5 1-.9 0-1.8.5-3.8-.1-3.8h.6 2.3l-1.9-1-.5-.2-.2-.1c-.1-.1-.3-.1-.4-.1-.2 0-.3 0-.5.1-.3.2-.5.6-.4.9l.1.5z"/><path fill="#fbb040" d="m19.1 61.9s.1-.3.1-.3l2.8.6-.7-1.5c-.1-.2-.2-.5-.2-.8s.2-.6.6-.5.4.5.6.8c.8 1.8 1 2.7-.3 2.7-.4 0-.7-.1-1-.3z"/><path fill="url(#d)" d="m19.2 61.6-.1.3-.8-.3c.1-.3.4-.3.9 0z"/><path fill="#768ecb" d="m19.6 62.1-.1.3-2-.8s-.3-2.2-.3-2.2h.3l.3 2z"/><path fill="url(#e)" d="m21.5 59.3-.3-.5-.5.2c.2.2.3.4.3.6z"/><path fill="url(#f)" d="m21.2 58.1c-.2-.3-.5-.7-.8-.6-.3 0-.6.3-.4 1.2v.1s-.1.1 0 .1h.1c.1.2.4.4.7.4s.5-.4.6-.7c0 0-.2-.5-.2-.5z"/><path fill="#5082de" d="m20.2 58.6v.1c-.1 0-.1 0 0-.1-.1 0-.1-.1 0 0-.1-.1 0-.1 0 0z"/><path fill="#5082de" d="m21.5 58.4c0 .2-.2.5-.2.5-.1.1-.2.1-.3.1s-.1-.1-.2-.2c0-.1-.1-.1-.1-.2.1 0 .3-.1.2-.3 0-.1-.1-.2-.2-.2s-.1.1-.1.1-.4 0-.8-.2v.2c-.1-.1-.1-.2-.1-.3s0-.1 0-.1-.1 0-.1.1c-.2.1 0 .4 0 .4-.4-.2-.2-.6-.2-.6 0-.1.1-.1.4-.2s.2-.3.8-.3c.4.2.9.5.9 1.2z"/><path fill="#5082de" d="m17.2 69.4c-.1 0-.3-.1-.1-.2l.7-.6c.1 0 .2-.1.3-.1.4.5 0 .6-.9.9z"/><path fill="#5082de" d="m16 66.4c.1.5-.4.4-1.3.2-.1 0-.2-.2.1-.2l.9-.1c.2 0 .3.1.3.1z"/><ellipse cx="61.9" cy="90" fill="#164782" rx="3.8" ry="1.2"/><path fill="#002b74" d="m63.8 89.3-1.5-.3v-.1h-.3l-.4-.1v.1l-1.4.3s-2 .6-1.9 1.5c.1.8 2.3 1 3.7.7 1.3.4 3.6.2 3.7-.7.1-.8-1.9-1.4-1.9-1.4z"/><path fill="#001736" d="m65.7 90.8c0-.1 0-.1 0 0-.6.5-2.1.4-2.2-.1-.2-.5.7-.7.7-.7s-1.7 0-2.4 0c-.6 0-1.2.1-1.2.1l1.5.2.4.6s-3.3-.2-3.3-.6c0-.5 2.4-1.4 2.4-1.4l-1.4.3s-2 .6-1.9 1.5c.1.8 2.3 1 3.7.7 1.3.4 3.6.2 3.7-.6z"/><path fill="#009ff0" d="m63.9 85.4c-.2-.1-1.5-.5-1.7-.6-.2 0-.4 0-.4 0s-1.4.5-1.6.6c-.3.2-1.4 2.5-1.3 2.8.2.6 2.1.9 2.1.9h2.4l.4-2.4.2 2.3s.5-.1.8-.5-.9-3.1-.9-3.1z"/><path fill="#006ec5" d="m60.4 85.4c-.4.2-1.5 2.5-1.4 2.8s.7.6 1.2.7l.2-.4s-1.1-.6-1-.8c0-.1.8-1.8 1-2.3z"/><path fill="#006ec5" d="m63.9 85.4c.1 0 .1 0 0 0 .3.2 1.1 2.6 1 2.9s-.5.6-.9.7l-.1-.4s.8-.6.8-.8c-.1-.2-.6-1.9-.8-2.4z"/><path fill="#d38462" d="m62.4 84.8c0 .2-.2.3-.4.3s-.4-.1-.4-.3.2-.3.4-.3.4.1.4.3z"/><path fill="#edb183" d="m63.4 83.5h-.1c0-.7-.6-1.3-1.3-1.3s-1.3.6-1.3 1.3h-.1c-.1 0-.2.2-.1.3s.2.2.3.2c.2.5.7.8 1.2.8.6 0 1-.3 1.2-.8.1 0 .3 0 .3-.2.1-.1.1-.2-.1-.3z"/><path fill="#ce8763" d="m62.5 84.7c-.9 0-1.7-.8-1.7-1.7v-.1c-.1.2-.2.4-.2.6h-.1c-.1 0-.2.2-.1.3s.2.2.3.2c.2.5.7.8 1.2.8.3 0 .5 0 .6-.1z"/><path fill="#002b74" d="m61.3 82.9s.2.4 1 .3c.8 0 .9.2.9.5 0 0 0-.2.2-.2 0 0 .1-.8-.5-1.2-1-.7-1.8.1-1.8.1s-.7.2-.6 1.1c0 0 .2 0 .3.1 0 .1 0-.5.5-.7z"/><path fill="#cedcdc" d="m64 86.6h-4-.1c-.1 0-.1.1-.1.2v2.2c0 .1 0 .2.1.2h.1 4c.1 0 .1 0 .2-.1v-.1-2.1c0-.1 0-.1-.1-.2 0-.1 0-.1-.1-.1z"/><path fill="#a7bfeb" d="m64.2 89.4h-4.4s0 0 0-.1v-.1h4.4z"/><circle cx="62" cy="87.9" r=".4" fill="#fff"/><path fill="#009ff0" d="m62 91.4s.4-.1.7.3.7.4.8.2c0-.2-.4-.9-.6-1.1s-.3-.4-.5-.3c-.1.1-.4.1-.4.1s.1.2 0 .8z"/><path fill="#001736" d="m62.4 83c-.6.1-1-.3-1-.3-.4.1-.6.3-.6.3.1-.3.2-.4.2-.5-.2.1-.6.3-.5 1.1 0 0 .2 0 .3.1 0 0 0-.6.5-.8 0 0 .2.4 1 .3.8 0 .9.2.9.5.1-.4-.1-.8-.8-.7z"/><path fill="#006ec5" d="m62.7 91.7c.3.4.7.4.8.2v-.1c-.1 0-.1 0-.2 0-.2-.1-.3-.4-.6-.6-.1-.1-.4-.1-.6-.2 0 .1 0 .2-.1.4 0 0 .3-.1.7.3z"/><circle cx="61.5" cy="83.9" r=".1" fill="#282828"/><circle cx="62.5" cy="83.9" r=".1" fill="#282828"/><ellipse cx="51" cy="71.8" fill="#164782" rx="3.8" ry="1.2"/><ellipse cx="68.4" cy="85.4" fill="#164782" opacity=".66" rx="3.3" ry="1"/><path fill="#34227a" d="m64.4 76.9-.7.5h-.1l-1.2-1.7v-.1l.9-.7h.1l1.2 1.7v.1z"/><path fill="#19114c" d="m64.3 76.8-.6.5h-.1l-1.1-1.5v-.1l.8-.6h.1l1.1 1.5v.1z"/><path fill="#310381" d="m69.1 75.8c.2-.2-.1-.4-.1-.6.1-.5.2-1.7-.3-2.2s-1.4-.2-1.4-.2-1.3.4-1.3 1.2.4.8.4.8.1.2.1.5c0 .2-.1.6-.1.7.3.3 1.8.6 2.7-.2z"/><path fill="#ffd63f" d="m67.3 76.3s-.5 0-.8.5-.4.6-.4.6.3.4.6.3c0 0 0 .3.1.7s.2.3.2.3.6.2 1.1 0c0 0 .1-.5.4-1.1 0 0 .1.3.1.5 0 0 .4.1.6-.1 0 0-.1-1.7-1.4-1.7z"/><path fill="#f89a5b" d="m66.5 74.3s-.2.9.6 1.3c.3.2.9.1 1.2-.4 0 0 .5-.2.3-.6-.1-.2-.4 0-.4 0s-.6.1-.8-.8c0 .2-.6.5-.9.5z"/><path fill="#f89a5b" d="m67.3 76.3s.1-.2 0-.6h.4s0 .5.1.6c0 0-.2.7-.6.7-.1-.2.1-.7.1-.7z"/><path fill="#f89a5b" d="m67.6 85h-.2v-.3h.3z"/><path fill="#f89a5b" d="m69.5 85.3h.2l-.1-.4h-.2z"/><path fill="#2a294f" d="m69.7 85.2h-.1-.1c-.1.1-.1.2-.1.3 0 0 .9.1.9 0 .1 0-.1-.1-.3-.2-.1 0-.3-.1-.3-.1z"/><path fill="#2a294f" d="m67.4 84.9h.1.1c.1.1.1.2.1.3 0 0-.9.1-.9 0s.1-.1.3-.2c.1 0 .3-.1.3-.1z"/><path fill="#001736" d="m67 78.7s-.8 1.1-.4 2.9.7 3.1.7 3.1.2.1.5-.1c0 0-.1-1.4 0-3 0 0-.6-1.5-.4-2.8.1 0-.1 0-.4-.1z"/><path fill="#002b74" d="m68.1 78.7s.8.8.9 2.4c0 1.6.7 3.7.7 3.7s-.3.2-.5.2c0 0-.9-2.3-1.4-3.4 0 0-.6-1.6-.4-2.8.1 0 .4.1.7-.1z"/><path fill="#f89a5b" d="m66.3 77.6s-.5.7-.9.1-.7-1.1-.7-1.1 0-.5-.4-.4-.3.3-.2.3.2-.1.3 0-.1.2 0 .4l-.2.1s.1.1.4.2c0 0 .5 1.1.8 1.2s.8.1 1.3-.7c0 0-.2 0-.4-.1z"/><path fill="#f89a5b" d="m68.7 78.1s.1 1.8.1 2.2.4.5.6.4-.1-.2-.2-.2.2 0 .1-.3c-.1-.2-.2-.3-.2-.5s.1-1 .1-1.8c0 .1-.2.2-.5.2z"/><ellipse cx="66.8" cy="74.6" fill="#4f3e35" rx=".1" ry=".3"/><ellipse cx="67.4" cy="74.6" fill="#4f3e35" rx=".1" ry=".3"/><path fill="#fa5c17" d="m63.1 75.6c-.1.1-.3.1-.4.3.1-.2.3-.2.4-.3z"/><path fill="#454195" d="m63.2 75.6c-.1.1-.3.2-.4.3.2-.1.3-.2.4-.3.1 0 .1 0 0 0z"/><path fill="#454195" d="m63.3 75.7c-.1.1-.3.2-.4.3.1-.1.2-.1.4-.3z"/><path fill="#454195" d="m63.2 75.5s.1-.1.1-.1-.1.1-.1.1z"/><path fill="#e6c03b" d="m63.3 75.6s.1-.1 0 0c.1-.1.1-.1 0 0 0-.1 0-.1 0 0z"/><path fill="#454195" d="m63.5 75.4s.1 0 0 0c.1 0 .1-.1 0 0z"/><path fill="#454195" d="m63 76.2c.2-.2.5-.4.8-.6-.3.2-.6.4-.8.6z"/><path fill="#9673d0" d="m63.4 75.7c.1 0 .1-.1.2-.1s-.1 0-.2.1c0-.1 0 0 0 0z"/><path fill="#454195" d="m63.4 75.3s.1 0 0 0c.1 0 .1-.1 0 0s0 .1 0 0z"/><path fill="#00eee4" d="m63.1 76.3c.1-.1.1-.1 0 0 0-.1 0-.1 0 0z"/><path fill="#454195" d="m63.9 76.3c-.1-.1-.3-.2-.5-.2.1.2.2.2.1.5 0-.1.1-.2.2-.2.2-.1.2 0 .1.1-.3.4-.3-.1-.3-.3 0 .2 0 .3.1.5.1-.2.1-.2.3-.4-.1 0-.2 0-.3 0 0 .1-.1.2-.1.2 0-.1.1-.2.1-.3 0 0-.2-.2-.1-.2-.1.1.3.3.4.3z"/><path fill="#454195" d="m63.4 76.7c.3 0 .3 0 .5.2-.1-.2-.1-.1-.1-.3 0-.3 0 0 0 .1 0 .2 0 .2-.1.2.1-.1-.2-.2-.3-.2.2.1.3.1.5.2 0-.2 0-.3 0-.5-.1.3-.1.3 0 .5-.1-.3-.1-.2-.5-.2z"/><path fill="#ffd63f" d="m49.3 70.4 1.4-.3v-.1l.4.1.4-.1v.1l1.4.3s2 .6 1.9 1.5c-.1.8-2.3.7-3.6.4-1.3.4-3.6.5-3.7-.4-.2-.9 1.8-1.5 1.8-1.5z"/><path fill="#9673d0" d="m49.8 63.8s-1.2.4-.4 1.8c.2.3-.1.6.1 1 .1.5.7 1.5 2.2.9s1.4-1.6 1.1-2c-.2-.4-.3-.5-.2-1.2 0-.7-.5-1.9-1.7-1.7s-1.1 1.2-1.1 1.2z"/><path fill="#6544ad" d="m52.7 66.6c0 .2.1.5-.1.7-.1.1-.3.5-.5.6-.1 0-.3 0-.4 0-.3 0-.6 0-.8-.1s-.2-.3-.3-.5-.2-.4-.5-.5c-.2-.1-.3-.2-.4-.3s-.1-.2-.1-.3c0-.2.2-.4.5-.6.2-.1.4-.1.6-.2.6-.2 1-.3 1.4.1.4.3.6.7.6 1.1z" opacity=".35"/><path fill="#e6c03b" d="m47.4 71.9c.6.5 2.1.4 2.2-.1.2-.5-.7-.7-.7-.7s1.7 0 2.4 0c.6 0 1.2.1 1.2.1l-1.1.2s-.4.5-.4.7 3-.1 3-.5c0-.5-2.4-1.4-2.4-1.4l1.4.3s2 .6 1.9 1.5c-.1.8-2.3.7-3.6.4-1.5.3-3.8.3-3.9-.5z"/><path fill="#edb183" d="m51.1 71.5h.3l-.3.7h-.2v-.7z"/><path fill="#34227a" d="m49.1 66.5c.2-.1 1.5-.5 1.7-.6h.4s1.4.5 1.6.6c.3.2 1.4 2.5 1.3 2.8-.2.6-2.1.9-2.1.9h-2.4l-.4-2.4-.2 2.4s-.5-.1-.8-.5c-.3-.5.9-3.2.9-3.2z"/><path fill="#454195" d="m52.7 66.6c.4.2 1.5 2.5 1.4 2.8s-.7.6-1.2.7l-.2-.4s1.1-.6 1-.8c-.1-.1-.8-1.9-1-2.3z"/><path fill="#19114c" d="m49.1 66.5c0 .1 0 .1 0 0-.3.2-1.1 2.6-1 2.9s.5.6.9.7l.1-.4s-.8-.6-.8-.8c.1-.1.7-1.9.8-2.4z"/><path fill="#19114c" d="m52.5 67.2.2.8-.3.1z"/><path fill="#19114c" d="m49.6 67.2-.2.8.3.1z"/><path fill="#d38462" d="m50.7 66c0 .2.2.3.4.3s.4-.1.4-.3-.2-.3-.4-.3c-.2-.1-.4.1-.4.3z"/><path fill="#edb183" d="m49.8 64.7c0-.7.6-1.3 1.3-1.3s1.3.6 1.3 1.3h.1c.1 0 .2.2.1.3s-.2.2-.3.2c-.2.5-.7.8-1.2.8-.6 0-1.1-.4-1.2-.8-.2-.5-.1-.5-.1-.5z"/><path fill="#6544ad" d="m51.3 64.2c-.4.2-.8-.1-1.1.2-.2.1-.3.4-.3.6 0 .1.1.1.1 0 .2-.8.9-.4 1.4-.7 0 0 0-.1-.1-.1z" opacity=".27"/><path fill="#ce8763" d="m50.6 65.8c.9 0 1.7-.8 1.7-1.7v-.1c.1.2.2.4.2.6h.1c.1 0 .2.2.1.3s-.2.2-.3.2c-.2.5-.7.8-1.2.8-.3.1-.5 0-.6-.1-.1 0 0 0 0 0z"/><path fill="#9673d0" d="m51.8 64s-.2.4-1 .3c-.8 0-.9.4-.9.5-.1.1-.3.5-.2-.2 0 0-.1-.8.5-1.2 1-.7 1.8.1 1.8.1s.7.2.6 1.1c0 0-.2 0-.3.1 0 .1 0-.5-.5-.7z"/><path fill="#6544ad" d="m51.6 63c.3 0-.5-.2-.8-.2s-.6.2-.8.4v.2s0-.6 1.6-.4z" opacity=".48"/><path fill="#cedcdc" d="m49.1 67.7h4.1.1c.1 0 .1.1.1.2v2.1c0 .1 0 .2-.1.2h-.1-4.1c-.1 0-.1 0-.2-.1v-.1-2c0-.1 0-.1.1-.2-.1 0 0-.1.1-.1z"/><path fill="#a7bfeb" d="m48.9 70.6h4.4s0 0 0-.1v-.1h-4.4v.2c-.1-.1 0 0 0 0z"/><path fill="#454195" d="m51 72.2s-.3 0-.6.4-.6.5-.6.1c0-.2.2-.7.4-.9s.2-.4.5-.3h.5s-.5.2-.2.7z"/><path fill="#19114c" d="m50.4 72.6c-.2.3-.5.4-.6.2v-.1h.2c.2 0 .3-.3.5-.5.1-.1.3-.1.4-.2 0 .1 0 0 .1.1 0 .1-.3.2-.6.5z"/><circle cx="51.6" cy="65.1" r=".1" fill="#282828"/><circle cx="50.6" cy="65.1" r=".1" fill="#282828"/><path fill="#173d7a" d="m40.9 75.6s-.3-.2-.5.1c-.2.2-.5.8-.5 1.2s.3.4.5.3.7-.9.8-1.1c0-.2 0-.4-.1-.4s-.2-.1-.2-.1z"/><path fill="#d4ecff" d="m41 75.5v.3c0 .1 0 .1-.1.2-.1 0-.1.1-.3 0-.2 0-.3-.1-.3-.5 0-.2.7 0 .7 0z"/><path fill="#173d7a" d="m39.7 74.9s-.3-.2-.5.1c-.2.2-.5.8-.5 1.2s.3.4.5.3.7-.9.8-1.1c0-.2 0-.4-.1-.4s-.2-.1-.2-.1z"/><path fill="#d4ecff" d="m39.8 74.9v.3c0 .1 0 .1-.1.2-.1 0-.1.1-.3 0-.2 0-.3-.1-.3-.5 0-.3.7 0 .7 0z"/><path fill="#173d7a" d="m42.7 68.6c-.1-1.6-1.7.2-1.7.2l-1.1 1.1-1 1.1c-.2.2-.3.5-.2.8l.4 3.1c0 .2.2.3.3.3h.1c.4-.1.3-.4.3-.4l-.1-2.9 2.1-1.3s1-.4.9-2z"/><path fill="#173d7a" d="m43.9 69.2c-.1-1.6-1.7.2-1.7.2l-1.1 1.1-1 1.1c-.2.2-.3.5-.2.8l.4 3.1c0 .2.2.3.3.3h.1c.4-.1.3-.4.3-.4l-.1-2.9 2.1-1.3s1-.4.9-2z"/><path fill="#5793ce" d="m42.9 64.1c1.2.5 1.2 1.2 1.2 1.2s0 1.7 0 3.5c0 .7-4 .8-3.4-1.2.7-2.3.2-3.3.6-3.6.4-.2 1.3 0 1.6.1z"/><path fill="#ffc2b0" d="m43.3 64.7c-.1.2-.4.4-.7.3s-.6-.4-.5-.6.4-.4.7-.3c.4.1.6.4.5.6z"/><path fill="#fff" d="m42.8 65.1c-.1 0-.1 0-.2 0-.2 0-.3-.1-.4-.3-.1-.1-.1-.3-.1-.4s.1-.3.3-.3c.1-.1.3-.1.5 0 .2 0 .3.1.4.3.1.1.1.3.1.4 0 .1-.1.3-.3.3-.1 0-.2 0-.3 0zm-.2-.9c-.1 0-.2 0-.2 0-.1 0-.2.1-.2.2s0 .2.1.3.2.2.4.2h.4c.1 0 .2-.1.2-.2 0-.1 0-.2-.1-.3s-.2-.2-.4-.2c0 0-.1 0-.2 0z"/><path fill="#ffc2b0" d="m42.4 64v.4c0 .1.4.2.5.1s.1-.2.1-.6c.1-.4-.6.1-.6.1z"/><path fill="#ea9c92" d="m43.1 64s-.1.4-.6.5v-.4z"/><circle cx="42.5" cy="63.2" r=".9" fill="#ffc2b0"/><circle cx="41.7" cy="63.5" r=".1"/><circle cx="42.4" cy="63.6" r=".1"/><path fill="#ea9c92" d="m42.6 63.1s-.5.2-.9.2-.3-.3-.3-.3l1.1-.2z"/><path fill="#663a22" d="m41.7 63.3s.5-.2.9-.1c.1 0 .2.1.2.1s0 0 .1.1c.1 0 .2-.3.3-.3s.2.1.1.3-.1.4 0 .4.6-.4.1-1.4-1.7-.4-1.9-.2c0 0-.2.2-.4 0 0 0-.2 1.4.6 1.1z"/><path fill="#ffc2b0" d="m43.5 67.3v.7c0 .1 0 .2-.1.2l-1.5 1.3.2.3 2-1.4c.1-.1.1-.2.2-.3l.1-1.3z"/><path fill="#5793ce" d="m44 65s.4.7.6 2.5c0 0-.8.2-1.2.1-.4-.2.6-2.6.6-2.6z"/><path fill="#396caa" d="m43.4 65.8s-.2.9-.2 1.4c0 .1.1.2.2.3z"/><path fill="#5793ce" d="m43 70.5h-.3l-2.1-1.2c-.1 0-.2 0-.3 0l-1.5.9h-.2v.2.1l2.4 1.4h.3l1.6-.9s.1-.1.1-.1z"/><path fill="#396caa" d="m41.4 69.7-.1-.1h-1.6l-.8.5h-.2v.2.1l2.4 1.4h.1z"/><path fill="#5793ce" d="m38.7 70.1-.1.2v.1-.3z"/><path fill="#fff" d="m41.1 71.7h.2v-.3h-.2z"/><path fill="#fff" d="m41 71.5-2.4-1.4c-.1 0-.1-.1 0-.2l1.6-.9c.1 0 .2-.1.3 0l2.4 1.4c.1 0 .1.1 0 .2l-1.6.9c-.1.1-.2.1-.3 0z"/><path fill="#d4ecff" d="m41 71.3-2-1.1c-.1 0 0-.1 0-.1l.9-.5h.2l2 1.1c.1 0 0 .1 0 .1l-.9.5c-.1.1-.1.1-.2 0z"/><path fill="#ffc2b0" d="m40.4 69v.2.4.1c0 .1.1.1.2.2.1 0 .1 0 .1-.1v-.4s.1.1.1.1 0-.4-.1-.6c-.1-.1-.3.1-.3.1z"/><path fill="#ffc2b0" d="m41.2 66.4-.3.5c-.1.1-.1.3-.1.4l-.1 1.7h-.3l-.2-2c0-.1 0-.1 0-.2l.2-1z"/><path fill="#173d7a" d="m41 71.7-.2-.3-2.1-1.2c-.1 0-.1-.1-.1-.2v-1.7l-.1-.2.1-.1h.1l2.4 1.4c.1 0 .1.1.1.2v1.9.1z"/><path fill="#396caa" d="m39.5 70.7-.1-.1-.8-1.4v-.9l-.1-.2.1-.1h.1l2.4 1.4s.1.1.1.1z"/><path fill="#5793ce" d="m38.5 68.1.1-.1h.1z"/><path fill="#274f89" d="m41 69.4c.1 0 .1.1.1.2l-.2.1-.1-.2z"/><path fill="#5793ce" d="m40.9 69.5-2.4-1.4c-.1 0-.1 0-.1.1v1.9c0 .1.1.2.1.2l2.4 1.4c.1 0 .1 0 .1-.1v-1.9c0-.1-.1-.2-.1-.2z"/><path fill="#ffc2b0" d="m42.1 69.8c-.1.2-.2.2-.2.3l-.2.1c-.1 0-.2 0-.2 0-.1 0-.1-.2 0-.2l.2-.3s-.1.1-.2.1c0 0 .1-.2.3-.2.1 0 .2-.1.2-.1z"/><path fill="#5793ce" d="m41.4 64.1s-.9 1-1.3 1.9c0 0 .3.6 1.1.8s.2-2.7.2-2.7z"/><path fill="#396caa" d="m41 66.7.1-1.4-.3 1.3c.1 0 .2.1.2.1z"/><path fill="#75ffc5" d="m21.9 51.5v2.1l7.3-4.2v-2.1z"/><path fill="#b3b3b3" d="m21.9 54.1v2.1l1.8-1.1v-2.1z"/><path fill="#fca5f3" d="m25.6 51.9v2.1l5.4-3.1v-2.1z"/><path fill="#5793ce" d="m85 57.8-15-8.7c-.2-.1-.3-.1-.5 0l-.8.5s.4.1.6.2v15.4c0 .5.3 1.1.7 1.3l14.6 8.5v.7l.9-.5c.1-.1.2-.3.2-.6v-15.4c0-.6-.3-1.2-.7-1.4z"/><path fill="#d4ecff" d="m84.1 75.7-15-8.7c-.4-.2-.7-.8-.7-1.3v-15.5c0-.5.3-.8.7-.5l15 8.7c.4.2.7.8.7 1.3v15.5c0 .5-.3.7-.7.5z"/><path fill="none" stroke="#317caf" stroke-miterlimit="10" stroke-width=".05" d="m75.8 70.1-6-3.5c-.2-.1-.3-.3-.3-.5v-11.2c0-.2.1-.3.3-.2l6 3.5c.2.1.3.3.3.5v11.2c0 .2-.2.3-.3.2z"/><path fill="none" stroke="#fff" stroke-miterlimit="10" stroke-width=".08" d="m74.5 68.5-4.2-2.4c-.1-.1-.3-.3-.3-.5v-5.2c0-.2.1-.3.3-.2l4.2 2.4c.2.1.3.3.3.5v5.2c0 .2-.1.3-.3.2z"/><path fill="none" stroke="#fff" stroke-miterlimit="10" stroke-width=".08" d="m82.9 73.1-4.9-2.8c-.2-.1-.3-.3-.3-.5v-5.2c0-.2.1-.3.3-.2l4.9 2.8c.2.1.3.3.3.5v5.2c-.1.2-.2.3-.3.2z"/><path fill="#353535" stroke="#fff" stroke-miterlimit="10" stroke-width=".001" d="m83.6 72.9-3.9-2.2c-.1-.1-.2-.3-.2-.4v-4.1c0-.2.1-.2.2-.2l3.9 2.2c.1.1.2.3.2.4v4.1c0 .2-.1.3-.2.2z"/><path fill="none" stroke="#317caf" stroke-miterlimit="10" stroke-width=".05" d="m82.8 63.1-6-3.5c-.2-.1-.3-.3-.3-.5v-.2c0-.2.1-.3.3-.2l6 3.5c.2.1.3.3.3.5v.2c0 .2-.2.3-.3.2z"/><path fill="#42d142" d="m86 67.1-4.2-2.4c-.2-.1-.3-.3-.3-.5v-5.2c0-.2.1-.3.3-.2l4.2 2.4c.2.1.3.3.3.5v5.2c0 .2-.1.3-.3.2z"/><path fill="#1d6993" d="m74.7 65.5-10.3-5.9c-.2-.1-.3-.3-.3-.5v-6.2c0-.2.1-.3.3-.2l10.3 5.9c.2.1.3.3.3.5v6.2c0 .2-.2.3-.3.2z"/><path fill="none" stroke="#a9e5ff" stroke-miterlimit="10" stroke-width=".05" d="m65.1 55.6 3.3 1.8"/><path fill="none" stroke="#fdfeff" stroke-miterlimit="10" stroke-width=".05" d="m82.1 60.7 3.3 1.7"/><path fill="none" stroke="#fdfeff" stroke-miterlimit="10" stroke-width=".05" d="m82 62.5 3.3 1.8"/><path fill="none" stroke="#fff" stroke-miterlimit="10" stroke-width=".05" d="m82.1 61.4 2.1 1.1"/><path fill="none" stroke="#fff" stroke-miterlimit="10" stroke-width=".05" d="m82 62 .6.3"/><path fill="none" stroke="#fff" stroke-miterlimit="10" stroke-width=".05" d="m83.1 62.5 2.3 1.2"/><path fill="none" stroke="#a9e5ff" stroke-miterlimit="10" stroke-width=".05" d="m65.1 54.6 8.4 4.5"/><path fill="none" stroke="#a9e5ff" stroke-miterlimit="10" stroke-width=".05" d="m64.8 56.6 3.9 2"/><path fill="none" stroke="#a9e5ff" stroke-miterlimit="10" stroke-width=".05" d="m69.1 58.8 1.8.9"/><path fill="none" stroke="#fff" stroke-miterlimit="10" stroke-width=".05" d="m82.4 63.4 2.2 1.2"/><path fill="none" stroke="#fff" stroke-miterlimit="10" stroke-width=".005" d="m82 63.2.3.2"/><path fill="#f9df41" d="m80.6 70.2c.1.1.2.1.3.2.1 0 .1-.1 0-.1-.1-.1-.2-.2-.3-.1 0-.1-.1-.1 0 0z"/><path fill="#c1a017" d="m81.1 70.4c.1 0 .2.1.4.2"/><path fill="#f9df41" d="m81.1 70.4c.1.1.2.1.4.2.1 0 .1-.1 0-.1s-.2-.1-.4-.1c0-.1-.1 0 0 0z"/><path fill="#f9df41" d="m81.8 70.8c.3.1.6.2 1 .4.1 0 .1-.1 0-.1-.3-.2-.7-.3-1-.3 0-.2-.1-.1 0 0z"/><path fill="#f9df41" d="m80.7 70.5.6.3c.1 0 .1-.1 0-.1-.2 0-.4-.1-.6-.2 0-.1-.1 0 0 0z"/><path fill="#fa5c17" d="m81.6 70.9c0 .1.1.1 0 0 .1.1.2 0 .1 0 0 0 0 0-.1 0 0-.1-.1 0 0 0z"/><path fill="#f9df41" d="m82 71.2c.1.1.3.2.5.3.1 0 .1-.1 0-.1-.2-.1-.3-.2-.5-.2 0-.2-.1-.1 0 0z"/><path fill="#fbb0a7" d="m80.4 70.1c.1 0 .1-.1 0 0 0-.1 0 0 0 0z"/><path fill="#f9df41" d="m80.3 67.3c.4.3.8.6 1.3.9.1 0 .1 0 0-.1-.4-.3-.8-.6-1.3-.8 0-.1 0 0 0 0z"/><path fill="#f9df41" d="m81.9 68.3c.3.2.6.3.9.5.1 0 .1-.1 0-.1-.3-.1-.6-.3-.9-.4 0-.1-.1 0 0 0z"/><path fill="#f9df41" d="m80.4 68.1c.3.3.7.4 1.1.6.1 0 .1-.1 0-.1-.3-.2-.8-.4-1.1-.5 0-.2-.1-.1 0 0z"/><path fill="#e6e7e8" d="m81.6 68.8c.1 0 .1.1.2.1 0 0 .1 0 0-.1 0 0 0-.1-.2 0 0-.1 0-.1 0 0z"/><path fill="#f9df41" d="m82 69c.3.1.5.2.8.3.1 0 .1-.1 0-.1-.3-.1-.5-.2-.8-.2 0-.1-.1-.1 0 0z"/><path fill="#f9df41" d="m80.3 68.6c.2.1.3.2.5.2.1 0 .1-.1 0-.1s-.3-.1-.5-.1c0-.1 0 0 0 0z"/><path fill="#75ffc5" d="m81 68.9c.6.3 1.1.6 1.8.8.1 0 .1-.1 0-.1-.6-.2-1.2-.4-1.8-.7 0-.1-.1 0 0 0z"/><path fill="#f9df41" d="m80.4 69.1c.5.2.9.4 1.3.7.3.2.8.5 1.2.5.1 0 .1-.1 0-.1-.5-.1-1-.4-1.4-.6s-.7-.5-1.1-.5c-.1-.1-.1 0 0 0z"/><path fill="#fca5f3" d="m80.4 69.7c.2.1.3.1.4.2.1 0 .1 0 0-.1s-.2-.1-.4-.1c0-.1-.1-.1 0 0z"/><path fill="#9673d0" d="m81 70c.1.1.1.1.2.1s.1-.1 0-.1-.1-.1-.2 0c0-.2-.1-.1 0 0z"/><path fill="#f9df41" d="m81.3 70.2c.4.2.9.4 1.4.5.1 0 .1-.1 0-.1-.4-.1-.9-.3-1.4-.4 0-.1 0-.1 0 0z"/><path fill="#44fc79" d="m70 51.4c0 .2-.1.3-.3.2s-.3-.3-.3-.5.1-.3.3-.2.3.3.3.5z"/><path fill="#f89a5b" d="m70.8 51.9c0 .2-.1.3-.3.2s-.3-.3-.3-.5.1-.3.3-.2.3.3.3.5z"/><path fill="#fff" d="m71.7 52.4c0 .2-.1.3-.3.2s-.3-.3-.3-.5.1-.3.3-.2.3.3.3.5z"/><path fill="#14825d" d="m83 51.9c.1-.1.1-.1.1-.2v-.1c0-.1-.1-.1 0-.2s.3-.1.4-.2c.1 0 .1-.1.2-.1h.6c.1 0 .3 0 .4-.1.2-.2.5-.4.7-.6.1-.1.1-.1-.1-.1-.1 0-.2 0-.3 0-.3 0-.5 0-.4-.1 0 0 .1-.1.1-.2 0 0 .1-.1.2-.1.2-.1.5-.2.7-.2.1 0 .2-.1.2-.1-.1-.2-.1-.3-.2-.5 0 0-.2 0-.3 0-.2.1-.3.1-.5.2s-.4.1-.4 0h-.1c-.1 0-.1 0 0-.1s.3-.2.4-.3.1-.1 0-.1c-.3 0-.6 0-.9 0-.1 0-.3 0-.4.1s-.2.2-.3.3-.2.1-.4.2c-.1 0-.2 0-.3.1-.1 0-.2 0-.2 0 0-.1 0-.1-.1-.2 0 0 0-.1-.2-.1-.4.2-.9.3-1.3.5-.1.1-.1.1-.1.1s0 .1.1.1c0 .1 0 .1-.3.3-.1 0-.1.1-.2.1-.1.1-.2.1-.2.1-.2 0-.3 0-.5 0-.1 0-.3 0-.4.1-.2.2-.4.4-.7.5-.1.1-.1.1.1.1h.3c.2 0 .4 0 .2.2v.1s-.1.1-.2.1c-.2.1-.4.2-.6.2-.1 0-.2.1-.3.2.1.2.1.3.2.5h.3c.1 0 .3-.1.4-.1.3-.1.5-.2.6-.1h.1c.1 0 0 0 0 .1-.2.1-.3.2-.4.4-.1.1-.1.1 0 .1h.9c.1 0 .2 0 .3-.1s.2-.2.3-.2c.1-.2.3-.3.6-.3h.1.2c0 .1.1.2.1.3 0 0 .1.1.2 0 .5-.3.9-.4 1.3-.6zm-2.5-.7c-.1-.3.4-.7 1.2-1 .7-.3 1.5-.3 1.6 0s-.4.7-1.2 1-1.5.3-1.6 0z"/><path fill="#14825d" d="m85.3 50.4h.1l.1.2h-.3-.3.1z"/><path fill="#34d69b" d="m83.1 52.2c.1-.1.1-.1.1-.2v-.1c0-.1-.1-.1 0-.2s.3-.1.4-.2c.1 0 .1-.1.2-.1h.6c.1 0 .3 0 .4-.1.2-.2.5-.4.7-.6.1-.1.1-.1-.1-.1-.1 0-.2 0-.3 0-.3 0-.5 0-.4-.1 0 0 .1-.1.1-.2 0 0 .1-.1.2-.1.2-.1.5-.2.7-.2.1 0 .2-.1.2-.1-.1-.2-.1-.3-.2-.5 0 0-.2 0-.3 0-.2.1-.3.1-.5.2s-.4.1-.4 0h-.1c-.1 0-.1 0 0-.1s.3-.2.4-.3.1-.1 0-.1c-.3 0-.6 0-.9 0-.1 0-.3 0-.4.1s-.2.2-.3.3-.2.1-.4.2c-.1 0-.2 0-.3.1-.1 0-.2 0-.2 0 0-.1 0-.1-.1-.2 0 0 0-.1-.2-.1-.4.2-.9.3-1.3.5-.1.1-.1.1-.1.1s0 .1.1.1c0 .1 0 .1-.3.3-.1 0-.1.1-.2.1-.1.1-.2.1-.2.1-.2 0-.3 0-.5 0-.1 0-.3 0-.4.1-.2.2-.4.4-.7.5-.1.1-.1.1.1.1h.3c.2 0 .4 0 .2.2v.1s-.1.1-.2.1c-.2.1-.4.2-.6.2-.1 0-.2.1-.3.2.1.2.1.3.2.5h.3c.1 0 .3-.1.4-.1.3-.1.5-.2.6-.1h.1c.1 0 0 0 0 .1-.2.1-.3.2-.4.4-.1.1-.1.1 0 .1h.9c.1 0 .2 0 .3-.1s.2-.2.3-.2c.1-.2.3-.3.6-.3h.1.2c0 .1.1.2.1.3 0 0 .1.1.2 0 .5-.3.9-.5 1.3-.6zm-2.5-.8c-.1-.3.4-.7 1.2-1 .7-.3 1.5-.3 1.6 0s-.4.7-1.2 1-1.5.3-1.6 0z"/><path fill="#14825d" d="m79.4 52.3-.1.4-.2.2-.1-.2z"/><path fill="#14825d" d="m78.4 51.1.1.2.3-.3z"/><path fill="#14825d" d="m84.9 49.1-.1-.3-.3.1-.1.1z"/><path fill="#310381" d="m43.9 55.3c0-.1 0-.1-.1-.1 0 0 0 0-.1 0h-.1s0-.2 0-.3 0-.1 0-.1c.1-.1.1-.2.1-.3s0-.2 0-.2c0-.2-.1-.3-.1-.5 0-.1-.1-.1-.1 0s-.1.1-.1.2c-.1.2-.1.3-.1.2 0 0 0-.1-.1-.1v-.1c0-.2 0-.3 0-.5 0-.1 0-.1 0-.2-.1 0-.2 0-.3 0v.2.3c0 .1 0 .3-.1.3 0 0 0 0-.1.1 0 0 0 0-.1 0 0-.1-.1-.2-.1-.3s0-.1-.1 0c-.1.2-.2.3-.2.5v.2c0 .1 0 .2.1.2v.3.2c0 .1 0 .1-.1.1h-.1s0 0-.1.1c0 .3 0 .6-.1.9 0 .1 0 .1.1.1h.1c.1 0 .1 0 .1.2v.1.2c0 .1-.1.2-.1.3v.2c0 .2.1.3.1.5 0 .1.1.1.1 0s.1-.1.1-.2c.1-.1.1-.2.2-.1v.1.4.2h.3s0-.1.1-.2c0-.1 0-.2 0-.3 0-.2 0-.3.1-.4 0 .1.1.2.1.3s.1.1.1 0c.1-.2.2-.3.2-.5 0-.1 0-.1 0-.2s0-.1-.1-.2c0-.1-.1-.2 0-.4 0 0 0 0 0-.1s0-.1.1-.1h.2s.1 0 .1-.1c.1-.4.1-.6.1-.9zm-1 1.2c-.2 0-.3-.4-.3-.9s.2-.9.4-.9.3.4.3.9c0 .6-.2.9-.4.9z"/><path fill="#310381" d="m43.7 53.6h.1l-.1.2v.1-.1z"/><path fill="#9673d0" d="m44.1 55.3c0-.1 0-.1-.1-.1 0 0 0 0-.1 0h-.1s0-.2 0-.3 0-.1 0-.1c.1-.1.1-.2.1-.3s0-.2 0-.2c0-.2-.1-.3-.1-.5 0-.1-.1-.1-.1 0s-.1.1-.1.2c-.1.2-.1.3-.1.2 0 0 0-.1-.1-.1v-.1c0-.2 0-.3 0-.5 0-.1 0-.1 0-.2-.1 0-.2 0-.3 0v.2.3c0 .1 0 .3-.1.3 0 0 0 0-.1.1 0 0 0 0-.1 0 0-.1-.1-.2-.1-.3s0-.1-.1 0c-.1.2-.2.3-.2.5v.2c0 .1 0 .2.1.2v.3.2c0 .1 0 .1-.1.1h-.1s0 0-.1.1c0 .3 0 .6-.1.9 0 .1 0 .1.1.1h.1c.1 0 .1 0 .1.2v.1.2c0 .1-.1.2-.1.3v.2c0 .2.1.3.1.5 0 .1.1.1.1 0s.1-.1.1-.2c.1-.1.1-.2.2-.1v.1.4.2h.3s0-.1.1-.2c0-.1 0-.2 0-.3 0-.2 0-.3.1-.4 0 .1.1.2.1.3s.1.1.1 0c.1-.2.2-.3.2-.5 0-.1 0-.1 0-.2s0-.1-.1-.2c0-.1-.1-.2 0-.4 0 0 0 0 0-.1s0-.1.1-.1h.2s.1 0 .1-.1c0-.3.1-.6.1-.9zm-1 1.2c-.2 0-.3-.4-.3-.9s.2-.9.4-.9.3.4.3.9c-.1.6-.3.9-.4.9z"/><path fill="#310381" d="m43.2 57.4.2.2.1.1h-.2z"/><path fill="#310381" d="m42.3 57.6.2.1-.1-.3z"/><path fill="#310381" d="m42.8 53.6-.2-.1v.3h.1z"/><path fill="#9e470b" d="m87.9 61.5c0 .9-.6 1.3-1.4.8s-1.4-1.6-1.4-2.5.6-1.3 1.4-.8 1.4 1.6 1.4 2.5z"/><path fill="#f89a5b" d="m87.7 61.7c0 .9-.6 1.3-1.4.8s-1.4-1.6-1.4-2.5.6-1.3 1.4-.8 1.4 1.6 1.4 2.5z"/><path fill="#db712a" d="m85.9 60.3v.3l-.4.3.4.3v.3l-.5-.5v-.2z"/><path fill="#db712a" d="m86.4 59.7h.1l-.4 2.4h-.1z"/><path fill="#db712a" d="m86.6 60.3.5.5v.2l-.5.5v-.3l.3-.3-.3-.3z"/><g style="opacity:.16;fill:none;stroke:#101111;stroke-width:.5;stroke-linecap:round;stroke-linejoin:round;stroke-miterlimit:10"><path d="m47.4 61.4-1.3-.8 1.7-1.1"/><path d="m51.4 61.4 1.4-.8-1.7-1.1"/><path d="m50.2 58.8-1.4 3.8"/></g><path fill="#58595b" d="m51.3 57.8 1.3.8-1.3.8v1.6l2.7-1.6v-1.6l-2.7-1.5z"/><path fill="#414042" d="m51.3 59.4v1.6l2.7-1.6v-1.6z"/><path fill="#58595b" d="m47.3 57.9-1.3.8 1.3.8v1.5l-2.7-1.6v-1.5l2.7-1.6z"/><path fill="#414042" d="m47.3 59.5v1.5l-2.7-1.5v-1.6z"/><path fill="#58595b" d="m48.7 61.5-1.1-.1v.6l1.1.1z"/><path fill="#1e1e1e" d="m49.6 55.8-2 5.6 1.1.1 2-5.6z"/><path fill="#414042" d="m48.7 62.1v-.6l2-5.6v.6z"/><path fill="#054677" d="m38.4 51.4h.4v.7h-.4zm0 2h.4v.7l-.2.6h-.2l.1-.6h-.2v-.7z"/><path fill="#329ded" d="m38.2 51.4h.4v.7h-.4zm0 2h.4v.7l-.2.6h-.2l.1-.6h-.2v-.7z"/><ellipse cx="36.7" cy="62.7" fill="#164782" rx="1.1" ry=".3"/><path fill="#ff746f" d="m35.8 58c0-.3.1-.6.2-.7.2-.1.4-.2.8-.2v.5c-.2 0-.3 0-.4.1s-.1.2-.1.4v1c0 .1 0 .2-.1.3s-.1.2-.2.2c.1 0 .2.1.2.2.1.1.1.2.1.3v1c0 .2 0 .3.1.4s.2.1.4.1v.5c-.4 0-.6-.1-.8-.2s-.2-.4-.2-.7v-.7c0-.3 0-.4 0-.5s-.1-.2-.3-.2v-.4c.2 0 .3-.1.3-.2s0-.2 0-.5z"/><path fill="#ff746f" d="m38.2 58.7v.5c0 .1.1.2.3.2v.4c-.2 0-.3.1-.3.2v.5.7c0 .3-.1.6-.2.7-.2.1-.4.2-.8.2v-.5c.2 0 .3 0 .4-.1s.1-.2.1-.4v-1c0-.1 0-.2.1-.3s.1-.2.2-.2c-.1 0-.2-.1-.2-.2-.1-.1-.1-.2-.1-.3v-1c0-.2 0-.3-.1-.4s-.2-.1-.4-.1v-.5c.4 0 .6.1.8.2s.2.4.2.7z"/><path fill="#fbb0a7" d="m35.5 58c0-.3.1-.6.2-.7.2-.1.4-.2.8-.2v.5c-.2 0-.3 0-.4.1-.1 0-.1.2-.1.3v1c0 .1 0 .2-.1.3s-.1.2-.2.2c.1 0 .2.1.2.2.1.2.1.3.1.5v1c0 .2 0 .3.1.4s.2.1.4.1v.5c-.4 0-.6-.1-.8-.2s-.2-.4-.2-.7v-.7c0-.3 0-.4 0-.5s-.1-.2-.3-.2v-.4c.2 0 .3-.1.3-.2s0-.2 0-.5z"/><path fill="#fbb0a7" d="m38 58.7v.5c0 .1.1.2.3.2v.4c-.2 0-.3.1-.3.2v.5.7c0 .3-.1.6-.2.7-.2.1-.4.2-.8.2v-.5c.2 0 .3 0 .4-.1s.1-.2.1-.4v-1c0-.1 0-.2.1-.3s.1-.2.2-.2c-.1 0-.2-.1-.2-.2-.1-.1-.1-.2-.1-.3v-1c0-.2 0-.3-.1-.4s-.2-.1-.4-.1v-.5c.4 0 .6.1.8.2s.2.4.2.7z"/><path fill="#f6a7aa" d="m61.3 65.3h.6v1.7h-.6z"/><path fill="#231b22" d="m61.3 66.9h.8l.6.3c.1.1.2.2.2.3h-1.6z"/><path fill="#231b22" d="m62.2 66.9-.2-.2s-.3-.1-.3.2z"/><path fill="#fd7341" d="m61.1 59.8.9-.5s.4.6.4 1.7-.4 5.3-.4 5.3h-.8z"/><path fill="#fd7341" d="m60.2 59.3h1.8v1h-1.8z"/><path fill="#f6a7aa" d="m60.3 65.3h.6v1.7h-.6z" transform="matrix(-1 0 0 -1 121.2767 132.2815)"/><path fill="#231b22" d="m60.9 66.9h-.8l-.6.3c-.1.1-.2.2-.2.3h1.6z"/><path fill="#231b22" d="m60.1 66.9.2-.2s.3-.1.3.2z"/><path fill="#eb5e32" d="m61.2 59.3c-.1-.2-.7-.1-.9 0 0 0-.3.6-.3 1.6s.3 5.4.3 5.4h.7c.1-3.1-.1-4.7.1-5.6.1-.7.1-1.2.1-1.4z"/><path fill="#231b22" d="m61.2 56.5s-.5 0-.8.4-.1 2.4-.1 2.4h1.7v-2.3c.1 0-.3-.5-.8-.5z"/><path fill="#191313" d="m61.6 57.7.3.5-.4-.1z"/><path fill="#191313" d="m62 59v.3l-1.4-.3.3-.5 1.1.3z"/><circle cx="59.6" cy="58.1" r="1.5" fill="url(#g)"/><circle cx="59.5" cy="58.2" r="1.5" fill="#f9c32e"/><path fill="#f9fbfc" d="m59.3 57.9-.6.2.6.2v.2l-.9-.3v-.2l.9-.3z"/><path fill="#f9fbfc" d="m59.7 57.7.9.3v.2l-.9.3v-.2l.6-.2-.6-.2z"/><path fill="#f6a7aa" d="m58.2 57.2h-.1c-.1 0-.1.1-.1.2 0 .2 0 .3.2.3z"/><path fill="#f6a7aa" d="m58.3 57.2h.3s.1 0 .1.1v.1l-.4.1z"/><path fill="#f6a7aa" d="m58.2 57.4.3.1v.1s0 0-.1 0l-.3-.1z"/><path fill="#f6a7aa" d="m58.2 57.5.2.1v.1s0 0-.1 0l-.3-.1z"/><path fill="#f6a7aa" d="m58.2 57.8h.1.1v-.1l-.2-.1z"/><path fill="#231b22" d="m62.1 57s.3.3.9 1.5c.1.1.1.2 0 .4-.1.3-.5.3-.6 0-.2-.3-.7-1.2-.7-1.2-.1 0 .4-.7.4-.7z"/><path fill="#f6a7aa" d="m61 58.3-.1.4-.6-.1s.2-.6.2-.6c0 .1.5.3.5.3z"/><path fill="#f6a7aa" d="m61 58.3s-.2-.2-.3-.3h-.1v.1l.1.3z"/><path fill="#f6a7aa" d="m60.5 58.1-.2-.1h-.1v.1l.3.1z"/><path fill="#f6a7aa" d="m60.5 58.2-.3-.1h-.1v.1l.4.1z"/><path fill="#f6a7aa" d="m60.4 58.4h-.3s-.1 0-.1.1v.1l.3.1z"/><path fill="#f6a7aa" d="m60.3 58.7h-.2.3z"/><path fill="#f6a7aa" d="m61 58.3h.4l-.1.4h-.4z"/><path fill="#231b22" d="m62.7 58.3-1.5-.3-.2.9 1.6.3c.3 0 .5-.2.5-.4-.1-.3-.2-.5-.4-.5z"/><path fill="#191313" d="m62.2 54.9c-.1.3-.4.4-.7.3s-.4-.4-.3-.7.4-.4.7-.3.4.4.3.7z"/><path fill="#231b22" d="m60.2 55.4c.1.4.4.8.8.8.3 0 .9-.3.9-.8 0-.4-.3-.9-.9-.9-.4.1-.9.4-.8.9z"/><path fill="#f6a7aa" d="m60.7 56 .1.6c0 .2.2.3.3.3.2 0 .3-.2.3-.3v-.6c0-.2-.2-.1-.3-.1-.2 0-.4 0-.4.1z"/><path fill="#000e2b" d="m61.4 55.8s0 .7-.5.8l-.1-.4z"/><path fill="#f6a7aa" d="m60.9 56.4c-.3 0-.6-.2-.6-.5v-.5c0-.2.3-.5.4-.5l.5.2c.1 0 .3.1.3.3v.5c0 .2-.4.5-.6.5z"/><path fill="#231b22" d="m60.4 55.6c0 .1 0 .1 0 0 .1.1.1 0 .1 0s0-.1-.1 0z"/><path fill="#231b22" d="m60.8 55.6c0 .1 0 .1 0 0 .1.1.1 0 .1 0s0-.1-.1 0z"/><path fill="#231b22" d="m61.3 55s-.2.6.1.7l.4-.5z"/><path fill="#f6a7aa" d="m61.7 55.7c0 .1-.1.2-.2.2s-.2-.1-.2-.2.1-.2.2-.2.2.1.2.2z"/><path fill="#231b22" d="m61.5 54.9s-.3.3-.6.3c-.3.1-.8 0-.8 0s.3-.6.8-.5c.4.1.6.2.6.2z"/><ellipse cx="66.1" cy="45.1" fill="none" stroke="#ffca9b" stroke-miterlimit="10" stroke-width=".15" rx="1.1" ry="2.2" transform="matrix(.9305 -.3663 .3663 .9305 -11.9358 27.3566)"/><ellipse cx="86.3" cy="81" fill="none" stroke="#ffca9b" stroke-miterlimit="10" stroke-width=".15" rx="1.1" ry="2.2" transform="matrix(.9305 -.3663 .3663 .9305 -23.6703 37.2312)"/><ellipse cx="35.2" cy="51.9" fill="none" stroke="#ffca9b" stroke-miterlimit="10" stroke-width=".15" rx="1.1" ry="2.2" transform="matrix(.9305 -.3663 .3663 .9305 -16.5467 16.4971)"/><path fill="#164782" d="m68.8 91.4 1.8-1 1.8 1-1.8 1.1z"/><path fill="#164782" d="m72.6 89.2 1.8-1.1 1.8 1.1-1.8 1z"/><path fill="#164782" d="m76.5 87 1.8-1.1 1.8 1.1-1.8 1z"/><path fill="#c13d1a" d="m74.4 89.2v-5.6l-1.8-1.1v5.6z"/><path fill="#454195" d="m74.4 83.6 1.8-1.1v5.6l-1.8 1.1z"/><path fill="#9673d0" d="m74.4 89.2v-5.6l-1.8-1.1v5.6z"/><path fill="#9673d0" d="m70.6 91.4v-3.1l-1.8-1.1v3.2z"/><path fill="#454195" d="m70.6 88.3 1.8-1.1v3.2l-1.8 1z"/><path fill="#34227a" d="m68.8 87.2 1.8-1 1.8 1-1.8 1.1z"/><path fill="#9673d0" d="m78.3 87v-7.7l-1.8-1v7.6z"/><path fill="#454195" d="m78.3 79.3 1.8-1v7.6l-1.8 1.1z"/><path fill="#34227a" d="m76.5 78.3 1.8-1.1 1.8 1.1-1.8 1z"/><path fill="#34227a" d="m72.6 82.5 1.8-1 1.8 1-1.8 1.1z"/><path fill="#fbb040" d="m38.8 46.2c0-.6-.4-1.3-.9-1.6-.3-.1-.5-.2-.7-.1l-.2.1h.1c-.1.1-.1.3-.1.5 0 .6.4 1.3.9 1.6.2.1.3.1.5.1l.2-.1c.1-.1.2-.3.2-.5z"/><ellipse cx="37.7" cy="45.7" fill="#f7941d" rx=".8" ry="1.3" transform="matrix(.866 -.5 .5 .866 -17.8096 24.9817)"/><path fill="#f7941d" d="m49.2 52.6c.3-.5.4-1.3.2-1.8-.1-.3-.3-.4-.5-.4h-.2c-.1 0-.3.1-.4.3-.3.5-.4 1.3-.2 1.8.1.2.2.3.3.4h.2c.2 0 .4-.1.6-.3z"/><ellipse cx="48.5" cy="51.6" fill="#fbb040" rx="1.3" ry=".8" transform="matrix(.09562738 -.9954 .9954 .09562738 -7.4741 94.9468)"/><path fill="#19ff00" d="m55.5 62.7c-.1 0-.1 0-.2 0l-1-.6s-.1-.1-.1-.1 0-.1.1-.1l1-.6c.1-.1.3-.1.4 0l1 .6s.1.1.1.1 0 .1-.1.1l-1 .6s-.1 0-.2 0zm0-1.4c-.1 0-.1 0-.2 0l-1 .6s-.1.1-.1.1 0 .1.1.1l1 .6c.1.1.2.1.3 0l1-.6s.1-.1.1-.1 0-.1-.1-.1l-1-.6c.1 0 0 0-.1 0z"/><path fill="#236ab7" d="m56.8 61.8v-.3h-.1c0 .1-.1.2-.2.2l-.7.3-.3.1-1-.5c-.1 0-.1-.1-.2-.2h-.1v.3s0 .1.1.1l1 .6c.1.1.3.1.4 0l1-.6c.1.1.1.1.1 0z" opacity=".4"/><path fill="url(#h)" d="m56.8 61.5v-.2h-.1c0 .1-.1.2-.2.2l-.7.4-.3.1-1-.5c-.1 0-.1-.1-.2-.2h-.1v.2s0 .1.1.1l1 .6c.1.1.3.1.4 0l1-.6c.1 0 .1 0 .1-.1z"/><path fill="#0f054c" d="m56.5 61.4-.7.4-.3.1v.3h.2l1-.6c.1 0 .1-.1.1-.1v-.2h-.1c0 .1-.1.1-.2.1z" opacity=".3"/><path fill="url(#i)" d="m54.6 61.5.9-.5h.1l.9.5c.1 0 .2-.1.2-.2l-1-.6-.3-.1-.2.1-.8.5c0 .1.1.2.2.3z"/><path fill="#0f054c" d="m55.5 60.7h-.1l-.2.1-.8.5c0 .1.1.2.2.2l.9-.5h.1v-.3z" opacity=".3"/><path fill="url(#k)" d="m55.3 62-1-.6c-.1-.1-.1-.2 0-.2l1-.6c.1-.1.3-.1.4 0l1 .6c.1.1.1.2 0 .2l-1 .6c-.1 0-.3 0-.4 0zm.3-1.3h-.1l-1 .6v.1l1 .6h.1l1-.6v-.1z"/><path fill="#fff" d="m56.6 61.3-1-.6h-.1l-1 .6v.1l1-.6h.1z"/><path fill="#fff" d="m56.7 61.4-1 .6c-.1.1-.3.1-.4 0l-1-.6c-.1 0-.1-.1-.1-.1s0 .1.1.1l1 .6c.1.1.3.1.4 0l1-.6c.1 0 .1-.1.1-.1s0 .1-.1.1z"/><path fill="url(#l)" d="m55.4 62-1-.6c-.1-.1-.1-.1 0-.2l1-.6c.1-.1.3-.1.4 0l1 .6c.1.1.1.1 0 .2l-1 .6c-.2 0-.3 0-.4 0zm.2-1.3c-.1 0-.1 0-.2 0l-1 .6c-.1 0-.1.1 0 .1l1 .6h.2l1-.6c.1 0 .1-.1 0-.1z"/><path fill="#7fe542" d="m55.6 60.7h-.1l-1 .6v.1l1 .6h.1l1-.6v-.1z" opacity=".4"/><path fill="#39b54a" d="m54.5 59.3 1.1.6 1.1-.6-1.1-.7z"/><path fill="#006838" d="m54.4 60.5 1.2.7v-1.3l-1.1-.6z"/><path fill="#8dc63f" d="m56.7 59.3v1.3l-1.1.6v-1.3z"/><path fill="#006ec5" d="m40.7 43.8c.1.1.2.1.3.2 0 .7.1 1.1.1 1.8 0 .4 0 .8.1 1.2 0-.4.1-.8.1-1.1.1-.7.1-1 .2-1.7.1.1.2.1.3.2.1.7.1 1.1.2 1.8 0 .4.1.8.1 1.2 0-.4 0-.8.1-1.1 0-.7.1-1 .1-1.7.1.1.2.1.3.2-.1 1.4-.2 2.1-.3 3.6-.2-.1-.3-.1-.4-.2-.1-.7-.1-1.1-.1-1.8 0-.3 0-.6-.1-.9 0 .3 0 .6-.1.8-.1.6-.1 1-.1 1.6-.2-.1-.2-.1-.4-.2-.2-1.6-.3-2.4-.4-3.9z"/><path fill="#006ec5" d="m42.6 47.2c0-.9.3-1.3.5-1.2.3.2.5.9.5 1.6v.4c-.3-.2-.4-.2-.7-.4 0 .4.1.7.3.8h.2c0 .2.1.3.1.6-.1.1-.3.2-.4.1-.3-.3-.5-1-.5-1.9zm.7.1c0-.3-.1-.6-.2-.6-.1-.1-.2.1-.2.4.2 0 .2.1.4.2z"/><path fill="#006ec5" d="m44.1 49.2v.3c-.1-.1-.2-.1-.3-.1 0-1.6 0-2.4 0-4 .1.1.2.1.3.2v1 .4c.1-.1.2-.2.3-.1.3.2.4.8.4 1.7 0 1-.2 1.4-.5 1.3 0-.3-.1-.4-.2-.7zm.4-.9c0-.5-.1-.8-.2-.9-.1 0-.1 0-.2.1v1.2c.1.2.1.2.2.3.1 0 .2-.2.2-.7z"/><path fill="#006ec5" d="m45 49.5c.1-.2.1-.3.2-.4.1.3.2.5.3.5.1.1.2 0 .2-.3s-.1-.6-.4-.7c0-.2 0-.4 0-.6.3.1.3 0 .3-.3s-.1-.4-.2-.5-.2 0-.3.2c-.1-.2-.1-.4-.2-.6.1-.2.3-.3.5-.2.3.2.5.6.5 1.3 0 .4-.1.6-.2.7.2.2.3.6.3 1 0 .7-.2.9-.5.7-.3-.1-.4-.4-.5-.8z"/><path fill="#a7bfeb" d="m40.5 43.8c.1.1.2.1.3.2 0 .7.1 1.1.1 1.8 0 .4 0 .8.1 1.2 0-.4.1-.8.1-1.1.1-.7.1-1 .2-1.7.1.1.2.1.3.2.1.7.1 1.1.2 1.8 0 .4.1.8.1 1.2 0-.4 0-.8.1-1.1 0-.7.1-1 .1-1.7.1.1.2.1.3.2-.1 1.4-.2 2.1-.3 3.6-.2-.1-.3-.1-.4-.2-.1-.7-.1-1.1-.1-1.8 0-.3 0-.6-.1-.9 0 .3 0 .6-.1.8-.1.6-.1 1-.1 1.6-.2-.1-.2-.1-.4-.2-.3-1.6-.3-2.3-.4-3.9z"/><path fill="#a7bfeb" d="m42.4 47.2c0-.9.3-1.3.5-1.2.3.2.5.9.5 1.6v.4c-.3-.2-.4-.2-.7-.4 0 .4.1.7.3.8h.2c0 .2.1.3.1.6-.1.1-.3.2-.4.1-.3-.3-.5-1-.5-1.9zm.7.1c0-.3-.1-.6-.2-.6-.1-.1-.2.1-.2.4.1.1.2.1.4.2z"/><path fill="#a7bfeb" d="m43.9 49.2v.3c-.1-.1-.2-.1-.3-.1 0-1.6 0-2.4 0-4 .1.1.2.1.3.2v1 .4c.1-.1.2-.2.3-.1.3.2.4.8.4 1.7 0 1-.2 1.4-.5 1.3 0-.2-.1-.4-.2-.7zm.4-.9c0-.5-.1-.8-.2-.9-.1 0-.1 0-.2.1v1.2c.1.2.1.3.2.3.1.1.2-.1.2-.7z"/><path fill="#a7bfeb" d="m44.7 49.5c.1-.2.1-.3.2-.4.1.3.2.5.3.5.1.1.2 0 .2-.3s-.1-.6-.4-.7c0-.2 0-.4 0-.6.3.1.3 0 .3-.3s-.1-.4-.2-.5-.2 0-.3.2c-.1-.2-.1-.4-.2-.6.1-.2.3-.3.5-.2.3.2.5.6.5 1.3 0 .4-.1.6-.2.7.2.2.3.6.3 1 0 .7-.2.9-.5.7-.2-.1-.4-.4-.5-.8z"/><path fill="#065a89" d="m40.5 43.8h.2l.3.2h-.2z"/><path fill="#065a89" d="m41.2 44.2h.3l.2.2h-.2z"/><path fill="#006ec5" d="m41.2 47.9h.2v-.3h-.2z"/><path fill="#006ec5" d="m42 48.4h.2v-.3l-.2.1z"/><path fill="#006ec5" d="m43.4 47.5-.1.5h.3l-.1-.4z"/><path fill="#065a89" d="m42.9 47-.2.1.4.2v-.2z"/><path fill="#065a89" d="m43.1 49h.2s.1 0 .2-.1l-.1-.6h-.2l.1.6s-.1.1-.2.1z"/><path fill="#065a89" d="m41.9 44.6h.3l.3.2h-.2z"/><path fill="#065a89" d="m43.6 45.3h.2l.3.2h-.2z"/><path fill="#006ec5" d="m43.9 49.3v.2h.1c0-.1-.1-.2-.1-.2z"/><path fill="#006ec5" d="m45 47.4h.2v-.2s-.1 0-.2.2z"/><path fill="#006ec5" d="m44.9 49.1h.2l.1.4-.1.1c0-.1-.1-.2-.2-.5z"/><path fill="#006ec5" d="m45.1 48h.2s0 .2-.2 0z"/><path fill="#006ec5" d="m42.7 46s.1-.1.4-.1c.1 0 .1.1.1.1h-.1c-.2.1-.3-.1-.4 0z"/><path fill="#006ec5" d="m43.9 47.5h.2v1.2h-.2z"/><path fill="#065a89" d="m43.9 47.5s.1-.3.3-.1v.1z"/><path fill="#006ec5" d="m44.1 46.8h.2l.1.1h-.2c.1-.1 0-.1-.1-.1z"/><path fill="#006ec5" d="m45.1 46.5h.2s.1 0 .2.1-.2.1-.2.1-.1-.2-.2-.2z"/><path fill="#006ec5" d="m45.4 50.4h.3l.1-.1h-.2s0 .1-.2.1z"/><path fill="#096d17" d="m21.3 48.4v1.5l-2.7 1.6v-9.7l2.7-1.6v1.5l-1.8 1v2.7l1.3-.8v1.4l-1.3.8v2.7zm3.6-8.9v8.3l-1 .6v-8.4l-1 .6v-1.5l3-1.8v1.5zm4.8 5.5v-4.1l-1.2.7v4.1l-1 .6v-9.7l1-.6v4l1.2-.7v-4.1l1-.6v9.7zm5.4-4.7v1.5l-2.7 1.6v-9.7l2.7-1.6v1.5l-1.8 1v2.7l1.3-.8v1.5l-1.3.8v2.7zm4.8-1.4-1 .6-.6-3.3s-.1 0-.1.1l-.6.3v3.7l-1 .6v-9.7l1.5-.9c.5-.3.9-.3 1.2 0 .2.3.3.7.3 1.4v1.4c0 .7-.2 1.4-.5 2zm-1.1-6.7c0-.6-.2-.7-.5-.5l-.6.3v3.1l.6-.3c.2-.1.3-.2.4-.5.1-.2.2-.5.2-.7v-1.4zm5.6 2.7v1.5l-2.7 1.6v-9.7l2.7-1.6v1.5l-1.8 1v2.7l1.3-.8v1.5l-1.3.8v2.7zm4-.9-.2-2.1-1 .6-.2 2.3-1 .6 1-10.4 1.3-.8 1.1 9.1zm-.7-7.1-.4 4 .7-.4zm3.4 5.5v-9.7l1-.6v8.3l1.7-1v1.5zm-30 16v1.5l-2.7 1.6v-9.7l2.7-1.6v1.5l-1.8 1v2.7l1.3-.8v1.4l-1.3.8v2.7zm3.5-8.9v8.3l-1 .6v-8.4l-1 .6v-1.5l3-1.8v1.5zm4.8 5.5v-4.1l-1.2.7v4.1l-1 .6v-9.7l1-.6v4l1.2-.7v-4.1l1-.6v9.7zm5.5-4.7v1.5l-2.7 1.6v-9.7l2.7-1.6v1.5l-1.8 1v2.7l1.3-.8v1.5l-1.3.8v2.7zm4.8-1.4-1 .6-.6-3.3s-.1 0-.1.1l-.6.3v3.7l-1 .6v-9.7l1.5-.9c.5-.3.9-.3 1.2 0 .2.3.3.7.3 1.4v1.4c0 .7-.2 1.4-.5 2zm-1.2-6.7c0-.6-.2-.7-.5-.5l-.6.3v3.1l.6-.3c.2-.1.3-.2.4-.5.1-.2.2-.5.2-.7v-1.4zm5.6 2.7v1.5l-2.7 1.6v-9.7l2.7-1.6v1.5l-1.8 1v2.7l1.3-.8v1.5l-1.3.8v2.7zm4.1-.9-.2-2.1-1 .6-.2 2.4-1 .6 1-10.5 1.3-.8 1.1 9.1zm-.7-7.1-.4 4 .7-.4zm3.4 5.5v-9.7l1-.6v8.3l1.7-1v1.5zm-30 16v1.5l-2.7 1.6v-9.7l2.7-1.6v1.5l-1.8 1v2.7l1.3-.8v1.4l-1.3.8v2.7zm3.5-8.9v8.3l-1 .6v-8.4l-1 .6v-1.5l3-1.8v1.5zm4.8 5.5v-4.1l-1.2.6v4.1l-1 .6v-9.7l1-.6v4.1l1.2-.7v-4.1l1-.6v9.7zm5.4-4.7v1.5l-2.7 1.6v-9.7l2.7-1.6v1.5l-1.8 1v2.7l1.3-.8v1.5l-1.3.8v2.7zm4.8-1.4-1 .6-.6-3.3s-.1 0-.1.1l-.6.3v3.7l-1 .6v-9.7l1.5-.9c.5-.3.9-.3 1.2 0 .2.3.3.7.3 1.4v1.4c0 .7-.2 1.4-.5 2zm-1.1-6.7c0-.6-.2-.7-.5-.5l-.6.3v3.1l.6-.3c.2-.1.3-.2.4-.5.1-.2.2-.5.2-.7v-1.4zm5.6 2.7v1.5l-2.7 1.6v-9.7l2.7-1.6v1.5l-1.8 1v2.7l1.3-.8v1.5l-1.3.8v2.7zm4-.9-.2-2.1-1 .6-.2 2.4-1 .6 1.1-10.5 1.3-.8 1.1 9.1zm-.7-7.1-.4 4 .7-.4zm3.4 5.5v-9.7l1-.6v8.3l1.7-1v1.5z"/><path fill="#39b54a" d="m21.6 48.4v1.5l-2.7 1.6v-9.7l2.7-1.6v1.5l-1.8 1v2.7l1.3-.8v1.4l-1.3.8v2.7zm3.5-8.9v8.3l-1 .6v-8.4l-1 .6v-1.5l3-1.8v1.5zm4.8 5.5v-4.1l-1.2.7v4.1l-1 .6v-9.7l1-.6v4l1.2-.7v-4.1l1-.6v9.7zm5.5-4.7v1.5l-2.7 1.6v-9.7l2.7-1.6v1.5l-1.8 1v2.7l1.3-.8v1.5l-1.3.8v2.7zm4.8-1.4-1 .6-.6-3.3s-.1 0-.1.1l-.6.3v3.7l-1 .6v-9.7l1.5-.9c.5-.3.9-.3 1.2 0 .2.3.3.7.3 1.4v1.4c0 .7-.2 1.4-.5 2zm-1.2-6.7c0-.6-.2-.7-.5-.5l-.6.3v3.1l.6-.3c.2-.1.3-.2.4-.5.1-.2.2-.5.2-.7v-1.4zm5.6 2.7v1.5l-2.7 1.6v-9.7l2.7-1.6v1.5l-1.8 1v2.7l1.3-.8v1.5l-1.3.8v2.7zm4.1-.9-.2-2.1-1 .6-.2 2.4-1 .6 1-10.5 1.3-.8 1.1 9.1zm-.8-7.1-.4 4 .7-.4zm3.5 5.5v-9.7l1-.6v8.3l1.7-1v1.5z"/><g fill="#096d17"><path d="m21.6 40.1h-.7l-2.8 1.6h.7z"/><path d="m20.4 44.5h.7l-.9.5-.2-.2z"/><path d="m20.9 48.4h.7l-.6.3h-.7z"/><path d="m23.4 47.6h.7v.7h-.7z"/><path d="m22.4 39.2h.7v1.5h-.7z"/><path d="m26.1 37.4h-.7l-3 1.8h.7z"/><path d="m27.1 45h.7v1.2h-.7z"/><path d="m29.2 43.9h.7v1.1h-.7z"/><path d="m27.1 36.5h.7l.9-.6h-.7z"/><path d="m29.2 35.2h.7l1-.5h-.8z"/><path d="m34.6 40.3h.8l-.5.3-.6-.1z"/><path d="m34.9 36.4h-.7l-.4.2.4.2z"/><path d="m35.4 32-.8.5-.5-.2.5-.3z"/><path d="m36.2 40h.7v.8h-.7z"/><path d="m38.4 39.6h.7l-.1-.8h-.7z"/><path d="m41.2 37.9h.7v-.7l-.7-.1z"/><path d="m44.6 34.9h-.7l-.5.3.5.1z"/><path d="m44.1 31h-.7l-.4.3.5.1z"/><path d="m44.6 26.6h-.7l-.5.3.5.1z"/><path d="m46.6 25h.6l1.4-.7h-.7z"/><path d="m46.2 35.4h-.7l.1-.9h.7z"/><path d="m47.9 34h.8l-.1-.7h-.7z"/><path d="m50.6 31.6h.7v.8h-.7z"/><path d="m54 29.4h-.7l-.5.2.7.1z"/><path d="m50.6 22.6h.8l.9-.5h-.7z"/><path d="m31.9 42.9h.7v.4h-.7z"/><path d="m18.1 51h.7v.5h-.7z"/><path d="m59.2 31v-3.9l-1.1-.6v3.9l-.9-.5v-9.3l.9.5v3.9l1.1.6v-3.9l.9.5v9.3zm4.9 2.8-.2-2.3-1-.6-.2 2-1-.6 1.1-8.7 1.3.7 1 9.8zm-.7-7.5-.3 3.4.7.4zm6.2 7.3v1.3c0 .6-.1 1.1-.4 1.3-.3.3-.6.3-1 0-.4-.2-.8-.7-1.1-1.2-.3-.6-.4-1.2-.4-1.8v-5.1c0-.6.1-1.1.4-1.3.3-.3.6-.3 1 0 .4.2.8.7 1 1.2.3.6.4 1.2.4 1.8v1.1l-1-.6v-1.1c0-.2-.1-.4-.2-.7-.1-.2-.2-.4-.4-.5-.1-.1-.3-.1-.4 0s-.2.3-.2.5v5.1c0 .2.1.4.2.7.1.2.2.4.4.4.1.1.3.1.4 0s.2-.3.2-.5v-1.2zm4.9 6.1-1.1-.6-1-4.3-.3.7v2.9l-.9-.5v-9.3l.9.5v3.3l1.1-2.6 1 .6-1.2 3zm4 2.3-.2-2.3-1-.6-.2 2-1-.6 1.1-8.7 1.3.7 1 9.8zm-.8-7.6-.3 3.4.7.4zm4.5 1.8v7.9l-.9-.5v-7.9l-1-.6v-1.4l2.9 1.7v1.4zm4.6 10.5v-3.9l-1.1-.6v3.9l-.9-.5v-9.3l.9.5v3.9l1.1.6v-3.9l.9.5v9.3zm5.2 2.5c-.3.3-.6.3-1.1 0-.4-.2-.8-.6-1-1.2-.3-.6-.4-1.2-.4-1.8v-5c0-.6.1-1.1.4-1.3.3-.3.6-.3 1-.1s.8.7 1.1 1.3.4 1.2.4 1.8v5c0 .5-.2 1-.4 1.3zm-.6-7c0-.2-.1-.4-.2-.7-.1-.2-.2-.4-.4-.4-.1-.1-.3-.1-.4 0s-.2.3-.2.5v5.1c0 .2.1.4.2.7.1.2.2.4.4.4.1.1.3.1.4 0s.2-.3.2-.5zm4.9 9.9-1.3-6.6v5.9l-1-.5v-9.3l1.1.6 1.2 6.9v-6.2l.9.5v9.3zm-36.9-21.1v-3.9l-1.1-.6v3.9l-.9-.5v-9.3l.9.5v3.9l1.1.6v-3.9l.9.5v9.3zm5 2.8-.2-2.3-1-.6-.2 2-1-.6 1.1-8.7 1.3.7 1 9.8zm-.7-7.5-.3 3.4.7.4zm6.1 7.3v1.3c0 .6-.1 1.1-.4 1.3-.3.3-.6.3-1 0-.4-.2-.8-.6-1.1-1.2s-.4-1.2-.4-1.8v-5.1c0-.6.1-1.1.4-1.3.3-.3.6-.3 1 0 .4.2.8.7 1 1.2.3.6.4 1.2.4 1.8v1.1l-1-.6v-1.1c0-.2-.1-.4-.2-.7-.1-.2-.2-.4-.4-.5-.1-.1-.3-.1-.4 0s-.2.3-.2.5v5.1c0 .2.1.4.2.7.1.2.2.4.4.4.1.1.3.1.4 0s.2-.3.2-.5v-1.2zm5 6.1-1.1-.6-1-4.3-.3.7v2.9l-.9-.5v-9.3l.9.5v3.3l1.1-2.6 1 .6-1.3 3.1zm3.9 2.3-.2-2.3-1-.6-.2 2-1-.6 1.1-8.7 1.3.7 1 9.8zm-.7-7.6-.3 3.4.7.4zm4.4 1.8v7.9l-.9-.5v-7.9l-1-.6v-1.4l2.9 1.7v1.4zm4.6 10.5v-3.9l-1.1-.6v3.9l-.9-.5v-9.3l.9.5v3.9l1.1.6v-3.9l1 .6v9.3zm5.2 2.5c-.3.3-.6.3-1.1 0-.4-.2-.8-.6-1-1.2-.3-.6-.4-1.2-.4-1.8v-5c0-.6.1-1.1.4-1.3.3-.3.6-.3 1-.1s.8.7 1.1 1.3.4 1.2.4 1.8v5c0 .5-.1 1-.4 1.3zm-.6-7c0-.2-.1-.4-.2-.7-.1-.2-.2-.4-.4-.4-.1-.1-.3-.1-.4 0s-.2.3-.2.5v5.1c0 .2.1.4.2.7.1.2.2.4.4.4.1.1.3.1.4 0s.2-.3.2-.5zm4.9 9.9-1.3-6.7v5.9l-.9-.5v-9.3l1.1.6 1.2 6.9v-6.2l.9.5v9.3zm-36.8-21.1v-3.9l-1.1-.6v3.9l-.9-.5v-9.3l.9.5v3.9l1.1.6v-3.9l.9.5v9.3zm4.9 2.8-.2-2.3-1-.6-.2 2-1-.6 1.1-8.7 1.3.7 1 9.8zm-.7-7.5-.3 3.4.7.4zm6.2 7.3v1.3c0 .6-.1 1.1-.4 1.3-.3.3-.6.3-1 0-.4-.2-.8-.7-1.1-1.2-.3-.6-.4-1.2-.4-1.8v-5.1c0-.6.1-1.1.4-1.3.3-.3.6-.3 1 0 .4.2.8.7 1 1.2.3.6.4 1.2.4 1.8v1.1l-1-.6v-1.1c0-.2-.1-.4-.2-.7-.1-.2-.2-.4-.4-.5-.1-.1-.3-.1-.4 0s0 .4 0 .6v5.1c0 .2.1.4.2.7.1.2.2.4.4.4.1.1.3.1.4 0s.2-.3.2-.5v-1.3zm4.9 6.1-1.1-.6-1-4.3-.3.7v2.9l-.9-.5v-9.3l.9.5v3.3l1.1-2.6 1 .6-1.3 3.1zm3.9 2.3-.2-2.3-1-.6-.2 2-1-.6 1.1-8.7 1.3.7 1 9.8zm-.7-7.6-.3 3.4.7.4zm4.4 1.8v7.9l-.9-.5v-7.9l-1-.6v-1.4l2.9 1.7v1.4zm4.6 10.5v-3.9l-1.1-.6v3.9l-.9-.5v-9.3l.9.5v3.9l1.1.6v-3.9l.9.5v9.3zm5.2 2.5c-.3.3-.6.3-1.1 0-.4-.2-.8-.6-1-1.2-.3-.6-.4-1.2-.4-1.8v-5c0-.6.1-1.1.4-1.3.3-.3.6-.3 1-.1s.8.7 1.1 1.3.4 1.2.4 1.8v5c0 .5-.1 1-.4 1.3zm-.5-7c0-.2-.1-.4-.2-.7-.1-.2-.2-.4-.4-.4-.1-.1-.3-.1-.4 0s-.2.3-.2.5v5.1c0 .2.1.4.2.7.1.2.2.4.4.4.1.1.3.1.4 0s.2-.3.2-.5zm4.8 9.9-1.3-6.7v5.9l-.9-.5v-9.3l1.1.6 1.2 6.9v-6.2l.9.5v9.3z"/></g><path fill="#39b54a" d="m59 31v-3.9l-1.1-.6v3.9l-.9-.5v-9.3l.9.5v3.9l1.1.6v-3.9l.9.5v9.3zm4.9 2.8-.2-2.3-1-.6-.2 2-1-.6 1.1-8.7 1.3.7 1 9.8zm-.7-7.5-.3 3.4.7.4zm6.2 7.3v1.3c0 .6-.1 1.1-.4 1.3-.3.3-.6.3-1 0-.4-.2-.8-.7-1.1-1.2-.3-.6-.4-1.2-.4-1.8v-5.1c0-.6.1-1.1.4-1.3.3-.3.6-.3 1 0 .4.2.8.7 1 1.2.3.6.4 1.2.4 1.8v1.1l-1-.6v-1.1c0-.2-.1-.4-.2-.7-.1-.2-.2-.4-.4-.5-.1-.1-.3-.1-.4 0s-.2.3-.2.5v5.1c0 .2.1.4.2.7.1.2.2.4.4.4.1.1.3.1.4 0s.2-.3.2-.5v-1.2zm4.9 6.1-1.1-.6-1-4.3-.2.7v2.9l-1-.5v-9.3l.9.5v3.3l1.1-2.6 1 .6-1.3 3.1zm3.9 2.3-.2-2.3-1-.6-.2 2-1-.6 1.1-8.7 1.3.7 1 9.8zm-.7-7.6-.3 3.4.7.4zm4.4 1.8v7.9l-.9-.5v-7.9l-1-.6v-1.4l2.9 1.7v1.4zm4.7 10.5v-3.9l-1.1-.6v3.9l-.9-.5v-9.3l.9.5v3.9l1.1.6v-3.9l.9.5v9.3zm5.1 2.5c-.3.3-.6.3-1.1 0-.4-.2-.8-.6-1-1.2-.3-.6-.4-1.2-.4-1.8v-5c0-.6.1-1.1.4-1.3.3-.3.6-.3 1-.1s.8.7 1.1 1.3.4 1.2.4 1.8v5c.1.5-.1 1-.4 1.3zm-.5-7c0-.2-.1-.4-.2-.7-.1-.2-.2-.4-.4-.4-.1-.1-.3-.1-.4 0s-.2.3-.2.5v5.1c0 .2.1.4.2.7.1.2.2.4.4.4.1.1.3.1.4 0s.2-.3.2-.5zm4.8 9.9-1.3-6.7v5.9l-.9-.5v-9.3l1.1.6 1.2 6.9v-6.2l.9.5v9.3z"/><path fill="#096d17" d="m56.9 20.6h.7l.9.5h-.6z"/><path fill="#096d17" d="m59 21.7h.7l.9.6h-.7z"/><path fill="#096d17" d="m57.9 30.4h.6v-.6l-.6-.1z"/><path fill="#096d17" d="m59.9 31.5h.7v-.7h-.7z"/><path fill="#096d17" d="m62.5 33h.7v-.4l-.7-.1z"/><path fill="#096d17" d="m64.9 34.4h.7l-.1-.8h-.7z"/><path fill="#096d17" d="m68.4 33h.7l1 .6h-.7z"/><path fill="#096d17" d="m69.4 30.8h.7v-.5l-.7-.1z"/><path fill="#096d17" d="m71 28.6h.7l.9.5h-.6z"/><path fill="#096d17" d="m73.1 29.8h.7l1 .6h-.7z"/><path fill="#096d17" d="m62.6 23.8h.7l1.2.7h-.6z"/><path fill="#096d17" d="m72 37.9h.7v.5h-.7z"/><path fill="#096d17" d="m74.3 39.7h.7l-.2-.6-.6.1z"/><path fill="#096d17" d="m76.8 41.2h.7v-.6h-.6z"/><path fill="#096d17" d="m76.9 32h.7l1.3.7h-.7z"/><path fill="#096d17" d="m80 33.7h.7l2.9 1.7h-.7z"/><path fill="#096d17" d="m82.9 35.4h.7v1.4h-.7z"/><path fill="#096d17" d="m79.2 42.5h.7l-.1-.7h-.7z"/><path fill="#096d17" d="m81.9 43.4h.7v.7h-.7z"/><path fill="#096d17" d="m85.4 45.5h.7v.6h-.7z"/><path fill="#096d17" d="m87.5 47.3h.7v-.8h-.7z"/><path fill="#096d17" d="m84.5 36.3h.7l.9.5h-.7z"/><path fill="#096d17" d="m86.6 37.5h.6l1 .5h-.7z"/><path fill="#096d17" d="m93.8 41.6h.7l1 .6h-.6z"/><path fill="#096d17" d="m96.1 42.9h.7l.9.5h-.7z"/><path fill="#096d17" d="m94.7 50.7h.7v.7h-.7z"/><path fill="#096d17" d="m97 52h.7v.7h-.7z"/><path fill="#414241" d="m46.7 42.1c0-1.7 1.2-3.3 2.6-3.5 1.5-.3 2.6.9 2.6 2.5 0 1.7-1.2 3.3-2.6 3.5-1.4.3-2.6-.9-2.6-2.5z"/><path fill="#fff" stroke="#0fce7c" stroke-miterlimit="10" stroke-width=".5" d="m47.7 42c0-1 .7-2 1.6-2.1.5-.1 1 .1 1.3.6.2.3.3.6.3 1s-.1.8-.3 1.2c-.3.5-.7.8-1.3.9-.9.1-1.6-.6-1.6-1.6z"/><path fill="#fff" stroke="#15003e" stroke-miterlimit="10" stroke-width=".25" d="m51.1 42.9c-.4.6-1 1.1-1.6 1.2-1.1.2-2.1-.7-2.1-2s.9-2.6 2.1-2.8c.7-.1 1.3.2 1.7.7l-1.9 1.6 1.8.6z"/><path fill="#9da5a0" d="m49.3 39.5s-.6.2-1.1.7c-.4.4-.7 1.4-.7 1.8 0 .8.3 1.3.3 1.3s-.9-2.5 1.5-3.8z" opacity=".51"/><path fill="#fff" stroke="#15003e" stroke-miterlimit="10" stroke-width=".25" d="m48.8 41.8c0-.3.2-.6.5-.6.2 0 .3 0 .4.2 0 .1.1.2.1.3s0 .2-.1.3-.2.2-.4.3c-.3 0-.5-.2-.5-.5z"/><path fill="#0fce7c" d="m50.5 39.3c0-.1 0-.1 0 0 .1-.1.1-.1 0 0 .1 0 .1 0 0 0z"/><path fill="#15003e" d="m48.8 40.6c-.1 0-.1-.1-.1-.1v-1.5c0-.1.1-.1.1-.1.1 0 .1.1.1.1v1.5c.1.1 0 .1-.1.1z"/><path fill="#bcbcbc" d="m47.5 42.2c-.1-.6.1-1.4.7-2 .5-.5 1.2-.9 1.2-.8-1.4 3.9 2 3 1.5 3.6-.3.3-.7.8-1.1.9-1.3.3-2.2-.5-2.3-1.7z" opacity=".37"/><path fill="#0082ff" d="m62.1 47.3c1.3-1.6 1.6-4.3.7-6-.5-.9-1.1-1.4-1.9-1.4l-.8-.1.1.1c-.5.1-1.1.5-1.5 1-1.3 1.6-1.6 4.3-.7 6 .3.6.7 1 1.2 1.2l-.1.1.8.1c.8.1 1.6-.2 2.2-1z"/><path fill="url(#n)" d="m61.7 47.3c-1.3 1.6-3.1 1.4-4-.3-.9-1.8-.6-4.5.7-6 1.3-1.6 3.1-1.4 4 .3s.6 4.4-.7 6z"/><path fill="#38e0eb" d="m58.8 46.1 2.2-.7.5-3.4-2.2.7zm-.1.2.5-3.7 2.5-.8-.5 3.7z"/><path fill="#38e0eb" d="m58.8 46.3s.5-.8 1.1-1.7l-.1-.1c-.6.9-1.1 1.7-1.1 1.7zm1.7-2.6c.6-.9 1.1-1.7 1.1-1.7l-.1-.1s-.5.8-1.1 1.7z"/><path fill="url(#o)" d="m58.7 41.9.5 3.6 2.4.7-.5-3.5z"/><path fill="#38e0eb" d="m61.5 46.1-.5-3.4-2.2-.7.4 3.4zm.1.2-2.5-.7-.5-3.7 2.5.8z"/><path fill="#38e0eb" d="m60.5 44.6-.1-.9-.6-.2.1.9zm.1.2-.8-.3-.2-1.2.8.2z"/><path fill="#38e0eb" d="m58.7 42s.4.6 1 1.5h.1v-.1c-.6-.8-1-1.5-1-1.5h-.1zm1.8 2.7c.6.9 1 1.5 1 1.5h.1v-.1s-.4-.6-1-1.5h-.1z"/></g></switch></svg>