<svg xmlns="http://www.w3.org/2000/svg" xmlns:xlink="http://www.w3.org/1999/xlink" enable-background="new 0 0 110.9 128" viewBox="0 0 110.9 128"><defs><path id="a" d="m101.8 37.6v53.1l-46 26.6-46-26.6v-53.1l46-26.6z"/><linearGradient id="b"><stop offset="0" stop-color="#ff0013"/><stop offset="1" stop-color="#0082ff"/></linearGradient><linearGradient id="c" x1=".161" x2="111.011" y1="64.284" y2="64.284" gradientUnits="userSpaceOnUse" xlink:href="#b"/><clipPath id="d"><use xlink:href="#a"/></clipPath><linearGradient id="e" x1="4.63" x2="107.618" y1="64.124" y2="64.124" gradientUnits="userSpaceOnUse" xlink:href="#b"/><linearGradient id="f" x1="49.101" x2="63.148" y1="64.124" y2="64.124" gradientUnits="userSpaceOnUse" xlink:href="#b"/><linearGradient id="g" x1="44.768" x2="67.481" y1="64.124" y2="64.124" gradientUnits="userSpaceOnUse" xlink:href="#b"/><linearGradient id="h" x1="34.791" x2="77.458" y1="64.124" y2="64.124" gradientUnits="userSpaceOnUse" xlink:href="#b"/><linearGradient id="i" x1="25.312" x2="86.937" y1="64.124" y2="64.124" gradientUnits="userSpaceOnUse" xlink:href="#b"/><linearGradient id="j" x1="17.031" x2="95.342" y1="61.07" y2="61.07" gradientUnits="userSpaceOnUse" xlink:href="#b"/><linearGradient id="k" x1="55.316" x2="69.923" y1="34.062" y2="34.062" gradientUnits="userSpaceOnUse"><stop offset="0" stop-color="#d1d3d4"/><stop offset="1" stop-color="#fff"/></linearGradient><clipPath id="l"><use xlink:href="#ay"/></clipPath><linearGradient id="m" x1="55.216" x2="66.601" y1="38.875" y2="38.875" gradientUnits="userSpaceOnUse"><stop offset="0" stop-color="#0082ff"/><stop offset="1" stop-color="#2e3192"/></linearGradient><clipPath id="n"><use xlink:href="#az"/></clipPath><linearGradient id="o"><stop offset="0" stop-color="#6152f5"/><stop offset="1" stop-color="#66a6fc"/></linearGradient><linearGradient id="p" x1="54.423" x2="67.533" y1="40.267" y2="40.267" gradientUnits="userSpaceOnUse" xlink:href="#o"/><linearGradient id="q" x1="54.52" x2="67.388" y1="40.511" y2="40.511" gradientUnits="userSpaceOnUse" xlink:href="#o"/><clipPath id="r"><path d="m88.2 49.1c1.1 0 2.1.1 3.2.2 2.9.3 3.7-.8 6.2-1.2 1-.1 3.7.4 5.3-.5.9-.5.5.7.5 1.3.1 2.6.5 4.2 1.2 6.2.6 1.5 1.2 3.3.5 4.9 0 0-6.9-1.8-8.9-.9s-4.6 2-5.5.8c-.6-.9-.8-2.3-1.1-3.4-.4-1.7-.8-3.3-1.1-5 0-.6-.4-1.7-.3-2.4z"/></clipPath><clipPath id="s"><use xlink:href="#aA"/></clipPath><clipPath id="t"><use xlink:href="#aB"/></clipPath><clipPath id="u"><path d="m80.8 50.7s1.9-.2 3.4-1c1.4-.7 2.7-2.1 4-1.8.1 0 .3.1.4.2.4.4 1.3 1.6 1.7 3.6.3 1.6-.1 1.2.5 2.8.2.6.4.8.6 1.1.3.4 1.5 2.1 1.8 3.2 0 0-.6-.6-1.9.2s-4.5 3.2-6.5 2.3z"/></clipPath><clipPath id="v"><use xlink:href="#aC"/></clipPath><clipPath id="w"><use xlink:href="#aD"/></clipPath><clipPath id="x"><use xlink:href="#aE"/></clipPath><clipPath id="y"><use xlink:href="#aF"/></clipPath><clipPath id="z"><use xlink:href="#aG"/></clipPath><clipPath id="A"><use xlink:href="#aH"/></clipPath><linearGradient id="B"><stop offset="0" stop-color="#9393b5"/><stop offset="1" stop-color="#dadaf2" stop-opacity="0"/></linearGradient><linearGradient id="C" x1="43.466" x2="43.377" y1="94.842" y2="97.161" gradientUnits="userSpaceOnUse" xlink:href="#B"/><linearGradient id="D"><stop offset="0" stop-color="#b3a5cc"/><stop offset="1" stop-color="#dadaf2" stop-opacity="0"/></linearGradient><linearGradient id="E" x1="43.403" x2="43.429" y1="95.389" y2="96.447" gradientUnits="userSpaceOnUse" xlink:href="#D"/><clipPath id="F"><use xlink:href="#aI"/></clipPath><linearGradient id="G"><stop offset="0" stop-color="#0e2947"/><stop offset="1" stop-color="#143954" stop-opacity="0"/></linearGradient><linearGradient id="H" x1="43.696" x2="43.31" y1="70.976" y2="75.872" gradientUnits="userSpaceOnUse" xlink:href="#G"/><linearGradient id="I"><stop offset="0" stop-color="#d6d6ea"/><stop offset="1" stop-color="#6152f5" stop-opacity="0"/></linearGradient><linearGradient id="J" x1="44.297" x2="43.292" y1="84.17" y2="85.426" gradientUnits="userSpaceOnUse" xlink:href="#I"/><clipPath id="K"><use xlink:href="#aJ"/></clipPath><clipPath id="L"><use xlink:href="#aK"/></clipPath><clipPath id="M"><use xlink:href="#aL"/></clipPath><linearGradient id="N" x1="52.064" x2="51.975" y1="94.842" y2="97.161" gradientTransform="matrix(-1 0 0 1 87.3979 0)" gradientUnits="userSpaceOnUse" xlink:href="#B"/><linearGradient id="O" x1="52.002" x2="52.028" y1="95.389" y2="96.447" gradientTransform="matrix(-1 0 0 1 87.3979 0)" gradientUnits="userSpaceOnUse" xlink:href="#D"/><clipPath id="P"><use xlink:href="#aM"/></clipPath><linearGradient id="Q" x1="52.295" x2="51.908" y1="70.976" y2="75.872" gradientTransform="matrix(-1 0 0 1 87.3979 0)" gradientUnits="userSpaceOnUse" xlink:href="#G"/><linearGradient id="R" x1="52.896" x2="51.891" y1="84.17" y2="85.426" gradientTransform="matrix(-1 0 0 1 87.3979 0)" gradientUnits="userSpaceOnUse" xlink:href="#I"/><clipPath id="S"><use xlink:href="#aN"/></clipPath><linearGradient id="T"><stop offset="0" stop-color="#0e2947"/><stop offset="1" stop-color="#0e2947" stop-opacity="0"/></linearGradient><linearGradient id="U" x1="39.757" x2="38.003" y1="87.771" y2="88.914" gradientTransform="matrix(-.3296 -.9441 .9441 -.3296 -19.7607 135.058)" gradientUnits="userSpaceOnUse" xlink:href="#T"/><clipPath id="V"><use xlink:href="#aO"/></clipPath><linearGradient id="W" x1="30.247" x2="28.493" y1="69.921" y2="71.064" gradientUnits="userSpaceOnUse" xlink:href="#T"/><clipPath id="X"><use xlink:href="#aP"/></clipPath><linearGradient id="Y" x1="39.219" x2="39.361" y1="63.431" y2="66.599" gradientUnits="userSpaceOnUse"><stop offset="0" stop-color="#0e2947"/><stop offset=".806" stop-color="#0e2947" stop-opacity=".194"/><stop offset="1" stop-color="#0e2947" stop-opacity="0"/></linearGradient><clipPath id="Z"><use xlink:href="#aQ"/></clipPath><linearGradient id="aa" x1="39.176" x2="39.302" y1="81.056" y2="88.072" gradientUnits="userSpaceOnUse" xlink:href="#T"/><linearGradient id="ab" x1="39.807" x2="39.583" y1="63.856" y2="77.915" gradientUnits="userSpaceOnUse" xlink:href="#T"/><clipPath id="ac"><use xlink:href="#aR"/></clipPath><clipPath id="ad"><use xlink:href="#aS"/></clipPath><linearGradient id="ae" x1="39.733" x2="39.789" y1="48.397" y2="53.102" gradientUnits="userSpaceOnUse" xlink:href="#T"/><clipPath id="af"><use xlink:href="#aT"/></clipPath><clipPath id="ag"><use xlink:href="#aU"/></clipPath><radialGradient id="ah" cx="-34.277" cy="118.883" r="15.509" gradientTransform="matrix(-1.0431 0 0 .6268 17.8127 34.404)" gradientUnits="userSpaceOnUse"><stop offset="0" stop-color="#0e2947" stop-opacity=".95"/><stop offset=".279" stop-color="#143954" stop-opacity=".651"/><stop offset=".574" stop-color="#143954" stop-opacity="0"/></radialGradient><clipPath id="ai"><use xlink:href="#aV"/></clipPath><clipPath id="aj"><use xlink:href="#aW"/></clipPath><linearGradient id="ak"><stop offset="0" stop-color="#22d186"/><stop offset="1" stop-color="#2484c6" stop-opacity="0"/></linearGradient><linearGradient id="al" x1="-40.213" x2="-31.18" y1="94.005" y2="94.005" gradientTransform="matrix(-1 0 0 1 16.5079 0)" gradientUnits="userSpaceOnUse" xlink:href="#ak"/><linearGradient id="am"><stop offset="0" stop-color="#3bf2a3"/><stop offset="1" stop-color="#25e899" stop-opacity="0"/></linearGradient><linearGradient id="an" x1="-36.993" x2="-36.993" y1="94.062" y2="95.287" gradientTransform="matrix(-1 0 0 1 16.5079 0)" gradientUnits="userSpaceOnUse" xlink:href="#am"/><linearGradient id="ao" x1="-42.461" x2="-31.525" y1="91.829" y2="91.829" gradientTransform="matrix(-1 0 0 1 16.5079 0)" gradientUnits="userSpaceOnUse" xlink:href="#am"/><linearGradient id="ap" x1="-40.601" x2="-34.834" y1="90.879" y2="90.879" gradientTransform="matrix(-1 0 0 1 16.5079 0)" gradientUnits="userSpaceOnUse" xlink:href="#ak"/><clipPath id="aq"><use xlink:href="#aX"/></clipPath><linearGradient id="ar"><stop offset="0" stop-color="#ffdb01"/><stop offset=".387" stop-color="#ffb701"/><stop offset="1" stop-color="#ff9a00"/></linearGradient><linearGradient id="as" x1="53.962" x2="63.143" y1="96.466" y2="96.466" gradientUnits="userSpaceOnUse" xlink:href="#ar"/><linearGradient id="at" x1="54.461" x2="59.783" y1="96.69" y2="96.69" gradientUnits="userSpaceOnUse" xlink:href="#ar"/><linearGradient id="au" x1="62.062" x2="64.068" y1="98.67" y2="98.67" gradientUnits="userSpaceOnUse" xlink:href="#ar"/><clipPath id="av"><use xlink:href="#aY"/></clipPath><clipPath id="aw"><use xlink:href="#aZ"/></clipPath><clipPath id="ax"><use xlink:href="#a0"/></clipPath><path id="ay" d="m67 29.9s-1.4 5.2-.6 10c0 0-5.2 3.2-10.3 0 0 0-.8-7.2-1.9-9.6 0 0-.3-2.8 7-3.5 1.7-.2 5.5 1 5.8 3.1z"/><path id="az" d="m55.7 37.8c.7-1.1 2-1.5 3-1.8 1.3-.3 2.8-.4 4.2-.3 1.1.1 2.7.3 3.2 1.2l.5 4.2-11.4 1z"/><path id="aA" d="m80.7 50.7s1.9-.2 3.4-1 2.8-2.2 4.2-1.8c0 0 1.4 1.2 1.9 3.7s.6 3.1 1.2 3.9 1.8 2.5 1.7 3.3c0 0-.6-.6-1.9.2s-4.4 3.6-6.4 2.7z"/><path id="aB" d="m89.1 67.1 1.7 3.6c.2.4-.1.8-.5.8l-2.4.1c-.6 0-1.1-.3-1.4-.8l-.3-.6c-.3-.6-.1-1.2.3-1.7l1.6-1.6c.3-.3.8-.2 1 .2z"/><path id="aC" d="m67.9 80.4v-2.2l6.2.3-1.7 16.8c0 .4-.3.7-.7.7-.4 0-.7-.3-.7-.7z"/><path id="aD" d="m61.9 78.6 6-.2.1 2-2.8 15c0 .4-.3.7-.7.7-.4 0-.7-.3-.7-.7z"/><path id="aE" d="m28.2 43.7c-.1.1-.1.1-.2.2-.1 0-.2 0-.3 0 0-.1-.1-.3-.1-.4s0-.3.1-.4c.1-.2.4-.2.5-.3.2-.1.3-.2.4-.3s.1-.2.2-.2c.3 0 .3.5.2.7s-.5.4-.8.7z"/><path id="aF" d="m36.8 43.7.2.2s.2 0 .3 0c0-.1.1-.3.1-.4s0-.3-.1-.4c-.1-.2-.4-.2-.5-.3-.2-.1-.3-.2-.4-.3s-.1-.2-.2-.2c-.3 0-.3.5-.2.7.1.3.5.5.8.7z"/><path id="aG" d="m42.5 94.8-.4-8.1h2.6l-.3 8.1c0 .5-.4.9-1 .9-.5 0-.9-.4-.9-.9z"/><path id="aH" d="m45.7 96.9h-4.5c-.3 0-.5-.2-.5-.5v-.4c0-.3.2-.5.5-.5h4.5c.3 0 .5.2.5.5v.4c0 .2-.2.5-.5.5z"/><path id="aI" d="m42.1 85.1-.6-5.5c-.2-1.8-.1-3.5.2-5.3l3.4.3c.2 1.6.3 3.2.1 4.9l-.3 3.1c-.1 1.5-1.3 2.5-2.8 2.5z"/><path id="aJ" d="m45.9 77.1-.2 11.7h-4.3l-.1-.6-.7-3.1-.4-2.2-.8-3.8-.1-2.3h.9l.4.1h.7.4.7l.5.1h.6.5l.6.1h.5z"/><path id="aK" d="m36.3 94.8.4-8.1h-2.6l.3 8.1c0 .5.4.9 1 .9.5 0 .9-.4.9-.9z"/><path id="aL" d="m33.1 96.9h4.5c.3 0 .5-.2.5-.5v-.4c0-.3-.2-.5-.5-.5h-4.5c-.3 0-.5.2-.5.5v.4c0 .2.2.5.5.5z"/><path id="aM" d="m36.7 85.1.6-5.5c.2-1.8.1-3.5-.2-5.3l-3.4.3c-.2 1.6-.3 3.2-.1 4.9l.3 3.1c.1 1.5 1.3 2.5 2.8 2.5z"/><path id="aN" d="m39.5 76.8v2.3l-.9 3.8-.4 2.2-.7 3.1-.1.6h-4.3l-.2-11.7h.8.5l.6-.1h.5.7l.4-.1h.7.4.7l.4-.1z"/><path id="aO" d="m51.7 67.2-5.3-2.1-1.5 3.1 4.8 3z"/><path id="aP" d="m27.6 69 4.3-3.6 2.5 2.5-3.7 4.3z"/><path id="aQ" d="m46.4 79.5h-14.3l-.2-14 2.4-.5c.6-.1 1.2-.2 1.8-.3v.5c0 1.8 3.3 3.3 3.3 3.3s3.3-1.5 3.3-3.3c0-.2 0-.3 0-.5.6.1 1.1.2 1.6.3l2.4.5z"/><path id="aR" d="m44.2 80.2-1.7-3.5c-.2-.4.1-.8.5-.8l2.3-.1c.6 0 1.1.3 1.4.8l.3.6c.3.5.1 1.2-.3 1.6l-1.5 1.6c-.4.2-.9.1-1-.2z"/><path id="aS" d="m19.1 61.9-2.7 2.8c-.3.3-.2.8.2.9l2.1.8c.5.2 1.1.1 1.5-.3l.4-.5c.4-.4.5-1.1.3-1.6l-1-2c-.1-.3-.6-.4-.8-.1z"/><path id="aT" d="m33.8 50.7c0-.2 0-.4.1-.7.1-.4.1-5 5.8-5 4.7 0 5.5 5.3 5.1 6.1-.6.2-1.2-.3-1.8-.6-1.3-.8-2.8-1-4.3-.9-1 .1-2 .5-3 .9-.3.3-1.9 1.5-1.9.2z"/><path id="aU" d="m34.1 52.4c0 .1 0 .2.1.3s.2 0 .3 0c1.4-.7 3-1.3 4.6-1.4s3.3.2 4.6 1.2c.3.2.6.4.9.3.2-.1.2-.2.3-.4.2-.5-.1-1.1-.5-1.5s-.9-.7-1.4-.9c-1-.4-2.1-.8-3.2-.8-1.3 0-2.6.3-3.8.8-.5.2-1.3.4-1.7.8s-.2 1.2-.2 1.6z"/><path id="aV" d="m56.1 108.5c.5 0 .5-.4.5-.9l.3-5c0-.5-.4-.9-.9-.9-.5 0-.9.4-.9.9l.3 5c.1.5.2.9.7.9z"/><path id="aW" d="m51.3 108.5c.5 0 .5-.4.5-.9l.3-5c0-.5-.4-.9-.9-.9-.5 0-.9.4-.9.9l.3 5c.1.5.2.9.7.9z"/><path id="aX" d="m59.6 95.3-1.9-1.2c-.2-.1-.5 0-.5.2l-.2 1.4c-.1.3.1.6.4.8l.3.2c.3.2.7.2.9-.1l1-.8c.2-.1.2-.4 0-.5z"/><path id="aY" d="m55.8 95.6-.4 1.8c0 .2-.3.3-.4.2l-.9-.6c-.2-.2-.3-.4-.3-.7l.1-.3c.1-.3.3-.5.6-.5l1.1-.2c.1-.1.2.1.2.3z"/><path id="aZ" d="m53.7 96.6.2-1-5.6-.3c-.4 0-.8.4-.8.8 0 .4.4.8.8.8z"/><path id="a0" d="m48.7 84.2h.2c.3 0 .6-.2.6-.6v-.2c0-.3-.2-.6-.6-.6h-.2c-.3 0-.6.2-.6.6v.2c0 .3.3.6.6.6z"/></defs><switch><g><path fill="url(#c)" d="m111 32.3v64l-55.4 32-44.4-25.6-.2-.1-10.8-6.3v-64l55.4-32z"/><use fill="#fff" xlink:href="#a"/><g fill="#fff" clip-path="url(#d)"><path d="m70.1 83.3-.4.1s0 0-.1 0l-.3-.3h-.1v.4.1l-.3.2v.1l.4.1.1.4c0 .1.1.1.1 0l.2-.3h.1.4c.1 0 .1-.1.1-.1l-.3-.2s0 0 0-.1l.1-.4c.1 0 .1 0 0 0z"/><path d="m78.4 71.7-.4.1s0 0-.1 0l-.3-.3h-.1v.4.1l-.3.2v.1l.4.1.1.4c0 .1.1.1.1 0l.2-.3h.1.4c.1 0 .1-.1.1-.1l-.2-.3s0 0 0-.1v-.3c.1.1.1 0 0 0z"/><path d="m30.9 37.2-.4.1s0 0-.1 0l-.3-.3h-.1v.4.1l-.3.2v.1l.4.1.1.4c0 .1.1.1.1 0l.2-.3h.1.4c.1 0 .1-.1.1-.1l-.2-.3s0 0 0-.1v-.3c.1 0 .1 0 0 0z"/><path d="m43.8 63.7-.4.1s0 0-.1 0l-.3-.3h-.1v.4.1l-.3.2v.1l.4.1.1.4c0 .1.1.1.1 0l.2-.3h.1.4c.1 0 .1-.1.1-.1l-.2-.3s0 0 0-.1v-.3c.1.1.1 0 0 0z"/><path d="m47.6 34.2-.4.1s0 0-.1 0l-.3-.3h-.1v.4.1l-.3.2v.1l.4.1.1.4c0 .1.1.1.1 0l.2-.3h.1.4c.1 0 .1-.1.1-.1l-.2-.3s0 0 0-.1z"/><path d="m40.6 46.8-.4.2s0 0-.1 0l-.3-.3h-.1v.4.1l-.3.2v.1l.4.1.1.4c0 .1.1.1.1 0l.2-.3h.1.4c.1 0 .1-.1.1-.1l-.2-.3s0 0 0-.1z"/><path d="m65.8 33.5-.4.1s0 0-.1 0l-.3-.3h-.1v.4.1l-.3.2v.1l.4.1.1.4c0 .1.1.1.1 0l.2-.3h.1.4c.1 0 .1-.1.1-.1l-.3-.2s0 0 0-.1l.1-.4c.1 0 .1 0 0 0z"/><path d="m57.7 28.1-.4.1s0 0-.1 0l-.2-.2h-.1v.4.1l-.3.2v.1l.4.1.1.4c0 .1.1.1.1 0l.2-.3h.1.4c.1 0 .1-.1.1-.1l-.2-.3s0 0 0-.1l-.1-.4c.1.1.1 0 0 0z"/><path d="m29 55.7-.4.1s0 0-.1 0l-.3-.3h-.1v.4.1l-.3.2v.1l.4.1.1.4c0 .1.1.1.1 0l.2-.3h.1.4c.1 0 .1-.1.1-.1l-.2-.3s0 0 0-.1v-.3c.1.1 0 0 0 0z"/><path d="m33 93-.4.1s0 0-.1 0l-.3-.3h-.1v.4.1l-.3.2v.1l.4.1.1.4c0 .1.1.1.1 0l.2-.3h.1.4c.1 0 .1-.1.1-.1l-.2-.3s0 0 0-.1v-.3c.1 0 .1-.1 0 0z"/><path d="m43.2 84.5-.4.1s0 0-.1 0l-.3-.3h-.1v.4.1l-.3.3v.1l.4.1.1.4c0 .1.1.1.1 0l.2-.3h.1.4c.1 0 .1-.1.1-.1l-.2-.3s0 0 0-.1v-.4c.1.1 0 0 0 0z"/><path d="m87 78.8.4-.6s.1-.1.1-.1l.7.1c.1 0 .2-.1.1-.2l-.5-.5v-.1l.3-.7c0-.1-.1-.2-.1-.1l-.7.3h-.1l-.6-.4c-.1-.1-.2 0-.2.1l.1.7v.1l-.6.4c-.1.1-.1.2 0 .2l.7.1s.1 0 .1.1l.2.7c-.1 0 0 0 .1-.1z"/><path d="m24.6 48.9.4-.6s.1-.1.1-.1l.7.1c.1 0 .2-.1.1-.2l-.5-.5v-.1l.3-.7c0-.1-.1-.2-.1-.1l-.7.3h-.1l-.6-.4c-.1-.1-.2 0-.2.1l.1.7v.1l-.6.4c-.1.1-.1.2 0 .2l.7.1s.1 0 .1.1l.2.7c-.1-.1 0-.1.1-.1z"/><path d="m84.5 44.1.4-.6s.1-.1.1-.1l.7.1c.1 0 .2-.1.1-.2l-.5-.5v-.1l.3-.7c0-.1-.1-.2-.1-.1l-.7.3h-.1l-.6-.4c-.1-.1-.2 0-.2.1l.1.7v.1l-.6.3c-.1.1-.1.2 0 .2l.7.1s.1 0 .1.1l.2.7c0 .1.1.1.1 0z"/><path d="m63 45.3.4-.6s.1-.1.1-.1l.7.1c.1 0 .2-.1.1-.2l-.5-.5v-.1l.3-.7c0-.1-.1-.2-.1-.1l-.7.3h-.1l-.6-.4c-.1-.1-.2 0-.2.1l.1.7v.1l-.6.4c-.1.1-.1.2 0 .2l.7.1s.1 0 .1.1l.2.7s.1 0 .1-.1z"/><path d="m83.7 86.2-.6.2h-.1l-.4-.4c-.1-.1-.2 0-.2.1v.6.1l-.5.2c-.1 0-.1.1 0 .2l.6.2s.1 0 .1.1l.1.6c0 .1.1.1.2 0l.4-.5h.1l.6.1c.1 0 .1-.1.1-.1l-.6-.6v-.1l.3-.6s0-.1-.1-.1z"/><path d="m80.7 63.4-.6.2h-.1l-.4-.4c-.1-.1-.2 0-.2.1v.6.1l-.5.3c-.1 0-.1.1 0 .2l.6.2s.1 0 .1.1l.1.6c0 .1.1.1.2 0l.4-.5h.1l.6.1c.1 0 .1-.1.1-.1l-.4-.5v-.1l.3-.6c-.2-.2-.3-.3-.3-.3z"/><path d="m35.1 59.4-.6.2h-.1l-.4-.4c-.1-.1-.2 0-.2.1v.6.1l-.5.3c-.1 0-.1.1 0 .2l.6.2s.1 0 .1.1l.1.6c0 .1.1.1.2 0l.4-.5h.1l.6.1c.1 0 .1-.1.1-.1l-.4-.5v-.1l.3-.6c-.2-.2-.2-.3-.3-.3z"/><path d="m93.9 74.7-.6.2h-.1l-.4-.4c-.1-.1-.2 0-.2.1v.6.1l-.6.2c-.1 0-.1.1 0 .2l.6.2s.1 0 .1.1l.1.6c0 .1.1.1.2 0l.4-.5h.1l.6.1c.1 0 .1-.1.1-.1l-.4-.5v-.1l.3-.6c-.1-.2-.2-.3-.2-.2z"/><path d="m26.7 83.1-.6.2h-.1l-.4-.4c-.1-.1-.2 0-.2.1v.6.1l-.5.3c-.1 0-.1.1 0 .2l.6.2s.1 0 .1.1l.1.6c0 .1.1.1.2 0l.4-.5h.1l.6.1c.1 0 .1-.1.1-.1l-.4-.5v-.1l.3-.6c-.2-.3-.2-.4-.3-.3z"/><path d="m33.1 75.1-.4.2s0 0-.1 0l-.3-.3h-.1v.4.1l-.3.2v.1l.4.1.1.4c0 .1.1.1.1 0l.2-.3h.1.4c.1 0 .1-.1 0-.1l-.2-.3s0 0 0-.1l.1-.4c.1 0 0-.1 0 0z"/><path d="m22.2 68.4-.6.2h-.1l-.4-.4c-.1-.1-.2 0-.2.1v.6.1l-.5.3c-.1 0-.1.1 0 .2l.6.1s.1 0 .1.1l.1.6c0 .1.1.1.2 0l.3-.5h.1.6c.1 0 .1-.1.1-.2l-.4-.4v-.1l.2-.6c.1 0 0-.1-.1-.1z"/></g><g clip-path="url(#d)"><g fill="#f61c1c"><path d="m80.2 77.8c-.4.2-1 .2-1.3-.2 0-.2 0-.4.1-.6.3.4.9.4 1.3.2 0 .2-.1.4-.1.6z"/><path d="m47.7 37.6c-.4-.7-1.4-.8-2.1-.8 0-.4.1-.7.1-1.1.7 0 1.7 0 2.1.8-.1.4-.1.8-.1 1.1z"/><path d="m37.6 36.7c-.4-.7-1.4-.8-2.1-.8 0-.4.1-.7.1-1.1.7 0 1.7 0 2.1.8 0 .4 0 .8-.1 1.1z"/><path d="m96.4 46.4c-.1.8.7 1.4 1.4 1.7-.2.3-.4.6-.7.8-.6-.4-1.4-.9-1.4-1.7.3-.2.5-.5.7-.8z"/><path d="m77.9 33.9c-.1-.4-.5-.6-.9-.8.1-.2.2-.3.3-.5.4.1.8.3.9.8-.1.2-.2.4-.3.5z"/><path d="m62.5 48.6c.4-.1.8-.5.8-.9.2.1.3.3.5.4 0 .4-.4.8-.8.9-.2-.2-.3-.3-.5-.4z"/><path d="m31.9 77.6c.3-.7 1.4-.7 1.7-1.5.3.3.5.6.7.9-.3.8-1.5.7-1.7 1.5-.2-.4-.5-.7-.7-.9z"/><path d="m27.9 47.6c-.3 0-.5-.4-.8-.4.1-.1.1-.3.2-.4.3 0 .5.4.8.4-.1.1-.2.2-.2.4z"/><path d="m82.9 49.4c-.2.4-.4.8-.7 1.1-.2-.1-.4-.2-.6-.3.3-.3.5-.7.7-1.1.2.1.4.2.6.3z"/><path d="m61.1 32.6c.2-.1.5-.2.8-.1 0 .1.1.2.1.4-.3 0-.5.1-.8.1 0-.2-.1-.3-.1-.4z"/><path d="m87.8 67.3c.2.2.4.5.7.5-.1.1-.2.2-.3.3-.3-.1-.5-.3-.7-.5.1-.1.2-.2.3-.3z"/></g><path fill="#0b2d6d" d="m25.4 37.6c.5-.5 1.6-.8 2.2-.3.1.4.1.7.2 1.1-.6-.5-1.6-.2-2.2.3-.1-.3-.1-.7-.2-1.1z"/><path fill="#0b2d6d" d="m71.3 36.5c.8-.5 2.1-.6 2.7.2v1.4c-.6-.8-1.9-.7-2.7-.2 0-.5 0-.9 0-1.4z"/><path fill="#0b2d6d" d="m32.3 30.6c.3 0 .7.2.8.6-.1.1-.2.3-.3.4 0-.3-.4-.6-.8-.6.1-.1.2-.2.3-.4z"/><path fill="#0b2d6d" d="m53.2 28c.3 0 .7.2.8.6-.1.1-.2.3-.3.4 0-.3-.4-.6-.8-.6.2-.1.2-.3.3-.4z"/><path fill="#0b2d6d" d="m85.4 38.8c-.2.3 0 .6.2.8-.1.1-.2.1-.4.2-.2-.2-.3-.5-.2-.8.2-.1.3-.2.4-.2z"/><path fill="#0b2d6d" d="m25.1 76.4c-.5-.2-1.2 0-1.6.4-.1-.3-.1-.5-.2-.8.4-.4 1.1-.6 1.6-.4 0 .3.1.5.2.8z"/><path fill="#0b2d6d" d="m88.4 48.3c-.3 0-.5.2-.6.4-.1-.1-.1-.2-.2-.3.1-.2.4-.4.6-.4.1.1.1.2.2.3z"/><path fill="#0b2d6d" d="m14.8 64.1c-.2-.2 0-.7-.2-.9.1 0 .3-.1.5-.1.2.2 0 .7.2.9-.2.1-.4.1-.5.1z"/><path fill="#0b2d6d" d="m18.5 37.6c.1.2.3.5.3.8-.1.1-.2.1-.4.2 0-.3-.2-.5-.3-.8.2-.1.3-.1.4-.2z"/><path fill="#0b2d6d" d="m38 68.4c.4 0 .9 0 1.3-.2v.6c-.4.3-.8.2-1.3.2 0-.2.1-.4 0-.6z"/><path fill="#f61c1c" d="m23.6 59.9c-.3.7-1.3 1.4-2 1.1-.2-.3-.4-.7-.6-1 .8.3 1.7-.4 2-1.1.2.4.4.7.6 1z"/><path fill="#f61c1c" d="m84.3 34.1c1.1 0 1.7-1.1 2.1-1.9.4.2.8.5 1.1.8-.4.8-1 1.9-2.1 1.9-.3-.3-.7-.5-1.1-.8z"/><path fill="#f61c1c" d="m40.9 58.1c-.1-.2-.1-.6-.2-.8.1 0 .3.1.4.1.1.2.1.6.2.8-.1-.1-.4-.1-.4-.1z"/><path fill="#f61c1c" d="m67.4 43.9c-.1-.2-.3-.4-.3-.7.1-.1.2-.1.3-.2.1.3.2.5.3.7-.1.1-.2.2-.3.2z"/><path fill="#f61c1c" d="m43.8 28c-.1-.2-.3-.4-.3-.7.1-.1.2-.1.3-.2.1.3.2.5.3.7-.1.1-.2.1-.3.2z"/><path fill="#f61c1c" d="m27.7 70.6c.1.4.1.8.4 1.1-.2 0-.4.1-.6.1-.3-.3-.3-.7-.4-1.1.2-.1.4-.1.6-.1z"/><path fill="#0b2d6d" d="m64 21.5c-.4.8-1.4 1.5-2.3 1.2-.2-.4-.5-.7-.7-1.1.9.3 1.9-.4 2.3-1.2.2.4.5.8.7 1.1z"/><path fill="#0b2d6d" d="m14.9 54c.1-.4-.2-.7-.4-.9.1-.1.2-.2.4-.3.2.2.5.5.4.9-.1.1-.3.2-.4.3z"/><path fill="#0b2d6d" d="m34.4 63.3c.2-.2.1-.5.1-.8.1 0 .3 0 .4-.1.1.2.2.6-.1.8-.2 0-.3 0-.4.1z"/><path fill="#0b2d6d" d="m63.2 57.1c.4-.1.8-.6.8-1 .2.1.3.3.5.4 0 .4-.4.9-.8 1-.2-.2-.4-.3-.5-.4z"/><path fill="#0b2d6d" d="m97.5 57.2c.1-.6-.2-1.3-.7-1.6.3-.1.5-.3.8-.4.5.3.8 1 .7 1.6-.3.2-.5.3-.8.4z"/><path fill="#0b2d6d" d="m91 65.2c.6.3 1.2 1.6 1.8 1.9-.1.1-.9.3-1.1.4-.6-.4-1.2-1.7-1.8-1.9.2 0 1-.3 1.1-.4z"/><path fill="#0b2d6d" d="m33.7 57.6c-.2.3-.4.6-.6.8-.1-.1-.3-.2-.4-.3.3-.2.5-.5.6-.8.1.1.2.2.4.3z"/><path fill="#0b2d6d" d="m42.1 42.1c-.7.4-1.4.7-1.9 1.4-.2-.3-.4-.7-.5-1 .4-.7 1.2-1 1.9-1.4.2.4.3.7.5 1z"/><path fill="#0b2d6d" d="m78.9 48.4c-.4.1-.9.1-1.2.4-.1-.2-.1-.4-.1-.6.3-.3.8-.4 1.2-.4 0 .2 0 .4.1.6z"/></g><g clip-path="url(#d)" opacity=".7"><circle cx="56.1" cy="64.1" r="51.5" fill="url(#e)" opacity=".13"/><circle cx="56.1" cy="64.1" r="7" fill="url(#f)" opacity=".13"/><circle cx="56.1" cy="64.1" r="11.4" fill="url(#g)" opacity=".13"/><circle cx="56.1" cy="64.1" r="21.3" fill="url(#h)" opacity=".13"/><circle cx="56.1" cy="64.1" r="30.8" fill="url(#i)" opacity=".13"/><path fill="url(#j)" d="m76.9 97.2c11.1-6.9 18.4-19.2 18.4-33.2 0-21.6-17.5-39.2-39.2-39.2s-39.1 17.6-39.1 39.2c0 13.8 7.6 26.3 18.3 33.2z" opacity=".13"/></g><path fill="#fff" d="m55.8 11-46 26.6v54l46 26.8 46-26.8v-53.9zm44.3 79.5-44.1 25.8-44.2-25.8v-51.9l44.2-25.4 44.2 25.6z"/><path fill="#fff" d="m66.6 117.2 1.6-.9.1.1c.2.3.3.6.3.8v.8c-.1.6-.5 1.1-1 1.4s-1.1.4-1.7.2-1.1-.5-1.4-1.1c-.3-.5-.4-1.1-.2-1.7s.5-1.1 1.1-1.4c.3-.2.6-.3.9-.3s.7 0 1.1.2l-.2.6c-.5-.2-1-.2-1.5 0-.4.2-.7.6-.8 1s-.1.8.2 1.3c.2.4.6.7 1.1.8.4.1.8 0 1.1-.2s.5-.4.6-.7.1-.6 0-.9l-.9.5z"/><path fill="#fff" d="m70.2 112.8h.7v4.4h-.7z" transform="matrix(.8665 -.4992 .4992 .8665 -48.0055 50.572)"/><path fill="#fff" d="m73.3 111.6 1.9 3.3-.6.3-1.9-3.2-.8.5-.3-.6 2.3-1.3.3.5z"/><path fill="#fff" d="m78.5 108.2.4.7c-.5-.1-.9 0-1.3.2s-.6.6-.7 1 0 .9.2 1.3.6.7 1 .8.8.1 1.2-.2c.2-.1.4-.2.5-.4.1-.1.1-.2.2-.3s.1-.2.2-.4l.4.7c-.2.4-.5.7-.9.9-.5.3-1.1.4-1.7.2s-1.1-.5-1.4-1-.4-1-.3-1.6c.1-.7.5-1.2 1.1-1.6.3-.2.6-.3 1.1-.3"/><path fill="#25e899" d="m81.2 108c-.3-.5-.4-1.1-.2-1.7s.5-1.1 1.1-1.4c.5-.3 1.1-.4 1.7-.2s1.1.5 1.4 1.1c.3.5.4 1.1.2 1.7s-.5 1.1-1.1 1.4c-.5.3-1 .4-1.6.3-.6-.2-1.1-.5-1.5-1.2m.6-.3c.2.4.6.7 1 .8s.8.1 1.2-.2c.4-.2.7-.6.8-1s.1-.9-.2-1.3c-.2-.4-.6-.7-1-.8s-.8-.1-1.2.2c-.4.2-.6.6-.8 1-.1.5 0 .9.2 1.3"/><path fill="#fff" d="m87.2 103.1h.7v4.4h-.7z" transform="matrix(.8663 -.4995 .4995 .8663 -40.874 57.7872)"/><path fill="#fff" d="m91.1 105.7-2.3-4 4.4 1.3-1.5-2.7.6-.3 2.3 4-4.4-1.3 1.5 2.7z"/><path d="m81.4 97.2h-54.5" style="fill:none;stroke:#0e2947;stroke-width:.5;stroke-linecap:round;stroke-linejoin:round;stroke-miterlimit:10"/><path fill="#fff" d="m14.4 25.9 2.5 4.3-.8.5-1.1-1.9-2 1.2 1.1 1.9-.8.5-2.5-4.4.8-.5 1.1 1.9 2-1.2-1.1-1.9z"/><path fill="#fff" d="m16.1 27.2c.2-.5.5-.9 1-1.2.2-.1.4-.2.5-.2h.5c.2 0 .3.1.4.2s.3.3.3.4l1.1 1.9-.3.2c-.1 0-.1.1-.2.1 0 0-.1 0-.2-.1l-.2-.2c0 .1-.1.2-.1.3s-.1.2-.2.3-.1.2-.2.2-.2.1-.3.2-.3.1-.4.2c-.1 0-.3 0-.4 0s-.2-.1-.3-.2-.2-.2-.3-.3c0-.1-.1-.2-.1-.3s0-.2 0-.3.1-.2.1-.3c.1-.1.1-.2.3-.4.1-.1.2-.3.4-.4s.4-.3.6-.4l.1.1c-.1-.2-.2-.3-.4-.4-.1 0-.3 0-.5.1-.1.1-.2.1-.3.2s-.1.1-.2.2c0 .1-.1.1-.1.2s-.1.1-.1.1c-.1 0-.1 0-.2 0s-.1 0-.1 0zm2.4.4c-.2.1-.4.3-.5.4s-.2.2-.3.3-.1.2-.1.3v.2c.1.1.2.2.3.2s.2 0 .3-.1c.2-.1.3-.2.3-.3.1-.1.1-.3.2-.4z"/><path fill="#fff" d="m19.9 25c0-.2.1-.4.2-.6s.3-.3.5-.5c.2-.1.3-.1.5-.2.2 0 .4 0 .5.1.2.1.3.2.5.4s.3.4.5.6c.1.2.2.5.3.7s.1.4 0 .7c0 .2-.1.4-.2.6s-.3.3-.5.4-.3.2-.5.2-.3 0-.4 0l.7 1.2-.7.4-2.3-4 .4-.3c.1-.1.2 0 .3 0zm1.1 1.9c.1.1.3.1.4.1s.2-.1.4-.1c.1-.1.2-.1.3-.2s.1-.2.1-.3 0-.3 0-.4-.1-.3-.2-.5-.2-.3-.3-.4-.2-.2-.3-.2-.2-.1-.3-.1-.2 0-.3.1c-.2.1-.3.2-.3.3s-.1.3-.1.4z"/><path fill="#fff" d="m23.3 23.1c0-.2.1-.4.2-.6s.3-.3.5-.5c.2-.1.3-.1.5-.2.2 0 .4 0 .5.1.2.1.3.2.5.4s.3.4.5.6c.1.2.2.5.3.7s.1.4 0 .7c0 .2-.1.4-.2.6s-.3.3-.5.4-.3.2-.5.2-.3 0-.4 0l.7 1.2-.7.4-2.3-4 .4-.3c.1-.1.2 0 .3 0zm1.1 1.8c.1.1.3.1.4.1s.2-.1.4-.1c.1-.1.2-.1.3-.2s.1-.2.1-.3 0-.3 0-.4-.1-.3-.2-.5-.2-.3-.3-.4-.2-.2-.3-.2-.2-.1-.3-.1-.2 0-.3.1c-.2.1-.3.2-.3.3s-.1.3-.1.4z"/><path fill="#fff" d="m28.4 19.6.6 4.8v.2s-.1.1-.1.1l-.5.3-.1-1.6-2.9-2.1.6-.4h.2s.1 0 .1.1l1.6 1.2c.1 0 .1.1.1.1s.1.1.1.1c0-.1 0-.1 0-.2s0-.1 0-.2l-.3-1.9v-.1s.1-.1.1-.1z"/><path fill="#fff" d="m33.8 18.4.2.4v.1s0 .1-.1.1l-.4.2.6 1-.6.4-.6-1-1.8 1s-.1 0-.2 0-.1 0-.1-.1l-.3-.3.5-3.9.7-.4 1.5 2.7zm-1.2.7-.8-1.4c-.1-.1-.2-.3-.2-.5l-.3 2.6z"/><path fill="#fff" d="m36.3 19.2c-.3.2-.5.2-.7.1s-.4-.2-.6-.5l-1-1.7-.3.2h-.1s-.1 0-.1-.1l-.2-.3.4-.4-.3-.9v-.1s0-.1.1-.1l.4-.2.6 1 .8-.5.3.5-.8.5.9 1.7c.1.1.1.2.2.2h.2s.1-.1.1-.1 0-.1.1-.1 0 0 0-.1h.1.1l.4.2c-.1.1-.1.3-.3.4 0 .1-.2.2-.3.3z"/><path fill="#fff" d="m36.6 15.3c.1-.2.1-.3.2-.5s.3-.3.4-.4c.2-.1.3-.2.5-.2s.3 0 .5.1c.1.1.3.1.4.3.1.1.2.3.3.4l1.1 1.9-.7.4-1.1-1.9c-.1-.2-.2-.3-.4-.4-.1-.1-.3 0-.5.1-.1.1-.2.2-.3.3s-.1.3-.2.4l1.3 2.2-.7.4-2.5-4.4.7-.4z"/><path fill="#fff" d="m43 13.3c.1.2.2.5.3.7s.1.4 0 .6c0 .2-.1.4-.3.6-.1.2-.3.3-.6.5-.1.1-.2.1-.3.2-.1 0-.2.1-.4.1 0-.1-.1-.2-.1-.2 0-.1-.1-.2-.1-.2v-.1s0-.1.1-.1c0 0 .1 0 .1-.1s.1 0 .2-.1.2-.1.3-.2.1-.2.1-.3 0-.2 0-.4c0-.1-.1-.3-.2-.4l-1.5-2.9.8-.5z"/><path fill="#fff" d="m45.4 9.8 1.8 3.1-.4.3c-.1.1-.2 0-.3 0l-.2-.2c-.1.2-.1.4-.2.5-.1.2-.3.3-.5.4s-.3.1-.5.1-.3 0-.5-.1c-.1-.1-.3-.1-.4-.3-.1-.1-.2-.3-.3-.4l-1.1-1.9.7-.4 1.1 1.9c.1.2.2.3.4.4.1.1.3 0 .5-.1.1-.1.2-.2.3-.3s.1-.3.2-.4l-1.3-2.2z"/><path fill="#fff" d="m46.1 7.6 2.5 4.4-.7.4-2.5-4.4z"/><path fill="#fff" d="m50.4 7 .6 4.8v.2s-.1.1-.1.1l-.5.3-.1-1.6-2.9-2.1.6-.4h.2s.1 0 .1.1l1.6 1.2c.1 0 .1.1.1.1s.1.1.1.1c0-.1 0-.1 0-.2s0-.1 0-.2l-.3-1.9v-.1s.1-.1.1-.1z"/><g transform="translate(7 12)"><use fill="url(#k)" xlink:href="#ay"/><path fill="#e6e7e8" d="m66.6 30.4c-.1.4-.3.8-.5 1.1-.6 1.5-.6 3.2-.5 4.8-.2 0-.4-.2-.5-.4s-.1-.4-.1-.6c.1-1.6.1-3.2.2-4.8 0-.5 0-2 .7-2 1-.1.9 1.4.7 1.9z" clip-path="url(#l)"/><path fill="#e6e7e8" d="m54.5 30.3c.1.2.2.4.3.6.3.4.3 1 .4 1.5.2 1.3.3 2.6.5 3.9 0 .2.1.5.3.6.3.1.6-.1.7-.4.2-.4.2-.8.1-1.2-.2-1.9-.5-3.9-1-5.7-.1-.4-.4-1-.9-.7-.3.2-.5 1-.4 1.4z" clip-path="url(#l)"/><path d="m58.4 36.9-2 .9s-.8-7.7-1.2-9 2-1.7 2-1.7.8 7.2 1.2 9.8z" style="fill:#ff0013;stroke:#0e2947;stroke-width:.25;stroke-linecap:round;stroke-linejoin:round;stroke-miterlimit:10;clip-path:url(#l)"/><path d="m63.9 26.8 2.3 1.3s-1.1 7-.9 9.3c.3 2.4-1.7-.4-1.7-.4-.2 0 .1-10.2.3-10.2z" style="fill:#ff0013;stroke:#0e2947;stroke-width:.25;stroke-linecap:round;stroke-linejoin:round;stroke-miterlimit:10;clip-path:url(#l)"/><path d="m59.7 37 2.4-.1c-.1-3.4-.2-7.2-.1-10.4l-2.9.2z" style="fill:#ff0013;stroke:#0e2947;stroke-width:.25;stroke-linecap:round;stroke-linejoin:round;stroke-miterlimit:10;clip-path:url(#l)"/><g clip-path="url(#l)"><use fill="url(#m)" xlink:href="#az"/><g fill="#fff"><path d="m61.1 37.1.4 1.2h1.3l-1.1.8.4 1.2-1-.8-1 .8.4-1.2-1.1-.8h1.3z" clip-path="url(#n)"/><path d="m65.6 36.9.4 1.2h1.3l-1 .8.4 1.2-1.1-.7-1 .7.4-1.2-1.1-.8h1.3z" clip-path="url(#n)"/><path d="m56.2 37.7.4 1.2h1.3l-1 .7.4 1.3-1.1-.8-1 .8.4-1.3-1.1-.7h1.3z" clip-path="url(#n)"/></g><use fill="none" stroke="#0e2947" stroke-miterlimit="10" stroke-width=".5" xlink:href="#az"/></g><use style="fill:none;stroke:#0e2947;stroke-width:.5;stroke-linecap:round;stroke-linejoin:round;stroke-miterlimit:10" xlink:href="#ay"/><path fill="#0e2947" d="m54.3 39.2c.2-.2.5-.2.8-.1.8.4 3.3 1.5 5.8 1.6 3.1 0 3.5-.3 5.4-1.4 1.4-.8 1.6.1 1.3.5-.7 1.1-1 2.9-5.8 2.7-2.7-.1-5.5-.4-6.9-1.3-.9-.6-.8-1.9-.6-2z"/><path fill="#d6d6ea" d="m67.3 43.3c.2.3.3.8.3 1.2s.1.8 0 1.2-.3.8-.6 1c-.2.1-.4.2-.6.3-.3.2-.5.4-.7.5-.4.3-1 .3-1.5.3s-1 0-1.6 0h-6.7c.1-.2.1-.4.1-.5s-.1-.4-.3-.4c-.2-.1-.4.1-.6.1-.3 0-.6-.2-.7-.5s-.2-.6-.2-.9c-.1-.8-.1-1.7.4-2.4.2-.2.4-.4.7-.4s.5.3.4.6c0-.6.8-3.2 1.3-2.8.1.1 1.9.8 3 .7s1.7.1 2.6 0c.4-.1 2.3-.4 2.8-.2.5.1.5 1.9.9 1.8s.7 0 1 .4z"/><path fill="#25e899" d="m56.1 47.6h8.8l.7.3-.5 2h-8.4z"/><path fill="#d6d6ea" d="m63.9 52.4h-6c-.7 0-1.2-.5-1.2-1.2v-1.3h8.4v1.3c0 .6-.6 1.2-1.2 1.2"/><path fill="#0e2947" d="m63.9 52.6h-6c-.8 0-1.5-.7-1.5-1.5v-1.6h8.9v1.6c0 .9-.6 1.5-1.4 1.5zm-7-2.4v1c0 .5.4.9.9.9h6c.5 0 .9-.4.9-.9v-1z"/><path fill="#0fce7c" d="m59.3 47.6c-1.3-.6-2.2-1.9-2.2-3.4 0-.9.3-1.7.9-2.4.7-.8 5-.9 5.7-.1.6.7.9 1.5.9 2.5 0 1.5-.9 2.8-2.2 3.4"/><g fill="#0e2947"><path d="m59.1 47.9h-.1c-1.5-.7-2.4-2.1-2.4-3.8 0-.8.2-1.6.7-2.3.1-.1.2-.2.4-.1.1.1.2.2.1.4-.4.6-.6 1.3-.6 2 0 1.4.8 2.7 2 3.3.1.1.2.2.1.4 0 0-.1.1-.2.1"/><path d="m62.5 47.9c-.1 0-.2-.1-.2-.2-.1-.1 0-.3.1-.4 1.2-.6 2-1.9 2-3.3 0-.8-.2-1.5-.7-2.1-.1-.1-.1-.3.1-.4.1-.1.3-.1.4.1.5.7.8 1.6.8 2.5 0 1.6-.9 3-2.3 3.7-.1.1-.1.1-.2.1"/><path d="m57.4 40.5c-.7.6-1.2 1.3-1.5 2.1-.2.6-.4 1.2-.4 1.9l1.3 5.2h8l1.3-5.2c0-.8-.2-1.5-.5-2.2-.2-.5-.6-1-1-1.4l.5-.3c.5.5.9 1.1 1.1 1.8.3.7.4 1.4.4 2.1l-1.4 5.6h-8.8l-1.4-5.6c0-.7.1-1.4.4-2 .3-.8.7-1.5 1.3-2.1z"/><path d="m55.7 47.1h-.6c-.6 0-1.1-.5-1.1-1.1v-2.1c0-.6.5-1.1 1.1-1.1h.2c.2 0 .3.1.3.3s-.1.3-.3.3h-.2c-.3 0-.6.3-.6.6v2.1c0 .3.3.6.6.6h.6c.2 0 .3.1.3.3 0-.1-.1.1-.3.1"/><path d="m66.6 47.1h-.6c-.2 0-.3-.1-.3-.3 0-.1.1-.3.3-.3h.6c.3 0 .6-.3.6-.6v-2.1c0-.3-.3-.6-.6-.6h-.2c-.2 0-.3-.1-.3-.3s.1-.3.3-.3h.2c.6 0 1.1.5 1.1 1.1v2.1c0 .8-.5 1.3-1.1 1.3"/><path d="m55.4 43.8c-.1 0-.1 0-.2-.1s-.1-.3 0-.4c1.5-1.6 3.6-2.5 5.8-2.5 2.1 0 4 .8 5.5 2.2.1.1.1.3 0 .4s-.3.1-.4 0c-1.4-1.3-3.2-2.1-5.2-2.1s-4 .8-5.4 2.3c0 .2-.1.2-.1.2"/><path d="m65.6 47.9h-9.5c-.2 0-.3-.1-.3-.3 0-.1.1-.3.3-.3h9.5c.2 0 .3.1.3.3s-.1.3-.3.3"/></g><path fill="#fff" d="m62.8 43c0 .5-.4 1-1 1-.5 0-1-.4-1-1 0-.5.4-1 1-1s1 .4 1 1"/><path fill="#fff" d="m63.5 44.4c0 .2-.2.4-.4.4s-.4-.2-.4-.4.2-.4.4-.4.4.2.4.4"/><path d="m59.4 48.2c.3.6.9 1 1.5 1s1.3-.4 1.5-.9" style="fill:none;stroke:#0e2947;stroke-width:.25;stroke-linecap:round;stroke-linejoin:round;stroke-miterlimit:10"/><path fill="url(#p)" d="m54.5 39.6c.7.1 3.6 1.5 5.5 1.7 1.1.1 3.2.6 6.2-1.2.4-.2.8-.6 1.3-.6 0 0-.1-.4-.6-.3-1.1.4-2.2 1.8-5.7 1.7-3.4-.1-5.9-1.4-5.9-1.4s-.6-.3-.8-.3c-.1.1-.2.4 0 .4z"/><path fill="url(#q)" d="m67.4 39.5c-.6.1-1 .5-1.5.8s-1 .6-1.5.8c-1.1.4-2.3.6-3.4.5-.6-.1-1.1-.1-1.7-.2s-1.1-.3-1.6-.5-1-.4-1.6-.6c-.5-.2-1-.5-1.6-.6 1.1.1 2.2.6 3.3.9.5.1 1.1.3 1.6.4s1.1.1 1.6.2c1.1.1 2.2 0 3.2-.4.5-.2 1-.4 1.5-.6.6-.4 1.1-.7 1.7-.7z"/><path fill="#002842" d="m67.4 39.5c-.6.1-.9.6-1.4.9s-1 .6-1.5.8c-1.1.4-2.3.6-3.4.5-.6-.1-1.1-.1-1.7-.2s-1.1-.3-1.6-.5-1-.4-1.6-.7c-.5-.2-1-.5-1.6-.6 1.1.1 2.2.6 3.2.9.5.2 1.1.3 1.6.4s1.1.1 1.7.2c1.1.1 2.2 0 3.2-.4.5-.2 1-.4 1.5-.6.5-.3 1-.7 1.6-.7z"/><path fill="#25e899" d="m64.4 53.6h-7c-.2 0-.3-.1-.3-.3s.1-.3.3-.3h7c.2 0 .3.1.3.3s-.1.3-.3.3"/></g><path fill="#fff" stroke="#0e2947" stroke-miterlimit="10" stroke-width=".25" d="m88.2 49.1c1.1 0 2.1.1 3.2.2 2.9.3 3.7-.8 6.2-1.2 1-.1 3.7.4 5.3-.5.9-.5.6.8.6 1.4 0 2.1.4 4.2 1.2 6.2.6 1.5 1.3 3.4.5 5 0 0-3.3-2.2-8.9-.9-2.2.5-4.6 2-5.5.8-.6-.9-.8-2.3-1.1-3.4-.4-1.7-.8-3.3-1.1-5-.1-.8-.5-1.9-.4-2.6z"/><path fill="#e92c25" d="m89 50s2.7.7 5.2-.3c1.8-.7 3.3-1.1 5.7-.9 3 .2 3.8 0 4.3-.1l-.1.9s-3.2 0-4-.1-3.9.1-5.8.9c-2.2 1-4.4.6-5.3.2-.7-.3 0-.6 0-.6z" clip-path="url(#r)"/><path fill="#e92c25" d="m89.4 51.7s2.7.7 5.2-.3c1.8-.7 3.3-1.1 5.7-.9 3 .2 3.8 0 4.3-.1l-.1.9s-3.2 0-4-.1-3.9.1-5.8.9c-2.2 1-4.4.6-5.3.2-.7-.3 0-.6 0-.6z" clip-path="url(#r)"/><path fill="#e92c25" d="m89.8 53.4s2.7.7 5.2-.3c1.8-.7 3.3-1.1 5.7-.9 3 .2 3.8 0 4.3-.1l-.1.9s-3.2 0-4-.1-3.9.1-5.8.9c-2.2 1-4.4.6-5.3.2-.7-.3 0-.6 0-.6z" clip-path="url(#r)"/><path fill="#e92c25" d="m90.1 55.1s2.7.7 5.2-.3c1.8-.7 3.3-1.1 5.7-.9 3 .2 3.8 0 4.3-.1l-.1.9s-3.2 0-4-.1-3.9.1-5.8.9c-2.2 1-4.4.6-5.3.2-.7-.3 0-.6 0-.6z" clip-path="url(#r)"/><path fill="#e92c25" d="m90.4 56.5s2.7.7 5.2-.3c1.8-.7 3.3-1.1 5.7-.9 3 .2 3.8.1 4.3-.1v1.3s-3.3-.2-4-.3c-.8-.1-3.9 0-5.8.8-2.2 1-4.4.5-5.3.1-.7-.2-.1-.6-.1-.6z" clip-path="url(#r)"/><path fill="#e92c25" d="m90.4 58.5s2.7.4 5.2-.5c6-2.2 8.3 0 10.2-.3v1.3s-5.4-2-10-.1c-2.9 1.2-4.4.7-5.3.3-.8-.4-.1-.7-.1-.7z" clip-path="url(#r)"/><path fill="#2a294f" fill-opacity=".52" d="m89.9 48.4c.3.2.5.9.6 1.2.2.5.4 1.1.5 1.6.4 1.5.6 3 1.4 4.3.5.8 1.1 1.5 1.5 2.3.2.4.3.8 0 1.2-.3.5-2.4.4-1.5 1.1-1.2.2-1.1-.2-1.2-.5s-.1-.7-.2-1l-4.1-9.6c.4-.1.8-.2 1.2-.3.4 0 1.4-.4 1.8-.3z" clip-path="url(#r)" opacity=".8"/><path d="m90.8 59c.7-1.2 3.3-.4 1.9.2-.2.1-1.8.6-1.2 1.2 0 0-.6 0-1-1.2 0-.1.2-.1.3-.2z" style="fill:#bbbbba;stroke:#0e2947;stroke-width:.1;stroke-linecap:round;stroke-linejoin:round;stroke-miterlimit:10"/><use fill="#fff" xlink:href="#aA"/><path fill="#3b48e2" d="m83.1 56.6s1.5-.1 3.1-1.3 2.9-2.1 4.2-2.1-1.6-5.6-1.6-5.6l-1.8-.4-3.3 1.8-3.4 1.2 2.4 6.6z" clip-path="url(#s)"/><use style="fill:none;stroke:#0e2947;stroke-width:.25;stroke-linecap:round;stroke-linejoin:round;stroke-miterlimit:10" xlink:href="#aA"/><circle cx="86.5" cy="70.7" r="1.4" style="fill:#d1d3d4;stroke:#0e2947;stroke-width:.5;stroke-linecap:round;stroke-linejoin:round;stroke-miterlimit:10"/><use fill="#d6d6ea" xlink:href="#aB"/><path fill="#bcbec0" d="m86.8 68.3c0 1 .5 1.9 1.2 2.6.3.3.6.5 1 .5.4.1.8-.1 1-.4.2-.4.1-.9-.1-1.3-.3-.6-.6-1.2-1-1.6-.8-.6-2.2-1.3-2.1.2z" clip-path="url(#t)"/><use fill="none" stroke="#0e2947" stroke-miterlimit="10" stroke-width=".5" xlink:href="#aB"/><path fill="#e92c25" d="m82.7 57.2c.1.2.8.1 1 .1.5 0 .9-.1 1.3-.3 1-.5 1.8-1.3 2.7-1.9s1.9-.9 2.9-1.1c.1 0 .8 1 .3 1-.6-.1-1.5 0-2.6.8-2.6 1.9-3.9 2.6-5.1 2.3 0 0-.5-.9-.5-.9z" clip-path="url(#u)"/><path fill="#e92c25" d="m83 58.7c.1.2.8.1 1 .1.5 0 1-.1 1.4-.3 1.1-.5 2-1.3 3-1.9s2.2-1 3.4-1.2h.4c.4.2.1 1 .3 1.2 0 0-1.3-1-3.5.7-2.7 2-4.3 2.5-5.5 2.2 0 0-.5-.8-.5-.8z" clip-path="url(#u)"/><path fill="#e92c25" d="m83.7 60.2c.1.2.8.1 1 .1.5 0 1-.1 1.4-.3 1.1-.5 2.1-1.4 3-2.1 1.3-.8 2.1-1.2 3.4-1h.4c.4.2.1 1 .3 1.2 0 0-1.3-1.1-3.6.6-2.7 2-4.3 2.6-5.5 2.3.1.1-.4-.8-.4-.8z" clip-path="url(#u)"/><path fill="#bec5ce" stroke="#0e2947" stroke-miterlimit="10" stroke-width=".25" d="m90.2 75.4c-.2 0-.4-.1-.5-.2l-9.7-24.5c-.1-.2 0-.4.2-.5s.4 0 .5.2l9.7 24.5c.2.1.1.4-.2.5.1 0 .1 0 0 0z"/><g fill="#fff"><path d="m81.9 50.9-.1.1.1.1h-.1l-.1.1v-.1h-.1l.1-.1v-.1l.1.1z"/><path d="m82.9 50.8-.1.1.1.1h-.1l-.1.1v-.1h-.1l.1-.1v-.1l.1.1.1-.1c-.1 0 0 0 0 0z"/><path d="m83.8 50.6-.1.1.1.1h-.1l-.1.2v-.1h-.1l.1-.1v-.1l.1.1z"/><path d="m84.7 50.2-.1.1.1.1h-.1l-.1.1v-.1h-.1l.1-.1v-.1l.1.1.1-.1c0-.1 0 0 0 0z"/><path d="m86.4 49-.1.1.1.1h-.1l-.1.1v-.1h-.1l.1-.1v-.1l.1.1.1-.1c0-.1 0-.1 0 0z"/><path d="m85.5 49.6-.1.1.1.1h-.1l-.1.2v-.1h-.1l.1-.1v-.1l.1.1z"/><path d="m87.3 48.4-.1.1.1.1h-.1l-.2.2v-.1h-.1l.1-.1v-.1l.1.1z"/><path d="m88.2 48.1-.1.1.1.1h-.1l-.1.2v-.1h-.1l.1-.1v-.1l.1.1z"/><path d="m82.3 52.1-.1.1.1.1h-.1l-.1.1v-.1h-.1l.1-.1v-.1l.1.1z"/><path d="m83.3 52-.1.1.1.1h-.1l-.2.1v-.1h-.1l.1-.2v-.1l.1.1h.2c0-.1 0-.1 0 0z"/><path d="m84.2 51.7-.1.1.1.1h-.1l-.1.2v-.1h-.1l.1-.1v-.1l.1.1z"/><path d="m85.1 51.2-.1.1.1.1h-.1l-.1.1v-.1h-.1l.1-.1v-.1l.1.1z"/><path d="m86.8 50-.1.1.1.1h-.1l-.1.1v-.1h-.1l.1-.1v-.1l.1.1z"/><path d="m85.9 50.7-.1.1.1.1h-.1l-.1.1v-.1h-.1l.1-.1v-.1l.1.1.1-.1c0-.1 0-.1 0 0z"/><path d="m87.7 49.5-.1.1.1.1h-.1l-.1.1v-.1h-.1l.1-.1v-.1l.1.1z"/><path d="m88.6 49.2-.1.1.1.1h-.1l-.1.1v-.1h-.1l.1-.1v-.1l.1.1z"/><path d="m82.7 53.3-.1.1.1.1h-.1l-.1.1v-.1h-.1l.1-.1v-.1l.1.1.1-.1c0-.1 0 0 0 0z"/><path d="m83.7 53.1-.1.1.1.1h-.1l-.1.1v-.1h-.1l.1-.1v-.1l.1.1z"/><path d="m84.6 52.8v.2l.1.1h-.1l-.1.1v-.1h-.1l.1-.1v-.1l.1.1z"/><path d="m85.5 52.3-.1.1.1.1h-.1l-.1.1v-.1h-.1l.1-.1v-.1l.1.1z"/><path d="m87.2 51.1-.1.1.1.1h-.1l-.1.2v-.1h-.1l.1-.1v-.1l.1.1z"/><path d="m86.3 51.7-.1.1.1.1h-.1l-.1.1v-.1h-.1l.1-.1v-.1l.1.1z"/><path d="m88.1 50.6-.1.1.1.1h-.1l-.1.2v-.1h-.1l.1-.1v-.1l.1.1z"/><path d="m89.1 50.3-.1.2.1.1h-.1l-.1.1v-.1h-.1l.1-.1v-.1l.1.1.1-.2c-.1 0 0 0 0 0z"/><path d="m83.1 54.4-.1.1.1.1h-.1l-.1.1v-.1h-.1l.1-.1v-.1l.1.1z"/><path d="m84.1 54.3-.1.1.1.1h-.1l-.1.1v-.1h-.1l.1-.1v-.1l.1.1z"/><path d="m85 54v.1l.1.1h-.1l-.1.1v-.1h-.1l.1-.1v-.1l.1.1v-.1c0-.1 0-.1 0 0z"/><path d="m85.9 53.4-.1.1.1.1h-.1l-.1.1v-.1h-.1l.1-.1v-.1l.1.1.1-.1c0-.1 0 0 0 0z"/><path d="m87.6 52.2-.1.1.1.1h-.1l-.1.1v-.1h-.1l.1-.1v-.1l.1.1.1-.1c0-.1 0 0 0 0z"/><path d="m86.7 52.8-.1.1.1.1h-.1l-.1.1v-.1h-.1l.1-.1v-.1l.1.1z"/><path d="m88.5 51.7-.1.1.1.1h-.1l-.1.1v-.1h-.1l.1-.1v-.1l.1.1z"/><path d="m89.5 51.4-.1.1.1.1h-.1l-.1.1v-.1h-.1l.1-.1v-.1l.1.1z"/><path d="m83.5 55.6-.1.1.1.1h-.1l-.1.2v-.1h-.1l.1-.1v-.1l.1.1z"/><path d="m84.5 55.5-.1.1.1.1h-.1l-.1.1v-.1h-.1l.1-.1v-.1l.1.1z"/><path d="m85.4 55.1-.1.1.1.1h-.1l-.1.1v-.1h-.1l.1-.1v-.1l.1.1.1-.1c0-.1 0 0 0 0z"/><path d="m86.3 54.4-.1.1.1.1h-.1l-.2.2v-.1h-.1l.1-.1v-.1l.1.1z"/><path d="m88 53.2-.1.1.1.1h-.1l-.1.1v-.1h-.1l.1-.1v-.1l.1.1z"/><path d="m87.1 53.9-.1.1.1.1h-.1l-.1.1v-.1h-.1l.1-.1v-.1l.1.1.1-.1c0-.1 0 0 0 0z"/><path d="m88.9 52.8-.1.1.1.1h-.1l-.1.1v-.1h-.1l.1-.1v-.1l.1.1.1-.1c0-.1 0 0 0 0z"/><path d="m89.9 52.5-.1.1.1.1h-.1l-.1.1v-.1h-.1l.1-.1v-.1l.1.1z"/></g><path fill="#ddd6ce" d="m80.4 50.2s.1-.3.6.3l9.6 24.5-.4.3z"/><path fill="#eff4ee" d="m87.2 67.3 1.8-.9c.3-.1.6 0 .7.2l.2.4c.1.3 0 .6-.2.7l-1.8.9"/><path fill="#0e2947" d="m87.1 67.4c0-.1 0-.2.1-.3l1.8-.9c.4-.2.8 0 1 .3l.2.4c.2.4 0 .8-.3 1l-1.9.9c-.1 0-.2 0-.3-.1 0-.1 0-.2.1-.3l1.8-.9c.1-.1.2-.3.1-.4l-.2-.4c-.1-.2-.3-.2-.4-.1l-1.8.9c-.1.1-.2 0-.2-.1"/><path fill="#25e899" d="m87.2 67.3c-.4.2-.5.6-.3 1s.6.5 1 .3.5-.6.3-1c-.2-.3-.6-.4-1-.3"/><path fill="#0e2947" d="m86.7 68.4c-.2-.5 0-1 .4-1.2.5-.2 1 0 1.2.4.2.5 0 1-.4 1.2s-.9 0-1.2-.4m1.3-.7c-.1-.3-.4-.4-.7-.2-.3.1-.4.4-.2.7.1.3.4.4.7.2.2-.1.4-.4.2-.7"/><path fill="#eff4ee" d="m88.1 69 1.8-.9c.3-.1.6 0 .7.2l.2.4c.1.3 0 .6-.2.7l-1.8.9"/><path fill="#0e2947" d="m88 69c0-.1 0-.2.1-.3l1.8-.9c.4-.2.8 0 1 .3l.2.4c.2.4 0 .8-.3 1l-1.8.9c-.1 0-.2 0-.3-.1 0-.1 0-.2.1-.3l1.8-.9c.1-.1.2-.3.1-.4l-.2-.4c-.1-.2-.3-.2-.4-.1l-1.8.9c-.2.1-.3 0-.3-.1"/><path fill="#25e899" d="m88.1 69c-.4.2-.5.6-.3 1s.6.5 1 .3.5-.6.3-1-.6-.5-1-.3"/><path fill="#0e2947" d="m87.6 70c-.2-.5 0-1 .4-1.2.5-.2 1 0 1.2.4.2.5 0 1-.4 1.2-.4.3-.9.1-1.2-.4m1.3-.6c-.1-.3-.4-.4-.7-.2-.3.1-.4.4-.2.7.1.3.4.4.7.2s.4-.5.2-.7"/><path fill="#eff4ee" d="m89.1 70.2 1.7-1.1c.2-.2.5-.1.7.1l.2.4c.2.2.1.6-.1.7l-1.7 1.1"/><path fill="#0e2947" d="m89 70.3c-.1-.1 0-.2.1-.3l1.7-1.1c.3-.2.8-.1 1 .2l.2.4c.2.3.1.8-.2 1l-1.8 1.1c-.1.1-.2 0-.3-.1s0-.2.1-.3l1.7-1.1c.1-.1.2-.3.1-.4l-.2-.4c-.1-.1-.3-.2-.4-.1l-1.7 1.1c-.1.1-.3.1-.3 0"/><path fill="#25e899" d="m89.1 70.2c-.3.2-.4.7-.2 1s.7.4 1 .2.4-.7.2-1-.6-.4-1-.2"/><path fill="#0e2947" d="m88.7 71.3c-.3-.4-.2-1 .3-1.3.4-.3 1-.2 1.3.3.3.4.2 1-.3 1.3-.4.3-1 .1-1.3-.3m1.3-.8c-.2-.2-.5-.3-.7-.2-.2.2-.3.5-.2.7.2.2.5.3.7.2.3-.1.3-.4.2-.7"/><path d="m63.5 86.7 3 2.2s1.4-1.2 1.7-1.4l.8 1.4 2.9-1.7 2.2-9-11.9-.3z" style="fill:#054978;stroke:#0e2947;stroke-width:.25;stroke-linecap:round;stroke-linejoin:round;stroke-miterlimit:10"/><path fill="#022030" d="m62.4 79.3s3.5 7 7.6 3.5c4-3.5 2.2-5.4 2.2-5.4s-2.6-3.5-4.6-2.6-5.2 4.5-5.2 4.5z" opacity=".38"/><path d="m62.4 78.7s3.5 7 7.6 3.5c4-3.5 2.2-5.4 2.2-5.4s-2.6-3.5-4.6-2.6-5.2 4.5-5.2 4.5z" style="fill:#fff;stroke:#0e2947;stroke-width:.25;stroke-linecap:round;stroke-linejoin:round;stroke-miterlimit:10"/><use fill="#f1f2f2" xlink:href="#aC"/><path fill="#ed1c24" d="m69.7 77.1h.4v18.8h-.4z" clip-path="url(#v)"/><path fill="#ed1c24" d="m68.7 77.1h.4v18.8h-.4z" clip-path="url(#v)"/><path fill="#ed1c24" d="m70.8 77.1h.4v18.8h-.4z" clip-path="url(#v)"/><path fill="#ed1c24" d="m71.8 77.1h.4v18.8h-.4z" clip-path="url(#v)"/><path fill="#ed1c24" d="m72.8 77.1h.4v18.8h-.4z" clip-path="url(#v)"/><use style="fill:none;stroke:#0e2947;stroke-width:.25;stroke-linecap:round;stroke-linejoin:round;stroke-miterlimit:10" xlink:href="#aC"/><path fill="#0e2947" d="m69.2 97.4c0-1.4 1.1-2.5 2.5-2.5s2.5 1.1 2.5 2.5z"/><use fill="#f1f2f2" xlink:href="#aD"/><path fill="#ed1c24" d="m62.4 77.1h.4v18.8h-.4z" clip-path="url(#w)"/><path fill="#ed1c24" d="m63.5 77.1h.4v18.8h-.4z" clip-path="url(#w)"/><path fill="#ed1c24" d="m64.5 77.1h.4v18.8h-.4z" clip-path="url(#w)"/><path fill="#ed1c24" d="m65.6 77.1h.4v18.8h-.4z" clip-path="url(#w)"/><path fill="#ed1c24" d="m66.6 77.1h.4v18.8h-.4z" clip-path="url(#w)"/><use style="fill:none;stroke:#0e2947;stroke-width:.25;stroke-linecap:round;stroke-linejoin:round;stroke-miterlimit:10" xlink:href="#aD"/><path fill="#0e2947" d="m61.9 97.4c0-1.4 1.1-2.5 2.5-2.5s2.5 1.1 2.5 2.5z"/><path d="m61.3 76.4v6.6l6.6-4.7v-10.6h-6.6z" style="fill:#fff;stroke:#0e2947;stroke-width:.25;stroke-linecap:round;stroke-linejoin:round;stroke-miterlimit:10"/><path d="m74.5 76.4v6.6l-6.6-4.7v-9.5l6.6-1.1z" style="fill:#fff;stroke:#0e2947;stroke-width:.25;stroke-linecap:round;stroke-linejoin:round;stroke-miterlimit:10"/><circle cx="68.7" cy="72.8" r=".3" fill="#0e2947"/><circle cx="68.7" cy="73.8" r=".3" fill="#0e2947"/><circle cx="68.7" cy="74.7" r=".3" fill="#0e2947"/><path d="m84.4 70.4.8-.6s1.1 2.1 1.4 2.5l-1 .7z" style="fill:#fff;stroke:#0e2947;stroke-width:.25;stroke-linecap:round;stroke-linejoin:round;stroke-miterlimit:10"/><path d="m78.6 77.2-.6.3c-.6.4-1.4.1-1.7-.5l-4.5-7.7 2.8-1.6 4.5 7.7c.3.6.1 1.4-.5 1.8z" style="fill:#054978;stroke:#0e2947;stroke-width:.25;stroke-linecap:round;stroke-linejoin:round;stroke-miterlimit:10"/><path d="m84.2 70.3 1.7 2.7-7.6 4.6c-.6.4-1.4.2-1.8-.4l-.3-.6c-.4-.6-.2-1.4.4-1.8z" style="fill:#054978;stroke:#0e2947;stroke-width:.25;stroke-linecap:round;stroke-linejoin:round;stroke-miterlimit:10"/><path d="m55.1 76.3-.5-.5c-.5-.5-.5-1.3 0-1.8l6.3-6.3 2.3 2.3-6.3 6.3c-.5.5-1.3.5-1.8 0z" style="fill:#054978;stroke:#0e2947;stroke-width:.25;stroke-linecap:round;stroke-linejoin:round;stroke-miterlimit:10"/><path d="m70.2 66.7s-1.6 6.7.7 11.7c.5 1.1 1 2.2 1.2 3.4.4 1.8 1 4.4 1.1 5.7 0 0 1.2.2 1.3-.5s.2-19.3.2-19.3-3.9-2.3-4.5-1z" style="fill:#054978;stroke:#0e2947;stroke-width:.25;stroke-linecap:round;stroke-linejoin:round;stroke-miterlimit:10"/><path d="m70.4 66.4s2 .5 3.1 3.6l-1.8.9 1.4.6s-.4 6.1-2 7.4c0 0-1.2-2-1.5-6.8-.2-4.7.8-5.7.8-5.7z" style="fill:#0a3e5b;stroke:#0e2947;stroke-width:.25;stroke-linecap:round;stroke-linejoin:round;stroke-miterlimit:10"/><path d="m65.5 66.7s1.6 6.7-.7 11.7c-.5 1.1-1 2.2-1.2 3.4-.4 1.8-1 4.4-1.1 5.7 0 0-1.2.2-1.3-.5s-.2-19.3-.2-19.3 3.8-2.3 4.5-1z" style="fill:#054978;stroke:#0e2947;stroke-width:.25;stroke-linecap:round;stroke-linejoin:round;stroke-miterlimit:10"/><path d="m65.2 66.4s-2 .5-3.1 3.6l1.8.9-1.4.6s.4 6.1 2 7.4c0 0 1.2-2 1.5-6.8.3-4.7-.8-5.7-.8-5.7z" style="fill:#0a3e5b;stroke:#0e2947;stroke-width:.25;stroke-linecap:round;stroke-linejoin:round;stroke-miterlimit:10"/><circle cx="61.7" cy="82.1" r="1.1" style="fill:#d1d3d4;stroke:#0e2947;stroke-width:.5;stroke-linecap:round;stroke-linejoin:round;stroke-miterlimit:10"/><path fill="#0e2947" d="m62.8 85c-.1 0-.2 0-.2-.1l-1-1.7c0-.1 0-.2.1-.2s.2 0 .2.1l1 1.7c0 .1 0 .2-.1.2"/><path fill="#eff4ee" d="m63.2 86.8-.7-1.3c-.1-.2 0-.4.2-.5l.3-.2c.2-.1.4 0 .5.2l.7 1.3"/><path fill="#0e2947" d="m64.2 86.4c-.1 0-.2 0-.2-.1l-.7-1.3c-.1-.1-.2-.2-.3-.1l-.3.2c-.1.1-.2.2-.1.3l.7 1.3c0 .1 0 .2-.1.2s-.2 0-.2-.1l-.7-1.3c-.1-.3 0-.6.2-.7l.3-.2c.3-.1.6 0 .7.2l.7 1.3c.1.2.1.3 0 .3"/><path fill="#25e899" d="m64.2 86.3c-.1-.3-.5-.4-.8-.2-.3.1-.4.5-.2.8.1.3.5.4.8.2.2-.2.3-.6.2-.8"/><path fill="#0e2947" d="m64 87.2c-.3.2-.8.1-1-.3-.2-.3-.1-.8.3-1 .3-.2.8-.1 1 .3.2.3.1.8-.3 1m-.5-1c-.2.1-.3.3-.2.5s.3.3.5.2.3-.3.2-.5-.3-.3-.5-.2"/><path fill="#0e2947" d="m64.3 84.2c-.1.1-.2.1-.2 0l-1.6-1.2c-.1-.1-.1-.2 0-.2.1-.1.2-.1.2 0l1.5 1.3c.1-.1.2 0 .1.1"/><path fill="#eff4ee" d="m65.3 85.7-1.2-1c-.2-.1-.2-.4-.1-.5l.2-.3c.1-.2.4-.2.5-.1l1.2 1"/><path fill="#0e2947" d="m66.1 85c-.1.1-.2.1-.2 0l-1.2-1c-.1-.1-.2-.1-.3 0l-.2.3c-.1.1-.1.2 0 .3l1.2 1c.1.1.1.2 0 .2-.1.1-.2.1-.2 0l-1.2-1c-.2-.2-.3-.5-.1-.8l.2-.3c.2-.2.5-.3.8-.1l1.2 1c.1.2.1.3 0 .4"/><path fill="#25e899" d="m66 84.9c-.2-.2-.6-.2-.8.1-.2.2-.2.6.1.8.2.2.6.2.8-.1s.2-.6-.1-.8"/><path fill="#0e2947" d="m66.2 85.8c-.2.3-.7.4-1 .1-.3-.2-.3-.7-.1-1s.7-.4 1-.1c.3.2.4.7.1 1m-.8-.7c-.1.2-.1.4.1.6.2.1.4.1.6-.1.1-.2.1-.4-.1-.6-.2-.1-.5-.1-.6.1"/><path fill="#0e2947" d="m65.1 82.6c0 .1-.1.1-.2.1l-2-.3c-.1 0-.1-.1-.1-.2s.1-.1.2-.1l2 .3c.1 0 .2.1.1.2"/><path fill="#eff4ee" d="m66.8 83.4-1.5-.2c-.2 0-.4-.2-.3-.4v-.3c0-.2.2-.4.4-.3l1.5.2"/><path fill="#0e2947" d="m67.1 82.3c0 .1-.1.1-.2.1l-1.5-.2c-.1 0-.2.1-.3.2v.3c0 .1.1.2.2.3l1.5.2c.1 0 .1.1.1.2s-.1.1-.2.1l-1.5-.2c-.3 0-.5-.3-.5-.6v-.3c0-.3.3-.5.6-.5l1.5.2c.3.1.3.1.3.2"/><path fill="#25e899" d="m67 82.3c-.3 0-.6.2-.6.5s.2.6.5.6.6-.2.6-.5-.2-.6-.5-.6"/><path fill="#0e2947" d="m67.6 83c-.1.4-.4.7-.8.6s-.7-.4-.6-.8.4-.7.8-.6c.4 0 .7.4.6.8m-1.1-.2c0 .2.1.4.3.5.2 0 .4-.1.5-.3 0-.2-.1-.4-.3-.5-.3-.1-.5.1-.5.3"/><path fill="#d6d6ea" stroke="#0e2947" stroke-miterlimit="10" stroke-width=".25" d="m62.5 84.4 1.8-2c.2-.2.1-.5-.2-.6l-1.5-.5c-.4-.1-.8 0-1 .3l-.3.3c-.3.3-.3.7-.1 1.1l.7 1.3c.1.3.4.3.6.1z"/><path fill="#bdbde5" d="m63.9 82.2-1.7-.7-.5.3 1.5 1.1z"/><path fill="#c5c5ea" d="m62 84.3-.8-1.4s0-.1-.1-.2 0-.1.1-.1 1 1.7 1 1.7c0 .1-.2.1-.2 0z"/><circle cx="61.7" cy="82" r=".7" fill="#25e899" stroke="#0e2947" stroke-miterlimit="10" stroke-width=".25"/><path d="m62.1 80.2-2.3 1.9-5.2-6.4c-.4-.5-.3-1.3.2-1.7l.5-.4c.5-.4 1.3-.3 1.7.2z" style="fill:#054978;stroke:#0e2947;stroke-width:.25;stroke-linecap:round;stroke-linejoin:round;stroke-miterlimit:10"/><path d="m61.9 80.2.7.6s-1.6 1.4-1.9 1.8l-.9-.7z" style="fill:#fff;stroke:#0e2947;stroke-width:.25;stroke-linecap:round;stroke-linejoin:round;stroke-miterlimit:10"/><path d="m67.2 70.8-.6.3.8-2.9.7.2z" style="fill:#ff0013;stroke:#0e2947;stroke-width:.1;stroke-linecap:round;stroke-linejoin:round;stroke-miterlimit:10"/><path d="m68.5 70.7.7.4-.8-2.9-.7.2z" style="fill:#ff0013;stroke:#0e2947;stroke-width:.1;stroke-linecap:round;stroke-linejoin:round;stroke-miterlimit:10"/><path d="m68.5 66.6h2.7v2.7h-2.7z" transform="matrix(.7071 -.7071 .7071 .7071 -27.5769 69.292)" style="fill:#ff0013;stroke:#0e2947;stroke-width:.25;stroke-linecap:round;stroke-linejoin:round;stroke-miterlimit:10"/><path d="m64.6 66.5h2.7v2.7h-2.7z" transform="matrix(.7071 -.7071 .7071 .7071 -28.698 66.5062)" style="fill:#ff0013;stroke:#0e2947;stroke-width:.25;stroke-linecap:round;stroke-linejoin:round;stroke-miterlimit:10"/><path fill="#3f060d" d="m66.3 67.9.7.7.2-.1.7.6.7-.6.2.1.7-.7-.7-.7-.2.2-.7-.6-.6.6-.2-.2z" opacity=".32"/><path d="m66.4 67.7 3.1.5" style="fill:none;stroke:#0e2947;stroke-width:.25;stroke-linecap:round;stroke-linejoin:round;stroke-miterlimit:10"/><path d="m66.4 68.3 3-.7" style="fill:none;stroke:#0e2947;stroke-width:.25;stroke-linecap:round;stroke-linejoin:round;stroke-miterlimit:10"/><path d="m66.4 67.9h3.1" style="fill:none;stroke:#0e2947;stroke-width:.25;stroke-linecap:round;stroke-linejoin:round;stroke-miterlimit:10"/><path d="m67.1 67.1h1.6v1.6h-1.6z" transform="matrix(.7071 -.7071 .7071 .7071 -28.1457 67.919)" style="fill:#ff0013;stroke:#0e2947;stroke-width:.25;stroke-linecap:round;stroke-linejoin:round;stroke-miterlimit:10"/><g transform="translate(7 12)"><path fill="#d6d6ea" d="m39.3 40.1c.2.4.3.8.3 1.3 0 .4.1.8 0 1.3s-.3.8-.6 1.1c-.2.1-.5.2-.7.3-.3.2-.5.4-.8.6-.5.3-1.1.3-1.6.3s-1.1 0-1.7 0h-7.2c.1-.2.1-.4.1-.6s-.1-.4-.3-.4c-.2-.1-.4.1-.6.1-.3 0-.6-.2-.8-.5-.1-.3-.2-.6-.2-.9-.1-.9-.1-1.8.4-2.5.2-.2.4-.4.7-.4s.5.4.4.6c0-.6.9-3.4 1.4-3 .2.1 1.6-1.6 2.8-1.6 1.1-.1 2.5.3 3.5.2.5-.1 2.2 1.8 2.7 2s.5 2 1 1.9c.6-.3 1-.2 1.2.2z"/><path fill="#25e899" d="m27.4 44.8h10.2v.3l-.6 2.1h-9z"/><path fill="#d6d6ea" d="m35.7 49.9h-6.5c-.7 0-1.3-.6-1.3-1.3v-1.4h9v1.4c.1.7-.5 1.3-1.2 1.3"/><path fill="#0e2947" d="m35.7 50.1h-6.5c-.9 0-1.6-.7-1.6-1.6v-1.7h9.6v1.7c.1.9-.6 1.6-1.5 1.6zm-7.4-2.6v1.1c0 .5.4 1 1 1h6.5c.5 0 1-.4 1-1v-1.1z"/><path fill="#0fce7c" stroke="#0e2947" stroke-miterlimit="10" stroke-width=".25" d="m32.4 43.9c-1.7 0-3.3-1.3-3.3-3.1 0-.8.3-1.6.8-2.2.6-.8 4.5-.8 5.2-.1.5.6.9 1.4.9 2.3 0 .4-.1.8-.2 1.1-.4 1.2-1.7 2-3.1 2z"/><path fill="#fff" d="m34.3 39.7c0 .5-.4.9-.9.9s-.9-.4-.9-.9.4-.9.9-.9.9.4.9.9"/><path fill="#fff" d="m34.9 41c0 .2-.2.4-.4.4s-.4-.2-.4-.4.2-.4.4-.4c.2.1.4.2.4.4"/><g fill="#0e2947"><path d="m28.8 37.1c-.7.6-1.3 1.4-1.6 2.3-.2.6-.4 1.3-.4 2l1.4 5.5h8.5l1.4-5.5c0-.8-.2-1.6-.5-2.3-.3-.6-.6-1.1-1-1.5l.5-.3c.5.6.9 1.2 1.2 1.9s.4 1.5.4 2.3l-1.5 6h-9.5l-1.5-6.1c0-.8.1-1.5.4-2.2.3-.8.8-1.6 1.4-2.2zm8.4 10.4h-9.5l-1.5-6.1c0-3.5 2.8-6.3 6.3-6.3s6.3 2.8 6.3 6.3zm-9-.6h8.6l1.4-5.6c0-3.1-2.6-5.7-5.7-5.7s-5.7 2.5-5.7 5.7z"/><path d="m27 44.2h-.6c-.7 0-1.2-.5-1.2-1.2v-2.3c0-.7.5-1.2 1.2-1.2h.3c.2 0 .3.1.3.3s-.1.3-.3.3h-.3c-.3 0-.6.3-.6.6v2.3c0 .3.3.6.6.6h.6c.2 0 .3.1.3.3 0 .1-.2.3-.3.3"/><path d="m38.6 44.2h-.6c-.2 0-.3-.1-.3-.3s.1-.3.3-.3h.6c.3 0 .6-.3.6-.6v-2.3c0-.3-.3-.6-.6-.6h-.3c-.2 0-.3-.1-.3-.3s.1-.3.3-.3h.3c.7 0 1.2.5 1.2 1.2v2.3c0 .6-.5 1.2-1.2 1.2"/><path d="m26.6 41c-.1 0-.1 0-.2-.1s-.1-.3 0-.4c1.7-1.7 3.9-2.6 6.2-2.6 2.2 0 4.3.8 5.9 2.4.1.1.1.3 0 .4s-.3.1-.4 0c-1.5-1.4-3.5-2.2-5.5-2.2-2.2 0-4.2.9-5.8 2.5 0-.1-.1 0-.2 0"/><path d="m37.6 45h-10.2c-.2 0-.3-.1-.3-.3s.1-.3.3-.3h10.2c.2 0 .3.1.3.3s-.2.3-.3.3"/></g><use fill="#ff0013" xlink:href="#aE"/><path fill="#fff" d="m27.9 43.9c.1 0 .2-.1.2-.2.3-.3.7-.5 1-.8l.2-.2c0-.1 0-.2-.1-.2-.3.2-.5.5-.8.7-.1.1-.3.2-.4.3s-.2.1-.3.3c0 .2.1.2.2.1z" clip-path="url(#x)"/><path fill="#0082ff" d="m27.9 42.8c-.1.1-.1.1-.2.1s-.2 0-.3 0c0-.1-.1-.3-.1-.4s0-.3.1-.4.3-.2.5-.2c.2-.1.3-.2.4-.3s.1-.1.2-.1c.3 0 .3.5.1.7-.1.2-.4.4-.7.6z"/><path fill="#fff" d="m27.9 42.3.1.3h.3l-.3.2.1.3-.2-.2-.3.2.1-.3-.3-.2h.4z"/><path fill="#fff" d="m28.3 41.9v.1h.2l-.1.1v.1l-.1-.1-.1.1v-.1l-.1-.1h.2z"/><path fill="#fff" d="m27.7 41.9v.1h.1-.1l.1.1h-.1-.1l.1-.1h-.1.1z"/><use fill="#ff0013" xlink:href="#aF"/><path fill="#fff" d="m37.1 44c-.1 0-.2-.1-.2-.2-.3-.3-.7-.5-1-.8-.1-.1-.1-.1-.2-.2 0-.1 0-.2.1-.2.3.2.5.5.8.7.1.1.3.2.4.3s.2.1.3.3c0 .1-.1.1-.2.1z" clip-path="url(#y)"/><path fill="#0082ff" d="m37.1 42.9c.1.1.1.1.2.1h.3c0-.1.1-.3.1-.4s0-.3-.1-.4c-.2-.1-.4-.2-.6-.2-.2-.1-.3-.2-.4-.3s-.1-.1-.2-.1c-.3 0-.3.5-.1.7s.5.4.8.6z"/><path fill="#fff" d="m37.1 42.3-.1.4h-.3l.3.1-.1.4.2-.2.3.2-.1-.4.3-.1h-.4z"/><path fill="#fff" d="m36.7 41.9v.1h-.2l.1.1v.1h.1.1v-.1l.1-.1h-.1z"/><path fill="#fff" d="m37.3 42h-.1l.1.1-.1.1.1-.1.1.1-.1-.1.1-.1z"/><path fill="#25e899" d="m36.1 51.2h-7.5c-.2 0-.3-.1-.3-.3s.1-.3.3-.3h7.5c.2 0 .3.1.3.3s-.1.3-.3.3"/><path d="m31.4 45.7c.3.3.8.5 1.2.5s.9-.2 1.1-.6" style="fill:none;stroke:#0e2947;stroke-width:.25;stroke-linecap:round;stroke-linejoin:round;stroke-miterlimit:10"/></g><path d="m45.3 86.7h-3.7z" style="fill:none;stroke:#0e2947;stroke-width:.25;stroke-linecap:round;stroke-linejoin:round;stroke-miterlimit:10"/><use fill="#f1f2f2" xlink:href="#aG"/><path fill="#c0ffe4" d="m42.2 86.8.8.1-.3 7.5-.3-.1z" clip-path="url(#z)"/><path fill="#9393b5" d="m42.1 87.1h2.2l-.2 7 .3.2.4-7.5-1.9-.1-.8.2z" clip-path="url(#z)"/><use style="fill:none;stroke:#0e2947;stroke-width:.25;stroke-linecap:round;stroke-linejoin:round;stroke-miterlimit:10" xlink:href="#aG"/><circle cx="43.4" cy="94.7" r=".7" fill="#25e899" stroke="#0e2947" stroke-miterlimit="10" stroke-width=".25"/><path fill="#0e2947" d="m42.5 97.3h-.6c-.1 0-.2-.1-.2-.2v-.6c0-.1.1-.2.2-.2h.6c.1 0 .2.1.2.2v.6c0 .2-.1.2-.2.2z"/><path fill="#0e2947" d="m44.9 97.3h-.6c-.1 0-.2-.1-.2-.2v-.6c0-.1.1-.2.2-.2h.6c.1 0 .2.1.2.2v.6c0 .2-.1.2-.2.2z"/><use fill="#dadaf2" xlink:href="#aH"/><path fill="url(#C)" d="m45.8 96.6h-4.8c-.1 0-.2-.1-.2-.2v-.6c0-.1.1-.3.3-.3h4.6c.1 0 .3.1.3.3v.6c0 .1-.1.2-.2.2z" clip-path="url(#A)"/><path fill="url(#E)" d="m45.2 96.4h-3.5c-.1 0-.2-.1-.2-.2v-.5c0-.1.1-.2.2-.2h3.5c.1 0 .2.1.2.2v.5c-.1.1-.1.2-.2.2z" clip-path="url(#A)"/><path fill="#f1f2f2" stroke="#0e2947" stroke-miterlimit="10" stroke-width=".05" d="m46 96.9h-5.3v-.7h2.7s2.6 0 2.6 0z" clip-path="url(#A)"/><g clip-path="url(#A)"><path fill="#0e2947" d="m43.4 96.3c-.1-.1 0-.1 0 0 0-.1 0-.1 0 0zm.6 0c0-.1 0-.1 0 0 0-.1.1-.1 0 0zm-1.3 0c0-.1 0-.1 0 0zm2 0c0-.1 0-.1 0 0zm-2.7-.1c.1 0 .1 0 0 0 .1.1.1.1 0 0 0 .1 0 .1 0 0zm3.3 0c.1 0 .1 0 0 0 .1.1.1.1 0 0 0 .1 0 .1 0 0zm-3.9 0c0 .1 0 .1 0 0zm-.7 0s.1 0 0 0c.1.1 0 .1 0 0 0 .1 0 .1 0 0zm5.3 0s.1 0 0 0c.1.1 0 .1 0 0 0 .1 0 .1 0 0z"/></g><use fill="none" stroke="#0e2947" stroke-miterlimit="10" stroke-width=".25" xlink:href="#aH"/><use fill="#f1f2f2" xlink:href="#aI"/><path fill="#9393b5" d="m43.8 90.6c1.1-3.4 1.9-15.6 1.9-15.6h-2.8c0-.1.9 14.5.9 15.6z" clip-path="url(#F)"/><path fill="#c0ffe4" d="m41.2 74.7 2.6 15.9.2.5-1 .3-.4-.6z" clip-path="url(#F)"/><use style="fill:none;stroke:#0e2947;stroke-width:.25;stroke-linecap:round;stroke-linejoin:round;stroke-miterlimit:10" xlink:href="#aI"/><path fill="#0e2947" d="m45 83.1h-3.1c-.2 0-.4-.2-.4-.4v-.3c0-.2.2-.4.4-.4h3.1c.2 0 .4.2.4.4v.3c0 .2-.2.4-.4.4z"/><path fill="none" stroke="#0e2947" stroke-miterlimit="10" stroke-width=".25" d="m41.4 78.1c1.1.8 2.8.8 3.9 0"/><path fill="none" stroke="#0e2947" stroke-miterlimit="10" stroke-width=".25" d="m41.6 80.3c1.1.6 2.5.5 3.6-.1"/><path fill="#0e2947" d="m43.2 80.7h.4v13.4h-.4z"/><circle cx="43.4" cy="85.2" r="1.3" fill="#6152f5" stroke="#0e2947" stroke-miterlimit="10" stroke-width=".25"/><path fill="#6152f5" d="m42.7 81.8h1.4v1.4h-1.4z" transform="matrix(.7068 -.7074 .7074 .7068 -45.6179 54.9019)"/><path fill="#0e2947" d="m43.4 81.8.7.7-.7.7-.7-.7zm0-.5-.3.3-.7.7-.3.3.3.3.7.7.3.3.3-.3.7-.7.3-.3-.3-.3-.7-.7z"/><path fill="none" stroke="#0e2947" stroke-miterlimit="10" stroke-width=".25" d="m42.2 88.9c0 .1.6.4 1.2.2"/><path fill="none" stroke="#0e2947" stroke-miterlimit="10" stroke-width=".25" d="m42.1 87.8c.1.2 1 .4 1.3.3"/><path fill="#0e2947" d="m43.7 90.3c0-.1 0-.1 0 0 .1-.1.2-.1.2 0-.1 0-.1.1-.2 0zm0-.8c0-.1 0-.1 0 0 .1-.1.2-.1.2 0-.1 0-.1.1-.2 0zm0-.8c0-.1 0-.1 0 0 .1-.1.2-.1.2 0-.1 0-.1.1-.2 0zm0-.8c0-.1 0-.1 0 0 .1-.1.2-.1.2 0-.1 0-.1.1-.2 0z"/><path fill="#9393b5" d="m43.7 90.3s0-.1.1-.1.1 0 .1.1-.3.1-.2 0zm0 0c0 .1.2.1.2 0-.1-.1-.2-.1-.2 0z"/><path fill="#9393b5" d="m43.7 89.5s0-.1.1-.1.1 0 .1.1-.3.1-.2 0zm0 0c0 .1.2.1.2 0-.1-.1-.2-.1-.2 0z"/><path fill="#9393b5" d="m43.7 88.7c0-.1.2-.1.2 0s-.1.1-.1.1c-.1 0-.1-.1-.1-.1zm0 0c0 .1.2.1.2 0-.1-.1-.2-.1-.2 0z"/><path fill="#9393b5" d="m43.7 87.9c0-.1.2-.1.2 0s-.1.1-.1.1c-.1 0-.1-.1-.1-.1zm0 0c0 .1.2.1.2 0-.1-.1-.2-.1-.2 0z"/><path fill="#0e2947" d="m43.7 93.5c.1-.1.2-.1.2 0-.1.1-.1.1-.2 0 0 .1 0 .1 0 0zm0-.8c0-.1 0-.1 0 0 .1-.1.2-.1.2 0-.1 0-.1.1-.2 0zm0-.8c0-.1 0-.1 0 0 .1-.1.2-.1.2 0-.1 0-.1.1-.2 0zm0-.8c0-.1 0-.1 0 0 .1-.1.2-.1.2 0-.1 0-.1.1-.2 0z"/><path fill="#9393b5" d="m43.7 93.5s0-.1.1-.1.1 0 .1.1-.3.1-.2 0zm0 0c0 .1.2.1.2 0-.1-.1-.2-.1-.2 0z"/><path fill="#9393b5" d="m43.7 92.7s0-.1.1-.1.1 0 .1.1-.3.1-.2 0zm0 0c0 .1.2.1.2 0-.1-.1-.2-.1-.2 0z"/><path fill="#9393b5" d="m43.7 91.9c0-.1.2-.1.2 0s-.1.1-.1.1c-.1 0-.1-.1-.1-.1zm0 0c0 .1.2.1.2 0-.1-.1-.2-.1-.2 0z"/><path fill="#9393b5" d="m43.7 91.1c0-.1.2-.1.2 0s-.1.1-.1.1c-.1 0-.1-.1-.1-.1zm0 0c0 .1.2.1.2 0-.1-.1-.2-.1-.2 0z"/><circle cx="43.4" cy="74.7" r="1.8" fill="#25e899" stroke="#0e2947" stroke-miterlimit="10" stroke-width=".25"/><circle cx="43.4" cy="74.7" r=".8" fill="#dadaf2" stroke="#0e2947" stroke-miterlimit="10" stroke-width=".25"/><path fill="url(#H)" d="m42.7 75c.4.1.9.1 1.3.1s.8 0 1.1-.3c.4-.3.3-1 0-1.4s-.9-.5-1.4-.5c-.4 0-.9.1-1.3.3-.3.2-.8.7-.8 1.1 0 .5.7.6 1.1.7z"/><circle cx="43.5" cy="85.1" r=".8" fill="url(#J)"/><use fill="#f1f2f2" xlink:href="#aJ"/><g clip-path="url(#K)"><path fill="#ed1c24" d="m41.7 76.9v11.9h-.3l-.1-.6v-11.3z"/><path fill="#003790" d="m40.6 76.9v8.2l-.4-2.2v-6.1z"/><path fill="#003790" d="m42.9 77v11.8h-.5v-11.9z"/><path fill="#ed1c24" d="m44 77v11.8h-.5v-11.8z"/><path fill="#003790" d="m45.1 77.1v11.7h-.5v-11.7z"/></g><use style="fill:none;stroke:#0e2947;stroke-width:.25;stroke-linecap:round;stroke-linejoin:round;stroke-miterlimit:10" xlink:href="#aJ"/><path d="m33.5 86.7h3.7z" style="fill:none;stroke:#0e2947;stroke-width:.25;stroke-linecap:round;stroke-linejoin:round;stroke-miterlimit:10"/><use fill="#f1f2f2" xlink:href="#aK"/><path fill="#c0ffe4" d="m36.6 86.8-.8.1.3 7.5.3-.1z" clip-path="url(#L)"/><path fill="#9393b5" d="m36.7 87.1h-2.2l.2 7-.3.2-.4-7.5 1.9-.1.8.2z" clip-path="url(#L)"/><use style="fill:none;stroke:#0e2947;stroke-width:.25;stroke-linecap:round;stroke-linejoin:round;stroke-miterlimit:10" xlink:href="#aK"/><circle cx="35.4" cy="94.7" r=".7" fill="#25e899" stroke="#0e2947" stroke-miterlimit="10" stroke-width=".25"/><path fill="#0e2947" d="m36.3 97.3h.6c.1 0 .2-.1.2-.2v-.6c0-.1-.1-.2-.2-.2h-.6c-.1 0-.2.1-.2.2v.6c0 .2.1.2.2.2z"/><path fill="#0e2947" d="m33.9 97.3h.6c.1 0 .2-.1.2-.2v-.6c0-.1-.1-.2-.2-.2h-.6c-.1 0-.2.1-.2.2v.6c0 .2.1.2.2.2z"/><use fill="#dadaf2" xlink:href="#aL"/><path fill="url(#N)" d="m33 96.6h4.8c.1 0 .2-.1.2-.2v-.6c0-.1-.1-.3-.3-.3h-4.6c-.1 0-.3.1-.3.3v.6c0 .1.1.2.2.2z" clip-path="url(#M)"/><path fill="url(#O)" d="m33.6 96.4h3.5c.1 0 .2-.1.2-.2v-.5c0-.1-.1-.2-.2-.2h-3.5c-.1 0-.2.1-.2.2v.5c.1.1.1.2.2.2z" clip-path="url(#M)"/><path fill="#f1f2f2" stroke="#0e2947" stroke-miterlimit="10" stroke-width=".05" d="m32.8 96.9h5.3v-.7s-1.6 0-2.7 0-2.6 0-2.6 0z" clip-path="url(#M)"/><g clip-path="url(#M)"><path fill="#0e2947" d="m35.4 96.3c0-.1 0-.1 0 0 0-.1.1-.1 0 0zm-.6 0c-.1 0-.1 0 0 0-.1-.1-.1-.1 0 0 0-.1 0-.1 0 0zm1.3 0c0-.1 0-.1 0 0zm-2 0c0-.1 0-.1 0 0zm2.7 0c-.1 0-.1 0 0 0-.1-.1-.1-.1 0 0 0-.1 0-.1 0 0zm-3.4 0c0-.1 0-.1 0 0 .1-.1.1-.1 0 0 .1 0 .1 0 0 0zm4 0c0-.1 0-.1 0 0zm.7 0c-.1-.1 0-.1 0 0 0-.1 0-.1 0 0zm-5.3 0c-.1-.1 0-.1 0 0 0-.1 0-.1 0 0z"/></g><use fill="none" stroke="#0e2947" stroke-miterlimit="10" stroke-width=".25" xlink:href="#aL"/><use fill="#f1f2f2" xlink:href="#aM"/><path fill="#9393b5" d="m35 90.6c-1.1-3.4-1.9-15.6-1.9-15.6h2.8c0-.1-.9 14.5-.9 15.6z" clip-path="url(#P)"/><path fill="#c0ffe4" d="m37.6 74.7-2.6 15.9-.2.5 1 .3.4-.6z" clip-path="url(#P)"/><use style="fill:none;stroke:#0e2947;stroke-width:.25;stroke-linecap:round;stroke-linejoin:round;stroke-miterlimit:10" xlink:href="#aM"/><path fill="#0e2947" d="m33.8 83.1h3.1c.2 0 .4-.2.4-.4v-.3c0-.2-.2-.4-.4-.4h-3.1c-.2 0-.4.2-.4.4v.3c0 .2.2.4.4.4z"/><path fill="none" stroke="#0e2947" stroke-miterlimit="10" stroke-width=".25" d="m37.4 78.1c-1.1.8-2.8.8-3.9 0"/><path fill="none" stroke="#0e2947" stroke-miterlimit="10" stroke-width=".25" d="m37.2 80.3c-1.1.6-2.5.5-3.6-.1"/><path fill="#0e2947" d="m35.2 80.7h.4v13.4h-.4z"/><circle cx="35.4" cy="85.2" r="1.3" fill="#6152f5" stroke="#0e2947" stroke-miterlimit="10" stroke-width=".25"/><path fill="#6152f5" d="m34.7 81.8h1.4v1.4h-1.4z" transform="matrix(.7074 -.7068 .7068 .7074 -47.9558 49.14)"/><path fill="#0e2947" d="m35.4 81.8.7.7-.7.7-.7-.7zm0-.5-.3.3-.7.7-.3.3.3.3.7.7.3.3.3-.3.7-.7.3-.3-.3-.3-.7-.7z"/><path fill="none" stroke="#0e2947" stroke-miterlimit="10" stroke-width=".25" d="m36.6 88.9c0 .1-.6.4-1.2.2"/><path fill="none" stroke="#0e2947" stroke-miterlimit="10" stroke-width=".25" d="m36.7 87.8c-.1.2-1 .4-1.3.3"/><path fill="#0e2947" d="m35.1 90.4c-.1 0-.1-.1 0 0-.1-.1-.1-.2 0-.2v.2c0-.1 0 0 0 0zm0-.8c-.1 0-.1-.1 0 0-.1-.1-.1-.2 0-.2v.2c0-.1 0 0 0 0zm0-.8c-.1 0-.1-.1 0 0-.1-.1-.1-.2 0-.2v.2c0-.1 0 0 0 0zm0-.8c-.1 0-.1-.1 0 0-.1-.1-.1-.2 0-.2v.2c0-.1 0 0 0 0z"/><path fill="#9393b5" d="m35.1 90.4s-.1 0-.1-.1 0-.1.1-.1.1.2 0 .2zm0 0c.1 0 .1-.2 0-.2s-.2.2 0 .2z"/><path fill="#9393b5" d="m35.1 89.6s-.1 0-.1-.1 0-.1.1-.1.1.2 0 .2zm0 0c.1 0 .1-.2 0-.2s-.2.2 0 .2z"/><path fill="#9393b5" d="m35.1 88.8s-.1 0-.1-.1 0-.1.1-.1.1.1.1.1c-.1 0-.1.1-.1.1zm0 0c.1 0 .1-.2 0-.2s-.2.2 0 .2z"/><path fill="#9393b5" d="m35.1 88s-.1 0-.1-.1 0-.1.1-.1.1.1.1.1c-.1 0-.1.1-.1.1zm0 0c.1 0 .1-.2 0-.2s-.2.2 0 .2z"/><path fill="#0e2947" d="m35.1 93.6c-.1 0-.1 0 0 0-.1-.1-.1-.2 0-.2zm0-.8c-.1 0-.1-.1 0 0-.1-.1-.1-.2 0-.2v.2c0-.1 0 0 0 0zm0-.8c-.1 0-.1-.1 0 0-.1-.1-.1-.2 0-.2v.2c0-.1 0 0 0 0zm0-.8c-.1 0-.1-.1 0 0-.1-.2-.1-.2 0-.2v.2c0-.1 0 0 0 0z"/><path fill="#9393b5" d="m35.1 93.6s-.1 0-.1-.1 0-.1.1-.1.1.2 0 .2zm0 0c.1 0 .1-.2 0-.2s-.2.2 0 .2z"/><path fill="#9393b5" d="m35.1 92.8s-.1 0-.1-.1 0-.1.1-.1.1.2 0 .2zm0 0c.1 0 .1-.2 0-.2s-.2.2 0 .2z"/><path fill="#9393b5" d="m35.1 92s-.1 0-.1-.1 0-.1.1-.1.1.1.1.1-.1.1-.1.1zm0 0c.1 0 .1-.2 0-.2s-.2.2 0 .2z"/><path fill="#9393b5" d="m35.1 91.2s-.1 0-.1-.1 0-.1.1-.1.1.1.1.1-.1.1-.1.1zm0 0c.1 0 .1-.2 0-.2s-.2.2 0 .2z"/><circle cx="35.4" cy="74.7" r="1.8" fill="#25e899" stroke="#0e2947" stroke-miterlimit="10" stroke-width=".25"/><circle cx="35.4" cy="74.7" r=".8" fill="#dadaf2" stroke="#0e2947" stroke-miterlimit="10" stroke-width=".25"/><path fill="url(#Q)" d="m36.1 75c-.4.1-.9.1-1.3.1s-.8 0-1.1-.3c-.4-.3-.3-1 0-1.4s.9-.5 1.4-.5c.4 0 .9.1 1.3.3.3.2.8.7.8 1.1 0 .5-.7.6-1.1.7z"/><circle cx="35.3" cy="85.1" r=".8" fill="url(#R)"/><use fill="#f1f2f2" xlink:href="#aN"/><g clip-path="url(#S)"><path fill="#003790" d="m37.5 76.9v11.3l-.1.6h-.3v-11.9z"/><path fill="#ed1c24" d="m38.6 76.8v6.1l-.4 2.2v-8.2z"/><path fill="#ed1c24" d="m36.4 76.9v11.9h-.4v-11.8z"/><path fill="#003790" d="m35.3 77v11.8h-.5v-11.8z"/><path fill="#ed1c24" d="m34.2 77.1v11.7h-.5v-11.7z"/></g><use style="fill:none;stroke:#0e2947;stroke-width:.25;stroke-linecap:round;stroke-linejoin:round;stroke-miterlimit:10" xlink:href="#aN"/><path fill="#d6d6ea" stroke="#0e2947" stroke-miterlimit="10" stroke-width=".25" d="m55.4 71.6c.4-.8.1-1.9-.8-2.3l-7.7-3.9c-.3-.1-.7 0-.8.3l-1.3 2.5 8.2 4.1c1 .5 2 .1 2.4-.7z"/><path d="m53.6 70.7-3.8-2" style="fill:none;stroke:#0e2947;stroke-width:.25;stroke-linecap:round;stroke-linejoin:round;stroke-miterlimit:10"/><circle cx="51.6" cy="69.6" r=".7" style="fill:#25e899;stroke:#0e2947;stroke-width:.25;stroke-linecap:round;stroke-linejoin:round;stroke-miterlimit:10"/><path fill="url(#U)" d="m50.4 70.9c.4.1.7 0 1.1-.2.3-.1.5-.5.6-.8s.3-.5.4-.8c0-.1.1-.2 0-.3 0-.1-.1-.4-.2-.4-.4-.2-.7-.5-1.1-.7-.1 0-.3.2-.4.2s-.1.1-.2.1c-.3.4-.5.9-.7 1.4-.1.3-.2.6-.1.8.3.3.3.6.6.7-.1 0 .1 0 0 0z"/><use fill="#054978" xlink:href="#aO"/><g fill="#fff" clip-path="url(#V)"><path d="m49.7 64.3-.1.4-.4.2.4.2.1.4.2-.3.4.1-.2-.4.2-.3h-.4z"/><path d="m47.7 65-.1.4-.3.1.3.2.1.4.3-.3.3.1-.1-.3.1-.4-.3.1z"/><path d="m45.7 65.6-.1.4-.3.2.3.2.1.4.3-.3h.4l-.2-.3.2-.4-.4.1z"/><path d="m49.1 66.1-.1.4-.3.1.3.2.1.4.3-.3.4.1-.2-.4.2-.3-.4.1z"/><path d="m47.1 66.7v.4l-.4.2.4.2v.3l.3-.2h.4l-.2-.3.2-.4-.4.1z"/><path d="m50.6 67.2-.1.4-.3.1.3.2.1.4.2-.3.4.1-.2-.4.2-.3h-.4z"/><path d="m48.6 67.8-.1.4-.3.2.3.1.1.4.3-.3.4.1-.2-.3.2-.4-.4.1z"/><path d="m46.6 68.4v.4l-.4.2.4.2v.4l.3-.3.4.1-.2-.4.2-.3h-.4z"/><path d="m50 68.9v.4l-.4.2.4.1v.4l.3-.3.4.1-.2-.3.2-.4-.4.1z"/><path d="m48 69.5v.4l-.4.2.4.2v.4l.3-.3h.4l-.2-.3.2-.4-.4.1z"/><path d="m51.5 70-.1.4-.3.1.3.2.1.4.2-.3.4.1-.1-.4.1-.3-.4.1z"/><path d="m49.5 70.6-.1.4-.3.2.3.2.1.3.3-.2h.4l-.2-.3.2-.4-.4.1z"/><path d="m47.5 71.2v.4l-.4.2.4.2v.4l.3-.3.4.1-.2-.4.2-.3h-.4z"/></g><use style="fill:none;stroke:#0e2947;stroke-width:.25;stroke-linecap:round;stroke-linejoin:round;stroke-miterlimit:10" xlink:href="#aO"/><path fill="#d6d6ea" stroke="#0e2947" stroke-miterlimit="10" stroke-width=".25" d="m25.4 74.4c-.7-.7-.7-1.8 0-2.4l6.6-6.5 2.5 2.4-6.6 6.5c-.8.6-1.9.6-2.5 0z"/><path d="m26.8 73 3.1-3.1" style="fill:none;stroke:#0e2947;stroke-width:.25;stroke-linecap:round;stroke-linejoin:round;stroke-miterlimit:10"/><circle cx="28.4" cy="71.3" r=".7" style="fill:#25e899;stroke:#0e2947;stroke-width:.25;stroke-linecap:round;stroke-linejoin:round;stroke-miterlimit:10"/><path fill="url(#W)" d="m27.9 69.5c-.2.3-.2.7-.2 1.1s.3.6.5.9c.2.2.4.4.7.6.1.1.2.2.3.2h.5c.4-.3.6-.5 1-.8 0 0-.1-.4-.1-.4 0-.1 0-.1-.1-.2-.3-.4-.7-.8-1.1-1.1-.2-.2-.5-.4-.8-.3-.2-.1-.5-.2-.7 0 .1-.1 0 .1 0 0z"/><use fill="#054978" xlink:href="#aP"/><g fill="#fff" clip-path="url(#X)"><path d="m28.6 65.7.2.3.4.1-.3.3.1.4-.4-.2-.3.2v-.4l-.2-.3.4-.1z"/><path d="m30.7 65.7.2.3.4.1-.3.3v.4l-.3-.2-.3.2v-.4l-.3-.3.4-.1z"/><path d="m32.8 65.7.1.3.4.1-.2.3v.4l-.3-.2-.4.2.1-.4-.3-.3.4-.1z"/><path d="m29.7 67.2.2.3.3.1-.2.3v.3l-.3-.1-.4.1.1-.3-.3-.3.4-.1z"/><path d="m31.8 67.2.1.3.4.1-.3.3.1.3-.3-.1-.4.1.1-.3-.3-.3.4-.1z"/><path d="m28.6 68.7.2.3.4.1-.3.2.1.4-.4-.2-.3.2v-.4l-.2-.2.4-.1z"/><path d="m30.7 68.7.2.3.4.1-.3.2v.4l-.3-.2-.3.2v-.4l-.3-.2.4-.1z"/><path d="m32.8 68.7.1.3.4.1-.2.2v.4l-.3-.2-.4.2.1-.4-.3-.2.4-.1z"/><path d="m29.7 70.1.2.4h.3l-.2.3v.4l-.3-.2-.4.2.1-.4-.3-.3h.4z"/><path d="m31.8 70.1.1.4h.4l-.3.3.1.4-.3-.2-.4.2.1-.4-.3-.3h.4z"/><path d="m28.6 71.6.2.4h.4l-.3.3.1.4-.4-.2-.3.2v-.4l-.2-.3h.4z"/><path d="m30.7 71.6.2.4h.4l-.3.3v.4l-.3-.2-.3.2v-.4l-.3-.3h.4z"/><path d="m32.8 71.6.1.4h.4l-.2.3v.4l-.3-.2-.4.2.1-.4-.3-.3h.4z"/></g><use style="fill:none;stroke:#0e2947;stroke-width:.25;stroke-linecap:round;stroke-linejoin:round;stroke-miterlimit:10" xlink:href="#aP"/><path fill="#0e2947" d="m32.1 65.2 2.4-.5c1.6-.4 3.3-.5 4.9-.5 1.7 0 3.3.2 4.9.5l2.5.5c-1.6 1-3.3 2.2-4.9 3.2-.7.4-1.4.9-2.2.9-.6 0-1.1-.1-1.7-.3-2.2-.8-4.2-2.1-5.9-3.8z"/><path fill="#d6d6ea" stroke="#0e2947" stroke-miterlimit="10" stroke-width=".25" d="m44.3 76.9s-.3.3-1.2.5-5 .9-7.8 0c0 0-.9-.2-1.1-.9 0 0-.6-3.6-.6-5.1s.4-4.9.5-5.2c0 0 0-.9 1.9-1.1 0 0 4-.7 6.7 0 0 0 1 .2 1.4.6 0 0 .6.4.6.9s.5 2.2.4 4-.2 4.2-.2 4.8c-.3 1.1-.6 1.5-.6 1.5z"/><path fill="url(#Y)" d="m39.4 68.2c-1-.1-2.4-2-3-2.6-.2-.2-.4-.3-.5-.1-.3.3 0 .8.1 1.1.3.7.8 1.3 1.4 1.8.3.3.7.6 1.2.6s.9-.2 1.3-.4c.9-.4 1.8-.9 2.3-1.6.3-.5.8-1.1.6-1.6 0-.1-.1-.3-.2-.2-.4.6-2.7 3-3.2 3z"/><use fill="#054978" xlink:href="#aQ"/><g fill="#fff" clip-path="url(#Z)"><path d="m31.3 67 .2.4h.4l-.3.3.1.4-.4-.2-.3.2v-.4l-.3-.3h.4z"/><path d="m33.4 67 .2.4h.4l-.3.3v.4l-.3-.2-.4.2.1-.4-.3-.3h.4z"/><path d="m35.5 67 .1.4h.4l-.3.3.1.4-.3-.2-.4.2.1-.4-.3-.3h.4z"/><path d="m32.4 68.5.1.4h.4l-.2.3v.4l-.3-.2-.4.2.1-.4-.3-.3h.4z"/><path d="m34.4 68.5.2.4h.4l-.3.3.1.4-.4-.2-.3.2.1-.4-.3-.3h.4z"/><path d="m31.3 70 .2.3.4.1-.3.3.1.4-.4-.2-.3.2v-.4l-.3-.3.4-.1z"/><path d="m33.4 70 .2.3.4.1-.3.3v.4l-.3-.2-.4.2.1-.4-.3-.3.4-.1z"/><path d="m35.5 70 .1.3.4.1-.3.3.1.4-.3-.2-.4.2.1-.4-.3-.3.4-.1z"/><path d="m32.4 71.5.1.3.4.1-.2.3v.3l-.3-.1-.4.1.1-.3-.3-.3.4-.1z"/><path d="m34.4 71.5.2.3.4.1-.3.3.1.3-.4-.1-.3.1.1-.3-.3-.3.4-.1z"/><path d="m31.3 73 .2.3.4.1-.3.2.1.4-.4-.2-.3.2v-.4l-.3-.2.4-.1z"/><path d="m33.4 73 .2.3.4.1-.3.2v.4l-.3-.2-.4.2.1-.4-.3-.2.4-.1z"/><path d="m35.5 73 .1.3.4.1-.3.2.1.4-.3-.2-.4.2.1-.4-.3-.2.4-.1z"/></g><g fill="#fff" clip-path="url(#Z)"><path d="m36 68.5.2.3.4.1-.3.3.1.4-.4-.2-.3.2v-.4l-.2-.3.4-.1z"/><path d="m38.1 68.5.2.3.4.1-.3.3.1.4-.4-.2-.3.2v-.4l-.3-.3.4-.1z"/><path d="m40.2 68.5.2.3.3.1-.2.3v.4l-.3-.2-.4.2.1-.4-.3-.3.4-.1z"/><path d="m42.2 68.5.2.3.4.1-.3.3.1.4-.4-.2-.3.2.1-.4-.3-.3.4-.1z"/><path d="m37.1 70 .2.3.4.1-.3.3v.3l-.3-.1-.4.1.1-.3-.3-.3.4-.1z"/><path d="m39.2 70 .1.3.4.1-.3.3.1.3-.3-.1-.4.1.1-.3-.3-.3.4-.1z"/><path d="m41.2 70 .2.3.4.1-.3.3.1.3-.4-.1-.3.1v-.3l-.2-.3.4-.1z"/><path d="m36 71.5.2.3.4.1-.3.2.1.4-.4-.2-.3.2v-.4l-.2-.2.4-.1z"/><path d="m38.1 71.5.2.3.4.1-.3.2.1.4-.4-.2-.3.2v-.4l-.3-.2.4-.1z"/><path d="m40.2 71.5.2.3.3.1-.2.2v.4l-.3-.2-.4.2.1-.4-.3-.2.4-.1z"/><path d="m42.2 71.5.2.3.4.1-.3.2.1.4-.4-.2-.3.2.1-.4-.3-.2.4-.1z"/><path d="m37.1 72.9.2.4h.4l-.3.3v.4l-.3-.2-.4.2.1-.4-.3-.3h.4z"/><path d="m39.2 72.9.1.4h.4l-.3.3.1.4-.3-.2-.4.2.1-.4-.3-.3h.4z"/><path d="m41.2 72.9.2.4h.4l-.3.3.1.4-.4-.2-.3.2v-.4l-.2-.3h.4z"/><path d="m36 74.4.2.4h.4l-.3.3.1.4-.4-.2-.3.2v-.4l-.2-.3h.4z"/><path d="m38.1 74.4.2.4h.4l-.3.3.1.4-.4-.2-.3.2v-.4l-.3-.3h.4z"/><path d="m40.2 74.4.2.4h.3l-.2.3v.4l-.3-.2-.4.2.1-.4-.3-.3h.4z"/><path d="m42.2 74.4.2.4h.4l-.3.3.1.4-.4-.2-.3.2.1-.4-.3-.3h.4z"/></g><g fill="#fff" clip-path="url(#Z)"><path d="m32.1 74 .2.4h.4l-.3.3v.4l-.3-.2-.4.2.1-.4-.3-.3h.4z"/><path d="m34.4 74.3.2.4h.4l-.3.3.1.4-.4-.2-.3.2v-.4l-.2-.3h.4z"/><path d="m31.3 75.8.2.3.4.1-.3.3.1.4-.4-.2-.3.2.1-.4-.3-.3.4-.1z"/><path d="m33.4 75.8.2.3.4.1-.3.3.1.4-.4-.2-.3.2v-.4l-.3-.3.4-.1z"/><path d="m32.4 77.3.1.3.4.1-.3.2.1.4-.3-.1-.4.1.1-.4-.3-.2.4-.1z"/><path d="m34.4 77.3.2.3.4.1-.3.2.1.4-.4-.1-.3.1v-.4l-.2-.2.4-.1z"/><path d="m31.3 78.7.2.4h.4l-.3.3.1.4-.4-.2-.3.2.1-.4-.3-.3h.4z"/><path d="m33.4 78.7.2.4h.4l-.3.3.1.4-.4-.2-.3.2v-.4l-.3-.3h.4z"/></g><g fill="#fff" clip-path="url(#Z)"><path d="m35.3 76 .2.3.4.1-.3.3.1.4-.4-.2-.3.2v-.4l-.3-.3.4-.1z"/><path d="m37.4 76 .2.3.4.1-.3.3v.4l-.3-.2-.4.2.1-.4-.3-.3.4-.1z"/><path d="m39.5 76 .1.3.4.1-.3.3.1.4-.3-.2-.4.2.1-.4-.3-.3.4-.1z"/><path d="m41.5 76 .2.3.4.1-.3.3.1.4-.4-.2-.3.2.1-.4-.3-.3.4-.1z"/><path d="m36.4 77.5.1.3.4.1-.2.2v.4l-.3-.2-.4.2.1-.4-.3-.2.4-.1z"/><path d="m38.4 77.5.2.3.4.1-.3.2.1.4-.4-.2-.3.2.1-.4-.3-.2.4-.1z"/><path d="m40.5 77.5.2.3.4.1-.3.2.1.4-.4-.2-.3.2v-.4l-.2-.2.3-.1z"/><path d="m35.3 78.9.2.4.4.1-.3.2.1.4-.4-.2-.3.2v-.4l-.3-.2.4-.1z"/><path d="m37.4 78.9.2.4.4.1-.3.2v.4l-.3-.2-.4.2.1-.4-.3-.2.4-.1z"/><path d="m39.5 78.9.1.4.4.1-.3.2.1.4-.3-.2-.4.2.1-.4-.3-.2.4-.1z"/><path d="m41.5 78.9.2.4.4.1-.3.2.1.4-.4-.2-.3.2.1-.4-.3-.2.4-.1z"/></g><g fill="#fff" clip-path="url(#Z)"><path d="m42.7 77.5.1.3.4.1-.3.2.1.4-.3-.2-.4.2.1-.4-.3-.2.4-.1z"/><path d="m44.7 77.5.2.3.4.1-.3.2.1.4-.4-.2-.3.2.1-.4-.3-.2.4-.1z"/><path d="m46.8 77.5.2.3.4.1-.3.2.1.4-.4-.2-.3.2v-.4l-.3-.2.4-.1z"/><path d="m43.7 78.9.2.4h.4l-.3.3.1.4-.4-.2-.3.2v-.4l-.2-.3h.3z"/><path d="m45.8 78.9.2.4h.4l-.3.3v.4l-.3-.2-.4.2.1-.4-.3-.3h.4z"/><path d="m47.9 78.9.1.4h.4l-.2.3v.4l-.3-.2-.4.2.1-.4-.3-.3h.4z"/></g><g fill="#fff" clip-path="url(#Z)"><path d="m43.4 70.1.2.3.3.1-.2.3v.3l-.3-.1-.4.1.1-.3-.3-.3.4-.1z"/><path d="m45.5 70.1.1.3.4.1-.3.3.1.3-.3-.1-.4.1.1-.3-.3-.3.4-.1z"/><path d="m47.5 70.1.2.3.4.1-.3.3.1.3-.4-.1-.3.1v-.3l-.2-.3.4-.1z"/><path d="m44.4 71.5.2.4h.4l-.3.3.1.4-.4-.2-.3.2.1-.4-.3-.3h.4z"/><path d="m46.5 71.5.2.4h.4l-.3.3.1.4-.4-.2-.3.2v-.4l-.3-.3h.4z"/><path d="m43.4 73 .2.4h.3l-.2.3v.4l-.3-.2-.4.2.1-.4-.3-.3h.4z"/><path d="m45.5 73 .1.4h.4l-.3.3.1.4-.3-.2-.4.2.1-.4-.3-.3h.4z"/><path d="m47.5 73 .2.4h.4l-.3.3.1.4-.4-.2-.3.2v-.4l-.2-.3h.4z"/><path d="m44.4 74.5.2.3.4.1-.3.3.1.4-.4-.2-.3.2.1-.4-.3-.3.4-.1z"/><path d="m46.5 74.5.2.3.4.1-.3.3.1.4-.4-.2-.3.2v-.4l-.3-.3.4-.1z"/><path d="m43.4 76 .2.3.3.1-.2.3v.4l-.3-.2-.4.2.1-.4-.3-.3.4-.1z"/><path d="m45.5 76 .1.3.4.1-.3.3.1.4-.3-.2-.4.2.1-.4-.3-.3.4-.1z"/><path d="m47.5 76 .2.3.4.1-.3.3.1.4-.4-.2-.3.2v-.4l-.2-.3.4-.1z"/></g><g fill="#fff" clip-path="url(#Z)"><path d="m45.3 64.1.1.4.4.1-.3.2.1.4-.3-.2-.4.2.1-.4-.3-.2.4-.1z"/><path d="m47.3 64.1.2.4.4.1-.3.2.1.4-.4-.2-.3.2v-.4l-.2-.2.4-.1z"/><path d="m44.2 65.6.2.4h.4l-.3.3v.4l-.3-.2-.4.2.1-.4-.3-.3h.4z"/><path d="m46.3 65.6.1.4h.4l-.2.3v.4l-.3-.2-.4.2.1-.4-.3-.3h.4z"/><path d="m48.3 65.6.2.4h.4l-.3.3.1.4-.4-.2-.3.2.1-.4-.3-.3h.4z"/><path d="m45.3 67.1.1.4h.4l-.3.3.1.4-.3-.2-.4.2.1-.4-.3-.3h.4z"/><path d="m47.3 67.1.2.4h.4l-.3.3.1.4-.4-.2-.3.2v-.4l-.2-.3h.4z"/><path d="m44.2 68.6.2.3.4.1-.3.3v.4l-.3-.2-.4.2.1-.4-.3-.3.4-.1z"/><path d="m46.3 68.6.1.3.4.1-.2.3v.4l-.3-.2-.4.2.1-.4-.3-.3.4-.1z"/><path d="m48.3 68.6.2.3.4.1-.3.3.1.4-.4-.2-.3.2.1-.4-.3-.3.4-.1z"/></g><g fill="#fff" clip-path="url(#Z)"><path d="m37.3 64.2.2.4h.4l-.3.3.1.4-.4-.2-.3.2v-.4l-.3-.3h.4z"/><path d="m39.4 64.2.2.4h.3l-.2.3v.4l-.3-.2-.4.2.1-.4-.3-.3h.4z"/><path d="m41.5 64.2.1.4h.4l-.3.3.1.4-.3-.2-.4.2.1-.4-.3-.3h.4z"/><path d="m43.5 64.2.2.4h.4l-.3.3.1.4-.4-.2-.3.2v-.4l-.2-.3h.4z"/><path d="m38.4 65.7.1.3.4.1-.3.3.1.3-.3-.1-.4.1.1-.3-.3-.3.4-.1z"/><path d="m40.4 65.7.2.3.4.1-.3.3.1.3-.4-.1-.3.1.1-.3-.3-.3.4-.1z"/><path d="m42.5 65.7.2.3.4.1-.3.3.1.3-.4-.1-.3.1v-.3l-.3-.3.4-.1z"/><path d="m37.3 67.2.2.3.4.1-.3.2.1.4-.4-.1-.3.1v-.4l-.3-.2.4-.1z"/><path d="m39.4 67.2.2.3.3.1-.2.2v.4l-.3-.1-.4.1.1-.4-.3-.2.4-.1z"/><path d="m41.5 67.2.1.3.4.1-.3.2.1.4-.3-.1-.4.1.1-.4-.3-.2.4-.1z"/><path d="m43.5 67.2.2.3.4.1-.3.2.1.4-.4-.1-.3.1v-.4l-.2-.2.4-.1z"/></g><g fill="#fff" clip-path="url(#Z)"><path d="m31.4 64.2.1.4h.4l-.3.3.1.4-.3-.2-.4.2.1-.4-.3-.3h.4z"/><path d="m33.4 64.2.2.4h.4l-.3.3.1.4-.4-.2-.3.2v-.4l-.2-.3h.4z"/><path d="m35.5 64.2.2.4h.4l-.3.3.1.4-.4-.2-.3.2v-.4l-.3-.3h.4z"/><path d="m32.4 65.7.1.3.4.1-.2.3v.4l-.3-.2-.4.2.1-.4-.3-.3.4-.1z"/><path d="m34.4 65.7.2.3.4.1-.3.3.1.4-.4-.2-.3.2.1-.4-.3-.3.4-.1z"/><path d="m36.5 65.7.2.3.4.1-.3.3.1.4-.4-.2-.3.2v-.4l-.2-.3.3-.1z"/></g><use style="fill:none;stroke:#0e2947;stroke-width:.25;stroke-linecap:round;stroke-linejoin:round;stroke-miterlimit:10" xlink:href="#aQ"/><path fill="url(#aa)" d="m44.5 86.4c-.7.5-1.6.6-2.4.3-.8-.2-1.5-.7-2-1.3-.3-.3-.5-.6-.8-.8s-.8-.2-1 .1c-.2.2-.2.6-.3 1-.3.9-1.4 1.2-2.2 1-.9-.2-1.6-.9-2.2-1.5-.3-.3-.6-.6-.5-1 0-.4.4-.6.7-.8.8-.4 1.8-.4 2.7-.5 2-.1 3.9-.3 5.9-.4.6 0 1.2-.1 1.7.3.3.2.5.6.8.8s.6.2.7.6c.1.8-.6 1.9-1.1 2.2z"/><path fill="url(#ab)" d="m43.8 68.4c-.7 2.4-1.4 4.7-2.1 7.1-1.4.2-2.8.3-4.2.2-.2 0-.5-.1-.6-.2s.2.2.2 0c.1-.8-.4-2-.6-2.8-.7-2.5-1.3-5.1-2-7.6-.1-.3-.2-.6-.5-.6-.3.1-.3.4-.3.7.4 3.5.9 7 2.4 10.2.3.6.6 1.1 1.1 1.4.6.3 1.3.3 1.9.3 1.3-.1 2.8-.4 3.6-1.4.5-.7.7-1.6.8-2.4.4-2.2 1.1-4.4 1.9-6.6.2-.5.4-1.2.1-1.7-.2-.4-.6-.4-1-.1-.4.4-.3 1-.3 1.4 0 .7-.2 1.4-.4 2.1z"/><path fill="#ff0013" d="m43 78.4c-.1.4-.2.9-.5 1.2s-.8.5-1.2.3c1.1-5.1 2.3-9.9 3.8-15-.1-.1-.3-.2-.4-.3-.1 0-.3 0-.3-.1.1-.1.6-.2.7-.2.6-.2 1.2.2 1 1-.3 1.4-.7 2.9-1 4.3-.7 3-1.4 5.9-2.1 8.8z"/><path fill="#ff0013" d="m36.3 78.2c.1.4.2.9.5 1.2s.8.5 1.2.3c-1.1-5.1-2.3-9.9-3.8-15 .1-.1.4-.2.5-.2s.4-.1.3-.1c-.1-.1-.6-.2-.8-.2-.6-.2-1.2.1-1 1 .3 1.4.7 2.9 1 4.3.7 2.9 1.4 5.8 2.1 8.7z"/><path d="m45.5 67.7-1.1-.5" style="fill:none;stroke:#0082ff;stroke-width:.25;stroke-linecap:round;stroke-linejoin:round;stroke-miterlimit:10"/><path d="m45.3 68.5-1.1-.5" style="fill:none;stroke:#0082ff;stroke-width:.25;stroke-linecap:round;stroke-linejoin:round;stroke-miterlimit:10"/><path d="m33.8 67.9 1.1-.5" style="fill:none;stroke:#0082ff;stroke-width:.25;stroke-linecap:round;stroke-linejoin:round;stroke-miterlimit:10"/><path d="m34 68.7 1.1-.5" style="fill:none;stroke:#0082ff;stroke-width:.25;stroke-linecap:round;stroke-linejoin:round;stroke-miterlimit:10"/><path fill="#ed1c24" d="m32.5 83v.7c0 .5.3.9.7 1.1 4.3 2.3 8.6 2.2 12.7 0 .4-.2.7-.7.7-1.1v-.6c-4.7 1.7-9.4 1.7-14.1-.1z"/><path fill="#ed1c24" d="m46.6 80v-2.7l-14.1-.1v2.9c4.5 2.3 9.2 2.3 14.1-.1z"/><path fill="#be1e2d" d="m46.6 83.1v-3.1c-4.9 2.4-9.6 2.3-14.1 0v3c4.7 1.8 9.4 1.8 14.1.1z"/><ellipse cx="39.6" cy="77.2" fill="#1b75bc" rx="7" ry="2.3"/><ellipse cx="39.7" cy="77.4" fill="#0082ff" rx="6.5" ry="2.1"/><ellipse cx="39.7" cy="77.3" fill="#c7e3f9" rx="5" ry="1.6"/><path fill="#fff" d="m40.4 75.7c-.2 0-.5 0-.7 0-2.7 0-5 .7-5 1.6 0 .6 1.1 1.2 2.7 1.4.7-1.2 1.8-2.2 3-3z"/><path d="m32.5 81.5.9-.8 1.4 3.2 2.4-2.6 2.3 3.1 2.1-2.9 2.6 2.5 1.4-3.2 1 .5" style="fill:none;stroke:#0e2947;stroke-width:.25;stroke-linecap:round;stroke-linejoin:round;stroke-miterlimit:10"/><path fill="#fff" d="m33.5 80.7c0-.1-.1-.2-.2-.2s-.2.1-.2.2.1.2.2.2c.2 0 .2-.1.2-.2z"/><path fill="#fff" d="m34.9 84c0-.1-.1-.2-.2-.2s-.2.1-.2.2.1.2.2.2c.2-.1.2-.1.2-.2z"/><path fill="#fff" d="m37.4 81.3c0-.1-.1-.2-.2-.2s-.2.1-.2.2.1.2.2.2.2-.1.2-.2z"/><path fill="#fff" d="m39.7 84.5c0-.1-.1-.2-.2-.2s-.2.1-.2.2.1.2.2.2c.1-.1.2-.1.2-.2z"/><path fill="#fff" d="m41.8 81.5c0-.1-.1-.2-.2-.2s-.2.1-.2.2.1.2.2.2.2-.1.2-.2z"/><path fill="#fff" d="m44.4 84c0-.1-.1-.2-.2-.2s-.2.1-.2.2.1.2.2.2c.1-.1.2-.1.2-.2z"/><path fill="#fff" d="m45.7 80.8c0-.1 0-.2-.1-.2 0 0-.1.1-.1.2s0 .2.1.2.1-.1.1-.2z"/><circle cx="46.3" cy="77" r="1.1" style="fill:#d1d3d4;stroke:#0e2947;stroke-width:.5;stroke-linecap:round;stroke-linejoin:round;stroke-miterlimit:10"/><path fill="#ffcd2d" stroke="#0e2947" stroke-miterlimit="10" stroke-width=".25" d="m40.2 73.1c.4.4.3 1 0 1.3-.4.3-.9.3-1.3 0-.4-.4-.3-1 0-1.3.3-.4.9-.3 1.3 0z"/><path fill="#0e2947" d="m39.9 74.5c0 .1 0 .2.1.2l5 6.3c.1.1.3.1.4 0s.1-.3 0-.4l-5-6.3c-.1-.1-.3-.1-.4 0 0 0-.1.1-.1.2z"/><path fill="#f9ed32" d="m39.2 73.3c-.2.1-.4.4-.3.6.1-.2.3-.3.5-.4.1 0 .2-.1.3-.1h.3c.1-.1-.1-.2-.1-.2-.3-.1-.6 0-.7.1z"/><path fill="#fccf0e" d="m43.6 78.4s-.1.4-.4.4c-.3-.1 1.8 2.3 1.8 2.3s.4.2.4-.3c0-.6-1.8-2.4-1.8-2.4z"/><path fill="#eff4ee" d="m44.6 80.3-1.9.5c-.3.1-.5-.1-.6-.3l-.1-.4c-.1-.3.1-.5.3-.6l1.9-.5"/><path fill="#0e2947" d="m44.8 80.2c0 .1 0 .2-.1.2l-1.9.6c-.4.1-.7-.1-.9-.5l-.1-.4c-.1-.4.1-.7.5-.9l1.9-.5c.1 0 .2 0 .2.1s0 .2-.1.2l-1.9.5c-.2 0-.2.2-.2.4l.1.4c0 .2.2.2.4.2l1.9-.5c.1.1.2.1.2.2"/><path fill="#25e899" d="m44.6 80.3c.4-.1.6-.5.5-.9s-.5-.6-.9-.5-.6.5-.5.9c.2.4.6.6.9.5"/><path fill="#0e2947" d="m45.3 79.4c.1.5-.1 1-.6 1.1s-1-.1-1.1-.6.1-1 .6-1.1c.5-.2 1 .1 1.1.6m-1.3.4c.1.3.4.4.6.3.3-.1.4-.4.3-.6-.1-.3-.4-.4-.6-.3-.3 0-.4.3-.3.6"/><path fill="#eff4ee" d="m44.1 78.6-1.9.5c-.3.1-.5-.1-.6-.3l-.1-.4c-.1-.3.1-.5.3-.6l1.9-.5"/><path fill="#0e2947" d="m44.2 78.5c0 .1 0 .2-.1.2l-1.9.5c-.4.1-.7-.1-.9-.5l-.1-.4c-.1-.4.1-.7.5-.9l1.9-.5c.1 0 .2 0 .2.1s0 .2-.1.2l-1.8.8c-.2 0-.2.2-.2.4l.1.4c0 .2.2.2.4.2l1.9-.5c0-.1.1-.1.1 0"/><path fill="#25e899" d="m44.1 78.6c.4-.1.6-.5.5-.9s-.5-.6-.9-.5-.6.5-.5.9.5.6.9.5"/><path fill="#0e2947" d="m44.7 77.7c.1.5-.1 1-.6 1.1s-1-.1-1.1-.6.1-1 .6-1.1c.5-.2 1 .1 1.1.6m-1.3.3c.1.3.4.4.6.3.3-.1.4-.4.3-.6-.1-.3-.4-.4-.6-.3s-.4.4-.3.6"/><path fill="#eff4ee" d="m43.3 77.2-1.8.8c-.3.1-.5 0-.6-.3l-.2-.4c-.1-.3 0-.5.3-.6l1.8-.7"/><path fill="#0e2947" d="m43.5 77.1c0 .1 0 .2-.1.3l-1.8.7c-.4.1-.8 0-.9-.4l-.2-.4c-.1-.4 0-.8.4-.9l1.8-.7c.1 0 .2 0 .3.1 0 .1 0 .2-.1.3l-1.8.7c-.1.1-.2.2-.2.4l.2.4c.1.1.2.2.4.2l1.8-.7c.1-.1.2-.1.2 0"/><path fill="#25e899" d="m43.3 77.2c.4-.1.5-.6.4-.9-.1-.4-.6-.5-.9-.4-.4.1-.5.6-.4.9.2.4.6.6.9.4"/><path fill="#0e2947" d="m43.9 76.2c.2.5 0 1-.5 1.2s-1 0-1.2-.5 0-1 .5-1.2c.5-.1 1 .1 1.2.5m-1.3.6c.1.3.4.4.7.3s.4-.4.3-.7-.4-.4-.7-.3-.4.4-.3.7"/><use fill="#d6d6ea" xlink:href="#aR"/><path fill="#bdbde5" d="m44.7 80.2 1.9-2-.2-.9-2.4 1.5z" clip-path="url(#ac)"/><path fill="#c5c5ea" d="m43.1 76.4 2.5-.2h.3c.1 0 .1.1.1.1s-3 .5-3.1.4 0-.3.2-.3z" clip-path="url(#ac)"/><use fill="none" stroke="#0e2947" stroke-miterlimit="10" stroke-width=".25" xlink:href="#aR"/><path fill="#d6d6ea" stroke="#0e2947" stroke-miterlimit="10" stroke-width=".25" d="m46.2 75.9 1.1 1.7 7.7-5.3c.7-.5.8-1.5.3-2.2-.5-.7-1.5-.8-2.2-.3z"/><path fill="#bdbde5" d="m54 69.6c-.5-.2-7.5 6.3-7.5 6.3s-.1.4.4 1c0 0-.1-.6.6-1.1.7-.4 7.5-5.6 7.5-5.6s.1-.2-1-.6z"/><path d="m53 73.7c-.8-.2-1.7-1.4-1.8-2.2" style="fill:none;stroke:#0e2947;stroke-width:.25;stroke-linecap:round;stroke-linejoin:round;stroke-miterlimit:10"/><path d="m51.8 72.8 2.2-1.9" style="fill:none;stroke:#0e2947;stroke-width:.25;stroke-linecap:round;stroke-linejoin:round;stroke-miterlimit:10"/><path d="m55.2 71.9c-.8-.2-1.7-1.4-1.8-2.2" style="fill:none;stroke:#0e2947;stroke-width:.25;stroke-linecap:round;stroke-linejoin:round;stroke-miterlimit:10"/><path d="m49.4 74.5c-.1 0-.1.1-.2.1" style="fill:none;stroke:#0e2947;stroke-width:.25;stroke-linecap:round;stroke-linejoin:round;stroke-miterlimit:10"/><path fill="none" stroke="#0e2947" stroke-miterlimit="10" stroke-width=".25" d="m49.6 74.5.1-1.7"/><path fill="none" stroke="#0e2947" stroke-miterlimit="10" stroke-width=".25" d="m49.7 74.5 1.7.3"/><path d="m46.4 77.1 2-1.7" style="fill:none;stroke:#0e2947;stroke-width:.25;stroke-linecap:round;stroke-linejoin:round;stroke-miterlimit:10"/><path d="m49.1 76.3-1.5-1.9" style="fill:none;stroke:#0e2947;stroke-width:.25;stroke-linecap:round;stroke-linejoin:round;stroke-miterlimit:10"/><path d="m53 73.7-3.3.6 1.5-2.9" style="fill:none;stroke:#0e2947;stroke-width:.25;stroke-linecap:round;stroke-linejoin:round;stroke-miterlimit:10"/><circle cx="49.7" cy="74.4" r=".5" style="fill:#ffcd2d;stroke:#0e2947;stroke-width:.25;stroke-linecap:round;stroke-linejoin:round;stroke-miterlimit:10"/><path fill="#25e899" stroke="#0e2947" stroke-miterlimit="10" stroke-width=".25" d="m45.9 76.4c.3-.2.7-.2 1 .1.2.3.2.7-.1 1-.3.2-.7.2-1-.1-.2-.3-.2-.7.1-1"/><path d="m49.9 75.7-1.4-1.9" style="fill:none;stroke:#0e2947;stroke-width:.25;stroke-linecap:round;stroke-linejoin:round;stroke-miterlimit:10"/><circle cx="20.2" cy="65.9" r="1.1" style="fill:#d1d3d4;stroke:#0e2947;stroke-width:.25;stroke-linecap:round;stroke-linejoin:round;stroke-miterlimit:10"/><path fill="#d6d6ea" stroke="#0e2947" stroke-miterlimit="10" stroke-width=".25" d="m19.9 67 1.5-1.4 6.3 6.9c.6.7.5 1.7-.2 2.2-.7.6-1.7.5-2.2-.2z"/><path fill="#bdbde5" d="m26.1 74.8c-.5 0-5.8-7.8-5.8-7.8s-.1-.4.6-.9c0 0-.3.6.3 1.2s6 7.1 6 7.1 0 .4-1.1.4z"/><path d="m26 70.7c-.8 0-1.9 1-2.2 1.8" style="fill:none;stroke:#0e2947;stroke-width:.25;stroke-linecap:round;stroke-linejoin:round;stroke-miterlimit:10"/><path d="m24.7 71.3 1.7 2.3" style="fill:none;stroke:#0e2947;stroke-width:.25;stroke-linecap:round;stroke-linejoin:round;stroke-miterlimit:10"/><path d="m27.8 72.9c-.8 0-1.9 1-2.2 1.8" style="fill:none;stroke:#0e2947;stroke-width:.25;stroke-linecap:round;stroke-linejoin:round;stroke-miterlimit:10"/><path d="m20.3 65.8 1.6 2.1" style="fill:none;stroke:#0e2947;stroke-width:.25;stroke-linecap:round;stroke-linejoin:round;stroke-miterlimit:10"/><path d="m22.8 67.2-1.8 1.4" style="fill:none;stroke:#0e2947;stroke-width:.25;stroke-linecap:round;stroke-linejoin:round;stroke-miterlimit:10"/><path fill="#25e899" stroke="#0e2947" stroke-miterlimit="10" stroke-width=".25" d="m19.8 66.4c.2.3.7.3 1 .1s.3-.7.1-1-.7-.3-1-.1c-.3.3-.4.7-.1 1"/><path d="m23.5 68.1-1.8 1.4" style="fill:none;stroke:#0e2947;stroke-width:.25;stroke-linecap:round;stroke-linejoin:round;stroke-miterlimit:10"/><use fill="#d6d6ea" xlink:href="#aS"/><path fill="#bcbec0" d="m20.8 63.7c-.3.9-1.1 1.6-1.9 2-.3.1-.7.2-1.1.2-.4-.1-.7-.3-.8-.7s.2-.8.5-1.1c.4-.5.9-.9 1.5-1.2.8-.4 2.3-.6 1.8.8z" clip-path="url(#ad)"/><use fill="none" stroke="#0e2947" stroke-miterlimit="10" stroke-width=".25" xlink:href="#aS"/><path fill="#ffcd2d" stroke="#0e2947" stroke-miterlimit="10" stroke-width=".25" d="m22.5 58.1c-.3.4-.3 1 .1 1.3s1 .2 1.3-.2.3-1-.1-1.3-1-.2-1.3.2z"/><path fill="#0e2947" d="m22.8 59.4v.2l-4.5 6.7c-.1.1-.2.2-.4.1-.1-.1-.2-.2-.1-.4l4.5-6.7c.1-.1.2-.2.4-.1.1.1.1.2.1.2z"/><path fill="#f9ed32" d="m23.4 58.2c.2.1.4.4.4.6-.1-.1-.3-.3-.5-.3-.1 0-.2 0-.3-.1-.1 0-.2 0-.3 0-.1-.1.1-.2.1-.2.2-.2.5-.1.6 0z"/><path fill="#fccf0e" d="m19.5 63.6s.1.4.4.3-1.6 2.5-1.6 2.5-.4.2-.4-.3c-.1-.5 1.6-2.5 1.6-2.5z"/><path fill="#eff4ee" d="m20.7 62.7-1.4-1.4c-.2-.2-.5-.2-.7 0l-.3.3c-.2.2-.2.5 0 .7l1.4 1.4"/><path fill="#0e2947" d="m20.8 62.8c.1-.1.1-.2 0-.3l-1.4-1.4c-.3-.3-.7-.3-1 0l-.3.3c-.3.3-.3.7 0 1l1.4 1.4c.1.1.2.1.3 0s.1-.2 0-.3l-1.4-1.4c-.1-.1-.1-.3 0-.4l.3-.3c.1-.1.3-.1.4 0l1.4 1.4c.1.1.3.1.3 0"/><path fill="#25e899" d="m20.7 62.7c.3.3.3.7 0 1s-.7.3-1 0-.3-.7 0-1 .7-.3 1 0"/><path fill="#0e2947" d="m20.8 63.8c-.4.3-.9.3-1.3 0-.3-.4-.3-.9 0-1.3.4-.3.9-.3 1.3 0 .4.4.4.9 0 1.3m-.9-1c-.2.2-.2.5 0 .7s.5.2.7 0 .2-.5 0-.7-.5-.2-.7 0"/><path fill="#eff4ee" d="m19.4 63.9-1.4-1.4c-.2-.2-.5-.2-.7 0l-.3.3c-.2.2-.2.5 0 .7l1.4 1.4"/><path fill="#0e2947" d="m19.5 64c.1-.1.1-.2 0-.3l-1.4-1.4c-.3-.3-.7-.3-1 0l-.3.3c-.3.3-.3.7 0 1l1.4 1.4c.1.1.2.1.3 0s.1-.2 0-.3l-1.4-1.4c-.1-.1-.1-.3 0-.4l.3-.3c.1-.1.3-.1.4 0l1.4 1.4c.1.1.2.1.3 0"/><path fill="#25e899" d="m19.4 63.9c.3.3.3.7 0 1s-.7.3-1 0-.3-.7 0-1c.2-.3.7-.3 1 0"/><path fill="#0e2947" d="m19.5 65c-.4.3-.9.3-1.3 0-.3-.4-.3-.9 0-1.3.4-.3.9-.3 1.3 0 .3.4.3.9 0 1.3m-1-1c-.2.2-.2.5 0 .7s.5.2.7 0 .2-.5 0-.7-.5-.2-.7 0"/><path fill="#eff4ee" d="m18.1 64.7-1.2-1.5c-.2-.2-.5-.3-.7-.1l-.3.3c-.2.2-.3.5-.1.7l1.2 1.5"/><path fill="#0e2947" d="m18.2 64.8c.1-.1.1-.2 0-.3l-1.2-1.5c-.2-.3-.7-.4-1-.1l-.3.3c-.3.2-.4.7-.1 1l1.2 1.5c.1.1.2.1.3 0s.1-.2 0-.3l-1.2-1.5c-.1-.1-.1-.3.1-.4l.3-.3c.1-.1.3-.1.4.1l1.2 1.5c.1.1.2.1.3 0"/><path fill="#25e899" d="m18.1 64.7c.2.3.2.7-.1 1-.3.2-.7.2-1-.1-.2-.3-.2-.7.1-1s.7-.2 1 .1"/><path fill="#0e2947" d="m18.1 65.8c-.4.3-1 .2-1.3-.2s-.2-1 .2-1.3 1-.2 1.3.2c.2.5.1 1-.2 1.3m-.9-1.1c-.2.2-.3.5-.1.7s.5.3.7.1.3-.5.1-.7-.5-.2-.7-.1"/><path fill="#d6d6ea" d="m36.4 64.1h5.8v1.2h-5.8z"/><path fill="#0e2947" d="m42.5 65.5h-6.5v-1.7h6.5zm-6.1-.4h5.7v-1h-5.7z"/><path fill="#9393b5" d="m40.5 64.1h1.6v1h-1.6z"/><path fill="url(#ae)" d="m45 51.1c-1.8-.6-3.6-1.3-5.4-1.4-1.1 0-2.2.2-3.3.7-.7.3-2.5 1.3-1.4 2.2 1.8 1.4 4.7 1.2 6.7.5 1.3-.4 2.4-1.1 3.4-2z"/><use fill="#d6d6ea" xlink:href="#aT"/><path fill="#003790" d="m44.2 51.3s-.4-6.4-4.8-6.3-4.7 6.2-4.7 6.2 2.9-.3 4.4-.3c2.6-.1 5.1.4 5.1.4z" clip-path="url(#af)"/><use fill="none" stroke="#0e2947" stroke-miterlimit="10" stroke-width=".25" xlink:href="#aT"/><use fill="#d6d6ea" xlink:href="#aU"/><path fill="#f1f2f2" d="m44.1 52.2c-.3 0-1.1-.6-1.4-.7-1.2-.6-2.3-.8-3.6-.4.8 0 1.8.5 2.6.7 1 .3 2 1 3.1.9 0-.4-.1-.8-.2-1.2 0-.1-.3-.6-.3-.6 0 .1.1.8.1.9s0 .3-.3.4z" clip-path="url(#ag)"/><path fill="#bcbec0" d="m37.7 51.3c-1.3.3-2.6.8-3.8 1.5 0-.6.1-1.3.1-1.9.9-.6 1.8-1 2.8-1.3.5-.1.7-.3.9.2 0 .2-.1 1.6 0 1.5z" clip-path="url(#ag)"/><use fill="none" stroke="#0e2947" stroke-miterlimit="10" stroke-width=".25" xlink:href="#aU"/><path fill="#fff" d="m39.5 46.9.2.7h.7l-.6.4.2.7-.5-.4-.6.4.2-.7-.6-.4h.7z"/><path fill="#fff" d="m37.7 46.7.2.4h.5l-.4.3.1.4-.4-.2-.3.2.1-.4-.4-.3h.5z"/><path fill="#fff" d="m41.3 46.7.1.4h.5l-.4.3.1.4-.3-.2-.4.2.1-.4-.4-.3h.5z"/><ellipse cx="53.3" cy="109" fill="url(#ah)" opacity=".39" rx="7.4" ry=".6"/><use fill="#d6d6ea" xlink:href="#aV"/><path fill="#9393b5" d="m55.3 102.7h.6v5l-.3.1z" clip-path="url(#ai)"/><g fill="none" stroke="#0e2947" stroke-miterlimit="10" stroke-width=".25" clip-path="url(#ai)"><path d="m56.9 103.1h-1.6"/><path d="m56.9 104h-1.6"/><path d="m56.8 104.8h-1.4"/><path d="m56.7 106.1h-1.3"/><path d="m56.7 106.9h-1.2"/><path d="m56.6 107.6h-1.1"/></g><use fill="none" stroke="#0e2947" stroke-miterlimit="10" stroke-width=".25" xlink:href="#aV"/><path d="m56.7 105.5h-1.3" style="fill:none;stroke:#0e2947;stroke-width:.75;stroke-linecap:round;stroke-linejoin:round;stroke-miterlimit:10"/><path fill="#dadaf2" stroke="#0e2947" stroke-miterlimit="10" stroke-width=".25" d="m57.3 108.9c0-.7-.6-1.2-1.2-1.2-.7 0-1.2.6-1.2 1.2z"/><path fill="#0e2947" stroke="#0e2947" stroke-miterlimit="10" stroke-width=".25" d="m54.9 108.9h2.5v.3h-2.5z" transform="matrix(-1 0 0 -1 112.1903 218.1786)"/><use fill="#d6d6ea" xlink:href="#aW"/><path fill="#9393b5" d="m50.5 102.7h.6v5l-.3.1z" clip-path="url(#aj)"/><g fill="none" stroke="#0e2947" stroke-miterlimit="10" stroke-width=".25" clip-path="url(#aj)"><path d="m52.1 103.1h-1.6"/><path d="m52.1 104h-1.6"/><path d="m52 104.8h-1.4"/><path d="m51.9 106.1h-1.3"/><path d="m51.8 106.9h-1.1"/><path d="m51.8 107.6h-1.1"/></g><use fill="none" stroke="#0e2947" stroke-miterlimit="10" stroke-width=".25" xlink:href="#aW"/><path d="m51.9 105.5h-1.3" style="fill:none;stroke:#0e2947;stroke-width:.75;stroke-linecap:round;stroke-linejoin:round;stroke-miterlimit:10"/><path fill="#dadaf2" stroke="#0e2947" stroke-miterlimit="10" stroke-width=".25" d="m52.5 108.9c0-.7-.6-1.2-1.2-1.2s-1.2.6-1.2 1.2z"/><path fill="#0e2947" stroke="#0e2947" stroke-miterlimit="10" stroke-width=".25" d="m50.1 108.9h2.5v.3h-2.5z" transform="matrix(-1 0 0 -1 102.5614 218.1786)"/><path fill="#22d186" d="m54.9 102.7h2.3c.2 0 .4-.2.4-.4v-.1c0-.2-.2-.4-.4-.4h-2.3c-.2 0-.4.2-.4.4v.1c0 .2.2.4.4.4z"/><path fill="#22d186" d="m50.2 102.7h2.3c.2 0 .4-.2.4-.4v-.1c0-.2-.2-.4-.4-.4h-2.3c-.2 0-.4.2-.4.4v.1c0 .2.2.4.4.4z"/><path fill="#20bc72" d="m51.9 102.4c.3 0 1-.2 1.2-.4.1-.1-.2-.3-.1-.4.2-.1.4-.3.6-.1.5.6 1.5.6 2.4.8.4.1 1.7-.1 2.1-.3.2-.1-.2 0-.2-.2s-.4-.4-.6-.6c-.2-.1-.4-.2-.7-.2-1.5-.3-3-.4-4.5-.5-.3 0-.6 0-.9.1-.2.1-.4.2-.5.3-.2.1-.7.3-.8.5s-.5.5-.4.6c.5.4 1.8.5 2.4.4z"/><path d="m59.3 92.1v9.8h-11.6v-10c0-3.3 2.8-6 6.2-5.8 3.1.2 5.4 2.9 5.4 6z" style="fill:#25e899;stroke:#22d186;stroke-width:.5;stroke-linecap:round;stroke-linejoin:round;stroke-miterlimit:10"/><path fill="url(#al)" d="m56.7 87.1s-4.5-.7-6.2 2.6-1.1 12.2-1.1 12.2h-1.7v-10s.2-5.4 5.8-5.8c0 0 2.2.1 3.2 1z"/><path d="m57.5 100h-7.3" style="fill:none;stroke:#17af6e;stroke-width:.25;stroke-linecap:round;stroke-linejoin:round;stroke-miterlimit:10"/><path d="m57.5 100.6h-7.3" style="fill:none;stroke:#17af6e;stroke-width:.25;stroke-linecap:round;stroke-linejoin:round;stroke-miterlimit:10"/><path fill="url(#an)" d="m59 92.9s-3.6 3.1-10.9-.2v2s3 1.6 6.2 1.6c3.3 0 4.7-1.5 4.7-1.5z"/><path fill="#17af6e" d="m59 92.9s-3.6 3.1-10.9-.2c-.1 0 6.7 2.5 10.9.2z"/><path fill="#91f9c9" d="m59 92.9s-3.6 3.4-10.9-.2c-.1 0 6.3 3.2 10.9.2z"/><path fill="url(#ao)" d="m59 92.9c-4.2 2.3-11-.2-11-.2s3-3.4 7.1-2.9c3.4.4 3.9 3.1 3.9 3.1z"/><ellipse cx="58.6" cy="93" fill="#17af6e" opacity=".38" rx=".2" ry=".6"/><path fill="#dadaf2" d="m58.8 93.3c0 .1 0 .2-.1.2v.1h-.1s-.1 0-.1-.1c-.1-.1-.1-.5-.1-.7s.1-.3.2-.3h.1v.1c.2.1.2.4.1.7z"/><ellipse cx="58.8" cy="93" fill="#cdcde0" rx=".2" ry=".5"/><ellipse cx="48.3" cy="92.9" fill="#22d186" rx=".2" ry=".6"/><path fill="#dadaf2" d="m48.1 93.1c0 .1 0 .2.1.2v.1h.1s.1 0 .1-.1c.1-.1.1-.5.1-.7s-.1-.3-.2-.3h-.1v.1c-.1.2-.2.5-.1.7z"/><ellipse cx="48.2" cy="92.9" fill="#cdcde0" rx=".2" ry=".5"/><circle cx="54.2" cy="90.9" r="2.9" fill="url(#ap)"/><circle cx="54.4" cy="90.1" r="2.9" fill="#f1f2f2" stroke="#143954" stroke-miterlimit="10" stroke-width=".25"/><circle cx="54.4" cy="90" r="2" fill="#143954"/><circle cx="54.3" cy="89.3" r=".8" fill="#fff"/><circle cx="53.4" cy="90.5" r=".3" fill="#fff"/><ellipse cx="48.6" cy="95.9" fill="#22d186" rx=".5" ry="1.4"/><path fill="#908dfc" d="m48.1 96.5c.1.2.1.4.2.5v-2.2c-.2.3-.3 1.1-.2 1.7z"/><path fill="#908dfc" d="m48.3 94.7v2.5h.2c.1 0 .2 0 .2-.1.2-.3.3-1.1.2-1.7-.1-.4-.2-.6-.4-.6h-.1-.1z"/><ellipse cx="48.3" cy="95.9" fill="#5c5abf" rx=".5" ry="1.2"/><ellipse cx="48.3" cy="95.9" fill="#6152f5" rx=".3" ry=".8"/><path fill="#dadaf2" d="m48.1 96.2c0 .1.1.2.1.3v.1h.2s.1 0 .1-.1c.1-.2.2-.6.1-1 0-.2-.1-.4-.2-.4h-.2v.1c-.2.3-.2.7-.1 1z"/><ellipse cx="48.2" cy="95.9" fill="#cdcde0" rx=".3" ry=".7"/><ellipse cx="48.1" cy="95.9" fill="#9393b5" rx=".2" ry=".4"/><ellipse cx="47.9" cy="95.9" fill="#0e2947" rx=".6" ry=".8"/><path d="m59.3 96.1v2.6l-2.6-.4z" style="fill:#25e899;stroke:#22d186;stroke-width:.25;stroke-linecap:round;stroke-linejoin:round;stroke-miterlimit:10"/><path d="m57.5 98.1 1.5-1.3v1.6" style="fill:none;stroke:#22d186;stroke-width:.1;stroke-linecap:round;stroke-linejoin:round;stroke-miterlimit:10;stroke-dasharray:0 1.0938"/><path fill="#d6d6ea" stroke="#0e2947" stroke-miterlimit="10" stroke-width=".1" d="m59.8 96.1-1.6.9c-.4.2-.9.1-1.1-.3l-.1-.1c-.2-.4-.1-.9.3-1.1l1.6-.9c.4-.2.9-.1 1.1.3l.1.2c.2.3.1.8-.3 1z"/><use fill="#d6d6ea" xlink:href="#aX"/><path fill="#bcbec0" d="m58.8 96.5c-.5-.1-1-.4-1.4-.8-.1-.2-.2-.4-.2-.6s.1-.4.3-.5.5 0 .7.1c.3.2.6.4.8.7.3.4.6 1.2-.2 1.1z" clip-path="url(#aq)"/><use fill="none" stroke="#0e2947" stroke-miterlimit="10" stroke-width=".1" xlink:href="#aX"/><path fill="#fcda9e" d="m57.3 95.8c-.1 0-.1-.1-.2-.1-.1.3-.3.6-.5.9-.1.2-.2.4-.4.7 0 0 .1.1.1.1.1-.3.3-.5.4-.7.3-.3.4-.7.6-.9z"/><path fill="#fcda9e" d="m57.9 96.2c-.1 0-.1-.1-.2-.1-.1.3-.3.6-.4.8s-.2.5-.4.7c0 0 .1.1.1.1.1-.3.3-.5.5-.8.1-.2.2-.5.4-.7z"/><path fill="#fcda9e" d="m58.4 96.5c-.1 0-.1-.1-.2-.1-.1.3-.3.5-.4.8-.1.2-.3.5-.4.7 0 0 .1 0 .1.1.1-.3.3-.5.5-.8.1-.2.3-.5.4-.7z"/><path fill="#0e2947" d="m55.6 94.3c.4.2.7.4 1.1.7.2.1.4.2.7.3 0-.1 0-.2 0-.3.1-.2.3-.1.4 0 0 0 .1.1.1.2s0 .1-.1.2c0 0-.1.1-.2.1.1.1.2.1.3.2-.1-.1-.1-.2 0-.3.1-.2.3-.1.4 0 0 0 .1.1.1.2s0 .1-.1.2-.2.1-.2.1c.1.1.3.1.4.2-.1-.1-.1-.3-.1-.4.1-.2.3-.1.4 0 0 0 .1.1.1.2s0 .1-.1.2-.2.1-.3.1c.2.1.3.1.5.2.8.3 1.6.7 2.5.9s1.8 0 2.7-.1c.1 0 .1 0 .2-.1 0 0 .1 0 0 .1-.1.3-.2.6-.3.9-.1.4-.3.8-.5 1.2s-.4.7-.6 1.1c-.1.2-.3.5-.6.4s0 0 0-.1v.1c-.4-.7-.7-1.3-1.2-1.9-.4-.4-.8-.8-1.3-1.2.1.3 0 .8-.3 1-.5.4-1.3.2-1.9 0-1.2-.4-2.4-1.2-3.2-2.2-.4-.5.2-1.2.7-1.4-.4-.2-.9-.4-1.3-.5 0 0-.3-.2.1-.8 0-.1.1-.1.2-.2.2-.1.4.2.4.3.2 0 .6.2 1 .4zm-1.4-.6v.1c0 .1-.1.3-.2.3 1.3.4 2.5 1.1 3.7 1.8.7.4 1.4.8 2 1.3.5.4 1 .8 1.4 1.2.3.3.5.6.8 1 .3-.8.7-1.6 1.3-2.3-.3 0-.7 0-1 0-.8-.1-1.5-.3-2.2-.6-1.5-.6-3-1.3-4.5-2.2-.2-.1-.4-.2-.6-.4-.2-.1-.4-.2-.5-.3 0 0-.1-.1-.1-.1v.1s-.1.1-.1.1zm.4 1.8c-.1.1-.1.2-.1.4 0 .1.1.2.2.3s.2.3.3.4c.5.5 1 .9 1.6 1.2s1.3.6 1.9.7c.4.1.8 0 1.1-.3.2-.2.3-.6.1-.9 0 0-.1 0-.1-.1-.1 0-.1-.1-.2-.1.2.5-.1 1.1-.7 1.2-.4.1-.7-.1-1-.2-.4-.2-.7-.3-1-.5-.1-.1-.2-.1-.3-.2s-.1-.1-.1-.1c-.1-.1-.3-.2-.4-.3-.3-.2-.6-.4-.7-.8-.3-.6.3-1 .7-1.2-.2-.1-.3-.1-.5-.2-.5.2-.7.4-.8.7zm.6 0c-.2.3-.2.6 0 .9s.6.6 1 .8c.1-.2.3-.5.4-.7.1-.3.3-.6.5-.8-.1.3-.3.6-.5.9-.1.2-.2.4-.4.7 0 0 .1.1.1.1.1-.3.3-.5.4-.7s.3-.5.5-.8c-.1.3-.3.6-.5.8-.1.2-.3.5-.4.7.1.1.2.1.2.2 0 0 .1 0 .1.1.1-.3.3-.5.4-.7s.3-.6.4-.8c-.1.3-.3.6-.4.8s-.2.5-.4.7c0 0 .1.1.1.1.1-.3.3-.5.5-.8.1-.2.3-.5.4-.7-.1 0-.1-.1-.2-.1-.1-.1-.2-.1-.3-.2-.1 0-.1-.1-.2-.1-.3-.2-.7-.4-1-.6 0 0-.1 0-.1-.1-.2 0-.4.1-.6.3zm2.3-.1h.2c.1 0 .1-.1.1-.2-.1-.1-.2-.2-.3-.1s0 .2 0 .3zm.6.2h.2c.1 0 .1-.1.1-.2-.1-.1-.2-.2-.3-.1-.2.1-.1.2 0 .3zm.5.2h.2c.1 0 .1-.1.1-.2-.1-.1-.2-.2-.3-.1s0 .2 0 .3zm-1.2 1.2c-.1.2-.3.5-.4.7.1.1.2.1.4.2.1-.3.3-.5.4-.8s.3-.5.4-.8c-.1-.1-.2-.1-.3-.2-.1.4-.3.6-.5.9zm.4.2c-.1.2-.3.5-.4.7 0 0 .1 0 .1.1.1-.3.3-.5.5-.8.1-.2.3-.5.4-.7-.1 0-.1-.1-.2-.1-.1.3-.2.5-.4.8zm-.2.8c.2.1.4.2.7.2.3.1.7.1.9-.2.3-.3.3-.6.2-.9-.3-.2-.6-.4-.9-.6-.1.3-.3.5-.4.7-.2.3-.4.6-.5.8zm4.3 1.5c0 .1.1.1.1.2.2-.9.7-1.9 1.3-2.6-.1 0-.1 0-.2 0-.5.7-.9 1.5-1.2 2.4zm.7-1.2c-.2.4-.4.9-.5 1.4.1.2.2.4.3.7.1-.5.3-.9.5-1.4.1-.2.2-.5.3-.7.1-.3.3-.7.5-.9 0 0 0-.1.1-.1.1-.1.2-.2.3-.3-.2 0-.5.1-.7.1-.3.4-.6.8-.8 1.2zm1.3-1c-.1.1-.1.2-.2.3-.1.3-.3.6-.4.9-.1.2-.2.4-.3.5 0 .1-.1.3-.1.4-.1.2-.1.4-.2.5 0 .1 0 .2-.1.2v.1c.3-.1.5-.6.6-.8.2-.3.3-.6.5-.8l.3-.6c.1-.3.2-.6.3-.9 0-.1.1-.2.1-.3-.2.2-.4.3-.5.5zm-.9 2.7c-.1.2-.3.4-.5.5h.1c.2.1.6-.6.8-1.1-.1.1-.2.4-.4.6zm-.5.4c0-.1 0-.1 0 0z"/><path fill="url(#as)" d="m54.3 93.5s0 .1 0 0c0 .1-.1.2-.1.2v.1c0 .1-.1.3-.2.3 1.3.4 2.5 1.1 3.7 1.8.7.4 1.4.8 2 1.3.5.4 1 .8 1.4 1.2.3.3.5.6.8 1 .3-.8.7-1.6 1.3-2.3-.3 0-.7 0-1 0-.8-.1-1.5-.3-2.2-.6-1.5-.6-3-1.3-4.5-2.2-.2-.1-.4-.2-.6-.4-.2-.1-.4-.2-.5-.3 0 0-.1-.1-.1-.1z"/><path fill="url(#at)" d="m55.3 94.8c-.4.2-.6.4-.7.7-.1.1-.1.2-.1.4 0 .1.1.2.2.3s.2.3.3.4c.5.5 1 .9 1.6 1.2s1.3.6 1.9.7c.4.1.8 0 1.1-.3.2-.2.3-.6.1-.9 0 0-.1 0-.1-.1-.1 0-.1-.1-.2-.1.2.5-.1 1.1-.7 1.2-.4.1-.7-.1-1-.2-.4-.2-.7-.3-1-.5-.1-.1-.2-.1-.3-.2s-.1-.1-.1-.1c-.1-.1-.3-.2-.4-.3-.3-.2-.6-.4-.7-.8-.3-.6.3-1 .7-1.2-.3-.1-.4-.1-.6-.2z"/><path fill="#f7c535" d="m57.8 95.2c-.1-.1-.2-.2-.3-.1s0 .2 0 .3h.2c.1-.1.1-.2.1-.2z"/><path fill="#f7c535" d="m58.4 95.4c-.1-.1-.2-.2-.3-.1s0 .2 0 .3h.2c0-.1.1-.1.1-.2z"/><path fill="#f7c535" d="m58.9 95.6c-.1-.1-.2-.2-.3-.1s0 .2 0 .3h.2c.1 0 .1-.1.1-.2z"/><path fill="#544351" d="m57.7 96c-.1 0-.1 0 0 0-.1 0 0 0 0 0z"/><path fill="#0e2947" d="m63.4 97.1c-.1 0-.1 0-.2 0-.5.7-1 1.5-1.2 2.4 0 .1.1.1.1.2.2-1 .6-1.9 1.3-2.6z"/><path fill="url(#au)" d="m64.1 97c-.2 0-.5.1-.7.1-.3.4-.6.8-.8 1.3-.2.4-.4.9-.5 1.4.1.2.2.4.3.7.1-.5.3-.9.5-1.4.1-.2.2-.5.3-.7.1-.3.3-.7.5-.9 0 0 0-.1.1-.1.1-.3.2-.4.3-.4z"/><path fill="#d39f1c" d="m64.3 97.2c0-.1.1-.2.1-.3-.2.1-.4.2-.5.4-.1.1-.1.2-.2.3-.1.3-.3.6-.4.9-.1.2-.2.4-.3.5 0 .1-.1.3-.1.4-.1.2-.1.4-.2.5 0 .1 0 .2-.1.2v.1c.3-.1.5-.6.6-.8.2-.3.3-.6.5-.8l.3-.6c.1-.2.2-.5.3-.8z"/><path fill="#0e2947" d="m63.4 99.3c-.1.2-.3.4-.4.7-.1.2-.3.4-.5.5h.1c.2.1.6-.6.8-1.2z"/><path fill="#eff4ee" d="m59.5 95.9.6-.9c.1-.1 0-.3-.1-.4l-.2-.1c-.1-.1-.3 0-.4.1l-.6.9"/><path fill="#0e2947" d="m59.4 96h.2l.6-.9c.1-.2.1-.4-.1-.5l-.2-.1c-.2-.1-.4-.1-.5.1l-.6.9v.2h.2l.6-.9c.1-.1.2-.1.2 0l.2.1c.1.1.1.2 0 .2l-.6.9c-.1-.1 0-.1 0 0"/><path fill="#25e899" d="m59.5 95.9c-.1.2-.4.2-.6.1s-.2-.4-.1-.6.4-.2.6-.1c.1.2.2.4.1.6"/><path fill="#0e2947" d="m58.9 96.1c-.2-.2-.3-.5-.1-.7s.5-.3.7-.1.3.5.1.7-.5.3-.7.1m.4-.7c-.1-.1-.3 0-.4.1s0 .3.1.4.3 0 .4-.1 0-.3-.1-.4"/><path fill="#eff4ee" d="m58.6 95.3.6-.9c.1-.1 0-.3-.1-.4l-.1-.2c-.1-.1-.3 0-.4.1l-.6.9"/><path fill="#0e2947" d="m58.6 95.4h.2l.6-.9c.1-.2.1-.4-.1-.5l-.3-.3c-.2-.1-.4-.1-.5.1l-.6.9v.2h.2l.6-.9c.1-.1.2-.1.2 0l.2.1c.1.1.1.2 0 .2l-.6.9c0 .1 0 .1.1.2"/><path fill="#25e899" d="m58.6 95.3c-.1.2-.4.2-.6.1s-.2-.4-.1-.6.4-.2.6-.1.3.4.1.6"/><path fill="#0e2947" d="m58 95.5c-.2-.2-.3-.5-.1-.7s.5-.3.7-.1.3.5.1.7c-.1.2-.4.2-.7.1m.5-.7c-.1-.1-.3 0-.4.1s0 .3.1.4.3 0 .4-.1c0-.1 0-.3-.1-.4"/><path fill="#eff4ee" d="m58 94.7.7-.9c.1-.1.1-.3 0-.4l-.2-.2c-.1-.1-.3-.1-.4 0l-.7.9"/><path fill="#0e2947" d="m57.9 94.7h.2l.7-.9c.1-.2.1-.4-.1-.6l-.2-.2c-.1 0-.3 0-.5.2l-.7.9v.2h.2l.7-.9c.1-.1.2-.1.2 0l.2.2c.1.1.1.2 0 .2l-.7.9c0-.1 0 0 0 0"/><path fill="#25e899" d="m58 94.7c-.1.2-.4.2-.6.1s-.2-.4-.1-.6.4-.2.6-.1.3.4.1.6"/><path fill="#0e2947" d="m57.4 94.8c-.2-.2-.2-.5-.1-.7.2-.2.5-.2.7-.1.2.2.2.5.1.7-.2.2-.5.3-.7.1m.5-.6c-.1-.1-.3-.1-.4 0s-.1.3 0 .4.3.1.4 0 .1-.3 0-.4"/><path fill="#eff4ee" d="m55.6 95.4.9.3c.1 0 .2.2.1.3l-.1.2c0 .1-.2.2-.3.1l-.8-.3"/><path fill="#0e2947" d="m55.6 95.4s.1-.1.1-.1l.9.3c.2.1.3.3.2.4l-.1.2c-.1.2-.3.3-.4.2l-.9-.3s-.1-.1-.1-.1.1-.1.1-.1l.9.3c.1 0 .2 0 .2-.1l.1-.2c0-.1 0-.2-.1-.2l-.9-.3c0 .1-.1 0 0 0"/><path fill="#25e899" d="m55.6 95.4c-.2-.1-.4 0-.4.2-.1.2 0 .4.2.4.2.1.4 0 .4-.2.1-.1 0-.3-.2-.4"/><path fill="#0e2947" d="m55.1 95.6c.1-.2.3-.3.6-.2.2.1.3.3.2.6-.1.2-.3.3-.6.2-.2-.2-.3-.4-.2-.6m.6.2c0-.1 0-.3-.1-.3s-.3 0-.3.1 0 .3.1.3c.2.1.3 0 .3-.1"/><path fill="#eff4ee" d="m55.4 96.2.9.3c.1 0 .2.2.1.3l-.1.2c0 .1-.2.2-.3.1l-.9-.3"/><path fill="#0e2947" d="m55.3 96.2s.1-.1.1-.1l.9.3c.2.1.3.3.2.4l-.1.2c-.1.2-.3.3-.4.2l-.9-.3s-.1-.1-.1-.1.1-.1.1-.1l.9.3c.1 0 .2 0 .2-.1l.1-.2c0-.1 0-.2-.1-.2z"/><path fill="#25e899" d="m55.4 96.2c-.2-.1-.4 0-.4.2-.1.2 0 .4.2.4.2.1.4 0 .4-.2 0-.1-.1-.3-.2-.4"/><path fill="#0e2947" d="m54.8 96.4c.1-.2.3-.3.6-.2.2.1.3.3.2.6-.1.2-.3.3-.6.2-.1-.1-.2-.4-.2-.6m.7.2c0-.1 0-.3-.1-.3s-.3 0-.3.1 0 .3.1.3c.1.1.2.1.3-.1"/><path fill="#eff4ee" d="m55.3 97 .9.2c.1 0 .2.2.2.3l-.1.2c0 .1-.2.2-.3.2l-.9-.2"/><path fill="#0e2947" d="m55.2 96.9c0-.1.1-.1.1-.1l.9.2c.2 0 .3.2.2.4l-.1.2c0 .2-.2.3-.4.2l-.9-.2c-.1 0-.1-.1-.1-.1 0-.1.1-.1.1-.1l.9.2c.1 0 .2 0 .2-.1l.1-.2c0-.1 0-.2-.1-.2l-.9-.2c0 .1-.1.1 0 0"/><path fill="#25e899" d="m55.3 97c-.2 0-.4.1-.4.2 0 .2.1.4.2.4.2 0 .4-.1.4-.2 0-.2-.1-.4-.2-.4"/><path fill="#0e2947" d="m54.7 97.2c.1-.2.3-.4.5-.3s.4.3.3.5-.3.4-.5.3c-.2 0-.3-.3-.3-.5m.7.2c0-.1 0-.3-.2-.3-.1 0-.3 0-.3.2 0 .1 0 .3.2.3.1 0 .3-.1.3-.2"/><use fill="#d6d6ea" xlink:href="#aY"/><path fill="#bdbde5" d="m55.6 95.4-1.4.2-.1.4 1.4.2z" clip-path="url(#av)"/><path fill="#c5c5ea" d="m55.1 97.4-1-.6s-.1 0-.1-.1 0-.1 0-.1 1.3.7 1.3.7-.1.1-.2.1z" clip-path="url(#av)"/><use fill="none" stroke="#0e2947" stroke-miterlimit="10" stroke-width=".1" xlink:href="#aY"/><use fill="#d6d6ea" xlink:href="#aZ"/><path fill="#bdbde5" d="m48.2 97c.3.1 5.6-.3 5.6-.3s.1-.6.1-1c0 0-.1.6-.7.6s-5.6 0-5.6 0 0 .5.6.7z" clip-path="url(#aw)"/><use fill="none" stroke="#0e2947" stroke-miterlimit="10" stroke-width=".1" xlink:href="#aZ"/><path d="m50.5 95.5c.3.3.2.9 0 1.3" style="fill:none;stroke:#0e2947;stroke-width:.1;stroke-linecap:round;stroke-linejoin:round;stroke-miterlimit:10"/><path d="m49 95.5c.3.3.3 1.1.1 1.4" style="fill:none;stroke:#0e2947;stroke-width:.1;stroke-linecap:round;stroke-linejoin:round;stroke-miterlimit:10"/><path d="m54 96.2h-1.2" style="fill:none;stroke:#0e2947;stroke-width:.1;stroke-linecap:round;stroke-linejoin:round;stroke-miterlimit:10"/><path d="m52.8 95.6v1.1" style="fill:none;stroke:#0e2947;stroke-width:.1;stroke-linecap:round;stroke-linejoin:round;stroke-miterlimit:10"/><path fill="#25e899" stroke="#0e2947" stroke-miterlimit="10" stroke-width=".1" d="m54 96.5c-.2 0-.3-.1-.3-.3s.1-.3.3-.3.3.1.3.3-.1.3-.3.3"/><path d="m52.2 95.6.1 1.1" style="fill:none;stroke:#0e2947;stroke-width:.1;stroke-linecap:round;stroke-linejoin:round;stroke-miterlimit:10"/><path fill="#0e2947" d="m47.5 91.1c-.1-.7.2-1.8.5-2.4s.8-1.2 1.3-1.7c1.1-1 2.5-1.5 4-1.6 1.4-.1 3 .3 4.1 1.2s1.9 2.3 2 3.7c-.4-1.3-1.2-2.5-2.3-3.3s-2.5-1.1-3.8-1c-1.3 0-2.7.5-3.7 1.4-.5.4-1 .9-1.4 1.5-.4.5-.7 1.5-.7 2.2z"/><path fill="none" stroke="#0e2947" stroke-linejoin="round" stroke-miterlimit="10" stroke-width=".25" d="m56.9 86.4 2.2-2.8"/><path fill="#054978" d="m59.2 84.3h-.2c-.3 0-.6-.2-.7-.5v-.2c0-.3.2-.6.5-.7h.2c.3 0 .6.2.7.5v.2c.1.3-.2.6-.5.7z"/><path fill="none" stroke="#0e2947" stroke-linejoin="round" stroke-miterlimit="10" stroke-width=".25" d="m51.1 86.2-2.3-2.7"/><use fill="#ed1c24" xlink:href="#a0"/><path fill="#fff" d="m47.8 82.9h2.1v.2h-2.1z" clip-path="url(#ax)"/><path fill="#fff" d="m47.8 84h2.1v.2h-2.1z" clip-path="url(#ax)"/><path fill="#fff" d="m47.8 83.7h2.1v.2h-2.1z" clip-path="url(#ax)"/><path fill="#fff" d="m47.8 83.3h2.1v.2h-2.1z" clip-path="url(#ax)"/><path fill="#fff" d="m59.1 83.1.1.3h.3l-.2.2.1.4-.3-.2-.2.2v-.3l-.3-.2h.4z"/></g></switch></svg>