<svg xmlns="http://www.w3.org/2000/svg" xmlns:xlink="http://www.w3.org/1999/xlink" enable-background="new 0 0 110.9 128" viewBox="0 0 110.9 128"><defs><path id="a" d="m101.6 37.6v53.1l-46 26.6-46-26.6v-53.1l46-26.6z"/><clipPath id="b"><use xlink:href="#a"/></clipPath><radialGradient id="c" cx="38.876" cy="41.658" r="17.352" gradientUnits="userSpaceOnUse"><stop offset="0" stop-color="#ffdb01"/><stop offset=".387" stop-color="#ffb701"/><stop offset="1" stop-color="#ff9a00"/></radialGradient><clipPath id="d"><path d="m32.8 63 5.7 7.4c.5.6.4 1.5-.3 2-.6.5-1.5.4-2-.3l-5.7-7.4c-.5-.6-.4-1.5.3-2 .6-.4 1.5-.3 2 .3z"/></clipPath><clipPath id="e"><use xlink:href="#O"/></clipPath><clipPath id="f"><use xlink:href="#P"/></clipPath><clipPath id="g"><use xlink:href="#Q"/></clipPath><clipPath id="h"><use xlink:href="#R"/></clipPath><clipPath id="i"><use xlink:href="#S"/></clipPath><linearGradient id="j"><stop offset="0" stop-color="#9393b5"/><stop offset="1" stop-color="#dadaf2" stop-opacity="0"/></linearGradient><linearGradient id="k" x1="83.766" x2="83.677" y1="94.589" y2="96.908" gradientUnits="userSpaceOnUse" xlink:href="#j"/><linearGradient id="l"><stop offset="0" stop-color="#b3a5cc"/><stop offset="1" stop-color="#dadaf2" stop-opacity="0"/></linearGradient><linearGradient id="m" x1="83.704" x2="83.73" y1="95.136" y2="96.194" gradientUnits="userSpaceOnUse" xlink:href="#l"/><clipPath id="n"><use xlink:href="#T"/></clipPath><linearGradient id="o"><stop offset="0" stop-color="#0e2947"/><stop offset="1" stop-color="#143954" stop-opacity="0"/></linearGradient><linearGradient id="p" x1="83.997" x2="83.61" y1="70.723" y2="75.619" gradientUnits="userSpaceOnUse" xlink:href="#o"/><linearGradient id="q"><stop offset="0" stop-color="#d6d6ea"/><stop offset="1" stop-color="#6152f5" stop-opacity="0"/></linearGradient><linearGradient id="r" x1="84.598" x2="83.593" y1="83.917" y2="85.173" gradientUnits="userSpaceOnUse" xlink:href="#q"/><clipPath id="s"><use xlink:href="#U"/></clipPath><clipPath id="t"><use xlink:href="#V"/></clipPath><clipPath id="u"><use xlink:href="#W"/></clipPath><linearGradient id="v" x1="11.764" x2="11.675" y1="94.589" y2="96.908" gradientTransform="matrix(-1 0 0 1 87.3979 0)" gradientUnits="userSpaceOnUse" xlink:href="#j"/><linearGradient id="w" x1="11.701" x2="11.727" y1="95.136" y2="96.194" gradientTransform="matrix(-1 0 0 1 87.3979 0)" gradientUnits="userSpaceOnUse" xlink:href="#l"/><clipPath id="x"><use xlink:href="#X"/></clipPath><linearGradient id="y" x1="11.994" x2="11.608" y1="70.723" y2="75.619" gradientTransform="matrix(-1 0 0 1 87.3979 0)" gradientUnits="userSpaceOnUse" xlink:href="#o"/><linearGradient id="z" x1="12.595" x2="11.591" y1="83.917" y2="85.173" gradientTransform="matrix(-1 0 0 1 87.3979 0)" gradientUnits="userSpaceOnUse" xlink:href="#q"/><clipPath id="A"><use xlink:href="#Y"/></clipPath><linearGradient id="B"><stop offset="0" stop-color="#0e2947"/><stop offset="1" stop-color="#0e2947" stop-opacity="0"/></linearGradient><linearGradient id="C" x1="26.713" x2="24.96" y1="125.903" y2="127.046" gradientTransform="matrix(-.3296 -.9441 .9441 -.3296 -19.7607 135.058)" gradientUnits="userSpaceOnUse" xlink:href="#B"/><clipPath id="D"><use xlink:href="#Z"/></clipPath><linearGradient id="E" x1="70.547" x2="68.794" y1="69.668" y2="70.811" gradientUnits="userSpaceOnUse" xlink:href="#B"/><clipPath id="F"><use xlink:href="#aa"/></clipPath><linearGradient id="G" x1="79.519" x2="79.662" y1="63.179" y2="66.346" gradientUnits="userSpaceOnUse"><stop offset="0" stop-color="#0e2947"/><stop offset=".806" stop-color="#0e2947" stop-opacity=".194"/><stop offset="1" stop-color="#0e2947" stop-opacity="0"/></linearGradient><clipPath id="H"><use xlink:href="#ab"/></clipPath><linearGradient id="I" x1="79.753" x2="79.622" y1="63.081" y2="71.287" gradientUnits="userSpaceOnUse" xlink:href="#B"/><clipPath id="J"><use xlink:href="#ac"/></clipPath><clipPath id="K"><use xlink:href="#ad"/></clipPath><linearGradient id="L" x1="80.034" x2="80.09" y1="48.144" y2="52.849" gradientUnits="userSpaceOnUse" xlink:href="#B"/><clipPath id="M"><use xlink:href="#ae"/></clipPath><clipPath id="N"><use xlink:href="#af"/></clipPath><path id="O" d="m33.9 74.2h10.6c1 0 1.9-.8 1.9-1.9v-4.1h-14.3v4.1c0 1 .8 1.9 1.8 1.9z"/><path id="P" d="m68.5 43.4c-.1.1-.1.1-.2.2s-.2 0-.3 0c0-.1-.1-.3-.1-.4s0-.3.1-.4c.1-.2.4-.2.5-.3.2-.1.3-.2.4-.3s.1-.2.2-.2c.3 0 .3.5.2.7-.1.3-.5.5-.8.7z"/><path id="Q" d="m77.1 43.5c.1.1.1.1.2.2h.3c0-.1.1-.3.1-.4s0-.3-.1-.4c-.1-.2-.4-.2-.5-.3-.2-.1-.3-.2-.4-.3s-.1-.2-.2-.2c-.3 0-.3.5-.2.7.2.2.5.4.8.7z"/><path id="R" d="m82.8 94.6-.4-8.1h2.6l-.3 8.1c0 .5-.4.9-1 .9-.5 0-.9-.4-.9-.9z"/><path id="S" d="m86 96.6h-4.5c-.3 0-.5-.2-.5-.5v-.4c0-.3.2-.5.5-.5h4.5c.3 0 .5.2.5.5v.4c0 .3-.2.5-.5.5z"/><path id="T" d="m82.4 84.9-.6-5.5c-.2-1.8-.1-3.5.2-5.3l3.4.3c.2 1.6.3 3.2.1 4.9l-.3 3.1c-.1 1.4-1.3 2.5-2.8 2.5z"/><path id="U" d="m81.7 88.5-2-9.6-.1-2.4 6.6.4-.2 11.6z"/><path id="V" d="m76.6 94.6.4-8.1h-2.6l.3 8.1c0 .5.4.9 1 .9.5 0 .9-.4.9-.9z"/><path id="W" d="m73.4 96.6h4.6c.3 0 .5-.2.5-.5v-.4c0-.3-.2-.5-.5-.5h-4.5c-.3 0-.5.2-.5.5v.4c-.1.3.1.5.4.5z"/><path id="X" d="m77 84.9.6-5.5c.2-1.8.1-3.5-.2-5.3l-3.4.3c-.2 1.6-.3 3.2-.1 4.9l.3 3.1c.1 1.4 1.3 2.5 2.8 2.5z"/><path id="Y" d="m77.7 88.5 2-9.6.1-2.4-6.6.4.2 11.6z"/><path id="Z" d="m92 66.9-5.3-2-1.5 3.1 4.8 2.9z"/><path id="aa" d="m67.9 68.8 4.3-3.6 2.5 2.4-3.7 4.4z"/><path id="ab" d="m86.7 79.2h-14.3l-.2-14 2.4-.5 1.8-.3v.5c0 1.8 3.3 3.3 3.3 3.3s3.3-1.5 3.3-3.3c0-.2 0-.3 0-.5.6.1 1.1.2 1.6.3l2.4.5z"/><path id="ac" d="m84.5 79.9-1.7-3.5c-.2-.4.1-.8.5-.8l2.3-.1c.6 0 1.1.3 1.4.8l.3.6c.3.5.1 1.2-.3 1.6l-1.5 1.6c-.4.2-.9.2-1-.2z"/><path id="ad" d="m59.4 61.6-2.7 2.8c-.3.3-.2.8.2.9l2.1.8c.5.2 1.1.1 1.5-.3l.4-.5c.4-.4.5-1.1.3-1.6l-1-2c-.1-.3-.6-.4-.8-.1z"/><path id="ae" d="m74.1 50.5c0-.2 0-.4.1-.7.1-.5.1-5.1 5.7-5.1 4.7 0 5.5 5.3 5.1 6.1-.6.2-1.2-.3-1.8-.6-1.3-.8-2.8-1-4.3-.9-1 .1-2 .5-3 .9-.2.3-1.8 1.6-1.8.3z"/><path id="af" d="m74.4 52.2c0 .1 0 .2.1.3s.2 0 .3 0c1.4-.7 3-1.3 4.6-1.4s3.3.2 4.6 1.2c.3.2.6.4.9.3.2-.1.2-.2.3-.4.2-.5-.1-1.1-.5-1.5s-.9-.6-1.4-.8c-1-.4-2.1-.8-3.2-.8-1.3 0-2.6.3-3.8.8-.5.2-1.3.4-1.7.8-.4.2-.2 1-.2 1.5z"/></defs><switch><g><path fill="#f43847" d="m111 32.3v64l-55.4 32-44.4-25.6-.2-.1-10.8-6.3v-64l55.4-32z"/><use fill="#d6f2ff" xlink:href="#a"/><g clip-path="url(#b)"><g fill="#fccf0e" opacity=".35"><path d="m41.5 45.3c.2-.1.5.1.6.4.1.2.1.5.2.7.1.5.2.6.7.6.2 0 .5 0 .7.2.3.2.4.5.4.7s0 .4.1.6.3.3.5.3c-.2.2-.5.1-.7-.1s-.2-.5-.3-.7c-.1-.4-.4-.5-.9-.5-.2 0-.5-.1-.8-.3-.2-.2-.3-.5-.3-.8 0-.2 0-.4 0-.6.2-.3.1-.5-.2-.5z"/><path d="m43.1 43.8c.3-.4.9-.5 1.4-.2.2.1.4.3.5.4s.3.1.5 0c.5 0 1 .2 1.4.3s.8.2 1.2.1c-.3.4-.9.4-1.3.3-.5-.1-.9-.2-1.3-.2-.2 0-.5 0-.8-.1-.2-.2-.4-.3-.5-.5-.2-.2-.7-.3-1.1-.1z"/><path d="m43.9 41c0-.4.4-.8.8-.8h.6c.1 0 .2-.1.3-.2.4-.3.8-.3 1.2-.3.3 0 .7-.1.9-.4 0 .2-.1.4-.3.5s-.4.2-.5.3c-.4.1-.7.2-.9.3-.1.1-.4.3-.6.3-.3 0-.4-.1-.5-.1-.4-.1-.8.1-1 .4z"/><path d="m42.6 38c0-.4.2-.7.4-1s.6-.4 1-.5c.3 0 .5-.1.7-.4.2-.2.4-.6.7-.7-.2.3-.2.6-.4.9-.1.2-.2.3-.3.5-.2.1-.4.2-.6.2-.3 0-.6.1-.8.3-.3.2-.5.4-.7.7z"/><path d="m39.5 36.6c-.3-.3-.4-.7-.4-1.1s.1-.8.2-1.1c.2-.7.5-1.3.4-2 .2.3.3.7.3 1.1s-.1.7-.2 1.1c-.2.6-.5 1.2-.3 2z"/><path d="m36.5 36.7c-.3-.3-.6-.7-.6-1.2 0-.3.2-.5.2-.6.1-.2 0-.3 0-.4-.2-.3-.5-.4-.9-.6s-.8-.6-.8-1.1c.2.4.5.6.9.7s.9.3 1.2.7c.1.2.2.6.1.8s-.2.4-.3.5c-.1.4.1.8.2 1.2z"/><path d="m34.8 37.7c-.3-.3-.6-.6-.9-.9s-.5-.6-.8-.7c-.2-.1-.7.1-1.2 0-.5-.2-.7-.6-.8-1 .3.3.6.6.9.6s.7-.2 1.2-.1c.5.2.7.6.9.9.3.4.5.8.7 1.2z"/><path d="m33.6 39.1c-.7-.2-1.4-.5-2.1-.5-.3 0-.6.2-1 .4-.2.1-.5.1-.7 0s-.4-.2-.4-.4c.3.2.7.2.9.1.2-.2.6-.5 1.1-.5.4 0 .9.1 1.2.2.4.2.7.4 1 .7z"/><path d="m33.3 41.2c-.4 0-.6.2-.8.5s-.4.6-.7.8-.7.4-1 .5c-.4.1-.7 0-1 .1.2-.3.6-.4.9-.5s.6-.3.8-.5.4-.5.7-.7c.3-.3.8-.5 1.1-.2z"/></g><circle cx="38.1" cy="42.3" r="8.2" fill="#fccf0e" opacity=".39"/><circle cx="38.1" cy="42.3" r="9" fill="#f9ed32" opacity=".39"/><circle cx="38.1" cy="42.3" r="6.4" fill="url(#c)"/><path fill="#bfdde8" d="m18.5 50.1h10.5c.1-.1.1-.3.1-.5 0-.6-.5-1-1-1-.1 0-.3 0-.4.1-.1-.4-.5-.8-1-.8 0-1.7-1.4-3.1-3.1-3.1-1.6 0-2.9 1.2-3 2.8-.2-.2-.6-.4-.9-.4-.6 0-1.1.4-1.3 1-.1-.1-.3-.1-.5-.1-.6 0-1 .5-1 1 0 .1 0 .3.1.4.1.2.2.4.4.5h1.1z"/><path fill="#fff" d="m23.7 52h19.5c.1-.3.2-.6.2-.9 0-1.1-.8-1.9-1.9-1.9-.3 0-.5.1-.7.1-.2-.8-1-1.4-1.8-1.4 0-3.1-2.5-5.6-5.6-5.6-3 0-5.4 2.3-5.6 5.2-.4-.4-1-.7-1.7-.7-1.1 0-2.1.8-2.3 1.9-.3-.1-.6-.2-.9-.2-1.1 0-1.9.9-1.9 1.9 0 .3.1.5.2.8.2.4.4.7.8.9h1.7z"/><path fill="#bfdde8" d="m45.1 30.3h25.2-.1c-1.7-1.2-3.8-1.5-5.8-.9l-.5-.7c-2.1-2.9-6.3-3.3-8.9-.8h-.1c-1 .2-1.9.5-2.8 1-1.7-1.2-4.1-1.1-5.7.2z"/><path fill="#fff" d="m36.3 31.2h36l-.1-.1c-2.4-1.6-5.5-2.1-8.3-1.3l-.7-1c-3.1-4.1-9-4.6-12.7-1.2h-.1c-1.4.3-2.7.8-3.9 1.5-2.5-1.7-5.8-1.6-8.1.3z"/><path fill="#bfdde8" d="m67 50.8c.1-1.8 1.6-3.3 3.4-3.3.3 0 .6 0 .9.1 0-.3-.1-.6 0-.8.1-1.7 1.6-3.2 3.3-3.3 2-.1 3.6 1.3 3.8 3.2.4-.2.9-.3 1.3-.3.5 0 1 .1 1.5.3.6-.9 1.7-1.6 3-1.6 1.8 0 3.3 1.3 3.5 3v.2c1 .4 1.7 1.5 1.7 2.6z"/><path fill="#fff" d="m61.6 50.8c.1-1.8 1.6-3.3 3.4-3.3.3 0 .6 0 .9.1 0-.3-.1-.6 0-.8.1-1.7 1.6-3.2 3.3-3.3 2-.1 3.6 1.3 3.8 3.2.4-.2.9-.3 1.3-.3.5 0 1 .1 1.5.3.6-.9 1.7-1.6 3-1.6 1.8 0 3.3 1.3 3.5 3v.2c1 .4 1.7 1.5 1.7 2.6z"/></g><g clip-path="url(#b)"><path fill="#fff" d="m49.6 61.5-9.9-1.2 2-7.1 9.8 1.2z"/><path fill="#d94c5a" d="m49.6 61.5-9.9-1.2.2-.6 9.8 1.2z"/><path fill="#d94c5a" d="m49.9 60.4-9.9-1.2.2-.6 9.8 1.2z"/><path fill="#d94c5a" d="m50.2 59.3-9.9-1.2.2-.5 9.8 1.1z"/><path fill="#d94c5a" d="m50.5 58.2-9.9-1.1.2-.6 9.8 1.2z"/><path fill="#d94c5a" d="m50.8 57.2-9.9-1.2.2-.6 9.8 1.2z"/><path fill="#d94c5a" d="m51.1 56.1-9.9-1.2.2-.6 9.8 1.2z"/><path fill="#d94c5a" d="m51.4 55-9.9-1.2.2-.6 9.8 1.2z"/><path fill="#035b8c" d="m47.9 54-6.2-.8-1.1 3.9 6.3.7z"/><g fill="#fff"><path d="m42.1 53.6.1.2h.1-.1v.2l-.1-.1h-.2l.1-.1-.1-.1h.2z"/><path d="m43.2 53.8v.1h.1l-.1.1v.1l-.1-.1-.1.1.1-.2h-.1.1z"/><path d="m44.2 53.9v.1h.2l-.2.1v.1l-.1-.1-.1.1.1-.1-.1-.1h.1z"/><path d="m45.2 54v.2h.2-.1v.2l-.1-.1h-.2l.1-.1-.1-.1h.2z"/><path d="m46.3 54.2v.1h.1l-.1.1v.1l-.1-.1-.1.1v-.1-.1h.1z"/><path d="m47.3 54.3v.1h.1l-.1.1v.1l-.1-.1-.1.1.1-.1-.1-.1h.1z"/><path d="m42.5 54.1v.1h.2l-.1.1v.1l-.1-.1-.2.1.1-.1-.1-.1h.2z"/><path d="m43.6 54.2v.1h.1l-.1.1v.1l-.1-.1-.1.1v-.1-.1h.1z"/><path d="m44.6 54.3v.2h.1-.1v.2l-.1-.1h-.1l.1-.1-.1-.1.1.1z"/><path d="m45.6 54.5v.1h.2l-.2.1.1.1-.1-.1-.2.1.1-.1-.1-.1h.2z"/><path d="m46.7 54.6v.1l.1.1h-.1v.1h-.1-.1v-.1-.1h.1z"/><path d="m42 54.3v.2h.1-.1v.2l-.1-.1h-.1v-.1l-.1-.1h.2z"/><path d="m43 54.5v.1h.1l-.1.1v.1l-.1-.1-.1.1.1-.1-.1-.1h.1z"/><path d="m44 54.6v.1h.2l-.2.1v.1l-.1-.1-.1.1.1-.1-.1-.1h.1z"/><path d="m45 54.7.1.2h.1-.1v.2l-.1-.1h-.2l.1-.1-.1-.1.2.1z"/><path d="m46.1 54.9v.1h.1l-.1.1v.1l-.1-.1-.1.1v-.1-.1h.1z"/><path d="m47.1 55v.1l.1.1h-.1v.1h-.1-.1l.1-.1-.1-.1h.1z"/><path d="m42.3 54.8.1.1h.1l-.1.1v.1l-.1-.1-.2.1.1-.1-.1-.1h.2z"/><path d="m43.4 54.9v.1l.1.1h-.1v.1h-.1-.1l.1-.1-.1-.1h.1z"/><path d="m44.4 55v.2h.1-.1v.2l-.1-.1h-.1l.1-.1-.1-.1.1.1z"/><path d="m45.4 55.2v.1h.2l-.2.1.1.1-.1-.1-.2.1.1-.1-.1-.1h.2z"/><path d="m46.5 55.3v.1l.1.1h-.1v.2l-.1-.1h-.1v-.1-.1h.1z"/><path d="m41.7 55.1v.1h.2l-.1.1v.1l-.1-.1-.2.1.1-.1-.1-.1h.2z"/><path d="m42.8 55.2v.1l.1.1h-.1v.2l-.1-.1h-.1v-.1-.1h.1z"/><path d="m43.8 55.3v.2h.1l-.1.1v.1l-.1-.1-.1.1.1-.2h-.1.1z"/><path d="m44.8 55.5v.1h.2l-.2.1.1.1-.1-.1-.2.1.1-.1-.1-.1h.2z"/><path d="m45.9 55.6v.2h.1-.1v.2l-.1-.1h-.1v-.1-.1h.1z"/><path d="m46.9 55.8v.1h.1l-.1.1v.1l-.1-.1-.1.1.1-.2h-.1.1z"/><path d="m42.1 55.5v.1l.2.1h-.2l.1.2-.1-.1h-.2l.1-.1-.1-.1h.2z"/><path d="m43.2 55.7v.1h.1l-.1.1v.1l-.1-.1-.1.1v-.2h.1z"/><path d="m44.2 55.8v.1h.1l-.1.1v.1l-.1-.1-.1.1.1-.1-.1-.1h.1z"/><path d="m45.2 55.9v.2h.2-.2v.2-.1h-.2l.1-.1-.1-.1h.1z"/><path d="m46.3 56.1v.1h.1l-.1.1v.1l-.1-.1-.1.1v-.1l-.1-.1h.2z"/><path d="m41.5 55.8.1.1h.1l-.1.1v.1l-.1-.1-.2.1.1-.1-.1-.1h.2z"/><path d="m42.6 55.9v.1l.1.1h-.1v.2l-.1-.1h-.1l.1-.1-.1-.1h.1z"/><path d="m43.6 56.1v.1h.1l-.1.1v.1l-.1-.1-.1.1.1-.2h-.1.1z"/><path d="m44.6 56.2v.1h.2l-.2.1.1.1-.1-.1-.2.1.1-.1-.1-.1h.2z"/><path d="m45.7 56.3v.2h.1-.1v.2l-.1-.1h-.1v-.1-.1h.1z"/><path d="m46.7 56.5v.1h.1l-.1.1v.1l-.1-.1-.1.1.1-.1-.1-.1h.1z"/><path d="m41.3 56.5v.2h.2-.2l.1.2-.1-.1h-.2l.1-.1-.1-.1.2.1z"/><path d="m42.4 56.7v.1h.1l-.1.1v.1l-.1-.1-.1.1v-.1-.1h.1z"/><path d="m43.4 56.8v.1l.1.1h-.1v.1h-.1-.1l.1-.1-.1-.1h.1z"/><path d="m44.4 56.9v.2h.2l-.2.1v.1-.1l-.2.1.1-.2-.1-.1.1.1z"/><path d="m45.5 57.1v.1h.1l-.1.1v.1l-.1-.1-.1.1v-.1l-.1-.1h.2z"/><path d="m46.5 57.2v.1l.1.1h-.1v.2l-.1-.1h-.1l.1-.1-.1-.1h.1z"/><path d="m41.9 56.2v.2h.2-.2l.1.2-.1-.1h-.2l.1-.1-.1-.1h.2z"/><path d="m43 56.4v.1h.1l-.1.1v.1l-.1-.1-.1.1v-.1-.1h.1z"/><path d="m44 56.5v.1h.1l-.1.1v.1l-.1-.1-.1.1.1-.1-.1-.1h.1z"/><path d="m45 56.6v.2h.2-.2v.2-.1h-.2l.1-.1-.1-.1.2.1z"/><path d="m46.1 56.8v.1h.1l-.1.1v.1l-.1-.1-.1.1v-.1l-.1-.1h.2z"/></g><path d="m41.7 53.2-3.5 12.7" style="fill:none;stroke:#0e2947;stroke-width:.25;stroke-linecap:round;stroke-linejoin:round;stroke-miterlimit:10"/><path fill="#fff" d="m28 61.8 9.9-1.1-1.9-7.1-9.9 1.1z"/><path fill="#d94c5a" d="m28 61.8 9.9-1.1-.2-.6-9.8 1.1z"/><path fill="#d94c5a" d="m27.7 60.7 9.9-1.1-.2-.5-9.8 1z"/><path fill="#d94c5a" d="m27.4 59.6 9.9-1-.2-.6-9.8 1z"/><path fill="#d94c5a" d="m27.2 58.5 9.8-1-.1-.6-9.9 1z"/><path fill="#d94c5a" d="m26.9 57.4 9.8-1-.1-.6-9.9 1.1z"/><path fill="#d94c5a" d="m26.6 56.4 9.8-1.1-.1-.6-9.9 1.1z"/><path fill="#d94c5a" d="m26.3 55.3 9.8-1.1-.1-.6-9.9 1.1z"/><path fill="#035b8c" d="m29.7 54.3 6.3-.7 1 3.9-6.2.6z"/><path fill="#fff" d="m35.5 54v.1l-.1.1h.1v.1h.1.1v-.1-.1h-.1z"/><path fill="#fff" d="m34.5 54.1v.2h-.1.1v.2l.1-.1h.1l-.1-.1.1-.1-.1.1z"/><path fill="#fff" d="m33.5 54.3v.1h-.2l.2.1v.1-.1l.2.1-.1-.2h.1-.2z"/><path fill="#fff" d="m32.4 54.4v.1h-.1l.1.1v.1l.1-.1.1.1v-.1l.1-.1h-.2z"/><path fill="#fff" d="m31.4 54.5v.1h-.1l.1.1v.1h.1.1l-.1-.1.1-.1h-.1z"/><path fill="#fff" d="m30.4 54.6v.2h-.2.2v.2-.1h.2l-.1-.1.1-.1h-.1z"/><path fill="#fff" d="m35.1 54.4v.2h-.1l.1.1v.1l.1-.1.1.1v-.2h.1-.2z"/><path fill="#fff" d="m34.1 54.6v.1h-.1l.1.1v.1l.1-.1.1.1-.1-.1.1-.1h-.1z"/><path fill="#fff" d="m33.1 54.7v.1h-.2l.2.1v.1-.1l.2.1-.1-.1.1-.1h-.1z"/><path fill="#fff" d="m32 54.8v.1l-.1.1h.1v.2l.1-.1h.1v-.1l.1-.1h-.2z"/><path fill="#fff" d="m31 54.9v.2h-.1.1v.2l.1-.1.1.1-.1-.2.1-.1-.1.1z"/><path fill="#fff" d="m35.7 54.7v.1l-.1.1h.1v.2l.1-.1h.1l-.1-.1.1-.1h-.1z"/><path fill="#fff" d="m34.7 54.8v.2h-.2l.2.1v.1l.1-.1.1.1-.1-.2.1-.1-.1.1z"/><path fill="#fff" d="m33.7 55v.1h-.2l.1.1v.1l.1-.1.2.1-.1-.1.1-.1h-.2z"/><path fill="#fff" d="m32.6 55.1v.1h-.1l.1.1v.1l.1-.1.1.1v-.1-.1h-.1z"/><path fill="#fff" d="m31.6 55.2v.1l-.1.1h.1v.1h.1.1l-.1-.1.1-.1h-.1z"/><path fill="#fff" d="m30.6 55.3v.2h-.2.2l-.1.2.1-.1h.2l-.1-.1.1-.1-.2.1z"/><path fill="#fff" d="m35.3 55.2v.1h-.1l.1.1v.1l.1-.1.1.1-.1-.2h.1-.1z"/><path fill="#fff" d="m34.3 55.3v.1h-.1l.1.1v.1l.1-.1.1.1-.1-.1.1-.1h-.1z"/><path fill="#fff" d="m33.3 55.4v.1h-.2l.1.1v.1l.1-.1.2.1-.1-.1.1-.1h-.2z"/><path fill="#fff" d="m32.2 55.5v.2h-.1.1v.2l.1-.1h.1v-.1-.1h-.1z"/><path fill="#fff" d="m31.2 55.6v.2h-.1l.1.1v.1l.1-.1.1.1-.1-.2.1-.1-.1.1z"/><path fill="#fff" d="m35.9 55.5v.1h-.1l.1.1v.1l.1-.1.1.1-.1-.1.1-.1h-.1z"/><path fill="#fff" d="m34.9 55.6v.1h-.1l.1.1v.1l.1-.1.1.1-.1-.1.1-.1h-.1z"/><path fill="#fff" d="m33.9 55.7v.1l-.2.1h.1v.2l.1-.1h.2l-.1-.1.1-.1h-.2z"/><path fill="#fff" d="m32.8 55.8v.2h-.1l.1.1v.1l.1-.1.1.1v-.2-.1l-.1.1z"/><path fill="#fff" d="m31.8 56v.1h-.1l.1.1v.1l.1-.1.1.1-.1-.1.1-.1h-.1z"/><path fill="#fff" d="m30.8 56.1v.1h-.2l.2.1-.1.1.1-.1.2.1-.1-.1.1-.1h-.2z"/><path fill="#fff" d="m35.5 55.9v.1l-.1.1h.1v.1h.1.1l-.1-.1.1-.1h-.1z"/><path fill="#fff" d="m34.5 56v.2h-.1.1v.2l.1-.1h.1l-.1-.1.1-.1-.1.1z"/><path fill="#fff" d="m33.5 56.2v.1h-.2l.1.1v.1l.1-.1.2.1-.1-.2h.1-.2z"/><path fill="#fff" d="m32.4 56.3v.1h-.1l.1.1v.1l.1-.1.1.1v-.1-.1h-.1z"/><path fill="#fff" d="m31.4 56.4v.1h-.1l.1.1v.1h.1.1l-.1-.1.1-.1h-.1z"/><path fill="#fff" d="m36.1 56.2v.1h-.1l.1.1v.1l.1-.1.1.1-.1-.1.1-.1h-.1z"/><path fill="#fff" d="m35.1 56.3v.1h-.2l.2.1v.1h.2l-.1-.1.1-.1h-.1z"/><path fill="#fff" d="m34.1 56.4-.1.2h-.1.1v.2l.1-.1h.1v-.1l.1-.1h-.2z"/><path fill="#fff" d="m33 56.5v.2h-.1l.1.1v.1l.1-.1.1.1-.1-.2h.1-.1z"/><path fill="#fff" d="m32 56.7v.1h-.2l.2.1v.1l.1-.1.1.1-.1-.1.1-.1h-.1z"/><path fill="#fff" d="m31 56.8-.1.1h-.1l.1.1v.1l.1-.1.2.1-.1-.1.1-.1h-.2z"/><path fill="#fff" d="m36.3 56.9v.2h-.1.1v.2l.1-.1h.1l-.1-.1.1-.1-.1.1z"/><path fill="#fff" d="m35.3 57.1v.1h-.2l.2.1v.1l.1-.1.1.1-.1-.1.1-.1h-.1z"/><path fill="#fff" d="m34.3 57.2-.1.1h-.1l.1.1v.1l.1-.1.1.1v-.1l.1-.1h-.2z"/><path fill="#fff" d="m33.2 57.3v.1l-.1.1h.1v.1h.1.1l-.1-.1.1-.1h-.1z"/><path fill="#fff" d="m32.2 57.4v.2h-.2.2v.2l.1-.1h.1l-.1-.1.1-.1h-.1z"/><path fill="#fff" d="m31.2 57.6-.1.1h-.1l.1.1v.1l.1-.1.2.1-.1-.2h.1-.2z"/><path fill="#fff" d="m35.7 56.6v.1l-.1.1h.1v.2l.1-.1h.1l-.1-.1.1-.1h-.1z"/><path fill="#fff" d="m34.7 56.7v.2h-.2.2v.2l.1-.1.1.1-.1-.2.1-.1-.1.1z"/><path fill="#fff" d="m33.7 56.9-.1.1h-.1l.1.1v.1l.1-.1.1.1v-.1l.1-.1h-.2z"/><path fill="#fff" d="m32.6 57v.1h-.1l.1.1v.1l.1-.1.1.1-.1-.1.1-.1h-.1z"/><path fill="#fff" d="m31.6 57.1v.1l-.2.1h.2v.1h.1.1l-.1-.1.1-.1h-.1z"/><path d="m36 53.6 3.4 12.8" style="fill:none;stroke:#0e2947;stroke-width:.25;stroke-linecap:round;stroke-linejoin:round;stroke-miterlimit:10"/></g><g clip-path="url(#b)"><g stroke="#754c29" stroke-linecap="round" stroke-linejoin="round" stroke-miterlimit="10" stroke-width=".25"><path fill="#a26e56" d="m49.8 98.8h2.3l-6.5-23.3h-2.3z"/><path fill="#b48162" d="m25.5 98.5h-2l6.4-23h2.9z"/><path fill="#6d5950" d="m52.2 98.8h.7l-6.4-23.3h-.9z"/><path fill="#6d5950" d="m25.3 98.5h.8l6.4-22.5-.9-.5z"/><path fill="#a26e56" d="m22.4 74.3h36.1v2.6h-36.1z"/><path fill="#b48162" d="m18 74.3h36.1v2.6h-36.1z"/><path fill="#a26e56" d="m10.7 85.3h54.4v2.6h-54.4z"/><path fill="#b48162" d="m9.6 85.3h54.4v2.6h-54.4z"/><circle cx="27.5" cy="86.7" r=".4" fill="#a26e56"/><circle cx="47.7" cy="86.7" r=".4" fill="#a26e56"/></g><path fill="#0e2947" d="m38.2 73.7-10.7.6.5 1.4.1 1.2.6 1.2.4 1.2.9 1 .7 1 1.1.7.9.9 1.3.3 1.1.7 1.3.1 1.2.4 1.3-.3 1.3.2 1.1-.6 1.3-.2.9-.9 1.3-.5.7-1 1.1-.8.5-1.2.8-1 .2-1.3.5-1.1-.2-1.4z" opacity=".1"/><path fill="#fff" d="m38.1 73.8-10.3.6.4 1.3.1 1.2.6 1.1.4 1.2.8 1 .8.9 1.1.7.8.9 1.2.3 1.1.6 1.3.1 1.1.4 1.3-.3 1.2.2 1.1-.6 1.3-.2.8-.8 1.3-.6.7-.9 1-.8.5-1.1.8-.9.1-1.3.6-1.1-.2-1.3z"/><path fill="#00325f" d="m38 73.8-5.7.3.2.8.1.6.3.7.3.6.4.6.4.5.6.3.5.5.7.2.5.4h.8l.6.2.7-.1.7.1.6-.4.7-.1.4-.4.8-.3.3-.5.6-.5.3-.6.4-.5.1-.7.3-.6-.1-.8z"/><path fill="#f05358" d="m48 74.4-9.9-.6 7.9.5.2 1-.5.9-.1 1-.7.8-.3.9-.9.6-.5.8-1 .4-.7.6-1 .2-.9.5-1-.1-1 .2-.9-.3-1.1-.1-.8-.5-1-.3-.7-.7-.8-.5-.6-.8-.7-.8-.3-.9-.5-.9-.1-1-.3-1-2 .1.4 1.3.1 1.2.6 1.1.4 1.2.8 1 .8.9 1.1.7.8.9 1.2.3 1.1.6 1.3.1 1.1.4 1.3-.3 1.2.2 1.1-.6 1.3-.2.8-.8 1.3-.6.7-.9 1-.8.5-1.1.8-.9.1-1.3.6-1.1z"/><path fill="#f05358" d="m48 74.4-9.9-.6 7.9.5.2 1-.5.9-.1 1-.7.8-.3.9-.9.6-.5.8-1 .4-.7.6-1 .2-.9.5-1-.1-1 .2-.9-.3-1.1-.1-.8-.5-1-.3-.7-.7-.8-.5-.6-.8-.7-.8-.3-.9-.5-.9-.1-1-.3-1-2 .1.4 1.3.1 1.2.6 1.1.4 1.2.8 1 .8.9 1.1.7.8.9 1.2.3 1.1.6 1.3.1 1.1.4 1.3-.3 1.2.2 1.1-.6 1.3-.2.8-.8 1.3-.6.7-.9 1-.8.5-1.1.8-.9.1-1.3.6-1.1z"/><path fill="#fff" d="m34.6 76.3v-.3l-.3-.1.3-.2v-.3l.2.3.4-.1-.2.3.1.3-.3-.1z"/><path fill="#fff" d="m36.2 77.6-.2-.3h-.3l.2-.2-.1-.3.3.1.3-.2-.1.3.3.2-.3.1z"/><path fill="#fff" d="m41.4 76.1v-.3l.3-.2-.3-.1-.1-.3-.2.3h-.3l.1.2-.1.3.3-.1z"/><path fill="#fff" d="m40 77.4.1-.3h.3l-.2-.2.1-.4-.3.2-.3-.2v.4l-.2.2h.3z"/><path fill="#fff" d="m38.2 78.2-.3-.2-.3.2.1-.3-.2-.3h.3l.1-.3.2.3h.3l-.2.2z"/><path d="m38.1 73.8-10.3.6.4 1.3 9.9-1.9-9.8 3.1.6 1.1 9.2-4.2-8.8 5.4.8 1 8-6.4-7.2 7.3 1.1.7 6.1-8-5.3 8.9 1.2.3 4.1-9.2-3 9.8 1.3.1 1.7-9.9-.6 10.3 1.3-.3-.7-10 1.9 10.2 1.1-.6-3-9.6 4.3 9.4.8-.8-5.1-8.6 6.4 8 .7-.9-7.1-7.1 8.1 6.3.5-1.1-8.6-5.2 9.4 4.3.1-1.3-9.5-3 10.1 1.9-.2-1.3z" opacity=".2"/><path fill="#00325f" d="m20.6 69.6-.5-.2 2.7-6.7h3v.5h-2.6z"/><path fill="#e54d42" d="m23.1 66.6-.1 1.3-.2 2.4-.2 1.7-.2 2c0 .1-.1.2-.2.2h-3.7c-.1 0-.2-.1-.2-.2l-.1-1.4-.1-1.5-.2-2-.1-1.5-.1-1.1c0-.1 0-.1.1-.2 0 0 .1-.1.2-.1h4.9.1s.1 0 .1.1c-.1.2 0 .2 0 .3z"/><path fill="#fff" d="m20.7 66.3-.2.3-2.6 2.5-.1-1.4 1.3-1.4z"/><path fill="#fff" d="m23.1 66.6-.1 1.3-4.8 4.8-.1-1.5 4.8-4.8s.1 0 .1.1c0 0 .1 0 .1.1z"/><path fill="#fff" d="m22.7 70.3-.1 1.7-2.2 2.2h-1.6l1.7-1.7z"/><path fill="#f7b23f" d="m26.9 73.2c-.1 0-.1 0-.2 0h-.1c-.2 0-.3 0-.5.1h-.1c-.2 0-.3 0-.5.1h-.1c-.2 0-.3 0-.5.1h-.1c-.2 0-.3 0-.5.1h-.1c-.1 0-.1 0-.2 0s-.2 0-.2 0c-.1-.1-.2-.2-.2-.3l-.1-.9c0-.1 0-.2.1-.3s.1-.1.2-.1h.2.1c.2 0 .3-.1.5-.1h.1c.2 0 .3-.1.5-.1h.1c.2 0 .3-.1.5-.1h.1c.2 0 .3-.1.5-.1h.1.2c.1 0 .2 0 .3.1s.1.2.2.3c0 .2.1.3.1.5s.1.3.1.5c0 .1 0 .2-.1.3-.2-.2-.3-.1-.4-.1z"/><path fill="#fdd835" d="m24.4 73.5c0-.1 0-.2 0-.3s-.1-.2-.3-.2c-.1 0-.2.1-.2.2v.2c0 .1.1.2.3.2.1.1.2 0 .2-.1zm-.1-.7v-.2c0-.1-.1-.2-.3-.2-.1 0-.1 0-.2.1 0 0-.1.1 0 .2v.1.1c0 .1.1.2.3.2.1-.1.2-.2.2-.3zm-.1-.7c0-.1 0-.1 0-.2 0-.1-.1-.2-.3-.1-.1 0-.1 0-.2.1 0 0-.1.1 0 .2v.2c0 .1.1.2.3.2.1-.2.2-.3.2-.4zm.7 1.4c.1-.1.1-.1 0 0v-.3c0-.1-.1-.2-.3-.2-.1 0-.2.1-.2.2v.2.1c0 .1.1.1.3.1s.2 0 .2-.1zm-.1-.8c0-.1 0-.2 0-.2 0-.1-.1-.2-.3-.2-.1 0-.1 0-.2.1 0 0-.1.1 0 .2v.2c0 .1.1.2.3.2.2-.1.3-.2.2-.3zm-.1-.7v-.2c0-.1-.1-.2-.3-.1-.1 0-.1 0-.2.1v.1.2c0 .1.1.2.3.2.2-.1.2-.2.2-.3zm.8 1.4v-.3c0-.1-.1-.2-.3-.2-.1 0-.2.1-.2.3v.2.1c0 .1.1.1.3.1.1 0 .2-.1.2-.2zm-.1-.8v-.2c0-.1-.1-.2-.3-.2-.1 0-.1 0-.2.1 0 0-.1.1 0 .2v.1.1c0 .1.1.2.3.2.1-.1.2-.2.2-.3zm-.1-.7c0-.1 0-.1 0-.2 0-.1-.1-.2-.3-.2-.1 0-.1 0-.2.1v.1.2c0 .1.1.2.3.2.1 0 .2-.1.2-.2zm.8 1.4v-.3c0-.1-.1-.2-.3-.2-.1 0-.2.1-.2.3v.2.1c0 .1.1.1.3.1.1 0 .1-.1.2-.2zm-.2-.8c0-.1 0-.2 0-.2 0-.1-.1-.2-.3-.2-.1 0-.1 0-.2.1 0 0-.1.1 0 .2v.2c0 .1.1.2.3.2s.3-.1.2-.3zm-.1-.7v-.2c0-.1-.1-.2-.3-.2-.1 0-.1 0-.2.1v.1.2c0 .1.1.2.3.2s.2-.1.2-.2zm.8 1.4c0-.2 0-.2 0-.3s-.1-.2-.3-.2c-.1 0-.2.1-.2.3v.2.1c0 .1.1.1.3.1.1 0 .2-.1.2-.2zm-.1-.8v-.2c0-.1-.1-.2-.3-.2-.1 0-.1 0-.2.1 0 0-.1.1 0 .2v.1.1c0 .1.1.2.3.2.1 0 .2-.1.2-.3zm-.1-.7c0-.1 0-.1 0-.2 0-.1-.1-.2-.3-.2-.1 0-.1 0-.2.1v.1.2c0 .1.1.2.3.2.1 0 .2-.1.2-.2zm.8 1.4v-.2c0-.1-.1-.2-.3-.2-.1 0-.2.1-.2.3v.2.1c0 .1.1.2.3.1.1 0 .2-.2.2-.3zm-.2-.7c0-.1 0-.2 0-.2 0-.1-.1-.2-.3-.2-.1 0-.1 0-.2.1 0 0-.1.1 0 .2v.2c0 .1.1.2.3.2.2-.1.3-.2.2-.3zm-.1-.8v-.2c0-.1-.1-.2-.3-.2-.1 0-.2.1-.2.2v.2c0 .1.1.2.3.2.2.1.2-.1.2-.2z"/><path fill="#e54d42" d="m25.6 72.6c0 .3-.1.6-.4.6l-3.7.6c-.3 0-.6-.1-.6-.4 0-.3.2-.5.4-.6l3.7-.6c.3 0 .6.2.6.4z"/><path fill="#c52e25" d="m25.3 72.4c.1.3 0 .6 0 .6-.1 0-.1-.2-.2-.5 0-.1 0-.1 0-.2h.2c0-.1 0 0 0 .1z"/><path fill="#c52e25" d="m24.4 72.5c.1.3 0 .6 0 .6-.1 0-.1-.2-.2-.5 0-.1 0-.1 0-.2h.2z"/><path fill="#c52e25" d="m23.6 72.7c.1.3 0 .6 0 .6-.1 0-.1-.2-.2-.5 0-.1 0-.1 0-.2h.2c0-.1 0 0 0 .1z"/><path fill="#c52e25" d="m22.8 72.8c.1.3 0 .6 0 .6-.1 0-.1-.2-.2-.5 0-.1 0-.1 0-.2h.2c-.1 0-.1 0 0 .1z"/><path fill="#c52e25" d="m21.9 72.9c.1.3 0 .6 0 .6-.1 0-.1-.2-.2-.5 0-.1 0-.1 0-.2h.2z"/><path fill="#c52e25" d="m21.3 73.1c.1.3 0 .6 0 .6-.1 0-.1-.2-.2-.5 0-.1 0-.1 0-.2h.2c0-.1 0 0 0 .1z"/><path fill="#b5b5a8" fill-rule="evenodd" d="m23.7 74.1h-3c-.2 0-3-.6-3-.8h6 6c0 .2-2.7.8-3 .8z" clip-rule="evenodd"/><path fill="#faab18" fill-rule="evenodd" d="m32.8 63 5.7 7.4c.5.6.4 1.5-.3 2-.6.5-1.5.4-2-.3l-5.7-7.4c-.5-.6-.4-1.5.3-2 .6-.4 1.5-.3 2 .3z" clip-rule="evenodd"/><g fill="#d78928" fill-rule="evenodd" clip-path="url(#d)" clip-rule="evenodd"><path d="m34.5 63c.1.1.1.3 0 .4l-1.3 1.7c-.1.1-.2.1-.3 0-.1-.1-.1-.3 0-.4l1.3-1.7c0-.1.2-.1.3 0z"/><path d="m35.4 64.2c.1.1.1.3 0 .4l-1.3 1.7c-.1.1-.2.1-.3 0-.1-.1-.1-.3 0-.4l1.3-1.7c.1-.1.2-.1.3 0z"/><path d="m36.3 65.4c.1.1.1.3 0 .4l-1.3 1.7c-.1.1-.2.1-.3 0-.1-.1-.1-.3 0-.4l1.3-1.7c.1-.1.3-.1.3 0z"/><path d="m37.3 66.6c.1.1.1.3 0 .4l-1.3 1.7c-.1.1-.2.1-.3 0-.1-.1-.1-.3 0-.4l1.3-1.7c0-.1.2-.1.3 0z"/><path d="m38.2 67.8c.1.1.1.3 0 .4l-1.3 1.7c-.1.1-.2.1-.3 0-.1-.1-.1-.3 0-.4l1.3-1.7c.1-.1.2-.1.3 0z"/></g><path fill="#e99123" fill-rule="evenodd" d="m37.2 71.9-6.2-8.2c-.2-.3-.3-.6-.3-.9-.5.5-.6 1.3-.1 1.9l5.7 7.4c.4.6 1.2.7 1.8.3-.4-.1-.7-.2-.9-.5z" clip-rule="evenodd"/><path fill="#d5e5e6" d="m38 65.3 1.5 3.9c0 .1 0 .1-.1.2l-1.9.7c-.1 0-.1 0-.2-.1l-1.5-3.9c-.1-.3-.1-.8 0-1.2 0-.3 0-.6-.1-.8 0 0 0 0 0-.1l1-.4v.1c.1.2.2.5.4.6.4.3.7.6.9 1z"/><path fill="#009444" d="m36.8 63.3.1.2c0 .1 0 .2-.1.2l-1.1.4c-.1 0-.2 0-.2-.1l-.1-.2c0-.1 0-.2.1-.2l1.1-.4c.1 0 .2.1.2.1z"/><path fill="#f19b2c" d="m38.8 69.3-.8.4c-.3.1-.6 0-.7-.3l-1.3-3.3c-.1-.3 0-.6.3-.7l.9-.3c.3-.1.6 0 .7.3l1.3 3.3c0 .2-.1.5-.4.6z"/><path fill="#d53d33" d="m43.2 65.5c.2.5-.2 1.1-.9 1.3-.6.2-1.3-.1-1.5-.6s.2-1.1.9-1.3 1.4.1 1.5.6z"/><path fill="#64b044" d="m42.1 65.1c.1-.1.2-.2.2-.2s-.1-.1-.3 0c.1-.1 0-.3 0-.3s-.1.1-.2.2c-.1-.1-.2-.2-.2-.2s-.1.1 0 .3c-.1-.1-.3 0-.3 0s.1.1.2.2c-.1.1-.2.2-.2.2s.1.1.3 0c-.1.1 0 .3 0 .3s.1-.1.2-.2c.1.1.2.2.2.2s.1-.1 0-.3c.1.1.3 0 .3 0s-.1-.1-.2-.2z"/><path fill="#5f9653" d="m40.2 68.2c-.4.1-.9-.4-1.2-1.2s-.2-1.6.1-1.7.9.4 1.2 1.2c.3.7.2 1.5-.1 1.7z"/><path fill="#64b044" d="m41.8 66.9c0 1-.6 1.7-1.2 1.7-.7 0-1.2-.8-1.2-1.7 0-1 .6-1.7 1.2-1.7.6-.1 1.2.7 1.2 1.7z"/><path fill="#8dc375" d="m40.7 68.4c-.3.3-1 .1-1.7-.4-.7-.6-1-1.3-.7-1.6s1-.1 1.7.4c.7.6 1 1.3.7 1.6z"/><path fill="#8dc375" d="m42.3 66.1c.3.3.1 1-.4 1.7-.6.7-1.3 1-1.6.7s-.1-1 .4-1.7c.6-.6 1.3-1 1.6-.7z"/><path fill="#d53d33" d="m39.3 67.7c0 .8-.8 1.5-1.8 1.5s-1.8-.7-1.8-1.5.8-1.5 1.8-1.5 1.8.7 1.8 1.5z"/><path fill="#64b044" d="m37.9 66.6c.2 0 .4-.1.4-.1s-.2-.1-.4-.2c.1-.2.2-.4.2-.4s-.2 0-.4.2c0-.2-.1-.4-.1-.4s-.1.2-.2.4c-.2-.1-.4-.2-.4-.2s0 .2.2.4c-.2 0-.4.1-.4.1s.2.1.4.2c-.2.2-.2.4-.2.4s.2 0 .4-.2c0 .2.1.4.1.4s.1-.2.2-.4c.2.1.4.2.4.2s0-.2-.2-.4z"/><path fill="#f8be49" d="m43.8 68.2c1.4.2 1.8-.2 1.8-.7 0-.2 0-.4-.3-.6.2-.2.2-.4.1-.6s-.1-.3-.4-.4c.2-.3 0-.5-.1-.7-.3-.4-.8-.4-1.9.5-.1.1-1 .5-1.2.8 0 .1 0 .2.1.3-.1.2-.3.2-.3.5 0 .1.2.2.3.3-.1.2.2.3.3.4.4.5 1.5.2 1.6.2z"/><path fill="#64b044" d="m45.4 67c.1.3.3.6.3.6s0-.3-.1-.7c.2.2.4.2.4.2s-.1-.3-.3-.6c.2-.1.2-.3.2-.3s-.2-.2-.4-.2c0-.3 0-.6 0-.6s-.2.1-.2.4c-.1-.3-.3-.6-.3-.6s0 .3.1.7c-.2-.2-.4-.2-.4-.2s.1.3.3.6c-.2.1-.2.3-.2.3s.2.2.4.2v.6s.1-.1.2-.4z"/><path fill="#806a50" fill-rule="evenodd" d="m35.9 65.8s.1.4.2.6.1.3.1.3h-.1c-.2-.3-.3-.6-.4-.9z" clip-rule="evenodd"/><path fill="#e32727" fill-rule="evenodd" d="m37.6 68.8c-.6.9-1.7.4-2.1-.3-.4-.6-.6-1.4.6-2 1.1-.9 1.7-.4 2.1.3.4.6.4 1.8-.6 2z" clip-rule="evenodd"/><path fill="#eb3034" fill-rule="evenodd" d="m36.2 69.1c-.3-.1-.6-.4-.7-.6-.4-.6-.6-1.4.6-2 .3-.2.6-.4.8-.4v.1c.6.9.3 2.2-.7 2.9z" clip-rule="evenodd"/><path fill="#6cbd45" fill-rule="evenodd" d="m35.9 66s-.3-.2-.6-.1-.5.4-.5.4.2.1.5.1c.3-.1.6-.4.6-.4z" clip-rule="evenodd"/><path fill="#af6f29" fill-rule="evenodd" d="m32.7 62.5h13.2c.4 0 .8.4.8.8v4.3c0 .5-.4.8-.8.8h-13.2c-.4 0-.8-.4-.8-.8v-4.3c0-.5.3-.8.8-.8zm0 .5c-.1 0-.3.1-.3.3v4.3c0 .2.1.3.3.3h13.2c.1 0 .3-.1.3-.3v-4.3c0-.2-.1-.3-.3-.3z" clip-rule="evenodd"/><use fill="#e28b2d" fill-rule="evenodd" clip-rule="evenodd" xlink:href="#O"/><g fill="#af6f29" fill-rule="evenodd" clip-path="url(#e)" clip-rule="evenodd"><path d="m26.8 67.5h14.5v.2h-14.5z" transform="matrix(.7468 -.6651 .6651 .7468 -36.3766 39.805)"/><path d="m27.9 68.7h14.5v.3h-14.5z" transform="matrix(.7468 -.6651 .6651 .7468 -36.8999 40.8116)"/><path d="m28.9 69.9h14.5v.3h-14.5z" transform="matrix(.7468 -.6651 .6651 .7468 -37.4232 41.8181)"/><path d="m30 71.1h14.5v.3h-14.5z" transform="matrix(.7468 -.6651 .6651 .7468 -37.9464 42.8247)"/></g><g fill="#af6f29" fill-rule="evenodd" clip-path="url(#e)" clip-rule="evenodd"><path d="m32.5 70.5h14.5v.2h-14.5z" transform="matrix(.7468 -.6651 .6651 .7468 -36.8891 44.3004)"/><path d="m33.5 71.7h14.5v.3h-14.5z" transform="matrix(.7468 -.6651 .6651 .7468 -37.4124 45.307)"/><path d="m34.6 72.9h14.5v.3h-14.5z" transform="matrix(.7468 -.6651 .6651 .7468 -37.9357 46.3135)"/><path d="m35.7 74h14.5v.3h-14.5z" transform="matrix(.7468 -.6651 .6651 .7468 -38.459 47.3201)"/></g><g fill="#af6f29" fill-rule="evenodd" clip-path="url(#e)" clip-rule="evenodd"><path d="m32.1 68.7h14.5v.2h-14.5z"/><path d="m32.1 70.3h14.5v.3h-14.5z"/><path d="m32.1 71.9h14.5v.3h-14.5z"/><path d="m32.1 73.5h14.5v.3h-14.5z"/></g><path fill="#c46c14" fill-rule="evenodd" d="m47 68.2h-15.4c-.1 0-.3-.1-.3-.3v-.2c0-.1.1-.3.3-.3h15.4c.1 0 .3.1.3.3v.2c0 .2-.1.3-.3.3z" clip-rule="evenodd"/></g><g clip-path="url(#b)"><g transform="translate(7 12)"><path fill="#d6d6ea" d="m79.6 39.8c.2.4.3.8.3 1.3 0 .4.1.8 0 1.3s-.3.8-.6 1.1c-.2.1-.5.2-.7.3-.3.2-.5.4-.8.6-.5.3-1.1.3-1.6.3-.6 0-1.1 0-1.7 0h-7.2c.1-.2.1-.4.1-.6s-.1-.4-.3-.4c-.2-.1-.4.1-.6.1-.3 0-.6-.2-.8-.5-.1-.3-.2-.6-.2-.9-.1-.9-.1-1.8.4-2.5.2-.2.4-.4.7-.4s.5.4.4.6c0-.6.9-3.4 1.4-3 .2.1 1.6-1.6 2.8-1.6 1.1-.1 2.5.3 3.5.2.5-.1 2.2 1.8 2.7 2s.5 2 1 1.9c.6-.3 1-.1 1.2.2z"/><path fill="#25e899" d="m67.7 44.5h10.2v.3l-.6 2.1h-9z"/><path fill="#d6d6ea" d="m76 49.6h-6.5c-.7 0-1.3-.6-1.3-1.3v-1.4h9v1.4c.1.7-.5 1.3-1.2 1.3"/><path fill="#0e2947" d="m76 49.9h-6.5c-.9 0-1.6-.7-1.6-1.6v-1.7h9.6v1.7c.1.9-.6 1.6-1.5 1.6zm-7.4-2.7v1.1c0 .5.4 1 1 1h6.4c.5 0 1-.4 1-1v-1.1z"/><path fill="#0fce7c" stroke="#0e2947" stroke-miterlimit="10" stroke-width=".25" d="m72.7 43.7c-1.7 0-3.3-1.3-3.3-3.1 0-.8.3-1.6.8-2.2.6-.8 4.5-.8 5.2-.1.5.6.9 1.4.9 2.3 0 .4-.1.8-.2 1.1-.4 1.2-1.7 2-3.1 2z"/><path fill="#fff" d="m74.6 39.5c0 .5-.4.9-.9.9s-.9-.4-.9-.9.4-.9.9-.9.9.4.9.9"/><path fill="#fff" d="m75.2 40.8c0 .2-.2.4-.4.4s-.4-.2-.4-.4.2-.4.4-.4.4.2.4.4"/><g fill="#0e2947"><path d="m69.1 36.8c-.7.6-1.3 1.4-1.6 2.3-.2.6-.4 1.3-.4 2l1.4 5.5h8.5l1.4-5.5c0-.8-.2-1.6-.5-2.3-.3-.6-.6-1.1-1-1.5l.5-.3c.5.6.9 1.2 1.2 1.9s.4 1.5.4 2.3l-1.5 6h-9.5l-1.5-6.1c0-.8.1-1.5.4-2.2.3-.8.8-1.6 1.4-2.2zm8.4 10.4h-9.5l-1.5-6.1c0-3.5 2.8-6.3 6.3-6.3s6.3 2.8 6.3 6.3zm-9-.6h8.5l1.4-5.6c0-3.1-2.6-5.7-5.7-5.7s-5.7 2.5-5.7 5.7z"/><path d="m67.3 43.9h-.6c-.7 0-1.2-.5-1.2-1.2v-2.3c0-.7.5-1.2 1.2-1.2h.3c.2 0 .3.1.3.3s-.1.3-.3.3h-.3c-.3 0-.6.3-.6.6v2.3c0 .3.3.6.6.6h.6c.2 0 .3.1.3.3s-.2.3-.3.3"/><path d="m78.9 43.9h-.6c-.2 0-.3-.1-.3-.3s.1-.3.3-.3h.6c.3 0 .6-.3.6-.6v-2.3c0-.3-.3-.6-.6-.6h-.3c-.2 0-.3-.1-.3-.3s.1-.3.3-.3h.3c.7 0 1.2.5 1.2 1.2v2.3c0 .7-.5 1.2-1.2 1.2"/><path d="m66.9 40.7c-.1 0-.1 0-.2-.1s-.1-.3 0-.4c1.7-1.7 3.9-2.6 6.2-2.6 2.2 0 4.3.8 5.9 2.4.1.1.1.3 0 .4s-.3.1-.4 0c-1.5-1.4-3.5-2.2-5.5-2.2-2.2 0-4.2.9-5.8 2.5 0 0-.1 0-.2 0"/><path d="m77.9 44.8h-10.2c-.2 0-.3-.1-.3-.3s.1-.3.3-.3h10.2c.2 0 .3.1.3.3s-.2.3-.3.3"/></g><use fill="#ff0013" xlink:href="#P"/><path fill="#fff" d="m68.2 43.7c.1 0 .2-.1.2-.2.3-.3.7-.5 1-.8.1-.1.1-.1.2-.2 0-.1 0-.2-.1-.2-.3.2-.5.5-.8.7-.1.1-.3.2-.4.3s-.2.1-.3.3c0 .1.1.1.2.1z" clip-path="url(#f)"/><path fill="#0082ff" d="m68.2 42.6c-.1.1-.1.1-.2.1s-.2 0-.3 0c0-.1-.1-.3-.1-.4s0-.3.1-.4.3-.2.5-.2c.2-.1.3-.2.4-.3s.1-.1.2-.1c.3 0 .3.5.1.7-.1.2-.4.4-.7.6z"/><path fill="#fff" d="m68.2 42.1.1.3h.3l-.3.2.1.3-.2-.2-.3.2.1-.3-.3-.2h.4z"/><path fill="#fff" d="m68.6 41.6v.1h.2l-.1.1v.1h-.1-.1v-.1l-.1-.1h.2z"/><path fill="#fff" d="m68 41.7h.1l-.1.1.1.1-.1-.1-.1.1.1-.1-.1-.1z"/><use fill="#ff0013" xlink:href="#Q"/><path fill="#fff" d="m77.4 43.7c-.1 0-.2-.1-.2-.2-.3-.3-.7-.5-1-.8-.1-.1-.1-.1-.2-.2 0-.1 0-.2.1-.2.3.2.5.5.8.7.1.1.3.2.4.3s.2.1.3.3c0 .1-.1.1-.2.1z" clip-path="url(#g)"/><path fill="#0082ff" d="m77.4 42.6c.1.1.1.1.2.1h.3c0-.1.1-.3.1-.4s0-.3-.1-.4-.3-.2-.5-.2c-.2-.1-.3-.2-.4-.3s-.1-.1-.2-.1c-.3 0-.3.5-.1.7.1.2.4.4.7.6z"/><path fill="#fff" d="m77.4 42.1-.1.3h-.3l.3.2-.1.3.2-.2.3.2-.1-.3.3-.2h-.4z"/><path fill="#fff" d="m77 41.6v.2h-.2l.1.1v.1l.1-.1.1.1v-.1l.1-.1h-.1z"/><path fill="#fff" d="m77.6 41.7v.1h-.1.1l-.1.1h.1.1l-.1-.1h.1-.1z"/><path fill="#25e899" d="m76.4 51h-7.5c-.2 0-.3-.1-.3-.3s.1-.3.3-.3h7.5c.2 0 .3.1.3.3 0 .1-.1.3-.3.3"/><path d="m71.7 45.5c.3.3.8.5 1.2.5s.9-.2 1.1-.6" style="fill:none;stroke:#0e2947;stroke-width:.25;stroke-linecap:round;stroke-linejoin:round;stroke-miterlimit:10"/></g><path d="m85.6 86.5h-3.7z" style="fill:none;stroke:#0e2947;stroke-width:.25;stroke-linecap:round;stroke-linejoin:round;stroke-miterlimit:10"/><use fill="#f1f2f2" xlink:href="#R"/><path fill="#c0ffe4" d="m82.5 86.6h.8l-.3 7.5h-.3z" clip-path="url(#h)"/><path fill="#9393b5" d="m82.4 86.8h2.2l-.2 7.1.3.2.4-7.6-1.9-.1-.8.2z" clip-path="url(#h)"/><use style="fill:none;stroke:#0e2947;stroke-width:.25;stroke-linecap:round;stroke-linejoin:round;stroke-miterlimit:10" xlink:href="#R"/><circle cx="83.7" cy="94.5" r=".7" fill="#25e899" stroke="#0e2947" stroke-miterlimit="10" stroke-width=".25"/><path fill="#0e2947" d="m82.8 97.1h-.6c-.1 0-.2-.1-.2-.2v-.6c0-.1.1-.2.2-.2h.6c.1 0 .2.1.2.2v.6c0 .1-.1.2-.2.2z"/><path fill="#0e2947" d="m85.2 97.1h-.6c-.1 0-.2-.1-.2-.2v-.6c0-.1.1-.2.2-.2h.6c.1 0 .2.1.2.2v.6c0 .1-.1.2-.2.2z"/><use fill="#dadaf2" xlink:href="#S"/><path fill="url(#k)" d="m86.1 96.3h-4.8c-.1 0-.2-.1-.2-.2v-.6c0-.1.1-.3.3-.3h4.6c.1 0 .3.1.3.3v.6c0 .1-.1.2-.2.2z" clip-path="url(#i)"/><path fill="url(#m)" d="m85.5 96.1h-3.5c-.1 0-.2-.1-.2-.2v-.5c0-.1.1-.2.2-.2h3.5c.1 0 .2.1.2.2v.6c-.1.1-.1.1-.2.1z" clip-path="url(#i)"/><path fill="#f1f2f2" stroke="#0e2947" stroke-miterlimit="10" stroke-width=".05" d="m86.3 96.6h-5.3v-.7h2.7s2.6 0 2.6 0z" clip-path="url(#i)"/><g clip-path="url(#i)"><path fill="#0e2947" d="m83.7 96c-.1 0 0 0 0 0zm.6 0c.1 0 .1 0 0 0zm-2 0c.1 0 .1 0 0 0zm3.3 0c.1 0 .1 0 0 0zm-4.6 0s.1 0 0 0zm5.3 0s.1 0 0 0z"/></g><use fill="none" stroke="#0e2947" stroke-miterlimit="10" stroke-width=".25" xlink:href="#S"/><use fill="#f1f2f2" xlink:href="#T"/><path fill="#9393b5" d="m84.1 90.3c1.1-3.4 1.9-15.6 1.9-15.6h-2.8s.9 14.5.9 15.6z" clip-path="url(#n)"/><path fill="#c0ffe4" d="m81.5 74.4 2.6 15.9.2.6-1 .3-.4-.7z" clip-path="url(#n)"/><use style="fill:none;stroke:#0e2947;stroke-width:.25;stroke-linecap:round;stroke-linejoin:round;stroke-miterlimit:10" xlink:href="#T"/><path fill="#0e2947" d="m85.3 82.8h-3.1c-.2 0-.4-.2-.4-.4v-.3c0-.2.2-.4.4-.4h3.1c.2 0 .4.2.4.4v.3c0 .2-.2.4-.4.4z"/><path fill="none" stroke="#0e2947" stroke-miterlimit="10" stroke-width=".25" d="m81.7 77.8c1.1.8 2.8.8 3.9 0"/><path fill="none" stroke="#0e2947" stroke-miterlimit="10" stroke-width=".25" d="m81.9 80c1.1.6 2.5.5 3.6-.1"/><path fill="#0e2947" d="m83.5 80.4h.4v13.4h-.4z"/><circle cx="83.7" cy="84.9" r="1.3" fill="#6152f5" stroke="#0e2947" stroke-miterlimit="10" stroke-width=".25"/><path fill="#6152f5" d="m83 81.5h1.4v1.4h-1.4z" transform="matrix(.7068 -.7074 .7074 .7068 -33.6247 83.3351)"/><path fill="#0e2947" d="m83.7 81.5.7.7-.7.8-.7-.8zm0-.5-.3.3-.6.7-.3.3.3.3.7.7.3.3.3-.3.7-.7.3-.3-.4-.3-.7-.7z"/><path fill="none" stroke="#0e2947" stroke-miterlimit="10" stroke-width=".25" d="m82.5 88.7c0 .1.6.4 1.2.2"/><path fill="none" stroke="#0e2947" stroke-miterlimit="10" stroke-width=".25" d="m82.4 87.6c.1.2 1 .4 1.3.3"/><path fill="#0e2947" d="m84 90c.1-.1.2-.1.2 0-.1.1-.1.1-.2 0 0 .1 0 .1 0 0zm0-.8c.1-.1.2-.1.2 0-.1.1-.1.1-.2 0 0 .1 0 .1 0 0zm0-.8c.1-.1.2-.1.2 0-.1.1-.1.1-.2 0 0 .1 0 .1 0 0zm0-.8c.1-.1.2-.1.2 0-.1.1-.1.1-.2 0 0 .1 0 .1 0 0z"/><path fill="#9393b5" d="m84 90s0-.1.1-.1.1 0 .1.1c0 .2-.3.2-.2 0zm0 0c0 .1.2.1.2 0-.1-.1-.2-.1-.2 0z"/><path fill="#9393b5" d="m84 89.2s0-.1.1-.1.1 0 .1.1c0 .2-.3.2-.2 0zm0 0c0 .1.2.1.2 0-.1-.1-.2-.1-.2 0z"/><path fill="#9393b5" d="m84 88.4c0-.1.2-.1.2 0s-.1.1-.1.1c-.1 0-.1 0-.1-.1zm0 0c0 .1.2.1.2 0-.1-.1-.2-.1-.2 0z"/><path fill="#9393b5" d="m84 87.6c0-.1.2-.1.2 0s-.1.1-.1.1c-.1 0-.1 0-.1-.1zm0 0c0 .1.2.1.2 0-.1-.1-.2-.1-.2 0z"/><path fill="#0e2947" d="m84 93.2c.1-.1.2-.1.2 0-.1.1-.1.1-.2 0 0 .1 0 .1 0 0zm0-.8c.1-.1.2-.1.2 0-.1.1-.1.1-.2 0 0 .1 0 .1 0 0zm0-.8c.1-.1.2-.1.2 0-.1.1-.1.1-.2 0 0 .1 0 .1 0 0zm0-.8c.1-.1.2-.1.2 0-.1.1-.1.1-.2 0 0 .1 0 .1 0 0z"/><path fill="#9393b5" d="m84 93.2s0-.1.1-.1.1 0 .1.1c0 .2-.3.2-.2 0zm0 0c0 .1.2.1.2 0-.1 0-.2-.1-.2 0z"/><path fill="#9393b5" d="m84 92.4s0-.1.1-.1.1 0 .1.1c0 .2-.3.2-.2 0zm0 0c0 .1.2.1.2 0-.1 0-.2-.1-.2 0z"/><path fill="#9393b5" d="m84 91.6c0-.1.2-.1.2 0s-.1.1-.1.1c-.1 0-.1 0-.1-.1zm0 0c0 .1.2.1.2 0-.1 0-.2-.1-.2 0z"/><path fill="#9393b5" d="m84 90.8c0-.1.2-.1.2 0s-.1.1-.1.1c-.1 0-.1 0-.1-.1zm0 0c0 .1.2.1.2 0-.1 0-.2-.1-.2 0z"/><circle cx="83.7" cy="74.4" r="1.8" fill="#25e899" stroke="#0e2947" stroke-miterlimit="10" stroke-width=".25"/><circle cx="83.7" cy="74.4" r=".8" fill="#dadaf2" stroke="#0e2947" stroke-miterlimit="10" stroke-width=".25"/><path fill="url(#p)" d="m83 74.8c.4.1.9.1 1.3.1s.8 0 1.1-.3c.4-.3.3-1 0-1.4s-.9-.5-1.4-.5c-.4 0-.9.1-1.3.3-.3.2-.8.7-.8 1.1s.7.6 1.1.7z"/><circle cx="83.8" cy="84.9" r=".8" fill="url(#r)"/><use fill="#f1f2f2" xlink:href="#U"/><path fill="#ed1c24" d="m81.6 75.2h.5v20.2h-.5z" clip-path="url(#s)"/><path fill="#003790" d="m80.5 75.2h.5v20.2h-.5z" clip-path="url(#s)"/><path fill="#003790" d="m82.7 75.2h.5v20.2h-.5z" clip-path="url(#s)"/><path fill="#ed1c24" d="m83.8 75.2h.5v20.2h-.5z" clip-path="url(#s)"/><path fill="#003790" d="m84.9 75.2h.5v20.2h-.5z" clip-path="url(#s)"/><use style="fill:none;stroke:#0e2947;stroke-width:.25;stroke-linecap:round;stroke-linejoin:round;stroke-miterlimit:10" xlink:href="#U"/><path d="m73.8 86.5h3.7z" style="fill:none;stroke:#0e2947;stroke-width:.25;stroke-linecap:round;stroke-linejoin:round;stroke-miterlimit:10"/><use fill="#f1f2f2" xlink:href="#V"/><path fill="#c0ffe4" d="m76.9 86.6h-.8l.3 7.5h.3z" clip-path="url(#t)"/><path fill="#9393b5" d="m77 86.8h-2.2l.2 7.1-.3.2-.4-7.6 1.9-.1.8.2z" clip-path="url(#t)"/><use style="fill:none;stroke:#0e2947;stroke-width:.25;stroke-linecap:round;stroke-linejoin:round;stroke-miterlimit:10" xlink:href="#V"/><circle cx="75.7" cy="94.5" r=".7" fill="#25e899" stroke="#0e2947" stroke-miterlimit="10" stroke-width=".25"/><path fill="#0e2947" d="m76.6 97.1h.6c.1 0 .2-.1.2-.2v-.6c0-.1-.1-.2-.2-.2h-.6c-.1 0-.2.1-.2.2v.6c0 .1.1.2.2.2z"/><path fill="#0e2947" d="m74.2 97.1h.6c.1 0 .2-.1.2-.2v-.6c0-.1-.1-.2-.2-.2h-.6c-.1 0-.2.1-.2.2v.6c0 .1.1.2.2.2z"/><use fill="#dadaf2" xlink:href="#W"/><path fill="url(#v)" d="m73.3 96.3h4.8c.1 0 .2-.1.2-.2v-.6c0-.1-.1-.3-.3-.3h-4.6c-.1 0-.3.1-.3.3v.6c0 .1.1.2.2.2z" clip-path="url(#u)"/><path fill="url(#w)" d="m73.9 96.1h3.5c.1 0 .2-.1.2-.2v-.5c0-.1-.1-.2-.2-.2h-3.5c-.1 0-.2.1-.2.2v.6c.1.1.1.1.2.1z" clip-path="url(#u)"/><path fill="#f1f2f2" stroke="#0e2947" stroke-miterlimit="10" stroke-width=".05" d="m73.1 96.6h5.3v-.7s-1.6 0-2.7 0-2.6 0-2.6 0z" clip-path="url(#u)"/><g clip-path="url(#u)"><path fill="#0e2947" d="m75.7 96s.1 0 0 0zm-.6 0c-.1 0 0 0 0 0zm2 0c-.1 0-.1 0 0 0zm-3.4 0c.1 0 .1 0 0 0zm4.7 0c-.1 0 0 0 0 0zm-5.3 0c-.1 0 0 0 0 0z"/></g><use fill="none" stroke="#0e2947" stroke-miterlimit="10" stroke-width=".25" xlink:href="#W"/><use fill="#f1f2f2" xlink:href="#X"/><path fill="#9393b5" d="m75.3 90.3c-1.1-3.4-1.9-15.6-1.9-15.6h2.8s-.9 14.5-.9 15.6z" clip-path="url(#x)"/><path fill="#c0ffe4" d="m77.9 74.4-2.6 15.9-.2.6 1 .3.4-.7z" clip-path="url(#x)"/><use style="fill:none;stroke:#0e2947;stroke-width:.25;stroke-linecap:round;stroke-linejoin:round;stroke-miterlimit:10" xlink:href="#X"/><path fill="#0e2947" d="m74.1 82.8h3.1c.2 0 .4-.2.4-.4v-.3c0-.2-.2-.4-.4-.4h-3.1c-.2 0-.4.2-.4.4v.3c0 .2.2.4.4.4z"/><path fill="none" stroke="#0e2947" stroke-miterlimit="10" stroke-width=".25" d="m77.7 77.8c-1.1.8-2.8.8-3.9 0"/><path fill="none" stroke="#0e2947" stroke-miterlimit="10" stroke-width=".25" d="m77.5 80c-1.1.6-2.5.5-3.6-.1"/><path fill="#0e2947" d="m75.5 80.4h.4v13.4h-.4z"/><circle cx="75.7" cy="84.9" r="1.3" fill="#6152f5" stroke="#0e2947" stroke-miterlimit="10" stroke-width=".25"/><path fill="#6152f5" d="m75 81.5h1.4v1.4h-1.4z" transform="matrix(.7074 -.7068 .7068 .7074 -35.9838 77.5523)"/><path fill="#0e2947" d="m75.7 81.5.7.7-.7.8-.7-.8zm0-.5-.3.3-.7.7-.3.3.3.3.7.7.3.3.3-.3.7-.7.3-.3-.4-.3-.7-.7z"/><path fill="none" stroke="#0e2947" stroke-miterlimit="10" stroke-width=".25" d="m76.9 88.7c0 .1-.6.4-1.2.2"/><path fill="none" stroke="#0e2947" stroke-miterlimit="10" stroke-width=".25" d="m77 87.6c-.1.2-1 .4-1.3.3"/><path fill="#0e2947" d="m75.4 90.1c-.1 0-.1 0 0 0-.1-.1-.1-.2 0-.2zm0-.8c-.1 0-.1 0 0 0-.1-.1-.1-.2 0-.2zm0-.8c-.1 0-.1 0 0 0-.1-.1-.1-.2 0-.2zm0-.8c-.1 0-.1 0 0 0-.1-.1-.1-.2 0-.2z"/><path fill="#9393b5" d="m75.4 90.1s-.1 0-.1-.1 0-.1.1-.1.1.3 0 .2zm0 0c.1 0 .1-.2 0-.2-.1.1-.2.2 0 .2z"/><path fill="#9393b5" d="m75.4 89.3s-.1 0-.1-.1 0-.1.1-.1.1.2 0 .2zm0 0c.1 0 .1-.2 0-.2-.1.1-.2.2 0 .2z"/><path fill="#9393b5" d="m75.4 88.5s-.1 0-.1-.1 0-.1.1-.1.1.1.1.1c-.1.1-.1.1-.1.1zm0 0c.1 0 .1-.2 0-.2s-.2.2 0 .2z"/><path fill="#9393b5" d="m75.4 87.7s-.1 0-.1-.1 0-.1.1-.1.1.1.1.1c-.1.1-.1.1-.1.1zm0 0c.1 0 .1-.2 0-.2s-.2.2 0 .2z"/><path fill="#0e2947" d="m75.4 93.3c-.1 0-.1 0 0 0-.1-.1-.1-.2 0-.2zm0-.8c-.1 0-.1 0 0 0-.1-.1-.1-.2 0-.2zm0-.8c-.1 0-.1 0 0 0-.1-.1-.1-.2 0-.2zm0-.8c-.1 0-.1 0 0 0-.1-.1-.1-.2 0-.2z"/><path fill="#9393b5" d="m75.4 93.3s-.1 0-.1-.1 0-.1.1-.1.1.3 0 .2zm0 0c.1 0 .1-.2 0-.2-.1.1-.2.2 0 .2z"/><path fill="#9393b5" d="m75.4 92.5s-.1 0-.1-.1 0-.1.1-.1.1.3 0 .2zm0 0c.1 0 .1-.2 0-.2-.1.1-.2.2 0 .2z"/><path fill="#9393b5" d="m75.4 91.7s-.1 0-.1-.1 0-.1.1-.1.1.1.1.1c0 .1-.1.1-.1.1zm0 0c.1 0 .1-.2 0-.2-.1.1-.2.2 0 .2z"/><path fill="#9393b5" d="m75.4 90.9s-.1 0-.1-.1 0-.1.1-.1.1.1.1.1c0 .1-.1.1-.1.1zm0 0c.1 0 .1-.2 0-.2-.1.1-.2.2 0 .2z"/><circle cx="75.7" cy="74.4" r="1.8" fill="#25e899" stroke="#0e2947" stroke-miterlimit="10" stroke-width=".25"/><circle cx="75.7" cy="74.4" r=".8" fill="#dadaf2" stroke="#0e2947" stroke-miterlimit="10" stroke-width=".25"/><path fill="url(#y)" d="m76.4 74.8c-.4.1-.9.1-1.3.1s-.8 0-1.1-.3c-.4-.3-.3-1 0-1.4s.9-.5 1.4-.5c.4 0 .9.1 1.3.3.3.2.8.7.8 1.1s-.7.6-1.1.7z"/><circle cx="75.6" cy="84.9" r=".8" fill="url(#z)"/><use fill="#f1f2f2" xlink:href="#Y"/><path fill="#003790" d="m77.4 75.2h.5v20.2h-.5z" clip-path="url(#A)" transform="matrix(-1 0 0 -1 155.1976 170.635)"/><path fill="#ed1c24" d="m78.5 75.2h.5v20.2h-.5z" clip-path="url(#A)" transform="matrix(-1 0 0 -1 157.4298 170.635)"/><path fill="#ed1c24" d="m76.3 75.2h.5v20.2h-.5z" clip-path="url(#A)" transform="matrix(-1 0 0 -1 152.9654 170.635)"/><path fill="#003790" d="m75.1 75.2h.5v20.2h-.5z" clip-path="url(#A)" transform="matrix(-1 0 0 -1 150.7331 170.635)"/><path fill="#ed1c24" d="m74 75.2h.5v20.2h-.5z" clip-path="url(#A)" transform="matrix(-1 0 0 -1 148.5009 170.635)"/><use style="fill:none;stroke:#0e2947;stroke-width:.25;stroke-linecap:round;stroke-linejoin:round;stroke-miterlimit:10" xlink:href="#Y"/><path fill="#d6d6ea" stroke="#0e2947" stroke-miterlimit="10" stroke-width=".25" d="m95.7 71.3c.4-.8.1-1.9-.8-2.3l-7.7-3.9c-.3-.1-.7 0-.8.3l-1.3 2.5 8.2 4.1c1 .5 2 .2 2.4-.7z"/><path d="m93.9 70.4-3.8-1.9" style="fill:none;stroke:#0e2947;stroke-width:.25;stroke-linecap:round;stroke-linejoin:round;stroke-miterlimit:10"/><circle cx="91.9" cy="69.4" r=".7" style="fill:#25e899;stroke:#0e2947;stroke-width:.25;stroke-linecap:round;stroke-linejoin:round;stroke-miterlimit:10"/><path fill="url(#C)" d="m90.7 70.7c.4.1.7 0 1.1-.2.3-.1.5-.5.6-.8s.3-.5.4-.8c0-.1.1-.2 0-.3 0-.1-.1-.4-.2-.4-.4-.2-.7-.5-1.1-.7-.1 0-.3.2-.4.2s-.1.1-.2.1c-.3.4-.5.9-.7 1.4-.1.3-.2.6-.1.8.3.2.3.6.6.7-.1 0 .1 0 0 0z"/><use fill="#054978" xlink:href="#Z"/><g fill="#fff" clip-path="url(#D)"><path d="m90 64.1-.1.4-.4.2.4.1.1.4.2-.3.4.1-.2-.3.2-.4-.4.1z"/><path d="m88 64.7-.1.4-.3.2.3.2.1.4.3-.3h.3l-.1-.3.1-.4-.3.1z"/><path d="m86 65.4-.1.4-.3.1.3.2.1.4.3-.3.4.1-.2-.4.2-.3-.4.1z"/><path d="m89.4 65.8-.1.4-.3.2.3.2.1.4.3-.3h.4l-.2-.3.2-.4-.4.1z"/><path d="m87.4 66.5v.3l-.4.2.4.2v.4l.3-.3.4.1-.2-.4.2-.3h-.4z"/><path d="m90.9 66.9-.1.4-.3.2.3.1.1.4.2-.2h.4l-.2-.3.2-.4-.4.1z"/><path d="m88.9 67.5-.1.4-.3.2.3.2.1.4.3-.3.4.1-.2-.4.2-.3h-.4z"/><path d="m86.9 68.2v.4l-.4.1.4.2v.4l.3-.3.4.1-.2-.4.2-.3-.4.1z"/><path d="m90.3 68.6v.4l-.4.2.4.2v.4l.3-.3h.4l-.2-.3.2-.4-.4.1z"/><path d="m88.3 69.3v.4l-.4.1.4.2v.4l.3-.3.4.1-.2-.4.2-.3-.4.1z"/><path d="m91.8 69.7-.1.4-.3.2.3.2.1.4.2-.3h.4l-.1-.3.1-.4-.4.1z"/><path d="m89.8 70.4-.1.3-.3.2.3.2.1.4.3-.3.4.1-.2-.4.2-.3h-.4z"/><path d="m87.8 71v.4l-.4.2.4.1v.4l.3-.3.4.1-.2-.3.2-.4-.4.1z"/></g><use style="fill:none;stroke:#0e2947;stroke-width:.25;stroke-linecap:round;stroke-linejoin:round;stroke-miterlimit:10" xlink:href="#Z"/><path fill="#d6d6ea" stroke="#0e2947" stroke-miterlimit="10" stroke-width=".25" d="m65.7 74.1c-.7-.7-.7-1.8 0-2.4l6.6-6.5 2.5 2.4-6.6 6.5c-.8.7-1.9.7-2.5 0z"/><path d="m67.1 72.7 3.1-3" style="fill:none;stroke:#0e2947;stroke-width:.25;stroke-linecap:round;stroke-linejoin:round;stroke-miterlimit:10"/><circle cx="68.7" cy="71.1" r=".7" style="fill:#25e899;stroke:#0e2947;stroke-width:.25;stroke-linecap:round;stroke-linejoin:round;stroke-miterlimit:10"/><path fill="url(#E)" d="m68.2 69.3c-.2.2-.2.6-.2 1s.3.6.5.9c.2.2.4.4.7.6.1.1.2.2.3.2h.5c.4-.3.6-.5 1-.8 0 0-.1-.4-.1-.4 0-.1 0-.1-.1-.2-.3-.4-.7-.8-1.1-1.1-.2-.2-.5-.4-.8-.3-.2-.1-.5-.2-.7.1.1-.2 0 .1 0 0z"/><use fill="#054978" xlink:href="#aa"/><g fill="#fff" clip-path="url(#F)"><path d="m68.9 65.4.2.4.4.1-.3.2.1.4-.4-.2-.3.2v-.4l-.2-.2.4-.1z"/><path d="m71 65.4.2.4.4.1-.3.2.1.4-.4-.2-.3.2v-.4l-.3-.2.4-.1z"/><path d="m73.1 65.4.1.4.4.1-.2.2v.4l-.3-.2-.4.2.1-.4-.3-.2.4-.1z"/><path d="m70 66.9.2.4h.3l-.2.3v.4l-.3-.2-.4.2.1-.4-.3-.3h.4z"/><path d="m72.1 66.9.1.4h.4l-.3.3.1.4-.3-.2-.4.2.1-.4-.3-.3h.4z"/><path d="m68.9 68.4.2.4h.4l-.3.3.1.4-.4-.2-.3.2v-.4l-.2-.3h.4z"/><path d="m71 68.4.2.4h.4l-.3.3.1.4-.4-.2-.3.2v-.4l-.3-.3h.4z"/><path d="m73.1 68.4.1.4h.4l-.2.3v.4l-.3-.2-.4.2.1-.4-.3-.3h.4z"/><path d="m70 69.9.2.3.3.1-.2.3v.3l-.3-.1-.4.1.1-.3-.3-.3.4-.1z"/><path d="m72.1 69.9.1.3.4.1-.3.3.1.3-.3-.1-.4.1.1-.3-.3-.3.4-.1z"/><path d="m68.9 71.4.2.3.4.1-.3.2.1.4-.4-.2-.3.2v-.4l-.2-.2.4-.1z"/><path d="m71 71.4.2.3.4.1-.3.2.1.4-.4-.2-.3.2v-.4l-.3-.2.4-.1z"/><path d="m73.1 71.4.1.3.4.1-.2.2v.4l-.3-.2-.4.2.1-.4-.3-.2.4-.1z"/></g><use style="fill:none;stroke:#0e2947;stroke-width:.25;stroke-linecap:round;stroke-linejoin:round;stroke-miterlimit:10" xlink:href="#aa"/><path fill="#0e2947" d="m72.4 64.9 2.4-.5c1.6-.4 3.3-.5 4.9-.5 1.7 0 3.3.2 4.9.5l2.5.5c-1.6 1-3.3 2.2-4.9 3.2-.7.4-1.4.9-2.2.9-.6 0-1.1-.1-1.7-.3-2.2-.8-4.2-2.1-5.9-3.8z"/><path fill="#d6d6ea" stroke="#0e2947" stroke-miterlimit="10" stroke-width=".25" d="m84.6 76.7s-.3.3-1.2.5-5 .9-7.8 0c0 0-.9-.2-1.1-.9 0 0-.6-3.6-.6-5.1s.4-4.9.5-5.2c0 0 0-.9 1.9-1.1 0 0 4-.7 6.7 0 0 0 1 .2 1.4.6 0 0 .6.4.6.9s.5 2.2.4 4-.2 4.2-.2 4.8c-.3 1.1-.6 1.5-.6 1.5z"/><path fill="url(#G)" d="m79.7 67.9c-1-.1-2.4-2-3-2.6-.2-.2-.4-.3-.5-.1-.3.3 0 .8.1 1.1.3.7.8 1.3 1.4 1.8.3.3.7.6 1.2.6s.9-.2 1.3-.4c.9-.4 1.8-.9 2.3-1.6.3-.5.8-1.1.6-1.6 0-.1-.1-.3-.2-.2-.4.7-2.7 3-3.2 3z"/><use fill="#054978" xlink:href="#ab"/><g fill="#fff" clip-path="url(#H)"><path d="m71.6 66.8.2.3.4.1-.3.3.1.4-.4-.2-.3.2v-.4l-.3-.3.4-.1z"/><path d="m73.7 66.8.2.3.4.1-.3.3v.4l-.3-.2-.4.2.1-.4-.3-.3.4-.1z"/><path d="m75.8 66.8.1.3.4.1-.3.3.1.4-.3-.2-.4.2.1-.4-.3-.3.4-.1z"/><path d="m72.7 68.3.1.3.4.1-.2.2v.4l-.3-.1-.4.1.1-.4-.3-.2.4-.1z"/><path d="m74.7 68.3.2.3.4.1-.3.2.1.4-.4-.1-.3.1.1-.4-.3-.2.4-.1z"/><path d="m71.6 69.7.2.4.4.1-.3.2.1.4-.4-.2-.3.2v-.4l-.3-.2.4-.1z"/><path d="m73.7 69.7.2.4.4.1-.3.2v.4l-.3-.2-.4.2.1-.4-.3-.2.4-.1z"/><path d="m75.8 69.7.1.4.4.1-.3.2.1.4-.3-.2-.4.2.1-.4-.3-.2.4-.1z"/><path d="m72.7 71.2.1.4h.4l-.2.3v.4l-.3-.2-.4.2.1-.4-.3-.3h.4z"/><path d="m74.7 71.2.2.4h.4l-.3.3.1.4-.4-.2-.3.2.1-.4-.3-.3h.4z"/><path d="m71.6 72.7.2.4h.4l-.3.3.1.4-.4-.2-.3.2v-.4l-.3-.3h.4z"/><path d="m73.7 72.7.2.4h.4l-.3.3v.4l-.3-.2-.4.2.1-.4-.3-.3h.4z"/><path d="m75.8 72.7.1.4h.4l-.3.3.1.4-.3-.2-.4.2.1-.4-.3-.3h.4z"/></g><g fill="#fff" clip-path="url(#H)"><path d="m76.3 68.2.2.4.4.1-.3.2.1.4-.4-.2-.3.2v-.4l-.2-.2.4-.1z"/><path d="m78.4 68.2.2.4.4.1-.3.2.1.4-.4-.2-.3.2v-.4l-.3-.2.4-.1z"/><path d="m80.5 68.2.2.4.3.1-.2.2v.4l-.3-.2-.4.2.1-.4-.3-.2.4-.1z"/><path d="m82.5 68.2.2.4.4.1-.3.2.1.4-.4-.2-.3.2.1-.4-.3-.2.4-.1z"/><path d="m77.4 69.7.2.4h.4l-.3.3v.4l-.3-.2-.4.2.1-.4-.3-.3h.4z"/><path d="m79.5 69.7.1.4h.4l-.3.3.1.4-.3-.2-.4.2.1-.4-.3-.3h.4z"/><path d="m81.5 69.7.2.4h.4l-.3.3.1.4-.4-.2-.3.2.1-.4-.3-.3h.4z"/><path d="m76.3 71.2.2.4h.4l-.3.3.1.4-.4-.2-.3.2v-.4l-.2-.3h.4z"/><path d="m78.4 71.2.2.4h.4l-.3.3.1.4-.4-.2-.3.2v-.4l-.3-.3h.4z"/><path d="m80.5 71.2.2.4h.3l-.2.3v.4l-.3-.2-.4.2.1-.4-.3-.3h.4z"/><path d="m82.5 71.2.2.4h.4l-.3.3.1.4-.4-.2-.3.2.1-.4-.3-.3h.4z"/><path d="m77.4 72.7.2.3.4.1-.3.3v.3l-.3-.1-.4.1.1-.3-.3-.3.4-.1z"/><path d="m79.5 72.7.1.3.4.1-.3.3.1.3-.3-.1-.4.1.1-.3-.3-.3.4-.1z"/><path d="m81.5 72.7.2.3.4.1-.3.3.1.3-.4-.1-.3.1.1-.3-.3-.3.4-.1z"/><path d="m76.3 74.2.2.3.4.1-.3.2.1.4-.4-.2-.3.2v-.4l-.2-.2.4-.1z"/><path d="m78.4 74.2.2.3.4.1-.3.2.1.4-.4-.2-.3.2v-.4l-.3-.2.4-.1z"/><path d="m80.5 74.2.2.3.3.1-.2.2v.4l-.3-.2-.4.2.1-.4-.3-.2.4-.1z"/><path d="m82.5 74.2.2.3.4.1-.3.2.1.4-.4-.2-.3.2.1-.4-.3-.2.4-.1z"/></g><g fill="#fff" clip-path="url(#H)"><path d="m72.4 73.8.2.3.4.1-.3.3v.3l-.3-.1-.4.1.1-.3-.3-.3.4-.1z"/><path d="m74.7 74 .2.4.4.1-.3.2.1.4-.4-.2-.3.2v-.4l-.2-.2.4-.1z"/><path d="m71.6 75.5.2.4h.4l-.3.3.1.4-.4-.2-.3.2.1-.4-.3-.3h.4z"/><path d="m73.7 75.5.2.4h.4l-.3.3.1.4-.4-.2-.3.2v-.4l-.3-.3h.4z"/><path d="m72.7 77 .1.4h.4l-.3.3.1.4-.3-.2-.4.2.1-.4-.3-.3h.4z"/><path d="m74.7 77 .2.4h.4l-.3.3.1.4-.4-.2-.3.2v-.4l-.2-.3h.4z"/><path d="m71.6 78.5.2.3.4.1-.3.3.1.4-.4-.2-.3.2.1-.4-.3-.3.4-.1z"/><path d="m73.7 78.5.2.3.4.1-.3.3.1.4-.4-.2-.3.2v-.4l-.3-.3.4-.1z"/></g><g fill="#fff" clip-path="url(#H)"><path d="m75.6 75.7.2.4h.4l-.3.3.1.4-.4-.2-.3.2v-.4l-.3-.3h.4z"/><path d="m77.7 75.7.2.4h.4l-.3.3v.4l-.3-.2-.4.2.1-.4-.3-.3h.4z"/><path d="m79.8 75.7.1.4h.4l-.3.3.1.4-.3-.2-.4.2.1-.4-.3-.3h.4z"/><path d="m81.8 75.7.2.4h.4l-.3.3.1.4-.4-.2-.3.2.1-.4-.3-.3h.4z"/><path d="m76.7 77.2.1.4h.4l-.2.3v.4l-.3-.2-.4.2.1-.4-.3-.3h.4z"/><path d="m78.7 77.2.2.4h.4l-.3.3.1.4-.4-.2-.3.2.1-.4-.3-.3h.4z"/><path d="m80.8 77.2.2.4h.4l-.3.3.1.4-.4-.2-.3.2v-.4l-.2-.3h.3z"/><path d="m75.6 78.7.2.3.4.1-.3.3.1.4-.4-.2-.3.2v-.4l-.3-.3.4-.1z"/><path d="m77.7 78.7.2.3.4.1-.3.3v.4l-.3-.2-.4.2.1-.4-.3-.3.4-.1z"/><path d="m79.8 78.7.1.3.4.1-.3.3.1.4-.3-.2-.4.2.1-.4-.3-.3.4-.1z"/><path d="m81.8 78.7.2.3.4.1-.3.3.1.4-.4-.2-.3.2.1-.4-.3-.3.4-.1z"/></g><g fill="#fff" clip-path="url(#H)"><path d="m83 77.2.1.4h.4l-.2.3v.4l-.3-.2-.4.2.1-.4-.3-.3h.4z"/><path d="m85 77.2.2.4h.4l-.3.3.1.4-.4-.2-.3.2.1-.4-.3-.3h.4z"/><path d="m87.1 77.2.2.4h.4l-.3.3.1.4-.4-.2-.3.2v-.4l-.3-.3h.4z"/><path d="m84 78.7.2.3.4.1-.3.3.1.4-.4-.2-.3.2v-.4l-.2-.3.3-.1z"/><path d="m86.1 78.7.2.3.4.1-.3.3v.4l-.3-.2-.4.2.1-.4-.3-.3.4-.1z"/><path d="m88.2 78.7.1.3.4.1-.2.3v.4l-.3-.2-.4.2.1-.4-.3-.3.4-.1z"/></g><g fill="#fff" clip-path="url(#H)"><path d="m83.7 69.8.2.4h.3l-.2.3v.4l-.3-.2-.4.2.1-.4-.3-.3h.4z"/><path d="m85.8 69.8.1.4h.4l-.3.3.1.4-.3-.2-.4.2.1-.4-.3-.3h.4z"/><path d="m87.8 69.8.2.4h.4l-.3.3.1.4-.4-.2-.3.2v-.4l-.2-.3h.4z"/><path d="m84.7 71.3.2.3.4.1-.3.3.1.4-.4-.2-.3.2.1-.4-.3-.3.4-.1z"/><path d="m86.8 71.3.2.3.4.1-.3.3.1.4-.4-.2-.3.2v-.4l-.3-.3.4-.1z"/><path d="m83.7 72.8.2.3.3.1-.2.3v.3l-.3-.1-.4.1.1-.3-.3-.3.4-.1z"/><path d="m85.8 72.8.1.3.4.1-.3.3.1.3-.3-.1-.4.1.1-.3-.3-.3.4-.1z"/><path d="m87.8 72.8.2.3.4.1-.3.3.1.3-.4-.1-.3.1v-.3l-.2-.3.4-.1z"/><path d="m84.7 74.2.2.4.4.1-.3.2.1.4-.4-.2-.3.2.1-.4-.3-.2.4-.1z"/><path d="m86.8 74.2.2.4.4.1-.3.2.1.4-.4-.2-.3.2v-.4l-.3-.2.4-.1z"/><path d="m83.7 75.7.2.4h.3l-.2.3v.4l-.3-.2-.4.2.1-.4-.3-.3h.4z"/><path d="m85.8 75.7.1.4h.4l-.3.3.1.4-.3-.2-.4.2.1-.4-.3-.3h.4z"/><path d="m87.8 75.7.2.4h.4l-.3.3.1.4-.4-.2-.3.2v-.4l-.2-.3h.4z"/></g><g fill="#fff" clip-path="url(#H)"><path d="m85.6 63.9.1.3.4.1-.3.3.1.4-.3-.2-.4.2.1-.4-.3-.3.4-.1z"/><path d="m87.6 63.9.2.3.4.1-.3.3.1.4-.4-.2-.3.2v-.4l-.2-.3.4-.1z"/><path d="m84.5 65.4.2.3.4.1-.3.3v.4l-.3-.2-.4.2.1-.4-.3-.3.4-.1z"/><path d="m86.6 65.4.1.3.4.1-.2.3v.4l-.3-.2-.4.2.1-.4-.3-.3.4-.1z"/><path d="m88.6 65.4.2.3.4.1-.3.3.1.4-.4-.2-.3.2.1-.4-.3-.3.4-.1z"/><path d="m85.6 66.8.1.4.4.1-.3.2.1.4-.3-.2-.4.2.1-.4-.3-.2.4-.1z"/><path d="m87.6 66.8.2.4.4.1-.3.2.1.4-.4-.2-.3.2v-.4l-.2-.2.4-.1z"/><path d="m84.5 68.3.2.4h.4l-.3.3v.4l-.3-.2-.4.2.1-.4-.3-.3h.4z"/><path d="m86.6 68.3.1.4h.4l-.2.3v.4l-.3-.2-.4.2.1-.4-.3-.3h.4z"/><path d="m88.6 68.3.2.4h.4l-.3.3.1.4-.4-.2-.3.2.1-.4-.3-.3h.4z"/></g><g fill="#fff" clip-path="url(#H)"><path d="m77.6 63.9.2.4.4.1-.3.2.1.4-.4-.2-.3.2v-.4l-.3-.2.4-.1z"/><path d="m79.7 63.9.2.4.3.1-.2.2v.4l-.3-.2-.4.2.1-.4-.3-.2.4-.1z"/><path d="m81.8 63.9.1.4.4.1-.3.2.1.4-.3-.2-.4.2.1-.4-.3-.2.4-.1z"/><path d="m83.8 63.9.2.4.4.1-.3.2.1.4-.4-.2-.3.2v-.4l-.2-.2.4-.1z"/><path d="m78.7 65.4.1.4h.4l-.3.3.1.4-.3-.2-.4.2.1-.4-.3-.3h.4z"/><path d="m80.7 65.4.2.4h.4l-.3.3.1.4-.4-.2-.3.2.1-.4-.3-.3h.4z"/><path d="m82.8 65.4.2.4h.4l-.3.3.1.4-.4-.2-.3.2v-.4l-.3-.3h.4z"/><path d="m77.6 66.9.2.4h.4l-.3.3.1.4-.4-.2-.3.2v-.4l-.3-.3h.4z"/><path d="m79.7 66.9.2.4h.3l-.2.3v.4l-.3-.2-.4.2.1-.4-.3-.3h.4z"/><path d="m81.8 66.9.1.4h.4l-.3.3.1.4-.3-.2-.4.2.1-.4-.3-.3h.4z"/><path d="m83.8 66.9.2.4h.4l-.3.3.1.4-.4-.2-.3.2v-.4l-.2-.3h.4z"/></g><g fill="#fff" clip-path="url(#H)"><path d="m71.7 64 .1.3.4.1-.3.2.1.4-.3-.2-.4.2.1-.4-.3-.2.4-.1z"/><path d="m73.7 64 .2.3.4.1-.3.2.1.4-.4-.2-.3.2v-.4l-.2-.2.4-.1z"/><path d="m75.8 64 .2.3.4.1-.3.2.1.4-.4-.2-.3.2v-.4l-.3-.2.4-.1z"/><path d="m72.7 65.4.1.4h.4l-.2.3v.4l-.3-.2-.4.2.1-.4-.3-.3h.4z"/><path d="m74.7 65.4.2.4h.4l-.3.3.1.4-.4-.2-.3.2.1-.4-.3-.3h.4z"/><path d="m76.8 65.4.2.4h.4l-.3.3.1.4-.4-.2-.3.2v-.4l-.2-.3h.3z"/></g><use style="fill:none;stroke:#0e2947;stroke-width:.25;stroke-linecap:round;stroke-linejoin:round;stroke-miterlimit:10" xlink:href="#ab"/><path fill="#d6d6ea" d="m76.7 63.8h5.8v1.2h-5.8z"/><path fill="#0e2947" d="m82.8 65.2h-6.5v-1.7h6.5zm-6.1-.3h5.7v-1h-5.7z"/><path fill="#9393b5" d="m80.8 63.9h1.6v1h-1.6z"/><path fill="url(#I)" d="m82.1 65.7c-.4 1.4-.8 2.8-1.2 4.1-.8.2-1.6.2-2.5.2-.1 0-.3 0-.3-.1s.1.1.1 0c0-.5-.2-1.2-.3-1.6-.4-1.5-.8-3-1.1-4.5 0-.2-.1-.4-.3-.3-.2 0-.2.3-.2.4.2 2 .5 4.1 1.4 5.9.2.3.3.7.6.8.3.2.7.2 1.1.2.8-.1 1.6-.2 2.1-.8.3-.4.4-.9.5-1.4.3-1.3.6-2.6 1.1-3.9.1-.3.2-.7.1-1-.1-.2-.4-.3-.6-.1s-.1.6-.2.8c-.1.5-.2.9-.3 1.3z"/><path fill="#ff0013" d="m81.6 71.6c-.1.3-.1.5-.3.7s-.5.3-.7.2c.6-3 1.3-5.8 2.2-8.7-.1 0-.2-.1-.2-.1-.1 0-.2 0-.2-.1.1-.1.3-.1.4-.1.4-.1.7.1.6.6-.2.8-.4 1.7-.6 2.5-.4 1.6-.8 3.3-1.2 5z"/><path fill="#ff0013" d="m77.7 71.5c.1.3.1.5.3.7s.5.3.7.2c-.6-3-1.3-5.8-2.2-8.7.1 0 .2-.1.3-.1s.2 0 .2-.1c-.1-.1-.4-.1-.5-.1-.4-.1-.7.1-.6.6.2.8.4 1.7.6 2.5.4 1.6.8 3.3 1.2 5z"/><path d="m83.1 65.3-.7-.3" style="fill:none;stroke:#0082ff;stroke-width:.25;stroke-linecap:round;stroke-linejoin:round;stroke-miterlimit:10"/><path d="m82.9 65.8-.6-.3" style="fill:none;stroke:#0082ff;stroke-width:.25;stroke-linecap:round;stroke-linejoin:round;stroke-miterlimit:10"/><path d="m76.2 65.4.7-.2" style="fill:none;stroke:#0082ff;stroke-width:.25;stroke-linecap:round;stroke-linejoin:round;stroke-miterlimit:10"/><path d="m76.4 65.9.6-.3" style="fill:none;stroke:#0082ff;stroke-width:.25;stroke-linecap:round;stroke-linejoin:round;stroke-miterlimit:10"/><path fill="#f7941d" d="m76.7 67.5c-.6 0-1 .5-1 1l.4 4.8c0 .4.1.9-.2 1.3-.5.8-1.8.6-2.6 1.2s-.8 1.7-.7 2.6c.1 1.3 0 5 .1 6.3 0 .9.1 1.6 1.1 1.8 1.1.2 2.3 0 3.4 0 1.3-.1 2.7-.1 4-.2 1.5-.1 3.1-.2 4.6-.3.2 0 .3 0 .4-.1.2-.2.3-.5.3-.8.1-1.8.1-6-.1-7.8-.1-1-.3-2.1-1.2-2.5-.4-.2-1-.2-1.4-.3s-.7-.5-.7-.9v-4.7c0-.5-.4-.9-.9-1z"/><path fill="none" stroke="#f15a29" stroke-miterlimit="10" stroke-width=".25" d="m77.1 68.8c-.5 0-.9.4-.9.9l.3 4.2c0 .4.1.8-.2 1.1-.4.7-1.6.5-2.2 1-.7.5-.7 1.4-.6 2.2.1 1.1 0 4.4.1 5.5 0 .8.1 1.3 1 1.5 1 .2 2 0 3 0 1.2-.1 2.3-.1 3.5-.2 1.3-.1 2.6-.2 4-.3.1 0 .3 0 .4-.1.2-.1.2-.4.3-.7 0-1.5.1-5.2-.1-6.7-.1-.8-.3-1.8-1.1-2.2-.4-.2-.8-.2-1.2-.3s-.6-.4-.6-.8v-4.1c0-.5-.3-.8-.8-.8z"/><path fill="#ffba5f" d="m83.4 82.8-7.8.6c-.5 0-.8-.3-.8-.8v-3.6c0-.4.3-.7.7-.8l7.8-.6c.5 0 .8.3.8.8v3.6c.1.5-.3.8-.7.8z"/><path fill="#ffba5f" d="m81.5 72.4-4 .3c-.2 0-.4-.2-.4-.4v-1.9c0-.2.2-.4.4-.4l4-.3c.2 0 .4.2.4.4v1.9c0 .2-.2.4-.4.4z"/><circle cx="86.6" cy="76.8" r="1.1" style="fill:#d1d3d4;stroke:#0e2947;stroke-width:.5;stroke-linecap:round;stroke-linejoin:round;stroke-miterlimit:10"/><path fill="#0e2947" d="m78.5 68.1 5 9 .5 1c.1.1 0 .3-.1.4-.1.1-.3.1-.4 0l-.8-.8-5.8-5.3-1.8-1.6c-.2-.1-.2-.4 0-.5.1-.2.4-.2.5 0l1.8 1.7 4.8 4.5.2.2-.2-.3-4.4-7.9c-.1-.2 0-.4.2-.5.2-.2.4-.1.5.1z"/><path fill="#e6e7e8" d="m79.4 70.5c.2-.1.3-.4.2-.6l-1.3-2.4c-.1-.2-.4-.3-.6-.2-.2.1-.3.4-.2.6l1.3 2.4c.1.2.4.3.6.2z"/><path fill="#e6e7e8" d="m82.9 76.4 1.7 2.1c.2.2.1.5-.1.7-.2.2-.5.1-.7-.1l-1.6-2.1c-.2-.2-.1-.5 0-.6.1-.1.2-.1.3-.1.2-.1.4 0 .4.1z"/><path fill="#e6e7e8" d="m77.4 71.9c0 .1 0 .1-.1.2l-.1.1c-.1.1-.2.1-.4.1-.1 0-.1 0-.2-.1l-2.2-1.9c-.2-.1-.2-.4 0-.5l.1-.1c.1-.2.4-.2.5 0l2.2 1.9c.2.1.2.2.2.3z"/><path fill="#e6e7e8" d="m82.3 76.3 2.3 2.9c-.2.2-.5.1-.7-.1l-1.2-1.5-5.8-5.3c-.1 0-.1 0-.2-.1l-2.2-1.9c-.2-.1-.2-.4 0-.5l.1-.1c.1-.2.4-.2.5 0l2.2 1.9c.1.1.1.2.1.3l4.9 4.4c-.1 0-.1 0 0 0z"/><path fill="#eff4ee" d="m84.9 80-1.9.5c-.3.1-.5-.1-.6-.3l-.1-.4c-.1-.3.1-.5.3-.6l1.9-.5"/><path fill="#0e2947" d="m85.1 80c0 .1 0 .2-.1.2l-1.9.5c-.4.1-.7-.1-.9-.5l-.1-.4c-.1-.4.1-.7.5-.9l1.9-.5c.1 0 .2 0 .2.1s0 .2-.1.2l-1.9.5c-.2 0-.2.2-.2.4l.1.4c0 .2.2.2.4.2l1.9-.5c.1.1.2.2.2.3"/><path fill="#25e899" d="m84.9 80c.4-.1.6-.5.5-.9s-.5-.6-.9-.5-.6.5-.5.9c.2.4.6.6.9.5"/><path fill="#0e2947" d="m85.6 79.1c.1.5-.1 1-.6 1.1s-1-.1-1.1-.6.1-1 .6-1.1 1 .1 1.1.6m-1.3.4c.1.3.4.4.6.3.3-.1.4-.4.3-.6-.1-.3-.4-.4-.6-.3-.3.1-.4.3-.3.6"/><path fill="#eff4ee" d="m84.4 78.3-1.9.5c-.3.1-.5-.1-.6-.3l-.1-.4c-.1-.3.1-.5.3-.6l1.9-.5"/><path fill="#0e2947" d="m84.5 78.3c0 .1 0 .2-.1.2l-1.9.5c-.4.1-.7-.1-.9-.5l-.1-.4c-.1-.4.1-.7.5-.9l1.9-.5c.1 0 .2 0 .2.1s0 .2-.1.2l-1.9.5c-.2 0-.2.2-.2.4l.1.4c0 .2.2.2.4.2l1.9-.5c.1.1.2.2.2.3"/><path fill="#25e899" d="m84.4 78.3c.4-.1.6-.5.5-.9s-.5-.6-.9-.5-.6.5-.5.9.5.6.9.5"/><path fill="#0e2947" d="m85 77.4c.1.5-.1 1-.6 1.1s-1-.1-1.1-.6.1-1 .6-1.1 1 .1 1.1.6m-1.3.4c.1.3.4.4.6.3.3-.1.4-.4.3-.6-.1-.3-.4-.4-.6-.3s-.4.3-.3.6"/><path fill="#eff4ee" d="m83.6 77-1.8.7c-.3.1-.5 0-.6-.3l-.2-.3c-.1-.3 0-.5.3-.6l1.8-.7"/><path fill="#0e2947" d="m83.8 76.9c0 .1 0 .2-.1.3l-1.8.7c-.4.1-.8 0-.9-.4l-.2-.4c-.1-.4 0-.8.4-.9l1.8-.7c.1 0 .2 0 .3.1 0 .1 0 .2-.1.3l-1.8.7c-.1.1-.2.2-.2.4l.2.4c.1.1.2.2.4.2l1.8-.7c.1-.2.2-.1.2 0"/><path fill="#25e899" d="m83.6 77c.4-.1.5-.6.4-.9-.1-.4-.6-.5-.9-.4-.4.1-.5.6-.4.9.2.3.6.5.9.4"/><path fill="#0e2947" d="m84.2 76c.2.5 0 1-.5 1.2s-1 0-1.2-.5 0-1 .5-1.2 1 0 1.2.5m-1.3.5c.1.3.4.4.7.3s.4-.4.3-.7-.4-.4-.7-.3c-.3.2-.4.5-.3.7"/><use fill="#d6d6ea" xlink:href="#ac"/><path fill="#bdbde5" d="m85 80 1.9-2.1-.2-.8-2.4 1.4z" clip-path="url(#J)"/><path fill="#c5c5ea" d="m83.4 76.1 2.5-.2h.3c.1 0 .1.1.1.1s-3 .5-3.1.4 0-.3.2-.3z" clip-path="url(#J)"/><use fill="none" stroke="#0e2947" stroke-miterlimit="10" stroke-width=".25" xlink:href="#ac"/><path fill="#d6d6ea" stroke="#0e2947" stroke-miterlimit="10" stroke-width=".25" d="m86.5 75.6 1.1 1.7 7.7-5.3c.7-.5.8-1.5.3-2.2-.5-.7-1.5-.8-2.2-.3z"/><path fill="#bdbde5" d="m94.3 69.4c-.5-.2-7.5 6.3-7.5 6.3s-.1.4.4 1c0 0-.1-.6.6-1.1.7-.4 7.5-5.6 7.5-5.6s.1-.3-1-.6z"/><g stroke="#0e2947"><path fill="none" stroke-linecap="round" stroke-linejoin="round" stroke-miterlimit="10" stroke-width=".25" d="m93.3 73.4c-.8-.2-1.7-1.4-1.8-2.2"/><path fill="none" stroke-linecap="round" stroke-linejoin="round" stroke-miterlimit="10" stroke-width=".25" d="m92.1 72.5 2.2-1.8"/><path fill="none" stroke-linecap="round" stroke-linejoin="round" stroke-miterlimit="10" stroke-width=".25" d="m95.5 71.6c-.8-.2-1.7-1.4-1.8-2.2"/><path fill="none" stroke-linecap="round" stroke-linejoin="round" stroke-miterlimit="10" stroke-width=".25" d="m89.7 74.2c-.1 0-.1.1-.2.1"/><path fill="none" stroke-miterlimit="10" stroke-width=".25" d="m89.9 74.2.1-1.7"/><path fill="none" stroke-miterlimit="10" stroke-width=".25" d="m90 74.2 1.7.3"/><path fill="none" stroke-linecap="round" stroke-linejoin="round" stroke-miterlimit="10" stroke-width=".25" d="m86.7 76.9 2-1.7"/><path fill="none" stroke-linecap="round" stroke-linejoin="round" stroke-miterlimit="10" stroke-width=".25" d="m89.4 76.1-1.5-1.9"/><path fill="none" stroke-linecap="round" stroke-linejoin="round" stroke-miterlimit="10" stroke-width=".25" d="m93.3 73.4-3.3.7 1.5-2.9"/><circle cx="90" cy="74.1" r=".5" fill="#ffcd2d" stroke-linecap="round" stroke-linejoin="round" stroke-miterlimit="10" stroke-width=".25"/><path fill="#25e899" stroke-miterlimit="10" stroke-width=".25" d="m86.2 76.2c.3-.2.7-.2 1 .1.2.3.2.7-.1 1-.3.2-.7.2-1-.1-.2-.4-.2-.8.1-1"/><path fill="none" stroke-linecap="round" stroke-linejoin="round" stroke-miterlimit="10" stroke-width=".25" d="m90.2 75.4-1.4-1.8"/><circle cx="60.5" cy="65.6" r="1.1" fill="#d1d3d4" stroke-linecap="round" stroke-linejoin="round" stroke-miterlimit="10" stroke-width=".25"/><path fill="#d6d6ea" stroke-miterlimit="10" stroke-width=".25" d="m60.2 66.7 1.5-1.4 6.3 6.9c.6.7.5 1.7-.2 2.2-.7.6-1.7.5-2.2-.2z"/></g><path fill="#bdbde5" d="m66.4 74.6c-.5 0-5.8-7.8-5.8-7.8s-.1-.4.6-.9c0 0-.3.6.3 1.2s6 7.1 6 7.1 0 .3-1.1.4z"/><path d="m66.3 70.4c-.8 0-1.9 1-2.2 1.8" style="fill:none;stroke:#0e2947;stroke-width:.25;stroke-linecap:round;stroke-linejoin:round;stroke-miterlimit:10"/><path d="m65 71 1.7 2.3" style="fill:none;stroke:#0e2947;stroke-width:.25;stroke-linecap:round;stroke-linejoin:round;stroke-miterlimit:10"/><path d="m68.1 72.7c-.8 0-1.9 1-2.2 1.8" style="fill:none;stroke:#0e2947;stroke-width:.25;stroke-linecap:round;stroke-linejoin:round;stroke-miterlimit:10"/><path d="m60.6 65.5 1.6 2.1" style="fill:none;stroke:#0e2947;stroke-width:.25;stroke-linecap:round;stroke-linejoin:round;stroke-miterlimit:10"/><path d="m63.1 66.9-1.8 1.4" style="fill:none;stroke:#0e2947;stroke-width:.25;stroke-linecap:round;stroke-linejoin:round;stroke-miterlimit:10"/><path fill="#25e899" stroke="#0e2947" stroke-miterlimit="10" stroke-width=".25" d="m60.1 66.1c.2.3.7.3 1 .1s.3-.7.1-1-.7-.3-1-.1c-.3.3-.4.7-.1 1"/><path d="m63.8 67.8-1.8 1.4" style="fill:none;stroke:#0e2947;stroke-width:.25;stroke-linecap:round;stroke-linejoin:round;stroke-miterlimit:10"/><use fill="#d6d6ea" xlink:href="#ad"/><path fill="#bcbec0" d="m61.1 63.4c-.3.9-1.1 1.6-1.9 2-.3.1-.7.2-1.1.2-.4-.1-.7-.3-.8-.7s.2-.8.5-1.1c.4-.5.9-.9 1.5-1.2.8-.4 2.3-.5 1.8.8z" clip-path="url(#K)"/><use fill="none" stroke="#0e2947" stroke-miterlimit="10" stroke-width=".25" xlink:href="#ad"/><path fill="#a5b5b6" d="m65 60.6-6.3 4.8-.3-.4 6.3-4.8c.2-.1.4-.2.5 0 .1.1 0 .3-.2.4z"/><path fill="#a5b5b6" d="m65.5 61c-.2.1-.4.1-.5-.1l-.6-.7c-.1-.2-.1-.4.1-.5l2.1-1.3.2-.1c.1 0 .2 0 .2.1.1.1 0 .2-.1.2l-.2.1-1.2.8c-.2.1-.3.3-.4.4v.1h.1c.2 0 .4-.1.5-.2l1.1-.9.2-.1c.1-.1.2-.1.2 0 .1.1.1.2 0 .2l-.2.2z"/><path fill="#707070" d="m58.7 65.6-2.3 1.8c-.1.1-.3.1-.3 0l-.3-.3c-.1-.1 0-.2.1-.3l2.3-1.8c.1-.1.2-.1.3 0l.3.3c.1.1 0 .2-.1.3z"/><path fill="#e54d42" d="m70 61.4c-.4.3-.9.2-1.2-.1l-3.7-4.8c-.3-.4-.2-.9.2-1.2.4-.3.9-.2 1.2.2l3.7 4.8c.3.3.2.8-.2 1.1z"/><path fill="#c52e25" d="m69.8 60.2c-.3.2-.6.4-.6.3s.2-.3.5-.5c.1-.1.2-.1.2-.2l.2.2c-.1.1-.2.2-.3.2z"/><path fill="#c52e25" d="m69.2 59.4c-.3.2-.6.4-.6.3s.2-.3.5-.5c.1-.1.2-.1.2-.2l.2.2c-.2.1-.2.1-.3.2z"/><path fill="#c52e25" d="m68.5 58.5c-.3.2-.6.4-.6.3s.2-.3.5-.5c.1-.1.2-.1.2-.2l.2.2c-.1.1-.2.2-.3.2z"/><path fill="#c52e25" d="m67.9 57.6c-.3.2-.6.4-.6.3s.2-.3.5-.5c.1-.1.2-.1.2-.2l.2.2c-.2.1-.2.2-.3.2z"/><path fill="#c52e25" d="m67.2 56.8c-.3.2-.6.4-.6.3s.2-.3.5-.5c.1-.1.2-.1.2-.2l.2.2c-.1.1-.2.1-.3.2z"/><path fill="#c52e25" d="m66.6 55.9c-.3.2-.6.4-.6.3s.2-.3.5-.5c.1-.1.2-.1.2-.2l.2.2c-.2.1-.2.2-.3.2z"/><path fill="#eff4ee" d="m61 62.4-1.4-1.4c-.2-.2-.5-.2-.7 0l-.3.3c-.2.2-.2.5 0 .7l1.4 1.4"/><path fill="#0e2947" d="m61.1 62.6c.1-.1.1-.2 0-.3l-1.4-1.4c-.3-.3-.7-.3-1 0l-.3.3c-.3.3-.3.7 0 1l1.4 1.4c.1.1.2.1.3 0s.1-.2 0-.3l-1.4-1.4c-.1-.1-.1-.3 0-.4l.3-.3c.1-.1.3-.1.4 0l1.4 1.4z"/><path fill="#25e899" d="m61 62.4c.3.3.3.7 0 1s-.7.3-1 0-.3-.7 0-1 .7-.3 1 0"/><path fill="#0e2947" d="m61.1 63.5c-.4.3-.9.3-1.3 0-.3-.4-.3-.9 0-1.3.4-.3.9-.3 1.3 0 .4.4.4 1 0 1.3m-.9-1c-.2.2-.2.5 0 .7s.5.2.7 0 .2-.5 0-.7c-.2-.1-.5-.2-.7 0"/><path fill="#eff4ee" d="m59.7 63.6-1.4-1.4c-.2-.2-.5-.2-.7 0l-.3.3c-.2.2-.2.5 0 .7l1.4 1.4"/><path fill="#0e2947" d="m59.8 63.7c.1-.1.1-.2 0-.3l-1.4-1.4c-.3-.3-.7-.3-1 0l-.3.3c-.3.3-.3.7 0 1l1.4 1.4c.1.1.2.1.3 0s.1-.2 0-.3l-1.4-1.4c-.1-.1-.1-.3 0-.4l.3-.3c.1-.1.3-.1.4 0l1.4 1.4c.1.1.2.1.3 0"/><path fill="#25e899" d="m59.7 63.6c.3.3.3.7 0 1s-.7.3-1 0-.3-.7 0-1c.2-.3.7-.3 1 0"/><path fill="#0e2947" d="m59.8 64.7c-.4.3-.9.3-1.3 0-.3-.4-.3-.9 0-1.3.4-.3.9-.3 1.3 0 .3.4.3 1 0 1.3m-1-1c-.2.2-.2.5 0 .7s.5.2.7 0 .2-.5 0-.7-.5-.2-.7 0"/><path fill="#eff4ee" d="m58.4 64.4-1.2-1.5c-.2-.2-.5-.3-.7-.1l-.3.3c-.2.2-.3.5-.1.7l1.2 1.5"/><path fill="#0e2947" d="m58.5 64.6c.1-.1.1-.2 0-.3l-1.2-1.5c-.2-.3-.7-.4-1-.1l-.3.2c-.3.2-.4.7-.1 1l1.2 1.5c.1.1.2.1.3 0s.1-.2 0-.3l-1.2-1.5c-.1-.1-.1-.3.1-.4l.3-.3c.1-.1.3-.1.4.1l1.2 1.5c.1.1.2.2.3.1"/><path fill="#25e899" d="m58.4 64.4c.2.3.2.7-.1 1-.3.2-.7.2-1-.1-.2-.3-.2-.7.1-1 .3-.2.7-.2 1 .1"/><path fill="#0e2947" d="m58.4 65.6c-.4.3-1 .2-1.3-.2s-.2-1 .2-1.3 1-.2 1.3.2c.2.4.1 1-.2 1.3m-.9-1.1c-.2.2-.3.5-.1.7s.5.3.7.1.3-.5.1-.7c-.2-.3-.5-.3-.7-.1"/><path fill="url(#L)" d="m85.3 50.8c-1.8-.6-3.6-1.3-5.4-1.4-1.1 0-2.2.2-3.3.7-.7.3-2.5 1.3-1.4 2.2 1.8 1.4 4.7 1.2 6.7.5 1.3-.4 2.4-1 3.4-2z"/><use fill="#d6d6ea" xlink:href="#ae"/><path fill="#003790" d="m84.5 51.1s-.4-6.4-4.8-6.3-4.7 6.2-4.7 6.2 2.9-.3 4.4-.3c2.6-.1 5.1.4 5.1.4z" clip-path="url(#M)"/><use fill="none" stroke="#0e2947" stroke-miterlimit="10" stroke-width=".25" xlink:href="#ae"/><use fill="#d6d6ea" xlink:href="#af"/><path fill="#f1f2f2" d="m84.4 51.9c-.3 0-1.1-.6-1.4-.7-1.2-.6-2.3-.8-3.6-.4.8 0 1.8.5 2.6.7 1 .3 2 1 3.1.9 0-.4-.1-.8-.2-1.2 0-.1-.3-.6-.3-.6 0 .1.1.8.1.9 0 .2 0 .4-.3.4z" clip-path="url(#N)"/><path fill="#bcbec0" d="m78 51.1c-1.3.3-2.6.8-3.8 1.5 0-.6.1-1.3.1-1.9.9-.6 1.8-1 2.8-1.3.5-.1.7-.3.9.2 0 .1-.1 1.5 0 1.5z" clip-path="url(#N)"/><use fill="none" stroke="#0e2947" stroke-miterlimit="10" stroke-width=".25" xlink:href="#af"/><path fill="#fff" d="m79.8 46.7.2.6h.7l-.6.4.2.7-.5-.4-.6.4.2-.7-.5-.4h.6z"/><path fill="#fff" d="m78 46.4.2.5h.5l-.4.2.1.5-.4-.3-.3.3.1-.5-.4-.2h.5z"/><path fill="#fff" d="m81.6 46.4.1.5h.5l-.4.2.1.5-.3-.3-.4.3.1-.5-.4-.2h.5z"/></g><g clip-path="url(#b)"><path fill="#1e2f7a" d="m87.3 91.1-1.2-5 .9-.2 3 12.1c.1.2-.1.5-.3.5-.2.1-.5-.1-.5-.3l-1.6-6.5z"/><path fill="#1e2f7a" d="m80.9 91.1 1.2-5-.9-.2-1.2 5.2-1.7 6.9c-.1.2.1.5.3.5.2.1.5-.1.5-.3l1.6-6.5z"/><circle cx="89.5" cy="98" r=".8" fill="#0e2947"/><circle cx="89.5" cy="98" r=".5" fill="#25e899"/><path fill="#0e2947" d="m78.7 98.5c-.3-.1-.5-.4-.5-.7l.3-1.4c.1-.3.4-.5.7-.4.3.1.5.4.4.7l-.3 1.4c0 .3-.3.5-.6.4z"/><path fill="#1e2f7a" d="m95.1 78.2h-.7c-.1 0-.1.1-.1.1v.4h-1.7v.5h1.7v.4c0 .1.1.1.1.1h.7c.1 0 .1-.1.1-.1v-1.4c0 .1-.1 0-.1 0z"/><path fill="#1e2f7a" d="m73.9 78.8v-.4c0-.1-.1-.1-.1-.1h-.7c-.1 0-.1.1-.1.1v1.4c0 .1.1.1.1.1h.7c.1 0 .1-.1.1-.1v-.4h1.7v-.5h-1.7z"/><path fill="#ed1c24" d="m84.1 87.1c5.2 0 9.3-4.2 9.3-9.3-6.2 1.4-12.5 1.4-18.7 0 .1 5.1 4.2 9.3 9.4 9.3z"/><path fill="#f23b48" d="m75.8 77.8c-.2 0-.4-.1-.6-.1 0 5.2 4.2 9.3 9.3 9.3h.3c-4.9-.1-8.9-4.1-9-9.2z" opacity=".82"/><path fill="#e2c8bc" d="m93.5 77.7s0 .1-.1.1-.2.1-.4.1c-.4.1-.9.2-1.6.3-.1 0-.2 0-.4.1-.1 0-.1 0-.2 0-.6.1-1.2.2-1.9.2h-.1c-.1 0-.2 0-.4 0h-.1c-.7.1-1.4.1-2.1.1 0 0 0 0-.1 0s-.2 0-.3 0-.3 0-.4 0c-.4 0-.8 0-1.2 0-.2 0-.5 0-.7 0-.1 0-.3 0-.4 0s-.2 0-.3 0c-.3 0-.6 0-.9 0-.4 0-.8 0-1.2-.1-.1 0-.3 0-.4 0-.6-.1-1.3-.1-1.8-.2-.2 0-.5-.1-.7-.1-.1 0-.3 0-.4-.1-.1 0-.1 0-.2 0-1.4-.2-2.2-.4-2.2-.6 0 0 .1-.1.2-.1s.3-.1.5-.1c.3 0 .7-.1 1.2-.1h.4.6.7 1 .4 1 .7.6.4 1.6.1.7.4 2.3.4.4c.7 0 1.4 0 2 .1h.4.6c.4 0 .7.1 1 .1.5.2.9.2.9.3z"/><path fill="#f6e1d5" d="m92.4 77.5c-.3 0-.6-.1-1-.1-.2 0-.4 0-.6 0-.1 0-.3 0-.4 0-.6 0-1.3-.1-2-.1-.1 0-.3 0-.4 0s-.3 0-.4 0c-.7 0-1.5 0-2.3 0-.1 0-.2 0-.4 0-.2 0-.5 0-.7 0h-.2c-.5 0-1.1 0-1.6 0-.1 0-.3 0-.4 0-.2 0-.4 0-.6 0-.3 0-.5 0-.7 0-.3 0-.7 0-1 0-.1 0-.3 0-.4 0-.4 0-.7 0-1 0-.2 0-.5 0-.7 0s-.4 0-.6 0c-.1 0-.3 0-.4 0-.5 0-.9.1-1.2.1-.2 0-.4.1-.5.1s-.2.1-.2.1.1.1.3.2h.2 1 .7.6.4 1.6.1.7.4 2.3.4.4c.7 0 1.4 0 2 .1h.4.6c.4 0 .7.1 1 .1.7.1 1.1.1 1.1.2 0 0 0 .1-.1.1s-.2.1-.4.1c-.1 0-.2.1-.4.1h.1.1.4.1c.7-.1 1.4-.1 1.9-.2h.2c.1 0 .2 0 .4-.1.7-.1 1.3-.2 1.6-.3.2 0 .3-.1.4-.1s.1-.1.1-.1c.2-.1-.2-.1-.9-.2z"/><g fill="#b9252a"><path d="m77.6 78.4c-.1 0-.3 0-.4-.1l-.5-.9h.4z"/><path d="m80.5 78.7c-.1 0-.3 0-.4 0l-.7-1.3h.4z"/><path d="m83.3 78.8c-.1 0-.3 0-.4 0l-.9-1.5h.4z"/><path d="m86 78.7s0 .1 0 0c-.2 0-.3 0-.4 0l-.9-1.5h.4z"/><path d="m88.7 78.6c-.1 0-.2 0-.4 0l-.7-1.3h.4z"/><path d="m91.2 78.3c-.1 0-.2 0-.4.1l-.5-1h.4z"/></g><path fill="#a81628" d="m84 79c-.5 0-.9 0-1.4 0-.3 0-.6 0-.9 0-1.2-.1-2.3-.1-3.5-.3-.5-.1-.9-.1-1.3-.2-2.4-.4-2.4-.6-2.4-.8s.3-.3.4-.3.3-.1.6-.1c.5-.1 1.2-.1 2.2-.2h.7c.7 0 1.5-.1 2.4-.1h.7 2.6.1.7 2.7.8c1.2 0 2.2.1 3 .1.4 0 .7.1 1 .1 1 .1 1.3.2 1.3.5 0 .2-.2.3-.3.3s-.2.1-.4.1c-.4.1-1 .2-1.7.3-.2 0-.4.1-.5.1-.6.1-1.3.2-2 .2-.2 0-.4 0-.6.1-.8.1-1.5.2-2.2.2-.2 0-.5 0-.7 0-.5 0-.9 0-1.3 0zm-8.4-1.2c.3.1.8.2 1.4.3.4.1.8.1 1.3.2 1.1.1 2.2.2 3.4.3h.9 2.6.7c.7 0 1.5-.1 2.2-.1.2 0 .4 0 .6-.1.7-.1 1.3-.1 1.9-.2.2 0 .4-.1.5-.1.5-.1 1-.2 1.4-.2-.1 0-.2 0-.2 0-.3 0-.6-.1-1-.1-.8-.1-1.8-.1-3-.1-.3 0-.6 0-.8 0-.9 0-1.8 0-2.7 0-.2 0-.4 0-.7 0h-.1c-.9 0-1.7 0-2.6 0-.3 0-.5 0-.7 0-.9 0-1.7 0-2.4.1-.2 0-.5 0-.7 0-.8-.1-1.5-.1-2 0z"/><path fill="#f7b23f" d="m85.1 77.6c-.1 0-.1 0-.2 0h-.1c-.1 0-.2 0-.4 0h-.1c-.1 0-.2 0-.4 0h-.1c-.1 0-.2 0-.4 0h-.1c-.1 0-.2 0-.4 0h-.1c-.1 0-.1 0-.2 0s-.1 0-.2-.1-.1-.1-.1-.2v-.7c0-.1 0-.2.1-.2s.1-.1.2-.1h.2.1.4.1.4.1.4.1.4.1.2c.1 0 .2 0 .2.1.1.1.1.1.1.2v.4.4c0 .1 0 .2-.1.2 0 0-.1 0-.2 0z"/><path fill="#fdd835" d="m83.2 77.6c0-.1 0-.1 0-.2s-.1-.2-.2-.2c-.1 0-.2.1-.2.2v.2c0 .1.1.2.2.2.1-.1.2-.1.2-.2zm0-.6v-.2c0-.1-.1-.2-.2-.2s-.1 0-.1.1c0 0-.1.1-.1.1v.1.1c0 .1.1.2.2.2s.2-.1.2-.2zm0-.5c0-.1 0-.1 0-.2 0-.1-.1-.1-.2-.1s-.1 0-.1.1c0 0-.1.1-.1.1v.2c0 .1.1.2.2.2.1-.2.2-.2.2-.3zm.4 1.1v-.2c0-.1-.1-.2-.2-.2-.1 0-.2.1-.2.2v.2c0 .1.1.1.2.1s.2 0 .2-.1zm0-.6c0-.1 0-.1 0-.2s-.1-.2-.2-.2-.1 0-.1.1c0 0-.1.1-.1.1v.2c0 .1.1.2.2.2s.2-.1.2-.2zm0-.5v-.2c0-.1-.1-.1-.2-.1s-.1 0-.1.1c0 0 0 .1-.1.1v.2c0 .1.1.2.2.2.1-.2.2-.2.2-.3zm.4 1.1v-.2c0-.1-.1-.2-.2-.2-.1 0-.2.1-.2.2v.2c0 .1.1.1.2.1.2 0 .2 0 .2-.1zm0-.6v-.2c0-.1-.1-.2-.2-.2s-.1 0-.1.1c0 0-.1.1-.1.1v.1.1c0 .1.1.2.2.2.2 0 .2-.1.2-.2zm0-.6c0-.1 0-.1 0-.2 0-.1-.1-.1-.2-.1s-.1 0-.1.1c0 0 0 .1-.1.1v.2c0 .1.1.2.2.2.2-.1.2-.2.2-.3zm.5 1.2v-.2c0-.1-.1-.2-.2-.2-.1 0-.2.1-.2.2v.2c0 .1.1.1.2.1.1.1.2 0 .2-.1zm0-.6c0-.1 0-.1 0-.2s-.1-.2-.2-.2-.1 0-.1.1c0 0-.1.1-.1.1v.2c0 .1.1.2.2.2s.2-.1.2-.2zm0-.6v-.2c0-.1-.1-.1-.2-.1s-.1 0-.1.1c0 0 0 .1-.1.1v.2c0 .1.1.2.2.2.1-.1.2-.2.2-.3zm.4 1.2c0-.1 0-.2 0-.2 0-.1-.1-.2-.2-.2-.1 0-.2.1-.2.2v.2c0 .1.1.1.2.1.1.1.2 0 .2-.1zm0-.6v-.2c0-.1-.1-.2-.2-.2s-.1 0-.1.1c0 0-.1.1-.1.1v.1.1c0 .1.1.2.2.2s.2-.1.2-.2zm0-.6c0-.1 0-.1 0-.2 0-.1-.1-.2-.2-.1-.1 0-.1 0-.1.1 0 0 0 .1-.1.1v.2c0 .1.1.2.2.2.1-.1.2-.2.2-.3zm.4 1.2v-.2c0-.1-.1-.2-.2-.2-.1 0-.2.1-.2.2v.2c0 .1.1.1.2.1.2.1.2 0 .2-.1zm0-.6c0-.1 0-.1 0-.2s-.1-.2-.2-.2-.1 0-.1.1c0 0-.1.1-.1.1v.2c0 .1.1.2.2.2s.2-.1.2-.2zm0-.6v-.2c0-.1-.1-.2-.2-.2-.1 0-.2.1-.2.2v.2c0 .1.1.2.2.2s.2-.1.2-.2z"/><path fill="#f7b23f" d="m80.9 77.7c-.1 0-.1 0-.2 0h-.1c-.1 0-.2 0-.4 0h-.1c-.1 0-.2 0-.4 0h-.1c-.1 0-.2 0-.4 0h-.1c-.1 0-.2 0-.4 0h-.1c-.1 0-.1 0-.2 0s-.1 0-.2-.1-.1-.1-.1-.2v-.7c0-.1 0-.2.1-.2s.1-.1.2-.1h.2.1.4.1.4.1.4.1.4.1.2c.1 0 .2 0 .2.1.1.1.1.1.1.2v.4.4c0 .1 0 .2-.1.2-.1-.1-.2 0-.2 0z"/><path fill="#fdd835" d="m78.9 77.6c0-.1 0-.1 0-.2s-.1-.2-.2-.2c-.1 0-.2.1-.2.2v.2c0 .1.1.2.2.2s.2-.1.2-.2zm0-.5v-.2c0-.1-.1-.2-.2-.2s-.1 0-.1.1c0 0-.1.1-.1.1v.1.1c0 .1.1.2.2.2.1-.1.2-.2.2-.2zm0-.6c0-.1 0-.1 0-.2 0-.1-.1-.1-.2-.1s-.1 0-.1.1c0 0-.1.1-.1.1v.2c0 .1.1.2.2.2.1-.1.2-.2.2-.3zm.4 1.2c0-.1 0-.1 0 0v-.2c0-.1-.1-.2-.2-.2-.1 0-.2.1-.2.2v.2c0 .1.1.1.2.1s.2-.1.2-.1zm0-.7c0-.1 0-.1 0-.2s-.1-.2-.2-.2-.1 0-.1.1c0 0-.1.1-.1.1v.2c0 .1.1.2.2.2.2 0 .2-.1.2-.2zm0-.5v-.2c0-.1-.1-.1-.2-.1s-.1 0-.1.1c0 0 0 .1-.1.1v.2c0 .1.1.2.2.2.1-.1.2-.2.2-.3zm.5 1.2c0-.1 0-.1 0 0v-.2c0-.1-.1-.2-.2-.2-.1 0-.2.1-.2.2v.2c0 .1.1.1.2.1s.1-.1.2-.1zm0-.7v-.2c0-.1-.1-.2-.2-.2s-.1 0-.1.1c0 0-.1.1-.1.1v.1.1c0 .1.1.2.2.2s.2-.1.2-.2zm0-.5c0-.1 0-.1 0-.2 0-.1-.1-.1-.2-.1s-.1 0-.1.1c0 0 0 .1-.1.1v.2c0 .1.1.2.2.2.1-.1.2-.2.2-.3zm.4 1.2c0-.1 0-.1 0 0v-.2c0-.1-.1-.2-.2-.2-.1 0-.2.1-.2.2v.2c0 .1.1.1.2.1s.2-.1.2-.1zm0-.7c0-.1 0-.1 0-.2s-.1-.2-.2-.2-.1 0-.1.1c0 0-.1.1-.1.1v.2c0 .1.1.2.2.2s.2-.1.2-.2zm0-.5v-.2c0-.1-.1-.1-.2-.1s-.1 0-.1.1c0 0 0 .1-.1.1v.2c0 .1.1.2.2.2.1-.2.2-.2.2-.3zm.4 1.2c0-.1 0-.1 0 0 0-.1 0-.2 0-.2 0-.1-.1-.2-.2-.2-.1 0-.2.1-.2.2v.2c0 .1.1.1.2.1s.2-.1.2-.1zm0-.7v-.2c0-.1-.1-.2-.2-.2s-.1 0-.1.1c0 0-.1.1-.1.1v.1.1c0 .1.1.2.2.2s.2-.1.2-.2zm0-.5c0-.1 0-.1 0-.2 0-.1-.1-.2-.2-.1-.1 0-.1 0-.1.1 0 0 0 .1-.1.1v.2c0 .1.1.2.2.2.1-.2.2-.2.2-.3zm.5 1.1v-.2c0-.1-.1-.2-.2-.2-.1 0-.2.1-.2.2v.2c0 .1.1.1.2.1.1.1.2 0 .2-.1zm0-.6c0-.1 0-.1 0-.2s-.1-.2-.2-.2-.1 0-.1.1c0 0-.1.1-.1.1v.2c0 .1.1.2.2.2s.2-.1.2-.2zm-.1-.6v-.2c0-.1-.1-.2-.2-.2-.1 0-.2.1-.2.2v.2c0 .1.1.2.2.2.2 0 .2-.1.2-.2z"/><path fill="#e54d42" d="m82.5 77.5c0 .3-.2.5-.5.5h-3.6c-.3 0-.5-.2-.5-.5 0-.3.2-.5.5-.5h3.6c.3 0 .5.2.5.5z"/><path fill="#c52e25" d="m81.9 77.2c0 .2 0 .4-.1.4 0 0-.1-.2-.1-.4 0-.1 0-.1 0-.2h.2z"/><path fill="#c52e25" d="m81.3 77.2c0 .2 0 .4-.1.4 0 0-.1-.2-.1-.4 0-.1 0-.1 0-.2h.2z"/><path fill="#c52e25" d="m80.6 77.2c0 .2 0 .4-.1.4 0 0-.1-.2-.1-.4 0-.1 0-.1 0-.2h.2z"/><path fill="#c52e25" d="m80 77.2c0 .2 0 .4-.1.4 0 0-.1-.2-.1-.4 0-.1 0-.1 0-.2h.2z"/><path fill="#c52e25" d="m79.3 77.2c0 .2 0 .4-.1.4 0 0-.1-.2-.1-.4 0-.1 0-.1 0-.2h.2z"/><path fill="#c52e25" d="m78.7 77.2c0 .2 0 .4-.1.4 0 0-.1-.2-.1-.4 0-.1 0-.1 0-.2h.2z"/><path fill="#c66419" d="m90.3 77.3c0 .3-.2.5-.5.5h-3.6c-.3 0-.5-.2-.5-.5 0-.3.2-.5.5-.5h3.6c.3.1.5.3.5.5z"/><path fill="#a6441b" d="m89.7 77c0 .2 0 .4-.1.4 0 0-.1-.2-.1-.4 0-.1 0-.1 0-.2h.2z"/><path fill="#a6441b" d="m89.1 77c0 .2 0 .4-.1.4 0 0-.1-.2-.1-.4 0-.1 0-.1 0-.2h.1c0 .1.1.2.1.2z"/><path fill="#a6441b" d="m88.4 77c0 .2 0 .4-.1.4 0 0-.1-.2-.1-.4 0-.1 0-.1 0-.2h.2z"/><path fill="#a6441b" d="m87.8 77c0 .2 0 .4-.1.4 0 0-.1-.2-.1-.4 0-.1 0-.1 0-.2h.2z"/><path fill="#a6441b" d="m87.1 77c0 .2 0 .4-.1.4 0 0-.1-.2-.1-.4 0-.1 0-.1 0-.2h.2z"/><path fill="#a6441b" d="m86.5 77c0 .2 0 .4-.1.4 0 0-.1-.2-.1-.4 0-.1 0-.1 0-.2h.2z"/><path fill="#a04c13" d="m86.1 77.3c.6-.3 2.2 0 1.4.7-.2.1-.2 0-.4.1-.3.1-.7 0-1-.1-.2-.1-.9-.2-.8-.4.1-.1.7-.2.8-.3z" opacity=".75"/><path fill="#e54d42" d="m87.7 77.9c0 .3-.2.5-.5.5h-3.6c-.3 0-.5-.2-.5-.5 0-.3.2-.5.5-.5h3.6c.3 0 .5.2.5.5z"/><path fill="#c52e25" d="m87.1 77.5c0 .2 0 .4-.1.4 0 0-.1-.2-.1-.4 0-.1 0-.1 0-.2h.2z"/><path fill="#c52e25" d="m86.5 77.5c0 .2 0 .4-.1.4 0 0-.1-.2-.1-.4 0-.1 0-.1 0-.2h.2z"/><path fill="#c52e25" d="m85.8 77.5c0 .2 0 .4-.1.4 0 0-.1-.2-.1-.4 0-.1 0-.1 0-.2h.2z"/><path fill="#c52e25" d="m85.2 77.5c0 .2 0 .4-.1.4 0 0-.1-.2-.1-.4 0-.1 0-.1 0-.2h.2z"/><path fill="#c52e25" d="m84.5 77.5c0 .2 0 .4-.1.4 0 0-.1-.2-.1-.4 0-.1 0-.1 0-.2h.2z"/><path fill="#c52e25" d="m83.9 77.5c0 .2 0 .4-.1.4 0 0-.1-.2-.1-.4 0-.1 0-.1 0-.2h.2z"/><path fill="#e6e7e8" d="m81.7 72.4c-.1-.8.1-1.6 0-2.4s-.4-1.7-1.1-2c.7.4 1.3.9 1.8 1.6.4.7.7 1.5.5 2.3-.1.5-.4 1-.4 1.5 0 .3 0 .7.2.9-.6-.6-.9-1.2-1-1.9z"/><path fill="#e6e7e8" d="m83.9 71.6c.1-.4 0-.9 0-1.3s.2-.9.6-1.1c-.4.2-.7.5-1 .9s-.4.8-.3 1.2c.1.3.2.5.2.8 0 .2 0 .4-.1.5.4-.3.6-.6.6-1z"/><path fill="#e6e7e8" d="m83.8 73.8c.1-.2.3-.4.5-.6s.4-.3.6-.5.3-.4.3-.7c0 .3-.1.6-.4.9-.2.2-.5.4-.7.6-.1.1-.3.3-.3.4-.1.2 0 .3 0 .5-.2-.1-.1-.4 0-.6z"/></g><path fill="#009444" d="m111.2 122.7v-24.2s-.1 0-.2 0c-.1-.3-.2-.6-.3-.8-.1-.1-.2-.3-.2-.3-.1-.1-.1-.1-.1-.1s.1.3.1.6v.2c-.1-.4-.3-.7-.4-1-.1-.2-.2-.3-.3-.4s-.1-.1-.1-.1 0 .1.1.2c0 .1.1.3.2.6 0 .1.1.3.1.4-.1-.1-.2-.3-.2-.4-.1-.2-.2-.3-.3-.4s-.1-.1-.1-.1 0 .1.1.2c0 .1.1.3.2.5s.1.5.2.7c-.1-.2-.3-.5-.5-.6-.1-.1-.2-.2-.3-.2s-.1-.1-.1-.1.1.2.3.5c.1.1.1.2.2.4h-.1c-.2-.4-.5-.8-.7-1.2-.1-.3-.2-.5-.3-.7s-.1-.3-.1-.3 0 .1 0 .3.1.5.2.8.2.6.3.9c-.2-.4-.4-.8-.6-1.2-.2-.5-.4-.9-.4-.9s0 .1 0 .3.1.5.1.8c0 .1 0 .2.1.3-.2-.2-.3-.4-.5-.5-.2-.2-.4-.3-.5-.3-.1-.1-.2-.1-.2-.1s.1.1.2.2.2.3.4.5c.1.2.3.5.4.8v.1c-.2-.2-.3-.5-.6-.7-.2-.2-.5-.4-.7-.5s-.4-.2-.6-.3c-.1 0-.2-.1-.2-.1s.1.1.2.2l.5.5c.3.3.5.7.8 1-.1 0-.1 0-.2 0-.3-.3-.7-.6-1-.9-.2-.2-.4-.3-.5-.4-.2-.7-.5-1.5-.5-1.5s.1 1.6.3 2.6v.2s0 0-.1 0c0 0 0 0 0-.1-.1-.5-.3-1.1-.5-1.6s-.4-.8-.4-.8.1.5.1 1v.3c-.1-.2-.2-.4-.4-.6s-.3-.4-.4-.5-.2-.2-.2-.2.1.1.1.3c.1.2.2.4.3.6.2.5.4 1.1.5 1.6h-.1c-.1-.3-.2-.6-.4-.8-.2-.3-.3-.5-.5-.6-.2-.2-.3-.3-.4-.3-.1-.1-.2-.1-.2-.1s.1.1.1.2c.1.1.2.3.3.5.1.3.3.6.4.9-.2-.4-.5-.7-.8-.9-.2-.1-.3-.2-.4-.3 0 0 0 0 0-.1-.2-.4-.5-.8-.5-.8s.1.4.2.9c.1.4.2 1 .4 1.4 0 0 0 0-.1 0 0-.1 0-.1-.1-.2-.3-.9-1-2.2-1-2.2s.1.5.2 1.1c-.1-.2-.3-.3-.4-.5-.2-.2-.3-.3-.4-.3-.1-.1-.2-.1-.2-.1s.1.1.1.2c.1.1.2.3.3.5.2.3.3.7.4 1.1-.2-.2-.4-.5-.5-.6s-.2-.1-.3-.2c-.1-.4-.2-.8-.3-1.2-.1-.3-.2-.5-.3-.7s-.1-.3-.1-.3 0 .1.1.3c0 .2.1.5.1.8.1.6.1 1.4.1 2v.2c0-.1 0-.2 0-.3-.1-.6-.3-1.2-.5-1.7-.4-.1-.6-.3-.6-.5-.1-.1-.1-.2-.1-.2s0 .1.1.3c0 .2.1.4.1.7.1.5.2 1.2.2 1.7v.2c0-.3-.1-.6-.1-.8-.1-.3-.2-.6-.4-.8-.1-.2-.3-.4-.4-.5s-.2-.1-.2-.1 0 .1.1.2.2.4.2.6c.1.3.1.5.2.8v.4c-.2-.5-.5-1-.8-1.3-.2-.2-.3-.3-.4-.4s-.2-.2-.2-.2 0 .1.1.2c.1.2.2.4.3.6.2.4.3.8.5 1.2 0 0 0 0-.1 0v-.1c-.2-.5-.5-1-.8-1.4-.2-.2-.3-.3-.4-.4s-.2-.1-.2-.1 0 .1.1.2.2.3.3.6c.2.4.3.8.5 1.2-.1 0-.1 0-.2 0-.2-.5-.5-.9-.8-1.3-.2-.2-.3-.3-.4-.4s-.2-.2-.2-.2 0 .1.1.2c.1.2.2.4.3.6.1.3.3.7.4 1h-.1v-.1c-.1-.5-.3-1-.6-1.4-.1-.2-.2-.3-.3-.4s-.1-.2-.1-.2 0 .1.1.2c0 .1.1.3.2.6.1.2.1.4.2.7-.1-.2-.2-.4-.3-.6-.2-.4-.4-.8-.4-.8s0 .4.1.8c-.1-.2-.3-.4-.5-.6s-.3-.3-.4-.4-.2-.1-.2-.1 0 .1.1.2.2.3.3.6c.2.4.4 1 .6 1.4 0 0 0 0-.1 0 0 0 0 0 0-.1-.2-.5-.6-1-.9-1.3-.2-.2-.3-.3-.5-.4-.1 0-.1 0-.2 0h-.1s0 0 0 0 .1.1.1.1c.1.1.2.3.3.5.2.3.3.8.5 1.1-.1 0-.1 0-.2 0-.4-.6-1.2-1.4-1.5-1.6-.1-.3-.2-.5-.3-.7s-.1-.3-.1-.3 0 .1 0 .4c0 .1 0 .3.1.5-.1-.2-.2-.4-.3-.5s-.1-.2-.1-.2 0 .1.1.3c0 .2.1.4.1.7.1.5.2 1 .2 1.5-.2-.6-.5-1.2-.8-1.5-.2-.2-.3-.3-.4-.4s-.2-.1-.2-.1.1.1.1.2.1.2.2.3c-.1-.1-.2-.1-.3-.2s-.2-.1-.2-.1.1.1.2.2.2.3.3.5c.2.3.4.8.5 1.2h-.4c0-.1 0-.1-.1-.2-.2-.4-.5-.9-.8-1.2-.1-.1-.3-.3-.4-.3-.1-.1-.2-.1-.2-.1s.2.3.3.7c-.2-.1-.3-.2-.4-.3-.1-.3-.1-.6-.2-.9s-.2-.5-.3-.6c0-.1-.1-.1-.1-.2v-.1s0 .1.1.3c0 .2.1.4.1.7v.6c-.1-.2-.2-.4-.3-.5-.1-.2-.2-.3-.3-.4s-.1-.1-.1-.1 0 .1.1.2c0 .1.1.3.2.5.1.3.1.6.2.9-.2-.3-.4-.6-.6-.7-.1-.1-.3-.2-.4-.3s-.2-.1-.2-.1 0 .1.1.2c0 .1.1.1.1.2 0 0 0 0-.1-.1-.1-.2-.3-.3-.4-.3-.1-.1-.1-.1-.1-.1s0 .1.1.2.1.3.2.5c.2.4.3.9.4 1.3 0 .1 0 .2.1.2h-.3c0-.1 0-.2 0-.4-.1-.5-.3-1-.6-1.3-.1-.2-.2-.3-.3-.4h.2s0 .1.1.2.1.3.2.5.1.5.2.8c-.1-.3-.3-.5-.5-.7-.1-.1-.3-.2-.3-.3-.1-.1-.1-.1-.1-.1s0 .1.1.2c0 .1.1.2.1.3-.1-.1-.1-.2-.2-.2-.1-.2-.3-.3-.4-.3-.1-.1-.2-.1-.2-.1s0 .1.1.2.1.3.2.5c.2.4.3.9.4 1.2s0 0 0-.1c-.2-.3-.5-.6-.7-.7-.1-.1-.2-.1-.3-.1 0-.4-.1-.8-.2-1.2-.1-.3-.1-.5-.2-.7s-.1-.3-.1-.3 0 .1 0 .3v.7.8c-.1-.2-.1-.3-.2-.4-.1-.2-.2-.3-.3-.4s-.1-.1-.1-.1 0 .1.1.2c0 .1.1.3.1.5.1.4.1.8.1 1.1-.1-.4-.3-.8-.6-1.1-.1-.2-.2-.3-.3-.4s-.1-.1-.1-.1.1.3.2.7c.1.3.2.7.3 1-.2-.3-.4-.7-.7-.9-.1-.1-.3-.2-.3-.3-.1-.1-.1-.1-.1-.1s0 .1.1.2.1.3.2.5.2.4.2.6c-.2-.2-.3-.3-.5-.4-.1-.1-.2-.1-.3-.2-.3-.6-.7-1.3-.7-1.3s.1.7.2 1.3c0-.1-.1-.2-.1-.2-.2-.3-.3-.5-.3-.5s0 .3.1.6c0 .3 0 .5.1.8h-.1c0-.2 0-.3-.1-.5-.1-.3-.2-.5-.3-.7s-.2-.3-.3-.4-.1-.1-.1-.1 0 .1.1.2c0 .1.1.3.1.5s0 .4.1.6c-.1-.3-.3-.6-.5-.8-.1-.1-.2-.2-.3-.3-.1 0-.1-.1-.1-.1s0 .1.1.2.1.3.2.4c.1.2.1.3.2.5-.2-.3-.4-.5-.7-.7-.2.3-.4.2-.5.2s-.2-.1-.2-.1 0 .1.1.2.2.2.3.4.3.5.4.7h-.1c0-.1-.1-.1-.1-.2-.2-.3-.6-.6-.8-.8-.3-.1-.5-.2-.5-.2s.2.3.4.6c.1.2.2.4.4.6h-.1c0-.1-.1-.1-.1-.2-.2-.3-.4-.6-.6-1-.1-.2-.2-.3-.2-.4s-.1-.2-.1-.2 0 .1 0 .2 0 .3.1.6c0 .3.1.7.3 1h-.1s0 0 0-.1c-.1-.3-.3-.7-.4-1.1 0-.2-.1-.4-.1-.5s0-.2 0-.2 0 .1-.1.2c0 .1-.1.3-.1.6v.8c0 .1 0 .2.1.4h-.1c0-.3-.1-.6-.2-.9s-.1-.6-.1-.6-.1.2-.1.6v.1c0-.1 0-.3-.1-.4 0-.2-.1-.5-.2-.6 0-.1-.1-.2-.1-.2s0 .1 0 .3v.6.3c0-.1 0-.3 0-.4 0-.3-.1-.5-.1-.6s-.1-.2-.1-.2 0 .1 0 .3 0 .4-.1.6c0 .2 0 .3-.1.5-.1-.7-.3-1.5-.3-1.5s-.1.6-.1 1.2c-.1-.2-.2-.5-.3-.6-.1-.2-.3-.4-.3-.5-.3-.3-.3-.3-.3-.3s0 .1.1.2.1.3.2.6c.1.2.1.5.1.8v.7s0 0 0-.1c-.1-.4-.4-.9-.7-1.2-.1-.2-.3-.3-.3-.3-.1-.1-.1-.1-.1-.1s0 .1.1.2.1.3.2.5v.1c-.1-.1-.2-.2-.3-.2s-.1-.1-.1-.1 0 .1.1.2.1.2.2.4.1.4.2.6c-.2-.3-.6-.6-.9-.8-.2-.1-.3-.1-.4-.1s-.2 0-.2 0 0 .1.1.1c.1.1.2.2.3.4 0 0 0 .1.1.1-.1-.1-.3-.1-.4-.1-.1-.2-.2-.5-.4-.7-.2-.3-.4-.5-.4-.5s.1.3.1.7c0 .1 0 .3.1.4-.1-.2-.3-.3-.4-.4s-.3-.1-.3-.2c-.1 0-.1 0-.1 0s0 .1.1.1c.1.1.1.2.2.4 0 .1.1.2.1.2-.2-.3-.5-.6-.8-.7-.2-.1-.3-.2-.4-.2s-.2-.1-.2-.1.1.1.1.2c.1.1.2.3.3.4s.2.3.3.4c-.2-.1-.3-.2-.5-.3-.3-.1-.5-.2-.5-.2s.2.2.4.5l.3.3h-.3c-.2-.3-.5-.8-.8-1.2-.1-.2-.2-.4-.3-.5s-.1-.2-.1-.2 0 .1 0 .3.1.4.1.7c0 .1.1.2.1.3-.1-.1-.2-.3-.3-.4-.2-.3-.4-.6-.4-.6s0 .4.2.8c.1.3.2.6.3.9h-.2c0-.1 0-.2 0-.3-.1-1-.6-2.6-.6-2.6s0 .8 0 1.7c-.1-.2-.1-.3-.1-.4s-.1-.2-.1-.2 0 .1 0 .3v.6c-.1-.4-.3-.7-.5-1-.1-.2-.2-.4-.3-.5s-.1-.2-.1-.2 0 .1.1.3c0 .2.1.4.2.6 0 .1 0 .2.1.2-.1-.2-.2-.4-.3-.5-.1-.2-.3-.4-.4-.5s-.2-.2-.2-.2 0 .1.1.3.1.4.2.6c.1.3.2.6.3.9-.2-.4-.5-.8-.7-1s-.3-.3-.4-.4-.2-.1-.2-.1 0 .1.1.2c.1.2.2.4.3.6v.1c0 .2-.1.6-.1.9-.3-.3-.6-.6-.8-.8-.2-.1-.4-.3-.5-.3-.1-.1-.2-.1-.2-.1s.1.1.2.2.3.3.4.5c.1.1.2.3.3.5-.2-.3-.5-.5-.8-.6-.2-.1-.4-.2-.5-.2s-.2-.1-.2-.1c-.2-.1-.3-.2-.3-.2s.2.4.5.8c.2.3.4.7.6 1.1h-.1c0-.1-.1-.3-.2-.4-.4-.9-1.4-2.2-1.4-2.2s.3.9.6 1.7c-.2-.3-.3-.6-.5-.8-.3-.4-.5-.7-.5-.7s.1.4.3.9c.1.2.1.4.2.5 0 0 0 0-.1-.1-.2-.3-.4-.5-.7-.6-.2-.2-.4-.2-.6-.3h-.1v-.1c-.1-.1-.1-.2-.1-.2s0 .1 0 .2 0 0 0 0v.5.9s0 0-.1 0c0 0 0 0-.1 0 0 0-.1-.1-.1-.1 0-.9-.1-2-.1-2s-.2.8-.3 1.6c0 0 0 0-.1-.1 0-.3 0-.6 0-.9 0-.6 0-1.1 0-1.1s-.1.5-.3 1.1c0 .1 0 .2-.1.4 0-.2 0-.3 0-.5 0-.7-.1-1.2-.1-1.5v.1s0 0-.1-.1c0 .2-.1.8-.2 1.5 0 .3-.1.7-.1 1-.1-.7-.3-1.2-.3-1.2s0 .6 0 1.3c-.2-.9-.3-1.6-.3-1.6s0 .8 0 1.8c0-.1-.1-.2-.1-.3-.1-.4-.3-.8-.5-1.1s-.4-.5-.5-.7c-.1-.1-.1-.1-.2-.2 0 0-.1-.1-.1-.1s0 0 0 .1.1.1.1.2c.1.2.2.5.4.8.1.3.2.7.3 1.1.1.3.1.7.2 1h-.1c-.2-.4-.5-.8-.7-1s-.4-.3-.5-.4c-.1 0-.1-.1-.1-.1s-.1-.1-.1-.1c-.1-.1-.2-.1-.2-.1s.1.1.2.2c.1.2.2.4.4.6.1.3.3.6.4.9-.2-.4-.6-.8-.9-1.1-.2-.2-.3-.3-.5-.4-.1-.1-.2-.1-.2-.1s.1.1.1.2c.1.1.2.3.3.6l.3.6c-.2-.3-.5-.5-.8-.7-.2-.2-.5-.3-.5-.3-.1-.3-.3-.6-.4-.9-.2-.5-.4-.9-.4-.9s.1.5.2 1.1.3 1.3.5 1.8c0 0 0 .1.1.1-.1-.4-.4-.8-.5-1.2-.2-.4-.3-.7-.3-.7s0 .4 0 .8v.1c-.1-.1-.2-.3-.3-.4-.4-.7-.7-1.3-.7-1.3s.1.4.2.8c-.2-.1-.3-.2-.5-.3-.1-.1-.2-.1-.2-.1s.1.1.2.2.2.3.4.5c.1.2.3.4.4.7-.3-.3-.7-.5-1-.7-.2-.1-.4-.2-.6-.3 0 0 0 0-.1 0-.2-.4-.3-.6-.3-.6s.1.3.2.8c-.1-.1-.3-.1-.4-.1-.2 0-.2 0-.2 0s.1.1.2.2.3.2.5.4c.1.2.1.5.2.7-.3-.3-.6-.5-.8-.8-.3-.3-.6-.6-.6-.6s.2.4.5.9c.2.3.4.7.6 1h-.4c-.1-.2-.1-.3-.2-.5-.3-.5-.7-1.2-1-1.8-.1-.3-.3-.6-.4-.8s-.1-.3-.1-.3 0 .1.1.4c0 .2.1.6.2.9.2.7.5 1.6.8 2.1h-.2s0-.1-.1-.1c-.1-.1-.1-.3-.2-.4s-.1-.3-.2-.4c-.2-.3-.3-.6-.5-.8 0-.6-.2-1-.2-1s.1.5.3 1.1c0 .1 0 .2.1.2-.2-.2-.4-.4-.6-.5s-.4-.2-.6-.3c-.1-.1-.2-.1-.2-.1s.1.1.2.2.3.3.5.5c.1.1.1.1.2.2-.2-.1-.3-.2-.5-.3s-.4-.1-.5-.2c-.1 0-.2 0-.2 0s.1.1.2.1c.1.1.3.2.4.4.1.1.3.3.4.5-.2-.1-.5-.3-.8-.3-.2 0-.4 0-.5 0s-.2 0-.2 0 0 0 .1 0c-.1 0-.2 0-.3-.1 0 0 0 0-.1 0-.1-.3-.1-.7-.2-1-.1-.6-.2-1-.2-1s-.1.5-.1 1.1v.9h-.1c-.1 0-.2 0-.2 0s.1 0 .2.1h.1v.2c-.1 0-.2-.1-.3-.1-.1-.3-.3-.5-.4-.8s-.2-.6-.3-.8-.1-.3-.1-.3 0 .1 0 .4c0 .2.1.5.2.9.1.5.2 1 .4 1.4h-.3v-.1c0-.3-.1-.7-.2-1-.1-.4-.1-.7-.2-1.1-.1-.3-.2-.6-.3-.7s-.1-.1-.1-.1h-.1s0 0 0 .1c0 0 .1.1.1.2.1.2.1.4.2.8v.8s0-.1-.1-.1c-.2-.3-.4-.6-.7-.9-.2-.2-.4-.4-.6-.5-.1 0-.1-.1-.2-.1h-.1s0 0 .1.1c0 0 .1.1.2.2.1.2.3.4.5.7s.3.6.5 1c.1.3.3.7.4 1h-.2c0-.2-.1-.3-.1-.5-.2-.5-.6-1.1-1-1.5-.2-.2-.3-.3-.5-.4-.1-.1-.2-.1-.2-.1s.1.1.2.2.2.4.3.6c.2.4.4.9.6 1.3-.2-.2-.5-.5-.7-.6s-.4-.2-.5-.3-.2-.1-.2-.1.1.1.2.2c0 .1.1.1.2.2-.2-.2-.4-.3-.5-.4s-.3-.2-.4-.2c-.2-.4-.4-.7-.5-.8-.1-.4-.1-.6-.1-.6s0 .1 0 .3 0 .5-.1.8v.7c-.2-.2-.3-.4-.4-.5-.1-.2-.2-.3-.2-.3s0 .1.1.3.2.5.3.8c0 .1.1.2.2.3v.4c-.2-.2-.4-.5-.6-.8-.1-.2-.2-.3-.3-.5s-.1-.5-.2-.7c-.2-.7-.3-1.2-.3-1.2s0 .6 0 1.3c0 .4 0 .8.1 1.1-.2-.2-.3-.5-.5-.7-.2-.3-.4-.5-.5-.7s-.2-.3-.2-.3 0 .1.1.4c.1.2.2.5.3.9.2.5.4 1 .7 1.4h-.1c-.4-.5-1-1.2-1.4-1.8-.2-.3-.4-.6-.5-.8s-.2-.3-.2-.3.1.2.2.4.2.6.4.9c.2.5.6 1.1.9 1.6h-.3s0 0 0-.1c-.4-1.2-1.3-3-1.3-3s.1.5.3 1.2c0 0 0-.1-.1-.1-.1-.2-.3-.4-.4-.6-.1-.1-.2-.2-.2-.2s0 .1.1.3.1.4.2.7c.1.4.2 1 .3 1.4 0-.1-.1-.2-.1-.3-.1-.1-.1-.3-.2-.4-.3-.9-.6-1.8-.6-1.8s0 .3.1.7c-.3-.5-.5-.9-.5-.9s.4 1.6.8 2.6v.1h-.1c0-.1 0-.2-.1-.3-.1-.3-.2-.6-.4-.9s-.3-.6-.5-.8-.3-.4-.5-.5c-.1-.1-.2-.2-.2-.2s.1.1.1.3c0 .1.1.1.1.2-.1-.1-.1-.1-.2-.2s-.2-.2-.2-.2.1.1.2.3.2.4.4.7c0 0 0 .1.1.1-.1-.1-.2-.3-.3-.4-.2-.3-.4-.5-.6-.6-.1-.1-.2-.2-.2-.2s.1.1.2.3.3.5.4.8c0 .1.1.1.1.2-.2-.1-.3-.1-.4-.2-.1 0-.2 0-.2 0s.1.1.2.2.3.3.4.4c.2.2.4.6.6.9.1.2.1.3.2.5h-.1c0-.1-.1-.2-.2-.3-.2-.3-.4-.5-.6-.7-.1-.3-.3-.6-.4-.8s-.3-.3-.4-.4-.2-.1-.2-.1 0 .1.1.2.1.4.2.6v.1c-.1-.1-.3-.2-.4-.2 0-.1-.1-.2-.1-.2s0 .1 0 .2c0 0 0 0-.1 0-.1-.1-.2-.1-.2-.1s.1.1.2.2c0 0 .1.1.1.1v.3s0 0-.1 0c-.1-.1-.2-.1-.3-.1-.1-.3-.2-.5-.4-.7-.1-.2-.3-.4-.4-.5s-.2-.2-.2-.2 0 .1.1.3.1.4.2.7c.1.4.2.8.3 1.2-.1-.1-.2-.1-.3-.2-.1-.3-.3-.6-.4-.9s-.2-.5-.2-.7c-.1-.2-.1-.3-.1-.3s0 .1 0 .3v.3c-.3-.7-.5-1.2-.5-1.2s.1.7.2 1.4c-.1-.1-.1-.2-.1-.2s.1.4.3 1c-.2 0-.2 0-.2 0s.1.1.2.1c0 0 .1 0 .1.1v.1c0 .2.1.3.1.5v.1c-.1-.1-.3-.1-.4-.1v-.1c-.1-.4-.2-.9-.4-1.3s-.4-.9-.6-1.2-.4-.6-.6-.7c-.1-.1-.2-.1-.2-.1-.1 0-.1 0-.1 0s0 0 .1 0c0 0 .1.1.2.2.1.2.3.5.4.8.1.4.3.8.4 1.3.1.4.2.8.2 1.2h-.1s0 0 .1.1v.2c.2-.6 0-.6-.1-.6-.1-.3-.1-.6-.2-.9-.1-.4-.3-.8-.5-1.1s-.3-.6-.5-.7c-.1-.2-.2-.3-.2-.3s.1.1.2.3.2.5.3.9c-.1-.1-.2-.2-.2-.4-.2-.3-.4-.5-.5-.6s-.2-.2-.2-.2.1.1.2.3.2.5.4.8c.2.4.3.8.4 1.2-.2-.4-.5-.7-.7-.9s-.3-.3-.4-.4-.2-.1-.2-.1.1.1.1.2c.1.1.2.3.3.6.1.1.1.2.2.3-.2-.2-.3-.4-.5-.5-.2-.2-.4-.3-.5-.4s-.2-.1-.2-.1.1.1.2.2c.1.2.3.4.4.6s.2.4.3.5c-.2-.2-.4-.4-.6-.5-.3-.3-.6-.4-.6-.4s.2.3.5.7c.1.1.2.3.3.5-.2-.2-.4-.5-.6-.7-.1-.4-.2-.8-.2-.8s0 .2 0 .5c-.4-.4-.7-.7-.8-.8-.2-.5-.4-1-.4-1s.1.5.2 1.2c0 .1.1.3.1.5-.2-.4-.3-.6-.3-.6s.1.4.1.9c-.2-.4-.4-.8-.6-1.1s-.4-.5-.5-.7c-.1-.1-.2-.2-.2-.2s.1.1.2.3.2.5.4.8c.1.3.3.7.4 1.1 0 .1 0 .2.1.3-.2-.3-.4-.5-.7-.7-.1-.1-.3-.2-.4-.3-.1-.2-.2-.3-.3-.4s-.1-.2-.1-.2 0 .1.1.2v.2c-.1 0-.1-.1-.1-.1s0 .1.1.1c0 .1.1.2.1.3 0 .2.1.3.1.5-.1 0-.1-.1-.2-.1-.2-.1-.4-.2-.5-.2-.1-.2-.2-.3-.3-.4s-.1-.2-.1-.2 0 .1.1.3c0 .1 0 .2.1.3s0 0 0 0c0 .1.1.2.1.3s.1.3.1.4c-.1 0-.1-.1-.2-.1s-.2-.1-.2-.1c-.3-.7-.6-1.5-.7-1.7s0 0 0 0h-.1c0 .3.1.9.3 1.6-.1 0-.2 0-.2 0s.1.1.2.2c0 .2.1.4.1.6-.1-.2-.2-.5-.4-.7-.1-.3-.2-.6-.4-.8-.1-.3-.2-.6-.3-.8s-.1-.3-.1-.3 0 .1 0 .4c0 .2.1.5.2.9.1.3.1.6.2.9 0-.1-.1-.2-.1-.2-.2-.3-.3-.6-.5-.8s-.4-.4-.5-.5-.2-.2-.2-.2.1.1.2.3.2.4.3.7c.2.4.3.8.5 1.2 0 0 0-.1-.1-.1-.2-.3-.4-.6-.7-.8-.1-.4-.2-.7-.2-.7s0 .2-.1.5c-.1-.1-.1-.1-.2-.2-.2-.1-.3-.2-.5-.2 0-.1 0-.2 0-.3 0-.2 0-.3 0-.3s0 .1-.1.3c0 .1 0 .1-.1.2-.1 0-.1 0-.1 0s0 0 .1.1c0 .1-.1.2-.1.4 0 .1-.1.2-.1.3-.2-.1-.4-.2-.5-.3 0-.2-.1-.5-.1-.7 0-.4-.1-.7-.1-.9s0-.4 0-.4 0 .1-.1.4v.1s-.1.1-.1.2c-.1.1-.2.4-.2.6 0 .1-.1.3-.1.4 0-.1 0-.1 0-.2 0-.2 0-.4 0-.6 0-.1 0-.2 0-.2s0 .1-.1.2-.1.3-.2.5c0 .1-.1.1-.1.2-.1-.3-.2-.5-.3-.7s-.1-.3-.1-.3 0 .1.1.4c0 .1.1.3.1.5-.2-.5-.4-.9-.4-.9s.1.5.2 1.1c0 .2.1.3.1.5-.1-.3-.3-.5-.4-.8-.3-.5-.5-.8-.5-.8s.1.5.2 1c0 .1.1.3.1.5 0 0-.1-.1-.1-.1-.2-.3-.4-.5-.6-.7s-.4-.3-.5-.3c-.1-.1-.2-.1-.2-.1s.1.1.2.2.3.3.4.6c.2.3.4.8.6 1.2-.2-.4-.6-.7-.9-1 0-.1-.1-.2-.1-.3-.1-.3-.3-.5-.4-.7-.1-.1-.2-.2-.2-.2s0 .1.1.3c0 .2.1.4.2.6-.1 0-.1-.1-.1-.1-.1-.2-.2-.4-.3-.6-.2-.3-.3-.6-.4-.8s-.2-.3-.2-.3 0 .1.1.4c.1.2.2.5.3.9 0 .1 0 .2.1.2-.1 0-.2-.1-.2-.1s.1.1.2.2c0 0 0 0 .1.1.1.3.1.5.2.8h-.1c-.1-.1-.1-.3-.2-.4-.2-.5-.4-.9-.4-.9s.1.4.2 1v.2c-.1 0-.1 0-.2 0h-.1c0-.2 0-.4 0-.6 0-.5-.1-1-.1-1.3h.1s0 0-.1-.1c0 .2-.1.7-.2 1.3-.1.4-.1.9-.1 1.3 0-.4-.1-.8-.1-1.2s-.1-.7-.1-.9c0-.1 0-.2.1-.2h.1s0 0-.1-.1h-.1s-.1.1-.1.2c0 .3-.1.6-.1 1v1c-.1-.3-.1-.6-.2-.9s-.1-.6-.1-.8 0-.3 0-.3 0 .1 0 .3-.1.5-.1.8v1.1c-.1-.4-.2-.7-.4-1.1s-.4-.8-.7-1c-.2-.3-.4-.5-.6-.6-.1-.1-.1-.1-.2-.1h-.1s0 0 .1.1c0 .1.1.1.2.2.1.2.3.5.5.8s.3.7.5 1.1c0 .1.1.2.1.3 0 0 0 0 0-.1-.2-.3-.4-.5-.6-.7-.7-.3-.9-.5-1-.5-.1-.1-.2-.1-.2-.1s.1.1.2.2.3.4.4.6c.3.5.6 1.1.8 1.6h-.1c-.1-.2-.2-.4-.3-.7-.3-.5-.7-.9-1-1.3 0-.1 0-.1 0-.1s0 0 0 .1c-.1-.1-.2-.2-.3-.3 0 0 0-.1-.1-.1-.2-.6-.3-1-.3-1s0 .4.1.8c-.1-.1-.3-.2-.3-.2-.2-.1-.3-.1-.3-.1s.1.1.2.2.3.3.4.5v.3c0-.1-.1-.1-.1-.2-.1-.2-.3-.4-.3-.5s-.1-.1-.1-.1 0 0 0 .1c0 0 0 .1.1.2.1.2.1.4.2.6v.2h-.1c-.1-.5-.2-.9-.2-.9s0 .3 0 .8c-.1-.2-.2-.3-.3-.5-.3-.5-.6-.8-.6-.8s.2.4.4 1c-.1-.2-.3-.4-.4-.5-.2-.2-.4-.4-.5-.5-.3-.3-.3-.3-.3-.3s.1.1.2.3.2.4.4.7.3.7.5 1.1c-.2-.2-.3-.4-.5-.5-.2-.4-.4-.6-.4-.6s0 .2.1.4c-.2-.1-.3-.2-.5-.3-.1-.2-.2-.3-.2-.4-.1-.1-.1-.2-.1-.2s0 .1.1.2c0 .1 0 .1.1.2 0-.1-.1-.2-.1-.3-.2-.3-.3-.6-.4-.8s-.2-.3-.2-.3 0 .1.1.4c.1.2.2.5.3.9.1.2.1.5.1.7-.1-.2-.1-.3-.2-.5-.2-.3-.3-.5-.4-.7-.1-.1-.2-.2-.2-.2s.1.1.1.3c.1.2.2.5.3.8 0 .1 0 .1.1.2-.2-.1-.4-.1-.5-.2 0-.1-.1-.1-.1-.2-.2-.3-.5-.6-.7-.8s-.4-.4-.6-.5-.3-.1-.3-.1.1.1.2.2c.1.2.3.4.5.7s.4.6.5.9c.2.3.3.7.4 1 .2.4.3.7.4.9h-.4c0-.2-.1-.5-.2-.9-.3-.6-.7-1.3-1.1-1.7-.2-.2-.4-.4-.5-.5-.6-.2-.7-.2-.7-.2s.1.1.2.3.3.4.4.7c.1.1.1.2.2.3-.1-.1-.1-.1-.2-.1-.2-.2-.3-.3-.5-.4-.1-.1-.2-.1-.2-.1s.1.1.2.2.2.3.4.6c.3.5.6 1 .8 1.5.1.1.2.3.2.4h-.4c0-.2-.1-.4-.2-.6-.3-.6-.7-1.3-1.1-1.7-.2-.2-.4-.4-.5-.5s-.2-.2-.2-.2.1.1.2.3.3.4.4.7c.2.4.4.8.6 1.3-.2-.2-.4-.4-.6-.5-.3-.2-.5-.2-.5-.2s.2.3.4.5c.2.3.4.7.6.9v.1h-.3c0-.1-.1-.1-.1-.2-.1-.1-.2-.2-.3-.3-.3-1-.8-2.2-.8-2.2s.1.7.2 1.6c-.5-.6-1-1-1-1s.4.8.9 1.5c-.7-1.1-1.7-2.3-1.7-2.3s.4.9.8 1.8c-.3-.4-.5-.8-.8-1.1-.3-.5-.6-.8-.6-.8s.2.5.4 1.1c.1.1.1.2.2.4-.1-.1-.2-.2-.3-.3-.4-.4-.7-.7-.7-.7s.2.4.5 1l.3.6c-.2-.3-.5-.6-.7-.8s-.4-.3-.5-.4-.2-.2-.2-.2.2.4.5.9.6 1.1.8 1.5h-.1c0-.1-.1-.1-.1-.2-.5-.8-1.4-1.8-1.4-1.8s.2.5.4 1c-.2-.3-.4-.7-.6-1.1 0-.5-.1-.7-.2-.8 0-.2-.1-.3-.1-.3s0 .1 0 .3 0 .4.1.7.1.6.2.9.2.6.4.8c.1.1.1.2.2.2h-.2c0-.1 0-.1-.1-.2-.2-.3-.4-.6-.6-.9s-.3-.6-.3-.6 0 .3.1.7c.1.3.1.6.3.9h-.4-.1v.2 24.2.1h.1zm-97.1-25.9c0 .1 0 .1.1.2 0 .2.1.4.1.6-.1-.1-.1-.1-.2-.2-.1-.3-.2-.6-.3-.9 0 0 .1.1.1.1.1.1.1.1.2.2zm6.3 1.5h-.1v-.1s0 .1.1.1zm4-.4c0-.1 0-.1 0 0zm21.2-1.3s.1 0 0 0c.1.4.2.8.3 1.1 0 0-.1-.1-.1-.1 0-.4-.1-.7-.2-1zm11.1 1.5c0-.1-.1-.1 0 0 0 0 .1.1.2.2h-.1c-.1-.1-.1-.2-.1-.2zm-34.6.2h-.1v-.1s.1.1.1.1zm52.8 0c0-.1 0-.1 0 0zm-42.4-.5c0-.1 0-.1-.1-.2-.2-.4-.4-1-.6-1.5.2.3.4.7.7 1.1-.1.2 0 .4 0 .6zm-6.9.5c0-.1 0-.3 0-.4.1.2.2.3.3.4zm-10.6 0c0-.1 0-.1 0-.2 0 .1.1.1.1.2zm90.2-.4c0-.2-.1-.4-.1-.5.1.1.2.3.2.4.1.2.2.4.4.6-.1 0-.3 0-.4 0 0-.2 0-.4-.1-.5zm-2.6.3c-.1-.2-.2-.5-.3-.7.1.3.3.5.4.8 0 0-.1 0-.1-.1zm-2.3-.2c0-.1 0-.3 0-.5v.1c.1.2.2.4.3.6-.1 0-.2 0-.3 0 0 0 0-.1 0-.2zm-6.5.2c-.1-.2-.2-.4-.3-.6.2.2.3.4.3.6zm-3.2-.8c.1.3.2.6.3.8h-.4c0-.1 0-.3 0-.5s-.1-.5-.1-.7c.1.1.1.2.2.4zm-1.2.7c0 .1.1.1 0 0 0 .1 0 .1 0 0zm-3-.3c.1.1.2.3.2.5h-.4v-.1c0-.2 0-.3 0-.5.1-.1.2 0 .2.1zm-17.2.3c0 .1 0 .1.1.2h-.3c0-.3-.1-.7-.1-1.1.1.3.2.6.3.9zm-4.8-1.6c.1.1.3.3.4.5.3.3.5.8.7 1.2-.2-.2-.6-.3-.8-.4 0-.4-.1-.7-.2-1-.1-.2-.1-.3-.1-.3zm-.9 1.1s0 .1 0 0zm-4.3.1c-.1-.2-.2-.3-.2-.5.1.1.2.3.2.5.2.2.3.3.4.5h-.3c.1-.1 0-.3-.1-.5zm-3-.9c-.1 0-.1 0 0 0-.1-.1-.1-.1-.1-.1s0 .1.1.1zm-5.3.8c.3.2.6.4.9.6h-.1s-.1-.1-.1-.1c-.2-.2-.5-.3-.7-.4 0 0 0 0 0-.1zm-.5.5c0-.1 0-.1 0 0zm-3.4.2h-.4c0-.1-.1-.3-.1-.5-.1-.2-.1-.3-.2-.5.3.3.5.7.7 1zm-1.4-1.8c0-.1 0-.1 0-.2s0-.1 0-.2zm-.9 1.2.3.6h-.1c0-.1-.1-.1-.1-.2-.1-.1-.1-.3-.1-.4zm-6-.8.2.2c.1.1.2.2.2.3-.1-.1-.2-.2-.3-.2-.1-.1-.1-.2-.1-.3zm-.1.7c0 .2.1.4.1.6 0 0 0 0-.1-.1 0-.1 0-.2-.1-.3 0-.1-.1-.3-.2-.5.1.1.2.2.3.3zm-2.7.7h-.1c0-.1 0-.2 0-.2s.1.1.1.2zm-5.5-1.2c.1.1.1.2.2.4 0 0-.1-.1-.1-.1-.1-.1-.1-.2-.1-.3zm-1-.1c.1.1.1.1.2.2s.3.3.4.5v.3.1c-.1-.1-.3-.2-.4-.3 0-.4-.1-.6-.2-.8zm-.2 1v.2c0-.2-.1-.2-.2-.3 0-.1-.1-.2-.1-.3.1.1.2.2.3.4zm-1.2.3c-.1 0-.1-.1 0 0-.1-.1-.1 0 0 0zm-1.2-.2c0 .1.1.1.1.2h-.2c0-.1 0-.2 0-.3 0 0 .1.1.1.1zm-.8-1.3c.1.1.2.3.3.4v.4c-.2-.2-.4-.4-.6-.5 0-.2 0-.3 0-.5 0-.1 0-.2 0-.3 0 .2.1.4.3.5zm-.8.5v.7c-.1-.1-.1-.2-.2-.2 0-.3-.1-.6-.1-1 0 .1.1.3.3.5zm-.8-1.2c0-.3.1-.6.1-.8 0 .2 0 .4-.1.7v1.2c0-.4 0-.8 0-1.1zm-3 .7c.1.1.1.1 0 0zm-.3.6c0 .2.1.4.1.6v.2c0-.3-.1-.6-.1-.8-.1 0-.1 0 0 0zm-.9-.6s.1.1 0 0c.1.1.2.1.3.2 0 .3.1.6.1.9-.1-.1-.3-.1-.4-.2.1-.3 0-.6 0-.9zm-4.2.4s0-.1-.1-.1c0 0 0 0 0-.1.1.1.1.2.1.2zm-3.4-.2c-.1-.2-.2-.3-.2-.5.1.1.2.1.3.2l.2.2c0 .1 0 .2.1.3.1.4.1.7.1 1h-.2s0-.1 0-.2-.1-.5-.3-1z" clip-path="url(#b)"/><path fill="#fff" d="m55.5 10.1-46 27.3.1 53.4 46 26.6 46.1-26.6-.1-54.1zm44.4 79.6-44.2 25.5-44.2-25.5-.1-51.2 44.2-26.2 44.2 25.5z"/><path fill="#0e2947" d="m66.6 117.2 1.6-.9.1.1c.2.3.3.6.3.8v.8c-.1.6-.5 1.1-1 1.4s-1.1.4-1.7.2-1.1-.5-1.4-1.1c-.3-.5-.4-1.1-.2-1.7s.5-1.1 1.1-1.4c.3-.2.6-.3.9-.3s.7 0 1.1.2l-.2.6c-.5-.2-1-.2-1.5 0-.4.2-.7.6-.8 1s-.1.8.2 1.3c.2.4.6.7 1.1.8.4.1.8 0 1.1-.2s.5-.4.6-.7.1-.6 0-.9l-.9.5z"/><path fill="#0e2947" d="m70.2 112.8h.7v4.4h-.7z" transform="matrix(.8665 -.4992 .4992 .8665 -48.0055 50.572)"/><path fill="#0e2947" d="m73.3 111.6 1.9 3.3-.6.3-1.9-3.2-.8.5-.3-.6 2.3-1.3.3.5z"/><path fill="#0e2947" d="m78.5 108.2.4.7c-.5-.1-.9 0-1.3.2s-.6.6-.7 1 0 .9.2 1.3.6.7 1 .8.8.1 1.2-.2c.2-.1.4-.2.5-.4.1-.1.1-.2.2-.3s.1-.2.2-.4l.4.7c-.2.4-.5.7-.9.9-.5.3-1.1.4-1.7.2s-1.1-.5-1.4-1-.4-1-.3-1.6c.1-.7.5-1.2 1.1-1.6.3-.2.6-.3 1.1-.3"/><path fill="#fff" d="m81.2 108c-.3-.5-.4-1.1-.2-1.7s.5-1.1 1.1-1.4c.5-.3 1.1-.4 1.7-.2s1.1.5 1.4 1.1c.3.5.4 1.1.2 1.7s-.5 1.1-1.1 1.4c-.5.3-1 .4-1.6.3-.6-.2-1.1-.5-1.5-1.2m.6-.3c.2.4.6.7 1 .8s.8.1 1.2-.2c.4-.2.7-.6.8-1s.1-.9-.2-1.3c-.2-.4-.6-.7-1-.8s-.8-.1-1.2.2c-.4.2-.6.6-.8 1-.1.5 0 .9.2 1.3"/><path fill="#0e2947" d="m87.2 103.1h.7v4.4h-.7z" transform="matrix(.8663 -.4995 .4995 .8663 -40.874 57.7872)"/><path fill="#0e2947" d="m91.1 105.7-2.3-4 4.4 1.3-1.5-2.7.6-.3 2.3 4-4.4-1.3 1.5 2.7z"/><g fill="#fff"><path d="m18.2 24.6 1.9 3.4-.6.4-.8-1.5-1.6.9.8 1.5-.6.4-1.9-3.4.6-.4.8 1.4 1.6-.9-.8-1.4z"/><path d="m19.5 25.5c.1-.4.4-.7.8-.9.1-.1.3-.1.4-.1h.4c.1 0 .2.1.3.2l.3.3.9 1.5-.3.1c-.1 0-.1 0-.1 0s-.1 0-.1-.1l-.1-.1c0 .1-.1.2-.1.2 0 .1-.1.1-.1.2s-.1.1-.2.2-.1.1-.2.2-.2.1-.3.1-.2 0-.3 0-.2-.1-.3-.1c-.1-.1-.2-.1-.2-.3 0-.1-.1-.1-.1-.2s0-.1 0-.2 0-.2.1-.3c0-.1.1-.2.2-.3l.3-.3c.1-.1.3-.2.5-.3l-.1-.1c-.1-.2-.2-.3-.3-.3s-.2 0-.4.1c-.1.1-.2.1-.2.2s-.1.1-.1.2-.1.1-.1.1-.1.1-.1.1h-.1-.1zm1.9.3c-.2.1-.3.2-.4.3s-.2.2-.2.2c0 .1-.1.1-.1.2v.2c.1.1.1.2.2.2s.2 0 .3-.1.2-.1.3-.2.1-.2.1-.3z"/><path d="m22.4 23.8c0-.2.1-.3.2-.5.1-.1.2-.3.4-.4.1-.1.3-.1.4-.1s.3 0 .4.1.3.1.4.3c.1.1.2.3.4.5.1.2.2.4.2.5v.5c0 .2-.1.3-.2.4s-.2.2-.4.3c-.1.1-.3.1-.4.1s-.2 0-.4 0l.6 1-.5.5-1.8-3.2.4-.2h.2zm.9 1.5c.1 0 .2.1.3 0 .1 0 .2 0 .3-.1.1 0 .2-.1.2-.2.1-.1.1-.2.1-.3s0-.2 0-.3-.1-.2-.2-.4c-.1-.1-.2-.3-.2-.3-.1-.1-.2-.1-.2-.2-.1 0-.2-.1-.2 0-.1 0-.2 0-.2.1-.1.1-.2.2-.3.2-.1.1-.1.2-.1.3z"/><path d="m25.1 22.3c0-.2.1-.3.2-.5.1-.1.2-.3.4-.4.1-.1.3-.1.4-.1s.3 0 .4.1.3.1.4.3c.1.1.2.3.4.5.1.2.2.4.2.5v.5c0 .2-.1.3-.2.4s-.2.2-.4.3c-.1.1-.3.1-.4.1s-.2 0-.4 0l.6 1-.6.3-1.8-3.2.4-.2h.2zm.8 1.5c.1 0 .2.1.3 0 .1 0 .2 0 .3-.1.1 0 .2-.1.2-.2.1-.1.1-.2.1-.3s0-.2 0-.3-.1-.2-.2-.4c-.1-.1-.2-.3-.2-.3-.1-.1-.2-.1-.2-.2-.1 0-.2-.1-.2 0-.1 0-.2 0-.2.1-.1.1-.2.2-.3.2-.1.1-.1.2-.1.3z"/><path d="m29.1 19.6.4 3.8v.1s-.1.1-.1.1l-.4.3-.1-1.2-2.3-1.7.5-.3h.1s.1 0 .1 0l1.2.9s.1.1.1.1.1.1.1.1c0-.1 0-.1 0-.2s0-.1 0-.2l-.2-1.5v-.1s0-.1.1-.1z"/><path d="m33.3 18.7.2.3v.1s0 .1-.1.1l-.3.2.5.8-.5.3-.5-.8-1.4.8h-.1s-.1 0-.1-.1l-.2-.3.4-3 .5-.3 1.2 2.1zm-.9.5-.6-1.1c-.1-.1-.1-.2-.2-.4l-.2 2z"/><path d="m35.2 19.3c-.2.1-.4.2-.6.1s-.3-.2-.4-.4l-.8-1.3-.2.1h-.1s-.1 0-.1-.1l-.1-.2.3-.3-.2-.7v-.1s0-.1.1-.1l.3-.2.4.8.6-.4.2.4-.6.4.7 1.3c0 .1.1.1.2.1h.2s.1 0 .1-.1c0 0 0 0 0-.1 0 0 0 0 0-.1h.1l.3.2c0 .1-.1.2-.2.3.1.2 0 .3-.2.4z"/><path d="m35.5 16.3c0-.1.1-.3.2-.4s.2-.2.3-.3.3-.1.4-.1h.4c.1 0 .2.1.3.2s.2.2.3.3l.9 1.5-.6.3-.9-1.5c-.1-.1-.2-.2-.3-.3-.1 0-.2 0-.4.1-.1.1-.2.1-.2.2-.1.1-.1.2-.1.3l1 1.7-.6.3-2-3.4.6-.3z"/><path d="m40.4 14.7c.1.2.2.4.2.6v.5c0 .2-.1.3-.2.4s-.2.3-.4.4c-.1 0-.2.1-.3.1s-.2.1-.3.1c0-.1-.1-.1-.1-.2s-.1-.1-.1-.2v-.1s0-.1.1-.1h.1s.1 0 .2-.1.2-.1.2-.2c.1-.1.1-.1.1-.2s0-.2 0-.3-.1-.2-.2-.3l-1.2-2.2.6-.4z"/><path d="m42.4 12 1.4 2.4-.4.2c-.1 0-.1 0-.2 0l-.2-.2c0 .2-.1.3-.2.4s-.2.2-.4.3c-.1.1-.3.1-.4.1s-.2 0-.4 0-.2-.1-.3-.2-.2-.2-.3-.3l-.9-1.5.6-.3.9 1.5c.1.1.2.2.3.3.1 0 .2 0 .4-.1.1-.1.2-.1.2-.2.1-.1.1-.2.1-.3l-1-1.7z"/><path d="m42.9 10.2 2 3.4-.6.4-2-3.4z"/><path d="m46.3 9.7.4 3.8v.1s0 .1-.1.1l-.4.3-.1-1.2-2.2-1.6.5-.3h.1.1l1.2.9s.1.1.1.1.1.1.1.1c0-.1 0-.1 0-.2s0-.1 0-.2l-.2-1.5v-.1s0-.1.1-.1z"/><path d="m12.1 29.2.6.6.7-.4-.3.8.5.6-.8-.2-.4.7-.1-.8-.8-.1.7-.4z"/><path d="m49.4 7.9.6.6.7-.3-.4.7.6.6-.8-.2-.4.8-.1-.8-.8-.2.7-.3z"/></g></g></switch></svg>