<svg xmlns="http://www.w3.org/2000/svg" xmlns:xlink="http://www.w3.org/1999/xlink" enable-background="new 0 0 110.9 128" viewBox="0 0 110.9 128"><defs><path id="a" d="m101.5 37.4v53.1l-46 26.6-46-26.6v-53.1l46-26.6z"/><clipPath id="b"><use xlink:href="#a"/></clipPath><linearGradient id="c"><stop offset="0" stop-color="#ff0013"/><stop offset="1" stop-color="#0082ff"/></linearGradient><linearGradient id="d" x1="2.642" x2="105.63" y1="63.945" y2="63.945" gradientUnits="userSpaceOnUse" xlink:href="#c"/><linearGradient id="e" x1="47.113" x2="61.16" y1="63.945" y2="63.945" gradientUnits="userSpaceOnUse" xlink:href="#c"/><linearGradient id="f" x1="42.779" x2="65.493" y1="63.945" y2="63.945" gradientUnits="userSpaceOnUse" xlink:href="#c"/><linearGradient id="g" x1="32.803" x2="75.469" y1="63.945" y2="63.945" gradientUnits="userSpaceOnUse" xlink:href="#c"/><linearGradient id="h" x1="23.324" x2="84.949" y1="63.945" y2="63.945" gradientUnits="userSpaceOnUse" xlink:href="#c"/><linearGradient id="i" x1="14.981" x2="93.292" y1="60.985" y2="60.985" gradientUnits="userSpaceOnUse" xlink:href="#c"/><linearGradient id="j" x1="36.811" x2="38.075" y1="62.316" y2="62.316" gradientUnits="userSpaceOnUse" xlink:href="#c"/><linearGradient id="k" x1="29.984" x2="37.788" y1="63.081" y2="63.081" gradientUnits="userSpaceOnUse" xlink:href="#c"/><linearGradient id="l" x1="23.77" x2="37.861" y1="65.373" y2="65.373" gradientUnits="userSpaceOnUse" xlink:href="#c"/><linearGradient id="m" x1="20.255" x2="37.794" y1="69.082" y2="69.082" gradientUnits="userSpaceOnUse" xlink:href="#c"/><linearGradient id="n" x1="37.752" x2="48.09" y1="63.733" y2="63.733" gradientUnits="userSpaceOnUse" xlink:href="#c"/><linearGradient id="o" x1="37.681" x2="53.382" y1="66.524" y2="66.524" gradientUnits="userSpaceOnUse" xlink:href="#c"/><linearGradient id="p" x1="37.82" x2="55.659" y1="70.801" y2="70.801" gradientUnits="userSpaceOnUse" xlink:href="#c"/><linearGradient id="q" x1="37.777" x2="42.128" y1="62.574" y2="62.574" gradientUnits="userSpaceOnUse" xlink:href="#c"/><linearGradient id="r" x1="31.444" x2="37.681" y1="79.86" y2="79.86" gradientUnits="userSpaceOnUse" xlink:href="#c"/><linearGradient id="s" x1="25.948" x2="38.061" y1="77.802" y2="77.802" gradientUnits="userSpaceOnUse" xlink:href="#c"/><linearGradient id="t" x1="21.016" x2="38.122" y1="74.314" y2="74.314" gradientUnits="userSpaceOnUse" xlink:href="#c"/><linearGradient id="u" x1="37.772" x2="45.577" y1="79.263" y2="79.263" gradientUnits="userSpaceOnUse" xlink:href="#c"/><linearGradient id="v" x1="37.56" x2="53.023" y1="76.13" y2="76.13" gradientUnits="userSpaceOnUse" xlink:href="#c"/><linearGradient id="w" x1="37.807" x2="39.273" y1="79.911" y2="79.911" gradientUnits="userSpaceOnUse" xlink:href="#c"/><linearGradient id="x" x1="77.811" x2="79.075" y1="42.316" y2="42.316" gradientUnits="userSpaceOnUse" xlink:href="#c"/><linearGradient id="y" x1="70.984" x2="78.788" y1="43.081" y2="43.081" gradientUnits="userSpaceOnUse" xlink:href="#c"/><linearGradient id="z" x1="64.77" x2="78.861" y1="45.373" y2="45.373" gradientUnits="userSpaceOnUse" xlink:href="#c"/><linearGradient id="A" x1="61.255" x2="78.794" y1="49.082" y2="49.082" gradientUnits="userSpaceOnUse" xlink:href="#c"/><linearGradient id="B" x1="78.752" x2="89.09" y1="43.733" y2="43.733" gradientUnits="userSpaceOnUse" xlink:href="#c"/><linearGradient id="C" x1="78.681" x2="94.382" y1="46.524" y2="46.524" gradientUnits="userSpaceOnUse" xlink:href="#c"/><linearGradient id="D" x1="78.82" x2="96.659" y1="50.801" y2="50.801" gradientUnits="userSpaceOnUse" xlink:href="#c"/><linearGradient id="E" x1="78.777" x2="83.128" y1="42.574" y2="42.574" gradientUnits="userSpaceOnUse" xlink:href="#c"/><linearGradient id="F" x1="72.444" x2="78.681" y1="59.86" y2="59.86" gradientUnits="userSpaceOnUse" xlink:href="#c"/><linearGradient id="G" x1="66.948" x2="79.061" y1="57.802" y2="57.802" gradientUnits="userSpaceOnUse" xlink:href="#c"/><linearGradient id="H" x1="62.016" x2="79.122" y1="54.314" y2="54.314" gradientUnits="userSpaceOnUse" xlink:href="#c"/><linearGradient id="I" x1="78.772" x2="86.577" y1="59.263" y2="59.263" gradientUnits="userSpaceOnUse" xlink:href="#c"/><linearGradient id="J" x1="78.56" x2="94.023" y1="56.13" y2="56.13" gradientUnits="userSpaceOnUse" xlink:href="#c"/><linearGradient id="K" x1="78.808" x2="80.273" y1="59.911" y2="59.911" gradientUnits="userSpaceOnUse" xlink:href="#c"/><clipPath id="L"><use xlink:href="#R"/></clipPath><clipPath id="M"><use xlink:href="#S"/></clipPath><clipPath id="N"><use xlink:href="#T"/></clipPath><clipPath id="O"><use xlink:href="#U"/></clipPath><clipPath id="P"><use xlink:href="#V"/></clipPath><clipPath id="Q"><path d="m55.5 117.1 36.2-22.9-6.8-16.6-51.3-5.4-16.6 1.5 6 24.7z"/></clipPath><path id="R" d="m85.2 34.1-1.9 2.7-1-.6 1.9-2.8z"/><path id="S" d="m93.3 60.3-1.2 3.1 1 .5 1.4-3.1z"/><path id="T" d="m15.4 44.8 3.6 4.9 1.7-1-3.3-5.1z"/><path id="U" d="m71.7 64.4c-2.6-5-6.9-.7-6.9-.7s-4.6-3.5-7 1.5 7.4 10.2 7.4 10.2 9.1-5.9 6.5-11zm-6.5 9.3s-8.9-4-5.6-9.1c0 0 2.7-3.3 5.3 1.3 0 0 2-4.8 4.8-1.8 2.8 2.9-.3 6.4-4.5 9.6z"/><path id="V" d="m54.2 64.4c-2.6-5-6.9-.7-6.9-.7s-4.6-3.5-7 1.5 7.4 10.2 7.4 10.2 9.1-5.9 6.5-11zm-6.5 9.3s-8.9-4-5.6-9.1c0 0 2.7-3.3 5.3 1.3 0 0 2-4.8 4.8-1.8 2.7 2.9-.4 6.4-4.5 9.6z"/></defs><switch><g><path fill="#21409a" d="m110.8 32v64l-55.4 32-44.3-25.6-.2-.1-10.9-6.3v-64l55.4-32z"/><use fill="#fff" xlink:href="#a"/><g clip-path="url(#b)" opacity=".7"><circle cx="54.1" cy="63.9" r="51.5" fill="url(#d)" opacity=".13"/><circle cx="54.1" cy="63.9" r="7" fill="url(#e)" opacity=".13"/><circle cx="54.1" cy="63.9" r="11.4" fill="url(#f)" opacity=".13"/><circle cx="54.1" cy="63.9" r="21.3" fill="url(#g)" opacity=".13"/><circle cx="54.1" cy="63.9" r="30.8" fill="url(#h)" opacity=".13"/><path fill="url(#i)" d="m74.9 97.2c11-7 18.4-19.2 18.4-33.3 0-21.6-17.5-39.2-39.2-39.2s-39.1 17.6-39.1 39.2c0 13.8 7.6 26.3 18.3 33.2z" opacity=".13"/></g><path fill="#fff" d="m36.9 114.6 16.3-50.3-19.9 49zm-16.2-8.6 32.5-41.7-35.5 39.3zm-6.8-6.3 39.3-35.5-41.7 32.6zm14.5 11.3 24.8-46.8-28.1 44.8zm-24.2-26.9 49-19.9-50.3 16.3zm-2.7-8.8 51.7-11.1-52.4 7.3zm44.4 41.4 7.3-52.4-11.1 51.7zm-37.5-24.3 44.8-28.1-46.8 24.7zm64.7 20.9-19.9-49 16.3 50.3zm30.4-32.8-50.3-16.2 49 19.9zm-3.6 8.5-46.7-24.7 44.8 28.1zm-44.8 28.1-1.9-52.9-1.9 52.9zm39.8-20.3-41.7-32.5 39.3 35.5zm10.7-25.3-52.4-7.3 51.7 11.1zm-41.3 44.5-11.1-51.7 7.3 52.4zm24.4-12.5-35.5-39.2 32.5 41.7zm-88.4-37.3 52.9-1.9-52.9-2zm81 42.9-28.1-44.8 24.8 46.7zm-74.9-69.6 46.8 24.8-44.8-28.2zm86.1-10.7-39.3 35.5 41.7-32.5zm-6.8-6.3-32.5 41.8 35.5-39.3zm12.3 13.6-44.8 28.2 46.8-24.8zm-20-18.6-24.8 46.8 28.1-44.8zm-8.5-3.6-16.3 50.4 19.9-49zm32.7 30.5-49 19.9 50.3-16.3zm3.9 17.9-52.9 1.9 52.9 1.9zm-1.2-9.1-51.7 11.1 52.4-7.3zm-53.6-41.8 1.9 52.9 1.9-52.9zm-39.8 20.3 41.7 32.5-39.3-35.4zm6.2-6.7 35.5 39.3-32.5-41.8zm7.4-5.6 28.1 44.8-24.8-46.7zm35.4-7.5-7.3 52.4 11.1-51.7zm-57.6 36.1 50.3 16.3-49-19.9zm-2.1 9 52.4 7.3-51.7-11.1zm41.3-44.5 11.1 51.7-7.3-52.4zm-8.8 2.7 19.9 49-16.3-50.3z" clip-path="url(#b)" opacity=".13"/><g clip-path="url(#b)"><g opacity=".13"><path fill="url(#j)" d="m36.8 53.4 1 17.8.3-17.7z"/><path fill="url(#k)" d="m30 55.3 7.8 16-6.6-16.4z"/><path fill="url(#l)" d="m23.8 60.3 14.1 11-13.2-11.8z"/><path fill="url(#m)" d="m20.3 68 17.5 3.3-17.1-4.5z"/><path fill="url(#n)" d="m48.1 56.8-10.3 14.5 9.2-15.1z"/><path fill="url(#o)" d="m53.4 62.8-15.7 8.5 14.9-9.5z"/><path fill="url(#p)" d="m55.7 71.3-17.9.3 17.7-1.6z"/><path fill="url(#q)" d="m40.9 53.8-3.1 17.6 4.3-17.2z"/><path fill="url(#r)" d="m31.4 88.1 6.3-16.7-5 17z"/><path fill="url(#s)" d="m25.9 84 12.2-13.1-11.1 13.8z"/><path fill="url(#t)" d="m21 76.3 17.1-5.1-16.6 6.2z"/><path fill="url(#u)" d="m45.6 87.1-7.8-16.1 6.6 16.5z"/><path fill="url(#v)" d="m53 80.1-15.4-8.9 14.6 9.9z"/><path fill="url(#w)" d="m38 88.8-.2-17.8 1.5 17.6z" opacity=".13"/></g><path fill="#fff" d="m35.8 49.6-1.3.9.5 1.4-1.4-.8-1.1.9.5-1.5-1.4-.7 1.7-.2.1-1.5.9 1.5z"/><ellipse cx="34.3" cy="53.6" fill="#95bdcb" rx=".8" ry=".8" transform="matrix(.08258034 -.9966 .9966 .08258034 -21.943 83.3945)"/><circle cx="35.3" cy="47.8" r=".4" fill="#db1d38"/><circle cx="25.7" cy="55.3" r=".4" fill="#db1d38"/><circle cx="27.1" cy="53.4" r=".4" fill="#95bdcb"/><path fill="#fff" d="m26.5 80.1-1.3.8.6 1.5-1.4-.9-1.1 1 .4-1.6-1.4-.6 1.7-.3.2-1.5.8 1.5z"/><path fill="#dbe8ed" d="m50.8 86.2-1.3.8.6 1.5-1.5-.9-1 1 .4-1.6-1.4-.6 1.7-.3.2-1.4.8 1.5z"/><path fill="#fff" d="m52.8 58.7-1.3.9.6 1.4-1.4-.8-1.1.9.4-1.5-1.3-.7 1.6-.2.2-1.5.9 1.5z"/><path fill="#fff" d="m27.9 50.1-1 .6.4 1.1-1-.7-.8.7.3-1.1-1-.5 1.2-.2.2-1.1.6 1.1z"/><path fill="#fff" d="m56 55.5-1 .6.4 1.1-1-.6-.8.7.3-1.2-1-.5 1.2-.2.2-1 .6 1.1z"/><path fill="#dbe8ed" d="m57.6 73.5-1 .7.4 1-1-.6-.8.7.3-1.2-1-.4 1.2-.2.2-1.1.6 1.1z"/><g fill="#fff"><path d="m21.8 62.8-1 .6.4 1.1-1-.7-.8.7.3-1.1-1-.5 1.2-.2.1-1.1.7 1.1z"/><path d="m24.4 85.2-1 .6.4 1.1-1-.6-.8.7.3-1.2-1-.5 1.2-.1.2-1.1.6 1.1z"/><path d="m58.8 67.3-1 .6.4 1.1-1-.7-.8.7.3-1.1-1-.5 1.2-.2.2-1.1.6 1.1z"/><path d="m36.3 89-.9.7.4 1-1.1-.6-.7.7.3-1.2-1.1-.4 1.3-.2.1-1.1.6 1.1z"/></g><path fill="#dbe8ed" d="m51.2 53.7-1 .6.4 1.1-1-.6-.8.7.3-1.2-1-.5 1.2-.2.2-1 .6 1.1z"/><ellipse cx="22.8" cy="64.1" fill="#95bdcb" rx=".8" ry=".8" transform="matrix(.08258034 -.9966 .9966 .08258034 -43.0191 81.5407)"/><circle cx="20.9" cy="60.2" r=".4" fill="#db1d38"/><circle cx="47.8" cy="51.7" r=".4" fill="#db1d38"/><circle cx="54.5" cy="59.2" r=".4" fill="#95bdcb"/><circle cx="52.7" cy="53.5" r=".2" fill="#db1d38"/><circle cx="51.9" cy="55.7" r=".2" fill="#95bdcb"/><circle cx="25" cy="52.5" r=".2" fill="#db1d38"/><circle cx="59.3" cy="68.1" r=".2" fill="#db1d38"/><circle cx="57" cy="70.7" r=".2" fill="#db1d38"/><circle cx="52.1" cy="86.5" r=".4" fill="#db1d38"/><circle cx="58.8" cy="72" r=".4" fill="#95bdcb"/><circle cx="20.5" cy="81.9" r=".4" fill="#95bdcb"/><ellipse cx="49.4" cy="90.4" fill="#95bdcb" rx=".8" ry=".8" transform="matrix(.08258034 -.9966 .9966 .08258034 -44.765 132.1469)"/></g><g clip-path="url(#b)"><g opacity=".13"><path fill="url(#x)" d="m77.8 33.4 1 17.8.3-17.7z"/><path fill="url(#y)" d="m71 35.3 7.8 16-6.6-16.4z"/><path fill="url(#z)" d="m64.8 40.3 14.1 11-13.2-11.8z"/><path fill="url(#A)" d="m61.3 48 17.5 3.3-17.1-4.5z"/><path fill="url(#B)" d="m89.1 36.8-10.3 14.5 9.2-15.1z"/><path fill="url(#C)" d="m94.4 42.8-15.7 8.5 14.9-9.5z"/><path fill="url(#D)" d="m96.7 51.3-17.9.3 17.7-1.6z"/><path fill="url(#E)" d="m81.9 33.8-3.1 17.6 4.3-17.2z"/><path fill="url(#F)" d="m72.4 68.1 6.3-16.7-5 17z"/><path fill="url(#G)" d="m66.9 64 12.2-13.1-11.1 13.8z"/><path fill="url(#H)" d="m62 56.3 17.1-5.1-16.6 6.2z"/><path fill="url(#I)" d="m86.6 67.1-7.8-16.1 6.6 16.5z"/><path fill="url(#J)" d="m94 60.1-15.4-8.9 14.6 9.9z"/><path fill="url(#K)" d="m79 68.8-.2-17.8 1.5 17.6z" opacity=".13"/></g><path fill="#fff" d="m76.8 29.6-1.3.9.5 1.4-1.4-.8-1.1.9.5-1.5-1.4-.7 1.7-.2.1-1.5.9 1.5z"/><ellipse cx="75.3" cy="33.6" fill="#95bdcb" rx=".8" ry=".8" transform="matrix(.08258034 -.9966 .9966 .08258034 35.6029 105.9061)"/><circle cx="76.3" cy="27.8" r=".4" fill="#db1d38"/><circle cx="66.7" cy="35.3" r=".4" fill="#db1d38"/><circle cx="68.1" cy="33.4" r=".4" fill="#95bdcb"/><path fill="#fff" d="m67.5 60.1-1.3.8.6 1.5-1.4-.9-1.1 1 .4-1.6-1.4-.6 1.7-.3.2-1.5.8 1.5z"/><path fill="#dbe8ed" d="m91.8 66.2-1.3.8.6 1.5-1.5-.9-1 1 .4-1.6-1.4-.6 1.7-.3.2-1.4.8 1.5z"/><path fill="#fff" d="m93.8 38.7-1.3.9.6 1.4-1.4-.8-1.1.9.4-1.5-1.3-.7 1.6-.2.2-1.5.9 1.5z"/><path fill="#fff" d="m68.9 30.1-1 .6.4 1.1-1-.7-.8.7.3-1.1-1-.5 1.2-.2.2-1.1.6 1.1z"/><path fill="#fff" d="m97 35.5-1 .6.4 1.1-1-.6-.8.7.3-1.2-1-.5 1.2-.2.2-1 .6 1.1z"/><path fill="#dbe8ed" d="m98.6 53.5-1 .7.4 1-1-.6-.8.7.3-1.2-1-.4 1.2-.2.2-1.1.6 1.1z"/><g fill="#fff"><path d="m62.8 42.8-1 .6.4 1.1-1-.7-.8.7.3-1.1-1-.5 1.2-.2.1-1.1.7 1.1z"/><path d="m65.4 65.2-1 .6.4 1.1-1-.6-.8.7.3-1.2-1-.5 1.2-.1.2-1.1.6 1.1z"/><path d="m99.8 47.3-1 .6.4 1.1-1-.7-.8.7.3-1.1-1-.5 1.2-.2.2-1.1.6 1.1z"/><path d="m77.3 69-.9.7.4 1-1.1-.6-.7.7.3-1.2-1.1-.4 1.3-.2.1-1.1.6 1.1z"/></g><path fill="#dbe8ed" d="m92.2 33.7-1 .6.4 1.1-1-.6-.8.7.3-1.2-1-.5 1.2-.2.2-1 .6 1.1z"/><ellipse cx="63.8" cy="44.1" fill="#95bdcb" rx=".8" ry=".8" transform="matrix(.08258034 -.9966 .9966 .08258034 14.5268 104.0523)"/><circle cx="61.9" cy="40.2" r=".4" fill="#db1d38"/><circle cx="88.8" cy="31.7" r=".4" fill="#db1d38"/><circle cx="95.5" cy="39.2" r=".4" fill="#95bdcb"/><circle cx="93.7" cy="33.5" r=".2" fill="#db1d38"/><circle cx="92.9" cy="35.7" r=".2" fill="#95bdcb"/><circle cx="66" cy="32.5" r=".2" fill="#db1d38"/><circle cx="100.3" cy="48.1" r=".2" fill="#db1d38"/><circle cx="98" cy="50.7" r=".2" fill="#db1d38"/><circle cx="93.1" cy="66.5" r=".4" fill="#db1d38"/><circle cx="99.8" cy="52" r=".4" fill="#95bdcb"/><circle cx="61.5" cy="61.9" r=".4" fill="#95bdcb"/><ellipse cx="90.4" cy="70.4" fill="#95bdcb" rx=".8" ry=".8" transform="matrix(.08258034 -.9966 .9966 .08258034 12.7809 154.6585)"/></g><g clip-path="url(#b)"><g fill="#fff"><path d="m40.2 27.7 4.5 10.9-3.7-11.1z"/><path d="m36.4 30.3 8.3 8.3-7.7-8.8z"/><path d="m33.6 34.8 11.1 3.8-10.7-4.5z"/><path d="m33 40.4 11.7-1.8-11.7.9z"/><path d="m48 27.4-3.4 11.2 2.5-11.4z"/><path d="m52.6 30-8 8.6 7.3-9.1z"/><path d="m55.8 34.8-11 4 10.6-4.8z"/><path d="m42.9 27 1.8 11.7-1-11.7z"/><path d="m44.3 50.4.3-11.7.5 11.6z"/><path d="m40 49.1 4.7-10.8-3.9 11z"/><path d="m35.3 45.3 9.6-6.8-9 7.4z"/><path d="m52.9 46.8-8.3-8.3 7.6 8.8z"/><path d="m56 40.8-11.5-2.2 11.3 3z"/><path d="m48.6 49.5-4-11.1 4.7 10.7z" opacity=".13"/><path d="m38.8 25.6-.7.8.7.8-1.1-.3-.4.9-.1-1.1-1-.1 1-.5-.2-1 .8.8z"/></g><ellipse cx="38.7" cy="28.4" fill="#95bdcb" rx=".5" ry=".5" transform="matrix(.9691 -.2466 .2466 .9691 -5.7964 10.422)"/><circle cx="38.1" cy="24.5" r=".3" fill="#db1d38"/><circle cx="33.7" cy="31.3" r=".3" fill="#db1d38"/><circle cx="34.2" cy="29.8" r=".3" fill="#95bdcb"/><path fill="#fff" d="m39.5 46.5-.6.8.7.8-1.1-.2-.5.8v-1.1l-1-.1 1-.5-.2-.9.8.7z"/><path fill="#dbe8ed" d="m56 45.1-.7.8.7.8-1.1-.2-.4.8-.1-1.1-1-.1 1-.5-.2-.9.8.7z"/><path fill="#fff" d="m51.3 27.6-.6.8.7.8-1.1-.3-.4.9-.1-1.1-1-.1 1-.5-.2-1 .8.8z"/><path fill="#fff" d="m33.9 27.5-.4.6.5.6-.8-.2-.4.6v-.7l-.8-.1.8-.4-.2-.7.7.6z"/><path fill="#fff" d="m52.6 24.9-.4.6.4.5-.8-.1-.3.6v-.8l-.8-.1.8-.4-.2-.7.6.6z"/><path fill="#dbe8ed" d="m57.5 35.8-.5.6.5.5-.8-.1-.3.6-.1-.8-.7-.1.7-.4-.1-.7.6.6z"/><path fill="#fff" d="m32.8 36.7-.4.6.5.6-.8-.1-.4.6v-.8l-.7-.1.7-.4-.2-.7.7.6z"/><path fill="#fff" d="m39.3 50.2-.5.6.5.5-.8-.1-.3.6-.1-.8-.7-.1.7-.4-.1-.7.6.6z"/><path fill="#fff" d="m56.9 31.6-.5.6.5.6-.8-.2-.3.6-.1-.8h-.7l.7-.4-.1-.7.6.5z"/><path fill="#fff" d="m47.6 50-.5.6.5.6-.8-.2-.3.6-.1-.8-.7-.1.7-.4-.1-.7.6.6z"/><path fill="#dbe8ed" d="m49.2 24.8-.4.6.5.5-.8-.1-.4.6v-.8l-.8-.1.8-.4-.2-.7.6.6z"/><ellipse cx="33.8" cy="37.4" fill="#95bdcb" rx=".5" ry=".5" transform="matrix(.9691 -.2466 .2466 .9691 -8.1755 9.4845)"/><circle cx="31.7" cy="35.3" r=".3" fill="#db1d38"/><circle cx="46.7" cy="24.2" r=".3" fill="#db1d38"/><circle cx="52.5" cy="27.5" r=".3" fill="#95bdcb"/><circle cx="50.1" cy="24.4" r=".1" fill="#db1d38"/><circle cx="50.1" cy="25.9" r=".1" fill="#95bdcb"/><circle cx="32.7" cy="29.7" r=".1" fill="#db1d38"/><circle cx="57.4" cy="32" r=".1" fill="#db1d38"/><circle cx="56.5" cy="34.1" r=".1" fill="#db1d38"/><circle cx="56.8" cy="45" r=".3" fill="#db1d38"/><circle cx="57.9" cy="34.6" r=".3" fill="#95bdcb"/><circle cx="36.2" cy="48.9" r=".3" fill="#95bdcb"/><ellipse cx="56" cy="48" fill="#95bdcb" rx=".5" ry=".5" transform="matrix(.9691 -.2466 .2466 .9691 -10.113 15.2897)"/></g><path d="m83.1 37.7-.8.1" style="fill:none;stroke:#ffc30d;stroke-width:.15;stroke-linecap:round;stroke-linejoin:round;stroke-miterlimit:10"/><path d="m83 38.1-.8-.2" style="fill:none;stroke:#ffc30d;stroke-width:.15;stroke-linecap:round;stroke-linejoin:round;stroke-miterlimit:10"/><path d="m82.2 38 .6.5" style="fill:none;stroke:#ffc30d;stroke-width:.15;stroke-linecap:round;stroke-linejoin:round;stroke-miterlimit:10"/><path d="m82.1 37.9-.7.1" style="fill:none;stroke:#ffc30d;stroke-width:.15;stroke-linecap:round;stroke-linejoin:round;stroke-miterlimit:10"/><path d="m82.1 37.8-.6-.2" style="fill:none;stroke:#ffc30d;stroke-width:.15;stroke-linecap:round;stroke-linejoin:round;stroke-miterlimit:10"/><path d="m82 38.1-.5.3" style="fill:none;stroke:#ffc30d;stroke-width:.15;stroke-linecap:round;stroke-linejoin:round;stroke-miterlimit:10"/><path d="m82.2 38.1.3.6" style="fill:none;stroke:#ffc30d;stroke-width:.15;stroke-linecap:round;stroke-linejoin:round;stroke-miterlimit:10"/><path d="m81.8 38.7.3-.6" style="fill:none;stroke:#ffc30d;stroke-width:.15;stroke-linecap:round;stroke-linejoin:round;stroke-miterlimit:10"/><path fill="#f9ed32" d="m82.3 37-.3.6-.6-.3.3.6-.5.3.6.1-.1.6.5-.3.4.4v-.6h.6l-.5-.4.4-.5-.6.1z" opacity=".29"/><path fill="#ff9500" d="m82.3 37.3-.2.4-.5-.2.2.4-.4.2.5.1-.1.5.4-.3.3.3v-.4h.4l-.3-.3.2-.4-.4.1z"/><path fill="#db1d38" d="m82.2 38.2.1.1v-.2h.1l-.1-.1.1-.1h-.1l-.1-.1v.1h-.2l.1.1-.2.1h.2v.2z"/><path d="m83 36.4s-1 .4-.8 1.6" style="fill:none;stroke:#db1d38;stroke-width:.25;stroke-linecap:round;stroke-linejoin:round;stroke-miterlimit:10"/><use fill="#062649" xlink:href="#R"/><path fill="#6ea4b8" d="m84.2 33.2.4 2.4-.3.2-.4-2.5z" clip-path="url(#L)"/><path fill="#6ea4b8" d="m83.7 33.8.4 2.4-.3.2-.4-2.5z" clip-path="url(#L)"/><path fill="#6ea4b8" d="m83.1 34.5.4 2.4-.3.2-.4-2.5z" clip-path="url(#L)"/><path fill="#6ea4b8" d="m82.6 35.5.4 2.3-.3.3-.4-2.6z" clip-path="url(#L)"/><path fill="#6ea4b8" d="m84.6 32.4.4 2.3-.3.3-.4-2.6z" clip-path="url(#L)"/><path fill="#9cc1cf" d="m85.2 33-2.7 3.8-1.1-.9 2.1-3.8z" clip-path="url(#L)" opacity=".1"/><path fill="#db1d38" d="m85.3 34.3-1.4-1 1.8-.8z"/><path d="m91.4 64 .3.8" style="fill:none;stroke:#ffc30d;stroke-width:.15;stroke-linecap:round;stroke-linejoin:round;stroke-miterlimit:10"/><path d="m91.1 64.3.6.5" style="fill:none;stroke:#ffc30d;stroke-width:.15;stroke-linecap:round;stroke-linejoin:round;stroke-miterlimit:10"/><path d="m91.6 64.9-.7-.2" style="fill:none;stroke:#ffc30d;stroke-width:.15;stroke-linecap:round;stroke-linejoin:round;stroke-miterlimit:10"/><path d="m91.7 65 .3.6" style="fill:none;stroke:#ffc30d;stroke-width:.15;stroke-linecap:round;stroke-linejoin:round;stroke-miterlimit:10"/><path d="m91.8 64.9.5.4" style="fill:none;stroke:#ffc30d;stroke-width:.15;stroke-linecap:round;stroke-linejoin:round;stroke-miterlimit:10"/><path d="m91.6 65.1v.6" style="fill:none;stroke:#ffc30d;stroke-width:.15;stroke-linecap:round;stroke-linejoin:round;stroke-miterlimit:10"/><path d="m91.5 65-.6.1" style="fill:none;stroke:#ffc30d;stroke-width:.15;stroke-linecap:round;stroke-linejoin:round;stroke-miterlimit:10"/><path d="m91.2 65.6.3-.5" style="fill:none;stroke:#ffc30d;stroke-width:.15;stroke-linecap:round;stroke-linejoin:round;stroke-miterlimit:10"/><path fill="#f9ed32" d="m92.4 64.3-.3.6.5.3-.6.1v.6l-.5-.4-.4.4v-.6l-.6-.2.6-.3-.3-.5.6.2.2-.6.2.6z" opacity=".29"/><path fill="#ff9500" d="m92.2 64.5-.2.4.3.2-.4.1v.4l-.3-.3-.4.3.1-.4-.5-.1.4-.3-.2-.4.4.2.2-.4.2.4z"/><path fill="#db1d38" d="m91.5 65h-.2l.2-.1-.1-.1h.1l.1-.1v.1h.2l-.1.1.1.1h-.1v.2l-.1-.1-.1.1z"/><path d="m92.5 63.4s.2 1-.9 1.5" style="fill:none;stroke:#db1d38;stroke-width:.25;stroke-linecap:round;stroke-linejoin:round;stroke-miterlimit:10"/><use fill="#062649" xlink:href="#S"/><path fill="#6ea4b8" d="m94.6 60.7-2.2.9-.1.4 2.4-1z" clip-path="url(#M)"/><path fill="#6ea4b8" d="m94.4 61.5-2.2.9-.1.4 2.4-1z" clip-path="url(#M)"/><path fill="#6ea4b8" d="m94.1 62.3-2.2.9-.1.4 2.4-1z" clip-path="url(#M)"/><path fill="#6ea4b8" d="m93.5 63.2-2.2.9-.1.4 2.4-1z" clip-path="url(#M)"/><path fill="#6ea4b8" d="m95.1 59.9-2.2.9-.1.4 2.4-1z" clip-path="url(#M)"/><path fill="#9cc1cf" d="m94.3 59.8-1.8 4.2 1.3.5 2.1-3.8z" clip-path="url(#M)" opacity=".1"/><path fill="#db1d38" d="m93 60.3 1.7.7-.3-2z"/><path d="m19.3 51.2 1.5.3" style="fill:none;stroke:#ffc30d;stroke-width:.15;stroke-linecap:round;stroke-linejoin:round;stroke-miterlimit:10"/><path d="m19.4 52 1.4-.3" style="fill:none;stroke:#ffc30d;stroke-width:.15;stroke-linecap:round;stroke-linejoin:round;stroke-miterlimit:10"/><path d="m20.8 51.9-.9.9" style="fill:none;stroke:#ffc30d;stroke-width:.15;stroke-linecap:round;stroke-linejoin:round;stroke-miterlimit:10"/><path d="m21.1 51.7 1.1.2" style="fill:none;stroke:#ffc30d;stroke-width:.15;stroke-linecap:round;stroke-linejoin:round;stroke-miterlimit:10"/><path d="m21.1 51.5 1-.4" style="fill:none;stroke:#ffc30d;stroke-width:.15;stroke-linecap:round;stroke-linejoin:round;stroke-miterlimit:10"/><path d="m21.1 51.9 1 .6" style="fill:none;stroke:#ffc30d;stroke-width:.15;stroke-linecap:round;stroke-linejoin:round;stroke-miterlimit:10"/><path d="m21 52.1-.6 1" style="fill:none;stroke:#ffc30d;stroke-width:.15;stroke-linecap:round;stroke-linejoin:round;stroke-miterlimit:10"/><path d="m21.6 53.1-.5-1" style="fill:none;stroke:#ffc30d;stroke-width:.15;stroke-linecap:round;stroke-linejoin:round;stroke-miterlimit:10"/><path fill="#f9ed32" d="m20.7 50.1.5 1 1-.4-.4.9.9.6-1 .2.1 1.1-.8-.7-.8.9v-1.1l-1.1-.1.9-.7-.7-.9 1.1.2z" opacity=".29"/><path fill="#ff9500" d="m20.8 50.5.3.8.8-.3-.4.7.7.4-.7.2.1.8-.7-.5-.5.6v-.8l-.8-.1.6-.5-.5-.7.8.2z"/><path fill="#db1d38" d="m20.9 52.1-.2.2v-.2l-.3-.1.3-.1-.2-.3.3.1v-.3l.2.3.2-.1-.1.2.2.2h-.2v.3z"/><path d="m19.5 49s1.8.6 1.4 2.8" style="fill:none;stroke:#db1d38;stroke-width:.25;stroke-linecap:round;stroke-linejoin:round;stroke-miterlimit:10"/><use fill="#062649" xlink:href="#T"/><path fill="#6ea4b8" d="m17.3 43.3-.7 4.2.5.5.7-4.6z" clip-path="url(#N)"/><path fill="#6ea4b8" d="m18.3 44.3-.7 4.3.4.4.8-4.5z" clip-path="url(#N)"/><path fill="#6ea4b8" d="m19.3 45.6-.7 4.2.5.5.7-4.6z" clip-path="url(#N)"/><path fill="#6ea4b8" d="m20.1 47.3-.7 4.2.5.5.7-4.6z" clip-path="url(#N)"/><path fill="#6ea4b8" d="m16.5 41.8-.7 4.2.5.5.8-4.6z" clip-path="url(#N)"/><path fill="#9cc1cf" d="m15.6 43 4.8 6.6 1.9-1.6-3.8-6.8z" clip-path="url(#N)" opacity=".1"/><path fill="#db1d38" d="m15.2 45.3 2.6-1.8-3.3-1.4z"/><path fill="#003c5f" d="m73.4 65.9c.1-.7.2-1.3.2-2-.1-7.3-7.8-13.1-17.4-13-9.5.1-17.2 6-17.1 13.3 0 .7.1 1.3.2 2h1.6c-.1-.6-.2-1.3-.2-2-.1-7.3 6.9-13.2 15.5-13.3s15.7 5.8 15.8 13c0 .7-.1 1.3-.2 2z"/><path d="m71.6 57.2-.9 5 16.1-2.5z" style="fill:#ed1c24;stroke:#0e2947;stroke-width:.75;stroke-linecap:round;stroke-linejoin:round;stroke-miterlimit:10"/><path d="m71.6 54.7-1.7-4.7 17.9-3.8z" style="fill:#ed1c24;stroke:#0e2947;stroke-width:.75;stroke-linecap:round;stroke-linejoin:round;stroke-miterlimit:10"/><path d="m66.5 47.1-3.2-2.2 14.5-10.1z" style="fill:#ed1c24;stroke:#0e2947;stroke-width:.75;stroke-linecap:round;stroke-linejoin:round;stroke-miterlimit:10"/><path d="m55.3 24.6-1.9 18.8h5.5z" style="fill:#ed1c24;stroke:#0e2947;stroke-width:.75;stroke-linecap:round;stroke-linejoin:round;stroke-miterlimit:10"/><path d="m44.3 47.1 4.3-2.4-15.9-9.9z" style="fill:#ed1c24;stroke:#0e2947;stroke-width:.75;stroke-linecap:round;stroke-linejoin:round;stroke-miterlimit:10"/><path d="m41.3 50.5-18.6-4.3 17.6 8.1z" style="fill:#ed1c24;stroke:#0e2947;stroke-width:.75;stroke-linecap:round;stroke-linejoin:round;stroke-miterlimit:10"/><path d="m39.2 57.2-18.4 3.8h20.5z" style="fill:#ed1c24;stroke:#0e2947;stroke-width:.75;stroke-linecap:round;stroke-linejoin:round;stroke-miterlimit:10"/><path fill="#0082ff" stroke="#0e2947" stroke-miterlimit="10" stroke-width=".75" d="m55.6 42.9v-14.5l3.2 14.8z"/><path fill="#0082ff" d="m65.6 45.6 1.4.9 5.9-6.9z"/><path fill="#0082ff" d="m46 45.6-1.8 1.2-8.7-9.5z"/><path fill="#0082ff" d="m39.2 53.6.6-1.7-13.4-4.4z"/><path fill="#0082ff" d="m39.7 61-.7-1.4-11.4 1.4z"/><path fill="#0082ff" d="m72.3 54.4-.6-2 12.6-4.5z"/><path fill="#0082ff" d="m71.7 61.9.6-2.5 10.9.7z"/><path fill="none" stroke="#0e2947" stroke-linecap="round" stroke-miterlimit="10" stroke-width=".75" d="m55.4 25.3.2 17.6"/><path fill="none" stroke="#0e2947" stroke-linecap="round" stroke-miterlimit="10" stroke-width=".75" d="m65.7 45.6 11.7-10.4"/><path fill="none" stroke="#0e2947" stroke-linecap="round" stroke-miterlimit="10" stroke-width=".75" d="m71.7 52.4 16.1-6.2"/><path fill="none" stroke="#0e2947" stroke-linecap="round" stroke-miterlimit="10" stroke-width=".75" d="m72.4 59.4 13.3.4"/><path fill="none" stroke="#0e2947" stroke-linecap="round" stroke-miterlimit="10" stroke-width=".75" d="m32.7 34.8 13 10.8"/><path fill="none" stroke="#0e2947" stroke-linecap="round" stroke-miterlimit="10" stroke-width=".75" d="m23.5 46.4 16.3 5.7"/><path fill="none" stroke="#0e2947" stroke-linecap="round" stroke-miterlimit="10" stroke-width=".75" d="m21.9 61 17.1-1.4"/><path fill="#d6d6ea" stroke="#0e2947" stroke-miterlimit="10" stroke-width=".25" d="m72.6 57v.3c0 .6-.1 1.2-.2 1.7v.1.2c-.1.5-.2 1-.4 1.5-.1.4-.3.8-.5 1.2-.8 1.9-2.2 3.6-3.8 4.9l-1.4.5c.1 0 .1-.1.2-.1h.1s.1-.1.1-.1c.2-.2.5-.4.7-.6.2-.1.3-.3.5-.5.1-.1.2-.3.4-.4.5-.6 1-1.2 1.4-1.8.3-.7.4-1.5.4-2.2 0-.4 0-.8-.1-1.2l-.6.1-.3-1.3.5-.3c-.2-.5-.5-1-.8-1.5l-.4.7-.8-.9.3-.9c-.5-.5-1-.9-1.6-1.4l-.2.7-.9-.5.1-.8c-.6-.3-1.3-.7-2-.9v.7c-.6.1-1.3-.3-1.6-.9-.1-.1-.1-.3-.1-.4-.7-.2-1.3-.3-2-.4v.4l-2-.2v-.5c-.3 0-.6 0-.9 0s-.5 0-.7 0v.5c.1.3-1.5.1-1.5.1s0-.2-.1-.5c-.6.1-1.2.1-1.8.3l.1.7-1.3.8-.4-1.1c-.6.2-1.1.4-1.7.6.3.2.1.7-.2.8-.3.2-.7.1-.9-.1 0 0-.1-.1-.1-.1-.5.3-1 .6-1.5 1 0 .2 0 .5-.4.4-.2 0 .2.6 0 .6-.1 0-.3-.1-.5-.2-.5.5-1 1.1-1.4 1.7l.3.3c.2.1-.1 1-.3 1.1s-.4 0-.6-.1c-.2.4-.3.8-.4 1.3.2.1.3.2.4.2l-.1.3c.2.2.1.5-.2.6 0 0-.1 0-.3 0v.1c0 .7.1 1.4.3 2 .1.5.4 1 .7 1.5 1.6 2.7 4.9 4.9 9 5.6-.2 0-.4 0-.6-.1-.3-.1-.6-.1-.9-.2s-.6-.1-.9-.2-.7-.2-1-.3c-.1 0-.3-.1-.4-.1-.4-.1-.8-.3-1.1-.4-4.1-1.7-7.3-4.8-8.6-8.6-.2-.4-.3-.9-.4-1.4-.2-.8-.3-1.5-.3-2.3 0-1.1.1-2.2.5-3.3 0-.1 0-.1 0-.1v-.1c.1-.5.3-1 .5-1.4 0-.1.1-.1.1-.2.2-.5.5-1.1.9-1.5.9-1.3 2-2.5 3.3-3.6.5-.4 1.1-.8 1.7-1.2.7-.4 1.5-.8 2.4-1.2 1.6-.7 3.4-1.2 5.3-1.4.7-.1 1.5-.1 2.2-.1 1.1 0 2.1.1 3.2.2 1.7.3 3.4.8 4.9 1.5 1.2.5 2.3 1.2 3.3 2 1.3.9 2.4 2.1 3.3 3.4.5.7 1 1.6 1.3 2.4.3.7.5 1.3.6 2 .1.8.2 1.7.2 2.6z"/><path fill="#d6d6ea" stroke="#0e2947" stroke-miterlimit="10" stroke-width=".25" d="m69.5 64.1c.3-.7.4-1.5.4-2.2 0-.4 0-.8-.1-1.2l-.6.1-.3-1.3.5-.3c-.2-.5-.5-1-.8-1.5l-.4.7-.8-.9.3-.9c-.5-.5-1-.9-1.6-1.4l-.2.7-.9-.5.1-.8c-.6-.3-1.3-.7-2-.9v.7c-.6.1-1.3-.3-1.6-.9-.1-.1-.1-.3-.1-.4-.7-.2-1.3-.3-2-.4v.4l-2-.2v-.5c-.3 0-.6 0-.9 0s-.5 0-.7 0v.5c.1.3-1.5.1-1.5.1s0-.2-.1-.5c-.6.1-1.2.1-1.8.3l.1.7-1.3.8-.4-1.1c-.6.2-1.1.4-1.7.6.3.2.1.7-.2.8-.3.2-.7.1-.9-.1 0 0-.1-.1-.1-.1-.5.3-1 .6-1.5 1 0 .2 0 .5-.4.4-.2 0 .2.6 0 .6-.1 0-.3-.1-.5-.2-.5.5-1 1.1-1.4 1.7l.3.3c.2.1-.1 1-.3 1.1s-.4 0-.6-.1c-.2.4-.3.8-.4 1.3.2.1.3.2.4.2l-.1.3c.2.2.1.5-.2.6 0 0-.1 0-.3 0v.1c0 .7.1 1.4.3 2 .1.5.4 1 .7 1.5 1.6 2.7 4.9 4.9 9 5.6-.2 0-.4 0-.6-.1-.3-.1-.6-.1-.9-.2s-.6-.1-.9-.2-.7-.2-1-.3c-.1 0-.3-.1-.4-.1-.4-.1-.8-.3-1.1-.4-2.2-1-4.1-2.4-5.5-4.1-.1-.1-.2-.3-.3-.4-.9-1.2-1.6-2.6-2-4.1-.2-.9-.4-1.8-.4-2.8v-.1c0-.5 0-1 .1-1.5.1-.8.3-1.5.5-2.2.3-.9.7-1.7 1.2-2.4.4-.6.8-1.1 1.2-1.6.6-.7 1.3-1.3 2-1.8.5-.4 1-.7 1.5-1 .5-.3 1.1-.6 1.7-.9.2-.1.4-.2.7-.3l1.8-.6.2-.1c.1 0 .2 0 .3-.1.5-.1 1.1-.2 1.6-.3s1.1-.1 1.7-.2h.6.2.1.2c.9 0 1.7.1 2.5.2h.3c.1 0 .2 0 .3.1 1.5.3 3 .7 4.3 1.3 1 .5 1.9 1 2.8 1.6.1.1.3.2.5.3l1.3 1.1c.6.6 1.1 1.2 1.5 1.8 1.3 1.9 2.1 4.1 2.1 6.5.2 2.4-.4 4.4-1.5 6.2z"/><path fill="#0e2947" d="m70.4 54.3-1.9 3.4-.4.6-.8-.9.2-.9 1.6-4.9z"/><path fill="#0e2947" d="m67.5 49.8-1.6 5.3-.2.7-.8-.5.1-.8.8-6.2.4.4z"/><path fill="#0e2947" d="m63 46.7v7.6c-.6.1-1.3-.3-1.6-.9-.1-.1-.1-.3-.1-.4-.1-.4 0-.9 0-1.3.1-1.8.2-3.6.2-5.5.5.2 1 .3 1.5.5z"/><path fill="#0e2947" d="m59.3 53-2-.2v-.5l-.3-7h1 .5s.1 0 .1.1c.2.1.3.5.3.5l.4 6.7z"/><path fill="#0e2947" d="m55.6 52.9c.1.3-1.5.1-1.5.1s0-.2-.1-.5c-.3-1.5-1.1-6-1.3-7.2v-.1c.6 0 1.5-.1 2.2-.1h.3l.4 7.3z"/><path fill="#0e2947" d="m52.5 53.5-1.4.8-.4-1.1-2.6-6.6.7-.2 1.8-.7h.2l.3-.1 1.2 7.2z"/><path fill="#0e2947" d="m48.9 54.7c-.3.2-.7.1-.9-.1 0 0-.1-.1-.1-.1-.2-.3-.6-.9-.7-1.2-.7-1.5-1.5-3-2.2-4.5 0-.1-.1-.2-.1-.3s0-.1 0-.2.2-.2.3-.3c.4-.2.8-.3 1.2-.5l2.6 6.4c.3.1.2.6-.1.8z"/><path fill="#0e2947" d="m46 55.8c-.2 0 .2.6 0 .6-.1 0-.3-.1-.5-.2s-.4-.3-.5-.4c-1.1-1.3-2.2-2.6-3.3-3.9.2-.7.6-1.3 1.3-1.6.1-.1.2-.1.3-.1l3.3 5.2c-.1.2-.2.5-.6.4z"/><path fill="#0e2947" d="m39.9 56.6s2.6 2.3 3.4 2.7h.1c.2.1.4.1.6.1.2-.1.5-1 .3-1.1l-.3-.3-3.6-3.5z"/><path fill="#0e2947" d="m43.2 61.7s-.1 0-.3 0c-.7-.1-2.1-.5-2.3-.6 0 0-.1 0-.1-.1-.4-.4-.7-1-.5-1.5.1 0 .3.1.6.2.7.2 1.8.6 2.4 1 .2.1.3.2.4.2l-.1.3c.2.1.1.4-.1.5z"/><path fill="#0e2947" d="m71 58.1-.3 2.3-1 .2-.6.1-.3-1.3.5-.2z"/><path fill="#0e2947" d="m43.8 65.4c-.2 0-.4.1-.6.1-.2.1-.4.1-.7 0 0 0 0 0-.1 0-.1-.1-.3-.2-.3-.4 0-.1 0-.1-.1-.2-.1-.2-.1-.5-.2-.7.4-.1.8-.2 1.2-.3.3.5.6 1 .8 1.5z"/><path d="m46.6 93.9h17.8" style="fill:none;stroke:#25e899;stroke-width:.75;stroke-linecap:round;stroke-linejoin:round;stroke-miterlimit:10"/><path fill="#25e899" d="m42.5 77.8h25.1l2.2.8-1.6 5.7h-24.1z"/><path fill="#d6d6ea" d="m64.8 91.4h-17.3c-1.9 0-3.4-1.5-3.4-3.4v-3.7h24.1v3.7c0 1.8-1.5 3.4-3.4 3.4"/><path fill="#d6d6ea" d="m40.4 64.3-3 .9-.4 7.9 2.4 2.5 2.8-.2.7 2.5 27.2-.2.8-2.4 2.8-.5 1.8-2v-7.2l-3.6-2-2.4-3.4-3.2-4.2-6.7-3-5.7-.5-5 1.8-5 4.2-3.3 5.6z"/><path fill="#0e2947" d="m64.8 92.2h-17.3c-2.3 0-4.2-1.9-4.2-4.2v-4.5h25.7v4.5c0 2.3-1.9 4.2-4.2 4.2zm-19.9-7.1v2.9c0 1.4 1.2 2.6 2.6 2.6h17.3c1.4 0 2.6-1.2 2.6-2.6v-2.9z"/><path fill="#0e2947" d="m68.8 85.1h-25.3l-4.1-16.2v-.1c0-9.2 7.5-16.8 16.8-16.8 9.2 0 16.8 7.5 16.8 16.8v.1.1zm-24.1-1.6h22.9l3.8-14.8c-.1-8.3-6.9-15.1-15.2-15.1s-15.2 6.7-15.3 15.1z"/><path fill="#0e2947" d="m41.4 76.1h-1.7c-1.8 0-3.2-1.4-3.2-3.2v-6.2c0-1.8 1.4-3.2 3.2-3.2h.7c.4 0 .8.3.8.8 0 .4-.4.8-.8.8h-.7c-.9 0-1.6.7-1.6 1.6v6.2c0 .9.7 1.6 1.6 1.6h1.7c.4 0 .8.4.8.8 0 .5-.4.8-.8.8"/><path fill="#25e899" d="m42.1 74.9 28-.8-1.6 5.9h-24.4z"/><path fill="#0e2947" d="m72.6 76.1h-1.6c-.4 0-.8-.4-.8-.8s.4-.8.8-.8h1.6c.9 0 1.6-.7 1.6-1.6v-6.2c0-.9-.7-1.6-1.6-1.6h-.7c-.4 0-.8-.3-.8-.8 0-.4.4-.8.8-.8h.7c1.8 0 3.2 1.4 3.2 3.2v6.2c0 1.8-1.4 3.2-3.2 3.2"/><path fill="#0e2947" d="m40.3 66.9c-.2 0-.4-.1-.5-.2-.3-.3-.3-.8 0-1.1 4.4-4.5 10.3-7.1 16.6-7.1 5.9 0 11.6 2.3 15.9 6.4.3.3.3.8 0 1.1s-.8.3-1.1 0c-4.1-3.8-9.3-5.9-14.8-5.9-5.9 0-11.4 2.3-15.5 6.6-.2.1-.4.2-.6.2"/><path fill="#0e2947" d="m70.5 74.9h-28.4c-.5 0-.8-.4-.8-.8s.4-.8.8-.8h28.4c.5 0 .8.4.8.8s-.3.8-.8.8"/><path fill="none" stroke="#0e2947" stroke-linecap="round" stroke-linejoin="round" stroke-miterlimit="10" d="m45.9 76.8c2.4 3.1 6.5 5 10.4 4.8 4-.2 7.8-2.4 9.9-5.7"/><circle cx="64.3" cy="68.4" r="4.5" fill="#0e2947" stroke="#0e2947" stroke-miterlimit="10" stroke-width=".5"/><circle cx="65.2" cy="66.8" r="1.5" fill="#fff"/><circle cx="62" cy="70.4" r=".3" fill="#fff"/><circle cx="63.6" cy="71.3" r=".6" fill="#fff"/><circle cx="47.1" cy="68.4" r="4.5" fill="#0e2947" stroke="#0e2947" stroke-miterlimit="10" stroke-width=".5"/><circle cx="48" cy="66.8" r="1.5" fill="#fff"/><circle cx="44.8" cy="70.4" r=".3" fill="#fff"/><circle cx="46.5" cy="71.3" r=".6" fill="#fff"/><path fill="#db1d38" d="m53.8 66.3h4.3v1.5h-4.3z"/><use fill="#db1d38" xlink:href="#U"/><g fill="#f2f2f2" clip-path="url(#O)"><path d="m56.9 64.5h16.2v.9h-16.2z" transform="matrix(.9999 .01159074 -.01159074 .9999 .7565 -.7492)"/><path d="m56.9 67.1h16.2v.9h-16.2z" transform="matrix(.9999 .01159074 -.01159074 .9999 .787 -.7487)"/><path d="m56.9 69.7h16.2v.9h-16.2z" transform="matrix(.9999 .01159074 -.01159074 .9999 .8175 -.7482)"/><path d="m56.9 62.3h16.2v.9h-16.2z" transform="matrix(.9999 .01159074 -.01159074 .9999 .731 -.7497)"/><path d="m56.8 71.9h16.2v.9h-16.2z" transform="matrix(.9999 .01159074 -.01159074 .9999 .843 -.7477)"/><path d="m56.8 73.7h16.2v.9h-16.2z" transform="matrix(.9999 .01159074 -.01159074 .9999 .8633 -.7474)"/></g><path fill="#062649" d="m64.9 65.9s2-4.8 4.8-1.9-.3 6.5-4.5 9.6c0 0-8.9-4-5.6-9.1 0 .1 2.7-3.2 5.3 1.4z"/><path fill="#144068" d="m68.4 66.8c-.1.6-.3 1.1-.7 1.5s-.7.9-1 1.4c-.2.3-.4.8-.2 1.1s.8.3 1.1.1c1.1-.5 1.7-1.6 2-2.8.2-.6.3-1.3.2-1.9s-.4-1.3-.8-1.7c-.5-.4-1.2-.6-1.8-.4-.2.1-1 .5-.8.8.1.2.6.1.8.1.8.1 1.3.9 1.2 1.8z"/><use fill="#db1d38" xlink:href="#V"/><g fill="#f2f2f2" clip-path="url(#P)"><path d="m39.4 64.5h16.2v.9h-16.2z" transform="matrix(1 .00787569 -.00787569 1 .5125 -.3717)"/><path d="m39.3 67.1h16.2v.9h-16.2z" transform="matrix(1 .00787569 -.00787569 1 .5333 -.3715)"/><path d="m39.3 69.7h16.2v.9h-16.2z" transform="matrix(1 .00787569 -.00787569 1 .554 -.3712)"/><path d="m39.4 62.3h16.2v.9h-16.2z" transform="matrix(1 .00787569 -.00787569 1 .4952 -.3719)"/><path d="m39.3 71.9h16.2v.9h-16.2z" transform="matrix(1 .00787569 -.00787569 1 .5713 -.371)"/><path d="m39.3 73.7h16.2v.9h-16.2z" transform="matrix(1 .00787569 -.00787569 1 .5851 -.3709)"/></g><path fill="#062649" d="m47.3 65.9s2-4.8 4.8-1.9-.3 6.5-4.5 9.6c0 0-8.9-4-5.6-9.1 0 .1 2.8-3.2 5.3 1.4z"/><path fill="#144068" d="m43.8 67.1c.1.6.3 1.1.7 1.5s.7.9 1 1.4c.2.3.4.8.2 1.1s-.8.3-1.1.1c-1.1-.5-1.7-1.6-2-2.8-.2-.6-.3-1.3-.2-1.9s.4-1.3.8-1.7c.5-.4 1.2-.6 1.8-.4.2.1 1 .5.8.8-.1.2-.6.1-.8.1-.9.1-1.3.9-1.2 1.8z"/><g clip-path="url(#Q)"><path fill="#d6d6ea" d="m45.3 98.3h23.2v4.9h-23.2z"/><path fill="#0e2947" d="m69.5 104h-25.6v-6.9h25.7v6.9zm-24.1-1.5h22.7v-4h-22.7z"/><path fill="#9393b5" d="m61.6 98.6h6.4v3.9h-6.4z"/></g><path fill="#0e2947" d="m40.9 83.7c.4-.9 1.4-1.4 2.4-1.3s1.8.7 2.4 1.4.9 1.7 1.4 2.5c4.5 7.6 2.5 12.4 4.3 16.2.5 1.2 0 0 0 1.3s1.3.4 0 .6c0-.2 0-.4 0-.6.9 3.4 3.8 6.5 6.8 8.3 2-2.7 4.2-5.8 4-9.2-.1-1-1.7 2.6-1.7 1.6-.1-2.3 2.2-9.2 3.1-11.4.8-1.9 1.7-3.9 2.5-5.8.4-.9.9-1.9 1.8-2.2 1.2-.5 2.5.4 3.5 1.3 2.3 1.9 4.7 4.2 5.2 7.1.4 2.5-.6 5-2.1 7s-3.6 3.5-5.6 4.9c-2.9 2.1-5.8 4.2-8.6 6.3-1.9 1.4-4.1 2.9-6.5 2.5-3-.5-4.7-3.7-5.8-6.5-3.1-7.9-5.6-15.6-7.1-24z" clip-path="url(#Q)" opacity=".21"/><g clip-path="url(#Q)"><path fill="#0e2947" d="m46.4 123.3h12.7v6.5h-12.7z" transform="matrix(.9422 -.3351 .3351 .9422 -39.3648 24.9904)"/><path fill="#d6d6ea" d="m60.5 104.5c-1 2.6-1.7 5.2-2.5 7.8-.9 2.6-2.8 4.8-3.6 7.5-.4 1.3-.3 2.6.2 3.7h.5c.1.2.2.4.4.6 1.4 1.3 3.1 2 4.9 2.5.3.1.6.1.9.1.4.4.7.8 1 1.2 1.7-.2 3.2-1 4-2.6.4-.8.3-1.6-.1-2.2 2.1-2.8 3-6.4 4.4-9.6 2.8-6.3 6.2-12.3 9.2-18.5.5-1.1 0-2.1-.8-2.6 0 0 0-.1.1-.2v-.1c0-.1.1-.2.1-.3s0-.1 0-.2c0-.2 0-.3 0-.5s-.1-.3-.2-.5c0 0 0-.1-.1-.1-.2-.3-.4-.6-.7-.8-.1-.1-.3-.2-.5-.2-.5-.2-1.1-.2-1.6.1-.1-.7-.6-1.4-1.3-1.7-.6-.3-1.2-.3-1.8 0-.1-.1-.3-.3-.5-.4-1.5-.7-2.6 0-3 1-.4.1-.9.3-1.2.8-3.4 4.5-5.8 9.9-7.8 15.2m11-12.6c.1-.2.2-.4.3-.6.2 0 .3-.1.5-.2.2.2.6.4.9.6.6.3 1.3.2 1.9-.2.2.7.4 1.3.8 1.6-1.7 3.5-3.5 6.9-5.3 10.4-.2-.2-.4-.5-.6-.7-1.2-1.1-2.5-1.5-3.7-1.4 1.4-3.3 3.1-6.5 5.2-9.5"/><g fill="#0e2947"><path d="m73.7 87.2 4.1 1.9c2.6 1.2 3.8 4.3 2.6 6.9l-13.4 29.2c-1.2 2.6-4.3 3.7-6.9 2.5l-4.1-1.9c-2.6-1.2-3.8-4.3-2.6-6.9l13.4-29.2c1.2-2.5 4.3-3.7 6.9-2.5zm-12.9 38.9c1.7.8 3.8 0 4.6-1.7l13.4-29.2c.8-1.7 0-3.8-1.7-4.6l-4.1-1.8c-1.7-.8-3.8 0-4.6 1.7l-13.4 29.2c-.8 1.7 0 3.8 1.7 4.6z"/><path d="m57.9 111.2 12 5.5c.4.2.6.7.4 1.2-.2.4-.7.6-1.2.4l-12-5.5c-.4-.2-.6-.7-.4-1.2.3-.5.8-.6 1.2-.4"/><path d="m61.2 103.9 12 5.5c.4.2.6.7.4 1.2-.2.4-.7.6-1.2.4l-12-5.5c-.4-.2-.6-.7-.4-1.2.3-.4.8-.6 1.2-.4"/></g><path fill="#25e899" d="m63.5 114.7-5.2 11.3"/><path fill="#0e2947" d="m63.9 113.9c.4.2.6.7.4 1.2l-5.2 11.3c-.2.4-.7.6-1.2.4-.4-.2-.6-.7-.4-1.2l5.2-11.3c.2-.4.8-.6 1.2-.4"/><path fill="#eff4ee" d="m70.3 92.5-3.6 7.9c-.5 1.1 0 2.4 1.1 2.9l1.7.8c1.1.5 2.4 0 2.9-1.1l3.6-7.9"/><path fill="#0e2947" d="m70.7 91.7c.4.2.6.7.4 1.2l-3.6 7.9c-.3.7 0 1.4.6 1.7l1.7.8c.7.3 1.4 0 1.7-.6l3.6-7.9c.2-.4.7-.6 1.2-.4.4.2.6.7.4 1.2l-3.6 7.9c-.7 1.5-2.5 2.2-4.1 1.5l-1.7-.8c-1.5-.7-2.2-2.5-1.5-4.1l3.6-7.9c.3-.5.8-.7 1.3-.5"/><path fill="#25e899" d="m76 95.1c-.7 1.6-2.6 2.3-4.1 1.5-1.6-.7-2.3-2.6-1.5-4.1.7-1.6 2.6-2.3 4.1-1.5 1.5.7 2.2 2.5 1.5 4.1"/><path fill="#0e2947" d="m74.8 90.2c2 .9 2.9 3.3 2 5.3s-3.3 2.9-5.3 2-2.9-3.3-2-5.3c.9-2.1 3.3-2.9 5.3-2m-2.6 5.6c1.1.5 2.5 0 3-1.1s0-2.5-1.1-3-2.5 0-3 1.1c-.5 1.2 0 2.5 1.1 3"/></g><g clip-path="url(#Q)"><path fill="#0e2947" d="m43.6 122.4h12.7v6.5h-12.7z" transform="matrix(.3456 -.9384 .9384 .3456 -85.2358 129.1163)"/><path fill="#d6d6ea" d="m38 105.6c1.4 2.4 2.9 4.6 4.4 7s1.9 5.2 3.4 7.6c.8 1.2 1.8 1.9 3 2.2.1-.1.2-.3.3-.4.2.1.5.1.7 0 1.9-.2 3.5-1.1 5.1-2.2.2-.2.4-.4.6-.6h1.5c.9-1.4 1.3-3 .6-4.8-.3-.8-1-1.2-1.7-1.3-.9-3.4-3-6.4-4.6-9.6-3.1-6.2-5.5-12.6-8.4-18.9-.5-1.2-1.6-1.4-2.5-1 0-.1-.1-.1-.1-.1s0 0-.1-.1-.1-.2-.2-.3c0 0-.1-.1-.1-.1-.1-.1-.2-.2-.4-.3s-.3-.1-.5-.2h-.1c-.3-.1-.7-.1-1 0-.2 0-.3.1-.5.2 0 0 0 0-.1 0-.5.3-.8.7-1 1.3-.6-.4-1.4-.4-2.2-.1-.6.3-1 .8-1.2 1.3-.2 0-.4.1-.6.1-1.5.7-1.7 2-1.2 3-.2.4-.3.9-.2 1.4 1.7 5.7 4.3 10.9 7.1 15.9m-2.7-16.5c-.1-.2-.1-.4-.3-.6.1-.2.1-.3.2-.5.3 0 .7-.1 1-.3.6-.3 1-.9 1.1-1.6.7.3 1.2.5 1.7.4 1.6 3.5 3.1 7.1 4.6 10.7-.3 0-.6 0-.9 0-1.6.3-2.7 1-3.4 1.9-1.6-3.1-3.1-6.5-4-10"/><g fill="#0e2947"><path d="m33.1 84.4 4.1-2c2.6-1.2 5.7-.1 6.9 2.5l13.8 29c1.2 2.6.1 5.7-2.5 6.9l-4.1 2c-2.6 1.2-5.7.1-6.9-2.5l-13.8-29c-1.2-2.6-.1-5.7 2.5-6.9zm21.7 34.8c1.7-.8 2.4-2.9 1.6-4.6l-13.8-29c-.8-1.7-2.9-2.4-4.6-1.6l-4.1 2c-1.7.8-2.4 2.9-1.6 4.6l13.8 29c.8 1.7 2.9 2.4 4.6 1.6z"/><path d="m41.4 111.8 11.9-5.7c.4-.2 1 0 1.2.4s0 1-.4 1.2l-11.9 5.7c-.4.2-1 0-1.2-.4s0-1 .4-1.2"/><path d="m38 104.6 11.9-5.6c.4-.2 1 0 1.2.4s0 1-.4 1.2l-11.9 5.7c-.4.2-1 0-1.2-.4-.2-.5 0-1 .4-1.3"/></g><path fill="#25e899" d="m47.8 109.8 5.4 11.2"/><path fill="#0e2947" d="m47.4 109c.4-.2 1 0 1.2.4l5.4 11.2c.2.4 0 1-.4 1.2s-1 0-1.2-.4l-5.4-11.2c-.2-.5-.1-1 .4-1.2"/><path fill="#eff4ee" d="m35 90.4 3.8 7.8c.5 1.1 1.8 1.5 2.9 1l1.7-.8c1.1-.5 1.5-1.8 1-2.9l-3.8-7.8"/><path fill="#0e2947" d="m34.7 89.6c.4-.2 1 0 1.2.4l3.7 7.8c.3.7 1.1.9 1.7.6l1.7-.8c.7-.3.9-1.1.6-1.7l-3.7-7.8c-.2-.4 0-1 .4-1.2s1 0 1.2.4l3.7 7.8c.7 1.5.1 3.4-1.4 4.1l-1.7.8c-1.5.7-3.4.1-4.1-1.4l-3.7-7.8c-.3-.5-.1-1 .4-1.2"/><path fill="#25e899" d="m40.7 87.7c.7 1.6.1 3.4-1.5 4.2-1.6.7-3.4.1-4.2-1.5-.7-1.6-.1-3.4 1.5-4.2 1.6-.7 3.4-.1 4.2 1.5"/><path fill="#0e2947" d="m36.1 85.4c2-.9 4.4-.1 5.3 1.9s.1 4.4-1.9 5.3-4.4.1-5.3-1.9c-.9-1.9-.1-4.3 1.9-5.3m2.7 5.6c1.1-.5 1.6-1.9 1.1-3s-1.9-1.6-3-1.1-1.6 1.9-1.1 3c.6 1.2 1.9 1.7 3 1.1"/></g><path fill="#d1d3d4" d="m55.5 10.1-46 27.3v53.2l46 26.8 46-26.8v-53.9zm44.3 79.4-44.2 25.7-44.1-25.7v-51l44.2-26.2 44.2 25.5z"/><path fill="#ff2b42" d="m4 74.6c8.9 1.3 13.9-9 22.9-7.6-.1-.4-.2-.7-.4-1.1-8.9-1.3-13.9 9-22.9 7.6.1.4.2.8.4 1.1z"/><path fill="#fff" d="m4.3 75.6c8.9 1.3 13.9-9 22.9-7.6-.1-.4-.2-.7-.4-1.1-8.9-1.3-13.9 9-22.9 7.6.1.4.3.7.4 1.1z"/><path fill="#ff2b42" d="m4.6 76.6c8.9 1.3 13.9-9 22.9-7.6-.1-.4-.2-.7-.4-1.1-8.9-1.3-13.9 9-22.9 7.6.2.4.3.7.4 1.1z"/><path fill="#fff" d="m4.9 77.6c8.9 1.3 13.9-9 22.9-7.6-.1-.4-.2-.7-.4-1.1-8.9-1.3-13.9 9-22.9 7.6.2.4.3.7.4 1.1z"/><path fill="#ff2b42" d="m5.3 78.6c8.9 1.3 13.9-9 22.9-7.6-.1-.4-.2-.7-.4-1.1-8.9-1.3-13.9 9-22.9 7.6.1.3.3.7.4 1.1z"/><path fill="#fff" d="m5.6 79.5c8.9 1.3 13.9-9 22.9-7.6-.1-.4-.2-.7-.4-1.1-8.9-1.3-13.9 9-22.9 7.6.2.4.3.8.4 1.1z"/><path fill="#ff2b42" d="m5.9 80.5c8.9 1.3 13.9-9 22.9-7.6-.1-.4-.2-.7-.4-1.1-8.9-1.3-13.9 9-22.9 7.6.2.4.3.8.4 1.1z"/><path fill="#fff" d="m6.3 81.5c8.9 1.3 13.9-9 22.9-7.6-.1-.4-.2-.7-.4-1.1-8.9-1.3-13.9 9-22.9 7.6.1.4.2.8.4 1.1z"/><path fill="#ff2b42" d="m6.6 82.5c8.9 1.3 13.9-9 22.9-7.6-.1-.4-.2-.7-.4-1.1-8.9-1.3-13.9 9-22.9 7.6.1.4.3.8.4 1.1z"/><path fill="#fff" d="m6.9 83.5c8.9 1.3 13.9-9 22.9-7.6-.1-.4-.2-.7-.4-1.1-8.9-1.3-13.9 9-22.9 7.6.2.4.3.7.4 1.1z"/><path fill="#ff2b42" d="m7.2 84.5c8.9 1.3 13.9-9 22.9-7.6-.1-.4-.2-.7-.4-1.1-8.9-1.3-13.9 9-22.9 7.6.2.4.3.7.4 1.1z"/><path fill="#fff" d="m7.6 85.5c8.9 1.3 13.9-9 22.9-7.6-.1-.4-.2-.7-.4-1.1-8.9-1.3-13.9 9-22.9 7.6.1.4.3.7.4 1.1z"/><path fill="#ff2b42" d="m7.9 86.5c8.9 1.3 13.9-9 22.9-7.6-.1-.4-.2-.7-.4-1.1-8.9-1.3-13.9 9-22.9 7.6.2.3.3.7.4 1.1z"/><path fill="#0089d3" d="m18.3 76.1c3.2-2 6.4-3.8 10.5-3.2-.8-2.3-1.5-4.6-2.3-6.9-4.1-.6-7.3 1.2-10.5 3.2.7 2.2 1.5 4.5 2.3 6.9z"/><g fill="#fff"><path d="m25.9 66.5v.1c-.1 0-.1 0-.2 0 .1 0 .1.1.2.1v.2s.1 0 .1-.1c.1 0 .1.1.2.1 0-.1-.1-.1-.1-.2 0 0 .1-.1.1-.1-.1 0-.1 0-.2 0 0 0 0-.1-.1-.1z"/><path d="m23.9 66.5v.1c-.1 0-.1 0-.2 0 .1 0 .1.1.2.1v.2s.1-.1.1-.1c.1 0 .1 0 .2.1 0-.1-.1-.1-.1-.2 0 0 .1-.1.1-.1-.1 0-.1 0-.2 0 0 0 0-.1-.1-.1z"/><path d="m22 66.9v.2s-.1 0-.1.1c0 0 .1.1.1.1v.2s.1-.1.1-.1h.2s-.1-.1-.1-.1.1-.1.1-.1c-.1 0-.1 0-.2 0 0-.2 0-.3-.1-.3z"/><path d="m20.2 67.5v.2s-.1.1-.1.1.1 0 .1.1v.2s.1-.1.1-.1h.2s-.1-.1-.1-.1c0-.1 0-.1.1-.2-.1 0-.1 0-.2 0 0-.1-.1-.1-.1-.2z"/><path d="m18.5 68.4v.2s-.1.1-.1.1.1 0 .1.1v.2s.1-.1.1-.1h.2s-.1-.1-.1-.1c0-.1 0-.1.1-.2-.1 0-.1 0-.2.1-.1-.2-.1-.3-.1-.3z"/><path d="m16.8 69.4v.2s-.1.1-.1.1h.1v.2c0-.1.1-.1.1-.2h.2s-.1-.1-.1-.1c0-.1 0-.1.1-.2-.1 0-.1 0-.2.1-.1 0-.1-.1-.1-.1z"/><path d="m25.1 67.1v.1c-.1 0-.1 0-.2 0 .1 0 .1.1.2.1v.2s.1-.1.1-.1c.1 0 .1 0 .2.1 0-.1-.1-.1-.1-.2 0 0 .1-.1.1-.1-.1 0-.1 0-.2 0 0 0 0-.1-.1-.1z"/><path d="m23.2 67.3v.2c-.1 0-.1 0-.2.1.1 0 .1.1.2.1v.2s.1-.1.1-.1h.2s-.1-.1-.1-.1.1-.1.1-.1c-.1 0-.1 0-.2 0-.1-.2-.1-.3-.1-.3z"/><path d="m21.3 67.8v.2s-.1.1-.1.1.1 0 .1.1v.2s.1-.1.1-.1h.2s-.1-.1-.1-.1.1-.1.1-.1c-.1 0-.1 0-.2 0 0-.2-.1-.2-.1-.3z"/><path d="m19.5 68.6v.2s-.1.1-.1.1.1 0 .1.1v.2s.1-.1.1-.1h.2s-.1-.1-.1-.1c0-.1 0-.1.1-.2-.1 0-.1 0-.2 0 0-.1 0-.2-.1-.2z"/><path d="m17.8 69.5v.2s-.1.1-.1.1h.1v.2s.1-.1.1-.1h.2s-.1-.1-.1-.1c0-.1 0-.1.1-.2-.1 0-.1 0-.2.1 0-.1 0-.1-.1-.2z"/><path d="m26.3 67.7v.1c-.1 0-.1 0-.2 0 .1 0 .1.1.2.1v.2s.1 0 .1-.1c.1 0 .1.1.2.1 0-.1-.1-.1-.1-.2 0 0 .1-.1.1-.1-.1 0-.1 0-.2 0 0 0 0 0-.1-.1z"/><path d="m24.3 67.7v.1c-.1 0-.1 0-.2 0 .1 0 .1.1.2.1v.2s.1-.1.1-.1c.1 0 .1 0 .2.1 0-.1-.1-.1-.1-.2 0 0 .1-.1.1-.1-.1 0-.1 0-.2 0 0 0 0 0-.1-.1z"/><path d="m22.4 68.1v.2s-.1 0-.1.1c0 0 .1.1.1.1v.2s.1-.1.1-.1h.2s-.1-.1-.1-.1.1-.1.1-.1c-.1 0-.1 0-.2 0 0-.2 0-.2-.1-.3z"/><path d="m20.6 68.8v.2s-.1.1-.1.1.1 0 .1.1v.2s.1-.1.1-.1h.2s-.1-.1-.1-.1c0-.1 0-.1.1-.2-.1 0-.1 0-.2 0 0-.2 0-.2-.1-.2z"/><path d="m18.9 69.6v.2s-.1.1-.1.1.1 0 .1.1v.2s.1-.1.1-.1h.2s-.1-.1-.1-.1c0-.1 0-.1.1-.2-.1 0-.1 0-.2.1 0-.2-.1-.2-.1-.3z"/><path d="m17.2 70.6v.2s-.1.1-.1.1h.1v.2c0-.1.1-.1.1-.2h.2s-.1-.1-.1-.1c0-.1 0-.1.1-.2-.1 0-.1 0-.2.1 0 0-.1 0-.1-.1z"/><path d="m25.5 68.3v.1c-.1 0-.1 0-.2 0 .1 0 .1.1.2.1v.2s.1-.1.1-.1c.1 0 .1 0 .2.1 0-.1-.1-.1-.1-.2 0 0 .1-.1.1-.1-.1 0-.1 0-.2 0 0 0 0 0-.1-.1z"/><path d="m23.6 68.5v.2c-.1 0-.1 0-.2.1.1 0 .1.1.2.1v.2s.1-.1.1-.1h.2s-.1-.1-.1-.1.1-.1.1-.1c-.1 0-.1 0-.2 0 0-.2-.1-.2-.1-.3z"/><path d="m21.7 69.1v.2s-.1.1-.1.1.1 0 .1.1v.2s.1-.1.1-.1h.2s-.1-.1-.1-.1.1-.1.1-.1c-.1 0-.1 0-.2 0 0-.3 0-.3-.1-.3z"/><path d="m20 69.8v.2s-.1.1-.1.1.1 0 .1.1v.2s.1-.1.1-.1h.2s-.1-.1-.1-.1c0-.1 0-.1.1-.2-.1 0-.1 0-.2 0-.1-.1-.1-.1-.1-.2z"/><path d="m18.2 70.8v.2s-.1.1-.1.1h.1v.2s.1-.1.1-.1h.2s-.1-.1-.1-.1c0-.1 0-.1.1-.2-.1 0-.1 0-.2.1 0-.2 0-.2-.1-.2z"/><path d="m26.8 68.9v.1c-.1 0-.1 0-.2 0 .1 0 .1.1.2.1v.2s.1 0 .1-.1c.1 0 .1.1.2.1 0-.1-.1-.1-.1-.2 0 0 .1-.1.1-.1-.1 0-.1 0-.2 0s-.1 0-.1-.1z"/><path d="m24.7 69v.1c-.1 0-.1 0-.2 0 .1 0 .1.1.2.1v.2s.1-.1.1-.1c.1 0 .1 0 .2.1 0-.1-.1-.1-.1-.2 0 0 .1-.1.1-.1-.1 0-.1 0-.2 0 0 0 0-.1-.1-.1z"/><path d="m22.8 69.3v.2s-.1 0-.1.1c0 0 .1.1.1.1v.2s.1-.1.1-.1h.2s-.1-.1-.1-.1.1-.1.1-.1c-.1 0-.1 0-.2 0 0-.2 0-.2-.1-.3z"/><path d="m21 70v.2s-.1.1-.1.1.1 0 .1.1v.2s.1-.1.1-.1h.2s-.1-.1-.1-.1c0-.1 0-.1.1-.2-.1 0-.1 0-.2 0 0-.1 0-.2-.1-.2z"/><path d="m19.3 70.9v.2s-.1.1-.1.1.1 0 .1.1v.2s.1-.1.1-.1h.2s-.1-.1-.1-.1c0-.1 0-.1.1-.2-.1 0-.1 0-.2.1 0-.3-.1-.3-.1-.3z"/><path d="m17.6 71.9v.2s-.1.1-.1.1h.1v.2c0-.1.1-.1.1-.2h.2s-.1-.1-.1-.1c0-.1 0-.1.1-.2-.1 0-.1 0-.2.1 0-.1-.1-.1-.1-.1z"/><path d="m25.9 69.6v.1c-.1 0-.1 0-.2 0 .1 0 .1.1.2.1v.2s.1-.1.1-.1c.1 0 .1 0 .2.1 0-.1-.1-.1-.1-.2 0 0 .1-.1.1-.1-.1 0-.1 0-.2 0 0 0 0-.1-.1-.1z"/><path d="m24 69.8v.2c-.1 0-.1 0-.2.1.1 0 .1.1.2.1v.2s.1-.1.1-.1h.2s-.1-.1-.1-.1.1-.1.1-.1c-.1 0-.1 0-.2 0 0-.2-.1-.3-.1-.3z"/><path d="m22.1 70.3v.2s-.1.1-.1.1.1 0 .1.1v.2s.1-.1.1-.1h.2s-.1-.1-.1-.1.1-.1.1-.1c-.1 0-.1 0-.2 0 0-.2 0-.3-.1-.3z"/><path d="m20.4 71.1v.2s-.1.1-.1.1.1 0 .1.1v.2s.1-.1.1-.1h.2s-.1-.1-.1-.1c0-.1 0-.1.1-.2-.1 0-.1 0-.2 0-.1-.2-.1-.2-.1-.2z"/><path d="m18.7 72v.2s-.1.1-.1.1h.1v.2s.1-.1.1-.1h.2s-.1-.1-.1-.1c0-.1 0-.1.1-.2-.1 0-.1 0-.2.1-.1-.1-.1-.2-.1-.2z"/><path d="m27.2 70.2v.1c-.1 0-.1 0-.2 0 .1 0 .1.1.2.1v.2s.1 0 .1-.1c.1 0 .1.1.2.1 0-.1-.1-.1-.1-.2 0 0 .1-.1.1-.1-.1 0-.1 0-.2 0s-.1-.1-.1-.1z"/><path d="m25.1 70.2v.1c-.1 0-.1 0-.2 0 .1 0 .1.1.2.1v.2s.1-.1.1-.1c.1 0 .1 0 .2.1 0-.1-.1-.1-.1-.2 0 0 .1-.1.1-.1-.1 0-.1 0-.2 0 0 0 0-.1-.1-.1z"/><path d="m23.2 70.6v.2s-.1 0-.1.1c0 0 .1.1.1.1v.2s.1-.1.1-.1h.2s-.1-.1-.1-.1.1-.1.1-.1c-.1 0-.1 0-.2 0 0-.2 0-.3-.1-.3z"/><path d="m21.4 71.2v.2s-.1.1-.1.1.1 0 .1.1v.2s.1-.1.1-.1h.2s-.1-.1-.1-.1c0-.1 0-.1.1-.2-.1 0-.1 0-.2 0 0-.1 0-.1-.1-.2z"/><path d="m19.7 72.1v.2s-.1.1-.1.1.1 0 .1.1v.2s.1-.1.1-.1h.2s-.1-.1-.1-.1c0-.1 0-.1.1-.2-.1 0-.1 0-.2.1 0-.2-.1-.3-.1-.3z"/><path d="m18 73.1v.2s-.1.1-.1.1h.1v.2c0-.1.1-.1.1-.2h.2s-.1-.1-.1-.1c0-.1 0-.1.1-.2-.1 0-.1 0-.2.1 0 0-.1-.1-.1-.1z"/><path d="m26.4 70.8v.1c-.1 0-.1 0-.2 0 .1 0 .1.1.2.1v.2s.1-.1.1-.1c.1 0 .1 0 .2.1 0-.1-.1-.1-.1-.2 0 0 .1-.1.1-.1-.1 0-.1 0-.2 0s-.1-.1-.1-.1z"/><path d="m24.4 71v.2c-.1 0-.1 0-.2.1.1 0 .1.1.2.1v.2s.1-.1.1-.1h.2s-.1-.1-.1-.1.1-.1.1-.1c-.1 0-.1 0-.2 0 0-.2-.1-.2-.1-.3z"/><path d="m22.5 71.5v.2s-.1.1-.1.1.1 0 .1.1v.2s.1-.1.1-.1h.2s-.1-.1-.1-.1.1-.1.1-.1c-.1 0-.1 0-.2 0 0-.2 0-.2-.1-.3z"/><path d="m20.8 72.3v.2s-.1.1-.1.1.1 0 .1.1v.2s.1-.1.1-.1h.2s-.1-.1-.1-.1c0-.1 0-.1.1-.2-.1 0-.1 0-.2 0 0-.1-.1-.2-.1-.2z"/><path d="m19.1 73.2v.2s-.1.1-.1.1h.1v.2s.1-.1.1-.1h.2s-.1-.1-.1-.1c0-.1 0-.1.1-.2-.1 0-.1 0-.2.1-.1-.1-.1-.1-.1-.2z"/><path d="m27.6 71.4v.1c-.1 0-.1 0-.2 0 .1 0 .1.1.2.1v.2s.1 0 .1-.1c.1 0 .1.1.2.1 0-.1-.1-.1-.1-.2 0 0 .1-.1.1-.1-.1 0-.1 0-.2 0 0 0-.1 0-.1-.1z"/><path d="m25.6 71.4v.1c-.1 0-.1 0-.2 0 .1 0 .1.1.2.1v.2s.1-.1.1-.1c.1 0 .1 0 .2.1 0-.1-.1-.1-.1-.2 0 0 .1-.1.1-.1-.1 0-.1 0-.2 0s-.1 0-.1-.1z"/><path d="m23.7 71.8v.2s-.1 0-.1.1c0 0 .1.1.1.1v.2s.1-.1.1-.1h.2s-.1-.1-.1-.1.1-.1.1-.1c-.1 0-.1 0-.2 0-.1-.2-.1-.2-.1-.3z"/><path d="m21.9 72.5v.2s-.1.1-.1.1.1 0 .1.1v.2s.1-.1.1-.1h.2s-.1-.1-.1-.1c0-.1 0-.1.1-.2-.1 0-.1 0-.2 0-.1-.2-.1-.2-.1-.2z"/><path d="m20.1 73.3v.2s-.1.1-.1.1.1 0 .1.1v.2s.1-.1.1-.1h.2s-.1-.1-.1-.1c0-.1 0-.1.1-.2-.1 0-.1 0-.2.1 0-.2-.1-.2-.1-.3z"/><path d="m18.4 74.3v.2s-.1.1-.1.1h.1v.2c0-.1.1-.1.1-.2h.2s-.1-.1-.1-.1c0-.1 0-.1.1-.2-.1 0-.1 0-.2.1 0 0 0 0-.1-.1z"/></g><path fill="#ffcd2d" d="m25.5 64.6c-.1-.4.1-.8.5-.9.3 0 .5.1.7.3.1.2.1.5 0 .7-.1.1-.1.3-.1.4l7.3 21.8c0 .1 0 .2-.1.2s-.2 0-.2-.1l-7.3-21.8c-.1-.2-.2-.3-.4-.3-.2.1-.3 0-.4-.3z"/><path fill="#ff2b42" d="m106.6 74.6c-8.9 1.3-13.9-9-22.9-7.6.1-.4.2-.7.4-1.1 8.9-1.3 13.9 9 22.9 7.6-.2.4-.3.8-.4 1.1z"/><path fill="#fff" d="m106.2 75.6c-8.9 1.3-13.9-9-22.9-7.6.1-.4.2-.7.4-1.1 8.9-1.3 13.9 9 22.9 7.6-.1.4-.2.7-.4 1.1z"/><path fill="#ff2b42" d="m105.9 76.6c-8.9 1.3-13.9-9-22.8-7.6.1-.4.2-.7.4-1.1 8.9-1.3 13.9 9 22.9 7.6-.3.4-.4.7-.5 1.1z"/><path fill="#fff" d="m105.6 77.6c-8.9 1.3-13.9-9-22.9-7.6.1-.4.2-.7.4-1.1 8.9-1.3 13.9 9 22.9 7.6-.2.4-.3.7-.4 1.1z"/><path fill="#ff2b42" d="m105.3 78.6c-8.9 1.3-13.9-9-22.9-7.6.1-.4.2-.7.4-1.1 8.9-1.3 13.9 9 22.9 7.6-.2.3-.3.7-.4 1.1z"/><path fill="#fff" d="m104.9 79.5c-8.9 1.3-13.9-9-22.9-7.6.1-.4.2-.7.4-1.1 8.9-1.3 13.9 9 22.9 7.6-.1.4-.3.8-.4 1.1z"/><path fill="#ff2b42" d="m104.6 80.5c-8.9 1.3-13.9-9-22.9-7.6.1-.4.2-.7.4-1.1 8.9-1.3 13.9 9 22.9 7.6-.2.4-.3.8-.4 1.1z"/><path fill="#fff" d="m104.3 81.5c-8.9 1.3-13.9-9-22.9-7.6.1-.4.2-.7.4-1.1 8.9-1.3 13.9 9 22.9 7.6-.2.4-.3.8-.4 1.1z"/><path fill="#ff2b42" d="m103.9 82.5c-8.9 1.3-13.9-9-22.9-7.6.1-.4.2-.7.4-1.1 8.9-1.3 13.9 9 22.9 7.6-.1.4-.2.8-.4 1.1z"/><path fill="#fff" d="m103.6 83.5c-8.9 1.3-13.9-9-22.9-7.6.1-.4.2-.7.4-1.1 8.9-1.3 13.9 9 22.9 7.6-.2.4-.3.7-.4 1.1z"/><path fill="#ff2b42" d="m103.3 84.5c-8.9 1.3-13.9-9-22.9-7.6.1-.4.2-.7.4-1.1 8.9-1.3 13.9 9 22.9 7.6-.2.4-.3.7-.4 1.1z"/><path fill="#fff" d="m102.9 85.5c-8.9 1.3-13.9-9-22.9-7.6.1-.4.2-.7.4-1.1 8.9-1.3 13.9 9 22.9 7.6-.1.4-.2.7-.4 1.1z"/><path fill="#ff2b42" d="m102.6 86.5c-8.9 1.3-13.9-9-22.9-7.6.1-.4.2-.7.4-1.1 8.9-1.3 13.9 9 22.9 7.6-.1.3-.3.7-.4 1.1z"/><path fill="#0089d3" d="m92.3 76.1c-3.2-2-6.4-3.8-10.5-3.2.8-2.3 1.5-4.6 2.3-6.9 4.1-.6 7.3 1.2 10.5 3.2-.8 2.2-1.6 4.5-2.3 6.9z"/><path fill="#fff" d="m84.6 66.5v.1h.2c-.1 0-.1.1-.2.1v.2s-.1 0-.1-.1c-.1 0-.1.1-.2.1 0-.1.1-.1.1-.2 0 0-.1-.1-.1-.1h.2s0-.1.1-.1z"/><path fill="#fff" d="m86.6 66.5v.1h.2c-.1 0-.1.1-.2.1v.2s-.1-.1-.1-.1c-.1 0-.1 0-.2.1 0-.1.1-.1.1-.2 0 0-.1-.1-.1-.1h.2s.1-.1.1-.1z"/><path fill="#fff" d="m88.5 66.9v.2s.1 0 .1.1c0 0-.1.1-.1.1v.2s-.1-.1-.1-.1c-.1 0-.1 0-.2 0 0 0 .1-.1.1-.1s-.1-.1-.1-.1h.2c0-.2.1-.3.1-.3z"/><path fill="#fff" d="m90.3 67.5v.2s.1.1.1.1-.1 0-.1.1v.2s-.1-.1-.1-.1c-.1 0-.1 0-.2 0 0 0 .1-.1.1-.1 0-.1 0-.1-.1-.2h.2c0-.1.1-.1.1-.2z"/><path fill="#fff" d="m92.1 68.4v.2s.1.1.1.1-.1 0-.1.1v.2s-.1-.1-.1-.1c-.1 0-.1 0-.2 0 0 0 .1-.1.1-.1 0-.1 0-.1-.1-.2.1 0 .1 0 .2.1 0-.2 0-.3.1-.3z"/><path fill="#fff" d="m93.7 69.4v.2s.1.1.1.1h-.1v.2c0-.1-.1-.1-.1-.2-.1 0-.1 0-.2 0 0 0 .1-.1.1-.1 0-.1 0-.1-.1-.2.1 0 .1 0 .2.1.1 0 .1-.1.1-.1z"/><path fill="#fff" d="m85.4 67.1v.1h.2c-.1 0-.1.1-.2.1v.2s-.1-.1-.1-.1c-.1 0-.1 0-.2.1 0-.1.1-.1.1-.2 0 0-.1-.1-.1-.1h.2s.1-.1.1-.1z"/><path fill="#fff" d="m87.4 67.3v.2c.1 0 .1 0 .2.1-.1 0-.1.1-.2.1v.2s-.1-.1-.1-.1c-.1 0-.1 0-.2 0 0 0 .1-.1.1-.1s-.1-.1-.1-.1h.2c0-.2 0-.3.1-.3z"/><path fill="#fff" d="m89.2 67.8v.2s.1.1.1.1-.1 0-.1.1v.2s-.1-.1-.1-.1c-.1 0-.1 0-.2 0 0 0 .1-.1.1-.1s-.1-.1-.1-.1h.2c0-.2.1-.2.1-.3z"/><path fill="#fff" d="m91 68.6v.2s.1.1.1.1-.1 0-.1.1v.2s-.1-.1-.1-.1c-.1 0-.1 0-.2 0 0 0 .1-.1.1-.1 0-.1 0-.1-.1-.2h.2c0-.1 0-.2.1-.2z"/><path fill="#fff" d="m92.7 69.5v.2s.1.1.1.1h-.1v.2s-.1-.1-.1-.1c-.1 0-.1 0-.2 0 0 0 .1-.1.1-.1 0-.1 0-.1-.1-.2.1 0 .1 0 .2.1 0-.1.1-.1.1-.2z"/><path fill="#fff" d="m84.2 67.7v.1h.2c-.1 0-.1.1-.2.1v.2s-.1 0-.1-.1c-.1 0-.1.1-.2.1 0-.1.1-.1.1-.2 0 0-.1-.1-.1-.1h.2s0 0 .1-.1z"/><path fill="#fff" d="m86.2 67.7v.1h.2c-.1 0-.1.1-.2.1v.2s-.1-.1-.1-.1c-.1 0-.1 0-.2.1 0-.1.1-.1.1-.2 0 0-.1-.1-.1-.1h.2s.1 0 .1-.1z"/><path fill="#fff" d="m88.1 68.1v.2s.1 0 .1.1c0 0-.1.1-.1.1v.2s-.1-.1-.1-.1c-.1 0-.1 0-.2 0 0 0 .1-.1.1-.1s-.1-.1-.1-.1h.2c0-.2.1-.2.1-.3z"/><path fill="#fff" d="m89.9 68.8v.2s.1.1.1.1-.1 0-.1.1v.2s-.1-.1-.1-.1c-.1 0-.1 0-.2 0 0 0 .1-.1.1-.1 0-.1 0-.1-.1-.2h.2c0-.2.1-.2.1-.2z"/><path fill="#fff" d="m91.6 69.6v.2s.1.1.1.1-.1 0-.1.1v.2s-.1-.1-.1-.1c-.1 0-.1 0-.2 0 0 0 .1-.1.1-.1 0-.1 0-.1-.1-.2.1 0 .1 0 .2.1.1-.2.1-.2.1-.3z"/><path fill="#fff" d="m93.3 70.6v.2s.1.1.1.1h-.1v.2c0-.1-.1-.1-.1-.2-.1 0-.1 0-.2 0 0 0 .1-.1.1-.1 0-.1 0-.1-.1-.2.1 0 .1 0 .2.1.1 0 .1 0 .1-.1z"/><path fill="#fff" d="m85 68.3v.1h.2c-.1 0-.1.1-.2.1v.2s-.1-.1-.1-.1c-.1 0-.1 0-.2.1 0-.1.1-.1.1-.2 0 0-.1-.1-.1-.1h.2s.1 0 .1-.1z"/><path fill="#fff" d="m86.9 68.5v.2c.1 0 .1 0 .2.1-.1 0-.1.1-.2.1v.2s-.1-.1-.1-.1c-.1 0-.1 0-.2 0 0 0 .1-.1.1-.1s-.1-.1-.1-.1h.2c.1-.2.1-.2.1-.3z"/><path fill="#fff" d="m88.8 69.1v.2s.1.1.1.1-.1 0-.1.1v.2s-.1-.1-.1-.1c-.1 0-.1 0-.2 0 0 0 .1-.1.1-.1s-.1-.1-.1-.1h.2c0-.3.1-.3.1-.3z"/><path fill="#fff" d="m90.6 69.8v.2s.1.1.1.1-.1 0-.1.1v.2s-.1-.1-.1-.1c-.1 0-.1 0-.2 0 0 0 .1-.1.1-.1 0-.1 0-.1-.1-.2h.2c0-.1 0-.1.1-.2z"/><path fill="#fff" d="m92.3 70.8v.2s.1.1.1.1h-.1v.2s-.1-.1-.1-.1c-.1 0-.1 0-.2 0 0 0 .1-.1.1-.1 0-.1 0-.1-.1-.2.1 0 .1 0 .2.1 0-.2 0-.2.1-.2z"/><path fill="#fff" d="m83.8 68.9v.1h.2c-.1 0-.1.1-.2.1v.2s-.1 0-.1-.1c-.1 0-.1.1-.2.1 0-.1.1-.1.1-.2 0 0-.1-.1-.1-.1h.2s0 0 .1-.1z"/><path fill="#fff" d="m85.8 69v.1h.2c-.1 0-.1.1-.2.1v.2s-.1-.1-.1-.1c-.1 0-.1 0-.2.1 0-.1.1-.1.1-.2 0 0-.1-.1-.1-.1h.2s0-.1.1-.1z"/><path fill="#fff" d="m87.7 69.3v.2s.1 0 .1.1c0 0-.1.1-.1.1v.2s-.1-.1-.1-.1c-.1 0-.1 0-.2 0 0 0 .1-.1.1-.1s-.1-.1-.1-.1h.2c0-.2 0-.2.1-.3z"/><path fill="#fff" d="m89.5 70v.2s.1.1.1.1-.1 0-.1.1v.2s-.1-.1-.1-.1c-.1 0-.1 0-.2 0 0 0 .1-.1.1-.1 0-.1 0-.1-.1-.2h.2c0-.1.1-.2.1-.2z"/><path fill="#fff" d="m91.2 70.9v.2s.1.1.1.1-.1 0-.1.1v.2s-.1-.1-.1-.1c-.1 0-.1 0-.2 0 0 0 .1-.1.1-.1 0-.1 0-.1-.1-.2.1 0 .1 0 .2.1.1-.3.1-.3.1-.3z"/><path fill="#fff" d="m92.9 71.9v.2s.1.1.1.1h-.1v.2c0-.1-.1-.1-.1-.2-.1 0-.1 0-.2 0 0 0 .1-.1.1-.1 0-.1 0-.1-.1-.2.1 0 .1 0 .2.1.1-.1.1-.1.1-.1z"/><path fill="#fff" d="m84.6 69.6v.1h.2c-.1 0-.1.1-.2.1v.2s-.1-.1-.1-.1c-.1 0-.1 0-.2.1 0-.1.1-.1.1-.2 0 0-.1-.1-.1-.1h.2s0-.1.1-.1z"/><path fill="#fff" d="m86.5 69.8v.2c.1 0 .1 0 .2.1-.1 0-.1.1-.2.1v.2s-.1-.1-.1-.1c-.1 0-.1 0-.2 0 0 0 .1-.1.1-.1s-.1-.1-.1-.1h.2c.1-.2.1-.3.1-.3z"/><path fill="#fff" d="m88.4 70.3v.2s.1.1.1.1-.1 0-.1.1v.2s-.1-.1-.1-.1c-.1 0-.1 0-.2 0 0 0 .1-.1.1-.1s-.1-.1-.1-.1h.2c0-.2 0-.3.1-.3z"/><path fill="#fff" d="m90.2 71.1v.2s.1.1.1.1-.1 0-.1.1v.2s-.1-.1-.1-.1c-.1 0-.1 0-.2 0 0 0 .1-.1.1-.1 0-.1 0-.1-.1-.2h.2c0-.2 0-.2.1-.2z"/><path fill="#fff" d="m91.9 72v.2s.1.1.1.1h-.1v.2s-.1-.1-.1-.1c-.1 0-.1 0-.2 0 0 0 .1-.1.1-.1 0-.1 0-.1-.1-.2.1 0 .1 0 .2.1 0-.1 0-.2.1-.2z"/><path fill="#fff" d="m83.4 70.2v.1h.2c-.1 0-.1.1-.2.1v.2s-.1 0-.1-.1c-.1 0-.1.1-.2.1 0-.1.1-.1.1-.2 0 0-.1-.1-.1-.1h.2s0-.1.1-.1z"/><path fill="#fff" d="m85.4 70.2v.1h.2c-.1 0-.1.1-.2.1v.2s-.1-.1-.1-.1c-.1 0-.1 0-.2.1 0-.1.1-.1.1-.2 0 0-.1-.1-.1-.1h.2s0-.1.1-.1z"/><path fill="#fff" d="m87.3 70.6v.2s.1 0 .1.1c0 0-.1.1-.1.1v.2s-.1-.1-.1-.1c-.1 0-.1 0-.2 0 0 0 .1-.1.1-.1s-.1-.1-.1-.1h.2c0-.2 0-.3.1-.3z"/><path fill="#fff" d="m89.1 71.2v.2s.1.1.1.1-.1 0-.1.1v.2s-.1-.1-.1-.1c-.1 0-.1 0-.2 0 0 0 .1-.1.1-.1 0-.1 0-.1-.1-.2h.2c0-.1 0-.1.1-.2z"/><path fill="#fff" d="m90.8 72.1v.2s.1.1.1.1-.1 0-.1.1v.2s-.1-.1-.1-.1c-.1 0-.1 0-.2 0 0 0 .1-.1.1-.1 0-.1 0-.1-.1-.2.1 0 .1 0 .2.1 0-.2.1-.3.1-.3z"/><path fill="#fff" d="m92.5 73.1v.2s.1.1.1.1h-.1v.2c0-.1-.1-.1-.1-.2-.1 0-.1 0-.2 0 0 0 .1-.1.1-.1 0-.1 0-.1-.1-.2.1 0 .1 0 .2.1 0 0 .1-.1.1-.1z"/><path fill="#fff" d="m84.2 70.8v.1h.2c-.1 0-.1.1-.2.1v.2s-.1-.1-.1-.1c-.1 0-.1 0-.2.1 0-.1.1-.1.1-.2 0 0-.1-.1-.1-.1h.2s0-.1.1-.1z"/><path fill="#fff" d="m86.1 71v.2c.1 0 .1 0 .2.1-.1 0-.1.1-.2.1v.2s-.1-.1-.1-.1c-.1 0-.1 0-.2 0 0 0 .1-.1.1-.1s-.1-.1-.1-.1h.2c0-.2.1-.2.1-.3z"/><path fill="#fff" d="m88 71.5v.2s.1.1.1.1-.1 0-.1.1v.2s-.1-.1-.1-.1c-.1 0-.1 0-.2 0 0 0 .1-.1.1-.1s-.1-.1-.1-.1h.2c0-.2 0-.2.1-.3z"/><path fill="#fff" d="m89.7 72.3v.2s.1.1.1.1-.1 0-.1.1v.2s-.1-.1-.1-.1c-.1 0-.1 0-.2 0 0 0 .1-.1.1-.1 0-.1 0-.1-.1-.2h.2c.1-.1.1-.2.1-.2z"/><path fill="#fff" d="m91.5 73.2v.2s.1.1.1.1h-.1v.2s-.1-.1-.1-.1c-.1 0-.1 0-.2 0 0 0 .1-.1.1-.1 0-.1 0-.1-.1-.2.1 0 .1 0 .2.1 0-.1 0-.1.1-.2z"/><path fill="#fff" d="m82.9 71.4v.1h.2c-.1 0-.1.1-.2.1v.2s-.1 0-.1-.1c-.1 0-.1.1-.2.1 0-.1.1-.1.1-.2 0 0-.1-.1-.1-.1h.2c.1 0 .1 0 .1-.1z"/><path fill="#fff" d="m85 71.4v.1h.2c-.1 0-.1.1-.2.1v.2s-.1-.1-.1-.1c-.1 0-.1 0-.2.1 0-.1.1-.1.1-.2 0 0-.1-.1-.1-.1h.2s0 0 .1-.1z"/><path fill="#fff" d="m86.9 71.8v.2s.1 0 .1.1c0 0-.1.1-.1.1v.2s-.1-.1-.1-.1c-.1 0-.1 0-.2 0 0 0 .1-.1.1-.1s-.1-.1-.1-.1h.2c0-.2 0-.2.1-.3z"/><path fill="#fff" d="m88.7 72.5v.2s.1.1.1.1-.1 0-.1.1v.2s-.1-.1-.1-.1c-.1 0-.1 0-.2 0 0 0 .1-.1.1-.1 0-.1 0-.1-.1-.2h.2c0-.2 0-.2.1-.2z"/><path fill="#fff" d="m90.4 73.3v.2s.1.1.1.1-.1 0-.1.1v.2s-.1-.1-.1-.1c-.1 0-.1 0-.2 0 0 0 .1-.1.1-.1 0-.1 0-.1-.1-.2.1 0 .1 0 .2.1 0-.2.1-.2.1-.3z"/><path fill="#fff" d="m92.1 74.3v.2s.1.1.1.1h-.1v.2c0-.1-.1-.1-.1-.2-.1 0-.1 0-.2 0 0 0 .1-.1.1-.1 0-.1 0-.1-.1-.2.1 0 .1 0 .2.1 0 0 .1 0 .1-.1z"/><path fill="#ffcd2d" d="m85 64.6c.1-.4-.1-.8-.5-.9-.3 0-.5.1-.7.3-.1.2-.1.5 0 .7.1.1.1.3.1.4l-7.3 21.8c0 .1 0 .2.1.2s.2 0 .2-.1l7.3-21.8c.1-.2.2-.3.4-.3.2.1.4 0 .4-.3z"/><path fill="#0e2947" d="m31.1 89.5c-.1-.3.1-.6.4-.7l2.6-.6c.3-.1.6.1.7.4s-.1.6-.4.7l-2.6.7c-.3 0-.6-.2-.7-.5"/><path fill="#0e2947" d="m32.3 85c.2-.2.6-.2.8 0l1.9 1.8c.2.2.2.6 0 .8s-.6.2-.8 0l-1.9-1.8c-.2-.3-.2-.6 0-.8"/><path fill="#0e2947" d="m35.7 81.6c.3 0 .7.3.7.6l.4 3.1c0 .4-.2.7-.5.7s-.7-.3-.7-.6l-.4-3.1c-.1-.4.2-.7.5-.7"/><path fill="#eff4ee" d="m24 89 5.5-1.2c.8-.2 1.5.3 1.7 1.1l.3 1.2c.2.8-.3 1.5-1.1 1.7l-5.5 1.2"/><path fill="#0e2947" d="m23.4 89.1c-.1-.3.1-.6.4-.7l5.5-1.2c1.1-.2 2.1.4 2.4 1.5l.3 1.2c.2 1.1-.4 2.1-1.5 2.4l-5.5 1.2c-.3.1-.6-.1-.7-.4s.1-.6.4-.7l5.5-1.2c.5-.1.7-.6.6-1l-.2-1.2c-.1-.5-.6-.7-1-.6l-5.5 1.2c-.3 0-.6-.2-.7-.5"/><path fill="#25e899" d="m24 89c-1.1.2-1.8 1.3-1.5 2.4.2 1.1 1.3 1.8 2.4 1.5 1.1-.2 1.8-1.3 1.5-2.4-.2-1.1-1.3-1.8-2.4-1.5"/><path fill="#0e2947" d="m21.9 91.5c-.3-1.4.6-2.8 2-3.1s2.8.6 3.1 2-.6 2.8-2 3.1-2.8-.6-3.1-2m3.9-.8c-.2-.8-1-1.3-1.7-1.1-.8.2-1.3 1-1.1 1.7.2.8 1 1.3 1.7 1.1.8-.2 1.3-1 1.1-1.7"/><path fill="#eff4ee" d="m28.7 79.3 4.2 3.8c.6.5.6 1.4.1 2l-.8.9c-.5.6-1.4.6-2 .1l-4.2-3.8"/><path fill="#0e2947" d="m28.3 78.9c.2-.2.6-.2.8 0l4.2 3.8c.8.7.9 2 .1 2.8l-.8.9c-.7.8-2 .9-2.8.1l-4.2-3.8c-.2-.2-.3-.6 0-.8.2-.2.6-.3.8 0l4.2 3.8c.3.3.9.3 1.2-.1l.8-.9c.3-.3.3-.9-.1-1.2l-4.2-3.8c-.2-.2-.2-.6 0-.8"/><path fill="#25e899" d="m28.7 79.3c-.8-.8-2.1-.7-2.9.1s-.7 2.1.1 2.9 2.1.7 2.9-.1c.8-.9.7-2.2-.1-2.9"/><path fill="#0e2947" d="m25.4 79c1-1.1 2.6-1.1 3.7-.2 1.1 1 1.1 2.6.2 3.7-1 1.1-2.6 1.1-3.7.2-1.1-1-1.1-2.6-.2-3.7m3 2.7c.5-.6.5-1.5-.1-2.1-.6-.5-1.5-.5-2.1.1-.5.6-.5 1.5.1 2.1.7.6 1.6.5 2.1-.1"/><path fill="#eff4ee" d="m36.4 75.2.9 5.5c.1.8-.4 1.5-1.2 1.6l-1.1.3c-.8.1-1.5-.4-1.6-1.2l-.9-5.5"/><path fill="#0e2947" d="m36.3 74.6c.3-.1.6.2.7.5l.9 5.5c.2 1.1-.6 2.1-1.6 2.3l-1.2.2c-1.1.2-2.1-.5-2.3-1.6l-.9-5.5c-.1-.3.2-.6.5-.7s.6.2.7.5l.9 5.5c.1.5.5.8 1 .7l1.2-.2c.5-.1.8-.5.7-1l-.9-5.5c-.2-.3 0-.6.3-.7"/><path fill="#25e899" d="m36.4 75.2c-.2-1.1-1.2-1.8-2.3-1.7-1.1.2-1.8 1.2-1.7 2.3.2 1.1 1.2 1.8 2.3 1.7 1.2-.1 1.9-1.2 1.7-2.3"/><path fill="#0e2947" d="m34 73c1.4-.2 2.8.7 3 2.1s-.7 2.8-2.1 3-2.8-.7-3-2.1c-.3-1.4.7-2.8 2.1-3m.7 4c.8-.1 1.3-.9 1.2-1.7s-.9-1.3-1.7-1.2-1.3.9-1.2 1.7.9 1.3 1.7 1.2"/><path fill="#0e2947" d="m79.4 93c0 .3-.2.6-.5.6l-2.6.2c-.3 0-.6-.2-.6-.5s.2-.6.5-.6l2.6-.2c.3 0 .6.2.6.5"/><path fill="#0e2947" d="m76.9 89c.3.1.4.5.2.8l-1.2 2.3c-.1.3-.5.4-.8.2-.3-.1-.4-.5-.2-.8l1.2-2.3c.1-.2.5-.3.8-.2"/><path fill="#0e2947" d="m72.6 86.9c.3-.1.7.1.7.5l.6 3.1c.1.4-.1.7-.5.8-.3.1-.7-.1-.7-.5l-.6-3.1c-.1-.4.2-.7.5-.8"/><path fill="#eff4ee" d="m86.4 94.3-5.6.5c-.8.1-1.5-.5-1.6-1.3l-.1-1.2c-.1-.8.5-1.5 1.3-1.6l5.6-.5"/><path fill="#0e2947" d="m86.6 90.3c0 .3-.2.6-.5.6l-5.6.5c-.5 0-.8.5-.8.9l.1 1.2c0 .5.5.8.9.8l5.6-.5c.3 0 .6.2.6.5s-.2.6-.5.6l-5.6.5c-1.1.1-2.1-.7-2.2-1.8l-.1-1.2c-.1-1.1.7-2.1 1.8-2.2l5.6-.5c.4 0 .7.2.7.6"/><path fill="#25e899" d="m86 90.3c-1.1.1-1.9 1.1-1.8 2.2s1.1 1.9 2.2 1.8 1.9-1.1 1.8-2.2-1-1.9-2.2-1.8"/><path fill="#0e2947" d="m88.8 92.1c.1 1.4-.9 2.7-2.3 2.8s-2.7-.9-2.8-2.3.9-2.7 2.3-2.8c1.4-.2 2.7.9 2.8 2.3m-4 .4c.1.8.8 1.4 1.6 1.3s1.4-.8 1.3-1.6-.8-1.4-1.6-1.3-1.4.8-1.3 1.6"/><path fill="#eff4ee" d="m82.1 84.5-2.8 4.9c-.4.7-1.3.9-1.9.5l-1-.6c-.7-.4-.9-1.3-.5-1.9l2.8-4.9"/><path fill="#0e2947" d="m78.8 82c.3.2.4.5.2.8l-2.8 4.9c-.2.4-.1.9.3 1.2l1.1.6c.4.2.9.1 1.2-.3l2.8-4.9c.2-.3.5-.4.8-.2s.4.5.2.8l-2.8 4.9c-.5 1-1.8 1.3-2.7.7l-1-.6c-1-.5-1.3-1.8-.7-2.7l2.8-4.9c0-.3.4-.4.6-.3"/><path fill="#25e899" d="m78.6 82.5c-.6 1-.2 2.2.8 2.8s2.2.2 2.8-.8.2-2.2-.8-2.8c-1-.5-2.3-.2-2.8.8"/><path fill="#0e2947" d="m81.6 81.3c1.2.7 1.7 2.3 1 3.5s-2.3 1.7-3.5 1-1.7-2.3-1-3.5c.7-1.3 2.3-1.7 3.5-1m-2 3.5c.7.4 1.6.2 2-.5s.2-1.6-.5-2-1.6-.2-2 .5-.2 1.6.5 2"/><path fill="#eff4ee" d="m74 80.4.8 5.6c.1.8-.4 1.5-1.2 1.6l-1.2.2c-.8.1-1.5-.4-1.6-1.2l-.8-5.6"/><path fill="#0e2947" d="m69.9 80.5c.3 0 .6.2.6.5l.8 5.6c.1.5.5.8 1 .7l1.2-.2c.5-.1.8-.5.7-1l-.8-5.6c0-.3.2-.6.5-.6s.6.2.6.5l.8 5.6c.2 1.1-.6 2.1-1.7 2.3l-1.2.2c-1.1.2-2.1-.6-2.3-1.7l-.8-5.6c0-.4.3-.7.6-.7"/><path fill="#25e899" d="m70 81c.2 1.1 1.2 1.9 2.3 1.7s1.9-1.2 1.7-2.3-1.2-1.9-2.3-1.7-1.9 1.2-1.7 2.3"/><path fill="#0e2947" d="m71.6 78.2c1.4-.2 2.7.8 2.9 2.2s-.8 2.7-2.2 2.9-2.7-.8-2.9-2.2.8-2.7 2.2-2.9m.6 4c.8-.1 1.3-.9 1.2-1.7s-.9-1.3-1.7-1.2-1.3.9-1.2 1.7c.1.7.9 1.3 1.7 1.2"/><path fill="#fff" d="m66.6 117.2 1.6-.9.1.1c.2.3.3.6.3.8v.8c-.1.6-.5 1.1-1 1.4s-1.1.4-1.7.2-1.1-.5-1.4-1.1c-.3-.5-.4-1.1-.2-1.7s.5-1.1 1.1-1.4c.3-.2.6-.3.9-.3s.7 0 1.1.2l-.2.6c-.5-.2-1-.2-1.5 0-.4.2-.7.6-.8 1s-.1.8.2 1.3c.2.4.6.7 1.1.8.4.1.8 0 1.1-.2s.5-.4.6-.7.1-.6 0-.9l-.9.5z"/><path fill="#fff" d="m70.2 112.8h.7v4.4h-.7z" transform="matrix(.8665 -.4992 .4992 .8665 -48.0055 50.572)"/><path fill="#fff" d="m73.3 111.6 1.9 3.3-.6.3-1.9-3.2-.8.5-.3-.6 2.3-1.3.3.5z"/><path fill="#fff" d="m78.5 108.2.4.7c-.5-.1-.9 0-1.3.2s-.6.6-.7 1 0 .9.2 1.3.6.7 1 .8.8.1 1.2-.2c.2-.1.4-.2.5-.4.1-.1.1-.2.2-.3s.1-.2.2-.4l.4.7c-.2.4-.5.7-.9.9-.5.3-1.1.4-1.7.2s-1.1-.5-1.4-1-.4-1-.3-1.6c.1-.7.5-1.2 1.1-1.6.3-.2.6-.3 1.1-.3"/><path fill="#25e899" d="m81.2 108c-.3-.5-.4-1.1-.2-1.7s.5-1.1 1.1-1.4c.5-.3 1.1-.4 1.7-.2s1.1.5 1.4 1.1c.3.5.4 1.1.2 1.7s-.5 1.1-1.1 1.4c-.5.3-1 .4-1.6.3-.6-.2-1.1-.5-1.5-1.2m.6-.3c.2.4.6.7 1 .8s.8.1 1.2-.2c.4-.2.7-.6.8-1s.1-.9-.2-1.3c-.2-.4-.6-.7-1-.8s-.8-.1-1.2.2c-.4.2-.6.6-.8 1-.1.5 0 .9.2 1.3"/><path fill="#fff" d="m87.2 103.1h.7v4.4h-.7z" transform="matrix(.8663 -.4995 .4995 .8663 -40.874 57.7872)"/><path fill="#fff" d="m91.1 105.7-2.3-4 4.4 1.3-1.5-2.7.6-.3 2.3 4-4.4-1.3 1.5 2.7z"/><path fill="#fff" d="m12.5 31.2-.5-1-1.2.7.5 1-.5.3-1.4-2.4.5-.3.6 1 1.2-.7-.6-1 .4-.3 1.5 2.5z"/><path fill="#fff" d="m13.7 28.3.4-.2 1 1.7-.4.2-.2-.2c0 .3-.2.5-.4.6-.5.3-1 .2-1.4-.4-.3-.6-.1-1.1.4-1.4.2-.1.5-.1.7 0zm-.5 1.4c.2.3.5.4.8.2.7-.4.1-1.4-.6-1-.3.2-.4.5-.2.8z"/><path fill="#fff" d="m15.8 30.3-1.3-2.4.4-.2.2.2c0-.3.2-.5.4-.6.5-.3 1.1-.1 1.4.4s.2 1.1-.4 1.4c-.2.1-.5.2-.7.1l.5.9zm.6-2.3c-.1-.3-.4-.4-.7-.2s-.4.5-.2.7.5.4.7.2.3-.5.2-.7z"/><path fill="#fff" d="m18 29.1-1.3-2.4.4-.2.2.2c0-.3.2-.5.4-.6.5-.3 1.1-.1 1.4.4s.2 1.1-.4 1.4c-.2.1-.5.2-.7.1l.5.9zm.5-2.4c-.1-.3-.4-.4-.7-.2s-.4.5-.2.7.5.4.7.2.3-.4.2-.7z"/><path fill="#fff" d="m20.4 24.5.3 3-.5.3-.1-.9-1.6-1.3.5-.3.7.6.4.4-.1-.6v-.9z"/><path fill="#fff" d="m22.3 25.7-1.3-2.4.4-.3 1.4 2.4z"/><path fill="#fff" d="m24.4 24.5-.5-.9c-.1-.3-.4-.4-.7-.2-.3.1-.3.5-.2.7l.5.9-.4.2-1-1.7.4-.2.2.2c.1-.3.2-.4.4-.6.4-.2.9-.1 1.2.4l.5.9z"/><path fill="#fff" d="m25.6 20.7 1.3 2.4-.4.2-.2-.2c0 .3-.2.5-.4.6-.5.3-1.1.2-1.4-.4s-.1-1.1.4-1.4c.2-.1.5-.2.7 0l-.5-.9zm-.5 2.3c.2.3.5.4.8.2.3-.1.4-.5.2-.8s-.5-.4-.8-.2-.4.5-.2.8z"/><path fill="#fff" d="m27.3 22c.1.2.4.2.7.1.2-.1.3-.3.4-.4l.4.1c-.1.3-.3.5-.6.7-.6.3-1.1.2-1.4-.4-.3-.5-.1-1.1.4-1.4.6-.3 1.1-.2 1.4.6zm.7-.9c-.2-.2-.4-.2-.6-.1s-.3.3-.3.6z"/><path fill="#fff" d="m29.7 22.4-1.3-2.4.4-.2.2.2c0-.3.2-.5.4-.6.5-.3 1.1-.1 1.4.4s.2 1.1-.4 1.4c-.2.1-.5.2-.7.1l.5.9zm.6-2.3c-.1-.3-.4-.4-.7-.2s-.4.5-.2.7.5.4.7.2c.2-.1.3-.4.2-.7z"/><path fill="#fff" d="m31.4 19.6c.1.2.4.2.7.1.2-.1.3-.3.4-.4l.4.1c-.1.3-.3.5-.6.7-.6.3-1.1.2-1.4-.4-.3-.5-.1-1.1.4-1.4.6-.3 1.1-.2 1.4.6zm.7-.8c-.2-.2-.4-.2-.6-.1s-.3.3-.3.6z"/><path fill="#fff" d="m34.7 18.7-.5-.9c-.1-.3-.4-.4-.7-.2-.3.1-.3.5-.2.7l.5.9-.4.2-1-1.7.4-.2.2.2c.1-.3.2-.4.4-.6.4-.2.9-.1 1.2.4l.5.9z"/><path fill="#fff" d="m35.9 14.9 1.3 2.4-.4.2-.2-.2c0 .3-.2.5-.4.6-.5.3-1.1.2-1.4-.4s-.1-1.1.4-1.4c.2-.1.5-.2.7 0l-.5-.9zm-.6 2.3c.2.3.5.4.8.2.3-.1.4-.5.2-.8s-.5-.4-.8-.2c-.2.2-.3.5-.2.8z"/><path fill="#fff" d="m37.6 16.2c.1.2.4.2.7.1.2-.1.3-.3.4-.4l.4.1c-.1.3-.3.5-.6.7-.6.3-1.1.2-1.4-.4-.3-.5-.1-1.1.4-1.4.6-.3 1.1-.2 1.4.6zm.7-.9c-.2-.2-.4-.2-.6-.1s-.3.3-.3.6z"/><path fill="#fff" d="m40.8 15.2-.5-.9c-.1-.3-.4-.4-.7-.2-.3.1-.3.5-.2.7l.5.9-.4.2-1-1.7.5-.2.2.2c.1-.3.2-.4.4-.6.4-.2.9-.1 1.2.4l.5.9z"/><path fill="#fff" d="m42.9 13.8c-.1.3-.2.5-.5.6-.5.3-1.1.2-1.4-.4s-.1-1.1.4-1.4c.2-.1.5-.2.7-.1l-.1.4c-.1 0-.3 0-.4.1-.3.2-.4.5-.2.8s.5.4.8.2c.1-.1.2-.2.3-.3z"/><path fill="#fff" d="m43.3 12.9c.1.2.4.2.7.1.2-.1.3-.3.4-.4l.4.1c-.1.3-.3.5-.6.7-.6.3-1.1.2-1.4-.4-.3-.5-.1-1.1.4-1.4.6-.3 1.1-.2 1.4.6zm.7-.8c-.2-.2-.4-.2-.6-.1s-.3.3-.3.6z"/><path fill="#fff" d="m47.4 9.9c.4.6.3 1.4-.5 1.9-.3.2-.6.4-.9.5l-1.4-2.4c.3-.2.6-.4.9-.5.9-.5 1.6-.1 1.9.5zm-1.2 1.7.5-.3c.5-.3.5-.8.3-1.2s-.6-.6-1.2-.3l-.5.3z"/><path fill="#fff" d="m48.8 8.5.4-.2 1 1.7-.4.2-.2-.2c0 .3-.2.5-.4.6-.5.3-1 .2-1.4-.4-.3-.6-.1-1.1.4-1.4.2-.1.5-.1.7 0zm-.5 1.4c.2.3.5.4.8.2.7-.4.1-1.4-.6-1-.3.2-.4.5-.2.8z"/><path fill="#fff" d="m51.2 7.2.3 3-.5.2-.1-.9-1.6-1.3.5-.3.7.6.4.4-.1-.6-.1-.9z"/></g></switch></svg>