<svg xmlns="http://www.w3.org/2000/svg" xmlns:xlink="http://www.w3.org/1999/xlink" id="el_zUUotVut_" width="111" height="128" version="1.1" viewBox="0 0 111 128"><style>@-webkit-keyframes kf_el_sbKcNluuBxI_an_-YLR8cRRB{0%,33.33%{-webkit-transform:translate(48.42750930786133px,49.66680145263672px) translate(-48.42750930786133px,-49.66680145263672px) translate(0,-20px);transform:translate(48.42750930786133px,49.66680145263672px) translate(-48.42750930786133px,-49.66680145263672px) translate(0,-20px)}45%{-webkit-transform:translate(48.42750930786133px,49.66680145263672px) translate(-48.42750930786133px,-49.66680145263672px) translate(0,0);transform:translate(48.42750930786133px,49.66680145263672px) translate(-48.42750930786133px,-49.66680145263672px) translate(0,0)}}@keyframes kf_el_sbKcNluuBxI_an_-YLR8cRRB{0%,33.33%{-webkit-transform:translate(48.42750930786133px,49.66680145263672px) translate(-48.42750930786133px,-49.66680145263672px) translate(0,-20px);transform:translate(48.42750930786133px,49.66680145263672px) translate(-48.42750930786133px,-49.66680145263672px) translate(0,-20px)}45%{-webkit-transform:translate(48.42750930786133px,49.66680145263672px) translate(-48.42750930786133px,-49.66680145263672px) translate(0,0);transform:translate(48.42750930786133px,49.66680145263672px) translate(-48.42750930786133px,-49.66680145263672px) translate(0,0)}}@-webkit-keyframes kf_el_sbKcNluuBxI_an_6PTo0haD1{0%,40.83%,90.83%{opacity:0}48.33%,83.33%{opacity:1}}@keyframes kf_el_sbKcNluuBxI_an_6PTo0haD1{0%,40.83%,90.83%{opacity:0}48.33%,83.33%{opacity:1}}@-webkit-keyframes kf_el_pkh-LDxytU0_an_KlNNUHgN4{0%,26.67%,76.67%{opacity:0}31.67%,39.17%,59.17%,71.67%{opacity:1}35%,49.17%{opacity:.5}}@keyframes kf_el_pkh-LDxytU0_an_KlNNUHgN4{0%,26.67%,76.67%{opacity:0}31.67%,39.17%,59.17%,71.67%{opacity:1}35%,49.17%{opacity:.5}}@-webkit-keyframes kf_el_mO_9BmumoUn_an_lrYl-Ww1a{0%,25%,79.17%{opacity:0}29.17%,71.67%{opacity:1}}@keyframes kf_el_mO_9BmumoUn_an_lrYl-Ww1a{0%,25%,79.17%{opacity:0}29.17%,71.67%{opacity:1}}@-webkit-keyframes kf_el_CZq7wlk1s2_an_NMpGIejb3{0%,94.17%{-webkit-transform:translate(39px,22px) translate(-39px,-22px) translate(0,0);transform:translate(39px,22px) translate(-39px,-22px) translate(0,0)}20%,81.67%{-webkit-transform:translate(39px,22px) translate(-39px,-22px) translate(0,16px);transform:translate(39px,22px) translate(-39px,-22px) translate(0,16px)}}@keyframes kf_el_CZq7wlk1s2_an_NMpGIejb3{0%,94.17%{-webkit-transform:translate(39px,22px) translate(-39px,-22px) translate(0,0);transform:translate(39px,22px) translate(-39px,-22px) translate(0,0)}20%,81.67%{-webkit-transform:translate(39px,22px) translate(-39px,-22px) translate(0,16px);transform:translate(39px,22px) translate(-39px,-22px) translate(0,16px)}}#el_zUUotVut_ *{-webkit-animation-duration:4s;animation-duration:4s;-webkit-animation-iteration-count:infinite;animation-iteration-count:infinite;-webkit-animation-timing-function:cubic-bezier(0,0,1,1);animation-timing-function:cubic-bezier(0,0,1,1)}#el_3FfJiqXJit{stroke:none;stroke-width:1;fill:none}#el_aUgLmO9KWL{fill:#ff0052}#el_L-85boAprX{fill:url(#linearGradient-1)}#el_SR1TNqp2si{-webkit-transform:translate(39px,22px);transform:translate(39px,22px)}#el_ZQZrGnx4lG{fill:#9796a3}#el_6epKk7fIc-{fill:#918f9d}#el_L0a5VMLcKx{fill:#9e9dab;-webkit-transform:translate(50px,16px) rotate(-270deg);transform:translate(50px,16px) rotate(-270deg)}#el_kJBabtN8A1{fill:#918f9d}#el_gtfClAfcJH{fill:#9e9dab;-webkit-transform:translate(25.684210999999998px,-8.315789px) rotate(-270deg);transform:translate(25.684210999999998px,-8.315789px) rotate(-270deg)}#el_fYB7TJs5xS{fill:#9796a3}#el_tKG5M_Nn4s{fill:#666667}#el_HwvzroC2KT{fill:#e6e6e7}#el_xZLT0JZ1u_U{-webkit-transform:translate(35px,40px);transform:translate(35px,40px)}#el_jJNf_OeuPFV{fill:#eae7e1}#el_3zp9z-nbZtD,#el_cStye1b5TC9{fill:#c84f3f}#el__rxWaXp1BNQ{fill:#58595b}#el_mO_9BmumoUn,#el_pkh-LDxytU0{fill-opacity:.5;fill:red;-webkit-animation-fill-mode:backwards;animation-fill-mode:backwards;opacity:0;-webkit-animation-name:kf_el_mO_9BmumoUn_an_lrYl-Ww1a;animation-name:kf_el_mO_9BmumoUn_an_lrYl-Ww1a;-webkit-animation-timing-function:cubic-bezier(0,0,1,1);animation-timing-function:cubic-bezier(0,0,1,1)}#el_pkh-LDxytU0{-webkit-animation-name:kf_el_pkh-LDxytU0_an_KlNNUHgN4;animation-name:kf_el_pkh-LDxytU0_an_KlNNUHgN4}#el_NtTQqi-gIW5{fill:#afaa68}#el_5EZM8IykdXA,#el_Axj-zvCK0Ju,#el_E0tIszO0P9N,#el_sRUKTLlyvfG{fill:#404043}#el_Cfrfv5d_e6p,#el_GeZG6eG58cE,#el_s2TlfZa4BsL{fill:#000}#el_sbKcNluuBxI{stroke:#414440;-webkit-animation-fill-mode:backwards;animation-fill-mode:backwards;opacity:0;-webkit-animation-name:kf_el_sbKcNluuBxI_an_6PTo0haD1;animation-name:kf_el_sbKcNluuBxI_an_6PTo0haD1;-webkit-animation-timing-function:cubic-bezier(0,0,1,1);animation-timing-function:cubic-bezier(0,0,1,1)}#el_QDrf5OlxAoa{-webkit-transform:translate(48px,49px);transform:translate(48px,49px)}#el_Ga4UH8_1MWI{fill:#000;opacity:.13}#el_mRy8_P_UX1E{fill:#160d35;-webkit-transform:translate(-42.97712929678261px,55.21255790007822px) rotate(-30deg);transform:translate(-42.97712929678261px,55.21255790007822px) rotate(-30deg)}#el_CZq7wlk1s2_an_NMpGIejb3,#el_sbKcNluuBxI_an_-YLR8cRRB{-webkit-animation-fill-mode:backwards;animation-fill-mode:backwards;-webkit-transform:translate(39px,22px) translate(-39px,-22px) translate(0,0);transform:translate(39px,22px) translate(-39px,-22px) translate(0,0);-webkit-animation-name:kf_el_CZq7wlk1s2_an_NMpGIejb3;animation-name:kf_el_CZq7wlk1s2_an_NMpGIejb3;-webkit-animation-timing-function:cubic-bezier(0,0,1,1);animation-timing-function:cubic-bezier(0,0,1,1)}#el_sbKcNluuBxI_an_-YLR8cRRB{-webkit-transform:translate(48.42750930786133px,49.66680145263672px) translate(-48.42750930786133px,-49.66680145263672px) translate(0,-20px);transform:translate(48.42750930786133px,49.66680145263672px) translate(-48.42750930786133px,-49.66680145263672px) translate(0,-20px);-webkit-animation-name:kf_el_sbKcNluuBxI_an_-YLR8cRRB;animation-name:kf_el_sbKcNluuBxI_an_-YLR8cRRB}</style><title>Gameboy</title><desc>Created with Sketch.</desc><defs><linearGradient id="linearGradient-1" x1="20.654%" x2="50%" y1="90.663%" y2="0%"><stop offset="0%" stop-color="#07002A"/><stop offset="100%" stop-color="#77607C"/></linearGradient><path id="path-2" d="M102.053,91.279 L100.953,91.91 L100.623,92.099 L99.613,92.679 L96.472,94.49 L94.342,95.718 L92.703,96.669 L92.232,96.939 L91.622,97.289 L91.352,97.43 L88.113,99.279 L87.293,99.75 L86.243,100.35 L85.022,101.059 L84.522,101.35 L84.101,101.591 L82.951,102.261 L82.081,102.781 L80.821,103.502 L80.471,103.711 L80.211,103.861 L79.241,104.422 L77.99,105.132 L77.7,105.302 L77.33,105.513 L77.08,105.654 L76.37,106.074 L71.75,108.744 L71.12,109.103 L67.559,111.163 L63.519,113.493 L63.079,113.753 L57.369,117.042 L56.808,117.362 L56.478,117.551 L55.999,117.832 L54.579,117.012 L53.728,116.522 L51.959,115.502 L48.43,113.461 L46.319,112.243 L40.96,109.132 L40.271,108.743 L35.553,106 L35.183,105.789 L34.793,105.57 L34.303,105.289 L33.973,105.09 L32.123,104.029 L31.553,103.699 L29.843,102.709 L27.333,101.25 L27.073,101.1 L26.623,100.84 L26.143,100.57 L25.243,100.049 L24.423,99.58 L23.833,99.24 L22.563,98.509 C22.5563333,98.5023333 21.9296667,98.139 20.683,97.419 L19.663,96.829 L18.333,96.058 L17.613,95.628 L17.263,95.428 C17.263,95.428 17.1696667,95.3746667 16.983,95.268 L13.663,93.358 L10.253,91.387 L10.053,38.137 L24.383,29.867 L26.373,28.707 L31.303,25.877 L32.883,24.957 L34.713,23.917 L35.492,23.467 L35.873,23.247 L36.312,22.987 L37.413,22.337 L37.934,22.037 L40.213,20.737 L40.902,20.327 L42.302,19.527 L48.083,16.197 L48.543,15.927 L54.613,12.417 L56.052,11.587 L57.113,12.207 L63.602,15.957 L66.203,17.457 L70.153,19.737 L71.493,20.507 L78.133,24.337 L79.173,24.947 L81.473,26.257 L82.343,26.757 L83.864,27.637 L85.233,28.427 L86.034,28.887 L87.934,29.987 L91.714,32.167 L92.014,32.347 L92.274,32.507 L92.674,32.737 L93.594,33.267 L94.134,33.577 L96.074,34.697 L96.853,35.137 L97.293,35.387 L99.232,36.507 L102.053,38.139 L102.053,91.279 Z"/></defs><g id="el_3FfJiqXJit" fill-rule="evenodd"><g id="el_APQx1xHw4X"><polygon id="el_aUgLmO9KWL" fill-rule="nonzero" points="111 96 55.499 128 0 96 0 32 55.499 0 111 32"/><mask id="mask-3" fill="#fff"><use xlink:href="#path-2"/></mask><use id="el_L-85boAprX" fill-rule="nonzero" xlink:href="#path-2"/><g id="el_CZq7wlk1s2_an_NMpGIejb3" data-animator-group="true" data-animator-type="0"><g id="el_CZq7wlk1s2" fill-rule="nonzero" mask="url(#mask-3)"><g id="el_SR1TNqp2si"><polygon id="el_ZQZrGnx4lG" points="3.458 0 34 0 34 35.605 0 35.605 0 3.217 3.444 3.207"/><rect id="el_6epKk7fIc-" width="3.579" height="30.395" x="6.263" y="0"/><rect id="el_L0a5VMLcKx" width="5.368" height="33" x="14.316" y="16.5"/><rect id="el_kJBabtN8A1" width="3.579" height="30.395" x="25.053" y="0"/><rect id="el_gtfClAfcJH" width="5.368" height="24.316" x="14.316" y="-3.474"/><ellipse id="el_fYB7TJs5xS" cx="17" cy="8.684" rx="1" ry="1"/><ellipse id="el_tKG5M_Nn4s" cx="17.895" cy="25.184" rx="1.789" ry="1.737"/><ellipse id="el_HwvzroC2KT" cx="17.895" cy="25.184" rx="1" ry="1"/></g></g></g><g id="el_trLdmF9MGk" fill-rule="nonzero" mask="url(#mask-3)"><g id="el_xZLT0JZ1u_U"><path id="el_jJNf_OeuPFV" d="M1,0 L40,0 C40.5522847,-4.02567223e-15 41,0.44771525 41,1 L41,59 C41,62.3137085 38.3137085,65 35,65 L1,65 C0.44771525,65 6.76353751e-17,64.5522847 0,64 L0,1 C-6.76353751e-17,0.44771525 0.44771525,1.01453063e-16 1,0 Z"/><ellipse id="el_cStye1b5TC9" cx="27.333" cy="46.042" rx="2.733" ry="2.708"/><ellipse id="el_3zp9z-nbZtD" cx="32.8" cy="40.625" rx="2.733" ry="2.708"/><path id="el__rxWaXp1BNQ" d="M5.1,4.0625 L37.2666667,4.0625 C37.8189514,4.0625 38.2666667,4.51021525 38.2666667,5.0625 L38.2666667,28.1458333 C38.2666667,29.8026876 36.9235209,31.1458333 35.2666667,31.1458333 L5.1,31.1458333 C4.54771525,31.1458333 4.1,30.6981181 4.1,30.1458333 L4.1,5.0625 C4.1,4.51021525 4.54771525,4.0625 5.1,4.0625 Z"/><ellipse id="el_mO_9BmumoUn" cx="6.025" cy="12.016" rx="1.025" ry="1.016"/><ellipse id="el_pkh-LDxytU0" cx="6" cy="11.982" rx="2" ry="1.982"/><rect id="el_NtTQqi-gIW5" width="24.6" height="21.667" x="8.2" y="6.771"/><rect id="el_sRUKTLlyvfG" width="4.1" height="9.479" x="8.583" y="39.124"/><polygon id="el_5EZM8IykdXA" points="15.712 41.979 15.712 45.888 5.467 45.888 5.467 41.979"/><rect id="el_Axj-zvCK0Ju" width="5.467" height="1.354" x="13.667" y="52.813" rx=".677"/><rect id="el_E0tIszO0P9N" width="5.467" height="1.354" x="20.5" y="52.813" rx=".677"/><path id="el_s2TlfZa4BsL" d="M30.9387958,57.004288 L33.4046152,61.2361492 C33.5407987,61.4698685 33.4599814,61.7687241 33.2241047,61.9036619 C32.9882281,62.0385998 32.6866138,61.9585217 32.5504303,61.7248025 L30.0846109,57.4929413 C29.9484275,57.259222 30.0292448,56.9603664 30.2651214,56.8254285 C30.5009981,56.6904907 30.8026124,56.7705688 30.9387958,57.004288 Z"/><path id="el_Cfrfv5d_e6p" d="M32.9114513,55.0496751 L35.3772707,59.2815363 C35.5134542,59.5152555 35.4326369,59.8141111 35.1967602,59.949049 C34.9608836,60.0839869 34.6592693,60.0039087 34.5230858,59.7701895 L32.0572664,55.5383283 C31.921083,55.3046091 32.0019003,55.0057535 32.2377769,54.8708156 C32.4736536,54.7358777 32.7752679,54.8159559 32.9114513,55.0496751 Z"/><path id="el_GeZG6eG58cE" d="M34.8841069,53.0950622 L37.3499263,57.3269233 C37.4861097,57.5606426 37.4052924,57.8594982 37.1694158,57.9944361 C36.9335391,58.1293739 36.6319248,58.0492958 36.4957414,57.8155766 L34.029922,53.5837154 C33.8937385,53.3499961 33.9745558,53.0511405 34.2104325,52.9162027 C34.4463091,52.7812648 34.7479234,52.8613429 34.8841069,53.0950622 Z"/></g></g><g id="el_sbKcNluuBxI_an_-YLR8cRRB" data-animator-group="true" data-animator-type="0"><g id="el_sbKcNluuBxI" fill-rule="nonzero" mask="url(#mask-3)"><g id="el_QDrf5OlxAoa"><polygon id="el_NBWZUJRXjEF" points=".439 .667 2.83 13.04 14.692 15.386 12.399 3.242"/><polyline id="el_-TQVjvlCG0H" points=".428 .714 5.503 5.9 6.229 9.678 9.75 10.222"/><polyline id="el_172Zym4TTdo" points="14.761 15.327 9.688 10.232 9.077 6.593 5.501 5.862"/><polyline id="el_0wduqsod4IJ" points="7.507 2.284 14.939 .745 13.413 7.939"/><polyline id="el_mBM6dmh11zE" points="1.971 8.728 .444 15.368 7.391 14.06"/><path id="el_y1FiVQ_ZHaX" d="M2.90082786,12.9832765 L0.576929117,15.3412653"/><path id="el_lqu-2S5FBvf" d="M14.8823522,0.816369904 L12.3003834,3.24267965"/></g></g></g><path id="el_Ga4UH8_1MWI" fill-rule="nonzero" d="M56.024,11.579 L9.954,38.139 L9.954,91.259 L32.854,104.458 L34.504,105.419 L50.275,114.509 L55.795,117.689 L56.025,117.82 L56.714,117.42 L72.024,108.6 L77.615,105.379 L78.804,104.69 L102.104,91.26 L102.104,38.14 L56.024,11.579 Z M100.233,90.189 L78.803,102.539 L77.163,103.49 L70.583,107.279 L56.023,115.679 L51.333,112.978 L34.543,103.298 L32.633,102.198 L11.813,90.188 L11.813,39.218 L56.023,13.728 L100.232,39.218 L100.232,90.189 L100.233,90.189 Z" mask="url(#mask-3)"/></g><path id="el_mRy8_P_UX1E" d="M63.456478,109.068194 L65.1934379,109.068194 L65.1934379,110.023521 L62.4639295,110.023521 L62.4639295,105.681122 L65.1624208,105.681122 L65.1624208,106.63645 L63.456478,106.63645 L63.456478,107.356047 L65.0073351,107.356047 L65.0073351,108.298968 L63.456478,108.298968 L63.456478,109.068194 Z M67.5383338,107.815101 L66.8993807,107.815101 L66.8993807,108.913108 C66.8993807,109.179855 67.1289075,109.204669 67.5383338,109.179855 L67.5383338,110.023521 C66.3224619,110.14759 65.9688665,109.781588 65.9688665,108.913108 L65.9688665,107.815101 L65.4725922,107.815101 L65.4725922,106.921807 L65.9688665,106.921807 L65.9688665,106.332482 L66.8993807,106.053327 L66.8993807,106.921807 L67.5383338,106.921807 L67.5383338,107.815101 Z M69.8832297,106.834959 C70.5097759,106.834959 71.0432708,107.281606 71.0432708,108.119069 L71.0432708,110.023521 L70.1127565,110.023521 L70.1127565,108.255544 C70.1127565,107.870932 69.8708228,107.691032 69.5730583,107.691032 C69.2318697,107.691032 68.9961394,107.889542 68.9961394,108.329986 L68.9961394,110.023521 L68.0656252,110.023521 L68.0656252,105.681122 L68.9961394,105.681122 L68.9961394,107.213368 C69.163632,106.983842 69.4738034,106.834959 69.8832297,106.834959 Z M72.5134833,108.84487 C72.6313484,109.167448 72.9167061,109.27911 73.2578946,109.27911 C73.5122352,109.27911 73.7293552,109.179855 73.8534238,109.04338 L74.5978351,109.471416 C74.2938672,109.893249 73.8348135,110.110369 73.2454878,110.110369 C72.1847016,110.110369 71.5271382,109.396975 71.5271382,108.472664 C71.5271382,107.548354 72.1971084,106.834959 73.1772501,106.834959 C74.0829506,106.834959 74.7529208,107.535947 74.7529208,108.472664 C74.7529208,108.602936 74.740514,108.727005 74.7157003,108.84487 L72.5134833,108.84487 Z M72.494873,108.150086 L73.82861,108.150086 C73.7293552,107.790287 73.4502009,107.660015 73.1710466,107.660015 C72.8174512,107.660015 72.581721,107.833711 72.494873,108.150086 Z M76.2107265,107.473912 C76.334795,107.058283 76.7504247,106.859773 77.1412407,106.859773 L77.1412407,107.914356 C76.7566282,107.852322 76.2107265,108.007407 76.2107265,108.621547 L76.2107265,110.023521 L75.2802122,110.023521 L75.2802122,106.921807 L76.2107265,106.921807 L76.2107265,107.473912 Z M78.3136886,108.84487 C78.4315538,109.167448 78.7169115,109.27911 79.0581,109.27911 C79.3124406,109.27911 79.5295606,109.179855 79.6536291,109.04338 L80.3980405,109.471416 C80.0940726,109.893249 79.6350189,110.110369 79.0456932,110.110369 C77.984907,110.110369 77.3273436,109.396975 77.3273436,108.472664 C77.3273436,107.548354 77.9973138,106.834959 78.9774555,106.834959 C79.883156,106.834959 80.5531262,107.535947 80.5531262,108.472664 C80.5531262,108.602936 80.5407194,108.727005 80.5159057,108.84487 L78.3136886,108.84487 Z M78.2950784,108.150086 L79.6288154,108.150086 C79.5295606,107.790287 79.2504063,107.660015 78.971252,107.660015 C78.6176566,107.660015 78.3819264,107.833711 78.2950784,108.150086 Z M83.3012449,106.921807 L84.2317592,106.921807 L84.2317592,110.023521 L83.3012449,110.023521 L83.3012449,109.73196 C83.0965318,109.967691 82.7925638,110.110369 82.3769341,110.110369 C81.564285,110.110369 80.8943148,109.396975 80.8943148,108.472664 C80.8943148,107.548354 81.564285,106.834959 82.3769341,106.834959 C82.7925638,106.834959 83.0965318,106.977638 83.3012449,107.213368 L83.3012449,106.921807 Z M82.563037,109.229483 C82.9910735,109.229483 83.3012449,108.937922 83.3012449,108.472664 C83.3012449,108.007407 82.9910735,107.715846 82.563037,107.715846 C82.1350004,107.715846 81.824829,108.007407 81.824829,108.472664 C81.824829,108.937922 82.1350004,109.229483 82.563037,109.229483 Z M84.9141363,110.023521 L84.9141363,105.495019 L85.8446505,105.495019 L85.8446505,110.023521 L84.9141363,110.023521 Z M87.8731716,110.023521 L87.8731716,109.303924 L89.3309772,107.790287 C89.5853177,107.529743 89.7714206,107.275403 89.7714206,107.021062 C89.7714206,106.748111 89.5977246,106.562008 89.3061635,106.562008 C89.0021955,106.562008 88.7850755,106.760518 88.6672104,107.033469 L87.8297476,106.543398 C88.1089018,105.898242 88.6920241,105.594274 89.2937566,105.594274 C90.0691851,105.594274 90.7639691,106.102955 90.7639691,106.977638 C90.7639691,107.498726 90.4848148,107.945373 90.0877954,108.342392 L89.3681978,109.068194 L90.8260034,109.068194 L90.8260034,110.023521 L87.8731716,110.023521 Z M92.935169,110.110369 C91.8123485,110.110369 91.1671919,109.192262 91.1671919,107.852322 C91.1671919,106.512381 91.8123485,105.594274 92.935169,105.594274 C94.0579895,105.594274 94.703146,106.512381 94.703146,107.852322 C94.703146,109.192262 94.0579895,110.110369 92.935169,110.110369 Z M92.935169,109.142635 C93.456257,109.142635 93.7105975,108.689784 93.7105975,107.852322 C93.7105975,107.014859 93.456257,106.562008 92.935169,106.562008 C92.414081,106.562008 92.1597405,107.014859 92.1597405,107.852322 C92.1597405,108.689784 92.414081,109.142635 92.935169,109.142635 Z M95.962442,105.681122 L96.8309219,105.681122 L96.8309219,110.023521 L95.8383734,110.023521 L95.8383734,106.729501 L95.0691483,106.940418 L94.8272146,106.090548 L95.962442,105.681122 Z M100.615013,107.12652 C100.615013,107.461506 100.521962,107.765474 100.360673,108.007407 L99.0331389,110.023521 L97.8917081,110.023521 L98.8346292,108.652564 C97.9723527,108.584326 97.3892305,107.970187 97.3892305,107.12652 C97.3892305,106.227023 98.0467939,105.594274 99.0021218,105.594274 C99.9636532,105.594274 100.615013,106.227023 100.615013,107.12652 Z M98.381779,107.12652 C98.381779,107.50493 98.6733401,107.728253 99.0021218,107.728253 C99.3371069,107.728253 99.6224646,107.511133 99.6224646,107.12652 C99.6224646,106.741908 99.3371069,106.524788 99.0021218,106.524788 C98.6733401,106.524788 98.381779,106.748111 98.381779,107.12652 Z"/></g></svg>