<svg xmlns="http://www.w3.org/2000/svg" xmlns:xlink="http://www.w3.org/1999/xlink" width="83" height="68" version="1.1" viewBox="0 0 83 68"><title>orb</title><desc>Created with Sketch.</desc><defs><linearGradient id="linearGradient-1" x1="9.003%" x2="78.225%" y1="29.413%" y2="107.124%"><stop offset="0%" stop-color="#FFC2C2"/><stop offset="100%" stop-color="#60171C"/></linearGradient></defs><g id="Page-1" fill="none" fill-rule="evenodd" stroke="none" stroke-width="1"><g id="orb"><g id="Frame" fill="#FFF"><rect id="Rectangle" width="79" height="68" x="0" y="0" fill-opacity="0"/><rect id="Rectangle" width="1" height="1" x="0" y=".1" fill-opacity=".01"/><rect id="Rectangle" width="1" height="1" x="0" y="67.1" fill-opacity=".01"/><rect id="Rectangle" width="1" height="1" x="78" y="67.1" fill-opacity=".01"/><rect id="Rectangle" width="1" height="1" x="78" y=".1" fill-opacity=".01"/></g><path id="Path" fill="#3E000C" fill-opacity=".941" fill-rule="nonzero" d="M77.66938,41.747208 C77.479683,39.645218 76.622139,37.764115 75.371773,36.074845 C74.136299,33.262223 72.273995,30.821976 69.639961,29.373185 C69.595283,28.945084 69.325996,28.523759 68.774235,28.293046 C67.819889,27.893998 66.881047,27.580155 65.937931,27.336442 C65.8465,26.903886 65.566349,26.523271 65.084537,26.440568 C63.177555,26.113114 61.339908,25.983598 59.469791,26.040483 C56.573062,25.621904 53.906803,26.174638 51.387271,27.855119 C51.109927,28.040117 50.934634,28.287858 50.838443,28.555558 C50.352115,28.819901 49.878116,29.100602 49.429752,29.40767 C46.096744,30.665177 42.698551,33.641923 41.844059,37.202592 C41.705387,37.780656 41.693668,38.396073 41.781803,38.992387 C40.788761,41.153886 40.368717,43.498918 41.143619,45.949968 C41.357486,46.626726 41.641666,47.293474 41.971256,47.951189 C41.973453,48.077532 41.98444,48.202043 41.988956,48.327959 C41.348453,55.337358 47.02692,60.428057 53.430973,61.586199 C54.546991,62.1785142 55.872599,62.8101929 57.2319828,63.2380325 C58.7675877,63.7213344 60.346293,63.9445231 61.714664,63.557024 C61.908268,63.502275 62.04523,63.369097 62.126773,63.209063 C66.326358,63.075823 70.189277,60.797381 72.532661,57.187334 C77.631294,53.933609 80.025948,47.609024 77.66938,41.747208 Z"/><path id="Path" fill="#EA3C3C" fill-rule="nonzero" d="M77.589424,44.86116 C78.44294,41.039749 78.367744,36.628189 76.160713,33.627639 C75.73249,33.045303 74.556709,33.143325 74.632149,34.04164 C74.989327,38.299147 76.133614,41.918288 74.753487,46.206191 C73.357735,50.543166 70.152047,54.059768 66.058171,56.018935 C62.004948,57.958571 57.358952,58.102065 53.10883,56.727004 C49.150944,55.446425 46.416081,52.839431 43.631657,50.001113 C43.591862,49.943679 43.546208,49.886062 43.507634,49.82875 C42.771062,48.738967 42.456609,47.050247 41.411931,46.238174 C40.967473,45.892776 40.450993,46.026809 40.236638,46.548416 C39.624333,48.038284 40.907292,49.939163 41.756413,51.097 C42.325749,51.873428 42.955021,52.476456 43.66071,52.982315 C43.749333,53.097855 43.828679,53.220962 43.919987,53.334183 C43.671452,53.66127 43.59528,54.092301 43.890202,54.485733 C43.947087,54.561722 44.010563,54.630875 44.068425,54.705887 L44.063786,54.710526 C44.073063,54.718522 44.082341,54.726395 44.091618,54.734391 C46.646061,58.032731 50.105412,60.387345 53.933903,61.564286 C54.638493,61.855424 55.359074,62.121171 56.118473,62.326188 C59.944157,63.358964 65.018375,63.488786 68.100651,60.655778 C68.232243,60.534928 68.295475,60.394425 68.31403,60.252824 C73.972481,57.287674 79.933296,51.110611 77.589424,44.86116 Z"/><path id="Path" fill="#EA3C3C" fill-rule="nonzero" d="M74.695625,33.405838 C70.938057,26.400589 60.673404,24.938675 53.802799,27.309891 C52.800602,27.655838 51.700016,28.159989 50.572819,28.7892 C49.592839,29.240616 48.689396,29.821366 47.941471,30.466507 C43.120426,33.933914 38.80048,39.346878 40.50568,44.547867 C40.684635,45.093826 41.645328,45.224625 41.7486,44.547867 C42.776188,37.820755 49.214787,31.304703 55.655582,29.43306 C62.862125,27.338822 68.076358,30.540543 74.006294,34.095291 C74.451729,34.362381 74.928047,33.839066 74.695625,33.405838 Z"/><path id="Shape" fill="url(#linearGradient-1)" fill-rule="nonzero" d="M59.500237,64 C48.7477649,64 40,55.2522342 40,44.500237 C40,33.7477649 48.7477658,25 59.500237,25 C70.2522342,25 79,33.7477658 79,44.500237 C79,55.2522342 70.2522342,64 59.500237,64 Z M59.5002362,27 C49.8507854,27 42,34.8507854 42,44.5002362 C42,54.1496871 49.8507854,62 59.5002362,62 C69.1496871,62 77,54.1496871 77,44.5002362 C77,34.8507854 69.1496871,27 59.5002362,27 Z"/><path id="Oval" fill="#E17676" fill-rule="nonzero" d="M56.9433432,33.4333563 C60.2819324,33.4333563 62.9883937,30.9736151 62.9883937,30.2685945 C62.9883937,29.5635739 62.5480445,28.9123979 61.8034816,28.3863373 C60.7021636,27.6082164 58.9352639,27.1038327 56.9433432,27.1038327 C53.604754,27.1038327 50.8982926,28.5207448 50.8982926,30.2685945 C50.8982926,32.0164442 53.604754,33.4333563 56.9433432,33.4333563 Z" transform="translate(56.943343, 30.268594) rotate(-2.950087) translate(-56.943343, -30.268594)"/><polygon id="Path" fill="#FF0010" fill-rule="nonzero" points="50 44 43.248 40.786 37.062 37.841 44.122 36.613 37 29 49.58 36.824 44.849 38.452 46.219 39.928"/><polygon id="Path" fill="#F43C4F" fill-rule="nonzero" points="60.938 54 47.138 48.503 67.007 45.737 47 32 75.064 46.604 58.979 49.942 67.566 52.4" transform="translate(61.031907, 43.000045) rotate(-28.000000) translate(-61.031907, -43.000045)"/><polygon id="Path" fill="#FFC2D7" fill-rule="nonzero" points="56.673 33 57 21.585 54.255 25.233 53.696 25.975 51 18 51.932 29.834 54.695 27.215"/><polygon id="Path" fill="red" fill-rule="nonzero" points="74.739 35.134 83.013 28.621 77.836 28.743 81.781 22 74 29.705 77.587 30.226"/><rect id="Rectangle" width="1" height="1" x="79" y="67.1" fill="#FFF" fill-opacity=".05"/></g></g></svg>