<svg xmlns="http://www.w3.org/2000/svg" xmlns:xlink="http://www.w3.org/1999/xlink" width="79" height="68" version="1.1" viewBox="0 0 79 68"><title>orb</title><desc>Created with Sketch.</desc><defs><linearGradient id="linearGradient-1" x1="9.003%" x2="78.225%" y1="29.413%" y2="107.124%"><stop offset="0%" stop-color="#F2C2FF"/><stop offset="100%" stop-color="#8E2ABE"/></linearGradient></defs><g id="Page-1" fill="none" fill-rule="evenodd" stroke="none" stroke-width="1"><g id="orb"><g id="Frame" fill="#FFF"><rect id="Rectangle" width="79" height="68" x="0" y="0" fill-opacity="0"/><rect id="Rectangle" width="1" height="1" x="0" y=".1" fill-opacity=".01"/><rect id="Rectangle" width="1" height="1" x="0" y="67.1" fill-opacity=".01"/><rect id="Rectangle" width="1" height="1" x="78" y="67.1" fill-opacity=".01"/><rect id="Rectangle" width="1" height="1" x="78" y=".1" fill-opacity=".01"/></g><path id="Path" fill="#15003E" fill-rule="nonzero" d="M76.66938,41.747208 C76.479683,39.645218 75.622139,37.764115 74.371773,36.074845 C73.136299,33.262223 71.273995,30.821976 68.639961,29.373185 C68.595283,28.945084 68.325996,28.523759 67.774235,28.293046 C66.819889,27.893998 65.881047,27.580155 64.937931,27.336442 C64.8465,26.903886 64.566349,26.523271 64.084537,26.440568 C62.177555,26.113114 60.339908,25.983598 58.469791,26.040483 C55.573062,25.621904 52.906803,26.174638 50.387271,27.855119 C50.109927,28.040117 49.934634,28.287858 49.838443,28.555558 C49.352115,28.819901 48.878116,29.100602 48.429752,29.40767 C45.096744,30.665177 41.698551,33.641923 40.844059,37.202592 C40.705387,37.780656 40.693668,38.396073 40.781803,38.992387 C39.788761,41.153886 39.368717,43.498918 40.143619,45.949968 C40.357486,46.626726 40.641666,47.293474 40.971256,47.951189 C40.973453,48.077532 40.98444,48.202043 40.988956,48.327959 C40.348453,55.337358 46.02692,60.428057 52.430973,61.586199 C54.807682,62.847613 58.134952,64.287554 60.714664,63.557024 C60.908268,63.502275 61.04523,63.369097 61.126773,63.209063 C65.326358,63.075823 69.189277,60.797381 71.532661,57.187334 C76.631294,53.933609 79.025948,47.609024 76.66938,41.747208 Z"/><path id="Path" fill="#3E00FF" fill-rule="nonzero" d="M76.589424,44.86116 C77.44294,41.039749 77.367744,36.628189 75.160713,33.627639 C74.73249,33.045303 73.556709,33.143325 73.632149,34.04164 C73.989327,38.299147 75.133614,41.918288 73.753487,46.206191 C72.357735,50.543166 69.152047,54.059768 65.058171,56.018935 C61.004948,57.958571 56.358952,58.102065 52.10883,56.727004 C48.150944,55.446425 45.416081,52.839431 42.631657,50.001113 C42.591862,49.943679 42.546208,49.886062 42.507634,49.82875 C41.771062,48.738967 41.456609,47.050247 40.411931,46.238174 C39.967473,45.892776 39.450993,46.026809 39.236638,46.548416 C38.624333,48.038284 39.907292,49.939163 40.756413,51.097 C41.325749,51.873428 41.955021,52.476456 42.66071,52.982315 C42.749333,53.097855 42.828679,53.220962 42.919987,53.334183 C42.671452,53.66127 42.59528,54.092301 42.890202,54.485733 C42.947087,54.561722 43.010563,54.630875 43.068425,54.705887 L43.063786,54.710526 C43.073063,54.718522 43.082341,54.726395 43.091618,54.734391 C45.646061,58.032731 49.105412,60.387345 52.933903,61.564286 C53.638493,61.855424 54.359074,62.121171 55.118473,62.326188 C58.944157,63.358964 64.018375,63.488786 67.100651,60.655778 C67.232243,60.534928 67.295475,60.394425 67.31403,60.252824 C72.972481,57.287674 78.933296,51.110611 76.589424,44.86116 Z"/><path id="Path" fill="#B8AAE2" fill-rule="nonzero" d="M73.695625,33.405838 C69.938057,26.400589 59.673404,24.938675 52.802799,27.309891 C51.800602,27.655838 50.700016,28.159989 49.572819,28.7892 C48.592839,29.240616 47.689396,29.821366 46.941471,30.466507 C42.120426,33.933914 37.80048,39.346878 39.50568,44.547867 C39.684635,45.093826 40.645328,45.224625 40.7486,44.547867 C41.776188,37.820755 48.214787,31.304703 54.655582,29.43306 C61.862125,27.338822 67.076358,30.540543 73.006294,34.095291 C73.451729,34.362381 73.928047,33.839066 73.695625,33.405838 Z"/><path id="Shape" fill="url(#linearGradient-1)" fill-rule="nonzero" d="M58.500237,64 C47.7477649,64 39,55.2522342 39,44.500237 C39,33.7477649 47.7477658,25 58.500237,25 C69.2522342,25 78,33.7477658 78,44.500237 C78,55.2522342 69.2522342,64 58.500237,64 Z M58.5002362,27 C48.8507854,27 41,34.8507854 41,44.5002362 C41,54.1496871 48.8507854,62 58.5002362,62 C68.1496871,62 76,54.1496871 76,44.5002362 C76,34.8507854 68.1496871,27 58.5002362,27 Z"/><ellipse id="Oval" cx="55.943" cy="30.269" fill="#B8AAE2" fill-rule="nonzero" rx="6.045" ry="3.165" transform="translate(55.943343, 30.268594) rotate(-2.950087) translate(-55.943343, -30.268594)"/><polygon id="Path" fill="#3E00FF" fill-rule="nonzero" points="38.898 36.193 27.189 30.584 16.463 25.446 28.705 23.303 16.355 10.018 38.17 23.67 29.965 26.512 32.342 29.088"/><polygon id="Path" fill="#F2C2FF" fill-rule="nonzero" points="51.899 23.123 52.427 5.724 47.086 12.416 42.728 .259 44.234 18.297 48.701 14.305"/><polygon id="Path" fill="#3E00FF" fill-rule="nonzero" points="65.496 22.23 73.77 15.718 68.592 15.84 72.537 9.096 64.757 16.801 68.343 17.322"/></g></g></svg>