<svg xmlns="http://www.w3.org/2000/svg" xmlns:xlink="http://www.w3.org/1999/xlink" width="61" height="67" version="1.1" viewBox="0 0 61 67"><title>Group 2</title><desc>Created with Sketch.</desc><defs><linearGradient id="linearGradient-1" x1="8.327%" x2="68.957%" y1="-4.768%" y2="74.67%"><stop offset="0%" stop-color="#9393B5"/><stop offset="100%" stop-color="#FFF" stop-opacity="0"/></linearGradient><radialGradient id="radialGradient-2" cx="48.285%" cy="40.606%" r="1404.56%" fx="48.285%" fy="40.606%" gradientTransform="translate(0.482847,0.406060),scale(0.078431,1.000000),translate(-0.482847,-0.406060)"><stop offset="0%" stop-color="#0E2947" stop-opacity=".95"/><stop offset="27.88%" stop-color="#143954" stop-opacity=".651"/><stop offset="57.44%" stop-color="#143954" stop-opacity="0"/></radialGradient><linearGradient id="linearGradient-3" x1="-25.25%" x2="132.412%" y1="50.192%" y2="50.192%"><stop offset="0%" stop-color="#2484C6"/><stop offset="100%" stop-color="#2484C6" stop-opacity="0"/></linearGradient></defs><g id="Page-1" fill="none" fill-rule="evenodd" stroke="none" stroke-width="1"><g id="Group-2"><polyline id="Path" stroke="#DADAF2" stroke-linecap="round" stroke-linejoin="round" stroke-width=".25" points="4.5 16.2 10.7 16.2 10.9 20.9 27 20.9" opacity=".49"/><polyline id="Path" stroke="#DADAF2" stroke-linecap="round" stroke-linejoin="round" stroke-width=".25" points="25.4 41.4 23.8 41.4 24 53.6 4.3 53.8" opacity=".49"/><circle id="Oval" cx="26" cy="25.1" r="25.1" fill="url(#linearGradient-1)" fill-rule="nonzero"/><g id="Group" stroke="#143954" opacity=".54" transform="translate(10.000000, 17.000000)"><path id="Path" stroke-width=".25" d="M24.7,6.9 C26.4,5.3 29.1,4.9 31.2,5.9 C32.2,6.4 33.1,7.1 34.1,7.4 C35.3,7.8 36.7,7.7 38,7.2 C39.2,6.8 42.2,5.8 44.5,4.5"/><path id="Path" stroke-linecap="round" stroke-linejoin="round" stroke-width=".25" d="M31.7,19.8 C33.7,19.5 35.5,18.2 36.8,16.6 C38.1,15 38.9,13.1 39.8,11.2 C40.6,9.4 41.2,7 42.5,5.6 C38.6,8.6 33.2,12.2 28.2,13.5"/><rect id="Rectangle" width="4.2" height="4.2" x="20.094" y="5.984" fill="#F1F2F2" fill-rule="nonzero" stroke-width=".5" transform="translate(22.194100, 8.084400) rotate(17.782653) translate(-22.194100, -8.084400)"/><rect id="Rectangle" width="4.2" height="4.2" x="23.605" y="12.611" fill="#F1F2F2" fill-rule="nonzero" stroke-width=".5" transform="translate(25.704660, 14.711220) rotate(17.782653) translate(-25.704660, -14.711220)"/><rect id="Rectangle" width="4.2" height="4.2" x="27.008" y="19.212" fill="#F1F2F2" fill-rule="nonzero" stroke-width=".5" transform="translate(29.107600, 21.311600) rotate(17.782653) translate(-29.107600, -21.311600)"/><rect id="Rectangle" width="4.2" height="4.2" x="45.016" y=".993" fill="#F1F2F2" fill-rule="nonzero" stroke-width=".5" transform="translate(47.115980, 3.092960) rotate(17.782653) translate(-47.115980, -3.092960)"/><rect id="Rectangle" width="4.2" height="4.2" x="30.703" y="26.582" fill="#F1F2F2" fill-rule="nonzero" stroke-width=".5" transform="translate(32.802480, 28.682360) rotate(17.782653) translate(-32.802480, -28.682360)"/><rect id="Rectangle" width="4.2" height="4.2" x=".702" y="15.793" fill="#F1F2F2" fill-rule="nonzero" stroke-width=".5" transform="translate(2.801600, 17.892800) rotate(17.782653) translate(-2.801600, -17.892800)"/><rect id="Rectangle" width="4.2" height="4.2" x="7.8" y="29.108" fill="#F1F2F2" fill-rule="nonzero" stroke-width=".5" transform="translate(9.899900, 31.208100) rotate(17.782653) translate(-9.899900, -31.208100)"/><path id="Path" stroke-width=".25" d="M19.6,9.4 L5.5,16.5"/><path id="Path" stroke-width=".25" d="M5.3,16.6 C8,14.9 11.7,15 14.2,16.9 C15.6,18 16.6,19.5 17.7,20.9 C18.8,22.3 19.3,23.3 21,24 C22.7,24.6 24.8,23.7 26.4,22.7"/><path id="Path" stroke-width=".25" d="M5.5,16.5 C6.9,16.1 8.4,14.8 9.8,15.3 C11.2,15.8 12.3,17 13,18.3 C14.5,20.8 15.2,23.7 16.3,26.4 C17.4,29.1 19.1,31.8 21.8,32.8 C24.7,33.9 27.6,31.3 30.2,30"/><path id="Path" stroke-width=".25" d="M12.5,29.8 C14,29 15.6,28.4 16.8,27.6 C18.1,26.9 18.8,26.3 19.1,24.8 C19.4,23.5 19.1,22.2 19.2,20.9 C19.4,18.6 21,16.6 23.1,15.8"/></g><g id="Group"><g transform="translate(16.000000, 51.000000)"><ellipse id="Oval" cx="10.5" cy="15.1" fill="url(#radialGradient-2)" fill-rule="nonzero" opacity=".39" rx="10.2" ry="1"/><path id="Path" fill="#D6D6EA" fill-rule="nonzero" stroke="#0E2947" stroke-linecap="round" stroke-linejoin="round" d="M10.3,2 L10.3,0.5"/><polygon id="Path" stroke="#0E2947" stroke-linecap="round" stroke-linejoin="round" stroke-width=".75" points="15.2 9.2 5.2 9.2 6.3 2.4 10.2 2.4 14 2.4"/><g id="Path" fill-rule="nonzero"><path fill="#143954" d="M7,2.4 L1.5,2.4 C0.9,2.4 0.4,1.9 0.4,1.3 L0.4,1.2 C0.4,0.6 0.9,0.1 1.5,0.1 L7,0.1 C7.6,0.1 8.1,0.6 8.1,1.2 L8.1,1.3 C8.1,1.9 7.6,2.4 7,2.4 Z" transform="translate(6.000000, 8.000000)"/><path fill="#25E899" d="M7,2 C7.4,2 7.8,1.7 7.8,1.2 C7.8,0.8 7.5,0.4 7,0.4 L7,2 Z" transform="translate(6.000000, 8.000000)"/><path fill="#25E899" d="M1.6,2 C1.2,2 0.8,1.7 0.8,1.2 C0.8,0.7 1.1,0.4 1.6,0.4 L1.6,2 Z" transform="translate(6.000000, 8.000000)"/></g><g transform="translate(7.000000, 1.000000)"><g id="XMLID_7_-link" fill="#0E2947" fill-rule="nonzero" transform="translate(0.000000, 2.000000)"><path id="XMLID_7_" d="M3.6,12.2 L3,12.2 C1.8,12.2 0.8,11.2 0.8,10 L0.8,2.4 C0.8,1.2 1.8,0.2 3,0.2 L3.6,0.2 C4.8,0.2 5.8,1.2 5.8,2.4 L5.8,10 C5.8,11.2 4.8,12.2 3.6,12.2 Z"/></g><g id="Path" stroke="#143954" stroke-width=".1"><polyline points="0 10.7 3.3 13.9 6 10.7"/><polyline points="0 9.5 3.3 12.8 6 9.5"/><polyline points="0 8.4 3.3 11.7 6 8.4"/><polyline points="0 7.3 3.3 10.5 6 7.3"/><polyline points="0 6.2 3.3 9.4 6 6.2"/><polyline points="0 5 3.3 8.3 6 5"/><polyline points="0 3.9 3.3 7.1 6 3.9"/><polyline points="0 2.8 3.3 6 6 2.8"/><polyline points="0 1.6 3.3 4.9 6 1.6"/><polyline points="0 .5 3.3 3.8 6 .5"/></g></g><path id="Path" fill="#25E899" fill-rule="nonzero" stroke="#143954" stroke-width=".25" d="M11.2,0.1 C11.2,0.6 10.8,0.9 10.4,0.9 C9.9,0.9 9.6,0.5 9.6,0.1 L11.2,0.1 Z"/></g><g fill-rule="nonzero" transform="translate(23.000000, 49.000000)"><path id="Path" fill="#0E2947" d="M6,2.2 L0.8,2.2 C0.4,2.2 0,1.8 0,1.4 L0,0.3 L6.8,0.3 L6.8,1.4 C6.8,1.9 6.4,2.2 6,2.2 Z"/><rect id="Rectangle" width="1" height="1" x=".7" y="1" fill="#317BFF"/><rect id="Rectangle" width="1" height="1" x="2.3" y="1" fill="#317BFF"/><rect id="Rectangle" width="1" height="1" x="3.6" y="1" fill="#317BFF"/><rect id="Rectangle" width="1" height="1" x="5.2" y="1" fill="#317BFF"/><rect id="Rectangle" width="1" height="1" x="4.9" y="1" fill="#317BFF"/><rect id="Rectangle" width="1" height="1" x="2" y="1" fill="#317BFF"/></g><g transform="translate(19.000000, 46.000000)"><g id="XMLID_4_-link" fill="#FFC145" fill-rule="nonzero"><polygon id="XMLID_4_" points="14.1 .4 11.1 3.5 3.6 3.5 .8 .4"/></g><rect id="Rectangle" width="4.6" height="2.9" x="9.2" y=".4" fill="#BE7325" fill-rule="nonzero"/><rect id="Rectangle" width="1" height="2.7" x="7.9" y=".7" fill="#BE7325" fill-rule="nonzero"/><rect id="Rectangle" width="1" height="2.7" x="8.7" y=".6" fill="#BE7325" fill-rule="nonzero"/><polygon id="Path" fill="#FFE292" fill-rule="nonzero" points="5.3 3.3 3.6 3.5 1.2 .6 2.4 .6"/><path id="Path" stroke="#143954" stroke-width=".25" d="M2,2.5 L13.2,2.5"/><path id="Path" stroke="#143954" stroke-width=".1" d="M2,2 L13.2,2"/><path id="Path" stroke="#143954" stroke-width=".25" d="M2,1.4 L13.2,1.4"/><g id="XMLID_4_-link" stroke="#0E2947" stroke-linecap="round" stroke-linejoin="round" stroke-width=".5"><polygon id="XMLID_4_" points="14.1 .4 11.1 3.5 3.6 3.5 .8 .4"/></g></g><g fill-rule="nonzero" transform="translate(18.000000, 43.000000)"><g id="XMLID_1_-link" fill="#9A9AB2"><rect id="XMLID_1_" width="15.2" height="3" x=".6" y=".3"/></g><rect id="Rectangle" width="1.9" height="2.6" x="1.3" y=".5" fill="#DADAF2"/><rect id="Rectangle" width="1" height="2.4" x="9.9" y=".8" fill="#69698C"/><rect id="Rectangle" width="3.1" height="2.7" x="12" y=".5" fill="#69698C"/><g id="XMLID_3_" fill="#0E2947"><path id="Shape" d="M15.5,0.5 L15.5,3 L0.8,3 L0.8,0.5 L15.5,0.5 L15.5,0.5 Z M15.8,0.3 L0.6,0.3 L0.6,3.3 L15.8,3.3 L15.8,0.3 L15.8,0.3 Z"/></g></g><g id="Path" fill-rule="nonzero"><path fill="#DADAF2" d="M0.8,1.3 L15.5,1.3" transform="translate(18.000000, 45.000000)"/><path fill="#0E2947" d="M15.5,1.6 L0.8,1.6 C0.6,1.6 0.5,1.5 0.5,1.3 C0.5,1.1 0.6,1 0.8,1 L15.5,1 C15.7,1 15.8,1.1 15.8,1.3 C15.8,1.5 15.7,1.6 15.5,1.6 Z" transform="translate(18.000000, 45.000000)"/></g><rect id="Rectangle" width="22.7" height="2.4" x="15" y="28.4" fill="#0E2947" fill-rule="nonzero"/><g><g transform="translate(34.000000, 27.000000) translate(3.000000, 2.000000)"><path id="Path" fill="#D6D6EA" fill-rule="nonzero" stroke="#0E2947" stroke-linecap="round" stroke-linejoin="round" stroke-width=".5" d="M0.4,8.9 L0.4,8.9 C2.77555756e-17,8.1 0.3,7.2 1.1,6.8 L11.1,1.9 C11.8,1.6 12.6,1.8 13,2.5 L13,2.5 C13.4,3.2 13.1,4 12.4,4.4 L2.6,9.5 C1.8,10 0.8,9.7 0.4,8.9 Z"/><path id="Path" fill="#BDBDE5" fill-rule="nonzero" d="M1.1,7.8 C1.1,7.8 9.2,4.4 10.1,3.7 C11,3 11.7,3.5 11.7,3.5 C11.2,2.5 10.6,2.7 10.6,2.7 C10.6,2.7 0.6,7.1 0.9,7.5 C0.8,7.6 0.6,8.1 1.1,7.8 Z"/><path id="Path" stroke="#0E2947" stroke-linecap="round" stroke-linejoin="round" stroke-width=".25" d="M2.1,9.7 C1.6,9 0.7,8 0.9,7.1"/><path id="Path" stroke="#0E2947" stroke-linecap="round" stroke-linejoin="round" stroke-width=".25" d="M3.3,9.1 C3.5,8.1 2.8,7 1.8,6.4"/><path id="Path" stroke="#0E2947" stroke-linecap="round" stroke-linejoin="round" stroke-width=".25" d="M6.2,5.9 C6.3,5.9 6.3,5.8 6.4,5.8"/><path id="Path" stroke="#0E2947" stroke-width=".25" d="M6.1,6.1 L4.3,5.4"/><path id="Path" stroke="#0E2947" stroke-width=".25" d="M6,6.2 L5.5,8"/><path id="Path" stroke="#0E2947" stroke-linecap="round" stroke-linejoin="round" stroke-width=".25" d="M10.7,3.9 L7.8,5.3"/><path id="Path" stroke="#0E2947" stroke-linecap="round" stroke-linejoin="round" stroke-width=".25" d="M8.4,6.5 L7.1,3.8"/><polyline id="Path" stroke="#0E2947" stroke-linecap="round" stroke-linejoin="round" stroke-width=".25" points="3.4 9 5.9 6.1 2.2 6.5"/><circle id="Oval" cx="5.9" cy="6.1" r="1" fill="#FFCD2D" fill-rule="nonzero" stroke="#0E2947" stroke-linecap="round" stroke-linejoin="round" stroke-width=".25"/><path id="Path" fill="#9393B5" fill-rule="nonzero" d="M11.1,1.9 C11.1,1.9 9.9,2.5 10.6,3.9 C11.2,5.1 12.3,4.6 12.3,4.6"/><path id="Shape_65_" fill="#25E899" fill-rule="nonzero" stroke="#0E2947" stroke-width=".25" d="M10.2,3.1 C10.6,2.9 11.1,3.1 11.3,3.5 C11.5,3.9 11.3,4.4 10.9,4.6 C10.5,4.8 10,4.6 9.8,4.2 C9.6,3.8 9.8,3.3 10.2,3.1"/><g fill-rule="nonzero" transform="translate(10.000000, 0.000000)"><g transform="translate(1.000000, 3.000000)"><path id="Shape_69_" fill="#0E2947" d="M3.1,0.9 C3.1,1 3,1.1 3,1.1 L1,1.2 C0.9,1.2 0.8,1.1 0.8,1.1 C0.8,1 0.9,0.9 0.9,0.9 L2.8,0.8 C3.1,0.8 3.1,0.8 3.1,0.9"/><path id="Shape_68_" fill="#EFF4EE" d="M4.9,1.4 L3.4,1.5 C3.2,1.5 3,1.3 3,1.1 L3,0.8 C3,0.6 3.2,0.4 3.4,0.4 L4.9,0.3"/><path id="Shape_67_" fill="#0E2947" d="M5,1.4 C5,1.5 4.9,1.6 4.9,1.6 L3.4,1.7 C3.1,1.7 2.9,1.5 2.8,1.2 L2.8,0.9 C2.8,0.6 3,0.4 3.3,0.3 L4.8,0.2 C4.9,0.2 5,0.3 5,0.3 C5,0.4 4.9,0.5 4.9,0.5 L3.4,0.6 C3.3,0.6 3.2,0.7 3.2,0.8 L3.2,1.1 C3.2,1.2 3.3,1.3 3.4,1.3 L4.9,1.2 C5,1.2 5,1.3 5,1.4"/><path id="Shape_66_" fill="#25E899" d="M4.9,1.4 C5.2,1.4 5.4,1.1 5.4,0.8 C5.4,0.5 5.1,0.3 4.8,0.3 C4.5,0.3 4.3,0.6 4.3,0.9 C4.3,1.2 4.6,1.4 4.9,1.4"/><path id="Shape_1_" fill="#0E2947" d="M5.6,0.8 C5.6,1.2 5.3,1.5 4.9,1.5 C4.5,1.5 4.2,1.2 4.2,0.8 C4.2,0.4 4.5,0.1 4.9,0.1 C5.2,0.1 5.5,0.4 5.6,0.8 M4.5,0.9 C4.5,1.1 4.7,1.3 4.9,1.3 C5.1,1.3 5.3,1.1 5.3,0.9 C5.3,0.7 5.1,0.5 4.9,0.5 C4.6,0.5 4.5,0.6 4.5,0.9"/></g><g transform="translate(1.000000, 1.000000)"><path id="Shape_74_" fill="#0E2947" d="M3,1.5 C3,1.6 2.9,1.7 2.9,1.7 L1,1.8 C0.9,1.8 0.8,1.7 0.8,1.7 C0.8,1.6 0.9,1.5 0.9,1.5 L2.8,1.4 C2.9,1.4 3,1.5 3,1.5"/><path id="Shape_73_" fill="#EFF4EE" d="M4.8,2 L3.3,2.1 C3.1,2.1 2.9,1.9 2.9,1.7 L2.9,1.4 C2.9,1.2 3.1,1 3.3,1 L4.8,0.9"/><path id="Shape_72_" fill="#0E2947" d="M4.9,2 C4.9,2.1 4.8,2.2 4.8,2.2 L3.3,2.3 C3,2.3 2.8,2.1 2.7,1.8 L2.7,1.5 C2.7,1.2 2.9,1 3.2,0.9 L4.7,0.8 C4.8,0.8 4.9,0.9 4.9,0.9 C4.9,1 4.8,1.1 4.8,1.1 L3.3,1.2 C3.2,1.2 3.1,1.3 3.1,1.4 L3.1,1.7 C3.1,1.8 3.2,1.9 3.3,1.9 L4.8,1.8 C4.8,1.8 4.9,1.9 4.9,2"/><path id="Shape_71_" fill="#25E899" d="M4.8,2 C5.1,2 5.3,1.7 5.3,1.4 C5.3,1.1 5,0.9 4.7,0.9 C4.4,0.9 4.2,1.2 4.2,1.5 C4.2,1.8 4.4,2 4.8,2"/><path id="Shape_70_" fill="#0E2947" d="M5.4,1.4 C5.4,1.8 5.1,2.1 4.7,2.1 C4.3,2.1 4,1.8 4,1.4 C4,1 4.3,0.7 4.7,0.7 C5.1,0.7 5.4,1 5.4,1.4 M4.3,1.5 C4.3,1.7 4.5,1.9 4.7,1.9 C4.9,1.9 5.1,1.7 5.1,1.5 C5.1,1.3 4.9,1.1 4.7,1.1 C4.5,1.1 4.3,1.3 4.3,1.5"/></g><g transform="translate(1.000000, 0.000000)"><path id="Shape_79_" fill="#0E2947" d="M2.6,1.6 C2.6,1.7 2.6,1.8 2.5,1.8 L0.6,2.1 C0.5,2.1 0.4,2.1 0.4,2 C0.4,1.9 0.4,1.8 0.5,1.8 L2.4,1.5 C2.5,1.4 2.6,1.5 2.6,1.6"/><path id="Shape_78_" fill="#EFF4EE" d="M4.4,1.8 L3,2.1 C2.8,2.1 2.6,2 2.6,1.8 L2.5,1.5 C2.5,1.3 2.6,1.1 2.8,1.1 L4.3,0.8"/><path id="Shape_77_" fill="#0E2947" d="M4.6,1.8 C4.6,1.9 4.6,2 4.5,2 L3,2.2 C2.7,2.2 2.4,2.1 2.4,1.8 L2.3,1.5 C2.3,1.2 2.4,0.9 2.7,0.9 L4.2,0.6 C4.3,0.6 4.4,0.6 4.4,0.7 C4.4,0.8 4.4,0.9 4.3,0.9 L2.8,1.2 C2.7,1.2 2.6,1.3 2.6,1.5 L2.7,1.8 C2.7,1.9 2.8,2 3,2 L4.5,1.7 C4.5,1.7 4.6,1.7 4.6,1.8"/><path id="Shape_76_" fill="#25E899" d="M4.4,1.8 C4.7,1.7 4.9,1.5 4.8,1.2 C4.7,0.9 4.5,0.7 4.2,0.8 C3.9,0.8 3.7,1.1 3.8,1.4 C3.9,1.7 4.1,1.9 4.4,1.8"/><path id="Shape_75_" fill="#0E2947" d="M5,1.2 C5.1,1.6 4.8,1.9 4.4,2 C4,2.1 3.7,1.8 3.6,1.4 C3.5,1 3.8,0.7 4.2,0.6 C4.6,0.5 5,0.8 5,1.2 M4,1.4 C4,1.6 4.2,1.8 4.5,1.7 C4.7,1.7 4.9,1.5 4.8,1.2 C4.8,1 4.6,0.8 4.3,0.9 C4.1,0.9 3.9,1.1 4,1.4"/></g><path id="Path" fill="#D6D6EA" stroke="#0E2947" stroke-width=".25" d="M3.5,1.3 L4.1,4.2 C4.2,4.5 3.9,4.8 3.6,4.7 L1.9,4.4 C1.5,4.3 1.1,4 1,3.6 L0.9,3.1 C0.8,2.6 1,2.2 1.4,1.9 L2.8,1 C3.1,0.8 3.4,1 3.5,1.3 Z"/><polygon id="Path" fill="#BDBDE5" points="3.6 4.3 1.5 4 1.3 3.4 3.4 3.1"/><path id="Path" fill="#C5C5EA" d="M3,1.1 L1.4,2.1 C1.4,2.1 1.3,2.2 1.3,2.2 C1.3,2.2 1.3,2.3 1.3,2.3 C1.3,2.3 3.3,1.2 3.3,1.1 C3.2,1.2 3.1,1.1 3,1.1 Z"/></g><path id="Path" stroke="#0E2947" stroke-linecap="round" stroke-linejoin="round" stroke-width=".25" d="M7.2,7.1 L6,4.5"/></g><g transform="translate(34.000000, 27.000000) translate(0.000000, 1.000000)"><path id="Path" fill="#D6D6EA" fill-rule="nonzero" stroke="#0E2947" stroke-linecap="round" stroke-linejoin="round" stroke-width=".5" d="M3.5,0.2 L0.7,1.1 C0.6,1.1 0.6,1.2 0.6,1.3 L3.1,8.9 C3.3,9.6 4.1,10.1 4.9,9.8 L4.9,9.8 C5.6,9.6 6.1,8.8 5.8,8 L3.6,0.3 C3.7,0.3 3.6,0.2 3.5,0.2 Z"/><path id="Path" fill="#BDBDE5" fill-rule="nonzero" d="M1.3,0.3 C0.8,0.4 3.5,7.7 3.5,7.7 C3.5,7.7 3.7,8.5 4.7,8.2 C4.7,8.2 4.1,7.8 4,6.8 C3.7,5.8 1.9,0.8 1.9,0.8 L1.3,0.3 Z"/><path id="Path" stroke="#0E2947" stroke-linecap="round" stroke-linejoin="round" stroke-width=".25" d="M4.4,3.1 C3.9,4 2.7,4.5 1.7,4.3"/><path id="Path" stroke="#0E2947" stroke-linecap="round" stroke-linejoin="round" stroke-width=".25" d="M4.8,4.5 C4.2,5.3 3.1,5.7 2.1,5.5"/><path id="Path" stroke="#0E2947" stroke-linecap="round" stroke-linejoin="round" stroke-width=".25" d="M5.3,5.8 C4.8,6.6 3.7,7 2.7,6.7"/><path id="Path" stroke="#0E2947" stroke-linecap="round" stroke-linejoin="round" stroke-width=".25" d="M5,10 C5,10.1 5,10.1 5,10.2"/><path id="Path" stroke="#0E2947" stroke-width=".25" d="M5.1,9.8 L3.3,9.1"/><path id="Path" stroke="#0E2947" stroke-width=".25" d="M5.1,9.8 L6,8.1"/><polyline id="Path" stroke="#0E2947" stroke-linecap="round" stroke-linejoin="round" stroke-width=".25" points="5.3 5.9 4.9 9.6 2.6 6.7"/><circle id="Oval" cx="5" cy="9.7" r="1" fill="#FFCD2D" fill-rule="nonzero" stroke="#0E2947" stroke-linecap="round" stroke-linejoin="round" stroke-width=".25"/></g><g fill-rule="nonzero" transform="translate(34.000000, 27.000000)"><circle id="Oval" cx="2.1" cy="2.5" r="1.7" fill="#25E899" stroke="#0E2947" stroke-width=".75"/><path id="Path" fill="#C0FFE4" d="M3.2,2.7 C3.1,3.2 2.7,3.5 2.2,3.5 C2.5,3.3 2.8,2.9 2.8,2.5 C2.8,2.1 2.6,1.7 2.3,1.4 C3,1.3 3.3,2.2 3.2,2.7 Z"/></g></g><path id="Path" fill="#0E2947" fill-rule="nonzero" d="M34.5,33.6 L34.1,33.6 C33.2,33.6 32.5,32.9 32.5,32 L32.5,26.9 C32.5,26 33.2,25.3 34.1,25.3 L34.5,25.3 C35.4,25.3 36.1,26 36.1,26.9 L36.1,32 C36.1,32.9 35.4,33.6 34.5,33.6 Z"/><ellipse id="Oval" cx="26.2" cy="43.3" fill="#DADAF2" fill-rule="nonzero" stroke="#0E2947" stroke-width=".25" rx="7.5" ry="1"/><g transform="translate(24.000000, 38.000000)"><path id="Path" fill="#143954" fill-rule="nonzero" d="M4.2,5.1 L4.2,5.4 C4.2,5.4 3.3,5.5 2.2,5.5 C1.1,5.5 0.2,5.5 0.2,5.4 L0.2,5.1 C0.2,5.1 1.4,5.2 2.2,5.2 C2.7,5.2 4.2,5.1 4.2,5.1 Z"/><g fill-rule="nonzero" transform="translate(0.000000, 4.000000)"><ellipse id="Oval" cx="2.2" cy="1.1" fill="#143954" rx="2" ry="1"/><path id="Path" fill="#0E2947" d="M2.2,1 C1.1,1 0.2,1 0.2,1.1 C0.2,1.2 1.1,1.2 2.2,1.2 C3.3,1.2 4.2,1.2 4.2,1.1 C4.2,1 3.3,1 2.2,1 L2.2,1 Z"/></g><g><g id="XMLID_5_-link" fill="#FFC145" fill-rule="nonzero"><path id="XMLID_5_" d="M2.2,5.1 L2.2,5.1 C1.4,5.1 0.7,4.4 0.7,3.6 L0.7,1.8 C0.7,1 1.4,0.3 2.2,0.3 L2.2,0.3 C3,0.3 3.7,1 3.7,1.8 L3.7,3.6 C3.6,4.5 3,5.1 2.2,5.1 Z"/></g><path id="Path" fill="#FFE292" fill-rule="nonzero" d="M1.3,5 C1.5,5.1 1.7,5.2 1.9,5.2 C1.9,5.2 2,5.2 2,5.2 C2,5.2 2,5.1 1.9,5.1 C1.7,5 1.6,4.9 1.5,4.8 C1.4,4.7 1.4,4.7 1.3,4.6 C1.2,4.5 1.2,4.4 1.1,4.4 C1,4.3 1,4.5 1,4.6 C1.1,4.7 1.2,4.9 1.3,5 Z"/><path id="Path" fill="#BE7325" fill-rule="nonzero" d="M3.2,4.2 C3,4.6 2.7,5 2.4,5.2 C3,5.2 3.5,4.8 3.7,4.2 C3.7,4.1 3.7,3.9 3.6,3.9 C3.3,3.9 3.2,4.1 3.2,4.2 Z"/><path id="Path" fill="#BE7325" fill-rule="nonzero" d="M2.3,5 C2.3,4.9 2.3,4.8 2.4,4.8 C2.5,4.6 2.7,4.5 2.8,4.4 C2.9,4.3 2.9,4.3 2.9,4.4 C2.9,4.5 2.8,4.7 2.8,4.7 C2.7,4.7 2.3,5 2.3,5 Z"/><path id="Path" stroke="#143954" stroke-width=".1" d="M0.9,4.3 L3.6,4.3"/><path id="Path" stroke="#143954" stroke-width=".1" d="M0.9,4.5 L3.6,4.5"/><path id="Path" stroke="#143954" stroke-width=".1" d="M0.9,4.7 L3.6,4.7"/><g id="XMLID_5_-link" stroke="#0E2947" stroke-width=".25"><path id="XMLID_5_" d="M2.2,5.1 L2.2,5.1 C1.4,5.1 0.7,4.4 0.7,3.6 L0.7,1.8 C0.7,1 1.4,0.3 2.2,0.3 L2.2,0.3 C3,0.3 3.7,1 3.7,1.8 L3.7,3.6 C3.6,4.5 3,5.1 2.2,5.1 Z"/></g></g></g><path id="Path" fill="url(#linearGradient-3)" fill-rule="nonzero" d="M28.2,42 L28.2,43.1 C28.2,43.1 27.3,43.2 26.2,43.2 C25.1,43.2 24.2,43.2 24.2,43.1 L24.2,42 L28.2,42 Z"/><g transform="translate(13.000000, 27.000000)"><path id="Path" fill="#D6D6EA" fill-rule="nonzero" d="M0.2,9.2 C0.3,9.6 0.5,10.1 0.9,10.3 C1.3,10.5 1.7,10.4 2.1,10.2 C2.5,10 3,9.6 2.9,9.5 C2.8,9.4 2,9.5 1.9,9.4 C1.5,9.2 1.2,9 0.8,8.7 C0.7,8.6 0.5,8.4 0.3,8.5 C0.2,8.7 0.2,9.1 0.2,9.2 Z"/><path id="Path" stroke="#25E899" stroke-width=".1" d="M9.6,5.8 L16.9,5.8"/><g><path id="Path" fill="#D6D6EA" fill-rule="nonzero" stroke="#0E2947" stroke-linecap="round" stroke-linejoin="round" stroke-width=".5" d="M2.6,0.2 L5.4,1.1 C5.5,1.1 5.5,1.2 5.5,1.3 L3,8.9 C2.8,9.6 2,10.1 1.2,9.8 L1.2,9.8 C0.5,9.6 -2.77555756e-17,8.8 0.3,8 L2.5,0.3 C2.5,0.3 2.5,0.2 2.6,0.2 Z"/><path id="Path" fill="#BDBDE5" fill-rule="nonzero" d="M4.8,0.3 C5.3,0.4 2.6,7.7 2.6,7.7 C2.6,7.7 2.4,8.5 1.4,8.2 C1.4,8.2 2,7.8 2.1,6.8 C2.4,5.8 4.2,0.8 4.2,0.8 L4.8,0.3 Z"/><path id="Path" stroke="#0E2947" stroke-linecap="round" stroke-linejoin="round" stroke-width=".25" d="M1.7,3.1 C2.2,4 3.4,4.5 4.4,4.3"/><path id="Path" stroke="#0E2947" stroke-linecap="round" stroke-linejoin="round" stroke-width=".25" d="M1.3,4.5 C1.9,5.3 3,5.7 4,5.5"/><path id="Path" stroke="#0E2947" stroke-linecap="round" stroke-linejoin="round" stroke-width=".25" d="M0.9,5.8 C1.4,6.6 2.5,7 3.5,6.7"/><path id="Path" stroke="#0E2947" stroke-linecap="round" stroke-linejoin="round" stroke-width=".25" d="M1.2,10 C1.2,10.1 1.2,10.1 1.2,10.2"/><path id="Path" stroke="#0E2947" stroke-width=".25" d="M1.1,9.9 L2.8,9.1"/><path id="Path" stroke="#0E2947" stroke-width=".25" d="M1.1,9.8 L0.1,8.1"/><polyline id="Path" stroke="#0E2947" stroke-linecap="round" stroke-linejoin="round" stroke-width=".25" points=".9 5.9 1.2 9.7 3.5 6.7"/><circle id="Oval" cx="1.2" cy="9.7" r="1" fill="#FFCD2D" fill-rule="nonzero" stroke="#0E2947" stroke-linecap="round" stroke-linejoin="round" stroke-width=".25"/></g></g><g fill-rule="nonzero" transform="translate(14.000000, 26.000000)"><circle id="Oval" cx="2.2" cy="2.5" r="1.7" fill="#25E899" stroke="#0E2947" stroke-width=".75"/><path id="Path" fill="#C0FFE4" d="M1.1,2.7 C1.2,3.2 1.6,3.6 2,3.6 C1.7,3.4 1.5,3 1.5,2.5 C1.5,2.1 1.7,1.7 2,1.5 C1.4,1.3 1.1,2.1 1.1,2.7 Z"/></g><path id="Path" fill="#0E2947" fill-rule="nonzero" d="M34.1,39.8 L33.9,39.8 C33.5,39.8 33.1,39.5 33.1,39 L33.1,37.8 C33.1,37.4 33.4,37 33.9,37 L34.1,37 C34.5,37 34.9,37.3 34.9,37.8 L34.9,39 C34.9,39.5 34.5,39.8 34.1,39.8 Z"/><path id="Path" fill="#0E2947" fill-rule="nonzero" d="M18.5,39.8 L18.3,39.8 C17.9,39.8 17.5,39.5 17.5,39 L17.5,37.8 C17.5,37.4 17.8,37 18.3,37 L18.5,37 C18.9,37 19.3,37.3 19.3,37.8 L19.3,39 C19.2,39.5 18.9,39.8 18.5,39.8 Z"/><path id="Path" fill="#0E2947" fill-rule="nonzero" d="M18.2,33.7 L17.8,33.7 C16.9,33.7 16.2,33 16.2,32.1 L16.2,27 C16.2,26.1 16.9,25.4 17.8,25.4 L18.2,25.4 C19.1,25.4 19.8,26.1 19.8,27 L19.8,32.1 C19.8,33 19.1,33.7 18.2,33.7 Z"/><path id="Path" fill="#9393B5" fill-rule="nonzero" stroke="#0E2947" stroke-linecap="round" stroke-linejoin="round" stroke-width=".5" d="M33.2,40.7 C33.2,40.7 32.8,41.1 31.5,41.4 C30.2,41.7 24.4,42.6 20.5,41.4 C20.5,41.4 19.3,41.1 18.9,40.1 C18.9,40.1 18.1,35 18.1,32.9 C18.1,30.8 18.6,26 18.8,25.5 C18.8,25.5 18.9,24.3 21.5,23.9 C21.5,23.9 27.1,22.9 31,23.9 C31,23.9 32.5,24.2 33,24.7 C33,24.7 33.8,25.3 33.8,25.9 C33.8,26.5 34.5,29 34.4,31.6 C34.3,34.2 34.2,37.5 34.1,38.3 C33.7,40.2 33.2,40.7 33.2,40.7 Z"/><path id="Path" fill="#D6D6EA" fill-rule="nonzero" d="M34,31.2 C33.9,33.5 33.3,39.4 33.3,39.4 C33.2,40.5 30.1,40.8 26.2,40.8 C22.3,40.8 19.3,40.5 19.2,39.4 C19.2,39.4 18.7,34.3 18.6,32.3 C18.5,30.3 19.1,26.1 19.3,25.6 C19.3,25.6 19.3,24.5 21.8,24.2 C21.8,24.2 27.1,23.3 30.8,24.2 C30.8,24.2 32.2,24.5 32.7,25 C32.7,25 33.5,25.5 33.5,26.1 C33.4,26.7 34.1,28.9 34,31.2 Z"/><path id="Path" fill="#9393B5" fill-rule="nonzero" d="M30.3,37.4 L22,37.4 C21.8,37.4 21.6,37.2 21.6,37 L21.6,28.7 C21.6,28.5 21.8,28.3 22,28.3 L30.3,28.3 C30.5,28.3 30.7,28.5 30.7,28.7 L30.7,37 C30.7,37.2 30.5,37.4 30.3,37.4 Z"/><g id="Path" stroke="#0E2947" stroke-linecap="round" stroke-linejoin="round" stroke-width=".2"><path d="M9.4,9.1 L9.4,9.1" transform="translate(21.000000, 28.000000)"/><path stroke-dasharray="0 .944" d="M8.5,9.1 L1.4,9.1" transform="translate(21.000000, 28.000000)"/><path d="M0.9,9.1 L0.9,9.1" transform="translate(21.000000, 28.000000)"/><path stroke-dasharray="0 .944" d="M0.9,8.1 L0.9,1" transform="translate(21.000000, 28.000000)"/><path d="M0.9,0.6 L0.9,0.6" transform="translate(21.000000, 28.000000)"/><path stroke-dasharray="0 .944" d="M1.9,0.6 L9,0.6" transform="translate(21.000000, 28.000000)"/><path d="M9.4,0.6 L9.4,0.6" transform="translate(21.000000, 28.000000)"/><path stroke-dasharray="0 .944" d="M9.4,1.5 L9.4,8.6" transform="translate(21.000000, 28.000000)"/></g><g fill-rule="nonzero" transform="translate(22.000000, 27.000000)"><g id="XMLID_8_-link" fill="#0E2947" transform="translate(0.000000, 1.000000)"><path id="XMLID_8_" d="M7.5,8.7 L0.8,8.7 C0.5,8.7 0.2,8.4 0.2,8.1 L0.2,1.4 C0.2,1.1 0.5,0.8 0.8,0.8 L7.5,0.8 C7.8,0.8 8.1,1.1 8.1,1.4 L8.1,8.1 C8.1,8.5 7.9,8.7 7.5,8.7 Z"/></g><path id="Path" fill="#113759" d="M6.9,8.5 C6.9,8.5 8.3,9.6 8.1,9.7 C7.7,10.1 1.6,9.6 1.4,9.7 C0.6,9.9 0.2,9.6 0.3,9.4 C0.4,9.3 1.5,8.4 1.5,8.4 L6.9,8.4 L6.9,8.5 Z"/><rect id="Rectangle" width="5.4" height="5.4" x="1.5" y="3.1" fill="#143954"/><path id="Shape" fill="#E6E7E8" d="M3.3,4.1 C3.2,4.1 3.2,4 3.2,3.9 C3.2,3.9 3.2,3.8 3.2,3.8 C3.2,3.7 3.2,3.7 3.3,3.6 L3.4,3.5 C3.4,3.5 3.4,3.4 3.4,3.4 L3.3,3.1 C3.3,3.1 3.3,3.1 3.3,3.1 C3.3,3.1 3.3,3.1 3.3,3.1 L3.2,3.1 C3.2,3.1 3.1,3.1 3.1,3.1 C3.1,3.1 3,3.1 3,3 C3,3 3,3 2.9,2.9 C2.8,2.8 2.8,2.8 2.8,2.7 L2.8,2.6 C2.8,2.6 2.8,2.5 2.8,2.5 L2.5,2.4 C2.5,2.4 2.4,2.4 2.4,2.4 L2.3,2.5 C2.3,2.6 2.2,2.6 2.1,2.6 C2.1,2.6 2,2.6 2,2.6 C2,2.6 1.9,2.6 1.9,2.6 C1.9,2.6 1.8,2.6 1.8,2.5 L1.7,2.4 C1.7,2.4 1.7,2.4 1.7,2.4 C1.7,2.4 1.7,2.4 1.6,2.4 L1.3,2.5 C1.3,2.5 1.2,2.6 1.2,2.6 L1.2,2.7 C1.2,2.8 1.2,2.8 1.1,2.9 C1.1,2.9 1.1,2.9 1,3 C0.9,3.1 0.9,3.1 0.8,3.1 L0.7,3.1 C0.7,3.1 0.6,3.1 0.6,3.1 L0.5,3.4 C0.5,3.4 0.5,3.5 0.5,3.5 L0.6,3.6 C0.7,3.6 0.7,3.7 0.7,3.8 C0.7,3.8 0.7,3.9 0.7,3.9 C0.7,4 0.7,4 0.6,4.1 L0.5,4.2 C0.5,4.2 0.5,4.3 0.5,4.3 L0.6,4.6 C0.6,4.6 0.6,4.6 0.6,4.6 C0.6,4.6 0.6,4.6 0.6,4.6 L0.7,4.6 C0.7,4.6 0.8,4.6 0.8,4.6 C0.8,4.6 0.9,4.6 0.9,4.7 C0.9,4.7 0.9,4.7 1,4.8 C1.1,4.9 1.1,4.9 1.1,5 L1.1,5.1 C1.1,5.1 1.1,5.2 1.1,5.2 L1.4,5.3 C1.4,5.3 1.5,5.3 1.5,5.3 L1.6,5.2 C1.9,5 2,5 2,5 C2,5 2.1,5 2.1,5 C2.1,5 2.2,5 2.2,5 C2.2,5 2.3,5 2.3,5.1 L2.4,5.2 C2.4,5.2 2.4,5.2 2.4,5.2 C2.4,5.2 2.4,5.2 2.4,5.2 C2.4,5.2 2.4,5.2 2.5,5.2 L2.8,5.1 C2.8,5.1 2.9,5 2.9,5 L2.9,4.9 C2.9,4.8 2.9,4.8 3,4.7 C3,4.7 3,4.7 3.1,4.6 C3.2,4.5 3.2,4.5 3.3,4.5 L3.4,4.5 C3.4,4.5 3.5,4.5 3.5,4.5 L3.6,4.2 C3.6,4.2 3.6,4.1 3.6,4.1 L3.3,4.1 Z M2.6,4.1 C2.5,4.4 2.1,4.5 1.8,4.4 C1.5,4.3 1.4,3.9 1.5,3.6 C1.6,3.3 2,3.2 2.3,3.3 C2.6,3.5 2.8,3.8 2.6,4.1 Z"/><path id="Shape" fill="#E6E7E8" d="M4.9,2 C4.9,2 4.8,1.9 4.8,1.9 C4.8,1.9 4.8,1.9 4.8,1.8 C4.8,1.7 4.8,1.7 4.9,1.7 L5,1.6 C5,1.6 5,1.6 5,1.5 L5,1.3 C5,1.3 5,1.3 5,1.3 C5,1.3 5,1.3 5,1.3 L4.9,1.3 C4.9,1.3 4.8,1.3 4.8,1.3 C4.8,1.3 4.8,1.3 4.7,1.3 C4.7,1.3 4.7,1.3 4.7,1.2 C4.7,1.2 4.6,1.1 4.7,1.1 L4.7,1 C4.7,1 4.7,0.9 4.7,0.9 L4.5,0.8 C4.5,0.8 4.4,0.8 4.4,0.8 L4.3,0.9 C4.3,0.9 4.2,1 4.2,1 C4.2,1 4.2,1 4.1,1 C4.1,1 4.1,1 4,1 C4,1 3.9,1 3.9,0.9 L3.8,0.8 C3.8,0.8 3.8,0.8 3.8,0.8 C3.8,0.8 3.8,0.8 3.8,0.8 L3.6,0.9 C3.6,0.9 3.6,0.9 3.6,1 L3.6,1.1 C3.6,1.2 3.6,1.2 3.6,1.2 C3.6,1.2 3.6,1.2 3.5,1.2 C3.5,1.2 3.4,1.3 3.4,1.2 L3.3,1.2 C3.3,1.2 3.2,1.2 3.2,1.2 L3,1.5 C3,1.5 3,1.6 3,1.6 L3.1,1.7 C3.1,1.7 3.2,1.8 3.2,1.8 C3.2,1.8 3.2,1.8 3.2,1.9 C3.2,2 3.2,2 3.1,2 L3,2 C3,2 3,2 3,2.1 L3.1,2.3 C3.1,2.3 3.1,2.3 3.1,2.3 C3.1,2.3 3.1,2.3 3.1,2.3 L3.2,2.3 C3.2,2.3 3.3,2.3 3.3,2.3 C3.3,2.3 3.3,2.3 3.4,2.3 C3.4,2.3 3.4,2.3 3.4,2.4 C3.4,2.4 3.5,2.5 3.4,2.5 L3.4,2.6 C3.4,2.6 3.4,2.7 3.4,2.7 L3.6,2.8 C3.6,2.8 3.7,2.8 3.7,2.8 L3.8,2.7 C3.8,2.7 3.9,2.6 3.9,2.6 C3.9,2.6 3.9,2.6 4,2.6 C4,2.6 4,2.6 4.1,2.6 C4.1,2.6 4.2,2.6 4.2,2.7 L4.3,2.8 C4.3,2.8 4.3,2.8 4.3,2.8 C4.3,2.8 4.3,2.8 4.3,2.8 C4.3,2.8 4.3,2.8 4.3,2.8 L4.5,2.7 C4.5,2.7 4.5,2.7 4.5,2.6 L4.5,2.5 C4.5,2.4 4.5,2.4 4.5,2.4 C4.5,2.4 4.5,2.4 4.6,2.4 C4.6,2.4 4.7,2.3 4.7,2.4 L4.8,2.4 C4.8,2.4 4.9,2.4 4.9,2.4 L5,2.2 C5,2.1 5,2.1 4.9,2 L4.9,2 Z M4.4,2 C4.3,2.2 4,2.3 3.8,2.2 C3.6,2.1 3.5,1.8 3.6,1.6 C3.7,1.4 4,1.3 4.2,1.4 C4.4,1.5 4.5,1.8 4.4,2 Z"/><path id="Shape" fill="#9393B5" d="M8.2,2.4 C8.1,2.4 8.1,2.4 8.2,2.4 C8.2,2.3 8.2,2.3 8.2,2.3 C8.2,2.3 8.2,2.2 8.2,2.2 L8.3,2.2 C8.3,2.2 8.3,2.2 8.3,2.2 L8.3,2.1 C8.3,2.1 8.3,2.1 8.3,2.1 C8.3,2.1 8.3,2.1 8.3,2.1 L8.2,2.1 C8.2,2.1 8.2,2.1 8.1,2.1 C8.1,2.1 8.1,2.1 8.1,2.1 C8.1,2.1 8.1,2.1 8.1,2.1 C8.1,2.1 8.1,2 8.1,2 L8.1,1.9 C8.1,1.9 8.1,1.9 8.1,1.9 L8,1.8 C8,1.8 8,1.8 8,1.8 L8,1.9 C8,1.9 8,1.9 7.9,1.9 C7.9,1.9 7.9,1.9 7.9,1.9 C7.9,1.9 7.9,1.9 7.9,1.9 C7.9,1.9 7.9,1.9 7.9,1.9 L7.9,1.8 C7.9,1.8 7.9,1.8 7.9,1.8 C7.9,1.8 7.9,1.8 7.9,1.8 L7.8,1.8 C7.8,1.8 7.8,1.8 7.8,1.8 L7.8,1.9 C7.8,1.9 7.8,2 7.8,2 C7.8,2 7.8,2 7.8,2 C7.8,2 7.7,2 7.7,2 L7.6,2 C7.6,2 7.6,2 7.6,2 L7.5,2.1 C7.5,2.1 7.5,2.1 7.5,2.1 L7.6,2.1 C7.6,2.1 7.6,2.1 7.6,2.2 C7.6,2.2 7.6,2.2 7.6,2.2 C7.6,2.2 7.6,2.3 7.6,2.3 L7.5,2.3 C7.5,2.3 7.5,2.3 7.5,2.3 L7.5,2.4 C7.5,2.4 7.5,2.4 7.5,2.4 C7.5,2.4 7.5,2.4 7.5,2.4 L7.6,2.4 C7.6,2.4 7.6,2.4 7.7,2.4 C7.7,2.4 7.7,2.4 7.7,2.4 C7.7,2.4 7.7,2.4 7.7,2.4 C7.7,2.4 7.7,2.5 7.7,2.5 L7.7,2.6 C7.7,2.6 7.7,2.6 7.7,2.6 L7.8,2.7 C7.8,2.7 7.8,2.7 7.8,2.7 L7.8,2.6 C7.8,2.6 7.8,2.6 7.9,2.6 C7.9,2.6 7.9,2.6 7.9,2.6 C7.9,2.6 7.9,2.6 7.9,2.6 C7.9,2.6 7.9,2.6 7.9,2.6 L7.9,2.7 C7.9,2.7 7.9,2.7 7.9,2.7 L7.9,2.7 C7.9,2.7 7.9,2.7 7.9,2.7 L8,2.7 C8,2.7 8,2.7 8,2.7 L8,2.6 C8,2.6 8,2.5 8,2.5 C8,2.5 8,2.5 8,2.5 C8,2.5 8.1,2.5 8.1,2.5 L8.2,2.5 C8.2,2.5 8.2,2.5 8.2,2.5 L8.2,2.4 C8.2,2.5 8.2,2.5 8.2,2.4 L8.2,2.4 Z M7.9,2.4 C7.8,2.5 7.7,2.6 7.6,2.5 C7.5,2.4 7.4,2.3 7.5,2.2 C7.6,2.1 7.7,2 7.8,2.1 C7.9,2.1 7.9,2.3 7.9,2.4 Z"/><path id="Shape" fill="#E6E7E8" d="M6.8,2.4 C6.8,2.4 6.8,2.4 6.8,2.4 C6.8,2.4 6.8,2.4 6.8,2.4 C6.7,2.3 6.7,2.3 6.7,2.3 L6.7,2.3 C6.7,2.3 6.7,2.3 6.7,2.3 L6.6,2.2 C6.6,2.2 6.6,2.2 6.6,2.2 C6.6,2.2 6.6,2.2 6.6,2.2 L6.6,2.2 C6.6,2.2 6.6,2.2 6.6,2.2 C6.6,2.2 6.6,2.2 6.6,2.2 C6.6,2.2 6.6,2.2 6.6,2.2 C6.6,2.2 6.6,2.2 6.6,2.2 L6.6,2.2 C6.6,2.2 6.6,2.2 6.6,2.2 L6.5,2.2 C6.5,2.2 6.5,2.2 6.5,2.2 L6.5,2.2 C6.5,2.2 6.5,2.2 6.5,2.3 C6.5,2.3 6.5,2.3 6.5,2.3 C6.5,2.3 6.5,2.3 6.5,2.3 C6.5,2.3 6.5,2.3 6.5,2.3 L6.5,2.3 C6.5,2.3 6.5,2.3 6.5,2.3 C6.5,2.3 6.5,2.3 6.5,2.3 L6.4,2.4 C6.4,2.4 6.4,2.4 6.4,2.4 L6.4,2.4 C6.4,2.4 6.4,2.4 6.4,2.5 C6.4,2.5 6.4,2.5 6.4,2.5 C6.4,2.5 6.4,2.5 6.4,2.5 L6.4,2.5 C6.4,2.5 6.4,2.5 6.4,2.5 L6.4,2.6 C6.4,2.6 6.4,2.6 6.4,2.6 L6.4,2.6 C6.4,2.6 6.4,2.6 6.5,2.6 C6.5,2.6 6.5,2.6 6.5,2.6 C6.5,2.6 6.5,2.6 6.5,2.7 L6.5,2.7 C6.5,2.7 6.5,2.7 6.5,2.7 L6.6,2.8 C6.6,2.8 6.6,2.8 6.6,2.8 C6.6,2.8 6.6,2.8 6.6,2.8 L6.6,2.8 C6.6,2.8 6.6,2.8 6.6,2.8 C6.6,2.8 6.6,2.8 6.6,2.8 C6.6,2.8 6.6,2.8 6.6,2.8 C6.6,2.8 6.6,2.8 6.6,2.8 L6.6,2.8 C6.6,2.8 6.6,2.8 6.6,2.8 L6.7,2.8 C6.7,2.8 6.7,2.8 6.7,2.8 L6.7,2.8 C6.7,2.8 6.7,2.8 6.7,2.7 C6.7,2.7 6.7,2.7 6.7,2.7 C6.7,2.7 6.7,2.7 6.7,2.7 C6.7,2.7 6.7,2.7 6.7,2.7 L6.7,2.7 C6.7,2.7 6.7,2.7 6.7,2.7 C6.7,2.7 6.7,2.7 6.7,2.7 C6.7,2.7 6.7,2.7 6.7,2.7 L6.8,2.6 C6.8,2.6 6.8,2.6 6.8,2.6 L6.8,2.6 C6.8,2.6 6.8,2.6 6.8,2.5 C6.8,2.5 6.8,2.5 6.8,2.5 C6.8,2.5 6.8,2.5 6.8,2.5 L6.8,2.5 C6.8,2.5 6.8,2.5 6.8,2.5 L6.8,2.4 C6.9,2.5 6.9,2.4 6.8,2.4 L6.8,2.4 Z M6.6,2.5 C6.6,2.6 6.5,2.7 6.4,2.7 C6.3,2.7 6.2,2.6 6.2,2.5 C6.2,2.4 6.3,2.3 6.4,2.3 C6.5,2.3 6.6,2.4 6.6,2.5 Z"/><path id="Shape" fill="#E6E7E8" d="M1.3,2.2 C1.2,2.2 1.2,2.2 1.3,2.2 C1.2,2.1 1.2,2.1 1.3,2.2 C1.2,2.1 1.2,2 1.2,2 L1.2,1.9 C1.2,1.9 1.2,1.9 1.2,1.9 L1.1,1.8 C1.1,1.8 1.1,1.8 1.1,1.8 C1.1,1.8 1.1,1.8 1.1,1.8 L1,1.8 C1,1.8 1,1.8 0.9,1.8 C0.9,1.8 0.9,1.8 0.9,1.8 C0.9,1.8 0.9,1.8 0.9,1.8 C0.9,1.8 0.8,1.8 0.8,1.7 L0.8,1.6 C0.8,1.6 0.8,1.6 0.8,1.6 L0.7,1.6 C0.7,1.6 0.7,1.6 0.7,1.6 L0.7,1.7 C0.7,1.7 0.7,1.8 0.6,1.8 C0.6,1.8 0.6,1.8 0.6,1.8 C0.6,1.8 0.6,1.8 0.6,1.8 C0.6,1.8 0.6,1.8 0.5,1.8 L0.4,1.8 C0.4,1.8 0.4,1.8 0.4,1.8 C0.4,1.8 0.4,1.8 0.4,1.8 L0.3,1.9 C0.3,1.9 0.3,1.9 0.3,1.9 L0.3,2 C0.3,2 0.3,2.1 0.3,2.1 C0.3,2.1 0.3,2.1 0.3,2.1 C0.3,2.1 0.3,2.2 0.2,2.2 L0.1,2.2 C0.1,2.2 0.1,2.2 0.1,2.2 L0.1,2.3 C0.1,2.3 0.1,2.3 0.1,2.3 L0.2,2.3 C0.2,2.3 0.3,2.3 0.3,2.4 C0.3,2.4 0.3,2.4 0.3,2.4 C0.3,2.4 0.3,2.5 0.3,2.5 L0.3,2.6 C0.3,2.6 0.3,2.6 0.3,2.6 L0.4,2.7 C0.4,2.7 0.4,2.7 0.4,2.7 C0.4,2.7 0.4,2.7 0.4,2.7 L0.5,2.7 C0.5,2.7 0.5,2.7 0.6,2.7 C0.6,2.7 0.6,2.7 0.6,2.7 C0.6,2.7 0.6,2.7 0.6,2.7 C0.6,2.7 0.7,2.7 0.7,2.8 L0.7,2.9 C0.7,2.9 0.7,2.9 0.7,2.9 L0.8,2.9 C0.8,2.9 0.8,2.9 0.8,2.9 L0.8,2.8 C0.8,2.8 0.8,2.7 0.9,2.7 C0.9,2.7 0.9,2.7 0.9,2.7 C0.9,2.7 0.9,2.7 0.9,2.7 C0.9,2.7 0.9,2.7 1,2.7 L1.1,2.7 C1.1,2.7 1.1,2.7 1.1,2.7 C1.1,2.7 1.1,2.7 1.1,2.7 C1.1,2.7 1.1,2.7 1.1,2.7 L1.2,2.6 C1.2,2.6 1.2,2.6 1.2,2.6 L1.2,2.5 C1.2,2.5 1.2,2.4 1.2,2.4 C1.2,2.4 1.2,2.4 1.2,2.4 C1.2,2.4 1.2,2.3 1.3,2.3 L1.4,2.3 C1.4,2.3 1.4,2.3 1.4,2.3 L1.3,2.2 C1.4,2.2 1.4,2.2 1.3,2.2 L1.3,2.2 Z M1,2.3 C1,2.4 0.9,2.6 0.7,2.6 C0.6,2.6 0.4,2.5 0.4,2.3 C0.4,2.2 0.5,2 0.7,2 C0.9,2 1,2.2 1,2.3 Z"/><path id="Shape" fill="#E6E7E8" d="M4.4,3.2 C4.4,3.2 4.4,3.1 4.4,3.2 C4.4,3.1 4.4,3.1 4.4,3.2 C4.3,3.1 4.3,3.1 4.3,3.1 L4.3,3.1 C4.3,3.1 4.3,3.1 4.3,3.1 L4.2,3 C4.2,3 4.2,3 4.2,3 C4.2,3 4.2,3 4.2,3 L4.2,3 C4.2,3 4.2,3 4.2,3 C4.2,3 4.2,3 4.2,3 C4.2,3 4.2,3 4.2,3 C4.2,3 4.2,3 4.2,3 L4.2,3 C4.2,3 4.2,3 4.2,3 L4.1,3 C4.1,3 4.1,3 4.1,3 L4.1,3 C4.1,3 4.1,3 4.1,3.1 C4.1,3.1 4.1,3.1 4.1,3.1 C4.1,3.1 4.1,3.1 4.1,3.1 C4.1,3.1 4.1,3.1 4.1,3.1 L4.1,3.1 C4.1,3.1 4.1,3.1 4.1,3.1 C4.1,3.1 4.1,3.1 4.1,3.1 L3.7,3 C3.7,3 3.7,3 3.7,3 L3.7,3 C3.7,3 3.7,3 3.7,3.1 C3.7,3.1 3.7,3.1 3.7,3.1 C3.7,3.1 3.7,3.1 3.7,3.1 L3.7,3.1 C3.7,3.1 3.7,3.1 3.7,3.1 L3.7,3.2 C3.7,3.2 3.7,3.2 3.7,3.2 L3.7,3.2 C3.7,3.2 3.7,3.2 3.8,3.2 C3.8,3.2 3.8,3.2 3.8,3.2 C3.8,3.2 3.8,3.2 3.8,3.3 L3.8,3.3 C3.8,3.3 3.8,3.3 3.8,3.3 L3.9,3.4 C3.9,3.4 3.9,3.4 3.9,3.4 C3.9,3.4 3.9,3.4 3.9,3.4 L3.9,3.4 C3.9,3.4 3.9,3.4 3.9,3.4 C3.9,3.4 3.9,3.4 3.9,3.4 C3.9,3.4 3.9,3.4 3.9,3.4 C3.9,3.4 3.9,3.4 3.9,3.4 L3.9,3.4 C3.9,3.4 3.9,3.4 3.9,3.4 L4,3.4 C4,3.4 4,3.4 4,3.4 L4,3.4 C4,3.4 4,3.4 4,3.3 C4,3.3 4,3.3 4,3.3 C4,3.3 4,3.3 4,3.3 C4,3.3 4,3.3 4,3.3 L4,3.3 C4,3.3 4,3.3 4,3.3 C4,3.3 4,3.3 4,3.3 C4,3.3 4,3.3 4,3.3 L4.1,3.2 C4.1,3.2 4.1,3.2 4.1,3.2 L4.1,3.2 C4.1,3.2 4.1,3.2 4.1,3.1 C4.1,3.1 4.1,3.1 4.1,3.1 C4.1,3.1 4.1,3.1 4.1,3.1 L4.1,3.1 C4.1,3.1 4.1,3.1 4.1,3.1 L4.4,3.2 C4.5,3.2 4.5,3.2 4.4,3.2 L4.4,3.2 Z M4.2,3.3 C4.2,3.4 4.1,3.5 4,3.5 C3.9,3.5 3.8,3.4 3.8,3.3 C3.8,3.2 3.9,3.1 4,3.1 C4.2,3.1 4.2,3.2 4.2,3.3 Z"/></g><path id="Path" fill="#ED1C24" fill-rule="nonzero" d="M26.6,30.5 L26.6,30.5 C27.7,30.1 28.8,30.9 28.8,32 L28.8,32 C28.8,32.3 28.7,32.6 28.5,32.8 L26.1,35.3 L23.7,32.9 C23.5,32.7 23.4,32.4 23.4,32.1 L23.4,32.1 C23.4,31 24.5,30.2 25.6,30.6 L25.6,30.6 C25.9,30.6 26.3,30.6 26.6,30.5 Z"/><path id="Path" fill="#3BF2A3" fill-rule="nonzero" stroke="#3BF2A3" stroke-linecap="round" stroke-linejoin="round" stroke-width=".1" d="M29.7,32.8 L22.7,32.8"/><path id="Path" fill="#9393B5" fill-rule="nonzero" d="M23.7,32.8 C23.5,32.6 23.4,32.3 23.4,32 L23.4,32 C23.4,30.9 24.5,30.1 25.6,30.5 L25.6,30.5 C26,30.6 26.3,30.6 26.7,30.5 L26.7,30.5 C27.8,30.1 28.9,30.9 28.9,32 L28.9,32 C28.9,32.3 28.8,32.6 28.6,32.8"/><g transform="translate(12.000000, 34.000000)"><path id="Path" fill="#D6D6EA" fill-rule="nonzero" stroke="#0E2947" stroke-linecap="round" stroke-linejoin="round" stroke-width=".5" d="M1.4,1.4 L1.4,1.4 C2,0.7 3,0.7 3.6,1.3 L13,9.6 C13.6,10.1 13.6,11 13.1,11.6 L13.1,11.6 C12.6,12.2 11.7,12.3 11.1,11.8 L1.5,3.8 C0.9,3.1 0.8,2.1 1.4,1.4 Z"/><path id="Path" fill="#BDBDE5" fill-rule="nonzero" d="M2.4,1.3 C2.9,1.1 12,9.3 12,9.3 C12,9.3 12.4,9.8 11.7,10.6 C11.7,10.6 11.9,9.8 10.9,9.2 C10,8.6 2.1,1.5 2.1,1.5 C2.1,1.5 2.1,1.3 2.4,1.3 Z"/><path id="Path" stroke="#0E2947" stroke-linecap="round" stroke-linejoin="round" stroke-width=".25" d="M1.2,3.2 C1.6,2.5 2.4,1.6 3.4,1.2"/><path id="Path" stroke="#0E2947" stroke-linecap="round" stroke-linejoin="round" stroke-width=".25" d="M2.4,4.1 C3.4,3.8 4.2,3 4.3,2"/><path id="Path" stroke="#0E2947" stroke-linecap="round" stroke-linejoin="round" stroke-width=".25" d="M3.4,5 C4.4,4.9 5.1,4 5.3,3"/><path id="Path" stroke="#0E2947" stroke-linecap="round" stroke-linejoin="round" stroke-width=".25" d="M7.4,6.4 C7.5,6.4 7.5,6.5 7.6,6.5"/><path id="Path" stroke="#0E2947" stroke-width=".25" d="M7.2,6.4 L7.2,4.5"/><path id="Path" stroke="#0E2947" stroke-width=".25" d="M7.1,6.4 L5.2,6.6"/><path id="Path" stroke="#0E2947" stroke-linecap="round" stroke-linejoin="round" stroke-width=".25" d="M10.9,9.9 L8.6,7.7"/><path id="Path" stroke="#0E2947" stroke-linecap="round" stroke-linejoin="round" stroke-width=".25" d="M7.7,8.7 L9.7,6.5"/><polyline id="Path" stroke="#0E2947" stroke-linecap="round" stroke-linejoin="round" stroke-width=".25" points="3.5 5.1 7.1 6.2 5.3 3"/><circle id="Oval" cx="7.1" cy="6.3" r="1" fill="#FFCD2D" fill-rule="nonzero" stroke="#0E2947" stroke-linecap="round" stroke-linejoin="round" stroke-width=".25"/><path id="Path" fill="#9393B5" fill-rule="nonzero" d="M13,9.5 C13,9.5 12,8.6 11,9.7 C10.1,10.7 11,11.6 11,11.6"/><path id="Shape_52_" fill="#25E899" fill-rule="nonzero" stroke="#0E2947" stroke-width=".25" d="M11.5,9.1 C11.2,8.8 10.6,8.8 10.3,9.2 C10,9.5 10,10.1 10.4,10.4 C10.7,10.7 11.3,10.7 11.6,10.3 C11.9,9.9 11.9,9.4 11.5,9.1"/><g fill-rule="nonzero" transform="translate(10.000000, 9.000000)"><g transform="translate(1.000000, 2.000000)"><path id="Shape_51_" fill="#0E2947" d="M1.9,2.7 C1.8,2.7 1.7,2.7 1.7,2.6 L0.6,0.6 C0.6,0.5 0.6,0.4 0.7,0.4 C0.8,0.4 0.9,0.4 0.9,0.5 L2,2.5 C2,2.5 2,2.6 1.9,2.7"/><path id="Shape_50_" fill="#EFF4EE" d="M2.3,4.7 L1.5,3.2 C1.4,3 1.5,2.7 1.7,2.6 L2,2.4 C2.2,2.3 2.5,2.4 2.6,2.6 L3.4,4.1"/><path id="Shape_49_" fill="#0E2947" d="M3.5,4.3 C3.4,4.3 3.3,4.3 3.3,4.2 L2.5,2.7 C2.4,2.6 2.3,2.5 2.1,2.6 L1.8,2.8 C1.7,2.9 1.6,3 1.7,3.2 L2.5,4.7 C2.5,4.8 2.5,4.9 2.4,4.9 C2.3,4.9 2.2,4.9 2.2,4.8 L1.4,3.3 C1.2,3 1.3,2.6 1.6,2.5 L1.9,2.3 C2.2,2.1 2.6,2.2 2.7,2.5 L3.5,4 C3.6,4.1 3.6,4.3 3.5,4.3"/><path id="Shape_48_" fill="#25E899" d="M3.4,4.1 C3.2,3.8 2.9,3.7 2.5,3.8 C2.2,4 2.1,4.3 2.2,4.7 C2.4,5 2.7,5.1 3.1,5 C3.5,4.8 3.6,4.4 3.4,4.1"/><path id="Shape_47_" fill="#0E2947" d="M3.3,5.2 C2.9,5.4 2.4,5.3 2.2,4.9 C2,4.5 2.1,4 2.5,3.8 C2.9,3.6 3.4,3.7 3.6,4.1 C3.8,4.4 3.7,4.9 3.3,5.2 M2.7,4 C2.5,4.1 2.4,4.4 2.5,4.6 C2.6,4.8 2.9,4.9 3.1,4.8 C3.3,4.7 3.4,4.4 3.3,4.2 C3.2,4 2.9,3.9 2.7,4"/></g><g transform="translate(2.000000, 2.000000)"><path id="Shape_46_" fill="#0E2947" d="M2.6,1.8 C2.5,1.9 2.4,1.9 2.3,1.8 L0.5,0.4 C0.4,0.3 0.4,0.2 0.5,0.2 C0.6,0.1 0.7,0.1 0.7,0.2 L2.5,1.6 C2.6,1.6 2.7,1.7 2.6,1.8"/><path id="Shape_45_" fill="#EFF4EE" d="M3.8,3.5 L2.4,2.4 C2.2,2.2 2.2,2 2.3,1.8 L2.5,1.5 C2.7,1.3 2.9,1.3 3.1,1.4 L4.5,2.5"/><path id="Shape_44_" fill="#0E2947" d="M4.7,2.7 C4.6,2.8 4.5,2.8 4.5,2.7 L3.1,1.6 C3,1.5 2.8,1.5 2.7,1.6 L2.5,1.9 C2.4,2 2.4,2.2 2.5,2.3 L3.9,3.4 C4,3.5 4,3.6 3.9,3.7 C3.8,3.8 3.7,3.8 3.7,3.7 L2.3,2.6 C2,2.4 2,2 2.2,1.7 L2.4,1.4 C2.6,1.1 3,1.1 3.3,1.3 L4.7,2.4 C4.7,2.5 4.8,2.6 4.7,2.7"/><path id="Shape_43_" fill="#25E899" d="M4.6,2.6 C4.3,2.4 3.9,2.4 3.7,2.7 C3.5,3 3.5,3.4 3.8,3.6 C4.1,3.8 4.5,3.8 4.7,3.5 C4.9,3.2 4.8,2.8 4.6,2.6"/><path id="Shape_42_" fill="#0E2947" d="M4.8,3.5 C4.5,3.8 4,3.9 3.7,3.6 C3.4,3.3 3.3,2.8 3.6,2.5 C3.9,2.2 4.4,2.1 4.7,2.4 C5,2.7 5.1,3.2 4.8,3.5 M3.8,2.8 C3.6,3 3.7,3.3 3.9,3.4 C4.1,3.6 4.4,3.5 4.5,3.3 C4.7,3.1 4.6,2.8 4.4,2.7 C4.3,2.5 4,2.6 3.8,2.8"/></g><g transform="translate(3.000000, 0.000000)"><path id="Shape_41_" fill="#0E2947" d="M2.6,1.9 C2.6,2 2.5,2.1 2.4,2 L0.2,1.7 C0.1,1.7 -7.09848846e-15,1.6 0.1,1.5 C0.1,1.4 0.2,1.3 0.3,1.4 L2.5,1.7 C2.5,1.8 2.6,1.9 2.6,1.9"/><path id="Shape_40_" fill="#EFF4EE" d="M4.5,2.9 L2.8,2.6 C2.6,2.6 2.4,2.3 2.4,2.1 L2.5,1.7 C2.5,1.5 2.8,1.3 3,1.3 L4.7,1.6"/><path id="Shape_39_" fill="#0E2947" d="M4.8,1.6 C4.8,1.7 4.7,1.8 4.6,1.7 L2.9,1.4 C2.8,1.4 2.6,1.5 2.6,1.6 L2.5,2 C2.5,2.1 2.6,2.3 2.7,2.3 L4.4,2.6 C4.5,2.6 4.6,2.7 4.5,2.8 C4.5,2.9 4.4,3 4.3,2.9 L2.6,2.6 C2.3,2.5 2,2.2 2.1,1.9 L2.2,1.5 C2.3,1.2 2.6,0.9 2.9,1 L4.6,1.3 C4.8,1.5 4.8,1.6 4.8,1.6"/><path id="Shape_27_" fill="#25E899" d="M4.6,1.6 C4.3,1.5 3.9,1.8 3.9,2.1 C3.8,2.4 4.1,2.8 4.4,2.8 C4.7,2.9 5.1,2.6 5.1,2.3 C5.2,2 5,1.7 4.6,1.6"/><path id="Shape_17_" fill="#0E2947" d="M5.3,2.4 C5.2,2.8 4.8,3.1 4.4,3.1 C4,3 3.7,2.6 3.7,2.2 C3.8,1.8 4.2,1.5 4.6,1.5 C5.1,1.5 5.4,1.9 5.3,2.4 M4.1,2.2 C4.1,2.4 4.2,2.7 4.5,2.7 C4.7,2.7 5,2.6 5,2.3 C5,2.1 4.9,1.8 4.6,1.8 C4.4,1.8 4.1,1.9 4.1,2.2"/></g><path id="Path" fill="#D6D6EA" stroke="#0E2947" stroke-width=".25" d="M2.5,4 L4.5,1.8 C4.7,1.6 4.6,1.2 4.3,1.1 L2.6,0.5 C2.2,0.4 1.7,0.5 1.4,0.8 L1.1,1.2 C0.8,1.5 0.7,2.1 0.9,2.5 L1.7,4 C1.9,4.2 2.3,4.2 2.5,4 Z"/><polygon id="Path" fill="#BDBDE5" points="4.1 1.4 2.2 .7 1.7 1.1 3.3 2.3"/></g><path id="Path" stroke="#0E2947" stroke-linecap="round" stroke-linejoin="round" stroke-width=".25" d="M6.7,7.8 L8.6,5.7"/><path id="Path" fill="#C5C5EA" fill-rule="nonzero" d="M12,12.9 L11.1,11.3 C11.1,11.3 11,11.2 11,11.1 C11,11 11.1,11 11.1,11 C11.1,11 12.3,12.9 12.3,13 C12.2,13 12,13 12,12.9 Z"/></g><g transform="translate(16.000000, 0.000000)"><path id="Path" fill="#D6D6EA" fill-rule="nonzero" d="M18.8,9.6 C19,10.3 19,11 18.9,11.7 C18.8,12.4 18.7,13.1 18.2,13.5 C17.7,13.9 16.8,14 16.5,13.4 C16.7,13.8 16.4,14.4 16,14.6 C15.6,14.8 15,14.8 14.5,14.8 C13.1,14.8 11.6,14.7 10.2,14.7 C8,14.7 5.9,14.6 3.7,14.6 C3.4,14.6 3.1,14.6 2.9,14.3 C2.8,14.1 2.8,13.9 2.7,13.8 C2.5,13.5 2.1,13.5 1.7,13.3 C1.2,13.1 0.8,12.6 0.6,12 C0.4,11.4 0.4,10.8 0.4,10.3 C0.4,9.6 0.5,8.9 1,8.5 C1.3,8.3 1.6,8.2 1.9,8.1 C2.5,7.8 2.7,7.1 3,6.5 C3.5,5.5 4.4,4.7 5.3,4.1 C7.3,2.8 10,2.5 12.2,3.4 C13.7,3.9 15,5 15.9,6.3 C16.3,6.8 16.5,8 17,8.4 C17.2,8.6 17.7,8.5 17.9,8.7 C18.4,8.8 18.7,9.2 18.8,9.6 Z"/><polygon id="Shape_2_" fill="#25E899" fill-rule="nonzero" points="3.3 14.8 15.2 14.8 16.2 15.2 15.5 17.9 4.1 17.9"/><path id="Shape_3_" fill="#D6D6EA" fill-rule="nonzero" d="M13.8,21.2 L5.6,21.2 C4.7,21.2 4,20.5 4,19.6 L4,17.9 L15.4,17.9 L15.4,19.6 C15.5,20.5 14.7,21.2 13.8,21.2"/><path id="Shape_4_" fill="#0E2947" fill-rule="nonzero" d="M13.8,21.6 L5.6,21.6 C4.5,21.6 3.6,20.7 3.6,19.6 L3.6,17.5 L15.7,17.5 L15.7,19.6 C15.8,20.7 14.9,21.6 13.8,21.6 Z M4.5,18.3 L4.5,19.7 C4.5,20.4 5.1,20.9 5.7,20.9 L13.9,20.9 C14.6,20.9 15.1,20.3 15.1,19.7 L15.1,18.3 L4.5,18.3 Z"/><path id="Shape_8_" fill="#0E2947" fill-rule="nonzero" d="M15.7,18.3 L3.8,18.3 L1.9,10.7 L1.9,10.7 C1.9,6.3 5.4,2.8 9.8,2.8 C14.2,2.8 17.7,6.3 17.7,10.7 L17.7,10.7 L17.7,10.7 L15.7,18.3 Z M4.4,17.5 L15.2,17.5 L17,10.5 C17,6.6 13.8,3.4 9.8,3.4 C5.8,3.4 2.7,6.6 2.6,10.5 L4.4,17.5 Z"/><path id="Shape_9_" fill="#0E2947" fill-rule="nonzero" d="M2.2,10.8 C2,10.8 1.8,10.6 1.8,10.4 L1.8,3.2 C1.8,3 2,2.8 2.2,2.8 C2.4,2.8 2.6,3 2.6,3.2 L2.6,10.4 C2.6,10.7 2.4,10.8 2.2,10.8"/><path id="Shape_10_" fill="#0E2947" fill-rule="nonzero" d="M17.3,10.8 C17.1,10.8 16.9,10.6 16.9,10.4 L16.9,1.2 C16.9,1 17.1,0.8 17.3,0.8 C17.5,0.8 17.7,1 17.7,1.2 L17.7,10.4 C17.7,10.7 17.5,10.8 17.3,10.8"/><path id="Shape_11_" fill="#0E2947" fill-rule="nonzero" d="M2.8,14.1 L2,14.1 C1.2,14.1 0.5,13.4 0.5,12.6 L0.5,9.7 C0.5,8.9 1.2,8.2 2,8.2 L2.3,8.2 C2.5,8.2 2.7,8.4 2.7,8.6 C2.7,8.8 2.5,9 2.3,9 L2,9 C1.6,9 1.2,9.3 1.2,9.8 L1.2,12.7 C1.2,13.1 1.5,13.5 2,13.5 L2.8,13.5 C3,13.5 3.2,13.7 3.2,13.9 C3.2,13.9 3,14.1 2.8,14.1"/><path id="Shape_12_" fill="#0E2947" fill-rule="nonzero" d="M17.5,14.1 L16.7,14.1 C16.5,14.1 16.3,13.9 16.3,13.7 C16.3,13.5 16.5,13.3 16.7,13.3 L17.5,13.3 C17.9,13.3 18.3,13 18.3,12.5 L18.3,9.6 C18.3,9.2 18,8.8 17.5,8.8 L17.2,8.8 C17,8.8 16.8,8.6 16.8,8.4 C16.8,8.2 17,8 17.2,8 L17.5,8 C18.3,8 19,8.7 19,9.5 L19,12.4 C19,13.4 18.4,14.1 17.5,14.1"/><g fill-rule="nonzero" transform="translate(4.000000, 6.000000)"><path id="Shape_5_" fill="#0FCE7C" d="M3.7,8.8 C1.9,8 0.7,6.2 0.7,4.2 C0.7,3 1.1,1.9 1.9,1 C2.8,-0.1 8.7,-0.2 9.6,0.9 C10.4,1.8 10.9,3 10.9,4.3 C10.9,6.4 9.7,8.2 7.9,8.9"/><path id="Shape_6_" fill="#0E2947" d="M3.4,9.2 C3.3,9.2 3.3,9.2 3.2,9.2 C1.2,8.2 -7.10542736e-15,6.3 -7.10542736e-15,4.1 C-7.10542736e-15,3 0.3,2 0.9,1 C1,0.8 1.2,0.8 1.4,0.9 C1.6,1 1.6,1.2 1.5,1.4 C1,2.2 0.7,3.1 0.7,4.1 C0.7,6 1.8,7.7 3.5,8.5 C3.7,8.6 3.8,8.8 3.7,9 C3.6,9.1 3.5,9.2 3.4,9.2"/><path id="Shape_7_" fill="#0E2947" d="M8.1,9.1 C8,9.1 7.8,9 7.8,8.9 C7.7,8.7 7.8,8.5 8,8.4 C9.7,7.6 10.7,5.9 10.7,4 C10.7,2.9 10.4,1.9 9.7,1.1 C9.6,0.9 9.6,0.7 9.8,0.6 C10,0.5 10.2,0.5 10.3,0.7 C11,1.7 11.4,2.8 11.4,4 C11.4,6.2 10.2,8.1 8.3,9.1 C8.2,9.1 8.1,9.1 8.1,9.1"/><path id="Shape_15_" fill="#FFF" d="M7.9,4.2 C7.9,4.9 7.3,5.5 6.6,5.5 C5.9,5.5 5.3,4.9 5.3,4.2 C5.3,3.5 5.9,2.9 6.6,2.9 C7.3,2.9 7.9,3.5 7.9,4.2"/><path id="Shape_16_" fill="#FFF" d="M8.8,6.2 C8.8,6.5 8.6,6.7 8.3,6.7 C8,6.7 7.8,6.5 7.8,6.2 C7.8,5.9 8,5.7 8.3,5.7 C8.6,5.7 8.8,5.9 8.8,6.2"/></g><path id="Shape_14_" fill="#0E2947" fill-rule="nonzero" d="M16.2,15.2 L3.7,15.2 C3.5,15.2 3.3,15 3.3,14.8 C3.3,14.6 3.5,14.4 3.7,14.4 L16.2,14.4 C16.4,14.4 16.6,14.6 16.6,14.8 C16.6,15 16.4,15.2 16.2,15.2"/><path id="Shape_13_" fill="#0E2947" fill-rule="nonzero" d="M2.3,9.7 C2.2,9.7 2.1,9.7 2,9.6 C1.9,9.5 1.9,9.2 2,9.1 C4.1,7 6.9,5.8 9.8,5.8 C12.6,5.8 15.3,6.9 17.3,8.8 C17.4,8.9 17.5,9.2 17.3,9.3 C17.2,9.4 16.9,9.5 16.8,9.3 C14.9,7.5 12.4,6.5 9.8,6.5 C7,6.5 4.4,7.6 2.5,9.6 C2.5,9.6 2.4,9.7 2.3,9.7"/><path id="Shape_28_" fill="#25E899" fill-rule="nonzero" d="M14.6,23 L5.2,23 C5,23 4.8,22.8 4.8,22.6 C4.8,22.4 5,22.2 5.2,22.2 L14.6,22.2 C14.8,22.2 15,22.4 15,22.6 C14.9,22.8 14.8,23 14.6,23"/><path id="Path" stroke="#0E2947" stroke-linecap="round" stroke-linejoin="round" stroke-width=".25" d="M11.7,15.5 C11.7,16.4 10.9,17.1 9.9,17.1 C8.9,17.1 8,16.4 8,15.5"/></g></g><g id="Group" fill="#9393B5" fill-rule="nonzero" opacity=".24" transform="translate(20.000000, 19.000000)"><path id="Shape" d="M1.1,1.5 C1.1,1.9 1,2.1 0.7,2.1 C0.5,2.1 0.3,1.9 0.3,1.5 C0.3,1.1 0.5,0.9 0.7,0.9 C1,1 1.1,1.2 1.1,1.5 Z M0.5,1.6 C0.5,1.9 0.6,2.1 0.7,2.1 C0.9,2.1 0.9,1.9 0.9,1.6 C0.9,1.3 0.8,1.1 0.7,1.1 C0.6,1.1 0.5,1.3 0.5,1.6 Z"/><polygon id="Path" points="1.6 1.1 1.6 1.1 1.4 1.2 1.4 1.1 1.6 1 1.7 1 1.7 2.1 1.6 2.1"/><polygon id="Path" points="2.4 1.1 2.4 1.1 2.2 1.2 2.2 1.1 2.4 1 2.5 1 2.5 2.1 2.4 2.1"/><polygon id="Path" points="3.3 1.1 3.3 1.1 3.1 1.2 3.1 1.1 3.3 1 3.4 1 3.4 2.1 3.3 2.1"/><path id="Shape" d="M4.6,1.5 C4.6,1.9 4.5,2.1 4.2,2.1 C4,2.1 3.8,1.9 3.8,1.5 C3.8,1.1 4,0.9 4.2,0.9 C4.5,1 4.6,1.2 4.6,1.5 Z M4,1.6 C4,1.9 4.1,2.1 4.2,2.1 C4.4,2.1 4.4,1.9 4.4,1.6 C4.4,1.3 4.3,1.1 4.2,1.1 C4.1,1.1 4,1.3 4,1.6 Z"/><polygon id="Path" points="5.1 1.1 5.1 1.1 4.9 1.2 4.9 1.1 5.1 1 5.2 1 5.2 2.1 5.1 2.1"/><path id="Shape" d="M1.1,3.6 C1.1,4 1,4.2 0.7,4.2 C0.5,4.2 0.3,4 0.3,3.6 C0.3,3.2 0.5,3 0.7,3 C1,3.1 1.1,3.3 1.1,3.6 Z M0.5,3.6 C0.5,3.9 0.6,4.1 0.7,4.1 C0.9,4.1 0.9,3.9 0.9,3.6 C0.9,3.3 0.8,3.1 0.7,3.1 C0.6,3.2 0.5,3.3 0.5,3.6 Z"/><polygon id="Path" points="1.6 3.2 1.6 3.2 1.4 3.3 1.4 3.2 1.6 3.1 1.7 3.1 1.7 4.2 1.6 4.2"/><path id="Shape" d="M2.9,3.6 C2.9,4 2.8,4.2 2.5,4.2 C2.3,4.2 2.1,4 2.1,3.6 C2.1,3.2 2.3,3 2.5,3 C2.7,3.1 2.9,3.3 2.9,3.6 Z M2.2,3.6 C2.2,3.9 2.3,4.1 2.4,4.1 C2.6,4.1 2.6,3.9 2.6,3.6 C2.6,3.3 2.5,3.1 2.4,3.1 C2.3,3.2 2.2,3.3 2.2,3.6 Z"/><polygon id="Path" points="3.3 3.2 3.3 3.2 3.1 3.3 3.1 3.2 3.3 3.1 3.4 3.1 3.4 4.2 3.3 4.2"/><path id="Shape" d="M4.6,3.6 C4.6,4 4.5,4.2 4.2,4.2 C4,4.2 3.8,4 3.8,3.6 C3.8,3.2 4,3 4.2,3 C4.5,3.1 4.6,3.3 4.6,3.6 Z M4,3.6 C4,3.9 4.1,4.1 4.2,4.1 C4.4,4.1 4.4,3.9 4.4,3.6 C4.4,3.3 4.3,3.1 4.2,3.1 C4.1,3.2 4,3.3 4,3.6 Z"/><path id="Shape" d="M5.5,3.6 C5.5,4 5.4,4.2 5.1,4.2 C4.9,4.2 4.7,4 4.7,3.6 C4.7,3.2 4.9,3 5.1,3 C5.4,3.1 5.5,3.3 5.5,3.6 Z M4.9,3.6 C4.9,3.9 5,4.1 5.1,4.1 C5.3,4.1 5.3,3.9 5.3,3.6 C5.3,3.3 5.2,3.1 5.1,3.1 C5,3.2 4.9,3.3 4.9,3.6 Z"/></g><g id="Group" fill="#9393B5" fill-rule="nonzero" opacity=".24" transform="translate(20.000000, 23.000000)"><path id="Shape" d="M1.2,1.2 C1.2,1.6 1.1,1.8 0.8,1.8 C0.6,1.8 0.4,1.6 0.4,1.2 C0.4,0.8 0.6,0.6 0.8,0.6 C1,0.6 1.2,0.8 1.2,1.2 Z M0.6,1.2 C0.6,1.5 0.7,1.7 0.8,1.7 C1,1.7 1,1.5 1,1.2 C1,0.9 0.9,0.7 0.8,0.7 C0.7,0.7 0.6,0.9 0.6,1.2 Z"/><polygon id="Path" points="1.6 .8 1.6 .8 1.4 .9 1.4 .8 1.6 .7 1.7 .7 1.7 1.8 1.6 1.8"/><polygon id="Path" points="2.5 .8 2.5 .8 2.3 .9 2.3 .8 2.5 .7 2.6 .7 2.6 1.8 2.5 1.8"/><polygon id="Path" points="3.4 .8 3.4 .8 3.2 .9 3.2 .8 3.4 .7 3.5 .7 3.5 1.8 3.4 1.8"/><path id="Shape" d="M4.7,1.2 C4.7,1.6 4.6,1.8 4.3,1.8 C4.1,1.8 3.9,1.6 3.9,1.2 C3.9,0.8 4.1,0.6 4.3,0.6 C4.6,0.6 4.7,0.8 4.7,1.2 Z M4.1,1.2 C4.1,1.5 4.2,1.7 4.3,1.7 C4.5,1.7 4.5,1.5 4.5,1.2 C4.5,0.9 4.4,0.7 4.3,0.7 C4.2,0.7 4.1,0.9 4.1,1.2 Z"/><polygon id="Path" points="5.2 .8 5.2 .8 5 .9 5 .8 5.2 .7 5.3 .7 5.3 1.8 5.2 1.8"/><path id="Shape" d="M1.2,3.2 C1.2,3.6 1.1,3.8 0.8,3.8 C0.6,3.8 0.4,3.6 0.4,3.2 C0.4,2.8 0.6,2.6 0.8,2.6 C1,2.7 1.2,2.9 1.2,3.2 Z M0.6,3.3 C0.6,3.6 0.7,3.8 0.8,3.8 C1,3.8 1,3.6 1,3.3 C1,3 0.9,2.8 0.8,2.8 C0.7,2.8 0.6,3 0.6,3.3 Z"/><polygon id="Path" points="1.6 2.8 1.6 2.8 1.4 2.9 1.4 2.8 1.6 2.7 1.7 2.7 1.7 3.8 1.6 3.8"/><path id="Shape" d="M2.9,3.2 C2.9,3.6 2.8,3.8 2.5,3.8 C2.3,3.8 2.1,3.6 2.1,3.2 C2.1,2.8 2.3,2.6 2.5,2.6 C2.8,2.7 2.9,2.9 2.9,3.2 Z M2.3,3.3 C2.3,3.6 2.4,3.8 2.5,3.8 C2.7,3.8 2.7,3.6 2.7,3.3 C2.7,3 2.6,2.8 2.5,2.8 C2.4,2.8 2.3,3 2.3,3.3 Z"/><polygon id="Path" points="3.4 2.8 3.4 2.8 3.2 2.9 3.2 2.8 3.4 2.7 3.5 2.7 3.5 3.8 3.4 3.8"/><path id="Shape" d="M4.7,3.2 C4.7,3.6 4.6,3.8 4.3,3.8 C4.1,3.8 3.9,3.6 3.9,3.2 C3.9,2.8 4.1,2.6 4.3,2.6 C4.6,2.7 4.7,2.9 4.7,3.2 Z M4.1,3.3 C4.1,3.6 4.2,3.8 4.3,3.8 C4.5,3.8 4.5,3.6 4.5,3.3 C4.5,3 4.4,2.8 4.3,2.8 C4.2,2.8 4.1,3 4.1,3.3 Z"/><path id="Shape" d="M5.6,3.2 C5.6,3.6 5.5,3.8 5.2,3.8 C5,3.8 4.8,3.6 4.8,3.2 C4.8,2.8 5,2.6 5.2,2.6 C5.5,2.7 5.6,2.9 5.6,3.2 Z M5,3.3 C5,3.6 5.1,3.8 5.2,3.8 C5.4,3.8 5.4,3.6 5.4,3.3 C5.4,3 5.3,2.8 5.2,2.8 C5.1,2.8 5,3 5,3.3 Z"/></g></g></g></svg>