<svg xmlns="http://www.w3.org/2000/svg" xmlns:xlink="http://www.w3.org/1999/xlink" id="Layer_1" data-name="Layer 1" viewBox="0 0 3000 1112"><defs><linearGradient id="linear-gradient" x1="-4259.564" x2="-4975.884" y1="620.346" y2="642.795" gradientTransform="translate(-4305.6 740.79) rotate(180)" gradientUnits="userSpaceOnUse"><stop offset="0" stop-color="#25e899"/><stop offset="1" stop-color="#fccf0e"/></linearGradient><linearGradient id="linear-gradient-2" x1="0" x2="600.5" y1="257.983" y2="257.983" gradientTransform="matrix(1, 0, 0, 1, 0, 0)" xlink:href="#linear-gradient"/><linearGradient id="linear-gradient-3" x1="0" x2="600.5" y1="244.929" y2="244.929" gradientTransform="matrix(1, 0, 0, 1, 0, 0)" xlink:href="#linear-gradient"/><linearGradient id="linear-gradient-4" x1="0" x2="600.5" y1="231.876" y2="231.876" gradientTransform="matrix(1, 0, 0, 1, 0, 0)" xlink:href="#linear-gradient"/><linearGradient id="linear-gradient-5" x1="0" x2="600.5" y1="218.822" y2="218.822" gradientTransform="matrix(1, 0, 0, 1, 0, 0)" xlink:href="#linear-gradient"/><linearGradient id="linear-gradient-6" x1="0" x2="600.5" y1="205.768" y2="205.768" gradientTransform="matrix(1, 0, 0, 1, 0, 0)" xlink:href="#linear-gradient"/><linearGradient id="linear-gradient-7" x1="0" x2="600.5" y1="192.715" y2="192.715" gradientTransform="matrix(1, 0, 0, 1, 0, 0)" xlink:href="#linear-gradient"/><linearGradient id="linear-gradient-8" x1="0" x2="600.5" y1="179.661" y2="179.661" gradientTransform="matrix(1, 0, 0, 1, 0, 0)" xlink:href="#linear-gradient"/><linearGradient id="linear-gradient-9" x1="0" x2="600.5" y1="166.607" y2="166.607" gradientTransform="matrix(1, 0, 0, 1, 0, 0)" xlink:href="#linear-gradient"/><linearGradient id="linear-gradient-10" x1="0" x2="600.5" y1="153.554" y2="153.554" gradientTransform="matrix(1, 0, 0, 1, 0, 0)" xlink:href="#linear-gradient"/><linearGradient id="linear-gradient-11" x1="0" x2="600.5" y1="140.5" y2="140.5" gradientTransform="matrix(1, 0, 0, 1, 0, 0)" xlink:href="#linear-gradient"/><linearGradient id="linear-gradient-12" x1="0" x2="600.5" y1="127.446" y2="127.446" gradientTransform="matrix(1, 0, 0, 1, 0, 0)" xlink:href="#linear-gradient"/><linearGradient id="linear-gradient-13" x1="0" x2="600.5" y1="114.393" y2="114.393" gradientTransform="matrix(1, 0, 0, 1, 0, 0)" xlink:href="#linear-gradient"/><linearGradient id="linear-gradient-14" x1="-4859.564" x2="-5575.884" y1="619.156" y2="641.605" gradientTransform="translate(-4305.6 740.79) rotate(180)" gradientUnits="userSpaceOnUse"><stop offset="0" stop-color="#ffcd2d"/><stop offset="1" stop-color="#25e899"/></linearGradient><linearGradient id="linear-gradient-15" x1="600" x2="1200.5" y1="259.173" y2="259.173" gradientTransform="matrix(1, 0, 0, 1, 0, 0)" xlink:href="#linear-gradient-14"/><linearGradient id="linear-gradient-16" x1="600" x2="1200.5" y1="246.12" y2="246.12" gradientTransform="matrix(1, 0, 0, 1, 0, 0)" xlink:href="#linear-gradient-14"/><linearGradient id="linear-gradient-17" x1="600" x2="1200.5" y1="233.066" y2="233.066" gradientTransform="matrix(1, 0, 0, 1, 0, 0)" xlink:href="#linear-gradient-14"/><linearGradient id="linear-gradient-18" x1="600" x2="1200.5" y1="220.012" y2="220.012" gradientTransform="matrix(1, 0, 0, 1, 0, 0)" xlink:href="#linear-gradient-14"/><linearGradient id="linear-gradient-19" x1="600" x2="1200.5" y1="206.959" y2="206.959" gradientTransform="matrix(1, 0, 0, 1, 0, 0)" xlink:href="#linear-gradient-14"/><linearGradient id="linear-gradient-20" x1="600" x2="1200.5" y1="193.905" y2="193.905" gradientTransform="matrix(1, 0, 0, 1, 0, 0)" xlink:href="#linear-gradient-14"/><linearGradient id="linear-gradient-21" x1="600" x2="1200.5" y1="180.851" y2="180.851" gradientTransform="matrix(1, 0, 0, 1, 0, 0)" xlink:href="#linear-gradient-14"/><linearGradient id="linear-gradient-22" x1="600" x2="1200.5" y1="167.798" y2="167.798" gradientTransform="matrix(1, 0, 0, 1, 0, 0)" xlink:href="#linear-gradient-14"/><linearGradient id="linear-gradient-23" x1="600" x2="1200.5" y1="154.744" y2="154.744" gradientTransform="matrix(1, 0, 0, 1, 0, 0)" xlink:href="#linear-gradient-14"/><linearGradient id="linear-gradient-24" x1="600" x2="1200.5" y1="141.69" y2="141.69" gradientTransform="matrix(1, 0, 0, 1, 0, 0)" xlink:href="#linear-gradient-14"/><linearGradient id="linear-gradient-25" x1="600" x2="1200.5" y1="128.637" y2="128.637" gradientTransform="matrix(1, 0, 0, 1, 0, 0)" xlink:href="#linear-gradient-14"/><linearGradient id="linear-gradient-26" x1="600" x2="1200.5" y1="115.583" y2="115.583" gradientTransform="matrix(1, 0, 0, 1, 0, 0)" xlink:href="#linear-gradient-14"/><linearGradient id="linear-gradient-27" x1="-5459.564" x2="-6175.884" y1="619.156" y2="641.605" xlink:href="#linear-gradient"/><linearGradient id="linear-gradient-28" x1="1200" x2="1800.5" y1="259.173" y2="259.173" gradientTransform="matrix(1, 0, 0, 1, 0, 0)" xlink:href="#linear-gradient"/><linearGradient id="linear-gradient-29" x1="1200" x2="1800.5" y1="246.12" y2="246.12" gradientTransform="matrix(1, 0, 0, 1, 0, 0)" xlink:href="#linear-gradient"/><linearGradient id="linear-gradient-30" x1="1200" x2="1800.5" y1="233.066" y2="233.066" gradientTransform="matrix(1, 0, 0, 1, 0, 0)" xlink:href="#linear-gradient"/><linearGradient id="linear-gradient-31" x1="1200" x2="1800.5" y1="220.012" y2="220.012" gradientTransform="matrix(1, 0, 0, 1, 0, 0)" xlink:href="#linear-gradient"/><linearGradient id="linear-gradient-32" x1="1200" x2="1800.5" y1="206.959" y2="206.959" gradientTransform="matrix(1, 0, 0, 1, 0, 0)" xlink:href="#linear-gradient"/><linearGradient id="linear-gradient-33" x1="1200" x2="1800.5" y1="193.905" y2="193.905" gradientTransform="matrix(1, 0, 0, 1, 0, 0)" xlink:href="#linear-gradient"/><linearGradient id="linear-gradient-34" x1="1200" x2="1800.5" y1="180.851" y2="180.851" gradientTransform="matrix(1, 0, 0, 1, 0, 0)" xlink:href="#linear-gradient"/><linearGradient id="linear-gradient-35" x1="1200" x2="1800.5" y1="167.798" y2="167.798" gradientTransform="matrix(1, 0, 0, 1, 0, 0)" xlink:href="#linear-gradient"/><linearGradient id="linear-gradient-36" x1="1200" x2="1800.5" y1="154.744" y2="154.744" gradientTransform="matrix(1, 0, 0, 1, 0, 0)" xlink:href="#linear-gradient"/><linearGradient id="linear-gradient-37" x1="1200" x2="1800.5" y1="141.69" y2="141.69" gradientTransform="matrix(1, 0, 0, 1, 0, 0)" xlink:href="#linear-gradient"/><linearGradient id="linear-gradient-38" x1="1200" x2="1800.5" y1="128.637" y2="128.637" gradientTransform="matrix(1, 0, 0, 1, 0, 0)" xlink:href="#linear-gradient"/><linearGradient id="linear-gradient-39" x1="1200" x2="1800.5" y1="115.583" y2="115.583" gradientTransform="matrix(1, 0, 0, 1, 0, 0)" xlink:href="#linear-gradient"/><linearGradient id="linear-gradient-40" x1="-6059.616" x2="-6775.936" y1="620.346" y2="642.795" xlink:href="#linear-gradient-14"/><linearGradient id="linear-gradient-41" x1="1800.052" x2="2400.552" y1="257.983" y2="257.983" gradientTransform="matrix(1, 0, 0, 1, 0, 0)" xlink:href="#linear-gradient-14"/><linearGradient id="linear-gradient-42" x1="1800.052" x2="2400.552" y1="244.929" y2="244.929" gradientTransform="matrix(1, 0, 0, 1, 0, 0)" xlink:href="#linear-gradient-14"/><linearGradient id="linear-gradient-43" x1="1800.052" x2="2400.552" y1="231.876" y2="231.876" gradientTransform="matrix(1, 0, 0, 1, 0, 0)" xlink:href="#linear-gradient-14"/><linearGradient id="linear-gradient-44" x1="1800.052" x2="2400.552" y1="218.822" y2="218.822" gradientTransform="matrix(1, 0, 0, 1, 0, 0)" xlink:href="#linear-gradient-14"/><linearGradient id="linear-gradient-45" x1="1800.052" x2="2400.552" y1="205.768" y2="205.768" gradientTransform="matrix(1, 0, 0, 1, 0, 0)" xlink:href="#linear-gradient-14"/><linearGradient id="linear-gradient-46" x1="1800.052" x2="2400.552" y1="192.715" y2="192.715" gradientTransform="matrix(1, 0, 0, 1, 0, 0)" xlink:href="#linear-gradient-14"/><linearGradient id="linear-gradient-47" x1="1800.052" x2="2400.552" y1="179.661" y2="179.661" gradientTransform="matrix(1, 0, 0, 1, 0, 0)" xlink:href="#linear-gradient-14"/><linearGradient id="linear-gradient-48" x1="1800.052" x2="2400.552" y1="166.607" y2="166.607" gradientTransform="matrix(1, 0, 0, 1, 0, 0)" xlink:href="#linear-gradient-14"/><linearGradient id="linear-gradient-49" x1="1800.052" x2="2400.552" y1="153.554" y2="153.554" gradientTransform="matrix(1, 0, 0, 1, 0, 0)" xlink:href="#linear-gradient-14"/><linearGradient id="linear-gradient-50" x1="1800.052" x2="2400.552" y1="140.5" y2="140.5" gradientTransform="matrix(1, 0, 0, 1, 0, 0)" xlink:href="#linear-gradient-14"/><linearGradient id="linear-gradient-51" x1="1800.052" x2="2400.552" y1="127.446" y2="127.446" gradientTransform="matrix(1, 0, 0, 1, 0, 0)" xlink:href="#linear-gradient-14"/><linearGradient id="linear-gradient-52" x1="1800.052" x2="2400.552" y1="114.393" y2="114.393" gradientTransform="matrix(1, 0, 0, 1, 0, 0)" xlink:href="#linear-gradient-14"/><linearGradient id="linear-gradient-53" x1="-6659.564" x2="-7375.884" y1="620.346" y2="642.795" xlink:href="#linear-gradient"/><linearGradient id="linear-gradient-54" x1="2400" x2="3000.5" y1="257.983" y2="257.983" gradientTransform="matrix(1, 0, 0, 1, 0, 0)" xlink:href="#linear-gradient"/><linearGradient id="linear-gradient-55" x1="2400" x2="3000.5" y1="244.929" y2="244.929" gradientTransform="matrix(1, 0, 0, 1, 0, 0)" xlink:href="#linear-gradient"/><linearGradient id="linear-gradient-56" x1="2400" x2="3000.5" y1="231.876" y2="231.876" gradientTransform="matrix(1, 0, 0, 1, 0, 0)" xlink:href="#linear-gradient"/><linearGradient id="linear-gradient-57" x1="2400" x2="3000.5" y1="218.822" y2="218.822" gradientTransform="matrix(1, 0, 0, 1, 0, 0)" xlink:href="#linear-gradient"/><linearGradient id="linear-gradient-58" x1="2400" x2="3000.5" y1="205.768" y2="205.768" gradientTransform="matrix(1, 0, 0, 1, 0, 0)" xlink:href="#linear-gradient"/><linearGradient id="linear-gradient-59" x1="2400" x2="3000.5" y1="192.715" y2="192.715" gradientTransform="matrix(1, 0, 0, 1, 0, 0)" xlink:href="#linear-gradient"/><linearGradient id="linear-gradient-60" x1="2400" x2="3000.5" y1="179.661" y2="179.661" gradientTransform="matrix(1, 0, 0, 1, 0, 0)" xlink:href="#linear-gradient"/><linearGradient id="linear-gradient-61" x1="2400" x2="3000.5" y1="166.607" y2="166.607" gradientTransform="matrix(1, 0, 0, 1, 0, 0)" xlink:href="#linear-gradient"/><linearGradient id="linear-gradient-62" x1="2400" x2="3000.5" y1="153.554" y2="153.554" gradientTransform="matrix(1, 0, 0, 1, 0, 0)" xlink:href="#linear-gradient"/><linearGradient id="linear-gradient-63" x1="2400" x2="3000.5" y1="140.5" y2="140.5" gradientTransform="matrix(1, 0, 0, 1, 0, 0)" xlink:href="#linear-gradient"/><linearGradient id="linear-gradient-64" x1="2400" x2="3000.5" y1="127.446" y2="127.446" gradientTransform="matrix(1, 0, 0, 1, 0, 0)" xlink:href="#linear-gradient"/><linearGradient id="linear-gradient-65" x1="2400" x2="3000.5" y1="114.393" y2="114.393" gradientTransform="matrix(1, 0, 0, 1, 0, 0)" xlink:href="#linear-gradient"/><linearGradient id="linear-gradient-66" x1="-4259.564" x2="-4975.884" y1="-119.858" y2="-97.41" xlink:href="#linear-gradient"/><linearGradient id="linear-gradient-67" x1="0" x2="600.5" y1="998.188" y2="998.188" gradientTransform="matrix(1, 0, 0, 1, 0, 0)" xlink:href="#linear-gradient-14"/><linearGradient id="linear-gradient-68" x1="0" x2="600.5" y1="985.134" y2="985.134" gradientTransform="matrix(1, 0, 0, 1, 0, 0)" xlink:href="#linear-gradient-14"/><linearGradient id="linear-gradient-69" x1="0" x2="600.5" y1="972.08" y2="972.08" gradientTransform="matrix(1, 0, 0, 1, 0, 0)" xlink:href="#linear-gradient-14"/><linearGradient id="linear-gradient-70" x1="0" x2="600.5" y1="959.027" y2="959.027" gradientTransform="matrix(1, 0, 0, 1, 0, 0)" xlink:href="#linear-gradient-14"/><linearGradient id="linear-gradient-71" x1="0" x2="600.5" y1="945.973" y2="945.973" gradientTransform="matrix(1, 0, 0, 1, 0, 0)" xlink:href="#linear-gradient-14"/><linearGradient id="linear-gradient-72" x1="0" x2="600.5" y1="932.919" y2="932.919" gradientTransform="matrix(1, 0, 0, 1, 0, 0)" xlink:href="#linear-gradient-14"/><linearGradient id="linear-gradient-73" x1="0" x2="600.5" y1="919.865" y2="919.865" gradientTransform="matrix(1, 0, 0, 1, 0, 0)" xlink:href="#linear-gradient-14"/><linearGradient id="linear-gradient-74" x1="0" x2="600.5" y1="906.812" y2="906.812" gradientTransform="matrix(1, 0, 0, 1, 0, 0)" xlink:href="#linear-gradient-14"/><linearGradient id="linear-gradient-75" x1="0" x2="600.5" y1="893.758" y2="893.758" gradientTransform="matrix(1, 0, 0, 1, 0, 0)" xlink:href="#linear-gradient-14"/><linearGradient id="linear-gradient-76" x1="0" x2="600.5" y1="880.705" y2="880.705" gradientTransform="matrix(1, 0, 0, 1, 0, 0)" xlink:href="#linear-gradient-14"/><linearGradient id="linear-gradient-77" x1="0" x2="600.5" y1="867.651" y2="867.651" gradientTransform="matrix(1, 0, 0, 1, 0, 0)" xlink:href="#linear-gradient-14"/><linearGradient id="linear-gradient-78" x1="0" x2="600.5" y1="854.597" y2="854.597" gradientTransform="matrix(1, 0, 0, 1, 0, 0)" xlink:href="#linear-gradient-14"/><linearGradient id="linear-gradient-79" x1="-4859.616" x2="-5575.936" y1="-119.858" y2="-97.41" xlink:href="#linear-gradient-14"/><linearGradient id="linear-gradient-80" x1="600.052" x2="1200.552" y1="998.188" y2="998.188" gradientTransform="matrix(1, 0, 0, 1, 0, 0)" xlink:href="#linear-gradient-14"/><linearGradient id="linear-gradient-81" x1="600.052" x2="1200.552" y1="985.134" y2="985.134" gradientTransform="matrix(1, 0, 0, 1, 0, 0)" xlink:href="#linear-gradient-14"/><linearGradient id="linear-gradient-82" x1="600.052" x2="1200.552" y1="972.08" y2="972.08" gradientTransform="matrix(1, 0, 0, 1, 0, 0)" xlink:href="#linear-gradient-14"/><linearGradient id="linear-gradient-83" x1="600.052" x2="1200.552" y1="959.027" y2="959.027" gradientTransform="matrix(1, 0, 0, 1, 0, 0)" xlink:href="#linear-gradient-14"/><linearGradient id="linear-gradient-84" x1="600.052" x2="1200.552" y1="945.973" y2="945.973" gradientTransform="matrix(1, 0, 0, 1, 0, 0)" xlink:href="#linear-gradient-14"/><linearGradient id="linear-gradient-85" x1="600.052" x2="1200.552" y1="932.919" y2="932.919" gradientTransform="matrix(1, 0, 0, 1, 0, 0)" xlink:href="#linear-gradient-14"/><linearGradient id="linear-gradient-86" x1="600.052" x2="1200.552" y1="919.865" y2="919.865" gradientTransform="matrix(1, 0, 0, 1, 0, 0)" xlink:href="#linear-gradient-14"/><linearGradient id="linear-gradient-87" x1="600.052" x2="1200.552" y1="906.812" y2="906.812" gradientTransform="matrix(1, 0, 0, 1, 0, 0)" xlink:href="#linear-gradient-14"/><linearGradient id="linear-gradient-88" x1="600.052" x2="1200.552" y1="893.758" y2="893.758" gradientTransform="matrix(1, 0, 0, 1, 0, 0)" xlink:href="#linear-gradient-14"/><linearGradient id="linear-gradient-89" x1="600.052" x2="1200.552" y1="880.705" y2="880.705" gradientTransform="matrix(1, 0, 0, 1, 0, 0)" xlink:href="#linear-gradient-14"/><linearGradient id="linear-gradient-90" x1="600.052" x2="1200.552" y1="867.651" y2="867.651" gradientTransform="matrix(1, 0, 0, 1, 0, 0)" xlink:href="#linear-gradient-14"/><linearGradient id="linear-gradient-91" x1="600.052" x2="1200.552" y1="854.597" y2="854.597" gradientTransform="matrix(1, 0, 0, 1, 0, 0)" xlink:href="#linear-gradient-14"/><linearGradient id="linear-gradient-92" x1="-5459.616" x2="-6175.936" y1="-119.858" y2="-97.41" xlink:href="#linear-gradient"/><linearGradient id="linear-gradient-93" x1="1200.052" x2="1800.552" y1="998.188" y2="998.188" gradientTransform="matrix(1, 0, 0, 1, 0, 0)" xlink:href="#linear-gradient"/><linearGradient id="linear-gradient-94" x1="1200.052" x2="1800.552" y1="985.134" y2="985.134" gradientTransform="matrix(1, 0, 0, 1, 0, 0)" xlink:href="#linear-gradient"/><linearGradient id="linear-gradient-95" x1="1200.052" x2="1800.552" y1="972.08" y2="972.08" gradientTransform="matrix(1, 0, 0, 1, 0, 0)" xlink:href="#linear-gradient"/><linearGradient id="linear-gradient-96" x1="1200.052" x2="1800.552" y1="959.027" y2="959.027" gradientTransform="matrix(1, 0, 0, 1, 0, 0)" xlink:href="#linear-gradient"/><linearGradient id="linear-gradient-97" x1="1200.052" x2="1800.552" y1="945.973" y2="945.973" gradientTransform="matrix(1, 0, 0, 1, 0, 0)" xlink:href="#linear-gradient"/><linearGradient id="linear-gradient-98" x1="1200.052" x2="1800.552" y1="932.919" y2="932.919" gradientTransform="matrix(1, 0, 0, 1, 0, 0)" xlink:href="#linear-gradient"/><linearGradient id="linear-gradient-99" x1="1200.052" x2="1800.552" y1="919.865" y2="919.865" gradientTransform="matrix(1, 0, 0, 1, 0, 0)" xlink:href="#linear-gradient"/><linearGradient id="linear-gradient-100" x1="1200.052" x2="1800.552" y1="906.812" y2="906.812" gradientTransform="matrix(1, 0, 0, 1, 0, 0)" xlink:href="#linear-gradient"/><linearGradient id="linear-gradient-101" x1="1200.052" x2="1800.552" y1="893.758" y2="893.758" gradientTransform="matrix(1, 0, 0, 1, 0, 0)" xlink:href="#linear-gradient"/><linearGradient id="linear-gradient-102" x1="1200.052" x2="1800.552" y1="880.705" y2="880.705" gradientTransform="matrix(1, 0, 0, 1, 0, 0)" xlink:href="#linear-gradient"/><linearGradient id="linear-gradient-103" x1="1200.052" x2="1800.552" y1="867.651" y2="867.651" gradientTransform="matrix(1, 0, 0, 1, 0, 0)" xlink:href="#linear-gradient"/><linearGradient id="linear-gradient-104" x1="1200.052" x2="1800.552" y1="854.597" y2="854.597" gradientTransform="matrix(1, 0, 0, 1, 0, 0)" xlink:href="#linear-gradient"/><linearGradient id="linear-gradient-105" x1="-6059.564" x2="-6775.884" y1="-121.049" y2="-98.6" xlink:href="#linear-gradient-14"/><linearGradient id="linear-gradient-106" x1="1800" x2="2400.5" y1="999.378" y2="999.378" gradientTransform="matrix(1, 0, 0, 1, 0, 0)" xlink:href="#linear-gradient-14"/><linearGradient id="linear-gradient-107" x1="1800" x2="2400.5" y1="986.324" y2="986.324" gradientTransform="matrix(1, 0, 0, 1, 0, 0)" xlink:href="#linear-gradient-14"/><linearGradient id="linear-gradient-108" x1="1800" x2="2400.5" y1="973.27" y2="973.27" gradientTransform="matrix(1, 0, 0, 1, 0, 0)" xlink:href="#linear-gradient-14"/><linearGradient id="linear-gradient-109" x1="1800" x2="2400.5" y1="960.217" y2="960.217" gradientTransform="matrix(1, 0, 0, 1, 0, 0)" xlink:href="#linear-gradient-14"/><linearGradient id="linear-gradient-110" x1="1800" x2="2400.5" y1="947.163" y2="947.163" gradientTransform="matrix(1, 0, 0, 1, 0, 0)" xlink:href="#linear-gradient-14"/><linearGradient id="linear-gradient-111" x1="1800" x2="2400.5" y1="934.11" y2="934.11" gradientTransform="matrix(1, 0, 0, 1, 0, 0)" xlink:href="#linear-gradient-14"/><linearGradient id="linear-gradient-112" x1="1800" x2="2400.5" y1="921.056" y2="921.056" gradientTransform="matrix(1, 0, 0, 1, 0, 0)" xlink:href="#linear-gradient-14"/><linearGradient id="linear-gradient-113" x1="1800" x2="2400.5" y1="908.002" y2="908.002" gradientTransform="matrix(1, 0, 0, 1, 0, 0)" xlink:href="#linear-gradient-14"/><linearGradient id="linear-gradient-114" x1="1800" x2="2400.5" y1="894.948" y2="894.948" gradientTransform="matrix(1, 0, 0, 1, 0, 0)" xlink:href="#linear-gradient-14"/><linearGradient id="linear-gradient-115" x1="1800" x2="2400.5" y1="881.895" y2="881.895" gradientTransform="matrix(1, 0, 0, 1, 0, 0)" xlink:href="#linear-gradient-14"/><linearGradient id="linear-gradient-116" x1="1800" x2="2400.5" y1="868.841" y2="868.841" gradientTransform="matrix(1, 0, 0, 1, 0, 0)" xlink:href="#linear-gradient-14"/><linearGradient id="linear-gradient-117" x1="1800" x2="2400.5" y1="855.788" y2="855.788" gradientTransform="matrix(1, 0, 0, 1, 0, 0)" xlink:href="#linear-gradient-14"/><linearGradient id="linear-gradient-118" x1="-6659.616" x2="-7375.936" y1="-121.049" y2="-98.6" xlink:href="#linear-gradient"/><linearGradient id="linear-gradient-119" x1="2400.052" x2="3000.552" y1="999.378" y2="999.378" gradientTransform="matrix(1, 0, 0, 1, 0, 0)" xlink:href="#linear-gradient"/><linearGradient id="linear-gradient-120" x1="2400.052" x2="3000.552" y1="986.324" y2="986.324" gradientTransform="matrix(1, 0, 0, 1, 0, 0)" xlink:href="#linear-gradient"/><linearGradient id="linear-gradient-121" x1="2400.052" x2="3000.552" y1="973.27" y2="973.27" gradientTransform="matrix(1, 0, 0, 1, 0, 0)" xlink:href="#linear-gradient"/><linearGradient id="linear-gradient-122" x1="2400.052" x2="3000.552" y1="960.217" y2="960.217" gradientTransform="matrix(1, 0, 0, 1, 0, 0)" xlink:href="#linear-gradient"/><linearGradient id="linear-gradient-123" x1="2400.052" x2="3000.552" y1="947.163" y2="947.163" gradientTransform="matrix(1, 0, 0, 1, 0, 0)" xlink:href="#linear-gradient"/><linearGradient id="linear-gradient-124" x1="2400.052" x2="3000.552" y1="934.11" y2="934.11" gradientTransform="matrix(1, 0, 0, 1, 0, 0)" xlink:href="#linear-gradient"/><linearGradient id="linear-gradient-125" x1="2400.052" x2="3000.552" y1="921.056" y2="921.056" gradientTransform="matrix(1, 0, 0, 1, 0, 0)" xlink:href="#linear-gradient"/><linearGradient id="linear-gradient-126" x1="2400.052" x2="3000.552" y1="908.002" y2="908.002" gradientTransform="matrix(1, 0, 0, 1, 0, 0)" xlink:href="#linear-gradient"/><linearGradient id="linear-gradient-127" x1="2400.052" x2="3000.552" y1="894.948" y2="894.948" gradientTransform="matrix(1, 0, 0, 1, 0, 0)" xlink:href="#linear-gradient"/><linearGradient id="linear-gradient-128" x1="2400.052" x2="3000.552" y1="881.895" y2="881.895" gradientTransform="matrix(1, 0, 0, 1, 0, 0)" xlink:href="#linear-gradient"/><linearGradient id="linear-gradient-129" x1="2400.052" x2="3000.552" y1="868.841" y2="868.841" gradientTransform="matrix(1, 0, 0, 1, 0, 0)" xlink:href="#linear-gradient"/><linearGradient id="linear-gradient-130" x1="2400.052" x2="3000.552" y1="855.788" y2="855.788" gradientTransform="matrix(1, 0, 0, 1, 0, 0)" xlink:href="#linear-gradient"/><linearGradient id="linear-gradient-131" x1="-4259.616" x2="-4975.936" y1="250.931" y2="273.38" xlink:href="#linear-gradient-14"/><linearGradient id="linear-gradient-132" x1=".052" x2="600.552" y1="627.398" y2="627.398" gradientTransform="matrix(1, 0, 0, 1, 0, 0)" xlink:href="#linear-gradient-14"/><linearGradient id="linear-gradient-133" x1=".052" x2="600.552" y1="614.344" y2="614.344" gradientTransform="matrix(1, 0, 0, 1, 0, 0)" xlink:href="#linear-gradient-14"/><linearGradient id="linear-gradient-134" x1=".052" x2="600.552" y1="601.29" y2="601.29" gradientTransform="matrix(1, 0, 0, 1, 0, 0)" xlink:href="#linear-gradient-14"/><linearGradient id="linear-gradient-135" x1=".052" x2="600.552" y1="588.237" y2="588.237" gradientTransform="matrix(1, 0, 0, 1, 0, 0)" xlink:href="#linear-gradient-14"/><linearGradient id="linear-gradient-136" x1=".052" x2="600.552" y1="575.183" y2="575.183" gradientTransform="matrix(1, 0, 0, 1, 0, 0)" xlink:href="#linear-gradient-14"/><linearGradient id="linear-gradient-137" x1=".052" x2="600.552" y1="562.13" y2="562.13" gradientTransform="matrix(1, 0, 0, 1, 0, 0)" xlink:href="#linear-gradient-14"/><linearGradient id="linear-gradient-138" x1=".052" x2="600.552" y1="549.076" y2="549.076" gradientTransform="matrix(1, 0, 0, 1, 0, 0)" xlink:href="#linear-gradient-14"/><linearGradient id="linear-gradient-139" x1=".052" x2="600.552" y1="536.022" y2="536.022" gradientTransform="matrix(1, 0, 0, 1, 0, 0)" xlink:href="#linear-gradient-14"/><linearGradient id="linear-gradient-140" x1=".052" x2="600.552" y1="522.968" y2="522.968" gradientTransform="matrix(1, 0, 0, 1, 0, 0)" xlink:href="#linear-gradient-14"/><linearGradient id="linear-gradient-141" x1=".052" x2="600.552" y1="509.915" y2="509.915" gradientTransform="matrix(1, 0, 0, 1, 0, 0)" xlink:href="#linear-gradient-14"/><linearGradient id="linear-gradient-142" x1=".052" x2="600.552" y1="496.861" y2="496.861" gradientTransform="matrix(1, 0, 0, 1, 0, 0)" xlink:href="#linear-gradient-14"/><linearGradient id="linear-gradient-143" x1=".052" x2="600.552" y1="483.808" y2="483.808" gradientTransform="matrix(1, 0, 0, 1, 0, 0)" xlink:href="#linear-gradient-14"/><linearGradient id="linear-gradient-144" x1="-4859.616" x2="-5575.936" y1="250.931" y2="273.38" xlink:href="#linear-gradient"/><linearGradient id="linear-gradient-145" x1="600.052" x2="1200.552" y1="627.398" y2="627.398" gradientTransform="matrix(1, 0, 0, 1, 0, 0)" xlink:href="#linear-gradient"/><linearGradient id="linear-gradient-146" x1="600.052" x2="1200.552" y1="614.344" y2="614.344" gradientTransform="matrix(1, 0, 0, 1, 0, 0)" xlink:href="#linear-gradient"/><linearGradient id="linear-gradient-147" x1="600.052" x2="1200.552" y1="601.29" y2="601.29" gradientTransform="matrix(1, 0, 0, 1, 0, 0)" xlink:href="#linear-gradient"/><linearGradient id="linear-gradient-148" x1="600.052" x2="1200.552" y1="588.237" y2="588.237" gradientTransform="matrix(1, 0, 0, 1, 0, 0)" xlink:href="#linear-gradient"/><linearGradient id="linear-gradient-149" x1="600.052" x2="1200.552" y1="575.183" y2="575.183" gradientTransform="matrix(1, 0, 0, 1, 0, 0)" xlink:href="#linear-gradient"/><linearGradient id="linear-gradient-150" x1="600.052" x2="1200.552" y1="562.13" y2="562.13" gradientTransform="matrix(1, 0, 0, 1, 0, 0)" xlink:href="#linear-gradient"/><linearGradient id="linear-gradient-151" x1="600.052" x2="1200.552" y1="549.076" y2="549.076" gradientTransform="matrix(1, 0, 0, 1, 0, 0)" xlink:href="#linear-gradient"/><linearGradient id="linear-gradient-152" x1="600.052" x2="1200.552" y1="536.022" y2="536.022" gradientTransform="matrix(1, 0, 0, 1, 0, 0)" xlink:href="#linear-gradient"/><linearGradient id="linear-gradient-153" x1="600.052" x2="1200.552" y1="522.968" y2="522.968" gradientTransform="matrix(1, 0, 0, 1, 0, 0)" xlink:href="#linear-gradient"/><linearGradient id="linear-gradient-154" x1="600.052" x2="1200.552" y1="509.915" y2="509.915" gradientTransform="matrix(1, 0, 0, 1, 0, 0)" xlink:href="#linear-gradient"/><linearGradient id="linear-gradient-155" x1="600.052" x2="1200.552" y1="496.861" y2="496.861" gradientTransform="matrix(1, 0, 0, 1, 0, 0)" xlink:href="#linear-gradient"/><linearGradient id="linear-gradient-156" x1="600.052" x2="1200.552" y1="483.808" y2="483.808" gradientTransform="matrix(1, 0, 0, 1, 0, 0)" xlink:href="#linear-gradient"/><linearGradient id="linear-gradient-157" x1="-5459.616" x2="-6175.936" y1="249.741" y2="272.19" xlink:href="#linear-gradient-14"/><linearGradient id="linear-gradient-158" x1="1200.052" x2="1800.552" y1="628.588" y2="628.588" gradientTransform="matrix(1, 0, 0, 1, 0, 0)" xlink:href="#linear-gradient-14"/><linearGradient id="linear-gradient-159" x1="1200.052" x2="1800.552" y1="615.534" y2="615.534" gradientTransform="matrix(1, 0, 0, 1, 0, 0)" xlink:href="#linear-gradient-14"/><linearGradient id="linear-gradient-160" x1="1200.052" x2="1800.552" y1="602.481" y2="602.481" gradientTransform="matrix(1, 0, 0, 1, 0, 0)" xlink:href="#linear-gradient-14"/><linearGradient id="linear-gradient-161" x1="1200.052" x2="1800.552" y1="589.427" y2="589.427" gradientTransform="matrix(1, 0, 0, 1, 0, 0)" xlink:href="#linear-gradient-14"/><linearGradient id="linear-gradient-162" x1="1200.052" x2="1800.552" y1="576.374" y2="576.374" gradientTransform="matrix(1, 0, 0, 1, 0, 0)" xlink:href="#linear-gradient-14"/><linearGradient id="linear-gradient-163" x1="1200.052" x2="1800.552" y1="563.32" y2="563.32" gradientTransform="matrix(1, 0, 0, 1, 0, 0)" xlink:href="#linear-gradient-14"/><linearGradient id="linear-gradient-164" x1="1200.052" x2="1800.552" y1="550.266" y2="550.266" gradientTransform="matrix(1, 0, 0, 1, 0, 0)" xlink:href="#linear-gradient-14"/><linearGradient id="linear-gradient-165" x1="1200.052" x2="1800.552" y1="537.212" y2="537.212" gradientTransform="matrix(1, 0, 0, 1, 0, 0)" xlink:href="#linear-gradient-14"/><linearGradient id="linear-gradient-166" x1="1200.052" x2="1800.552" y1="524.159" y2="524.159" gradientTransform="matrix(1, 0, 0, 1, 0, 0)" xlink:href="#linear-gradient-14"/><linearGradient id="linear-gradient-167" x1="1200.052" x2="1800.552" y1="511.105" y2="511.105" gradientTransform="matrix(1, 0, 0, 1, 0, 0)" xlink:href="#linear-gradient-14"/><linearGradient id="linear-gradient-168" x1="1200.052" x2="1800.552" y1="498.051" y2="498.051" gradientTransform="matrix(1, 0, 0, 1, 0, 0)" xlink:href="#linear-gradient-14"/><linearGradient id="linear-gradient-169" x1="1200.052" x2="1800.552" y1="484.998" y2="484.998" gradientTransform="matrix(1, 0, 0, 1, 0, 0)" xlink:href="#linear-gradient-14"/><linearGradient id="linear-gradient-170" x1="-6059.616" x2="-6775.936" y1="248.551" y2="270.999" xlink:href="#linear-gradient"/><linearGradient id="linear-gradient-171" x1="1800.052" x2="2400.552" y1="629.779" y2="629.779" gradientTransform="matrix(1, 0, 0, 1, 0, 0)" xlink:href="#linear-gradient"/><linearGradient id="linear-gradient-172" x1="1800.052" x2="2400.552" y1="616.725" y2="616.725" gradientTransform="matrix(1, 0, 0, 1, 0, 0)" xlink:href="#linear-gradient"/><linearGradient id="linear-gradient-173" x1="1800.052" x2="2400.552" y1="603.671" y2="603.671" gradientTransform="matrix(1, 0, 0, 1, 0, 0)" xlink:href="#linear-gradient"/><linearGradient id="linear-gradient-174" x1="1800.052" x2="2400.552" y1="590.617" y2="590.617" gradientTransform="matrix(1, 0, 0, 1, 0, 0)" xlink:href="#linear-gradient"/><linearGradient id="linear-gradient-175" x1="1800.052" x2="2400.552" y1="577.564" y2="577.564" gradientTransform="matrix(1, 0, 0, 1, 0, 0)" xlink:href="#linear-gradient"/><linearGradient id="linear-gradient-176" x1="1800.052" x2="2400.552" y1="564.51" y2="564.51" gradientTransform="matrix(1, 0, 0, 1, 0, 0)" xlink:href="#linear-gradient"/><linearGradient id="linear-gradient-177" x1="1800.052" x2="2400.552" y1="551.457" y2="551.457" gradientTransform="matrix(1, 0, 0, 1, 0, 0)" xlink:href="#linear-gradient"/><linearGradient id="linear-gradient-178" x1="1800.052" x2="2400.552" y1="538.403" y2="538.403" gradientTransform="matrix(1, 0, 0, 1, 0, 0)" xlink:href="#linear-gradient"/><linearGradient id="linear-gradient-179" x1="1800.052" x2="2400.552" y1="525.349" y2="525.349" gradientTransform="matrix(1, 0, 0, 1, 0, 0)" xlink:href="#linear-gradient"/><linearGradient id="linear-gradient-180" x1="1800.052" x2="2400.552" y1="512.295" y2="512.295" gradientTransform="matrix(1, 0, 0, 1, 0, 0)" xlink:href="#linear-gradient"/><linearGradient id="linear-gradient-181" x1="1800.052" x2="2400.552" y1="499.242" y2="499.242" gradientTransform="matrix(1, 0, 0, 1, 0, 0)" xlink:href="#linear-gradient"/><linearGradient id="linear-gradient-182" x1="1800.052" x2="2400.552" y1="486.188" y2="486.188" gradientTransform="matrix(1, 0, 0, 1, 0, 0)" xlink:href="#linear-gradient"/><linearGradient id="linear-gradient-183" x1="-6659.616" x2="-7375.936" y1="248.551" y2="270.999" xlink:href="#linear-gradient-14"/><linearGradient id="linear-gradient-184" x1="2400.052" x2="3000.552" y1="629.779" y2="629.779" gradientTransform="matrix(1, 0, 0, 1, 0, 0)" xlink:href="#linear-gradient-14"/><linearGradient id="linear-gradient-185" x1="2400.052" x2="3000.552" y1="616.725" y2="616.725" gradientTransform="matrix(1, 0, 0, 1, 0, 0)" xlink:href="#linear-gradient-14"/><linearGradient id="linear-gradient-186" x1="2400.052" x2="3000.552" y1="603.671" y2="603.671" gradientTransform="matrix(1, 0, 0, 1, 0, 0)" xlink:href="#linear-gradient-14"/><linearGradient id="linear-gradient-187" x1="2400.052" x2="3000.552" y1="590.617" y2="590.617" gradientTransform="matrix(1, 0, 0, 1, 0, 0)" xlink:href="#linear-gradient-14"/><linearGradient id="linear-gradient-188" x1="2400.052" x2="3000.552" y1="577.564" y2="577.564" gradientTransform="matrix(1, 0, 0, 1, 0, 0)" xlink:href="#linear-gradient-14"/><linearGradient id="linear-gradient-189" x1="2400.052" x2="3000.552" y1="564.51" y2="564.51" gradientTransform="matrix(1, 0, 0, 1, 0, 0)" xlink:href="#linear-gradient-14"/><linearGradient id="linear-gradient-190" x1="2400.052" x2="3000.552" y1="551.457" y2="551.457" gradientTransform="matrix(1, 0, 0, 1, 0, 0)" xlink:href="#linear-gradient-14"/><linearGradient id="linear-gradient-191" x1="2400.052" x2="3000.552" y1="538.403" y2="538.403" gradientTransform="matrix(1, 0, 0, 1, 0, 0)" xlink:href="#linear-gradient-14"/><linearGradient id="linear-gradient-192" x1="2400.052" x2="3000.552" y1="525.349" y2="525.349" gradientTransform="matrix(1, 0, 0, 1, 0, 0)" xlink:href="#linear-gradient-14"/><linearGradient id="linear-gradient-193" x1="2400.052" x2="3000.552" y1="512.295" y2="512.295" gradientTransform="matrix(1, 0, 0, 1, 0, 0)" xlink:href="#linear-gradient-14"/><linearGradient id="linear-gradient-194" x1="2400.052" x2="3000.552" y1="499.242" y2="499.242" gradientTransform="matrix(1, 0, 0, 1, 0, 0)" xlink:href="#linear-gradient-14"/><linearGradient id="linear-gradient-195" x1="2400.052" x2="3000.552" y1="486.188" y2="486.188" gradientTransform="matrix(1, 0, 0, 1, 0, 0)" xlink:href="#linear-gradient-14"/></defs><title>h2</title><g id="v2"><rect width="2999.609" height="1112" x=".247" y="-.092" fill="#ec106c"/><polygon fill="url(#linear-gradient)" points="0 58.676 0 -.092 234.851 -.092 234.851 67.52 388.586 158.034 542.351 67.52 542.351 -.092 600 -.092 600 101.461 571.175 118.432 417.41 208.956 388.586 225.917 359.761 208.946 206.027 118.432 177.202 101.451 177.202 58.676 0 58.676"/><polyline fill="none" stroke="url(#linear-gradient-2)" stroke-miterlimit="10" points="600 144.688 600 246.242 571.175 263.213 417.41 353.737 388.586 370.697 359.761 353.727 206.027 263.213 177.202 246.232 177.202 203.456 0 203.456"/><polyline fill="none" stroke="url(#linear-gradient-3)" stroke-miterlimit="10" points="600 131.635 600 233.188 571.175 250.159 417.41 340.683 388.586 357.644 359.761 340.673 206.027 250.159 177.202 233.178 177.202 190.403 0 190.403"/><polyline fill="none" stroke="url(#linear-gradient-4)" stroke-miterlimit="10" points="600 118.581 600 220.135 571.175 237.105 417.41 327.63 388.586 344.59 359.761 327.619 206.027 237.105 177.202 220.124 177.202 177.349 0 177.349"/><polyline fill="none" stroke="url(#linear-gradient-5)" stroke-miterlimit="10" points="600 105.527 600 207.081 571.175 224.052 417.41 314.576 388.586 331.536 359.761 314.566 206.027 224.052 177.202 207.071 177.202 164.295 0 164.295"/><polyline fill="none" stroke="url(#linear-gradient-6)" stroke-miterlimit="10" points="600 92.474 600 194.027 571.175 210.998 417.41 301.522 388.586 318.483 359.761 301.512 206.027 210.998 177.202 194.017 177.202 151.242 0 151.242"/><polyline fill="none" stroke="url(#linear-gradient-7)" stroke-miterlimit="10" points="600 79.42 600 180.974 571.175 197.944 417.41 288.469 388.586 305.429 359.761 288.458 206.027 197.944 177.202 180.963 177.202 138.188 0 138.188"/><polyline fill="none" stroke="url(#linear-gradient-8)" stroke-miterlimit="10" points="600 66.366 600 167.92 571.175 184.891 417.41 275.415 388.586 292.375 359.761 275.405 206.027 184.891 177.202 167.91 177.202 125.134 0 125.134"/><polyline fill="none" stroke="url(#linear-gradient-9)" stroke-miterlimit="10" points="600 53.313 600 154.866 571.175 171.837 417.41 262.361 388.586 279.322 359.761 262.351 206.027 171.837 177.202 154.856 177.202 112.081 0 112.081"/><polyline fill="none" stroke="url(#linear-gradient-10)" stroke-miterlimit="10" points="600 40.259 600 141.813 571.175 158.783 417.41 249.308 388.586 266.268 359.761 249.297 206.027 158.783 177.202 141.802 177.202 99.027 0 99.027"/><polyline fill="none" stroke="url(#linear-gradient-11)" stroke-miterlimit="10" points="600 27.205 600 128.759 571.175 145.73 417.41 236.254 388.586 253.214 359.761 236.244 206.027 145.73 177.202 128.749 177.202 85.973 0 85.973"/><polyline fill="none" stroke="url(#linear-gradient-12)" stroke-miterlimit="10" points="600 14.152 600 115.705 571.175 132.676 417.41 223.2 388.586 240.161 359.761 223.19 206.027 132.676 177.202 115.695 177.202 72.92 0 72.92"/><polyline fill="none" stroke="url(#linear-gradient-13)" stroke-miterlimit="10" points="600 1.098 600 102.652 571.175 119.622 417.41 210.147 388.586 227.107 359.761 210.136 206.027 119.622 177.202 102.641 177.202 59.866 0 59.866"/><polygon fill="url(#linear-gradient-14)" points="600 59.866 600 1.098 834.851 1.098 834.851 68.71 988.586 159.224 1142.351 68.71 1142.351 1.098 1200 1.098 1200 102.652 1171.175 119.622 1017.41 210.147 988.586 227.107 959.761 210.136 806.027 119.622 777.202 102.641 777.202 59.866 600 59.866"/><polyline fill="none" stroke="url(#linear-gradient-15)" stroke-miterlimit="10" points="1200 145.879 1200 247.432 1171.175 264.403 1017.41 354.927 988.586 371.888 959.761 354.917 806.027 264.403 777.202 247.422 777.202 204.647 600 204.647"/><polyline fill="none" stroke="url(#linear-gradient-16)" stroke-miterlimit="10" points="1200 132.825 1200 234.379 1171.175 251.349 1017.41 341.874 988.586 358.834 959.761 341.863 806.027 251.349 777.202 234.368 777.202 191.593 600 191.593"/><polyline fill="none" stroke="url(#linear-gradient-17)" stroke-miterlimit="10" points="1200 119.771 1200 221.325 1171.175 238.296 1017.41 328.82 988.586 345.78 959.761 328.81 806.027 238.296 777.202 221.315 777.202 178.539 600 178.539"/><polyline fill="none" stroke="url(#linear-gradient-18)" stroke-miterlimit="10" points="1200 106.718 1200 208.271 1171.175 225.242 1017.41 315.766 988.586 332.727 959.761 315.756 806.027 225.242 777.202 208.261 777.202 165.486 600 165.486"/><polyline fill="none" stroke="url(#linear-gradient-19)" stroke-miterlimit="10" points="1200 93.664 1200 195.218 1171.175 212.188 1017.41 302.713 988.586 319.673 959.761 302.702 806.027 212.188 777.202 195.207 777.202 152.432 600 152.432"/><polyline fill="none" stroke="url(#linear-gradient-20)" stroke-miterlimit="10" points="1200 80.61 1200 182.164 1171.175 199.135 1017.41 289.659 988.586 306.619 959.761 289.649 806.027 199.135 777.202 182.154 777.202 139.378 600 139.378"/><polyline fill="none" stroke="url(#linear-gradient-21)" stroke-miterlimit="10" points="1200 67.557 1200 169.11 1171.175 186.081 1017.41 276.605 988.586 293.566 959.761 276.595 806.027 186.081 777.202 169.1 777.202 126.325 600 126.325"/><polyline fill="none" stroke="url(#linear-gradient-22)" stroke-miterlimit="10" points="1200 54.503 1200 156.057 1171.175 173.027 1017.41 263.552 988.586 280.512 959.761 263.541 806.027 173.027 777.202 156.046 777.202 113.271 600 113.271"/><polyline fill="none" stroke="url(#linear-gradient-23)" stroke-miterlimit="10" points="1200 41.449 1200 143.003 1171.175 159.974 1017.41 250.498 988.586 267.458 959.761 250.488 806.027 159.974 777.202 142.993 777.202 100.217 600 100.217"/><polyline fill="none" stroke="url(#linear-gradient-24)" stroke-miterlimit="10" points="1200 28.396 1200 129.949 1171.175 146.92 1017.41 237.444 988.586 254.405 959.761 237.434 806.027 146.92 777.202 129.939 777.202 87.164 600 87.164"/><polyline fill="none" stroke="url(#linear-gradient-25)" stroke-miterlimit="10" points="1200 15.342 1200 116.896 1171.175 133.866 1017.41 224.391 988.586 241.351 959.761 224.38 806.027 133.866 777.202 116.885 777.202 74.11 600 74.11"/><polyline fill="none" stroke="url(#linear-gradient-26)" stroke-miterlimit="10" points="1200 2.288 1200 103.842 1171.175 120.813 1017.41 211.337 988.586 228.297 959.761 211.327 806.027 120.813 777.202 103.832 777.202 61.056 600 61.056"/><polygon fill="url(#linear-gradient-27)" points="1200 59.866 1200 1.098 1434.851 1.098 1434.851 68.71 1588.586 159.224 1742.351 68.71 1742.351 1.098 1800 1.098 1800 102.652 1771.175 119.622 1617.41 210.147 1588.586 227.107 1559.761 210.136 1406.027 119.622 1377.202 102.641 1377.202 59.866 1200 59.866"/><polyline fill="none" stroke="url(#linear-gradient-28)" stroke-miterlimit="10" points="1800 145.879 1800 247.432 1771.175 264.403 1617.41 354.927 1588.586 371.888 1559.761 354.917 1406.027 264.403 1377.202 247.422 1377.202 204.647 1200 204.647"/><polyline fill="none" stroke="url(#linear-gradient-29)" stroke-miterlimit="10" points="1800 132.825 1800 234.379 1771.175 251.349 1617.41 341.874 1588.586 358.834 1559.761 341.863 1406.027 251.349 1377.202 234.368 1377.202 191.593 1200 191.593"/><polyline fill="none" stroke="url(#linear-gradient-30)" stroke-miterlimit="10" points="1800 119.771 1800 221.325 1771.175 238.296 1617.41 328.82 1588.586 345.78 1559.761 328.81 1406.027 238.296 1377.202 221.315 1377.202 178.539 1200 178.539"/><polyline fill="none" stroke="url(#linear-gradient-31)" stroke-miterlimit="10" points="1800 106.718 1800 208.271 1771.175 225.242 1617.41 315.766 1588.586 332.727 1559.761 315.756 1406.027 225.242 1377.202 208.261 1377.202 165.486 1200 165.486"/><polyline fill="none" stroke="url(#linear-gradient-32)" stroke-miterlimit="10" points="1800 93.664 1800 195.218 1771.175 212.188 1617.41 302.713 1588.586 319.673 1559.761 302.702 1406.027 212.188 1377.202 195.207 1377.202 152.432 1200 152.432"/><polyline fill="none" stroke="url(#linear-gradient-33)" stroke-miterlimit="10" points="1800 80.61 1800 182.164 1771.175 199.135 1617.41 289.659 1588.586 306.619 1559.761 289.649 1406.027 199.135 1377.202 182.154 1377.202 139.378 1200 139.378"/><polyline fill="none" stroke="url(#linear-gradient-34)" stroke-miterlimit="10" points="1800 67.557 1800 169.11 1771.175 186.081 1617.41 276.605 1588.586 293.566 1559.761 276.595 1406.027 186.081 1377.202 169.1 1377.202 126.325 1200 126.325"/><polyline fill="none" stroke="url(#linear-gradient-35)" stroke-miterlimit="10" points="1800 54.503 1800 156.057 1771.175 173.027 1617.41 263.552 1588.586 280.512 1559.761 263.541 1406.027 173.027 1377.202 156.046 1377.202 113.271 1200 113.271"/><polyline fill="none" stroke="url(#linear-gradient-36)" stroke-miterlimit="10" points="1800 41.449 1800 143.003 1771.175 159.974 1617.41 250.498 1588.586 267.458 1559.761 250.488 1406.027 159.974 1377.202 142.993 1377.202 100.217 1200 100.217"/><polyline fill="none" stroke="url(#linear-gradient-37)" stroke-miterlimit="10" points="1800 28.396 1800 129.949 1771.175 146.92 1617.41 237.444 1588.586 254.405 1559.761 237.434 1406.027 146.92 1377.202 129.939 1377.202 87.164 1200 87.164"/><polyline fill="none" stroke="url(#linear-gradient-38)" stroke-miterlimit="10" points="1800 15.342 1800 116.896 1771.175 133.866 1617.41 224.391 1588.586 241.351 1559.761 224.38 1406.027 133.866 1377.202 116.885 1377.202 74.11 1200 74.11"/><polyline fill="none" stroke="url(#linear-gradient-39)" stroke-miterlimit="10" points="1800 2.288 1800 103.842 1771.175 120.813 1617.41 211.337 1588.586 228.297 1559.761 211.327 1406.027 120.813 1377.202 103.832 1377.202 61.056 1200 61.056"/><polygon fill="url(#linear-gradient-40)" points="1800.052 58.676 1800.052 -.092 2034.903 -.092 2034.903 67.52 2188.638 158.034 2342.403 67.52 2342.403 -.092 2400.052 -.092 2400.052 101.461 2371.227 118.432 2217.462 208.956 2188.638 225.917 2159.813 208.946 2006.079 118.432 1977.254 101.451 1977.254 58.676 1800.052 58.676"/><polyline fill="none" stroke="url(#linear-gradient-41)" stroke-miterlimit="10" points="2400.052 144.688 2400.052 246.242 2371.227 263.213 2217.462 353.737 2188.638 370.697 2159.813 353.727 2006.079 263.213 1977.254 246.232 1977.254 203.456 1800.052 203.456"/><polyline fill="none" stroke="url(#linear-gradient-42)" stroke-miterlimit="10" points="2400.052 131.635 2400.052 233.188 2371.227 250.159 2217.462 340.683 2188.638 357.644 2159.813 340.673 2006.079 250.159 1977.254 233.178 1977.254 190.403 1800.052 190.403"/><polyline fill="none" stroke="url(#linear-gradient-43)" stroke-miterlimit="10" points="2400.052 118.581 2400.052 220.135 2371.227 237.105 2217.462 327.63 2188.638 344.59 2159.813 327.619 2006.079 237.105 1977.254 220.124 1977.254 177.349 1800.052 177.349"/><polyline fill="none" stroke="url(#linear-gradient-44)" stroke-miterlimit="10" points="2400.052 105.527 2400.052 207.081 2371.227 224.052 2217.462 314.576 2188.638 331.536 2159.813 314.566 2006.079 224.052 1977.254 207.071 1977.254 164.295 1800.052 164.295"/><polyline fill="none" stroke="url(#linear-gradient-45)" stroke-miterlimit="10" points="2400.052 92.474 2400.052 194.027 2371.227 210.998 2217.462 301.522 2188.638 318.483 2159.813 301.512 2006.079 210.998 1977.254 194.017 1977.254 151.242 1800.052 151.242"/><polyline fill="none" stroke="url(#linear-gradient-46)" stroke-miterlimit="10" points="2400.052 79.42 2400.052 180.974 2371.227 197.944 2217.462 288.469 2188.638 305.429 2159.813 288.458 2006.079 197.944 1977.254 180.963 1977.254 138.188 1800.052 138.188"/><polyline fill="none" stroke="url(#linear-gradient-47)" stroke-miterlimit="10" points="2400.052 66.366 2400.052 167.92 2371.227 184.891 2217.462 275.415 2188.638 292.375 2159.813 275.405 2006.079 184.891 1977.254 167.91 1977.254 125.134 1800.052 125.134"/><polyline fill="none" stroke="url(#linear-gradient-48)" stroke-miterlimit="10" points="2400.052 53.313 2400.052 154.866 2371.227 171.837 2217.462 262.361 2188.638 279.322 2159.813 262.351 2006.079 171.837 1977.254 154.856 1977.254 112.081 1800.052 112.081"/><polyline fill="none" stroke="url(#linear-gradient-49)" stroke-miterlimit="10" points="2400.052 40.259 2400.052 141.813 2371.227 158.783 2217.462 249.308 2188.638 266.268 2159.813 249.297 2006.079 158.783 1977.254 141.802 1977.254 99.027 1800.052 99.027"/><polyline fill="none" stroke="url(#linear-gradient-50)" stroke-miterlimit="10" points="2400.052 27.205 2400.052 128.759 2371.227 145.73 2217.462 236.254 2188.638 253.214 2159.813 236.244 2006.079 145.73 1977.254 128.749 1977.254 85.973 1800.052 85.973"/><polyline fill="none" stroke="url(#linear-gradient-51)" stroke-miterlimit="10" points="2400.052 14.152 2400.052 115.705 2371.227 132.676 2217.462 223.2 2188.638 240.161 2159.813 223.19 2006.079 132.676 1977.254 115.695 1977.254 72.92 1800.052 72.92"/><polyline fill="none" stroke="url(#linear-gradient-52)" stroke-miterlimit="10" points="2400.052 1.098 2400.052 102.652 2371.227 119.622 2217.462 210.147 2188.638 227.107 2159.813 210.136 2006.079 119.622 1977.254 102.641 1977.254 59.866 1800.052 59.866"/><polygon fill="url(#linear-gradient-53)" points="2400 58.676 2400 -.092 2634.851 -.092 2634.851 67.52 2788.586 158.034 2942.351 67.52 2942.351 -.092 3000 -.092 3000 101.461 2971.175 118.432 2817.41 208.956 2788.586 225.917 2759.761 208.946 2606.027 118.432 2577.202 101.451 2577.202 58.676 2400 58.676"/><polyline fill="none" stroke="url(#linear-gradient-54)" stroke-miterlimit="10" points="3000 144.688 3000 246.242 2971.175 263.213 2817.41 353.737 2788.586 370.697 2759.761 353.727 2606.027 263.213 2577.202 246.232 2577.202 203.456 2400 203.456"/><polyline fill="none" stroke="url(#linear-gradient-55)" stroke-miterlimit="10" points="3000 131.635 3000 233.188 2971.175 250.159 2817.41 340.683 2788.586 357.644 2759.761 340.673 2606.027 250.159 2577.202 233.178 2577.202 190.403 2400 190.403"/><polyline fill="none" stroke="url(#linear-gradient-56)" stroke-miterlimit="10" points="3000 118.581 3000 220.135 2971.175 237.105 2817.41 327.63 2788.586 344.59 2759.761 327.619 2606.027 237.105 2577.202 220.124 2577.202 177.349 2400 177.349"/><polyline fill="none" stroke="url(#linear-gradient-57)" stroke-miterlimit="10" points="3000 105.527 3000 207.081 2971.175 224.052 2817.41 314.576 2788.586 331.536 2759.761 314.566 2606.027 224.052 2577.202 207.071 2577.202 164.295 2400 164.295"/><polyline fill="none" stroke="url(#linear-gradient-58)" stroke-miterlimit="10" points="3000 92.474 3000 194.027 2971.175 210.998 2817.41 301.522 2788.586 318.483 2759.761 301.512 2606.027 210.998 2577.202 194.017 2577.202 151.242 2400 151.242"/><polyline fill="none" stroke="url(#linear-gradient-59)" stroke-miterlimit="10" points="3000 79.42 3000 180.974 2971.175 197.944 2817.41 288.469 2788.586 305.429 2759.761 288.458 2606.027 197.944 2577.202 180.963 2577.202 138.188 2400 138.188"/><polyline fill="none" stroke="url(#linear-gradient-60)" stroke-miterlimit="10" points="3000 66.366 3000 167.92 2971.175 184.891 2817.41 275.415 2788.586 292.375 2759.761 275.405 2606.027 184.891 2577.202 167.91 2577.202 125.134 2400 125.134"/><polyline fill="none" stroke="url(#linear-gradient-61)" stroke-miterlimit="10" points="3000 53.313 3000 154.866 2971.175 171.837 2817.41 262.361 2788.586 279.322 2759.761 262.351 2606.027 171.837 2577.202 154.856 2577.202 112.081 2400 112.081"/><polyline fill="none" stroke="url(#linear-gradient-62)" stroke-miterlimit="10" points="3000 40.259 3000 141.813 2971.175 158.783 2817.41 249.308 2788.586 266.268 2759.761 249.297 2606.027 158.783 2577.202 141.802 2577.202 99.027 2400 99.027"/><polyline fill="none" stroke="url(#linear-gradient-63)" stroke-miterlimit="10" points="3000 27.205 3000 128.759 2971.175 145.73 2817.41 236.254 2788.586 253.214 2759.761 236.244 2606.027 145.73 2577.202 128.749 2577.202 85.973 2400 85.973"/><polyline fill="none" stroke="url(#linear-gradient-64)" stroke-miterlimit="10" points="3000 14.152 3000 115.705 2971.175 132.676 2817.41 223.2 2788.586 240.161 2759.761 223.19 2606.027 132.676 2577.202 115.695 2577.202 72.92 2400 72.92"/><polyline fill="none" stroke="url(#linear-gradient-65)" stroke-miterlimit="10" points="3000 1.098 3000 102.652 2971.175 119.622 2817.41 210.147 2788.586 227.107 2759.761 210.136 2606.027 119.622 2577.202 102.641 2577.202 59.866 2400 59.866"/><polygon fill="url(#linear-gradient-66)" points="0 798.88 0 740.112 234.851 740.112 234.851 807.724 388.586 898.238 542.351 807.724 542.351 740.112 600 740.112 600 841.666 571.175 858.637 417.41 949.161 388.586 966.121 359.761 949.151 206.027 858.637 177.202 841.656 177.202 798.88 0 798.88"/><polyline fill="none" stroke="url(#linear-gradient-67)" stroke-miterlimit="10" points="600 884.893 600 986.447 571.175 1003.417 417.41 1093.942 388.586 1110.902 359.761 1093.931 206.027 1003.417 177.202 986.436 177.202 943.661 0 943.661"/><polyline fill="none" stroke="url(#linear-gradient-68)" stroke-miterlimit="10" points="600 871.839 600 973.393 571.175 990.364 417.41 1080.888 388.586 1097.848 359.761 1080.878 206.027 990.364 177.202 973.383 177.202 930.607 0 930.607"/><polyline fill="none" stroke="url(#linear-gradient-69)" stroke-miterlimit="10" points="600 858.786 600 960.339 571.175 977.31 417.41 1067.834 388.586 1084.795 359.761 1067.824 206.027 977.31 177.202 960.329 177.202 917.553 0 917.553"/><polyline fill="none" stroke="url(#linear-gradient-70)" stroke-miterlimit="10" points="600 845.732 600 947.286 571.175 964.256 417.41 1054.781 388.586 1071.741 359.761 1054.77 206.027 964.256 177.202 947.275 177.202 904.5 0 904.5"/><polyline fill="none" stroke="url(#linear-gradient-71)" stroke-miterlimit="10" points="600 832.678 600 934.232 571.175 951.203 417.41 1041.727 388.586 1058.687 359.761 1041.717 206.027 951.203 177.202 934.222 177.202 891.446 0 891.446"/><polyline fill="none" stroke="url(#linear-gradient-72)" stroke-miterlimit="10" points="600 819.625 600 921.178 571.175 938.149 417.41 1028.673 388.586 1045.634 359.761 1028.663 206.027 938.149 177.202 921.168 177.202 878.392 0 878.392"/><polyline fill="none" stroke="url(#linear-gradient-73)" stroke-miterlimit="10" points="600 806.571 600 908.125 571.175 925.095 417.41 1015.62 388.586 1032.58 359.761 1015.609 206.027 925.095 177.202 908.114 177.202 865.339 0 865.339"/><polyline fill="none" stroke="url(#linear-gradient-74)" stroke-miterlimit="10" points="600 793.517 600 895.071 571.175 912.042 417.41 1002.566 388.586 1019.526 359.761 1002.556 206.027 912.042 177.202 895.061 177.202 852.285 0 852.285"/><polyline fill="none" stroke="url(#linear-gradient-75)" stroke-miterlimit="10" points="600 780.464 600 882.017 571.175 898.988 417.41 989.512 388.586 1006.473 359.761 989.502 206.027 898.988 177.202 882.007 177.202 839.232 0 839.232"/><polyline fill="none" stroke="url(#linear-gradient-76)" stroke-miterlimit="10" points="600 767.41 600 868.964 571.175 885.934 417.41 976.459 388.586 993.419 359.761 976.448 206.027 885.934 177.202 868.953 177.202 826.178 0 826.178"/><polyline fill="none" stroke="url(#linear-gradient-77)" stroke-miterlimit="10" points="600 754.356 600 855.91 571.175 872.881 417.41 963.405 388.586 980.365 359.761 963.395 206.027 872.881 177.202 855.9 177.202 813.124 0 813.124"/><polyline fill="none" stroke="url(#linear-gradient-78)" stroke-miterlimit="10" points="600 741.303 600 842.856 571.175 859.827 417.41 950.351 388.586 967.312 359.761 950.341 206.027 859.827 177.202 842.846 177.202 800.071 0 800.071"/><polygon fill="url(#linear-gradient-79)" points="600.052 798.88 600.052 740.112 834.903 740.112 834.903 807.724 988.638 898.238 1142.403 807.724 1142.403 740.112 1200.052 740.112 1200.052 841.666 1171.227 858.637 1017.462 949.161 988.638 966.121 959.813 949.151 806.079 858.637 777.254 841.656 777.254 798.88 600.052 798.88"/><polyline fill="none" stroke="url(#linear-gradient-80)" stroke-miterlimit="10" points="1200.052 884.893 1200.052 986.447 1171.227 1003.417 1017.462 1093.942 988.638 1110.902 959.813 1093.931 806.079 1003.417 777.254 986.436 777.254 943.661 600.052 943.661"/><polyline fill="none" stroke="url(#linear-gradient-81)" stroke-miterlimit="10" points="1200.052 871.839 1200.052 973.393 1171.227 990.364 1017.462 1080.888 988.638 1097.848 959.813 1080.878 806.079 990.364 777.254 973.383 777.254 930.607 600.052 930.607"/><polyline fill="none" stroke="url(#linear-gradient-82)" stroke-miterlimit="10" points="1200.052 858.786 1200.052 960.339 1171.227 977.31 1017.462 1067.834 988.638 1084.795 959.813 1067.824 806.079 977.31 777.254 960.329 777.254 917.553 600.052 917.553"/><polyline fill="none" stroke="url(#linear-gradient-83)" stroke-miterlimit="10" points="1200.052 845.732 1200.052 947.286 1171.227 964.256 1017.462 1054.781 988.638 1071.741 959.813 1054.77 806.079 964.256 777.254 947.275 777.254 904.5 600.052 904.5"/><polyline fill="none" stroke="url(#linear-gradient-84)" stroke-miterlimit="10" points="1200.052 832.678 1200.052 934.232 1171.227 951.203 1017.462 1041.727 988.638 1058.687 959.813 1041.717 806.079 951.203 777.254 934.222 777.254 891.446 600.052 891.446"/><polyline fill="none" stroke="url(#linear-gradient-85)" stroke-miterlimit="10" points="1200.052 819.625 1200.052 921.178 1171.227 938.149 1017.462 1028.673 988.638 1045.634 959.813 1028.663 806.079 938.149 777.254 921.168 777.254 878.392 600.052 878.392"/><polyline fill="none" stroke="url(#linear-gradient-86)" stroke-miterlimit="10" points="1200.052 806.571 1200.052 908.125 1171.227 925.095 1017.462 1015.62 988.638 1032.58 959.813 1015.609 806.079 925.095 777.254 908.114 777.254 865.339 600.052 865.339"/><polyline fill="none" stroke="url(#linear-gradient-87)" stroke-miterlimit="10" points="1200.052 793.517 1200.052 895.071 1171.227 912.042 1017.462 1002.566 988.638 1019.526 959.813 1002.556 806.079 912.042 777.254 895.061 777.254 852.285 600.052 852.285"/><polyline fill="none" stroke="url(#linear-gradient-88)" stroke-miterlimit="10" points="1200.052 780.464 1200.052 882.017 1171.227 898.988 1017.462 989.512 988.638 1006.473 959.813 989.502 806.079 898.988 777.254 882.007 777.254 839.232 600.052 839.232"/><polyline fill="none" stroke="url(#linear-gradient-89)" stroke-miterlimit="10" points="1200.052 767.41 1200.052 868.964 1171.227 885.934 1017.462 976.459 988.638 993.419 959.813 976.448 806.079 885.934 777.254 868.953 777.254 826.178 600.052 826.178"/><polyline fill="none" stroke="url(#linear-gradient-90)" stroke-miterlimit="10" points="1200.052 754.356 1200.052 855.91 1171.227 872.881 1017.462 963.405 988.638 980.365 959.813 963.395 806.079 872.881 777.254 855.9 777.254 813.124 600.052 813.124"/><polyline fill="none" stroke="url(#linear-gradient-91)" stroke-miterlimit="10" points="1200.052 741.303 1200.052 842.856 1171.227 859.827 1017.462 950.351 988.638 967.312 959.813 950.341 806.079 859.827 777.254 842.846 777.254 800.071 600.052 800.071"/><polygon fill="url(#linear-gradient-92)" points="1200.052 798.88 1200.052 740.112 1434.903 740.112 1434.903 807.724 1588.638 898.238 1742.403 807.724 1742.403 740.112 1800.052 740.112 1800.052 841.666 1771.227 858.637 1617.462 949.161 1588.638 966.121 1559.813 949.151 1406.079 858.637 1377.254 841.656 1377.254 798.88 1200.052 798.88"/><polyline fill="none" stroke="url(#linear-gradient-93)" stroke-miterlimit="10" points="1800.052 884.893 1800.052 986.447 1771.227 1003.417 1617.462 1093.942 1588.638 1110.902 1559.813 1093.931 1406.079 1003.417 1377.254 986.436 1377.254 943.661 1200.052 943.661"/><polyline fill="none" stroke="url(#linear-gradient-94)" stroke-miterlimit="10" points="1800.052 871.839 1800.052 973.393 1771.227 990.364 1617.462 1080.888 1588.638 1097.848 1559.813 1080.878 1406.079 990.364 1377.254 973.383 1377.254 930.607 1200.052 930.607"/><polyline fill="none" stroke="url(#linear-gradient-95)" stroke-miterlimit="10" points="1800.052 858.786 1800.052 960.339 1771.227 977.31 1617.462 1067.834 1588.638 1084.795 1559.813 1067.824 1406.079 977.31 1377.254 960.329 1377.254 917.553 1200.052 917.553"/><polyline fill="none" stroke="url(#linear-gradient-96)" stroke-miterlimit="10" points="1800.052 845.732 1800.052 947.286 1771.227 964.256 1617.462 1054.781 1588.638 1071.741 1559.813 1054.77 1406.079 964.256 1377.254 947.275 1377.254 904.5 1200.052 904.5"/><polyline fill="none" stroke="url(#linear-gradient-97)" stroke-miterlimit="10" points="1800.052 832.678 1800.052 934.232 1771.227 951.203 1617.462 1041.727 1588.638 1058.687 1559.813 1041.717 1406.079 951.203 1377.254 934.222 1377.254 891.446 1200.052 891.446"/><polyline fill="none" stroke="url(#linear-gradient-98)" stroke-miterlimit="10" points="1800.052 819.625 1800.052 921.178 1771.227 938.149 1617.462 1028.673 1588.638 1045.634 1559.813 1028.663 1406.079 938.149 1377.254 921.168 1377.254 878.392 1200.052 878.392"/><polyline fill="none" stroke="url(#linear-gradient-99)" stroke-miterlimit="10" points="1800.052 806.571 1800.052 908.125 1771.227 925.095 1617.462 1015.62 1588.638 1032.58 1559.813 1015.609 1406.079 925.095 1377.254 908.114 1377.254 865.339 1200.052 865.339"/><polyline fill="none" stroke="url(#linear-gradient-100)" stroke-miterlimit="10" points="1800.052 793.517 1800.052 895.071 1771.227 912.042 1617.462 1002.566 1588.638 1019.526 1559.813 1002.556 1406.079 912.042 1377.254 895.061 1377.254 852.285 1200.052 852.285"/><polyline fill="none" stroke="url(#linear-gradient-101)" stroke-miterlimit="10" points="1800.052 780.464 1800.052 882.017 1771.227 898.988 1617.462 989.512 1588.638 1006.473 1559.813 989.502 1406.079 898.988 1377.254 882.007 1377.254 839.232 1200.052 839.232"/><polyline fill="none" stroke="url(#linear-gradient-102)" stroke-miterlimit="10" points="1800.052 767.41 1800.052 868.964 1771.227 885.934 1617.462 976.459 1588.638 993.419 1559.813 976.448 1406.079 885.934 1377.254 868.953 1377.254 826.178 1200.052 826.178"/><polyline fill="none" stroke="url(#linear-gradient-103)" stroke-miterlimit="10" points="1800.052 754.356 1800.052 855.91 1771.227 872.881 1617.462 963.405 1588.638 980.365 1559.813 963.395 1406.079 872.881 1377.254 855.9 1377.254 813.124 1200.052 813.124"/><polyline fill="none" stroke="url(#linear-gradient-104)" stroke-miterlimit="10" points="1800.052 741.303 1800.052 842.856 1771.227 859.827 1617.462 950.351 1588.638 967.312 1559.813 950.341 1406.079 859.827 1377.254 842.846 1377.254 800.071 1200.052 800.071"/><polygon fill="url(#linear-gradient-105)" points="1800 800.071 1800 741.303 2034.851 741.303 2034.851 808.915 2188.586 899.429 2342.351 808.915 2342.351 741.303 2400 741.303 2400 842.856 2371.175 859.827 2217.41 950.351 2188.586 967.312 2159.761 950.341 2006.027 859.827 1977.202 842.846 1977.202 800.071 1800 800.071"/><polyline fill="none" stroke="url(#linear-gradient-106)" stroke-miterlimit="10" points="2400 886.083 2400 987.637 2371.175 1004.608 2217.41 1095.132 2188.586 1112.092 2159.761 1095.122 2006.027 1004.608 1977.202 987.627 1977.202 944.851 1800 944.851"/><polyline fill="none" stroke="url(#linear-gradient-107)" stroke-miterlimit="10" points="2400 873.03 2400 974.583 2371.175 991.554 2217.41 1082.078 2188.586 1099.039 2159.761 1082.068 2006.027 991.554 1977.202 974.573 1977.202 931.798 1800 931.798"/><polyline fill="none" stroke="url(#linear-gradient-108)" stroke-miterlimit="10" points="2400 859.976 2400 961.53 2371.175 978.5 2217.41 1069.025 2188.586 1085.985 2159.761 1069.014 2006.027 978.5 1977.202 961.519 1977.202 918.744 1800 918.744"/><polyline fill="none" stroke="url(#linear-gradient-109)" stroke-miterlimit="10" points="2400 846.922 2400 948.476 2371.175 965.447 2217.41 1055.971 2188.586 1072.931 2159.761 1055.961 2006.027 965.447 1977.202 948.466 1977.202 905.69 1800 905.69"/><polyline fill="none" stroke="url(#linear-gradient-110)" stroke-miterlimit="10" points="2400 833.869 2400 935.422 2371.175 952.393 2217.41 1042.917 2188.586 1059.878 2159.761 1042.907 2006.027 952.393 1977.202 935.412 1977.202 892.637 1800 892.637"/><polyline fill="none" stroke="url(#linear-gradient-111)" stroke-miterlimit="10" points="2400 820.815 2400 922.369 2371.175 939.339 2217.41 1029.864 2188.586 1046.824 2159.761 1029.853 2006.027 939.339 1977.202 922.358 1977.202 879.583 1800 879.583"/><polyline fill="none" stroke="url(#linear-gradient-112)" stroke-miterlimit="10" points="2400 807.761 2400 909.315 2371.175 926.286 2217.41 1016.81 2188.586 1033.77 2159.761 1016.8 2006.027 926.286 1977.202 909.305 1977.202 866.529 1800 866.529"/><polyline fill="none" stroke="url(#linear-gradient-113)" stroke-miterlimit="10" points="2400 794.708 2400 896.261 2371.175 913.232 2217.41 1003.756 2188.586 1020.717 2159.761 1003.746 2006.027 913.232 1977.202 896.251 1977.202 853.476 1800 853.476"/><polyline fill="none" stroke="url(#linear-gradient-114)" stroke-miterlimit="10" points="2400 781.654 2400 883.208 2371.175 900.178 2217.41 990.703 2188.586 1007.663 2159.761 990.692 2006.027 900.178 1977.202 883.197 1977.202 840.422 1800 840.422"/><polyline fill="none" stroke="url(#linear-gradient-115)" stroke-miterlimit="10" points="2400 768.6 2400 870.154 2371.175 887.125 2217.41 977.649 2188.586 994.609 2159.761 977.639 2006.027 887.125 1977.202 870.144 1977.202 827.368 1800 827.368"/><polyline fill="none" stroke="url(#linear-gradient-116)" stroke-miterlimit="10" points="2400 755.547 2400 857.1 2371.175 874.071 2217.41 964.595 2188.586 981.556 2159.761 964.585 2006.027 874.071 1977.202 857.09 1977.202 814.315 1800 814.315"/><polyline fill="none" stroke="url(#linear-gradient-117)" stroke-miterlimit="10" points="2400 742.493 2400 844.047 2371.175 861.017 2217.41 951.542 2188.586 968.502 2159.761 951.531 2006.027 861.017 1977.202 844.036 1977.202 801.261 1800 801.261"/><polygon fill="url(#linear-gradient-118)" points="2400.052 800.071 2400.052 741.303 2634.903 741.303 2634.903 808.915 2788.638 899.429 2942.403 808.915 2942.403 741.303 3000.052 741.303 3000.052 842.856 2971.227 859.827 2817.462 950.351 2788.638 967.312 2759.813 950.341 2606.079 859.827 2577.254 842.846 2577.254 800.071 2400.052 800.071"/><polyline fill="none" stroke="url(#linear-gradient-119)" stroke-miterlimit="10" points="3000.052 886.083 3000.052 987.637 2971.227 1004.608 2817.462 1095.132 2788.638 1112.092 2759.813 1095.122 2606.079 1004.608 2577.254 987.627 2577.254 944.851 2400.052 944.851"/><polyline fill="none" stroke="url(#linear-gradient-120)" stroke-miterlimit="10" points="3000.052 873.03 3000.052 974.583 2971.227 991.554 2817.462 1082.078 2788.638 1099.039 2759.813 1082.068 2606.079 991.554 2577.254 974.573 2577.254 931.798 2400.052 931.798"/><polyline fill="none" stroke="url(#linear-gradient-121)" stroke-miterlimit="10" points="3000.052 859.976 3000.052 961.53 2971.227 978.5 2817.462 1069.025 2788.638 1085.985 2759.813 1069.014 2606.079 978.5 2577.254 961.519 2577.254 918.744 2400.052 918.744"/><polyline fill="none" stroke="url(#linear-gradient-122)" stroke-miterlimit="10" points="3000.052 846.922 3000.052 948.476 2971.227 965.447 2817.462 1055.971 2788.638 1072.931 2759.813 1055.961 2606.079 965.447 2577.254 948.466 2577.254 905.69 2400.052 905.69"/><polyline fill="none" stroke="url(#linear-gradient-123)" stroke-miterlimit="10" points="3000.052 833.869 3000.052 935.422 2971.227 952.393 2817.462 1042.917 2788.638 1059.878 2759.813 1042.907 2606.079 952.393 2577.254 935.412 2577.254 892.637 2400.052 892.637"/><polyline fill="none" stroke="url(#linear-gradient-124)" stroke-miterlimit="10" points="3000.052 820.815 3000.052 922.369 2971.227 939.339 2817.462 1029.864 2788.638 1046.824 2759.813 1029.853 2606.079 939.339 2577.254 922.358 2577.254 879.583 2400.052 879.583"/><polyline fill="none" stroke="url(#linear-gradient-125)" stroke-miterlimit="10" points="3000.052 807.761 3000.052 909.315 2971.227 926.286 2817.462 1016.81 2788.638 1033.77 2759.813 1016.8 2606.079 926.286 2577.254 909.305 2577.254 866.529 2400.052 866.529"/><polyline fill="none" stroke="url(#linear-gradient-126)" stroke-miterlimit="10" points="3000.052 794.708 3000.052 896.261 2971.227 913.232 2817.462 1003.756 2788.638 1020.717 2759.813 1003.746 2606.079 913.232 2577.254 896.251 2577.254 853.476 2400.052 853.476"/><polyline fill="none" stroke="url(#linear-gradient-127)" stroke-miterlimit="10" points="3000.052 781.654 3000.052 883.208 2971.227 900.178 2817.462 990.703 2788.638 1007.663 2759.813 990.692 2606.079 900.178 2577.254 883.197 2577.254 840.422 2400.052 840.422"/><polyline fill="none" stroke="url(#linear-gradient-128)" stroke-miterlimit="10" points="3000.052 768.6 3000.052 870.154 2971.227 887.125 2817.462 977.649 2788.638 994.609 2759.813 977.639 2606.079 887.125 2577.254 870.144 2577.254 827.368 2400.052 827.368"/><polyline fill="none" stroke="url(#linear-gradient-129)" stroke-miterlimit="10" points="3000.052 755.547 3000.052 857.1 2971.227 874.071 2817.462 964.595 2788.638 981.556 2759.813 964.585 2606.079 874.071 2577.254 857.09 2577.254 814.315 2400.052 814.315"/><polyline fill="none" stroke="url(#linear-gradient-130)" stroke-miterlimit="10" points="3000.052 742.493 3000.052 844.047 2971.227 861.017 2817.462 951.542 2788.638 968.502 2759.813 951.531 2606.079 861.017 2577.254 844.036 2577.254 801.261 2400.052 801.261"/><polygon fill="url(#linear-gradient-131)" points=".052 428.09 .052 369.323 234.903 369.323 234.903 436.935 388.638 527.449 542.403 436.935 542.403 369.323 600.052 369.323 600.052 470.876 571.227 487.847 417.462 578.371 388.638 595.332 359.813 578.361 206.079 487.847 177.254 470.866 177.254 428.09 .052 428.09"/><polyline fill="none" stroke="url(#linear-gradient-132)" stroke-miterlimit="10" points="600.052 514.103 600.052 615.657 571.227 632.628 417.462 723.152 388.638 740.112 359.813 723.142 206.079 632.628 177.254 615.646 177.254 572.871 .052 572.871"/><polyline fill="none" stroke="url(#linear-gradient-133)" stroke-miterlimit="10" points="600.052 501.049 600.052 602.603 571.227 619.574 417.462 710.098 388.638 727.059 359.813 710.088 206.079 619.574 177.254 602.593 177.254 559.817 .052 559.817"/><polyline fill="none" stroke="url(#linear-gradient-134)" stroke-miterlimit="10" points="600.052 487.996 600.052 589.55 571.227 606.52 417.462 697.045 388.638 714.005 359.813 697.034 206.079 606.52 177.254 589.539 177.254 546.764 .052 546.764"/><polyline fill="none" stroke="url(#linear-gradient-135)" stroke-miterlimit="10" points="600.052 474.942 600.052 576.496 571.227 593.467 417.462 683.991 388.638 700.951 359.813 683.981 206.079 593.467 177.254 576.485 177.254 533.71 .052 533.71"/><polyline fill="none" stroke="url(#linear-gradient-136)" stroke-miterlimit="10" points="600.052 461.888 600.052 563.442 571.227 580.413 417.462 670.937 388.638 687.898 359.813 670.927 206.079 580.413 177.254 563.432 177.254 520.656 .052 520.656"/><polyline fill="none" stroke="url(#linear-gradient-137)" stroke-miterlimit="10" points="600.052 448.835 600.052 550.389 571.227 567.359 417.462 657.884 388.638 674.844 359.813 657.873 206.079 567.359 177.254 550.378 177.254 507.603 .052 507.603"/><polyline fill="none" stroke="url(#linear-gradient-138)" stroke-miterlimit="10" points="600.052 435.781 600.052 537.335 571.227 554.306 417.462 644.83 388.638 661.79 359.813 644.82 206.079 554.306 177.254 537.325 177.254 494.549 .052 494.549"/><polyline fill="none" stroke="url(#linear-gradient-139)" stroke-miterlimit="10" points="600.052 422.728 600.052 524.281 571.227 541.252 417.462 631.776 388.638 648.737 359.813 631.766 206.079 541.252 177.254 524.271 177.254 481.495 .052 481.495"/><polyline fill="none" stroke="url(#linear-gradient-140)" stroke-miterlimit="10" points="600.052 409.674 600.052 511.228 571.227 528.198 417.462 618.723 388.638 635.683 359.813 618.712 206.079 528.198 177.254 511.217 177.254 468.442 .052 468.442"/><polyline fill="none" stroke="url(#linear-gradient-141)" stroke-miterlimit="10" points="600.052 396.62 600.052 498.174 571.227 515.145 417.462 605.669 388.638 622.629 359.813 605.659 206.079 515.145 177.254 498.164 177.254 455.388 .052 455.388"/><polyline fill="none" stroke="url(#linear-gradient-142)" stroke-miterlimit="10" points="600.052 383.567 600.052 485.12 571.227 502.091 417.462 592.615 388.638 609.576 359.813 592.605 206.079 502.091 177.254 485.11 177.254 442.334 .052 442.334"/><polyline fill="none" stroke="url(#linear-gradient-143)" stroke-miterlimit="10" points="600.052 370.513 600.052 472.067 571.227 489.037 417.462 579.562 388.638 596.522 359.813 579.551 206.079 489.037 177.254 472.056 177.254 429.281 .052 429.281"/><polygon fill="url(#linear-gradient-144)" points="600.052 428.09 600.052 369.323 834.903 369.323 834.903 436.935 988.638 527.449 1142.403 436.935 1142.403 369.323 1200.052 369.323 1200.052 470.876 1171.227 487.847 1017.462 578.371 988.638 595.332 959.813 578.361 806.079 487.847 777.254 470.866 777.254 428.09 600.052 428.09"/><polyline fill="none" stroke="url(#linear-gradient-145)" stroke-miterlimit="10" points="1200.052 514.103 1200.052 615.657 1171.227 632.628 1017.462 723.152 988.638 740.112 959.813 723.142 806.079 632.628 777.254 615.646 777.254 572.871 600.052 572.871"/><polyline fill="none" stroke="url(#linear-gradient-146)" stroke-miterlimit="10" points="1200.052 501.049 1200.052 602.603 1171.227 619.574 1017.462 710.098 988.638 727.059 959.813 710.088 806.079 619.574 777.254 602.593 777.254 559.817 600.052 559.817"/><polyline fill="none" stroke="url(#linear-gradient-147)" stroke-miterlimit="10" points="1200.052 487.996 1200.052 589.55 1171.227 606.52 1017.462 697.045 988.638 714.005 959.813 697.034 806.079 606.52 777.254 589.539 777.254 546.764 600.052 546.764"/><polyline fill="none" stroke="url(#linear-gradient-148)" stroke-miterlimit="10" points="1200.052 474.942 1200.052 576.496 1171.227 593.467 1017.462 683.991 988.638 700.951 959.813 683.981 806.079 593.467 777.254 576.485 777.254 533.71 600.052 533.71"/><polyline fill="none" stroke="url(#linear-gradient-149)" stroke-miterlimit="10" points="1200.052 461.888 1200.052 563.442 1171.227 580.413 1017.462 670.937 988.638 687.898 959.813 670.927 806.079 580.413 777.254 563.432 777.254 520.656 600.052 520.656"/><polyline fill="none" stroke="url(#linear-gradient-150)" stroke-miterlimit="10" points="1200.052 448.835 1200.052 550.389 1171.227 567.359 1017.462 657.884 988.638 674.844 959.813 657.873 806.079 567.359 777.254 550.378 777.254 507.603 600.052 507.603"/><polyline fill="none" stroke="url(#linear-gradient-151)" stroke-miterlimit="10" points="1200.052 435.781 1200.052 537.335 1171.227 554.306 1017.462 644.83 988.638 661.79 959.813 644.82 806.079 554.306 777.254 537.325 777.254 494.549 600.052 494.549"/><polyline fill="none" stroke="url(#linear-gradient-152)" stroke-miterlimit="10" points="1200.052 422.728 1200.052 524.281 1171.227 541.252 1017.462 631.776 988.638 648.737 959.813 631.766 806.079 541.252 777.254 524.271 777.254 481.495 600.052 481.495"/><polyline fill="none" stroke="url(#linear-gradient-153)" stroke-miterlimit="10" points="1200.052 409.674 1200.052 511.228 1171.227 528.198 1017.462 618.723 988.638 635.683 959.813 618.712 806.079 528.198 777.254 511.217 777.254 468.442 600.052 468.442"/><polyline fill="none" stroke="url(#linear-gradient-154)" stroke-miterlimit="10" points="1200.052 396.62 1200.052 498.174 1171.227 515.145 1017.462 605.669 988.638 622.629 959.813 605.659 806.079 515.145 777.254 498.164 777.254 455.388 600.052 455.388"/><polyline fill="none" stroke="url(#linear-gradient-155)" stroke-miterlimit="10" points="1200.052 383.567 1200.052 485.12 1171.227 502.091 1017.462 592.615 988.638 609.576 959.813 592.605 806.079 502.091 777.254 485.11 777.254 442.334 600.052 442.334"/><polyline fill="none" stroke="url(#linear-gradient-156)" stroke-miterlimit="10" points="1200.052 370.513 1200.052 472.067 1171.227 489.037 1017.462 579.562 988.638 596.522 959.813 579.551 806.079 489.037 777.254 472.056 777.254 429.281 600.052 429.281"/><polygon fill="url(#linear-gradient-157)" points="1200.052 429.281 1200.052 370.513 1434.903 370.513 1434.903 438.125 1588.638 528.639 1742.403 438.125 1742.403 370.513 1800.052 370.513 1800.052 472.067 1771.227 489.037 1617.462 579.562 1588.638 596.522 1559.813 579.551 1406.079 489.037 1377.254 472.056 1377.254 429.281 1200.052 429.281"/><polyline fill="none" stroke="url(#linear-gradient-158)" stroke-miterlimit="10" points="1800.052 515.294 1800.052 616.847 1771.227 633.818 1617.462 724.342 1588.638 741.303 1559.813 724.332 1406.079 633.818 1377.254 616.837 1377.254 574.061 1200.052 574.061"/><polyline fill="none" stroke="url(#linear-gradient-159)" stroke-miterlimit="10" points="1800.052 502.24 1800.052 603.794 1771.227 620.764 1617.462 711.289 1588.638 728.249 1559.813 711.278 1406.079 620.764 1377.254 603.783 1377.254 561.008 1200.052 561.008"/><polyline fill="none" stroke="url(#linear-gradient-160)" stroke-miterlimit="10" points="1800.052 489.186 1800.052 590.74 1771.227 607.711 1617.462 698.235 1588.638 715.195 1559.813 698.225 1406.079 607.711 1377.254 590.73 1377.254 547.954 1200.052 547.954"/><polyline fill="none" stroke="url(#linear-gradient-161)" stroke-miterlimit="10" points="1800.052 476.133 1800.052 577.686 1771.227 594.657 1617.462 685.181 1588.638 702.142 1559.813 685.171 1406.079 594.657 1377.254 577.676 1377.254 534.9 1200.052 534.9"/><polyline fill="none" stroke="url(#linear-gradient-162)" stroke-miterlimit="10" points="1800.052 463.079 1800.052 564.633 1771.227 581.603 1617.462 672.128 1588.638 689.088 1559.813 672.117 1406.079 581.603 1377.254 564.622 1377.254 521.847 1200.052 521.847"/><polyline fill="none" stroke="url(#linear-gradient-163)" stroke-miterlimit="10" points="1800.052 450.025 1800.052 551.579 1771.227 568.55 1617.462 659.074 1588.638 676.034 1559.813 659.064 1406.079 568.55 1377.254 551.569 1377.254 508.793 1200.052 508.793"/><polyline fill="none" stroke="url(#linear-gradient-164)" stroke-miterlimit="10" points="1800.052 436.972 1800.052 538.525 1771.227 555.496 1617.462 646.02 1588.638 662.981 1559.813 646.01 1406.079 555.496 1377.254 538.515 1377.254 495.739 1200.052 495.739"/><polyline fill="none" stroke="url(#linear-gradient-165)" stroke-miterlimit="10" points="1800.052 423.918 1800.052 525.472 1771.227 542.442 1617.462 632.967 1588.638 649.927 1559.813 632.956 1406.079 542.442 1377.254 525.461 1377.254 482.686 1200.052 482.686"/><polyline fill="none" stroke="url(#linear-gradient-166)" stroke-miterlimit="10" points="1800.052 410.864 1800.052 512.418 1771.227 529.389 1617.462 619.913 1588.638 636.873 1559.813 619.903 1406.079 529.389 1377.254 512.408 1377.254 469.632 1200.052 469.632"/><polyline fill="none" stroke="url(#linear-gradient-167)" stroke-miterlimit="10" points="1800.052 397.811 1800.052 499.364 1771.227 516.335 1617.462 606.859 1588.638 623.82 1559.813 606.849 1406.079 516.335 1377.254 499.354 1377.254 456.578 1200.052 456.578"/><polyline fill="none" stroke="url(#linear-gradient-168)" stroke-miterlimit="10" points="1800.052 384.757 1800.052 486.311 1771.227 503.281 1617.462 593.806 1588.638 610.766 1559.813 593.795 1406.079 503.281 1377.254 486.3 1377.254 443.525 1200.052 443.525"/><polyline fill="none" stroke="url(#linear-gradient-169)" stroke-miterlimit="10" points="1800.052 371.703 1800.052 473.257 1771.227 490.228 1617.462 580.752 1588.638 597.712 1559.813 580.742 1406.079 490.228 1377.254 473.247 1377.254 430.471 1200.052 430.471"/><polygon fill="url(#linear-gradient-170)" points="1800.052 430.471 1800.052 371.703 2034.903 371.703 2034.903 439.315 2188.638 529.829 2342.403 439.315 2342.403 371.703 2400.052 371.703 2400.052 473.257 2371.227 490.228 2217.462 580.752 2188.638 597.712 2159.813 580.742 2006.079 490.228 1977.254 473.247 1977.254 430.471 1800.052 430.471"/><polyline fill="none" stroke="url(#linear-gradient-171)" stroke-miterlimit="10" points="2400.052 516.484 2400.052 618.038 2371.227 635.008 2217.462 725.533 2188.638 742.493 2159.813 725.522 2006.079 635.008 1977.254 618.027 1977.254 575.252 1800.052 575.252"/><polyline fill="none" stroke="url(#linear-gradient-172)" stroke-miterlimit="10" points="2400.052 503.43 2400.052 604.984 2371.227 621.955 2217.462 712.479 2188.638 729.439 2159.813 712.469 2006.079 621.955 1977.254 604.974 1977.254 562.198 1800.052 562.198"/><polyline fill="none" stroke="url(#linear-gradient-173)" stroke-miterlimit="10" points="2400.052 490.377 2400.052 591.93 2371.227 608.901 2217.462 699.425 2188.638 716.386 2159.813 699.415 2006.079 608.901 1977.254 591.92 1977.254 549.144 1800.052 549.144"/><polyline fill="none" stroke="url(#linear-gradient-174)" stroke-miterlimit="10" points="2400.052 477.323 2400.052 578.877 2371.227 595.847 2217.462 686.372 2188.638 703.332 2159.813 686.361 2006.079 595.847 1977.254 578.866 1977.254 536.091 1800.052 536.091"/><polyline fill="none" stroke="url(#linear-gradient-175)" stroke-miterlimit="10" points="2400.052 464.269 2400.052 565.823 2371.227 582.794 2217.462 673.318 2188.638 690.278 2159.813 673.308 2006.079 582.794 1977.254 565.813 1977.254 523.037 1800.052 523.037"/><polyline fill="none" stroke="url(#linear-gradient-176)" stroke-miterlimit="10" points="2400.052 451.216 2400.052 552.769 2371.227 569.74 2217.462 660.264 2188.638 677.225 2159.813 660.254 2006.079 569.74 1977.254 552.759 1977.254 509.983 1800.052 509.983"/><polyline fill="none" stroke="url(#linear-gradient-177)" stroke-miterlimit="10" points="2400.052 438.162 2400.052 539.716 2371.227 556.686 2217.462 647.211 2188.638 664.171 2159.813 647.2 2006.079 556.686 1977.254 539.705 1977.254 496.93 1800.052 496.93"/><polyline fill="none" stroke="url(#linear-gradient-178)" stroke-miterlimit="10" points="2400.052 425.108 2400.052 526.662 2371.227 543.633 2217.462 634.157 2188.638 651.117 2159.813 634.147 2006.079 543.633 1977.254 526.652 1977.254 483.876 1800.052 483.876"/><polyline fill="none" stroke="url(#linear-gradient-179)" stroke-miterlimit="10" points="2400.052 412.055 2400.052 513.608 2371.227 530.579 2217.462 621.103 2188.638 638.064 2159.813 621.093 2006.079 530.579 1977.254 513.598 1977.254 470.823 1800.052 470.823"/><polyline fill="none" stroke="url(#linear-gradient-180)" stroke-miterlimit="10" points="2400.052 399.001 2400.052 500.555 2371.227 517.525 2217.462 608.05 2188.638 625.01 2159.813 608.039 2006.079 517.525 1977.254 500.544 1977.254 457.769 1800.052 457.769"/><polyline fill="none" stroke="url(#linear-gradient-181)" stroke-miterlimit="10" points="2400.052 385.947 2400.052 487.501 2371.227 504.472 2217.462 594.996 2188.638 611.956 2159.813 594.986 2006.079 504.472 1977.254 487.491 1977.254 444.715 1800.052 444.715"/><polyline fill="none" stroke="url(#linear-gradient-182)" stroke-miterlimit="10" points="2400.052 372.894 2400.052 474.447 2371.227 491.418 2217.462 581.942 2188.638 598.903 2159.813 581.932 2006.079 491.418 1977.254 474.437 1977.254 431.662 1800.052 431.662"/><polygon fill="url(#linear-gradient-183)" points="2400.052 430.471 2400.052 371.703 2634.903 371.703 2634.903 439.315 2788.638 529.829 2942.403 439.315 2942.403 371.703 3000.052 371.703 3000.052 473.257 2971.227 490.228 2817.462 580.752 2788.638 597.712 2759.813 580.742 2606.079 490.228 2577.254 473.247 2577.254 430.471 2400.052 430.471"/><polyline fill="none" stroke="url(#linear-gradient-184)" stroke-miterlimit="10" points="3000.052 516.484 3000.052 618.038 2971.227 635.008 2817.462 725.533 2788.638 742.493 2759.813 725.522 2606.079 635.008 2577.254 618.027 2577.254 575.252 2400.052 575.252"/><polyline fill="none" stroke="url(#linear-gradient-185)" stroke-miterlimit="10" points="3000.052 503.43 3000.052 604.984 2971.227 621.955 2817.462 712.479 2788.638 729.439 2759.813 712.469 2606.079 621.955 2577.254 604.974 2577.254 562.198 2400.052 562.198"/><polyline fill="none" stroke="url(#linear-gradient-186)" stroke-miterlimit="10" points="3000.052 490.377 3000.052 591.93 2971.227 608.901 2817.462 699.425 2788.638 716.386 2759.813 699.415 2606.079 608.901 2577.254 591.92 2577.254 549.144 2400.052 549.144"/><polyline fill="none" stroke="url(#linear-gradient-187)" stroke-miterlimit="10" points="3000.052 477.323 3000.052 578.877 2971.227 595.847 2817.462 686.372 2788.638 703.332 2759.813 686.361 2606.079 595.847 2577.254 578.866 2577.254 536.091 2400.052 536.091"/><polyline fill="none" stroke="url(#linear-gradient-188)" stroke-miterlimit="10" points="3000.052 464.269 3000.052 565.823 2971.227 582.794 2817.462 673.318 2788.638 690.278 2759.813 673.308 2606.079 582.794 2577.254 565.813 2577.254 523.037 2400.052 523.037"/><polyline fill="none" stroke="url(#linear-gradient-189)" stroke-miterlimit="10" points="3000.052 451.216 3000.052 552.769 2971.227 569.74 2817.462 660.264 2788.638 677.225 2759.813 660.254 2606.079 569.74 2577.254 552.759 2577.254 509.983 2400.052 509.983"/><polyline fill="none" stroke="url(#linear-gradient-190)" stroke-miterlimit="10" points="3000.052 438.162 3000.052 539.716 2971.227 556.686 2817.462 647.211 2788.638 664.171 2759.813 647.2 2606.079 556.686 2577.254 539.705 2577.254 496.93 2400.052 496.93"/><polyline fill="none" stroke="url(#linear-gradient-191)" stroke-miterlimit="10" points="3000.052 425.108 3000.052 526.662 2971.227 543.633 2817.462 634.157 2788.638 651.117 2759.813 634.147 2606.079 543.633 2577.254 526.652 2577.254 483.876 2400.052 483.876"/><polyline fill="none" stroke="url(#linear-gradient-192)" stroke-miterlimit="10" points="3000.052 412.055 3000.052 513.608 2971.227 530.579 2817.462 621.103 2788.638 638.064 2759.813 621.093 2606.079 530.579 2577.254 513.598 2577.254 470.823 2400.052 470.823"/><polyline fill="none" stroke="url(#linear-gradient-193)" stroke-miterlimit="10" points="3000.052 399.001 3000.052 500.555 2971.227 517.525 2817.462 608.05 2788.638 625.01 2759.813 608.039 2606.079 517.525 2577.254 500.544 2577.254 457.769 2400.052 457.769"/><polyline fill="none" stroke="url(#linear-gradient-194)" stroke-miterlimit="10" points="3000.052 385.947 3000.052 487.501 2971.227 504.472 2817.462 594.996 2788.638 611.956 2759.813 594.986 2606.079 504.472 2577.254 487.491 2577.254 444.715 2400.052 444.715"/><polyline fill="none" stroke="url(#linear-gradient-195)" stroke-miterlimit="10" points="3000.052 372.894 3000.052 474.447 2971.227 491.418 2817.462 581.942 2788.638 598.903 2759.813 581.932 2606.079 491.418 2577.254 474.437 2577.254 431.662 2400.052 431.662"/></g></svg>