<svg xmlns="http://www.w3.org/2000/svg" id="Layer_1" data-name="Layer 1" viewBox="0 0 3000 1112"><title>h5</title><g id="v2"><rect width="2999.61" height="1112" x="3.107" y="-.974" fill="#ffce08"/><g opacity=".33"><polygon fill="#bf9e13" points="2616.96 175.984 2338.614 175.984 2199.44 417.039 2338.614 658.094 2616.96 658.094 2756.133 417.039 2616.96 175.984"/><polygon fill="#bf9e13" points="1660.48 638.991 1461.151 638.991 1361.487 811.615 1461.151 984.238 1660.48 984.238 1760.144 811.615 1660.48 638.991"/><polygon fill="#bf9e13" points="824.313 875.105 691.26 875.105 624.734 990.332 691.26 1105.559 824.313 1105.559 890.84 990.332 824.313 875.105"/><polygon fill="#bf9e13" points="513.993 113.238 233.581 113.238 93.375 356.081 233.581 598.925 513.993 598.925 654.198 356.081 513.993 113.238"/><polygon fill="#bf9e13" points="1720.027 136.026 1622.197 305.466 1426.537 305.466 1328.707 136.026 1407.807 -.974 1640.927 -.974 1720.027 136.026"/><polygon fill="#bf9e13" points="1071.878 504.817 947.695 504.817 885.604 612.362 947.695 719.907 1071.878 719.907 1133.969 612.362 1071.878 504.817"/><polygon fill="#bf9e13" points="384.979 892.031 278.508 892.031 225.272 984.238 278.508 1076.446 384.979 1076.446 438.215 984.238 384.979 892.031"/><polygon fill="#bf9e13" points="2290.364 857.744 2209.21 857.744 2168.632 928.026 2209.21 998.308 2290.364 998.308 2330.941 928.026 2290.364 857.744"/><polygon fill="#bf9e13" points="3002.717 802.116 3002.717 1111.026 2712.577 1111.026 2658.087 1016.636 2781.937 802.116 3002.717 802.116"/><polygon fill="#bf9e13" points="2184.587 -.974 2201.327 28.026 2171.057 80.456 2110.517 80.456 2080.247 28.026 2096.987 -.974 2184.587 -.974"/><polygon fill="#bf9e13" points="2125.974 541.023 2025.513 541.023 1975.282 628.026 2025.513 715.028 2125.974 715.028 2176.205 628.026 2125.974 541.023"/><polygon fill="#bf9e13" points="1358.187 -.974 1248.477 189.036 947.097 189.036 837.387 -.974 1358.187 -.974"/><polygon fill="#bf9e13" points="3002.717 -.974 3002.717 301.646 2856.667 301.646 2712.547 52.026 2743.147 -.974 3002.717 -.974"/><polygon fill="#bf9e13" points="2888.489 487.992 2811.085 487.992 2772.382 555.026 2811.085 622.06 2888.489 622.06 2927.191 555.026 2888.489 487.992"/></g><polygon fill="#fff" points="1634.402 478.547 1657.189 523.439 1639.899 596.855 1598.724 563.216 1605.94 509.366 1634.402 478.547"/><path fill="#2c0096" d="M1573.5756,463.5049a8.5834,8.5834,0,0,1-8.5825-8.5825V387.2777a8.5825,8.5825,0,0,1,17.1649,0v67.6447A8.5834,8.5834,0,0,1,1573.5756,463.5049Z"/><path fill="#15003e" d="M1587.3438,463.5049h-26.5276a8.5825,8.5825,0,1,1,0-17.1649h26.5276a8.5825,8.5825,0,0,1,0,17.1649Z"/><path fill="#fff" d="M1634.4022,478.5475l28.2012-26.58A119.2516,119.2516,0,1,0,1578.28,655.5423c24.5492,0,46.14,8.9619,65.1045-3.7549l23.6019,3.2658-.6751-38.316-67.5867-53.5215h0l14.53-68.4348,21.1476-16.2334"/><path fill="#2c0096" d="M1578.28,667.2452c-72.2087,0-130.9556-58.7453-130.9556-130.954s58.7469-130.9556,130.9556-130.9556a130.0926,130.0926,0,0,1,92.6,38.3574l8.523,8.523L1642.43,487.064,1626.3748,470.03l18.9447-17.8537a107.5539,107.5539,0,1,0-67.04,191.6621"/><path fill="#0fce7c" d="M1644.0121,599.9754l-16.8114-16.2872a68.1152,68.1152,0,0,0-1.466-96.2615l-8.7683-8.517,9.4038-8.875,8.011,8.49,7.662-7.8876a91.5228,91.5228,0,0,1,1.9689,129.3388Z"/><circle cx="1578.28" cy="536.291" r="26.925" fill="#eff4ee"/><path fill="#2c0096" d="M1578.28,574.9183a38.6279,38.6279,0,1,1,38.6287-38.6271A38.672,38.672,0,0,1,1578.28,574.9183Zm0-53.8491a15.2212,15.2212,0,1,0,15.222,15.222A15.2392,15.2392,0,0,0,1578.28,521.0692Z"/><line x1="1662.603" x2="1594.553" y1="451.967" y2="514.843" fill="#15003e"/><rect width="92.65" height="23.407" x="1582.253" y="471.702" fill="#2c0096" transform="translate(104.3624 1233.5476) rotate(-42.7364)"/><polyline fill="#fff" points="1590.984 560.034 1639.899 596.855 1666.311 616.737 1666.986 655.053 1613.255 664.69"/><polygon fill="#2c0096" points="1678.014 667.246 1576.154 667.246 1576.154 643.839 1654.608 643.839 1654.608 622.576 1583.946 569.385 1598.023 550.684 1678.014 610.897 1678.014 667.246"/><rect width="13.267" height="13.267" x="1689.066" y="387.083" fill="#25e899" transform="translate(218.2589 1314.3577) rotate(-45)"/><rect width="6.343" height="6.343" x="1647.307" y="345.325" fill="#25e899" transform="translate(236.99 1269.1368) rotate(-45)"/><circle cx="1694.787" cy="309.117" r="6.762" fill="#25e899"/><path fill="#2c0096" d="M1532.9507,487.13a8.5834,8.5834,0,0,1-8.5825-8.5824V387.2777a8.5825,8.5825,0,0,1,17.1649,0v91.2694A8.5833,8.5833,0,0,1,1532.9507,487.13Z"/><polygon fill="#a38814" points="2664.787 812.615 2599.744 925.273 2729.83 925.273 2664.787 812.615"/><polygon fill="#a38814" points="1304.787 850.167 1239.744 962.826 1369.83 962.826 1304.787 850.167"/><polygon fill="#a38814" points="2140.787 260.549 2075.744 373.208 2205.83 373.208 2140.787 260.549"/><polygon fill="#a38814" points="2888.787 147.891 2823.744 260.549 2953.83 260.549 2888.787 147.891"/><polygon fill="#a38814" points="396.787 793.838 331.744 906.497 461.83 906.497 396.787 793.838"/><polygon fill="#a38814" points="986.873 247.026 921.83 359.684 1051.917 359.684 986.873 247.026"/><polygon fill="#a38814" points="194.939 104.544 129.896 217.202 259.983 217.202 194.939 104.544"/><polygon fill="#f9006c" points="2641.787 811.615 2576.744 924.273 2706.83 924.273 2641.787 811.615"/><polygon fill="#f9006c" points="1281.787 849.167 1216.744 961.826 1346.83 961.826 1281.787 849.167"/><polygon fill="#f9006c" points="2117.787 259.549 2052.744 372.208 2182.83 372.208 2117.787 259.549"/><polygon fill="#f9006c" points="2865.787 146.891 2800.744 259.549 2930.83 259.549 2865.787 146.891"/><polygon fill="#f9006c" points="373.787 792.838 308.744 905.497 438.83 905.497 373.787 792.838"/><polygon fill="#f9006c" points="963.873 246.026 898.83 358.684 1028.917 358.684 963.873 246.026"/><polygon fill="#f9006c" points="171.939 103.544 106.896 216.202 236.983 216.202 171.939 103.544"/><line x1="2448.787" x2="2448.787" y1="146.891" y2="478.548" fill="none" stroke="#bf9e13" stroke-miterlimit="10" stroke-width="14"/><line x1="1908.787" x2="1908.787" y1="103.544" y2="417.039" fill="none" stroke="#bf9e13" stroke-miterlimit="10" stroke-width="14"/><line x1="1223.744" x2="1223.744" y1="599.975" y2="756.026" fill="none" stroke="#bf9e13" stroke-miterlimit="10" stroke-width="14"/><line x1="2124.787" x2="2124.787" y1="720.026" y2="867.944" fill="none" stroke="#bf9e13" stroke-miterlimit="10" stroke-width="14"/><line x1="2912.787" x2="2912.787" y1="640.026" y2="720.026" fill="none" stroke="#bf9e13" stroke-miterlimit="10" stroke-width="14"/><line x1="704.787" x2="704.787" y1="159.873" y2="259.549" fill="none" stroke="#bf9e13" stroke-miterlimit="10" stroke-width="14"/><line x1="676.787" x2="676.787" y1="596.855" y2="961.826" fill="none" stroke="#bf9e13" stroke-miterlimit="10" stroke-width="14"/><line x1="243.983" x2="243.983" y1="463.505" y2="640.026" fill="none" stroke="#bf9e13" stroke-miterlimit="10" stroke-width="14"/><line x1="1454.324" x2="1454.324" y1="44.026" y2="146.891" fill="none" stroke="#bf9e13" stroke-miterlimit="10" stroke-width="14"/><line x1="2059.744" x2="2059.744" y1="849.168" y2="924.273" fill="none" stroke="#bf9e13" stroke-miterlimit="10" stroke-width="14"/><line x1="2441.787" x2="2441.787" y1="146.891" y2="478.548" fill="none" stroke="#150066" stroke-linecap="round" stroke-linejoin="round" stroke-width="11"/><line x1="1901.787" x2="1901.787" y1="103.544" y2="417.039" fill="none" stroke="#150066" stroke-linecap="round" stroke-linejoin="round" stroke-width="11"/><line x1="1216.744" x2="1216.744" y1="599.975" y2="756.026" fill="none" stroke="#150066" stroke-linecap="round" stroke-linejoin="round" stroke-width="11"/><line x1="2117.787" x2="2117.787" y1="720.026" y2="867.944" fill="none" stroke="#150066" stroke-linecap="round" stroke-linejoin="round" stroke-width="11"/><line x1="2905.787" x2="2905.787" y1="640.026" y2="720.026" fill="none" stroke="#150066" stroke-linecap="round" stroke-linejoin="round" stroke-width="11"/><line x1="697.787" x2="697.787" y1="159.873" y2="259.549" fill="none" stroke="#150066" stroke-linecap="round" stroke-linejoin="round" stroke-width="11"/><line x1="669.787" x2="669.787" y1="596.855" y2="961.826" fill="none" stroke="#150066" stroke-linecap="round" stroke-linejoin="round" stroke-width="11"/><line x1="236.983" x2="236.983" y1="463.505" y2="640.026" fill="none" stroke="#150066" stroke-linecap="round" stroke-linejoin="round" stroke-width="11"/><line x1="1447.324" x2="1447.324" y1="44.026" y2="146.891" fill="none" stroke="#150066" stroke-linecap="round" stroke-linejoin="round" stroke-width="11"/><line x1="2052.744" x2="2052.744" y1="849.168" y2="924.273" fill="none" stroke="#150066" stroke-linecap="round" stroke-linejoin="round" stroke-width="11"/><line x1="2681.787" x2="2681.787" y1="116.026" y2="204.389" fill="none" stroke="#f9006c" stroke-linecap="round" stroke-linejoin="round" stroke-width="11"/><line x1="2633.787" x2="2633.787" y1="428.026" y2="460.026" fill="none" stroke="#f9006c" stroke-linecap="round" stroke-linejoin="round" stroke-width="11"/><line x1="1257.787" x2="1257.787" y1="320.026" y2="392.137" fill="none" stroke="#f9006c" stroke-linecap="round" stroke-linejoin="round" stroke-width="11"/><line x1="913.787" x2="913.787" y1="604.026" y2="652.026" fill="none" stroke="#f9006c" stroke-linecap="round" stroke-linejoin="round" stroke-width="11"/><line x1="565.787" x2="565.787" y1="452.026" y2="508.168" fill="none" stroke="#f9006c" stroke-linecap="round" stroke-linejoin="round" stroke-width="11"/><line x1="1849.787" x2="1849.787" y1="964.026" y2="1016.638" fill="none" stroke="#f9006c" stroke-linecap="round" stroke-linejoin="round" stroke-width="11"/><line x1="2477.787" x2="2477.787" y1="908.026" y2="920.675" fill="none" stroke="#f9006c" stroke-linecap="round" stroke-linejoin="round" stroke-width="11"/><line x1="2325.787" x2="2325.787" y1="92.026" y2="132.026" fill="none" stroke="#f9006c" stroke-linecap="round" stroke-linejoin="round" stroke-width="11"/><line x1="869.787" x2="869.787" y1="52.026" y2="116.026" fill="none" stroke="#0fce7c" stroke-linecap="round" stroke-linejoin="round" stroke-width="11"/><line x1="1549.787" x2="1549.787" y1="256.026" y2="304.026" fill="none" stroke="#0fce7c" stroke-linecap="round" stroke-linejoin="round" stroke-width="11"/><line x1="2393.787" x2="2393.787" y1="532.026" y2="576.207" fill="none" stroke="#0fce7c" stroke-linecap="round" stroke-linejoin="round" stroke-width="11"/><line x1="2017.787" x2="2017.787" y1="608.026" y2="644.026" fill="none" stroke="#0fce7c" stroke-linecap="round" stroke-linejoin="round" stroke-width="11"/><line x1="1593.787" x2="1593.787" y1="884.026" y2="928.026" fill="none" stroke="#0fce7c" stroke-linecap="round" stroke-linejoin="round" stroke-width="11"/><line x1="909.787" x2="909.787" y1="840.026" y2="876.247" fill="none" stroke="#0fce7c" stroke-linecap="round" stroke-linejoin="round" stroke-width="11"/><line x1="421.787" x2="421.787" y1="120.026" y2="152.026" fill="none" stroke="#0fce7c" stroke-linecap="round" stroke-linejoin="round" stroke-width="11"/><line x1="109.787" x2="109.787" y1="764.026" y2="792.31" fill="none" stroke="#0fce7c" stroke-linecap="round" stroke-linejoin="round" stroke-width="11"/><line x1="2901.787" x2="2901.787" y1="388.026" y2="424.247" fill="none" stroke="#0fce7c" stroke-linecap="round" stroke-linejoin="round" stroke-width="11"/></g></svg>