<svg xmlns="http://www.w3.org/2000/svg" id="Layer_1" data-name="Layer 1" viewBox="0 0 3000 1112"><title>h6</title><g id="v2"><rect width="2999.61" height="1112" x="5.32" y="6" fill="#050505"/><polygon fill="#fff" points="2632 378 2632 6 3004 6 2632 378"/><rect width="372" height="372" x="2261" y="377" fill="#545454"/><polygon fill="#fff" points="2447 570 2261 377 2633 377 2447 570"/><rect width="372" height="372" x="2261" y="6" fill="#c4c4c4"/><path fill="#4f4f4f" d="M2261,6h372a0,0,0,0,1,0,0V6a372,372,0,0,1-372,372h0a0,0,0,0,1,0,0V6A0,0,0,0,1,2261,6Z"/><rect width="372" height="372" x="2632" y="377" fill="#fff"/><path fill="#c4c4c4" d="M2677.24,467.479,2632,377h372l-45.24,90.479C2900.764,583.472,2735.236,583.472,2677.24,467.479Z"/><path fill="#c4c4c4" d="M2677.24,656.9948,2632,747.4737h372l-45.24-90.4789C2900.764,541.0017,2735.236,541.0017,2677.24,656.9948Z"/><polygon fill="#fff" stroke="#c7c7c7" stroke-miterlimit="10" stroke-width="7" points="2732.487 513.629 2732.487 612.371 2818 661.742 2903.513 612.371 2903.513 513.629 2818 464.258 2732.487 513.629"/><polygon fill="#a1a1a1" points="2765.632 574.55 2862.055 574.55 2870.226 577.668 2864.08 599.672 2771.7 599.672 2765.632 574.55"/><path fill="#f4f4f4" stroke="#000" stroke-linecap="round" stroke-miterlimit="10" stroke-width="6" d="M2851.0216,626.87h-66.2625A13.0588,13.0588,0,0,1,2771.7,613.8107V599.6724h92.38v14.1383A13.0588,13.0588,0,0,1,2851.0216,626.87Z"/><path fill="#858585" d="M2800.9541,574.55a41.1836,41.1836,0,0,1-15.23-63.902c7.5513-9.15,55.055-9.6151,62.5977-1.1a41.1823,41.1823,0,0,1-14.2853,65.0008"/><path fill="none" stroke="#000" stroke-linecap="round" stroke-miterlimit="10" stroke-width="6" d="M2798.3521,574.5479a43.0764,43.0764,0,0,1-17.4722-61.9213"/><path fill="none" stroke="#000" stroke-linecap="round" stroke-miterlimit="10" stroke-width="6" d="M2851.8962,510.363a43.07,43.07,0,0,1-15.473,63.9647"/><path fill="none" stroke="#000" stroke-linecap="round" stroke-miterlimit="10" stroke-width="6" d="M2756.576,540.1316a61.3144,61.3144,0,1,1,122.6288,0L2864.08,599.6724H2771.7Z"/><line x1="2756.576" x2="2756.576" y1="539.245" y2="480.892" fill="none" stroke="#000" stroke-linecap="round" stroke-miterlimit="10" stroke-width="6"/><line x1="2879.205" x2="2879.205" y1="539.245" y2="464.416" fill="none" stroke="#000" stroke-linecap="round" stroke-miterlimit="10" stroke-width="6"/><path fill="none" stroke="#000" stroke-linecap="round" stroke-miterlimit="10" stroke-width="6" d="M2761.3519,565.454h-6.33a9.3378,9.3378,0,0,1-9.31-9.31V532.4985a9.3378,9.3378,0,0,1,9.31-9.31h2.6841"/><path fill="none" stroke="#000" stroke-linecap="round" stroke-miterlimit="10" stroke-width="6" d="M2874.6481,565.454h6.33a9.3378,9.3378,0,0,0,9.31-9.31V532.4985a9.3378,9.3378,0,0,0-9.31-9.31h-2.6841"/><path fill="none" stroke="#000" stroke-linecap="round" stroke-miterlimit="10" stroke-width="6" d="M2757.2357,529.8756a85.6743,85.6743,0,0,1,120.6238-2.583"/><line x1="2765.632" x2="2870.226" y1="574.546" y2="574.546" fill="none" stroke="#000" stroke-linecap="round" stroke-miterlimit="10" stroke-width="6"/><circle cx="2828.669" cy="523.188" r="10.74" fill="#fff"/><circle cx="2842.741" cy="539.245" r="4.343" fill="#fff"/><path fill="none" stroke="#000" stroke-linecap="round" stroke-miterlimit="10" stroke-width="6" d="M2854.9783,591.11c-5.29,0-5.29-8-10.5807-8s-5.29,8-10.5808,8-5.2918-8-10.5836-8c-5.2936,0-5.2936,8-10.5872,8-5.292,0-5.292-8-10.5839-8-5.2956,0-5.2956,8-10.5912,8s-5.2956-8-10.5911-8"/><rect width="372" height="372" x="2261" y="747" fill="#fff"/><polygon fill="#f4f4f4" points="749 749 749 377 1121 377 749 749"/><rect width="372" height="372" x="749" y="6"/><rect width="186" height="186" x="750" y="6" fill="#121212"/><rect width="186" height="186" x="749" y="192" fill="#c4c4c4"/><path fill="#858585" d="M934,6h186a0,0,0,0,1,0,0V6A186,186,0,0,1,934,192h0a0,0,0,0,1,0,0V6A0,0,0,0,1,934,6Z"/><rect width="186" height="186" x="934" y="192" fill="#121212"/><polygon fill="#c4c4c4" points="749 1119 749 747 1121 747 749 1119"/><polygon fill="#4d4d4d" points="1121 1119 749 1119 1121 747 1121 1119"/><rect width="372" height="372" x="1517" y="747" fill="#858585"/><path d="M1889,747h0a0,0,0,0,1,0,0v372a0,0,0,0,1,0,0H1517a0,0,0,0,1,0,0v0A372,372,0,0,1,1889,747Z"/><circle cx="926" cy="960.947" r="94.5" fill="#f4f4f4"/><rect width="396" height="372" x="1120" y="747"/><polygon fill="#4d4d4d" points="751 378 379 378 751 6 751 378"/><rect width="183.355" height="183.355" x="379.645" y="7.323" fill="#f4f4f4"/><rect width="372" height="372" x="379" y="747" fill="#4f4f4f"/><rect width="372" height="372" x="8" y="377" fill="#1a1a1a"/><rect width="139.812" height="139.812" x="8" y="378.673" fill="#4f4f4f"/><rect width="139.812" height="139.812" x="147.812" y="518.485" fill="#575757"/><rect width="372" height="372" x="8" y="6" fill="#a1a1a1"/><rect width="26.999" height="326.984" x="34.107" y="26.617" fill="#121212"/><rect width="26.999" height="326.984" x="86.604" y="28.508"/><rect width="26.999" height="326.984" x="140.601" y="28.508" fill="#121212"/><rect width="26.999" height="187.792" x="253.605" y="3.213" fill="#050505" transform="translate(364.2132 -169.9951) rotate(90)"/><rect width="26.999" height="187.792" x="253.605" y="65.213" fill="#121212" transform="translate(426.2132 -107.9951) rotate(90)"/><rect width="26.999" height="187.792" x="253.605" y="127.213" fill="#050505" transform="translate(488.2132 -45.9951) rotate(90)"/><rect width="26.999" height="187.792" x="253.605" y="189.213" fill="#121212" transform="translate(550.2132 16.0049) rotate(90)"/><rect width="372" height="372" x="8" y="747" fill="#575757"/><rect width="252.998" height="252.998" x="2320.501" y="806.501"/><rect width="372" height="372" x="2632" y="747" fill="#4f4f4f"/><circle cx="2712.78" cy="840.327" r="23.249" fill="#a1a1a1"/><circle cx="2809.48" cy="840.327" r="23.249" fill="#a1a1a1"/><circle cx="2913.537" cy="840.327" r="23.249" fill="#a1a1a1"/><circle cx="2712.78" cy="941.327" r="23.249" fill="#a1a1a1"/><circle cx="2809.48" cy="941.327" r="23.249" fill="#c4c4c4"/><circle cx="2913.537" cy="941.327" r="23.249" fill="#a1a1a1"/><circle cx="2711.102" cy="1042.326" r="23.249" fill="#a1a1a1"/><circle cx="2807.802" cy="1042.326" r="23.249" fill="#a1a1a1"/><circle cx="2911.859" cy="1042.326" r="23.249" fill="#a1a1a1"/><circle cx="194" cy="960.947" r="131.555" fill="#a1a1a1"/><rect width="186" height="186" x="1121" y="380.5" fill="#121212"/><rect width="397" height="186" x="1120" y="192" fill="#575757"/><path fill="#050505" d="M1120,192h304a93,93,0,0,1,93,93v0a93,93,0,0,1-93,93H1120a0,0,0,0,1,0,0V192A0,0,0,0,1,1120,192Z"/><path fill="#c4c4c4" d="M1409,536h0a66,66,0,0,1-66-66v0a66,66,0,0,1,66-66h0"/><path fill="#c4c4c4" d="M1120,932.5h198a0,0,0,0,1,0,0v186a0,0,0,0,1,0,0h-12a186,186,0,0,1-186-186v0A0,0,0,0,1,1120,932.5Z"/><path fill="#545454" d="M1504,933.7373h10.5a0,0,0,0,1,0,0v186a0,0,0,0,1,0,0H1318a0,0,0,0,1,0,0v0A186,186,0,0,1,1504,933.7373Z"/><path fill="#242424" d="M1504,746.5h13a0,0,0,0,1,0,0v0a186,186,0,0,1-186,186h-13a0,0,0,0,1,0,0v0A186,186,0,0,1,1504,746.5Z"/><path fill="#a1a1a1" d="M1213,933l-93-186h0c85.4549,0,141.0347,89.93,102.8182,166.3633Z"/><rect width="186" height="184.109" x="2075" y="193.446" fill="#4d4d4d"/><rect width="186" height="371.555" x="1889" y="6" fill="#575757"/><rect width="186" height="187.901" x="1889" y="559.208" fill="#1a1a1a"/><rect width="187" height="184.109" x="1120" y="562.154" fill="#4d4d4d"/><rect width="186" height="186" x="1121" y="6" fill="#4d4d4d"/><path fill="#4f4f4f" d="M2070.208,378H2075a0,0,0,0,1,0,0v0a181.208,181.208,0,0,1-181.208,181.208H1889a0,0,0,0,1,0,0v0A181.208,181.208,0,0,1,2070.208,378Z"/><path fill="#f4f4f4" d="M2075,6h0a186,186,0,0,1,186,186v0a0,0,0,0,1,0,0H2075a0,0,0,0,1,0,0V6A0,0,0,0,1,2075,6Z"/><path fill="#c4c4c4" d="M2189.5266,536.5h0a66,66,0,0,1-66-66v0a66,66,0,0,1,66-66h0"/><path fill="#121212" d="M2075,559.2082h186a0,0,0,0,1,0,0v0a186,186,0,0,1-186,186h0a0,0,0,0,1,0,0v-186A0,0,0,0,1,2075,559.2082Z"/><rect width="372" height="372" x="1889" y="747" fill="#c4c4c4"/><rect width="372" height="372" x="1517" y="376.086" fill="#f4f4f4"/><rect width="372" height="372" x="1517" y="5.677" fill="#a1a1a1"/><path fill="#1a1a1a" d="M1517,5.6774h0a372,372,0,0,1,372,372v0a0,0,0,0,1,0,0H1517a0,0,0,0,1,0,0v-372A0,0,0,0,1,1517,5.6774Z"/><path fill="#121212" d="M1703,376.0864h0a186,186,0,0,1,186,186v186a0,0,0,0,1,0,0H1703a186,186,0,0,1-186-186v0A186,186,0,0,1,1703,376.0864Z"/><polygon fill="#575757" points="1993.473 764.668 1911.946 905.877 2075 905.877 1993.473 764.668"/><polygon fill="#fff" points="2250.666 858.807 2109.457 777.281 2109.457 940.334 2250.666 858.807"/><polygon fill="#575757" points="1899.334 1027.139 2040.543 1108.666 2040.543 945.612 1899.334 1027.139"/><polygon fill="#575757" points="2156.527 933 2075 1074.209 2238.054 1074.209 2156.527 933"/><polygon fill="#fff" points="629.449 521.791 652.236 566.682 634.946 640.099 593.771 606.459 600.987 552.609 629.449 521.791"/><path fill="#121212" d="M568.6226,506.7482a8.5834,8.5834,0,0,1-8.5824-8.5825V430.521a8.5825,8.5825,0,1,1,17.1649,0v67.6447A8.5834,8.5834,0,0,1,568.6226,506.7482Z"/><path d="M582.3908,506.7482H555.8632a8.5825,8.5825,0,0,1,0-17.1649h26.5276a8.5825,8.5825,0,1,1,0,17.1649Z"/><path fill="#fff" d="M629.4492,521.7907,657.65,495.21a119.2516,119.2516,0,1,0-84.3236,203.5752c24.5492,0,46.14,8.9618,65.1045-3.7549l23.6018,3.2657-.6751-38.316L593.7714,606.459h0l14.53-68.4348,21.1476-16.2335"/><path fill="#121212" d="M573.3268,710.4885c-72.2087,0-130.9556-58.7453-130.9556-130.9541s58.7469-130.9555,130.9556-130.9555a130.0926,130.0926,0,0,1,92.6,38.3574l8.523,8.523-36.9722,34.8479-16.0555-17.0338L640.3666,495.42a107.5539,107.5539,0,1,0-67.04,191.6621"/><path fill="#858585" d="M639.0591,643.2186l-16.8114-16.2871a68.1154,68.1154,0,0,0-1.4659-96.2616l-8.7684-8.5169,9.4038-8.875,8.011,8.49,7.662-7.8876a91.5226,91.5226,0,0,1,1.9689,129.3387Z"/><circle cx="573.327" cy="579.534" r="26.925" fill="#f4f4f4"/><path fill="#121212" d="M573.3268,618.1616a38.6279,38.6279,0,1,1,38.6287-38.6272A38.672,38.672,0,0,1,573.3268,618.1616Zm0-53.8491a15.2212,15.2212,0,1,0,15.222,15.2219A15.2391,15.2391,0,0,0,573.3268,564.3125Z"/><line x1="657.65" x2="589.6" y1="495.21" y2="558.086"/><rect width="92.65" height="23.407" x="577.3" y="514.945" fill="#121212" transform="translate(-191.8148 563.0421) rotate(-42.7364)"/><polyline fill="#fff" points="586.031 603.277 634.946 640.099 661.358 659.98 662.033 698.296 608.302 707.933"/><polygon fill="#121212" points="673.061 710.489 571.201 710.489 571.201 687.082 649.655 687.082 649.655 665.819 578.993 612.628 593.07 593.927 673.061 654.14 673.061 710.489"/><rect width="13.267" height="13.267" x="684.113" y="430.327" fill="#a1a1a1" transform="translate(-106.6626 616.4143) rotate(-45)"/><rect width="6.343" height="6.343" x="642.354" y="388.568" fill="#a1a1a1" transform="translate(-87.9315 571.1934) rotate(-45)"/><path fill="#121212" d="M527.9977,530.3728a8.5834,8.5834,0,0,1-8.5825-8.5825V430.521a8.5825,8.5825,0,1,1,17.1649,0V521.79A8.5834,8.5834,0,0,1,527.9977,530.3728Z"/><rect width="185" height="185" x="380" y="747" fill="#c4c4c4"/><path fill="#fff" d="M565,825a108,108,0,1,1-76.3674,31.6324A107.2928,107.2928,0,0,1,565,825m0-33A141,141,0,1,0,706,933,141,141,0,0,0,565,792Z"/><path fill="#858585" d="M565,933H750a0,0,0,0,1,0,0v0a185,185,0,0,1-185,185h0a0,0,0,0,1,0,0V933A0,0,0,0,1,565,933Z"/><path fill="#121212" d="M565,1074A141,141,0,0,0,706,933H565Z"/><circle cx="1213" cy="656.75" r="64.5" fill="#242424"/><circle cx="1827" cy="70.5" r="62" fill="#c4c4c4"/><path fill="#4f4f4f" d="M1320,114a92,92,0,0,1,184,0Z"/><rect width="210" height="47" x="1307" y="699.75" fill="#121212"/><rect width="210" height="47" x="1307" y="561.75" fill="#121212"/><rect width="210" height="47" x="1307" y="143.677" fill="#121212"/><polygon fill="#f4f4f4" points="1366 620.308 1326.855 688.109 1405.145 688.109 1366 620.308"/><polygon fill="#f4f4f4" points="1458 620.308 1418.855 688.109 1497.145 688.109 1458 620.308"/><path fill="#fff" d="M1517,285H1120v93h304a93,93,0,0,0,93-93"/></g></svg>