<svg xmlns="http://www.w3.org/2000/svg" id="Layer_1" data-name="Layer 1" viewBox="0 0 3000 1112"><title>h6</title><g id="v1"><rect width="2999.61" height="1112" x="2.32" fill="#150066"/><polygon fill="#fff" points="2629 372 2629 0 3001 0 2629 372"/><rect width="372" height="372" x="2258" y="371" fill="#ec106c"/><polygon fill="#fff" points="2444 564 2258 371 2630 371 2444 564"/><rect width="372" height="372" x="2258" fill="#fccf0e"/><path fill="#4852a3" d="M2258,0h372a0,0,0,0,1,0,0V0a372,372,0,0,1-372,372h0a0,0,0,0,1,0,0V0A0,0,0,0,1,2258,0Z"/><rect width="372" height="372" x="2629" y="371" fill="#fff"/><path fill="#fccf0e" d="M2674.24,461.479,2629,371h372l-45.24,90.479C2897.764,577.472,2732.236,577.472,2674.24,461.479Z"/><path fill="#fccf0e" d="M2674.24,650.9948,2629,741.4737h372l-45.24-90.4789C2897.764,535.0017,2732.236,535.0017,2674.24,650.9948Z"/><polygon fill="#fff" stroke="#ffcd2d" stroke-miterlimit="10" stroke-width="7" points="2729.487 507.629 2729.487 606.371 2815 655.742 2900.513 606.371 2900.513 507.629 2815 458.258 2729.487 507.629"/><polygon fill="#25e899" points="2762.632 568.55 2859.055 568.55 2867.226 571.668 2861.08 593.672 2768.7 593.672 2762.632 568.55"/><path fill="#eff4ee" stroke="#15003e" stroke-linecap="round" stroke-miterlimit="10" stroke-width="6" d="M2848.0216,620.87h-66.2625A13.0588,13.0588,0,0,1,2768.7,607.8107V593.6724h92.38v14.1383A13.0588,13.0588,0,0,1,2848.0216,620.87Z"/><path fill="#0fce7c" d="M2797.9541,568.55a41.1836,41.1836,0,0,1-15.23-63.902c7.5513-9.15,55.055-9.6151,62.5977-1.1a41.1823,41.1823,0,0,1-14.2853,65.0008"/><path fill="none" stroke="#15003e" stroke-linecap="round" stroke-miterlimit="10" stroke-width="6" d="M2795.3521,568.5479a43.0764,43.0764,0,0,1-17.4722-61.9213"/><path fill="none" stroke="#15003e" stroke-linecap="round" stroke-miterlimit="10" stroke-width="6" d="M2848.8962,504.363a43.07,43.07,0,0,1-15.473,63.9647"/><path fill="none" stroke="#15003e" stroke-linecap="round" stroke-miterlimit="10" stroke-width="6" d="M2753.576,534.1316a61.3144,61.3144,0,1,1,122.6288,0L2861.08,593.6724H2768.7Z"/><line x1="2753.576" x2="2753.576" y1="533.245" y2="474.892" fill="none" stroke="#15003e" stroke-linecap="round" stroke-miterlimit="10" stroke-width="6"/><line x1="2876.205" x2="2876.205" y1="533.245" y2="458.416" fill="none" stroke="#15003e" stroke-linecap="round" stroke-miterlimit="10" stroke-width="6"/><path fill="none" stroke="#15003e" stroke-linecap="round" stroke-miterlimit="10" stroke-width="6" d="M2758.3519,559.454h-6.33a9.3378,9.3378,0,0,1-9.31-9.31V526.4985a9.3378,9.3378,0,0,1,9.31-9.31h2.6841"/><path fill="none" stroke="#15003e" stroke-linecap="round" stroke-miterlimit="10" stroke-width="6" d="M2871.6481,559.454h6.33a9.3378,9.3378,0,0,0,9.31-9.31V526.4985a9.3378,9.3378,0,0,0-9.31-9.31h-2.6841"/><path fill="none" stroke="#15003e" stroke-linecap="round" stroke-miterlimit="10" stroke-width="6" d="M2754.2357,523.8756a85.6743,85.6743,0,0,1,120.6238-2.583"/><line x1="2762.632" x2="2867.226" y1="568.546" y2="568.546" fill="none" stroke="#15003e" stroke-linecap="round" stroke-miterlimit="10" stroke-width="6"/><circle cx="2825.669" cy="517.188" r="10.74" fill="#fff"/><circle cx="2839.741" cy="533.245" r="4.343" fill="#fff"/><path fill="none" stroke="#15003e" stroke-linecap="round" stroke-miterlimit="10" stroke-width="6" d="M2851.9783,585.11c-5.29,0-5.29-8-10.5807-8s-5.29,8-10.5808,8-5.2918-8-10.5836-8c-5.2936,0-5.2936,8-10.5872,8-5.292,0-5.292-8-10.5839-8-5.2956,0-5.2956,8-10.5912,8s-5.2956-8-10.5911-8"/><rect width="372" height="372" x="2258" y="741" fill="#fff"/><polygon fill="#f2f2f2" points="746 743 746 371 1118 371 746 743"/><rect width="372" height="372" x="746" fill="#15003e"/><rect width="186" height="186" x="747" fill="#2c0096"/><rect width="186" height="186" x="746" y="186" fill="#ffce08"/><path fill="#0fce7c" d="M931,0h186a0,0,0,0,1,0,0V0A186,186,0,0,1,931,186h0a0,0,0,0,1,0,0V0A0,0,0,0,1,931,0Z"/><rect width="186" height="186" x="931" y="186" fill="#2c0096"/><polygon fill="#fccf0e" points="746 1113 746 741 1118 741 746 1113"/><polygon fill="#f9006c" points="1118 1113 746 1113 1118 741 1118 1113"/><rect width="372" height="372" x="1514" y="741" fill="#0fce7c"/><path fill="#15003e" d="M1886,741h0a0,0,0,0,1,0,0v372a0,0,0,0,1,0,0H1514a0,0,0,0,1,0,0v0A372,372,0,0,1,1886,741Z"/><circle cx="923" cy="954.947" r="94.5" fill="#f2f2f2"/><rect width="396" height="372" x="1117" y="741" fill="#15003e"/><polygon fill="#f9006c" points="748 372 376 372 748 0 748 372"/><rect width="183.355" height="183.355" x="376.645" y="1.323" fill="#f1f2f2"/><rect width="372" height="372" x="376" y="741" fill="#4852a3"/><rect width="372" height="372" x="5" y="371"/><rect width="139.812" height="139.812" x="5" y="372.673" fill="#4852a3"/><rect width="139.812" height="139.812" x="144.812" y="512.485" fill="#80459a"/><rect width="372" height="372" x="5" fill="#25e899"/><rect width="26.999" height="326.984" x="31.107" y="20.617" fill="#2c0096"/><rect width="26.999" height="326.984" x="83.604" y="22.508" fill="#15003e"/><rect width="26.999" height="326.984" x="137.601" y="22.508" fill="#2c0096"/><rect width="26.999" height="187.792" x="250.605" y="-2.787" fill="#150a3a" transform="translate(355.2132 -172.9951) rotate(90)"/><rect width="26.999" height="187.792" x="250.605" y="59.213" fill="#2c0096" transform="translate(417.2132 -110.9951) rotate(90)"/><rect width="26.999" height="187.792" x="250.605" y="121.213" fill="#150a3a" transform="translate(479.2132 -48.9951) rotate(90)"/><rect width="26.999" height="187.792" x="250.605" y="183.213" fill="#2c0096" transform="translate(541.2132 13.0049) rotate(90)"/><rect width="372" height="372" x="5" y="741" fill="#80459a"/><rect width="252.998" height="252.998" x="2317.501" y="800.501" fill="#01065b"/><rect width="372" height="372" x="2629" y="741" fill="#4852a3"/><circle cx="2709.78" cy="834.327" r="23.249" fill="#25e899"/><circle cx="2806.48" cy="834.327" r="23.249" fill="#25e899"/><circle cx="2910.537" cy="834.327" r="23.249" fill="#25e899"/><circle cx="2709.78" cy="935.327" r="23.249" fill="#25e899"/><circle cx="2806.48" cy="935.327" r="23.249" fill="#fccf0e"/><circle cx="2910.537" cy="935.327" r="23.249" fill="#25e899"/><circle cx="2708.102" cy="1036.326" r="23.249" fill="#25e899"/><circle cx="2804.802" cy="1036.326" r="23.249" fill="#25e899"/><circle cx="2908.859" cy="1036.326" r="23.249" fill="#25e899"/><circle cx="191" cy="954.947" r="131.555" fill="#25e899"/><rect width="186" height="186" x="1118" y="374.5" fill="#2c0096"/><rect width="397" height="186" x="1117" y="186" fill="#80459a"/><path fill="#150a3a" d="M1117,186h304a93,93,0,0,1,93,93v0a93,93,0,0,1-93,93H1117a0,0,0,0,1,0,0V186A0,0,0,0,1,1117,186Z"/><path fill="#ffce08" d="M1406,530h0a66,66,0,0,1-66-66v0a66,66,0,0,1,66-66h0"/><path fill="#fccf0e" d="M1117,926.5h198a0,0,0,0,1,0,0v186a0,0,0,0,1,0,0h-12a186,186,0,0,1-186-186v0A0,0,0,0,1,1117,926.5Z"/><path fill="#ec106c" d="M1501,927.7373h10.5a0,0,0,0,1,0,0v186a0,0,0,0,1,0,0H1315a0,0,0,0,1,0,0v0A186,186,0,0,1,1501,927.7373Z"/><path fill="#3e00ff" d="M1501,740.5h13a0,0,0,0,1,0,0v0a186,186,0,0,1-186,186h-13a0,0,0,0,1,0,0v0A186,186,0,0,1,1501,740.5Z"/><path fill="#25e899" d="M1210,927l-93-186h0c85.4549,0,141.0347,89.93,102.8182,166.3633Z"/><rect width="186" height="184.109" x="2072" y="187.446" fill="#f9006c"/><rect width="186" height="371.555" x="1886" fill="#80459a"/><rect width="186" height="187.901" x="1886" y="553.208"/><rect width="187" height="184.109" x="1117" y="556.154" fill="#f9006c"/><rect width="186" height="186" x="1118" fill="#f9006c"/><path fill="#8e2abe" d="M2067.208,372H2072a0,0,0,0,1,0,0v0a181.208,181.208,0,0,1-181.208,181.208H1886a0,0,0,0,1,0,0v0A181.208,181.208,0,0,1,2067.208,372Z"/><path fill="#f2f2f2" d="M2072,0h0a186,186,0,0,1,186,186v0a0,0,0,0,1,0,0H2072a0,0,0,0,1,0,0V0A0,0,0,0,1,2072,0Z"/><path fill="#ffce08" d="M2186.5266,530.5h0a66,66,0,0,1-66-66v0a66,66,0,0,1,66-66h0"/><path fill="#2c0096" d="M2072,553.2082h186a0,0,0,0,1,0,0v0a186,186,0,0,1-186,186h0a0,0,0,0,1,0,0v-186A0,0,0,0,1,2072,553.2082Z"/><rect width="372" height="372" x="1886" y="741" fill="#fccf0e"/><rect width="372" height="372" x="1514" y="370.086" fill="#f1f2f2"/><rect width="372" height="372" x="1514" y="-.323" fill="#25e899"/><path fill="#0e2947" d="M1514-.3226h0a372,372,0,0,1,372,372v0a0,0,0,0,1,0,0H1514a0,0,0,0,1,0,0v-372A0,0,0,0,1,1514-.3226Z"/><path fill="#2c0096" d="M1700,370.0864h0a186,186,0,0,1,186,186v186a0,0,0,0,1,0,0H1700a186,186,0,0,1-186-186v0a186,186,0,0,1,186-186Z"/><polygon fill="#80459a" points="1990.473 758.668 1908.946 899.877 2072 899.877 1990.473 758.668"/><polygon fill="#fff" points="2247.666 852.807 2106.457 771.281 2106.457 934.334 2247.666 852.807"/><polygon fill="#80459a" points="1896.334 1021.139 2037.543 1102.666 2037.543 939.612 1896.334 1021.139"/><polygon fill="#80459a" points="2153.527 927 2072 1068.209 2235.054 1068.209 2153.527 927"/><polygon fill="#fff" points="626.449 515.791 649.236 560.682 631.946 634.099 590.771 600.459 597.987 546.609 626.449 515.791"/><path fill="#2c0096" d="M565.6226,500.7482a8.5834,8.5834,0,0,1-8.5824-8.5825V424.521a8.5825,8.5825,0,1,1,17.1649,0v67.6447A8.5834,8.5834,0,0,1,565.6226,500.7482Z"/><path fill="#15003e" d="M579.3908,500.7482H552.8632a8.5825,8.5825,0,0,1,0-17.1649h26.5276a8.5825,8.5825,0,1,1,0,17.1649Z"/><path fill="#fff" d="M626.4492,515.7907,654.65,489.21a119.2516,119.2516,0,1,0-84.3236,203.5752c24.5492,0,46.14,8.9618,65.1045-3.7549l23.6018,3.2657-.6751-38.316L590.7714,600.459h0l14.53-68.4348,21.1476-16.2335"/><path fill="#2c0096" d="M570.3268,704.4885c-72.2087,0-130.9556-58.7453-130.9556-130.9541s58.7469-130.9555,130.9556-130.9555a130.0926,130.0926,0,0,1,92.6,38.3574l8.523,8.523-36.9722,34.8479-16.0555-17.0338L637.3666,489.42a107.5539,107.5539,0,1,0-67.04,191.6621"/><path fill="#0fce7c" d="M636.0591,637.2186l-16.8114-16.2871a68.1154,68.1154,0,0,0-1.4659-96.2616l-8.7684-8.5169,9.4038-8.875,8.011,8.49,7.662-7.8876a91.5226,91.5226,0,0,1,1.9689,129.3387Z"/><circle cx="570.327" cy="573.534" r="26.925" fill="#eff4ee"/><path fill="#2c0096" d="M570.3268,612.1616a38.6279,38.6279,0,1,1,38.6287-38.6272A38.672,38.672,0,0,1,570.3268,612.1616Zm0-53.8491a15.2212,15.2212,0,1,0,15.222,15.2219A15.2391,15.2391,0,0,0,570.3268,558.3125Z"/><line x1="654.65" x2="586.6" y1="489.21" y2="552.086" fill="#15003e"/><rect width="92.65" height="23.407" x="574.3" y="508.945" fill="#2c0096" transform="translate(-188.5396 559.4131) rotate(-42.7364)"/><polyline fill="#fff" points="583.031 597.277 631.946 634.099 658.358 653.98 659.033 692.296 605.302 701.933"/><polygon fill="#2c0096" points="670.061 704.489 568.201 704.489 568.201 681.082 646.655 681.082 646.655 659.819 575.993 606.628 590.07 587.927 670.061 648.14 670.061 704.489"/><rect width="13.267" height="13.267" x="681.113" y="424.327" fill="#25e899" transform="translate(-103.2986 612.5356) rotate(-45)"/><rect width="6.343" height="6.343" x="639.354" y="382.568" fill="#25e899" transform="translate(-84.5676 567.3147) rotate(-45)"/><path fill="#2c0096" d="M524.9977,524.3728a8.5834,8.5834,0,0,1-8.5825-8.5825V424.521a8.5825,8.5825,0,1,1,17.1649,0V515.79A8.5834,8.5834,0,0,1,524.9977,524.3728Z"/><rect width="185" height="185" x="377" y="741" fill="#ffce08"/><path fill="#fff" d="M562,819a108,108,0,1,1-76.3676,31.6324A107.2934,107.2934,0,0,1,562,819m0-33A141,141,0,1,0,703,927,141,141,0,0,0,562,786Z"/><path fill="#0fce7c" d="M562,927H747a0,0,0,0,1,0,0v0a185,185,0,0,1-185,185h0a0,0,0,0,1,0,0V927A0,0,0,0,1,562,927Z"/><path fill="#2c0096" d="M562,1068A141,141,0,0,0,703,927H562Z"/><circle cx="1210" cy="650.75" r="64.5" fill="#3e00ff"/><circle cx="1824" cy="64.5" r="62" fill="#ffce08"/><path fill="#4852a3" d="M1317,108a92,92,0,0,1,184,0Z"/><rect width="210" height="47" x="1304" y="693.75" fill="#2c0096"/><rect width="210" height="47" x="1304" y="555.75" fill="#2c0096"/><rect width="210" height="47" x="1304" y="137.677" fill="#2c0096"/><polygon fill="#f2f2f2" points="1363 614.308 1323.855 682.109 1402.145 682.109 1363 614.308"/><polygon fill="#f2f2f2" points="1455 614.308 1415.855 682.109 1494.145 682.109 1455 614.308"/><path fill="#fff" d="M1514,279H1117v93h304a93,93,0,0,0,93-93"/></g></svg>