<svg xmlns="http://www.w3.org/2000/svg" xmlns:xlink="http://www.w3.org/1999/xlink" id="Layer_1" data-name="Layer 1" viewBox="0 0 3000 1112"><defs><linearGradient id="New_Gradient_Swatch_3" x1="70.524" x2="72.736" y1="659.554" y2="492.502" gradientUnits="userSpaceOnUse"><stop offset="0" stop-color="#bd58a0"/><stop offset="1" stop-color="#ffc864"/></linearGradient><linearGradient id="New_Gradient_Swatch_3-2" x1="622.868" x2="628.866" y1="1571.898" y2="1118.748" gradientTransform="translate(-223.1736 -895.3945)" xlink:href="#New_Gradient_Swatch_3"/><linearGradient id="New_Gradient_Swatch_3-3" x1="213.974" x2="216.664" y1="237.156" y2="33.941" xlink:href="#New_Gradient_Swatch_3"/><linearGradient id="New_Gradient_Swatch_3-4" x1="164.866" x2="167.291" y1="1070.78" y2="887.532" xlink:href="#New_Gradient_Swatch_3"/><linearGradient id="New_Gradient_Swatch_3-5" x1="908.223" x2="911.757" y1="311.769" y2="44.756" xlink:href="#New_Gradient_Swatch_3"/><linearGradient id="New_Gradient_Swatch_3-6" x1="636.952" x2="639.958" y1="1060.799" y2="833.722" xlink:href="#New_Gradient_Swatch_3"/><linearGradient id="New_Gradient_Swatch_3-7" x1="1256.912" x2="1262.91" y1="1028.818" y2="575.668" gradientTransform="translate(-22.3835 -352.3141)" xlink:href="#New_Gradient_Swatch_3"/><linearGradient id="New_Gradient_Swatch_3-8" x1="1208.297" x2="1211.303" y1="1060.799" y2="833.722" xlink:href="#New_Gradient_Swatch_3"/><linearGradient id="New_Gradient_Swatch_3-9" x1="1551.075" x2="1557.073" y1="696.225" y2="243.075" gradientTransform="translate(123.2254 -80.9604)" xlink:href="#New_Gradient_Swatch_3"/><linearGradient id="New_Gradient_Swatch_3-10" x1="2145.483" x2="2149.293" y1="336.143" y2="48.289" xlink:href="#New_Gradient_Swatch_3"/><linearGradient id="New_Gradient_Swatch_3-11" x1="1936.752" x2="1942.75" y1="883.558" y2="430.408" gradientTransform="translate(-91.4004 124.8752)" xlink:href="#New_Gradient_Swatch_3"/><linearGradient id="New_Gradient_Swatch_3-12" x1="2535.296" x2="2535.827" y1="46.465" y2="6.301" xlink:href="#New_Gradient_Swatch_3"/><linearGradient id="New_Gradient_Swatch_3-13" x1="2275.582" x2="2281.581" y1="512.707" y2="59.557" gradientTransform="translate(68.3538 434.4884)" xlink:href="#New_Gradient_Swatch_3"/><linearGradient id="New_Gradient_Swatch_3-14" x1="1417.345" x2="1418.518" y1="103.112" y2="14.512" xlink:href="#New_Gradient_Swatch_3"/><linearGradient id="New_Gradient_Swatch_3-15" x1="2349.486" x2="2350.99" y1="1086.627" y2="972.974" xlink:href="#New_Gradient_Swatch_3"/><linearGradient id="New_Gradient_Swatch_3-16" x1="1857.786" x2="1858.554" y1="1099.3" y2="1041.3" xlink:href="#New_Gradient_Swatch_3"/><linearGradient id="New_Gradient_Swatch_3-17" x1="2886.291" x2="2889.495" y1="345.685" y2="103.621" xlink:href="#New_Gradient_Swatch_3"/><linearGradient id="New_Gradient_Swatch_3-18" x1="2845.548" x2="2849.644" y1="917.985" y2="608.543" xlink:href="#New_Gradient_Swatch_3"/><pattern id="_10_ppp_20_2" width="28.8" height="28.801" data-name="10 ppp 20% 2" patternTransform="translate(-413.2691 -8.3742) rotate(135) scale(5.7531)" patternUnits="userSpaceOnUse" viewBox="0 0 28.8 28.801"><rect width="28.8" height="28.801" fill="none"/><g id="_Group_" data-name="&lt;Group&gt;"><path id="_Path_" fill="#fff" d="M28.8,30.24a1.4395,1.4395,0,1,0-1.44-1.44A1.44,1.44,0,0,0,28.8,30.24Z" data-name="&lt;Path&gt;"/><path id="_Path_2" fill="#fff" d="M14.3994,30.24a1.4395,1.4395,0,1,0-1.4394-1.44A1.44,1.44,0,0,0,14.3994,30.24Z" data-name="&lt;Path&gt;"/><path id="_Path_3" fill="#fff" d="M28.8,15.842a1.44,1.44,0,1,0-1.44-1.4414A1.4412,1.4412,0,0,0,28.8,15.842Z" data-name="&lt;Path&gt;"/><path id="_Path_4" fill="#fff" d="M14.3994,15.842A1.44,1.44,0,1,0,12.96,14.4006,1.4421,1.4421,0,0,0,14.3994,15.842Z" data-name="&lt;Path&gt;"/><path id="_Path_5" fill="#fff" d="M7.1992,23.0412A1.44,1.44,0,1,0,5.76,21.6017,1.44,1.44,0,0,0,7.1992,23.0412Z" data-name="&lt;Path&gt;"/><path id="_Path_6" fill="#fff" d="M21.6,23.0412a1.44,1.44,0,1,0-1.44-1.4395A1.44,1.44,0,0,0,21.6,23.0412Z" data-name="&lt;Path&gt;"/><path id="_Path_7" fill="#fff" d="M7.1992,8.6408A1.44,1.44,0,1,0,5.76,7.2013,1.44,1.44,0,0,0,7.1992,8.6408Z" data-name="&lt;Path&gt;"/><path id="_Path_8" fill="#fff" d="M21.6,8.6408a1.44,1.44,0,1,0-1.44-1.44A1.44,1.44,0,0,0,21.6,8.6408Z" data-name="&lt;Path&gt;"/></g><g id="_Group_2" data-name="&lt;Group&gt;"><path id="_Path_9" fill="#fff" d="M0,30.24a1.44,1.44,0,0,0,1.44-1.44A1.44,1.44,0,0,0,0,27.3615a1.44,1.44,0,0,0-1.44,1.4394A1.44,1.44,0,0,0,0,30.24Z" data-name="&lt;Path&gt;"/><path id="_Path_10" fill="#fff" d="M0,15.842a1.4412,1.4412,0,0,0,1.44-1.4414A1.44,1.44,0,0,0,0,12.9611a1.44,1.44,0,0,0-1.44,1.44A1.4414,1.4414,0,0,0,0,15.842Z" data-name="&lt;Path&gt;"/></g><g id="_Group_3" data-name="&lt;Group&gt;"><path id="_Path_11" fill="#fff" d="M28.8,1.44A1.44,1.44,0,0,0,30.2393,0,1.44,1.44,0,0,0,28.8-1.4393,1.44,1.44,0,0,0,27.3594,0,1.44,1.44,0,0,0,28.8,1.44Z" data-name="&lt;Path&gt;"/><path id="_Path_12" fill="#fff" d="M14.3994,1.44A1.44,1.44,0,0,0,15.84,0a1.44,1.44,0,0,0-1.44-1.4394A1.4388,1.4388,0,0,0,12.96,0,1.4389,1.4389,0,0,0,14.3994,1.44Z" data-name="&lt;Path&gt;"/></g><g id="_Group_4" data-name="&lt;Group&gt;"><path id="_Path_13" fill="#fff" d="M0,1.44A1.44,1.44,0,0,0,1.44,0,1.44,1.44,0,0,0,0-1.4393,1.44,1.44,0,0,0-1.44,0,1.44,1.44,0,0,0,0,1.44Z" data-name="&lt;Path&gt;"/></g></pattern><linearGradient id="Orchid" x1="1489.241" x2="1496.842" y1="781.941" y2="207.629" gradientTransform="translate(-102.2273 721.6638) rotate(-26.1913)" gradientUnits="userSpaceOnUse"><stop offset="0" stop-color="#ff7bac"/><stop offset=".216" stop-color="#ff7bac" stop-opacity=".763"/><stop offset=".604" stop-color="#ff7bac" stop-opacity=".356"/><stop offset=".874" stop-color="#ff7bac" stop-opacity=".1"/><stop offset="1" stop-color="#ff7bac" stop-opacity="0"/></linearGradient><linearGradient id="linear-gradient" x1="1555.85" x2="1562.115" y1="766.516" y2="293.204" gradientTransform="translate(919.445 2080.555) rotate(-90)" gradientUnits="userSpaceOnUse"><stop offset="0" stop-color="#f5a742" stop-opacity="0"/><stop offset="1" stop-color="#fb4747"/></linearGradient></defs><title>h9</title><rect width="2999.61" height="1112" x="2.32" fill="#fccf0e"/><path fill="url(#New_Gradient_Swatch_3)" d="M129.69,549.3,2.32,698V537.47l48.06-56.11a52.2157,52.2157,0,1,1,79.31,67.94Z"/><rect width="104.43" height="640.323" x="350.304" y="142.952" fill="url(#New_Gradient_Swatch_3-2)" rx="52.215" ry="52.215" transform="translate(398.0786 -150.4629) rotate(40.5812)"/><path fill="url(#New_Gradient_Swatch_3-3)" d="M375.17,0,147.87,265.37a52.2157,52.2157,0,1,1-79.31-67.94L237.67,0Z"/><path fill="url(#New_Gradient_Swatch_3-4)" d="M300.74,942.47,155.53,1112H18.03l203.4-237.47a52.2157,52.2157,0,1,1,79.31,67.94Z"/><path fill="url(#New_Gradient_Swatch_3-5)" d="M1107.99,0,804.35,354.51a52.22,52.22,0,1,1-79.32-67.94L970.49,0Z"/><path fill="url(#New_Gradient_Swatch_3-6)" d="M799.33,881.23,601.66,1112H464.16L720.01,813.29a52.22,52.22,0,1,1,79.32,67.94Z"/><rect width="104.43" height="640.323" x="1185.138" y="142.952" fill="url(#New_Gradient_Swatch_3-7)" rx="52.215" ry="52.215" transform="translate(598.8687 -693.5433) rotate(40.5812)"/><path fill="url(#New_Gradient_Swatch_3-8)" d="M1370.67,881.23,1173.01,1112h-137.5l255.85-298.71a52.2157,52.2157,0,1,1,79.31,67.94Z"/><rect width="104.43" height="640.323" x="1624.91" y="81.713" fill="url(#New_Gradient_Swatch_3-9)" rx="52.215" ry="52.215" transform="translate(664.8032 -994.3545) rotate(40.5812)"/><path fill="url(#New_Gradient_Swatch_3-10)" d="M2357.85,0,2029.27,383.63a52.22,52.22,0,1,1-79.32-67.94L2220.36,0Z"/><rect width="104.43" height="640.323" x="1795.961" y="474.882" fill="url(#New_Gradient_Swatch_3-11)" rx="52.215" ry="52.215" transform="translate(961.7094 -1011.0642) rotate(40.5812)"/><path fill="url(#New_Gradient_Swatch_3-12)" d="M2597.91,0l-32.16,37.55a52.2238,52.2238,0,0,1-73.63,5.69A52.1442,52.1442,0,0,1,2473.99,0Z"/><rect width="104.43" height="640.323" x="2294.546" y="413.644" fill="url(#New_Gradient_Swatch_3-13)" rx="52.215" ry="52.215" transform="translate(1041.7895 -1350.1349) rotate(40.5812)"/><path fill="url(#New_Gradient_Swatch_3-14)" d="M1509.24,0l-90.13,105.23a52.2157,52.2157,0,1,1-79.31-67.94L1371.74,0Z"/><path fill="url(#New_Gradient_Swatch_3-15)" d="M2443.28,1039.7l-61.93,72.3H2243.86l120.11-140.23a52.2125,52.2125,0,1,1,79.31,67.93Z"/><path fill="url(#New_Gradient_Swatch_3-16)" d="M1922.03,1112H1785.11l53.52-62.48a52.216,52.216,0,0,1,83.4,62.48Z"/><path fill="url(#New_Gradient_Swatch_3-17)" d="M3001.93,62.18V222.71L2864.1,383.63a52.2157,52.2157,0,1,1-79.31-67.94Z"/><path fill="url(#New_Gradient_Swatch_3-18)" d="M3001.93,555.68V716.21L2783.46,971.27a52.2162,52.2162,0,0,1-79.32-67.93Z"/><circle id="_Path_14" cx="1324.351" cy="646.149" r="414.12" fill="url(#_10_ppp_20_2)" data-name="&lt;Path&gt;" transform="translate(-69.0033 1125.7103) rotate(-45)"/><polygon fill="url(#Orchid)" points="1493.963 57.791 1076.715 263.024 1045.828 726.988 1432.19 985.719 1849.438 780.486 1880.325 316.522 1493.963 57.791"/><polygon fill="url(#linear-gradient)" points="1131.201 330.146 1131.201 713.364 1463.077 904.972 1794.952 713.364 1794.952 330.146 1463.077 138.538 1131.201 330.146"/><polygon fill="#f2f2f2" stroke="#bcbec0" stroke-miterlimit="10" stroke-width="14" points="1218.008 375.193 1218.008 668.317 1471.86 814.879 1725.713 668.317 1725.713 375.193 1471.86 228.631 1218.008 375.193"/><circle cx="2012.219" cy="555.008" r="19.759" fill="none" stroke="#fff" stroke-linecap="round" stroke-linejoin="round" stroke-width="5"/><path fill="none" stroke="#fff" stroke-linecap="round" stroke-linejoin="round" stroke-width="5" d="M2609.8885,588.2106a16.601,16.601,0,1,1-16.601-16.6014A16.6009,16.6009,0,0,1,2609.8885,588.2106Z"/><path fill="none" stroke="#fff" stroke-linecap="round" stroke-linejoin="round" stroke-width="5" d="M2613.0465,907.5491a19.759,19.759,0,1,1-19.759-19.759A19.7591,19.7591,0,0,1,2613.0465,907.5491Z"/><path fill="none" stroke="#fff" stroke-linecap="round" stroke-linejoin="round" stroke-width="5" d="M420.3642,984.58a19.7592,19.7592,0,1,1-19.7593-19.759A19.7591,19.7591,0,0,1,420.3642,984.58Z"/><circle cx="505.942" cy="598.758" r="19.759" fill="none" stroke="#fff" stroke-linecap="round" stroke-linejoin="round" stroke-width="5"/><path fill="none" stroke="#fff" stroke-linecap="round" stroke-linejoin="round" stroke-width="5" d="M2135.779,440.0616c13.3569,0,13.3569,19.809,26.714,19.809s13.357-19.809,26.7144-19.809c13.3608,0,13.3608,19.809,26.7216,19.809,13.3655,0,13.3655-19.809,26.7308-19.809,13.3611,0,13.3611,19.809,26.7223,19.809,13.37,0,13.37-19.809,26.7408-19.809s13.37,19.809,26.7407,19.809"/><path fill="none" stroke="#fff" stroke-linecap="round" stroke-linejoin="round" stroke-width="2" d="M432.1586,146.7981c13.3571,0,13.3571,19.809,26.7141,19.809s13.3574-19.809,26.7145-19.809c13.3608,0,13.3608,19.809,26.7215,19.809,13.3656,0,13.3656-19.809,26.7308-19.809,13.3611,0,13.3611,19.809,26.7226,19.809,13.37,0,13.37-19.809,26.74-19.809s13.37,19.809,26.7408,19.809"/><path fill="none" stroke="#fff" stroke-linecap="round" stroke-linejoin="round" stroke-width="5" d="M665.8371,1090.4168c9.4449-9.4449,23.452,4.5622,32.8968-4.8826s-4.5622-23.452,4.8829-32.8971c9.4475-9.4475,23.4546,4.56,32.9021-4.8879,9.4509-9.4509-4.5562-23.458,4.8944-32.9086,9.4477-9.4477,23.4548,4.5594,32.9026-4.8884,9.4543-9.4543-4.5528-23.4614,4.9014-32.9157s23.4614,4.5528,32.9157-4.9015"/><line x1="2320.077" x2="2345.393" y1="702.548" y2="727.865" fill="none" stroke="#fff" stroke-linecap="round" stroke-linejoin="round" stroke-width="5"/><line x1="2320.077" x2="2345.393" y1="727.865" y2="702.548" fill="none" stroke="#fff" stroke-linecap="round" stroke-linejoin="round" stroke-width="5"/><line x1="126.095" x2="151.411" y1="756.52" y2="781.836" fill="none" stroke="#fff" stroke-linecap="round" stroke-linejoin="round" stroke-width="5"/><line x1="126.095" x2="151.411" y1="781.836" y2="756.52" fill="none" stroke="#fff" stroke-linecap="round" stroke-linejoin="round" stroke-width="5"/><line x1="1815.619" x2="1840.935" y1="403.947" y2="429.263" fill="none" stroke="#fff" stroke-linecap="round" stroke-linejoin="round" stroke-width="5"/><line x1="1815.619" x2="1840.935" y1="429.263" y2="403.947" fill="none" stroke="#fff" stroke-linecap="round" stroke-linejoin="round" stroke-width="5"/><line x1="869.886" x2="895.203" y1="886.363" y2="911.68" fill="none" stroke="#fff" stroke-linecap="round" stroke-linejoin="round" stroke-width="5"/><line x1="869.886" x2="895.203" y1="911.68" y2="886.363" fill="none" stroke="#fff" stroke-linecap="round" stroke-linejoin="round" stroke-width="5"/><path fill="#fff" d="M1921.5674,655.7642a6.8653,6.8653,0,1,1-6.8654-6.865A6.8653,6.8653,0,0,1,1921.5674,655.7642Z"/><path fill="#fff" d="M1961.66,655.7642a6.8653,6.8653,0,1,1-6.8654-6.865A6.8656,6.8656,0,0,1,1961.66,655.7642Z"/><path fill="#fff" d="M2001.7534,655.7642a6.8653,6.8653,0,1,1-6.8654-6.865A6.8656,6.8656,0,0,1,2001.7534,655.7642Z"/><path fill="#fff" d="M2041.8461,655.7642a6.8653,6.8653,0,1,1-6.8651-6.865A6.8654,6.8654,0,0,1,2041.8461,655.7642Z"/><path fill="#fff" d="M2081.9391,655.7642a6.8653,6.8653,0,1,1-6.8651-6.865A6.8654,6.8654,0,0,1,2081.9391,655.7642Z"/><path fill="#fff" d="M2122.0321,655.7642a6.8653,6.8653,0,1,1-6.8651-6.865A6.8654,6.8654,0,0,1,2122.0321,655.7642Z"/><path fill="#fff" d="M1921.5674,695.8572a6.8653,6.8653,0,1,1-6.8654-6.865A6.8653,6.8653,0,0,1,1921.5674,695.8572Z"/><path fill="#fff" d="M1961.66,695.8572a6.8653,6.8653,0,1,1-6.8654-6.865A6.8656,6.8656,0,0,1,1961.66,695.8572Z"/><path fill="#fff" d="M2001.7534,695.8572a6.8653,6.8653,0,1,1-6.8654-6.865A6.8656,6.8656,0,0,1,2001.7534,695.8572Z"/><path fill="#fff" d="M2041.8461,695.8572a6.8653,6.8653,0,1,1-6.8651-6.865A6.8654,6.8654,0,0,1,2041.8461,695.8572Z"/><path fill="#fff" d="M2081.9391,695.8572a6.8653,6.8653,0,1,1-6.8651-6.865A6.8654,6.8654,0,0,1,2081.9391,695.8572Z"/><path fill="#fff" d="M2122.0321,695.8572a6.8653,6.8653,0,1,1-6.8651-6.865A6.8654,6.8654,0,0,1,2122.0321,695.8572Z"/><path fill="#fff" d="M1921.5674,735.95a6.8653,6.8653,0,1,1-6.8654-6.8651A6.8649,6.8649,0,0,1,1921.5674,735.95Z"/><path fill="#fff" d="M1961.66,735.95a6.8653,6.8653,0,1,1-6.8654-6.8651A6.8653,6.8653,0,0,1,1961.66,735.95Z"/><path fill="#fff" d="M2001.7534,735.95a6.8653,6.8653,0,1,1-6.8654-6.8651A6.8653,6.8653,0,0,1,2001.7534,735.95Z"/><path fill="#fff" d="M2041.8461,735.95a6.8653,6.8653,0,1,1-6.8651-6.8651A6.865,6.865,0,0,1,2041.8461,735.95Z"/><path fill="#fff" d="M2081.9391,735.95a6.8653,6.8653,0,1,1-6.8651-6.8651A6.865,6.865,0,0,1,2081.9391,735.95Z"/><path fill="#fff" d="M2122.0321,735.95a6.8653,6.8653,0,1,1-6.8651-6.8651A6.865,6.865,0,0,1,2122.0321,735.95Z"/><path fill="#fff" d="M1921.5674,776.0433a6.8653,6.8653,0,1,1-6.8654-6.8655A6.8649,6.8649,0,0,1,1921.5674,776.0433Z"/><path fill="#fff" d="M1961.66,776.0433a6.8653,6.8653,0,1,1-6.8654-6.8655A6.8653,6.8653,0,0,1,1961.66,776.0433Z"/><path fill="#fff" d="M2001.7534,776.0433a6.8653,6.8653,0,1,1-6.8654-6.8655A6.8653,6.8653,0,0,1,2001.7534,776.0433Z"/><path fill="#fff" d="M2041.8461,776.0433a6.8653,6.8653,0,1,1-6.8651-6.8655A6.865,6.865,0,0,1,2041.8461,776.0433Z"/><path fill="#fff" d="M2081.9391,776.0433a6.8653,6.8653,0,1,1-6.8651-6.8655A6.865,6.865,0,0,1,2081.9391,776.0433Z"/><path fill="#fff" d="M2122.0321,776.0433a6.8653,6.8653,0,1,1-6.8651-6.8655A6.865,6.865,0,0,1,2122.0321,776.0433Z"/><path fill="#fff" d="M1921.5674,816.1363a6.8653,6.8653,0,1,1-6.8654-6.8655A6.8649,6.8649,0,0,1,1921.5674,816.1363Z"/><path fill="#fff" d="M1961.66,816.1363a6.8653,6.8653,0,1,1-6.8654-6.8655A6.8653,6.8653,0,0,1,1961.66,816.1363Z"/><path fill="#fff" d="M2001.7534,816.1363a6.8653,6.8653,0,1,1-6.8654-6.8655A6.8653,6.8653,0,0,1,2001.7534,816.1363Z"/><path fill="#fff" d="M2041.8461,816.1363a6.8653,6.8653,0,1,1-6.8651-6.8655A6.865,6.865,0,0,1,2041.8461,816.1363Z"/><path fill="#fff" d="M2081.9391,816.1363a6.8653,6.8653,0,1,1-6.8651-6.8655A6.865,6.865,0,0,1,2081.9391,816.1363Z"/><path fill="#fff" d="M2122.0321,816.1363a6.8653,6.8653,0,1,1-6.8651-6.8655A6.865,6.865,0,0,1,2122.0321,816.1363Z"/><path fill="#fff" d="M645.4345,503.9862a6.8653,6.8653,0,1,1,6.8651-6.8654A6.8653,6.8653,0,0,1,645.4345,503.9862Z"/><path fill="#fff" d="M645.4345,544.0793a6.8653,6.8653,0,1,1,6.8651-6.8655A6.8657,6.8657,0,0,1,645.4345,544.0793Z"/><path fill="#fff" d="M645.4345,584.1723a6.8653,6.8653,0,1,1,6.8651-6.8655A6.8656,6.8656,0,0,1,645.4345,584.1723Z"/><path fill="#fff" d="M645.4345,624.2649A6.8653,6.8653,0,1,1,652.3,617.4,6.8653,6.8653,0,0,1,645.4345,624.2649Z"/><path fill="#fff" d="M645.4345,664.3579a6.8653,6.8653,0,1,1,6.8651-6.8651A6.8653,6.8653,0,0,1,645.4345,664.3579Z"/><path fill="#fff" d="M645.4345,704.4509a6.8653,6.8653,0,1,1,6.8651-6.865A6.8653,6.8653,0,0,1,645.4345,704.4509Z"/><path fill="#fff" d="M605.3415,503.9862a6.8653,6.8653,0,1,1,6.8651-6.8654A6.8653,6.8653,0,0,1,605.3415,503.9862Z"/><path fill="#fff" d="M605.3415,544.0793a6.8653,6.8653,0,1,1,6.8651-6.8655A6.8657,6.8657,0,0,1,605.3415,544.0793Z"/><path fill="#fff" d="M605.3415,584.1723a6.8653,6.8653,0,1,1,6.8651-6.8655A6.8656,6.8656,0,0,1,605.3415,584.1723Z"/><path fill="#fff" d="M605.3415,624.2649a6.8653,6.8653,0,1,1,6.8651-6.8651A6.8653,6.8653,0,0,1,605.3415,624.2649Z"/><path fill="#fff" d="M605.3415,664.3579a6.8653,6.8653,0,1,1,6.8651-6.8651A6.8653,6.8653,0,0,1,605.3415,664.3579Z"/><path fill="#fff" d="M605.3415,704.4509a6.8653,6.8653,0,1,1,6.8651-6.865A6.8653,6.8653,0,0,1,605.3415,704.4509Z"/><path fill="#fff" d="M565.2485,503.9862a6.8653,6.8653,0,1,1,6.8651-6.8654A6.865,6.865,0,0,1,565.2485,503.9862Z"/><path fill="#fff" d="M565.2485,544.0793a6.8653,6.8653,0,1,1,6.8651-6.8655A6.8654,6.8654,0,0,1,565.2485,544.0793Z"/><path fill="#fff" d="M565.2485,584.1723a6.8653,6.8653,0,1,1,6.8651-6.8655A6.8654,6.8654,0,0,1,565.2485,584.1723Z"/><path fill="#fff" d="M565.2485,624.2649a6.8653,6.8653,0,1,1,6.8651-6.8651A6.865,6.865,0,0,1,565.2485,624.2649Z"/><path fill="#fff" d="M565.2485,664.3579a6.8653,6.8653,0,1,1,6.8651-6.8651A6.865,6.865,0,0,1,565.2485,664.3579Z"/><path fill="#fff" d="M565.2485,704.4509a6.8653,6.8653,0,1,1,6.8651-6.865A6.865,6.865,0,0,1,565.2485,704.4509Z"/><path fill="#fff" d="M525.1555,503.9862a6.8653,6.8653,0,1,1,6.8654-6.8654A6.865,6.865,0,0,1,525.1555,503.9862Z"/><path fill="#fff" d="M525.1555,544.0793a6.8653,6.8653,0,1,1,6.8654-6.8655A6.8654,6.8654,0,0,1,525.1555,544.0793Z"/><path fill="#fff" d="M525.1555,584.1723a6.8653,6.8653,0,1,1,6.8654-6.8655A6.8654,6.8654,0,0,1,525.1555,584.1723Z"/><path fill="#fff" d="M525.1555,624.2649a6.8653,6.8653,0,1,1,6.8654-6.8651A6.865,6.865,0,0,1,525.1555,624.2649Z"/><path fill="#fff" d="M525.1555,664.3579a6.8653,6.8653,0,1,1,6.8654-6.8651A6.865,6.865,0,0,1,525.1555,664.3579Z"/><path fill="#fff" d="M525.1555,704.4509a6.8653,6.8653,0,1,1,6.8654-6.865A6.865,6.865,0,0,1,525.1555,704.4509Z"/><path fill="#fff" d="M485.0625,503.9862a6.8653,6.8653,0,1,1,6.8654-6.8654A6.865,6.865,0,0,1,485.0625,503.9862Z"/><path fill="#fff" d="M485.0625,544.0793a6.8653,6.8653,0,1,1,6.8654-6.8655A6.8654,6.8654,0,0,1,485.0625,544.0793Z"/><path fill="#fff" d="M485.0625,584.1723a6.8653,6.8653,0,1,1,6.8654-6.8655A6.8654,6.8654,0,0,1,485.0625,584.1723Z"/><path fill="#fff" d="M485.0625,624.2649a6.8653,6.8653,0,1,1,6.8654-6.8651A6.865,6.865,0,0,1,485.0625,624.2649Z"/><path fill="#fff" d="M485.0625,664.3579a6.8653,6.8653,0,1,1,6.8654-6.8651A6.865,6.865,0,0,1,485.0625,664.3579Z"/><path fill="#fff" d="M485.0625,704.4509a6.8653,6.8653,0,1,1,6.8654-6.865A6.865,6.865,0,0,1,485.0625,704.4509Z"/><path fill="#fff" d="M645.4345,736.8666a6.8653,6.8653,0,1,1,6.8651-6.8655A6.8654,6.8654,0,0,1,645.4345,736.8666Z"/><path fill="#fff" d="M645.4345,776.96a6.8653,6.8653,0,1,1,6.8651-6.8655A6.8656,6.8656,0,0,1,645.4345,776.96Z"/><path fill="#fff" d="M645.4345,817.0526a6.8653,6.8653,0,1,1,6.8651-6.8655A6.8656,6.8656,0,0,1,645.4345,817.0526Z"/><path fill="#fff" d="M645.4345,857.1452A6.8653,6.8653,0,1,1,652.3,850.28,6.8653,6.8653,0,0,1,645.4345,857.1452Z"/><path fill="#fff" d="M645.4345,897.2382a6.8653,6.8653,0,1,1,6.8651-6.865A6.8653,6.8653,0,0,1,645.4345,897.2382Z"/><path fill="#fff" d="M645.4345,937.3312a6.8653,6.8653,0,1,1,6.8651-6.865A6.8653,6.8653,0,0,1,645.4345,937.3312Z"/><path fill="#fff" d="M605.3415,736.8666a6.8653,6.8653,0,1,1,6.8651-6.8655A6.8654,6.8654,0,0,1,605.3415,736.8666Z"/><path fill="#fff" d="M605.3415,776.96a6.8653,6.8653,0,1,1,6.8651-6.8655A6.8656,6.8656,0,0,1,605.3415,776.96Z"/><path fill="#fff" d="M605.3415,817.0526a6.8653,6.8653,0,1,1,6.8651-6.8655A6.8656,6.8656,0,0,1,605.3415,817.0526Z"/><path fill="#fff" d="M605.3415,857.1452a6.8653,6.8653,0,1,1,6.8651-6.865A6.8653,6.8653,0,0,1,605.3415,857.1452Z"/><path fill="#fff" d="M605.3415,897.2382a6.8653,6.8653,0,1,1,6.8651-6.865A6.8653,6.8653,0,0,1,605.3415,897.2382Z"/><path fill="#fff" d="M605.3415,937.3312a6.8653,6.8653,0,1,1,6.8651-6.865A6.8653,6.8653,0,0,1,605.3415,937.3312Z"/><path fill="#fff" d="M565.2485,736.8666a6.8653,6.8653,0,1,1,6.8651-6.8655A6.8651,6.8651,0,0,1,565.2485,736.8666Z"/><path fill="#fff" d="M565.2485,776.96a6.8653,6.8653,0,1,1,6.8651-6.8655A6.8654,6.8654,0,0,1,565.2485,776.96Z"/><path fill="#fff" d="M565.2485,817.0526a6.8653,6.8653,0,1,1,6.8651-6.8655A6.8654,6.8654,0,0,1,565.2485,817.0526Z"/><path fill="#fff" d="M565.2485,857.1452a6.8653,6.8653,0,1,1,6.8651-6.865A6.865,6.865,0,0,1,565.2485,857.1452Z"/><path fill="#fff" d="M565.2485,897.2382a6.8653,6.8653,0,1,1,6.8651-6.865A6.865,6.865,0,0,1,565.2485,897.2382Z"/><path fill="#fff" d="M565.2485,937.3312a6.8653,6.8653,0,1,1,6.8651-6.865A6.865,6.865,0,0,1,565.2485,937.3312Z"/><path fill="#fff" d="M525.1555,736.8666a6.8653,6.8653,0,1,1,6.8654-6.8655A6.8651,6.8651,0,0,1,525.1555,736.8666Z"/><path fill="#fff" d="M525.1555,776.96a6.8653,6.8653,0,1,1,6.8654-6.8655A6.8654,6.8654,0,0,1,525.1555,776.96Z"/><path fill="#fff" d="M525.1555,817.0526a6.8653,6.8653,0,1,1,6.8654-6.8655A6.8654,6.8654,0,0,1,525.1555,817.0526Z"/><path fill="#fff" d="M525.1555,857.1452a6.8653,6.8653,0,1,1,6.8654-6.865A6.865,6.865,0,0,1,525.1555,857.1452Z"/><path fill="#fff" d="M525.1555,897.2382a6.8653,6.8653,0,1,1,6.8654-6.865A6.865,6.865,0,0,1,525.1555,897.2382Z"/><path fill="#fff" d="M525.1555,937.3312a6.8653,6.8653,0,1,1,6.8654-6.865A6.865,6.865,0,0,1,525.1555,937.3312Z"/><path fill="#fff" d="M485.0625,736.8666a6.8653,6.8653,0,1,1,6.8654-6.8655A6.8651,6.8651,0,0,1,485.0625,736.8666Z"/><path fill="#fff" d="M485.0625,776.96a6.8653,6.8653,0,1,1,6.8654-6.8655A6.8654,6.8654,0,0,1,485.0625,776.96Z"/><path fill="#fff" d="M485.0625,817.0526a6.8653,6.8653,0,1,1,6.8654-6.8655A6.8654,6.8654,0,0,1,485.0625,817.0526Z"/><path fill="#fff" d="M485.0625,857.1452a6.8653,6.8653,0,1,1,6.8654-6.865A6.865,6.865,0,0,1,485.0625,857.1452Z"/><path fill="#fff" d="M485.0625,897.2382a6.8653,6.8653,0,1,1,6.8654-6.865A6.865,6.865,0,0,1,485.0625,897.2382Z"/><path fill="#fff" d="M485.0625,937.3312a6.8653,6.8653,0,1,1,6.8654-6.865A6.865,6.865,0,0,1,485.0625,937.3312Z"/><path fill="#fff" d="M72.2973,203.4328a6.8653,6.8653,0,1,1-6.8654-6.8651A6.8653,6.8653,0,0,1,72.2973,203.4328Z"/><path fill="#fff" d="M112.39,203.4328a6.8653,6.8653,0,1,1-6.8654-6.8651A6.8656,6.8656,0,0,1,112.39,203.4328Z"/><path fill="#fff" d="M152.4833,203.4328a6.8653,6.8653,0,1,1-6.8654-6.8651A6.8656,6.8656,0,0,1,152.4833,203.4328Z"/><path fill="#fff" d="M192.576,203.4328a6.8653,6.8653,0,1,1-6.8651-6.8651A6.8653,6.8653,0,0,1,192.576,203.4328Z"/><path fill="#fff" d="M232.669,203.4328a6.8653,6.8653,0,1,1-6.8651-6.8651A6.8653,6.8653,0,0,1,232.669,203.4328Z"/><path fill="#fff" d="M272.762,203.4328a6.8653,6.8653,0,1,1-6.8651-6.8651A6.8653,6.8653,0,0,1,272.762,203.4328Z"/><path fill="#fff" d="M72.2973,243.5258a6.8653,6.8653,0,1,1-6.8654-6.8651A6.8653,6.8653,0,0,1,72.2973,243.5258Z"/><path fill="#fff" d="M112.39,243.5258a6.8653,6.8653,0,1,1-6.8654-6.8651A6.8656,6.8656,0,0,1,112.39,243.5258Z"/><path fill="#fff" d="M152.4833,243.5258a6.8653,6.8653,0,1,1-6.8654-6.8651A6.8656,6.8656,0,0,1,152.4833,243.5258Z"/><path fill="#fff" d="M192.576,243.5258a6.8653,6.8653,0,1,1-6.8651-6.8651A6.8653,6.8653,0,0,1,192.576,243.5258Z"/><path fill="#fff" d="M232.669,243.5258a6.8653,6.8653,0,1,1-6.8651-6.8651A6.8653,6.8653,0,0,1,232.669,243.5258Z"/><path fill="#fff" d="M272.762,243.5258a6.8653,6.8653,0,1,1-6.8651-6.8651A6.8653,6.8653,0,0,1,272.762,243.5258Z"/><path fill="#fff" d="M72.2973,283.6188a6.8653,6.8653,0,1,1-6.8654-6.8651A6.865,6.865,0,0,1,72.2973,283.6188Z"/><path fill="#fff" d="M112.39,283.6188a6.8653,6.8653,0,1,1-6.8654-6.8651A6.8653,6.8653,0,0,1,112.39,283.6188Z"/><path fill="#fff" d="M152.4833,283.6188a6.8653,6.8653,0,1,1-6.8654-6.8651A6.8653,6.8653,0,0,1,152.4833,283.6188Z"/><path fill="#fff" d="M192.576,283.6188a6.8653,6.8653,0,1,1-6.8651-6.8651A6.8651,6.8651,0,0,1,192.576,283.6188Z"/><path fill="#fff" d="M232.669,283.6188a6.8653,6.8653,0,1,1-6.8651-6.8651A6.865,6.865,0,0,1,232.669,283.6188Z"/><path fill="#fff" d="M272.762,283.6188a6.8653,6.8653,0,1,1-6.8651-6.8651A6.865,6.865,0,0,1,272.762,283.6188Z"/><path fill="#fff" d="M72.2973,323.7118a6.8653,6.8653,0,1,1-6.8654-6.8654A6.865,6.865,0,0,1,72.2973,323.7118Z"/><path fill="#fff" d="M112.39,323.7118a6.8653,6.8653,0,1,1-6.8654-6.8654A6.8653,6.8653,0,0,1,112.39,323.7118Z"/><path fill="#fff" d="M152.4833,323.7118a6.8653,6.8653,0,1,1-6.8654-6.8654A6.8653,6.8653,0,0,1,152.4833,323.7118Z"/><path fill="#fff" d="M192.576,323.7118a6.8653,6.8653,0,1,1-6.8651-6.8654A6.8651,6.8651,0,0,1,192.576,323.7118Z"/><path fill="#fff" d="M232.669,323.7118a6.8653,6.8653,0,1,1-6.8651-6.8654A6.865,6.865,0,0,1,232.669,323.7118Z"/><path fill="#fff" d="M272.762,323.7118a6.8653,6.8653,0,1,1-6.8651-6.8654A6.865,6.865,0,0,1,272.762,323.7118Z"/><path fill="#fff" d="M72.2973,363.8048a6.8653,6.8653,0,1,1-6.8654-6.8654A6.865,6.865,0,0,1,72.2973,363.8048Z"/><path fill="#fff" d="M112.39,363.8048a6.8653,6.8653,0,1,1-6.8654-6.8654A6.8653,6.8653,0,0,1,112.39,363.8048Z"/><path fill="#fff" d="M152.4833,363.8048a6.8653,6.8653,0,1,1-6.8654-6.8654A6.8653,6.8653,0,0,1,152.4833,363.8048Z"/><path fill="#fff" d="M192.576,363.8048a6.8653,6.8653,0,1,1-6.8651-6.8654A6.8651,6.8651,0,0,1,192.576,363.8048Z"/><path fill="#fff" d="M232.669,363.8048a6.8653,6.8653,0,1,1-6.8651-6.8654A6.865,6.865,0,0,1,232.669,363.8048Z"/><path fill="#fff" d="M272.762,363.8048a6.8653,6.8653,0,1,1-6.8651-6.8654A6.865,6.865,0,0,1,272.762,363.8048Z"/><path fill="#fff" d="M2870.0622,441.5691a6.8653,6.8653,0,1,1,6.8651-6.8651A6.8653,6.8653,0,0,1,2870.0622,441.5691Z"/><path fill="#fff" d="M2870.0622,481.6621a6.8653,6.8653,0,1,1,6.8651-6.8651A6.8653,6.8653,0,0,1,2870.0622,481.6621Z"/><path fill="#fff" d="M2870.0622,521.7551a6.8653,6.8653,0,1,1,6.8651-6.8655A6.8654,6.8654,0,0,1,2870.0622,521.7551Z"/><path fill="#fff" d="M2870.0622,561.8481a6.8653,6.8653,0,1,1,6.8651-6.8654A6.8656,6.8656,0,0,1,2870.0622,561.8481Z"/><path fill="#fff" d="M2870.0622,601.9411a6.8653,6.8653,0,1,1,6.8651-6.8654A6.8656,6.8656,0,0,1,2870.0622,601.9411Z"/><path fill="#fff" d="M2870.0622,642.0337a6.8653,6.8653,0,1,1,6.8651-6.865A6.8653,6.8653,0,0,1,2870.0622,642.0337Z"/><path fill="#fff" d="M2870.0622,682.1268a6.8653,6.8653,0,1,1,6.8651-6.8651A6.8653,6.8653,0,0,1,2870.0622,682.1268Z"/><path fill="#fff" d="M2870.0622,722.22a6.8653,6.8653,0,1,1,6.8651-6.8651A6.8653,6.8653,0,0,1,2870.0622,722.22Z"/><path fill="#fff" d="M2829.9692,441.5691a6.8653,6.8653,0,1,1,6.8651-6.8651A6.8653,6.8653,0,0,1,2829.9692,441.5691Z"/><path fill="#fff" d="M2829.9692,481.6621a6.8653,6.8653,0,1,1,6.8651-6.8651A6.8653,6.8653,0,0,1,2829.9692,481.6621Z"/><path fill="#fff" d="M2829.9692,521.7551a6.8653,6.8653,0,1,1,6.8651-6.8655A6.8654,6.8654,0,0,1,2829.9692,521.7551Z"/><path fill="#fff" d="M2829.9692,561.8481a6.8653,6.8653,0,1,1,6.8651-6.8654A6.8656,6.8656,0,0,1,2829.9692,561.8481Z"/><path fill="#fff" d="M2829.9692,601.9411a6.8653,6.8653,0,1,1,6.8651-6.8654A6.8656,6.8656,0,0,1,2829.9692,601.9411Z"/><path fill="#fff" d="M2829.9692,642.0337a6.8653,6.8653,0,1,1,6.8651-6.865A6.8653,6.8653,0,0,1,2829.9692,642.0337Z"/><path fill="#fff" d="M2829.9692,682.1268a6.8653,6.8653,0,1,1,6.8651-6.8651A6.8653,6.8653,0,0,1,2829.9692,682.1268Z"/><path fill="#fff" d="M2829.9692,722.22a6.8653,6.8653,0,1,1,6.8651-6.8651A6.8653,6.8653,0,0,1,2829.9692,722.22Z"/><path fill="#fff" d="M2789.8762,441.5691a6.8653,6.8653,0,1,1,6.8654-6.8651A6.865,6.865,0,0,1,2789.8762,441.5691Z"/><path fill="#fff" d="M2789.8762,481.6621a6.8653,6.8653,0,1,1,6.8654-6.8651A6.865,6.865,0,0,1,2789.8762,481.6621Z"/><path fill="#fff" d="M2789.8762,521.7551a6.8653,6.8653,0,1,1,6.8654-6.8655A6.8651,6.8651,0,0,1,2789.8762,521.7551Z"/><path fill="#fff" d="M2789.8762,561.8481a6.8653,6.8653,0,1,1,6.8654-6.8654A6.8653,6.8653,0,0,1,2789.8762,561.8481Z"/><path fill="#fff" d="M2789.8762,601.9411a6.8653,6.8653,0,1,1,6.8654-6.8654A6.8653,6.8653,0,0,1,2789.8762,601.9411Z"/><path fill="#fff" d="M2789.8762,642.0337a6.8653,6.8653,0,1,1,6.8654-6.865A6.8649,6.8649,0,0,1,2789.8762,642.0337Z"/><path fill="#fff" d="M2789.8762,682.1268a6.8653,6.8653,0,1,1,6.8654-6.8651A6.865,6.865,0,0,1,2789.8762,682.1268Z"/><path fill="#fff" d="M2789.8762,722.22a6.8653,6.8653,0,1,1,6.8654-6.8651A6.865,6.865,0,0,1,2789.8762,722.22Z"/><path fill="#fff" d="M2749.7832,441.5691a6.8653,6.8653,0,1,1,6.8654-6.8651A6.865,6.865,0,0,1,2749.7832,441.5691Z"/><path fill="#fff" d="M2749.7832,481.6621a6.8653,6.8653,0,1,1,6.8654-6.8651A6.865,6.865,0,0,1,2749.7832,481.6621Z"/><path fill="#fff" d="M2749.7832,521.7551a6.8653,6.8653,0,1,1,6.8654-6.8655A6.8651,6.8651,0,0,1,2749.7832,521.7551Z"/><path fill="#fff" d="M2749.7832,561.8481a6.8653,6.8653,0,1,1,6.8654-6.8654A6.8653,6.8653,0,0,1,2749.7832,561.8481Z"/><path fill="#fff" d="M2749.7832,601.9411a6.8653,6.8653,0,1,1,6.8654-6.8654A6.8653,6.8653,0,0,1,2749.7832,601.9411Z"/><path fill="#fff" d="M2749.7832,642.0337a6.8653,6.8653,0,1,1,6.8654-6.865A6.8649,6.8649,0,0,1,2749.7832,642.0337Z"/><path fill="#fff" d="M2749.7832,682.1268a6.8653,6.8653,0,1,1,6.8654-6.8651A6.865,6.865,0,0,1,2749.7832,682.1268Z"/><path fill="#fff" d="M2749.7832,722.22a6.8653,6.8653,0,1,1,6.8654-6.8651A6.865,6.865,0,0,1,2749.7832,722.22Z"/><path fill="#fff" d="M2709.6905,441.5691a6.8653,6.8653,0,1,1,6.8651-6.8651A6.8651,6.8651,0,0,1,2709.6905,441.5691Z"/><path fill="#fff" d="M2709.6905,481.6621a6.8653,6.8653,0,1,1,6.8651-6.8651A6.8651,6.8651,0,0,1,2709.6905,481.6621Z"/><path fill="#fff" d="M2709.6905,521.7551a6.8653,6.8653,0,1,1,6.8651-6.8655A6.8652,6.8652,0,0,1,2709.6905,521.7551Z"/><path fill="#fff" d="M2709.6905,561.8481a6.8653,6.8653,0,1,1,6.8651-6.8654A6.8653,6.8653,0,0,1,2709.6905,561.8481Z"/><path fill="#fff" d="M2709.6905,601.9411a6.8653,6.8653,0,1,1,6.8651-6.8654A6.8653,6.8653,0,0,1,2709.6905,601.9411Z"/><path fill="#fff" d="M2709.6905,642.0337a6.8653,6.8653,0,1,1,6.8651-6.865A6.865,6.865,0,0,1,2709.6905,642.0337Z"/><path fill="#fff" d="M2709.6905,682.1268a6.8653,6.8653,0,1,1,6.8651-6.8651A6.8651,6.8651,0,0,1,2709.6905,682.1268Z"/><path fill="#fff" d="M2709.6905,722.22a6.8653,6.8653,0,1,1,6.8651-6.8651A6.8651,6.8651,0,0,1,2709.6905,722.22Z"/><path fill="#fff" d="M2699.836,243.7537a6.8651,6.8651,0,1,1,6.8651,6.8651A6.8653,6.8653,0,0,1,2699.836,243.7537Z"/><path fill="#fff" d="M2659.743,243.7537a6.8653,6.8653,0,1,1,6.8651,6.8651A6.8653,6.8653,0,0,1,2659.743,243.7537Z"/><path fill="#fff" d="M2619.65,243.7537a6.8653,6.8653,0,1,1,6.8651,6.8651A6.8653,6.8653,0,0,1,2619.65,243.7537Z"/><path fill="#fff" d="M2579.557,243.7537a6.8653,6.8653,0,1,1,6.8654,6.8651A6.8653,6.8653,0,0,1,2579.557,243.7537Z"/><path fill="#fff" d="M2539.464,243.7537a6.8653,6.8653,0,1,1,6.8654,6.8651A6.8656,6.8656,0,0,1,2539.464,243.7537Z"/><path fill="#fff" d="M2499.371,243.7537a6.8653,6.8653,0,1,1,6.8654,6.8651A6.8656,6.8656,0,0,1,2499.371,243.7537Z"/><path fill="#fff" d="M2459.2783,243.7537a6.8653,6.8653,0,1,1,6.8651,6.8651A6.8653,6.8653,0,0,1,2459.2783,243.7537Z"/><path fill="#fff" d="M2419.1853,243.7537a6.8653,6.8653,0,1,1,6.8651,6.8651A6.8653,6.8653,0,0,1,2419.1853,243.7537Z"/><path fill="#fff" d="M2699.836,203.6607a6.8651,6.8651,0,1,1,6.8651,6.8651A6.8653,6.8653,0,0,1,2699.836,203.6607Z"/><path fill="#fff" d="M2659.743,203.6607a6.8653,6.8653,0,1,1,6.8651,6.8651A6.8653,6.8653,0,0,1,2659.743,203.6607Z"/><path fill="#fff" d="M2619.65,203.6607a6.8653,6.8653,0,1,1,6.8651,6.8651A6.8653,6.8653,0,0,1,2619.65,203.6607Z"/><path fill="#fff" d="M2579.557,203.6607a6.8653,6.8653,0,1,1,6.8654,6.8651A6.8653,6.8653,0,0,1,2579.557,203.6607Z"/><path fill="#fff" d="M2539.464,203.6607a6.8653,6.8653,0,1,1,6.8654,6.8651A6.8656,6.8656,0,0,1,2539.464,203.6607Z"/><path fill="#fff" d="M2499.371,203.6607a6.8653,6.8653,0,1,1,6.8654,6.8651A6.8656,6.8656,0,0,1,2499.371,203.6607Z"/><path fill="#fff" d="M2459.2783,203.6607a6.8653,6.8653,0,1,1,6.8651,6.8651A6.8653,6.8653,0,0,1,2459.2783,203.6607Z"/><path fill="#fff" d="M2419.1853,203.6607a6.8653,6.8653,0,1,1,6.8651,6.8651A6.8653,6.8653,0,0,1,2419.1853,203.6607Z"/><circle cx="2706.701" cy="163.568" r="6.865" fill="#fff"/><path fill="#fff" d="M2659.743,163.5677a6.8653,6.8653,0,1,1,6.8651,6.8651A6.8651,6.8651,0,0,1,2659.743,163.5677Z"/><path fill="#fff" d="M2619.65,163.5677a6.8653,6.8653,0,1,1,6.8651,6.8651A6.865,6.865,0,0,1,2619.65,163.5677Z"/><path fill="#fff" d="M2579.557,163.5677a6.8653,6.8653,0,1,1,6.8654,6.8651A6.8651,6.8651,0,0,1,2579.557,163.5677Z"/><path fill="#fff" d="M2539.464,163.5677a6.8653,6.8653,0,1,1,6.8654,6.8651A6.8653,6.8653,0,0,1,2539.464,163.5677Z"/><path fill="#fff" d="M2499.371,163.5677a6.8653,6.8653,0,1,1,6.8654,6.8651A6.8653,6.8653,0,0,1,2499.371,163.5677Z"/><path fill="#fff" d="M2459.2783,163.5677a6.8653,6.8653,0,1,1,6.8651,6.8651A6.8651,6.8651,0,0,1,2459.2783,163.5677Z"/><path fill="#fff" d="M2419.1853,163.5677a6.8653,6.8653,0,1,1,6.8651,6.8651A6.8651,6.8651,0,0,1,2419.1853,163.5677Z"/><path fill="#fff" d="M2699.836,123.4747a6.8651,6.8651,0,1,1,6.8651,6.8654A6.865,6.865,0,0,1,2699.836,123.4747Z"/><path fill="#fff" d="M2659.743,123.4747a6.8653,6.8653,0,1,1,6.8651,6.8654A6.865,6.865,0,0,1,2659.743,123.4747Z"/><path fill="#fff" d="M2619.65,123.4747a6.8653,6.8653,0,1,1,6.8651,6.8654A6.865,6.865,0,0,1,2619.65,123.4747Z"/><path fill="#fff" d="M2579.557,123.4747a6.8653,6.8653,0,1,1,6.8654,6.8654A6.865,6.865,0,0,1,2579.557,123.4747Z"/><path fill="#fff" d="M2539.464,123.4747a6.8653,6.8653,0,1,1,6.8654,6.8654A6.8653,6.8653,0,0,1,2539.464,123.4747Z"/><path fill="#fff" d="M2499.371,123.4747a6.8653,6.8653,0,1,1,6.8654,6.8654A6.8653,6.8653,0,0,1,2499.371,123.4747Z"/><path fill="#fff" d="M2459.2783,123.4747a6.8653,6.8653,0,1,1,6.8651,6.8654A6.865,6.865,0,0,1,2459.2783,123.4747Z"/><path fill="#fff" d="M2419.1853,123.4747a6.8653,6.8653,0,1,1,6.8651,6.8654A6.865,6.865,0,0,1,2419.1853,123.4747Z"/><path fill="#fff" d="M2699.836,83.3817a6.8651,6.8651,0,1,1,6.8651,6.8654A6.865,6.865,0,0,1,2699.836,83.3817Z"/><path fill="#fff" d="M2659.743,83.3817a6.8653,6.8653,0,1,1,6.8651,6.8654A6.865,6.865,0,0,1,2659.743,83.3817Z"/><path fill="#fff" d="M2619.65,83.3817a6.8653,6.8653,0,1,1,6.8651,6.8654A6.865,6.865,0,0,1,2619.65,83.3817Z"/><path fill="#fff" d="M2579.557,83.3817a6.8653,6.8653,0,1,1,6.8654,6.8654A6.865,6.865,0,0,1,2579.557,83.3817Z"/><path fill="#fff" d="M2539.464,83.3817a6.8653,6.8653,0,1,1,6.8654,6.8654A6.8653,6.8653,0,0,1,2539.464,83.3817Z"/><path fill="#fff" d="M2499.371,83.3817a6.8653,6.8653,0,1,1,6.8654,6.8654A6.8653,6.8653,0,0,1,2499.371,83.3817Z"/><path fill="#fff" d="M2459.2783,83.3817a6.8653,6.8653,0,1,1,6.8651,6.8654A6.865,6.865,0,0,1,2459.2783,83.3817Z"/><path fill="#fff" d="M2419.1853,83.3817a6.8653,6.8653,0,1,1,6.8651,6.8654A6.865,6.865,0,0,1,2419.1853,83.3817Z"/><polygon fill="none" stroke="#fff" stroke-linecap="round" stroke-linejoin="round" stroke-width="5" points="2802.413 872.379 2802.413 920.162 2843.795 896.271 2802.413 872.379"/><polygon fill="none" stroke="#fff" stroke-linecap="round" stroke-linejoin="round" stroke-width="5" points="2483.155 416.898 2457.833 376.377 2435.401 418.567 2483.155 416.898"/><polygon fill="none" stroke="#fff" stroke-linecap="round" stroke-linejoin="round" stroke-width="5" points="804.703 518.24 779.38 477.718 756.949 519.909 804.703 518.24"/><polygon fill="#fff" points="1552.516 440.568 1580.057 494.825 1559.16 583.559 1509.394 542.901 1518.115 477.816 1552.516 440.568"/><path fill="#3e00ff" d="M1478.9986,422.3867a10.3742,10.3742,0,0,1-10.3731-10.3731V330.2557a10.3731,10.3731,0,0,1,20.7462,0v81.7579A10.3742,10.3742,0,0,1,1478.9986,422.3867Z"/><path fill="#15003e" d="M1495.6394,422.3867h-32.0623a10.3731,10.3731,0,0,1,0-20.7461h32.0623a10.3731,10.3731,0,0,1,0,20.7461Z"/><path fill="#fff" d="M1552.5159,440.5677l34.085-32.126A144.1319,144.1319,0,1,0,1484.6842,654.49c29.6711,0,55.7661,10.8317,78.6877-4.5383l28.5261,3.9471-.816-46.31-81.6877-64.6881h0l17.5618-82.7128,25.56-19.62"/><path fill="#3e00ff" d="M1484.6843,668.6349c-87.2742,0-158.2778-71.0018-158.2778-158.276s71.0036-158.2778,158.2778-158.2778a157.2349,157.2349,0,0,1,111.9194,46.36l10.3013,10.3013-44.686,42.1185-19.4054-20.5877,22.8974-21.5787a129.9937,129.9937,0,1,0-81.0267,231.65Z"/><path fill="#0fce7c" d="M1564.1308,587.33l-20.3189-19.6852A82.3268,82.3268,0,0,0,1542.04,451.3l-10.5978-10.2939,11.3658-10.7267,9.6824,10.2607,9.2606-9.5332a110.6176,110.6176,0,0,1,2.38,156.3236Z"/><circle cx="1484.684" cy="510.358" r="32.543" fill="#eff4ee"/><path fill="#3e00ff" d="M1484.6843,557.0451a46.6871,46.6871,0,1,1,46.688-46.6862A46.7405,46.7405,0,0,1,1484.6843,557.0451Zm0-65.084a18.3969,18.3969,0,1,0,18.3978,18.3978A18.4186,18.4186,0,0,0,1484.6843,491.9611Z"/><line x1="1586.601" x2="1504.352" y1="408.442" y2="484.436" fill="#15003e"/><rect width="111.981" height="28.291" x="1489.487" y="432.293" fill="#3e00ff" transform="translate(107.3839 1167.3377) rotate(-42.7364)"/><polyline fill="#fff" points="1500.039 539.055 1559.16 583.559 1591.082 607.589 1591.082 668.635 1526.956 665.546"/><polygon fill="#3e00ff" points="1605.227 668.635 1482.114 668.635 1482.114 640.345 1576.937 640.345 1576.937 614.646 1491.532 550.358 1508.547 527.755 1605.227 600.53 1605.227 668.635"/><rect width="16.035" height="16.035" x="1618.584" y="330.021" fill="#25e899" transform="translate(237.3914 1249.1906) rotate(-45)"/><rect width="7.666" height="7.666" x="1568.113" y="279.55" fill="#25e899" transform="translate(260.0305 1194.535) rotate(-45)"/><circle cx="1625.5" cy="235.787" r="8.173" fill="#25e899"/><path fill="#3e00ff" d="M1429.8978,450.94a10.3742,10.3742,0,0,1-10.3731-10.3731V330.2557a10.3731,10.3731,0,0,1,20.7462,0V440.5672A10.3742,10.3742,0,0,1,1429.8978,450.94Z"/></svg>